<svg width="124" height="115" viewBox="0 0 124 115" fill="none" xmlns="http://www.w3.org/2000/svg">
<g clip-path="url(#clip0_7019_5589)">
<path d="M123.822 79.7399C123.822 80.4309 123.365 81.1169 122.453 81.6401L75.9526 108.292C74.9394 108.806 73.8185 109.074 72.6815 109.074C71.5444 109.074 70.4235 108.806 69.4103 108.292L1.45834 69.153C0.565541 68.6594 0.119141 67.9586 0.119141 67.2775V69.6564C0.119141 70.3375 0.570501 71.0137 1.4633 71.532L69.4153 110.667C70.4285 111.18 71.5494 111.448 72.6864 111.448C73.8235 111.448 74.9444 111.18 75.9575 110.667L122.458 84.0142C123.37 83.491 123.826 82.8049 123.822 82.1189V79.7399Z" fill="#3A3A3A"/>
<path d="M122.477 77.8693L54.5252 38.7298C53.5112 38.2162 52.3895 37.9485 51.2516 37.9485C50.1138 37.9485 48.9921 38.2162 47.978 38.7298L1.48796 65.3772C-0.332365 66.4137 -0.342285 68.1066 1.4582 69.148L69.4102 108.288C70.4234 108.801 71.5443 109.069 72.6813 109.069C73.8184 109.069 74.9393 108.801 75.9524 108.288L122.447 81.6352C124.268 80.6036 124.278 78.9107 122.477 77.8693Z" fill="#DBE0E6"/>
<path d="M72.6838 109.186C71.5222 109.209 70.3741 108.934 69.3507 108.386L1.39872 69.2468C0.496 68.7237 0 68.0228 0 67.2677C0 66.5125 0.496 65.787 1.42848 65.2934L47.9285 38.6411C48.9595 38.1192 50.0999 37.8472 51.2566 37.8472C52.4134 37.8472 53.5538 38.1192 54.5848 38.6411L122.537 77.7805C123.44 78.3037 123.936 79.0046 123.936 79.7548C123.936 80.505 123.44 81.2355 122.507 81.729L76.007 108.381C74.9858 108.926 73.8422 109.203 72.6838 109.186ZM51.2517 38.0587C50.1344 38.0364 49.0299 38.298 48.0426 38.8187L1.54256 65.4711C0.69936 65.9647 0.22816 66.5915 0.22816 67.2627C0.22816 67.934 0.68448 68.5657 1.5128 69.0445L69.4648 108.184C70.4628 108.692 71.5678 108.957 72.6888 108.957C73.8098 108.957 74.9148 108.692 75.9128 108.184L122.413 81.5316C123.256 81.038 123.727 80.4112 123.727 79.74C123.727 79.0687 123.271 78.437 122.443 77.9582L54.4906 38.8187C53.4949 38.2916 52.3791 38.0298 51.2517 38.0587Z" fill="#3A3A3A"/>
<path d="M119.446 77.0895L67.9808 106.59L1.25391 68.0918L52.7189 38.5867L119.446 77.0895Z" fill="white"/>
<path d="M67.9815 106.723L67.922 106.693L1.02148 68.0919L52.7196 38.4781L119.68 77.1142L119.506 77.2129L67.9815 106.723ZM1.48772 68.0919L67.9815 106.461L119.218 77.0895L52.7196 38.72L1.48772 68.0919Z" fill="#3A3A3A"/>
<path d="M29.9278 50.1361L23.8418 53.6354C23.6534 53.7391 23.6335 53.902 23.7922 53.9957C23.8907 54.0452 23.9994 54.071 24.1097 54.071C24.22 54.071 24.3287 54.0452 24.4271 53.9957L30.513 50.4964C30.7015 50.3927 30.7214 50.2299 30.5577 50.1361C30.4601 50.0867 30.3522 50.0609 30.2427 50.0609C30.1333 50.0609 30.0253 50.0867 29.9278 50.1361Z" fill="#3A3A3A"/>
<path d="M10.975 76.3984C10.9016 76.3973 10.8297 76.3769 10.7667 76.3392L6.76399 74.0343C6.64614 73.9601 6.54835 73.8584 6.47917 73.7379C6.41 73.6175 6.37155 73.482 6.36719 73.3433V73.2446C6.36719 72.9978 6.51599 72.8843 6.66975 72.8843C6.74402 72.8848 6.8165 72.9071 6.87807 72.9484L10.8808 75.2534C10.9977 75.3277 11.0952 75.4287 11.1651 75.548C11.2349 75.6674 11.2752 75.8015 11.2825 75.9394V76.048C11.2825 76.2997 11.1288 76.4083 10.975 76.4083V76.3984Z" fill="white"/>
<path d="M6.67179 72.988C6.72668 72.9898 6.77997 73.0069 6.82555 73.0374L10.8233 75.3423C10.9239 75.4053 11.0076 75.4917 11.0672 75.594C11.1268 75.6963 11.1605 75.8115 11.1655 75.9297V76.0382C11.1655 76.1962 11.0911 76.285 10.9771 76.285C10.9229 76.2829 10.8702 76.2677 10.8233 76.2406L6.82555 73.9357C6.72518 73.8712 6.64174 73.7839 6.58221 73.6808C6.52267 73.5778 6.48876 73.4621 6.48331 73.3434V73.2447C6.48331 73.0917 6.55771 72.9979 6.67179 72.9979V72.988ZM6.67179 72.761C6.61036 72.7625 6.54994 72.7769 6.49449 72.8032C6.43904 72.8296 6.3898 72.8673 6.35 72.9139C6.3102 72.9605 6.28074 73.0149 6.26354 73.0736C6.24634 73.1323 6.24179 73.194 6.25019 73.2545V73.3631C6.25746 73.522 6.3032 73.6768 6.38352 73.8143C6.46383 73.9518 6.57634 74.0679 6.71147 74.1528L10.7092 76.4578C10.7906 76.505 10.8829 76.5305 10.9771 76.5318C11.0388 76.5311 11.0996 76.5172 11.1554 76.4911C11.2113 76.465 11.2608 76.4273 11.3008 76.3805C11.3407 76.3338 11.3702 76.279 11.387 76.22C11.4039 76.1609 11.4079 76.0989 11.3987 76.0382V75.9297C11.3906 75.7716 11.3445 75.6179 11.2642 75.4813C11.1839 75.3447 11.0719 75.2293 10.9374 75.1449L6.94459 72.84C6.86353 72.7914 6.77133 72.7642 6.67675 72.761H6.67179Z" fill="#3A3A3A"/>
<path d="M11.4067 75.5989C11.3808 75.5194 11.3423 75.4444 11.2927 75.3768C11.2409 75.3052 11.1751 75.2447 11.0992 75.1992L7.09651 72.8942C7.05956 72.873 7.01765 72.8618 6.97499 72.8618C6.93233 72.8618 6.89042 72.873 6.85347 72.8942L6.60547 73.0374C6.64456 73.0198 6.68764 73.0128 6.73033 73.0171C6.77302 73.0214 6.81379 73.0369 6.84851 73.062L10.8463 75.367C10.9237 75.4123 10.9912 75.4728 11.0447 75.5446C11.0895 75.6133 11.1277 75.686 11.1587 75.7618C11.178 75.8242 11.188 75.8891 11.1885 75.9543V76.0629C11.1937 76.1054 11.1872 76.1485 11.1697 76.1876C11.1522 76.2267 11.1245 76.2603 11.0893 76.285L11.3373 76.1468C11.373 76.1224 11.4014 76.0889 11.4198 76.0498C11.4381 76.0108 11.4456 75.9676 11.4415 75.9247V75.8161C11.4422 75.7423 11.4304 75.6689 11.4067 75.5989Z" fill="#3A3A3A"/>
<path d="M15.2862 77.6866C15.2359 77.6124 15.1699 77.5501 15.0928 77.504L13.1981 76.4133C13.1611 76.392 13.1192 76.3809 13.0766 76.3809C13.0339 76.3809 12.992 76.392 12.955 76.4133L12.707 76.5564C12.7441 76.5356 12.786 76.5247 12.8286 76.5247C12.8711 76.5247 12.913 76.5356 12.9501 76.5564L14.8448 77.6472C14.923 77.6918 14.9893 77.7544 15.0382 77.8298C15.0888 77.8949 15.1274 77.9685 15.1523 78.0469C15.1758 78.1084 15.1876 78.1737 15.187 78.2394V78.348C15.1917 78.391 15.1844 78.4344 15.1661 78.4735C15.1477 78.5127 15.1189 78.5461 15.0829 78.5701L15.3358 78.427C15.3702 78.4016 15.3974 78.3679 15.4148 78.3289C15.4322 78.29 15.4392 78.2473 15.435 78.2049V78.0963C15.4349 78.031 15.4248 77.9661 15.4053 77.9038C15.3755 77.8265 15.3355 77.7534 15.2862 77.6866Z" fill="#3A3A3A"/>
<path d="M14.9949 78.6985C14.9216 78.6961 14.8501 78.6758 14.7866 78.6393L12.8968 77.5485C12.7795 77.4738 12.6822 77.3719 12.6131 77.2515C12.544 77.1312 12.5052 76.9961 12.5 76.8576V76.749C12.5 76.5022 12.6488 76.3887 12.8026 76.3887C12.8768 76.3892 12.9493 76.4115 13.0109 76.4528L14.9106 77.5436C15.0275 77.6187 15.1246 77.7207 15.1937 77.8409C15.2628 77.9612 15.3017 78.0962 15.3074 78.2346V78.3432C15.3137 78.3872 15.3106 78.432 15.2981 78.4747C15.2856 78.5173 15.264 78.5568 15.2349 78.5905C15.2057 78.6242 15.1697 78.6512 15.1291 78.6699C15.0886 78.6885 15.0445 78.6983 14.9998 78.6985H14.9949Z" fill="white"/>
<path d="M12.7975 76.5022C12.8524 76.504 12.9057 76.5211 12.9513 76.5515L14.846 77.6423C14.9461 77.707 15.0293 77.7945 15.0888 77.8974C15.1483 78.0004 15.1824 78.116 15.1883 78.2346V78.3432C15.1883 78.4962 15.1089 78.585 14.9948 78.585C14.9423 78.5827 14.8912 78.5674 14.846 78.5406L12.9513 77.4498C12.8501 77.3863 12.766 77.2992 12.7063 77.196C12.6467 77.0927 12.6133 76.9766 12.6091 76.8576V76.749C12.6091 76.596 12.6835 76.5022 12.7975 76.5022ZM12.7975 76.2751C12.7359 76.2759 12.675 76.2897 12.6192 76.3158C12.5633 76.3419 12.5138 76.3796 12.4738 76.4264C12.4339 76.4732 12.4045 76.5279 12.3876 76.587C12.3707 76.646 12.3667 76.708 12.3759 76.7687V76.8773C12.3832 77.0362 12.429 77.1909 12.5093 77.3284C12.5896 77.4659 12.7021 77.5821 12.8372 77.667L14.7319 78.7578C14.8115 78.8058 14.9019 78.8329 14.9948 78.8367C15.0565 78.836 15.1173 78.8221 15.1732 78.796C15.229 78.77 15.2786 78.7322 15.3185 78.6855C15.3585 78.6387 15.3879 78.5839 15.4048 78.5249C15.4217 78.4658 15.4256 78.4039 15.4164 78.3432V78.2346C15.4097 78.0762 15.3647 77.9217 15.2853 77.7842C15.2058 77.6468 15.0943 77.5304 14.9601 77.4449L13.0654 76.3541C12.9843 76.3055 12.8921 76.2783 12.7975 76.2751Z" fill="#3A3A3A"/>
<path d="M27.25 74.5575L56.9009 58.27V0.217163L27.25 16.1444V74.5575Z" fill="white"/>
<path d="M27.1211 74.7747V16.0655L27.1905 16.0309L57.0398 0V58.344L56.9753 58.3835L27.1211 74.7747ZM27.379 16.2185V74.3403L56.772 58.1959V0.449142L27.379 16.2185Z" fill="#3A3A3A"/>
<path d="M30.252 29.1795L37.3646 25.2902V24.1797L30.252 28.069V29.1795Z" fill="#96999E"/>
<path d="M30.1367 29.3719V28.0048L37.4775 23.9872V25.3692L30.1367 29.3719ZM30.3649 28.138V28.987L37.2494 25.226V24.382L30.3649 28.138Z" fill="#3A3A3A"/>
<path d="M38.7715 24.5202L45.8841 20.6309V19.5204L38.7715 23.4047V24.5202Z" fill="#96999E"/>
<path d="M38.6582 24.7077V23.3405L45.999 19.3279V20.7L45.9395 20.7296L38.6582 24.7077ZM38.8864 23.4738V24.3277L45.7708 20.5618V19.7129L38.8864 23.4738Z" fill="#3A3A3A"/>
<path d="M47.998 19.471L53.6971 16.3566L53.702 15.2461L47.998 18.3605V19.471Z" fill="#96999E"/>
<path d="M47.8848 19.6636V18.2964L53.8368 15.0537V16.4209L53.7772 16.4554L47.8848 19.6636ZM48.1129 18.4297V19.2786L53.5689 16.2876V15.4338L48.1129 18.4297Z" fill="#3A3A3A"/>
<path d="M30.2461 32.1014L45.4485 23.7848V22.6743L30.2461 30.9908V32.1014Z" fill="#96999E"/>
<path d="M30.1328 32.2789V30.9216L30.1923 30.892L45.5683 22.5015V23.8686L45.5088 23.9032L30.1328 32.2789ZM30.361 31.045V31.894L45.3352 23.7206V22.8667L30.361 31.045Z" fill="#3A3A3A"/>
<path d="M46.8281 23.0346L49.6801 21.4749V20.3644L46.8331 21.9191L46.8281 23.0346Z" fill="#96999E"/>
<path d="M46.7129 23.2221V21.8549L49.7881 20.1719V21.539L46.7129 23.2221ZM46.9411 21.9882V22.842L49.5649 21.4206V20.5519L46.9411 21.9882Z" fill="#3A3A3A"/>
<path d="M50.75 20.8875L53.602 19.3279V18.2124L50.75 19.777V20.8875Z" fill="#96999E"/>
<path d="M50.6367 21.0801V19.7079L53.7169 18.0249V19.397L50.6367 21.0801ZM50.8649 19.8412V20.6951L53.4887 19.2588V18.4049L50.8649 19.8412Z" fill="#3A3A3A"/>
<path d="M30.2402 35.0232L36.7974 31.435V30.3245L30.2402 33.9127V35.0232Z" fill="#96999E"/>
<path d="M30.127 35.2403V33.8435L36.9122 30.132V31.5041L30.127 35.2403ZM30.3551 34.0064V34.8553L36.689 31.4004V30.5169L30.3551 34.0064Z" fill="#3A3A3A"/>
<path d="M38.7617 30.364L50.7748 23.7897L50.7798 22.6792L38.7617 29.2534V30.364Z" fill="#96999E"/>
<path d="M38.6484 30.5564V29.1843L38.708 29.1547L50.8947 22.4867V23.8588L50.8352 23.8884L38.6484 30.5564ZM38.8766 29.3176V30.1715L50.6616 23.7255V22.8717L38.8766 29.3176Z" fill="#3A3A3A"/>
<path d="M52.0664 23.0889L53.6883 22.2005L53.6933 21.09L52.0664 21.9734V23.0889Z" fill="#96999E"/>
<path d="M51.9512 23.2813V21.9141L53.8062 20.9023V22.2695L51.9512 23.2813ZM52.1793 22.0425V22.9013L53.5681 22.1313V21.2775L52.1793 22.0425Z" fill="#3A3A3A"/>
<path d="M30.2305 37.945L40.0414 32.58V31.4695L30.2354 36.8345L30.2305 37.945Z" fill="#96999E"/>
<path d="M30.123 38.1376V36.7655L30.1826 36.7359L40.177 31.2919V32.664L40.1174 32.6936L30.123 38.1376ZM30.3512 36.8987V37.7526L39.929 32.511V31.662L30.3512 36.8987Z" fill="#3A3A3A"/>
<path d="M49.0547 27.6493L53.6824 25.1174V24.0068L49.0596 26.5388L49.0547 27.6493Z" fill="#96999E"/>
<path d="M48.9395 27.8369V26.4747L53.7903 23.8193V25.1865L48.9395 27.8369ZM49.1726 26.603V27.4569L53.5671 25.0532V24.1994L49.1726 26.603Z" fill="#3A3A3A"/>
<path d="M41.332 31.8791L48.0132 28.2218V27.1113L41.332 30.7637V31.8791Z" fill="#96999E"/>
<path d="M41.2168 32.0717V30.6996L41.2763 30.6651L48.1112 26.9189V28.2861L41.2168 32.0717ZM41.445 30.8329V31.6868L47.893 28.1529V27.3039L41.445 30.8329Z" fill="#3A3A3A"/>
<path d="M30.2266 40.8669L32.4982 39.6281V38.5176L30.2315 39.7564L30.2266 40.8669Z" fill="#96999E"/>
<path d="M30.1113 41.0595V39.6825L32.5913 38.3153V39.6825L30.1113 41.0595ZM30.3444 39.8256V40.6696L32.388 39.5492V38.6953L30.3444 39.8256Z" fill="#3A3A3A"/>
<path d="M47.9785 31.1585L53.6776 28.0442V26.9287L47.9785 30.048V31.1585Z" fill="#96999E"/>
<path d="M47.8633 31.3511V29.979L53.8153 26.7363V28.1134L47.8633 31.3511ZM48.0914 30.1172V30.9662L53.5474 27.9752V27.1213L48.0914 30.1172Z" fill="#3A3A3A"/>
<path d="M33.5039 39.0753L46.5933 31.9137L46.5983 30.8032L33.5089 37.9599L33.5039 39.0753Z" fill="#96999E"/>
<path d="M33.3906 39.2629V37.8957L33.4501 37.8611L46.7132 30.6107V31.9828L46.6537 32.0124L33.3906 39.2629ZM33.6237 38.029V38.8828L46.4801 31.8446V30.9957L33.6237 38.029Z" fill="#3A3A3A"/>
<path d="M30.2227 43.7888L43.0393 36.7851V35.6697L30.2276 42.6783L30.2227 43.7888Z" fill="#96999E"/>
<path d="M30.1074 43.9813V42.6092L30.1669 42.5796L43.1522 35.4822V36.8493L43.0977 36.8839L30.1074 43.9813ZM30.3405 42.7474V43.5963L42.9241 36.721V35.8622L30.3405 42.7474Z" fill="#3A3A3A"/>
<path d="M44.2617 36.109L53.6708 30.9611V29.8506L44.2617 34.9984V36.109Z" fill="#96999E"/>
<path d="M44.1445 36.3015V34.9343L44.2041 34.8998L53.7868 29.6631V31.0303L44.1445 36.3015ZM44.3727 35.0676V35.9215L53.5685 30.897V30.0431L44.3727 35.0676Z" fill="#3A3A3A"/>
<path d="M30.2168 46.7107L34.8147 44.1935V43.083L30.2168 45.6002V46.7107Z" fill="#96999E"/>
<path d="M30.1016 46.9032V45.5311L30.1611 45.5015L34.9227 42.8955V44.2627L30.1016 46.9032ZM30.3297 45.6644V46.5183L34.7193 44.1245V43.2706L30.3297 45.6644Z" fill="#3A3A3A"/>
<path d="M50.8145 35.4428L53.6665 33.8831V32.7726L50.8145 34.3322V35.4428Z" fill="#96999E"/>
<path d="M50.7012 35.6352V34.2532L53.7863 32.5702V33.9374L50.7012 35.6352ZM50.9293 34.4013V35.2404L53.5681 33.8189V32.965L50.9293 34.4013Z" fill="#3A3A3A"/>
<path d="M35.8906 43.6112L38.0036 42.4513V41.3408L35.8906 42.4958V43.6112Z" fill="#96999E"/>
<path d="M35.7773 43.8036V42.4315L35.8369 42.397L38.1185 41.1631V42.5352L35.7773 43.8036ZM36.0055 42.5648V43.4187L37.8903 42.3822V41.5333L36.0055 42.5648Z" fill="#3A3A3A"/>
<path d="M39.0742 41.8639L48.9149 36.4841V35.3687L39.0792 40.7534L39.0742 41.8639Z" fill="#96999E"/>
<path d="M38.9609 42.0565V40.6696L49.0297 35.1812V36.5533L48.9702 36.5829L38.9609 42.0565ZM39.1941 40.8226V41.6567L48.8016 36.42V35.5612L39.1941 40.8226Z" fill="#3A3A3A"/>
<path d="M30.2109 49.6327L38.7917 44.9389L38.7967 43.8284L30.2109 48.5221V49.6327Z" fill="#96999E"/>
<path d="M30.0977 49.8201V48.4579L38.9116 43.6309V45.003L38.8521 45.0326L30.0977 49.8201ZM30.3258 48.5912V49.4401L38.6884 44.8697V44.0208L30.3258 48.5912Z" fill="#3A3A3A"/>
<path d="M49.8281 38.9026L53.6622 36.805V35.6945L49.8331 37.7921L49.8281 38.9026Z" fill="#96999E"/>
<path d="M49.7148 39.0951V37.7082L53.7721 35.4872V36.8593L49.7148 39.0951ZM49.943 37.8563V38.6953L53.5688 36.7211V35.887L49.943 37.8563Z" fill="#3A3A3A"/>
<path d="M39.6953 44.4453L44.2486 41.9528L44.2536 40.8423L39.7003 43.3298L39.6953 44.4453Z" fill="#96999E"/>
<path d="M39.5859 44.6181V43.246L39.6455 43.2114L44.3674 40.6696V42.0417L39.5859 44.6181ZM39.8141 43.3792V44.2331L44.1442 41.8837V41.0348L39.8141 43.3792Z" fill="#3A3A3A"/>
<path d="M45.457 41.2914L48.4182 39.6725V38.562L45.462 40.1809L45.457 41.2914Z" fill="#96999E"/>
<path d="M45.3438 41.479V40.1167L48.5281 38.3695V39.7416L45.3438 41.479ZM45.5769 40.25V41.0989L48.3098 39.6182V38.7545L45.5769 40.25Z" fill="#3A3A3A"/>
<path d="M30.207 52.5545L36.2731 49.2328L36.2781 48.1223L30.207 51.444V52.5545Z" fill="#96999E"/>
<path d="M30.0938 52.747V51.3749L36.393 47.9199V49.2871L36.3334 49.3167L30.0938 52.747ZM30.3219 51.5131V52.362L36.1598 49.1686V48.3148L30.3219 51.5131Z" fill="#3A3A3A"/>
<path d="M52.3965 40.4128L53.6514 39.7268V38.6212L52.3965 39.3023V40.4128Z" fill="#96999E"/>
<path d="M52.2832 40.6053V39.2382L53.7712 38.4287V39.7959L52.2832 40.6053ZM52.5114 39.3714V40.2253L53.5678 39.6824V38.8088L52.5114 39.3714Z" fill="#3A3A3A"/>
<path d="M37.2246 48.7146L42.9286 45.5953V44.4847L37.2296 47.6041L37.2246 48.7146Z" fill="#96999E"/>
<path d="M37.1094 48.907V47.5349L37.1639 47.5053L43.0366 44.2922V45.6643L37.1094 48.907ZM37.3375 47.6682V48.5221L42.7935 45.5311V44.6772L37.3375 47.6682Z" fill="#3A3A3A"/>
<path d="M43.6035 45.2251L51.0485 41.1532L51.0534 40.0427L43.6035 44.1146V45.2251Z" fill="#96999E"/>
<path d="M43.4902 45.4176V44.0504L51.1683 39.8502V41.2223L51.1088 41.2519L43.4902 45.4176ZM43.7184 44.1837V45.0376L50.9352 41.0891V40.2352L43.7184 44.1837Z" fill="#3A3A3A"/>
<path d="M30.1973 55.4765L41.6648 49.2082V48.0928L30.2022 54.3659L30.1973 55.4765Z" fill="#96999E"/>
<path d="M30.082 55.6689V54.2968L30.1416 54.2672L41.7728 47.9052V49.2723L41.7132 49.3069L30.082 55.6689ZM30.3151 54.43V55.2839L41.5545 49.1391V48.2852L30.3151 54.43Z" fill="#3A3A3A"/>
<path d="M42.9531 48.5024L46.8715 46.3554L46.8765 45.2449L42.9531 47.3919V48.5024Z" fill="#96999E"/>
<path d="M42.8398 48.6949V47.3228L46.9914 45.0524V46.4245L42.8398 48.6949ZM43.068 47.456V48.3099L46.7632 46.2912V45.4373L43.068 47.456Z" fill="#3A3A3A"/>
<path d="M47.9492 45.768L53.6483 42.6487V41.5382L47.9492 44.6575V45.768Z" fill="#96999E"/>
<path d="M47.834 45.9606V44.6181L53.786 41.3754V42.7425L47.834 45.9606ZM48.0621 44.7267V45.5756L53.5181 42.5846V41.7307L48.0621 44.7267Z" fill="#3A3A3A"/>
<path d="M30.1973 58.3983L33.6891 56.4883V55.3728L30.1973 57.2829V58.3983Z" fill="#96999E"/>
<path d="M30.082 58.5908V57.2187L33.802 55.1852V56.5523L30.082 58.5908ZM30.3102 57.3519V58.2058L33.5739 56.4191V55.5652L30.3102 57.3519Z" fill="#3A3A3A"/>
<path d="M51.3457 46.8292L53.6422 45.5706L53.6471 44.4601L51.3457 45.7187V46.8292Z" fill="#96999E"/>
<path d="M51.2305 47.0217V45.6496L53.7601 44.2676V45.6397L51.2305 47.0217ZM51.4586 45.7828V46.6367L53.5269 45.5064V44.6526L51.4586 45.7828Z" fill="#3A3A3A"/>
<path d="M34.6641 55.9502L38.3444 53.9364L38.3493 52.8259L34.669 54.8397L34.6641 55.9502Z" fill="#96999E"/>
<path d="M34.5566 56.1428V54.7707L38.4651 52.6335V53.9958L34.5566 56.1428ZM34.7848 54.9089V55.7578L38.2568 53.8724V53.0087L34.7848 54.9089Z" fill="#3A3A3A"/>
<path d="M39.2676 53.433L50.2391 47.4313L50.2441 46.3208L39.2676 52.3225V53.433Z" fill="#96999E"/>
<path d="M39.1543 53.6255V52.2534L39.2138 52.2238L50.3589 46.1283V47.5004L50.2994 47.53L39.1543 53.6255ZM39.3825 52.3916V53.2405L50.1258 47.3671V46.5133L39.3825 52.3916Z" fill="#3A3A3A"/>
<path d="M30.1914 61.3202L36.808 57.6974L36.813 56.5869L30.1914 60.2097V61.3202Z" fill="#96999E"/>
<path d="M30.0781 61.5126V60.1455L36.9279 56.3944V57.7665L30.0781 61.5126ZM30.3013 60.2787V61.1277L36.7047 57.6332V56.7794L30.3013 60.2787Z" fill="#3A3A3A"/>
<path d="M48.3984 51.3601L53.6362 48.4925V47.382L48.3984 50.2496V51.3601Z" fill="#96999E"/>
<path d="M48.2852 51.5525V50.1854L53.7412 47.1895V48.5665L48.2852 51.5525ZM48.5084 50.3186V51.1725L53.5229 48.4283V47.5794L48.5084 50.3186Z" fill="#3A3A3A"/>
<path d="M37.3594 57.3964L47.5373 51.829V50.7185L37.3643 56.2859L37.3594 57.3964Z" fill="#96999E"/>
<path d="M37.2461 57.5889V56.2217L47.6621 50.526V51.8981L47.6026 51.9277L37.2461 57.5889ZM37.4792 56.355V57.2039L47.429 51.7747V50.9208L37.4792 56.355Z" fill="#3A3A3A"/>
<path d="M30.1816 64.242L34.353 61.9618V60.8463L30.1816 63.1315V64.242Z" fill="#96999E"/>
<path d="M30.0684 64.4346V63.0625L34.4679 60.6588V62.026L30.0684 64.4346ZM30.2965 63.1957V64.0496L34.2248 61.8927V61.0389L30.2965 63.1957Z" fill="#3A3A3A"/>
<path d="M35.0234 61.5916L40.6679 58.5069V57.3964L35.0284 60.4811L35.0234 61.5916Z" fill="#96999E"/>
<path d="M34.9082 61.7841V60.412L34.9628 60.3824L40.7709 57.2039V58.571L40.7114 58.6056L34.9082 61.7841ZM35.1413 60.5502V61.3991L40.5576 58.4378V57.5888L35.1413 60.5502Z" fill="#3A3A3A"/>
<path d="M41.7695 57.8998L53.6339 51.4143V50.3038L41.7745 56.7942L41.7695 57.8998Z" fill="#96999E"/>
<path d="M41.6641 58.0922V56.7251L41.7236 56.6955L53.7516 50.1113V51.4834L53.6921 51.518L41.6641 58.0922ZM41.8922 56.8583V57.7122L53.5284 51.3502V50.4963L41.8922 56.8583Z" fill="#3A3A3A"/>
<path d="M34.4218 11.7765L30.8357 13.6668C30.7185 13.7295 30.6237 13.8266 30.5642 13.9451C30.5047 14.0635 30.4834 14.1973 30.5034 14.3282C30.9854 17.5956 31.1084 20.9055 30.8704 24.1994L33.157 20.5964L35.8056 21.9142C36.0055 18.6822 35.8642 15.4382 35.384 12.2355C35.3652 12.1336 35.3225 12.0376 35.2593 11.9554C35.1961 11.8731 35.1142 11.8069 35.0204 11.7621C34.9265 11.7174 34.8234 11.6953 34.7193 11.6978C34.6153 11.7003 34.5133 11.7273 34.4218 11.7765Z" fill="#D2FC1B"/>
<path d="M30.7236 24.6337L30.7534 24.1747C30.992 20.8939 30.869 17.597 30.3864 14.3429C30.3645 14.1882 30.3909 14.0305 30.4618 13.8911C30.5328 13.7517 30.6449 13.6372 30.7832 13.5631L34.3692 11.6728C34.4804 11.6156 34.6037 11.5858 34.7288 11.5858C34.854 11.5858 34.9773 11.6156 35.0884 11.6728C35.1981 11.7265 35.2931 11.8057 35.3656 11.9036C35.4381 12.0015 35.4859 12.1153 35.5051 12.2354C35.9811 15.4385 36.1224 18.6821 35.9267 21.9142V22.0968L33.2136 20.7148L30.7236 24.6337ZM34.4784 11.8801L30.8923 13.7753C30.7954 13.823 30.7167 13.9009 30.6684 13.9971C30.62 14.0933 30.6046 14.2026 30.6244 14.3084C31.0875 17.4267 31.2188 20.5848 31.0163 23.7305L33.1144 20.4335L35.7134 21.7365C35.8979 18.573 35.7533 15.399 35.2819 12.265C35.2716 12.1809 35.2397 12.1009 35.1893 12.0326C35.139 11.9643 35.0718 11.9101 34.9942 11.8751C34.9175 11.8357 34.8325 11.8152 34.7462 11.8152C34.6599 11.8152 34.5749 11.8357 34.4982 11.8751L34.4784 11.8801Z" fill="#3A3A3A"/>
<mask id="mask0_7019_5589" style="mask-type:luminance" maskUnits="userSpaceOnUse" x="2" y="-7" width="118" height="114">
<path d="M119.715 76.8131L68.4886 106.18L2.07422 67.8599L42.0369 -6.21887L119.715 76.8131Z" fill="white"/>
</mask>
<g mask="url(#mask0_7019_5589)">
<path d="M86.9822 75.1646C84.5022 69.691 76.6356 60.5947 70.6985 57.4754C64.7614 54.356 71.011 74.0887 74.2201 77.2178C77.4292 80.347 91.9223 86.1464 86.9822 75.1646Z" fill="#96999E"/>
<path d="M84.875 81.6352C81.403 81.6352 76.071 79.123 74.1664 77.2672C72.8718 76.0086 71.0069 71.9762 69.628 67.465C68.1102 62.48 67.7382 58.7734 68.636 57.5444C69.0725 56.9472 69.7768 56.9028 70.7291 57.4013C76.7803 60.5848 84.6171 69.7009 87.0525 75.135C88.4065 78.1507 88.4165 80.1545 87.0822 81.0577C86.422 81.4676 85.6525 81.6689 84.875 81.6352ZM69.5933 57.2236C69.4325 57.2212 69.2736 57.2576 69.1302 57.3298C68.9868 57.4021 68.8631 57.5079 68.7699 57.6382C66.7859 60.3429 71.6219 74.5723 74.2755 77.1537C76.6414 79.4537 84.3393 82.7951 86.9929 80.9541C88.2627 80.0755 88.2329 78.1358 86.9086 75.1992C84.4782 69.77 76.6861 60.7082 70.6597 57.5444C70.3356 57.3529 69.9696 57.2428 69.5933 57.2236Z" fill="#3A3A3A"/>
<path d="M81.1452 79.5376L79.5977 80.4013C79.186 80.6284 78.5561 80.2582 78.194 79.5869L42.8242 13.9432L43.3649 13.6421L81.1799 77.9384C81.5668 78.5801 81.5519 79.3105 81.1452 79.5376Z" fill="#3A3A3A"/>
<path d="M91.2929 112.843C91.504 112.571 91.6713 112.268 91.7889 111.945C91.898 111.649 92.1708 87.8245 92.3246 80.4655C92.4783 73.1065 93.3464 71.6999 91.2334 69.5084C89.1204 67.317 74.1809 55.1458 72.435 53.3344C70.6891 51.523 67.9164 50.2348 67.2617 51.0295C66.4681 52.0166 66.9691 53.7539 68.1 55.7973C68.9401 57.1816 70.0297 58.3997 71.314 59.3904C73.8148 63.4477 77.0033 67.0431 80.738 70.0168C80.738 70.0168 85.2318 75.5447 83.218 78.1655C80.991 81.0381 78.5804 77.4005 75.902 72.5587C73.2236 67.7168 69.7417 65.6142 68.5414 66.2756C67.3411 66.937 68.8241 70.002 69.6623 71.5123C70.5006 73.0226 71.1504 82.8939 72.7028 88.0318C74.2553 93.1698 77.0428 96.0522 78.4515 98.5842C81.6705 104.388 80.2619 112.838 80.2619 112.838C82.4484 114.376 85.1352 115.042 87.7911 114.704C89.1573 114.561 90.4135 113.893 91.2929 112.843Z" fill="#DBE0E6"/>
<path d="M86.4081 114.936C84.1694 114.92 81.9876 114.232 80.1485 112.962L80.0841 112.917V112.838C80.0841 112.754 81.453 104.364 78.2885 98.6631C77.8818 97.9327 77.3461 97.1528 76.7757 96.3286C75.3721 94.2852 73.6261 91.7483 72.5349 88.0861C71.7116 85.337 71.1461 81.3194 70.6501 77.7805C70.2335 74.8191 69.8764 72.2724 69.4994 71.5912C68.7802 70.2981 67.6295 67.9537 67.9717 66.779C68.0035 66.6553 68.0598 66.5392 68.1373 66.4375C68.2148 66.3358 68.312 66.2505 68.4231 66.1867C68.8164 66.0148 69.262 66.0042 69.6631 66.1571C71.3049 66.6507 73.889 68.7779 75.9573 72.5191C77.6735 75.6187 79.6476 78.9354 81.3836 79.0736C81.9788 79.1181 82.5293 78.8071 83.065 78.0865C85.0143 75.5693 80.6495 70.1451 80.585 70.0908C76.8651 67.1107 73.686 63.5182 71.1858 59.4693C69.8928 58.4723 68.7963 57.2457 67.9519 55.8515C66.6524 53.5022 66.3746 51.8537 67.1285 50.9455C67.214 50.8517 67.3192 50.7778 67.4366 50.7292C67.5541 50.6805 67.681 50.6583 67.8081 50.6642C68.9737 50.6198 71.0717 51.7797 72.4853 53.2455C73.3137 54.1043 77.113 57.2977 81.1356 60.649C85.5996 64.3803 90.1727 68.2449 91.2837 69.3949C92.8858 71.0533 92.8164 72.2477 92.6081 75.8112C92.5386 77.0303 92.4493 78.5455 92.4097 80.4556C92.3452 83.417 92.2658 89.1621 92.1815 94.7196C92.0178 106.313 91.9285 111.797 91.8641 111.994C91.7484 112.329 91.5811 112.644 91.3681 112.927C90.4633 114.004 89.1744 114.69 87.7721 114.842C87.3204 114.907 86.8644 114.938 86.4081 114.936ZM80.3519 112.784C82.5072 114.281 85.1455 114.925 87.7522 114.59C89.0923 114.451 90.3252 113.798 91.1895 112.769C91.3907 112.507 91.5497 112.216 91.6607 111.905C91.7202 111.585 91.8492 102.631 91.9633 94.7294C92.0476 89.1719 92.1269 83.4269 92.1914 80.4655C92.2311 78.5505 92.3204 77.0105 92.3898 75.8112C92.5932 72.3563 92.6577 71.1816 91.1349 69.6022C90.0338 68.4571 85.4458 64.6024 81.0066 60.8711C76.9791 57.4902 73.1748 54.2919 72.3365 53.4281C71.0122 52.0511 69.0034 50.9159 67.9023 50.9159H67.8477C67.7561 50.911 67.6644 50.9256 67.5788 50.9588C67.4933 50.992 67.4159 51.043 67.3517 51.1084C66.6722 51.9277 66.9599 53.4874 68.2049 55.738C69.0391 57.1048 70.1165 58.309 71.3842 59.2917L71.4189 59.3262C73.9133 63.3633 77.082 66.9471 80.7884 69.923C80.9967 70.1698 85.3417 75.5743 83.2684 78.2395C82.6831 78.9947 82.0433 79.3402 81.3687 79.3007C79.6922 79.1724 77.9761 76.6502 75.749 72.6178C73.7105 68.9408 71.1908 66.8333 69.5986 66.3743C69.2628 66.24 68.8879 66.24 68.5521 66.3743C68.4677 66.4195 68.394 66.482 68.3359 66.5578C68.2777 66.6335 68.2364 66.7207 68.2148 66.8136C67.8874 67.9487 69.1572 70.4264 69.7028 71.4432C70.0996 72.1638 70.4468 74.6168 70.8783 77.7163C71.3495 81.0726 71.9348 85.253 72.7532 87.9874C73.8394 91.6151 75.5705 94.1322 76.9642 96.1558C77.5396 96.99 78.0802 97.7747 78.4919 98.5151C81.5621 104.008 80.4858 111.915 80.3519 112.784Z" fill="#3A3A3A"/>
</g>
<path d="M81.8409 93.9101C76.3849 93.9101 72.7691 91.388 72.3574 87.3309H72.6054C73.0022 91.2498 76.5437 93.688 81.8409 93.688C87.2573 93.688 91.9048 90.8698 92.2073 87.4H92.4504C92.128 91.0129 87.3664 93.9101 81.8409 93.9101Z" fill="#3A3A3A"/>
<g opacity="0.7">
<path d="M95.6098 87.3161V90.6328L78.2498 100.583L72.6797 90.9191L73.0368 89.7247C74.1082 92.1925 77.5355 93.9397 81.8259 93.9397C87.3117 93.9397 92.0088 91.0474 92.3114 87.5234C92.3237 87.3426 92.3237 87.1612 92.3114 86.9805L95.6098 87.3161Z" fill="white"/>
</g>
<path d="M51.2656 66.7395C51.0822 66.646 50.879 66.5972 50.6729 66.5972C50.4668 66.5972 50.2636 66.646 50.0802 66.7395L30.4138 78.6245C30.3426 78.649 30.2808 78.6949 30.2371 78.756C30.1934 78.817 30.1699 78.8901 30.1699 78.965C30.1699 79.04 30.1934 79.1131 30.2371 79.1741C30.2808 79.2352 30.3426 79.2811 30.4138 79.3056L43.8058 87.1779L64.6378 75.0165L51.2656 66.7395Z" fill="#3A3A3A"/>
<path d="M51.2621 65.5056C51.0787 65.4121 50.8755 65.3633 50.6694 65.3633C50.4633 65.3633 50.2601 65.4121 50.0767 65.5056L30.4153 76.8033C30.3416 76.8251 30.2769 76.8701 30.231 76.9314C30.185 76.9928 30.1602 77.0673 30.1602 77.1438C30.1602 77.2204 30.185 77.2948 30.231 77.3562C30.2769 77.4176 30.3416 77.4625 30.4153 77.4844L43.7825 85.1741L64.6145 73.0127L51.2621 65.5056Z" fill="#96999E"/>
<path d="M43.7821 85.2629L30.3901 77.5535C30.3108 77.5162 30.2429 77.4586 30.1932 77.3866C30.1435 77.3147 30.1139 77.2309 30.1074 77.1438C30.1139 77.0567 30.1435 76.973 30.1932 76.901C30.2429 76.829 30.3108 76.7715 30.3901 76.7342L50.0565 65.4365C50.2519 65.3357 50.4688 65.2831 50.6889 65.2831C50.909 65.2831 51.1259 65.3357 51.3213 65.4365L64.8175 73.0078L43.7821 85.2629ZM50.6666 65.4415C50.4746 65.438 50.285 65.4839 50.1161 65.5747L30.4546 76.8724C30.399 76.8953 30.3504 76.9326 30.3138 76.9802C30.2772 77.0279 30.2539 77.0843 30.2463 77.1438C30.2463 77.2425 30.3207 77.3363 30.4546 77.4153L43.7821 85.0902L64.4802 73.0127L51.2271 65.5747C51.0551 65.4825 50.8619 65.4365 50.6666 65.4415Z" fill="#3A3A3A"/>
<path d="M43.7812 84.9915L64.6381 73.0127L64.6331 75.1992L43.7862 87.1779L43.7812 84.9915Z" fill="#D2FC1B"/>
<path d="M30.8516 79.0835V77.8397L43.5343 85.1346L43.5293 86.5412L30.8516 79.0835Z" fill="white"/>
<path d="M30.9404 77.9977L43.4446 85.1889V86.3833L30.9404 79.0342V77.9977ZM30.752 77.6868V79.1428L43.6083 86.7042L43.648 85.0902L30.752 77.6868Z" fill="#3A3A3A"/>
<path d="M43.7812 84.9915L64.6381 73.0127L64.6331 75.1992L43.7862 87.1779L43.7812 84.9915Z" fill="#96999E"/>
<path d="M43.707 87.3161V84.947L43.7467 84.9224L64.7226 72.8745V75.2436H64.6829L43.707 87.3161ZM43.8658 85.0359V87.0644L64.5539 75.1794V73.1756L43.8658 85.0359Z" fill="#3A3A3A"/>
<path d="M48.2324 63.4771C48.0486 63.3847 47.8456 63.3365 47.6397 63.3365C47.4338 63.3365 47.2308 63.3847 47.047 63.4771L27.3806 75.367C27.3094 75.3915 27.2476 75.4374 27.2039 75.4985C27.1602 75.5595 27.1367 75.6326 27.1367 75.7076C27.1367 75.7825 27.1602 75.8556 27.2039 75.9166C27.2476 75.9777 27.3094 76.0236 27.3806 76.0481L40.7726 83.9204L61.6046 71.7591L48.2324 63.4771Z" fill="#3A3A3A"/>
<path d="M48.2275 62.248C48.0449 62.1545 47.8426 62.1057 47.6372 62.1057C47.4319 62.1057 47.2295 62.1545 47.047 62.248L27.3806 73.5407C27.3094 73.5652 27.2476 73.6111 27.2039 73.6722C27.1602 73.7332 27.1367 73.8063 27.1367 73.8813C27.1367 73.9562 27.1602 74.0293 27.2039 74.0904C27.2476 74.1514 27.3094 74.1974 27.3806 74.2218L40.7726 81.9115L61.6046 69.7502L48.2275 62.248Z" fill="white"/>
<path d="M40.7522 82.0201L40.7076 81.9905L27.3156 74.3008C27.2302 74.2684 27.1568 74.2109 27.1049 74.1359C27.0531 74.061 27.0254 73.9722 27.0254 73.8813C27.0254 73.7904 27.0531 73.7016 27.1049 73.6267C27.1568 73.5517 27.2302 73.4942 27.3156 73.4618L46.982 62.1641C47.1791 62.0633 47.3976 62.0106 47.6193 62.0106C47.841 62.0106 48.0595 62.0633 48.2567 62.1641L61.7677 69.7453L40.7522 82.0201ZM47.6168 62.1937C47.4271 62.1905 47.2395 62.2346 47.0712 62.3221L27.4247 73.6197C27.3672 73.6356 27.3165 73.6697 27.2804 73.717C27.2443 73.7642 27.2248 73.8219 27.2248 73.8813C27.2248 73.9407 27.2443 73.9984 27.2804 74.0456C27.3165 74.0929 27.3672 74.127 27.4247 74.1429L40.7522 81.8079L61.4205 69.7551L48.1823 62.3221C48.0081 62.2313 47.8133 62.1871 47.6168 62.1937Z" fill="#3A3A3A"/>
<path d="M40.75 81.729L61.6018 69.7502V71.9367L40.75 83.9204V81.729Z" fill="#D2FC1B"/>
<path d="M27.8164 75.826V74.5773L40.5041 81.8721L40.4942 83.2837L27.8164 75.826Z" fill="white"/>
<path d="M27.9102 74.7254L40.4094 81.9166V83.1159L27.9102 75.7767V74.7254ZM27.7267 74.4144V75.8951L40.583 83.4565V81.8376L27.7168 74.4342L27.7267 74.4144Z" fill="#3A3A3A"/>
<path d="M40.75 81.729L61.6018 69.7502V71.9367L40.75 83.9204V81.729Z" fill="white"/>
<path d="M40.6719 84.0733V81.6796L40.7165 81.6549L61.7023 69.5972V71.9909L61.6576 72.0206L40.6719 84.0733ZM40.8504 81.7832V83.7575L61.5039 71.8873V69.913L40.8504 81.7832Z" fill="#3A3A3A"/>
<path d="M48.6076 59.1189C48.425 59.0253 48.2227 58.9766 48.0173 58.9766C47.812 58.9766 47.6097 59.0253 47.4271 59.1189L27.7458 71.0038C27.6746 71.0283 27.6129 71.0743 27.5692 71.1353C27.5254 71.1964 27.502 71.2694 27.502 71.3444C27.502 71.4193 27.5254 71.4924 27.5692 71.5535C27.6129 71.6145 27.6746 71.6605 27.7458 71.685L41.1378 79.5573L61.9698 67.3959L48.6076 59.1189Z" fill="#3A3A3A"/>
<path d="M27.7756 69.7897C27.7219 69.7673 27.675 69.7314 27.6393 69.6855C27.6037 69.6397 27.5806 69.5854 27.5723 69.5281C27.5723 69.4294 27.6467 69.3405 27.7756 69.2665L47.4519 57.9442C47.6204 57.8573 47.8078 57.8132 47.9975 57.8159C48.1895 57.8124 48.3792 57.8583 48.5481 57.9491L61.7863 65.3772L41.1131 77.4498L27.7756 69.7897Z" fill="#D2FC1B"/>
<path d="M47.9966 57.9442C48.1694 57.9412 48.3401 57.9819 48.4926 58.0627L61.592 65.4118L41.1121 77.3412L27.8342 69.7058C27.735 69.6515 27.6804 69.5824 27.6804 69.5232C27.6804 69.464 27.735 69.3949 27.8342 69.3357L47.5006 58.038C47.6536 57.959 47.8243 57.9199 47.9966 57.9245V57.9442ZM47.9966 57.7616C47.7908 57.7586 47.5877 57.8079 47.4064 57.9048L27.74 69.1827C27.6688 69.2071 27.607 69.2531 27.5633 69.3141C27.5196 69.3752 27.4961 69.4483 27.4961 69.5232C27.4961 69.5982 27.5196 69.6713 27.5633 69.7323C27.607 69.7933 27.6688 69.8393 27.74 69.8638L41.132 77.5535L61.964 65.3921L48.6067 57.885C48.4238 57.7875 48.2189 57.7383 48.0115 57.7419L47.9966 57.7616Z" fill="#3A3A3A"/>
<path d="M41.1133 77.3708L61.9701 65.3921V67.5786L41.1182 79.5573L41.1133 77.3708Z" fill="#D2FC1B"/>
<path d="M28.1836 71.4629V70.2191L40.8663 77.514L40.8614 78.9206L28.1836 71.4629Z" fill="white"/>
<path d="M28.2725 70.377L40.7766 77.5682V78.7627L28.2725 71.4135V70.377ZM28.0939 70.0612V71.5172L40.9502 79.0835V77.4646L28.084 70.0612H28.0939Z" fill="#3A3A3A"/>
<path d="M41.207 77.4202L61.8754 65.545V67.5242L41.207 79.3993V77.4202Z" fill="#D2FC1B"/>
<path d="M61.7872 65.703V67.4749L41.2974 79.2464V77.4745L61.7872 65.703ZM61.9707 65.3921L41.1387 77.3708V79.5573L61.9707 67.5786V65.3921Z" fill="#3A3A3A"/>
</g>
<defs>
<clipPath id="clip0_7019_5589">
<rect width="124" height="115" fill="white"/>
</clipPath>
</defs>
</svg>
