<svg width="119" height="98" viewBox="0 0 119 98" fill="none" xmlns="http://www.w3.org/2000/svg">
<path d="M70.0021 97.6588L29.4247 74.2482L28.7672 73.8048L0.193359 35.8218L48.9565 6.90137L79.2633 43.2482L118.541 68.8658L70.0021 97.6588Z" fill="#D2FC1B"/>
<path d="M70.0024 97.8117L69.9361 97.776L29.3588 74.3654L28.6656 73.8863L0 35.7861L0.127425 35.7097L48.9874 6.72803L49.0588 6.81468L79.3503 43.1462L118.791 68.8708L118.608 68.9779L70.0024 97.8117ZM28.8644 73.7079L29.4964 74.1411L70.0024 97.5058L118.286 68.8606L79.1719 43.345L48.9313 7.06953L0.39247 35.8626L28.8644 73.7079Z" fill="#3A3A3A"/>
<path d="M48.875 9.1084L3.44531 36.0563L30.0313 72.4184L30.5308 72.7701L69.9715 95.5181L115.106 68.7435L79.4163 43.656L48.875 9.1084Z" fill="#96999E"/>
<path d="M69.9719 95.6709L69.9056 95.6301L30.4649 72.8822L29.9246 72.4999L3.25195 36.0155L3.37428 35.9441L48.9008 8.92993L48.9722 9.01148L79.5135 43.5692L115.351 68.7536L115.172 68.8555L69.9719 95.6709ZM30.1234 72.3215L30.6076 72.6579L69.9668 95.3651L114.861 68.7179L79.3402 43.7425L48.8498 9.27653L3.63933 36.097L30.1234 72.3215Z" fill="#3A3A3A"/>
<path d="M30.2753 72.6223L79.4156 43.656L54.5371 6.72302L6.69141 36.1991C23.4453 49.5889 30.2753 72.6223 30.2753 72.6223Z" fill="#DBE0E6"/>
<path d="M30.2 72.8211L30.1491 72.658C30.0726 72.4286 23.1305 49.5125 6.62633 36.301L6.47852 36.1838L54.5994 6.53442L54.6657 6.63636L79.6054 43.6866L79.483 43.763L30.2 72.8211ZM6.92705 36.2143C22.6717 48.9059 29.7005 70.3643 30.3733 72.4031L79.2435 43.5999L54.5383 6.90141L6.92705 36.2143Z" fill="#3A3A3A"/>
<path d="M30.2773 72.6223L79.4177 43.661C97.354 37.3968 118.792 66.6792 118.792 66.6792L69.6569 95.6404C69.6569 95.6404 44.1565 70.5376 30.2773 72.6223Z" fill="#DBE0E6"/>
<path d="M69.6349 95.7882L69.5585 95.7168C69.3036 95.4671 43.9511 70.7007 30.3115 72.7497L29.6387 72.8516L79.3651 43.5489C88.7029 40.2766 98.9632 46.7294 105.926 52.7235C110.711 56.8986 115.063 61.5469 118.913 66.5976L119 66.7148L118.872 66.7913L69.6349 95.7882ZM31.9629 72.3419C45.6433 72.3419 68.2078 94.0093 69.6808 95.4314L118.612 66.6027C114.783 61.6248 110.469 57.0404 105.732 52.9172C98.8255 46.9792 88.657 40.5773 79.4569 43.7935L30.8874 72.4133C31.2391 72.3827 31.601 72.3674 31.9629 72.3674V72.3419Z" fill="#3A3A3A"/>
<path d="M80.8091 47.6164L41.7354 65.8688L30.2773 72.6223C33.5751 72.1126 37.5253 73.1728 41.6335 75.0434C48.7626 77.1282 55.5239 80.3094 61.675 84.4729L109.587 56.2405C105.372 52.1323 100.071 47.7897 94.4437 45.1851C89.8614 43.9007 85.0193 44.0842 80.8091 47.6164Z" fill="#DBE0E6"/>
<path d="M61.6444 84.6309L61.5731 84.5799C55.4363 80.4383 48.6992 77.2649 41.5979 75.1709C37.0768 73.1321 33.2847 72.3012 30.2978 72.7498L29.625 72.8517L41.6692 65.7567L80.7379 47.5043C84.4791 44.3696 89.097 43.5439 94.4488 45.0577C99.291 47.2953 104.398 51.0263 109.648 56.1437L109.776 56.266L109.623 56.3527L61.6444 84.6309ZM31.9645 72.3675C34.6914 72.3675 37.9535 73.2238 41.6896 74.916C48.7926 77.0091 55.5327 80.1789 61.675 84.3149L109.358 56.2151C104.174 51.1792 99.133 47.5094 94.3775 45.3024C89.1225 43.8242 84.5912 44.6347 80.9163 47.7183H80.8857L41.7967 65.9911L30.8891 72.4134C31.2408 72.3828 31.6026 72.3675 31.9645 72.3675Z" fill="#3A3A3A"/>
<path d="M37.9053 70.7567C36.3762 70.4051 32.7624 71.3888 30.2598 72.6273L79.4001 43.6661C92.8154 35.6179 109.381 51.5614 109.381 51.5614L60.2404 80.5226C60.2404 80.5226 50.7192 72.7956 37.9053 70.7567Z" fill="white"/>
<path d="M60.2465 80.6756L60.1751 80.6196C60.0783 80.5431 50.4908 72.9078 37.8808 70.8792C36.4995 70.5581 32.9774 71.4245 30.3423 72.7396L30.2148 72.5051L79.3552 43.549C86.333 39.3592 94.1365 41.7395 99.5037 44.4715C103.122 46.3583 106.48 48.7073 109.494 51.4595L109.616 51.5819L109.468 51.6685L60.2465 80.6756ZM37.9317 70.6192C50.0473 72.5663 59.3392 79.6409 60.2668 80.3545L109.198 51.5309C107.628 50.0833 92.0671 36.2399 79.5081 43.7732L32.1109 71.6845C34.2772 70.8894 36.7288 70.344 37.9317 70.6192Z" fill="#3A3A3A"/>
<path d="M57.7891 0.183472L9.91797 30.1335C9.91797 30.1335 23.2518 52.647 30.2703 72.6171L79.4056 43.6559C72.3768 23.6807 57.7891 0.183472 57.7891 0.183472Z" fill="white"/>
<path d="M30.1997 72.7956L30.1436 72.6427C23.2116 52.9172 9.93902 30.4241 9.8065 30.1998L9.74023 30.0877L9.84727 30.0214L57.8306 0L57.9019 0.117231C58.0446 0.351694 72.5915 23.854 79.5337 43.6101L79.5693 43.712L79.4725 43.7681L30.1997 72.7956ZM10.097 30.1743C11.1164 31.9175 23.6398 53.4218 30.3424 72.4235L79.2431 43.5948C72.5508 24.5931 58.8551 2.16623 57.7439 0.366985L10.097 30.1743Z" fill="#3A3A3A"/>
<path d="M92.7559 49.2359C92.7559 52.1006 91.7654 54.0806 90.1863 55.0054L83.4812 58.9334C85.0576 58.0087 86.0508 56.0287 86.0508 53.1639C86.0508 47.2052 81.6972 39.7435 76.3136 37.2305C75.2022 26.2645 64.4719 15.3918 57.9375 18.7362L64.6321 14.8135C71.1796 11.4637 81.9074 22.3391 83.0188 33.3132C88.4023 35.8261 92.7559 43.2852 92.7559 49.2359Z" fill="#DAE0E5"/>
<path d="M54.6014 24.1512C55.2268 19.8874 57.891 18.7841 57.9383 18.7361C64.4726 15.3917 75.203 26.2645 76.3144 37.2438C81.6979 39.7568 86.0515 47.2185 86.0515 53.1772C86.0515 56.0419 85.061 58.022 83.4819 58.9467C82.0736 59.7701 80.195 59.7461 78.1352 58.7815C77.6517 58.5549 78.7447 59.1918 67.2551 52.4603V41.1719L71.9476 43.9194L64.7879 30.3684L57.6308 35.5356L62.3234 38.2831V49.5689L54.9272 45.2385C50.7707 42.8001 47.4023 36.8841 47.4023 32.018C47.4023 29.5823 48.2457 27.8714 49.6067 27.0746C50.8784 26.3311 52.602 26.3817 54.5147 27.3811H54.5305C54.4323 26.3052 54.4561 25.2215 54.6014 24.1512Z" fill="white"/>
<path d="M67.6657 40.924L69.7151 39.6929L71.9484 43.9194L67.2559 41.1719L67.6657 40.924Z" fill="#D3F36B"/>
<path d="M67.6641 35.8102L69.7134 39.6929L67.6641 40.9241V35.8102Z" fill="white"/>
<path d="M67.6638 35.8101V40.924L67.2539 41.1719V46.6509L62.3223 49.5689V38.2831L67.3984 35.3118L67.6638 35.8101Z" fill="#D2FC1B"/>
<path d="M67.1631 34.8642L67.3996 35.3119L62.3234 38.2832L57.6309 35.5357L62.9724 32.4098L67.1631 34.8642Z" fill="#D3F36B"/>
<path d="M65.0667 30.8961L67.1634 34.8641L62.9727 32.4098L65.0667 30.8961Z" fill="white"/>
<path d="M65.0664 30.8962L62.9724 32.4098L57.6309 35.5358L64.7879 30.3685L65.0664 30.8962Z" fill="#373A3A"/>
<path d="M64.6118 14.8215L64.1914 15.072C64.4069 14.9308 64.5619 14.8588 64.6118 14.8215Z" fill="white"/>
<path d="M49.6055 27.0747L54.5975 24.1433C54.4522 25.2172 54.4293 26.3046 54.5292 27.3838H54.5135C52.6007 26.3818 50.8771 26.3312 49.6055 27.0747Z" fill="#DAE0E5"/>
<path d="M67.255 46.6509V52.455C78.7447 59.1865 77.6517 58.5496 78.1352 58.7761C80.195 59.7515 82.0763 59.7648 83.4819 58.9414C85.0584 58.0166 86.0515 56.0366 86.0515 53.1719C86.0515 47.2132 81.6979 39.7515 76.3144 37.2385C75.203 26.2645 64.4726 15.3917 57.9383 18.7362C57.891 18.7841 55.2268 19.8741 54.6014 24.1512C54.4559 25.2224 54.4321 26.307 54.5305 27.3837H54.5147C52.602 26.3844 50.8784 26.3338 49.6067 27.0773C48.2457 27.8767 47.4023 29.5849 47.4023 32.0206C47.4023 36.8867 50.7707 42.8028 54.9272 45.2385L62.3234 49.5716V38.2831L57.6308 35.5356L64.7879 30.3684L71.9476 43.9194L67.255 41.1719V46.6509Z" stroke="#373A3A" stroke-width="0.7" stroke-linecap="round" stroke-linejoin="round"/>
<path d="M64.6119 14.8215C64.5541 14.8535 64.399 14.9308 64.1836 15.072" stroke="#373A3A" stroke-width="0.7" stroke-linecap="round" stroke-linejoin="round"/>
<path d="M83.4811 58.9414L90.1863 55.0134C91.7627 54.0887 92.7559 52.1087 92.7559 49.2439C92.7559 43.2852 88.4022 35.8262 83.0187 33.3132C81.9073 22.3392 71.1796 11.4638 64.6426 14.8082" stroke="#373A3A" stroke-width="0.7" stroke-linecap="round" stroke-linejoin="round"/>
<path d="M57.9375 18.7362L64.6321 14.8135" stroke="#373A3A" stroke-width="0.7" stroke-linecap="round" stroke-linejoin="round"/>
<path d="M49.6055 27.0748L54.6002 24.1514" stroke="#373A3A" stroke-width="0.7" stroke-linecap="round" stroke-linejoin="round"/>
<path d="M67.6641 40.9268V35.8102" stroke="#373A3A" stroke-width="0.7" stroke-linecap="round" stroke-linejoin="round"/>
<path d="M67.1634 34.8641L62.9727 32.4098L65.0667 30.8961" stroke="#373A3A" stroke-width="0.7" stroke-linecap="round" stroke-linejoin="round"/>
<path d="M57.6309 35.5357L62.9724 32.4098" stroke="#373A3A" stroke-width="0.7" stroke-linecap="round" stroke-linejoin="round"/>
<path d="M62.3223 38.2831L67.3984 35.3118" stroke="#373A3A" stroke-width="0.7" stroke-linecap="round" stroke-linejoin="round"/>
<path d="M62.3223 49.5691L67.2539 46.651" stroke="#373A3A" stroke-width="0.7" stroke-linecap="round" stroke-linejoin="round"/>
<path d="M67.2559 41.1719L69.7151 39.6929" stroke="#373A3A" stroke-width="0.7" stroke-linecap="round" stroke-linejoin="round"/>
</svg>
