<svg width="103" height="85" viewBox="0 0 103 85" fill="none" xmlns="http://www.w3.org/2000/svg">
<path d="M1.08105 72.6253L19.1543 82.4335C19.3033 82.5169 19.4711 82.5607 19.6418 82.5607C19.8125 82.5607 19.9804 82.5169 20.1293 82.4335L71.5897 52.9151L51.3249 43.4424L1.08105 70.9839C0.933588 71.0643 0.810508 71.1829 0.724756 71.3274C0.639005 71.4718 0.59375 71.6366 0.59375 71.8046C0.59375 71.9726 0.639005 72.1374 0.724756 72.2818C0.810508 72.4263 0.933588 72.5449 1.08105 72.6253Z" fill="#3A3A3A"/>
<path d="M1.08065 71.5563L19.1539 81.3958C19.3029 81.4792 19.4707 81.523 19.6414 81.523C19.8121 81.523 19.98 81.4792 20.1289 81.3958L71.5714 51.8774L51.3245 42.3958L1.08065 69.9328C0.937494 70.0145 0.8185 70.1327 0.735734 70.2752C0.652968 70.4178 0.609375 70.5797 0.609375 70.7446C0.609375 70.9094 0.652968 71.0713 0.735734 71.2139C0.8185 71.3564 0.937494 71.4746 1.08065 71.5563Z" fill="#DBE0E6"/>
<path d="M19.6284 81.6016C19.4455 81.6013 19.2656 81.5551 19.1051 81.4674L1.03632 71.6593C0.878222 71.5695 0.746744 71.4394 0.655278 71.2823C0.563812 71.1252 0.515625 70.9466 0.515625 70.7648C0.515625 70.583 0.563812 70.4044 0.655278 70.2473C0.746744 70.0902 0.878222 69.9601 1.03632 69.8703L51.3204 42.2841H51.3651L71.7999 51.8775L71.6389 51.9714L20.1785 81.4898C20.0074 81.5725 19.8182 81.611 19.6284 81.6016ZM1.13024 71.4893L19.1991 81.2975C19.335 81.376 19.4893 81.4173 19.6463 81.4173C19.8033 81.4173 19.9576 81.376 20.0935 81.2975L71.375 51.8775L51.3293 42.4853L1.12577 70.0179C0.994347 70.0906 0.884801 70.1972 0.808519 70.3266C0.732238 70.456 0.692006 70.6034 0.692006 70.7536C0.692006 70.9038 0.732238 71.0513 0.808519 71.1807C0.884801 71.31 0.994347 71.4166 1.12577 71.4893H1.13024Z" fill="#3A3A3A"/>
<path d="M0.392383 70.8811L1.25557 71.3596L1.48367 70.6977L60.6859 38.0486L64.6843 3.50763L64.8229 2.30006L65.2702 2.23745L65.7577 0.891233L64.9481 0.332173C64.9196 0.315686 64.8872 0.307007 64.8542 0.307007C64.8212 0.307007 64.7888 0.315686 64.7603 0.332173L4.82908 33.6253C4.59788 33.7533 4.39982 33.9337 4.25072 34.1519C4.10163 34.3701 4.00562 34.6201 3.97037 34.8821L3.52312 38.46L0.012222 70.0984C-0.0162387 70.2523 0.00530788 70.4113 0.0737101 70.5522C0.142112 70.693 0.253781 70.8082 0.392383 70.8811Z" fill="#3A3A3A"/>
<path d="M2.04701 71.4044L61.5981 38.5674L65.4802 5.02384L65.6591 3.44505L65.9274 1.1462C65.9337 1.09918 65.9265 1.05134 65.9066 1.00826C65.8867 0.965177 65.855 0.928624 65.8152 0.902852C65.7754 0.87708 65.729 0.86315 65.6816 0.862683C65.6342 0.862216 65.5876 0.875231 65.5472 0.900213L65.024 1.20434L4.9899 34.5467L4.43531 39.0191L0.937832 70.6083C0.912412 70.7489 0.927391 70.8939 0.981034 71.0264C1.03468 71.1588 1.12478 71.2734 1.2409 71.3567C1.35701 71.4401 1.49438 71.4888 1.63706 71.4972C1.77974 71.5056 1.92189 71.4734 2.04701 71.4044Z" fill="#96999E"/>
<path d="M1.68532 71.5967C1.50471 71.598 1.32869 71.5398 1.1844 71.4312C1.0533 71.3382 0.951609 71.2096 0.891366 71.0606C0.831123 70.9115 0.814858 70.7484 0.844496 70.5904L4.3375 39.0102L4.90103 34.4841H4.94129L64.9754 1.13279L65.4986 0.828666C65.5551 0.793836 65.6201 0.775391 65.6865 0.775391C65.7528 0.775391 65.8179 0.793836 65.8743 0.828666C65.9288 0.865548 65.9719 0.916908 65.9988 0.976962C66.0256 1.03702 66.0352 1.10338 66.0264 1.16857L65.5792 5.04174L61.697 38.6211L61.6523 38.6435L2.09679 71.4894C1.97087 71.5592 1.82933 71.5962 1.68532 71.5967ZM5.07993 34.6093L4.52982 39.0326L1.03681 70.6172C1.01296 70.7401 1.0247 70.8673 1.07065 70.9838C1.11661 71.1002 1.19486 71.2012 1.29622 71.2747C1.39811 71.3473 1.51829 71.39 1.64316 71.3979C1.76803 71.4058 1.89263 71.3786 2.00287 71.3194L61.5092 38.5048L65.8296 1.15068C65.8341 1.12222 65.8301 1.09308 65.8181 1.06685C65.8062 1.04063 65.7869 1.01846 65.7625 1.00309C65.7377 0.987633 65.709 0.979438 65.6798 0.979438C65.6505 0.979438 65.6219 0.987633 65.597 1.00309L65.0738 1.30722L5.07993 34.6093Z" fill="#3A3A3A"/>
<path d="M3.06587 35.6782L20.5085 81.5703C20.8214 82.0173 21.2869 82.3346 21.8174 82.4623C22.3479 82.59 22.9068 82.5193 23.3888 82.2635L81.8262 50.0617C82.7967 49.525 83.8657 48.5992 83.2708 46.9757L65.8282 1.07911C65.5198 0.625644 65.0556 0.301291 64.5237 0.167708C63.9918 0.0341255 63.4294 0.100625 62.9434 0.354567C59.1999 2.43427 51.6459 6.61604 43.0364 11.3434C39.7581 13.1324 36.3277 15.0377 32.9018 16.9296L19.7393 24.1795L7.16713 31.1207C5.82539 31.8498 4.66701 32.5027 3.69649 33.0394C3.46746 33.1574 3.26661 33.3234 3.10767 33.5261C2.94872 33.7289 2.83544 33.9635 2.77556 34.2141C2.71568 34.4646 2.71062 34.7252 2.76073 34.9779C2.81083 35.2306 2.91492 35.4694 3.06587 35.6782Z" fill="#DBE0E6"/>
<path d="M22.3464 82.6213C21.9683 82.6235 21.5954 82.5339 21.2596 82.3602C20.9238 82.1865 20.6353 81.9338 20.4187 81.6239L2.97605 35.7228C2.82174 35.5022 2.71605 35.2514 2.66598 34.9869C2.61591 34.7224 2.62259 34.4502 2.6856 34.1885C2.7486 33.9268 2.86648 33.6814 3.03144 33.4686C3.19639 33.2559 3.40466 33.0806 3.64245 32.9544L4.80082 32.3103L7.11756 31.0312C10.4719 29.1841 14.8415 26.7689 19.6897 24.0899L32.8522 16.84L36.4973 14.8319L42.9913 11.2539L49.4362 7.69829C55.1699 4.54072 60.1254 1.80804 62.8938 0.269507C63.3987 0.00361361 63.9833 -0.0685826 64.5377 0.066507C65.092 0.201597 65.5779 0.534655 65.9038 1.00299L83.3465 46.9175C83.8295 48.2592 83.3241 49.3147 81.8527 50.1287L23.4153 82.3305C23.0894 82.5166 22.7216 82.6167 22.3464 82.6213ZM63.9672 0.193475C63.6236 0.18993 63.2848 0.274627 62.9833 0.439461C60.2104 1.97799 55.2548 4.71068 49.5211 7.87272L43.0763 11.4507L36.5823 15.0287L32.9372 17.0368C28.4423 19.4967 23.943 21.9789 19.7836 24.2644L7.21149 31.2056L4.89474 32.4848L3.73637 33.1243C3.52276 33.2389 3.33581 33.3973 3.1878 33.5892C3.0398 33.7812 2.9341 34.0023 2.87765 34.238C2.82298 34.475 2.81861 34.7209 2.86483 34.9597C2.91105 35.1985 3.00684 35.4249 3.146 35.6245L20.5842 81.5344C20.8856 81.9557 21.3297 82.2532 21.834 82.3717C22.3382 82.4901 22.8684 82.4215 23.3258 82.1785L81.7632 49.9766C83.1586 49.2074 83.6148 48.2368 83.1676 47.0069L65.7249 1.1148C65.5293 0.829487 65.2669 0.596362 64.9605 0.435768C64.6542 0.275174 64.3131 0.19199 63.9672 0.193475Z" fill="#3A3A3A"/>
<path d="M63.5623 2.99774C63.6015 2.97545 63.6452 2.96191 63.6902 2.95805C63.7351 2.9542 63.7804 2.96012 63.8229 2.97542C63.8654 2.99071 63.9041 3.01501 63.9363 3.04666C63.9685 3.07831 63.9935 3.11654 64.0095 3.15875L80.6516 47.7136C80.6516 47.7136 27.0758 77.0486 27.0087 76.8697L22.3752 64.4004L10.3711 32.3193L22.9566 25.3825L63.5623 2.99774Z" fill="white"/>
<path d="M26.986 76.9681H26.9458V76.9278L10.25 32.2746L10.326 32.2343L63.5217 2.90831C63.6306 2.86357 63.7527 2.86357 63.8616 2.90831C63.9167 2.92917 63.9667 2.96149 64.0083 3.00313C64.0499 3.04476 64.0822 3.09476 64.1031 3.14982L80.772 47.7807L80.696 47.8209C80.5663 47.897 67.1936 55.2184 53.964 62.4325C28.3814 76.3688 27.1202 76.9681 26.986 76.9681ZM10.4915 32.364L27.0665 76.7445C29.3922 75.6621 78.2943 48.8899 80.5261 47.6733L63.9108 3.19454C63.9006 3.16566 63.884 3.13943 63.8623 3.11776C63.8407 3.0961 63.8144 3.07955 63.7856 3.06931C63.7584 3.05623 63.7285 3.04944 63.6984 3.04944C63.6682 3.04944 63.6384 3.05623 63.6111 3.06931L10.4915 32.364Z" fill="#3A3A3A"/>
<path d="M45.5098 47.9998L57.165 41.309L60.2868 51.0947L48.5734 57.9421L45.5098 47.9998Z" fill="white"/>
<path d="M48.4361 58.291L45.2383 47.8925L57.314 40.9646L60.5789 51.2021L48.4361 58.291ZM45.7884 48.1116L48.7089 57.5933L60.0109 50.983L57.0322 41.6489L45.7884 48.1116Z" fill="#3A3A3A"/>
<path d="M54.2373 53.1834C54.0459 53.1828 53.8563 53.1464 53.6783 53.0761L47.5555 50.7101C47.17 50.5613 46.8594 50.2654 46.692 49.8875C46.5247 49.5096 46.5143 49.0808 46.6632 48.6953C46.8121 48.3098 47.108 47.9992 47.4858 47.8319C47.8637 47.6645 48.2925 47.6542 48.6781 47.803L53.3742 49.6189L59.497 34.6718C59.5684 34.4735 59.6792 34.2917 59.8228 34.1373C59.9664 33.983 60.1397 33.8594 60.3324 33.7738C60.5251 33.6883 60.7331 33.6427 60.9438 33.6398C61.1546 33.6369 61.3638 33.6766 61.5588 33.7568C61.7538 33.8369 61.9305 33.9556 62.0783 34.1059C62.2262 34.2562 62.342 34.4348 62.4189 34.6311C62.4958 34.8274 62.5322 35.0372 62.5258 35.2479C62.5194 35.4586 62.4704 35.6658 62.3817 35.857L55.673 52.2129C55.5569 52.4987 55.3584 52.7436 55.1027 52.9164C54.8471 53.0892 54.5459 53.1822 54.2373 53.1834Z" fill="#D2FC1B"/>
<path d="M54.2367 53.3758C54.0212 53.3753 53.8076 53.3359 53.6061 53.2595L47.4833 50.8935C47.0498 50.7256 46.7007 50.3924 46.5128 49.9672C46.325 49.542 46.3137 49.0595 46.4814 48.626C46.5644 48.4106 46.6893 48.2139 46.849 48.0472C47.0087 47.8806 47.2 47.7474 47.4117 47.6555C47.6217 47.5602 47.8488 47.5083 48.0794 47.5029C48.3099 47.4975 48.5392 47.5388 48.7534 47.6241L53.2706 49.3684L59.3353 34.6092C59.5133 34.1792 59.8547 33.8375 60.2846 33.6593C60.7144 33.4811 61.1975 33.4809 61.6275 33.6588C62.0575 33.8368 62.3992 34.1782 62.5774 34.6081C62.7556 35.0379 62.7558 35.521 62.5779 35.951L55.8692 52.3113C55.7334 52.6307 55.5057 52.9025 55.215 53.092C54.9242 53.2816 54.5837 53.3803 54.2367 53.3758ZM48.1139 47.8925C47.8847 47.887 47.6578 47.9403 47.4551 48.0474C47.2523 48.1545 47.0804 48.3118 46.9557 48.5042C46.831 48.6966 46.7577 48.9178 46.7428 49.1466C46.7279 49.3754 46.7719 49.6042 46.8705 49.8112C46.9425 49.9748 47.0464 50.1224 47.1762 50.2453C47.306 50.3682 47.4591 50.4639 47.6264 50.5268L53.7447 52.8927C54.0774 53.0179 54.4457 53.0096 54.7724 52.8696C55.0992 52.7295 55.3591 52.4686 55.4979 52.1413L62.2067 35.781C62.3443 35.4465 62.3433 35.0711 62.2041 34.7372C62.0649 34.4034 61.7987 34.1386 61.4642 34.001C61.1297 33.8634 60.7543 33.8643 60.4204 34.0035C60.0866 34.1428 59.8218 34.4089 59.6842 34.7434L53.4764 49.8693L48.6059 47.9864C48.4492 47.9245 48.2823 47.8926 48.1139 47.8925Z" fill="#3A3A3A"/>
<path d="M3.69272 33.0349C15.187 26.6706 54.0305 5.29659 63.1141 0.265048C63.1811 0.224796 64.2993 -0.0480256 63.8118 0.224796C52.7334 6.35656 13.8095 27.8513 4.13549 33.2093C3.5496 33.5313 3.1113 34.9581 3.48699 35.5126L21.3769 82.0577C21.6452 82.4558 22.8349 82.7152 21.7392 82.4424C21.23 82.3146 20.7906 81.9938 20.5137 81.5479L3.07104 35.6602C2.92215 35.4524 2.81952 35.2151 2.77009 34.9642C2.72065 34.7134 2.72556 34.4549 2.78447 34.2061C2.84338 33.9573 2.95493 33.7241 3.1116 33.522C3.26828 33.32 3.46643 33.1539 3.69272 33.0349Z" fill="#3A3A3A"/>
<path d="M64.823 63.7609C65.2434 64.3512 67.5825 63.7609 67.5825 61.9361C67.5825 60.5094 66.0261 56.1711 65.0734 56.6451C64.416 56.9806 63.5215 59.9279 63.5215 59.9279C63.5322 60.2839 63.6001 60.6357 63.7227 60.97C64.0582 61.8556 64.7156 63.6088 64.823 63.7609Z" fill="#3A3A3A"/>
<path d="M54.7207 49.9141C54.4881 49.3774 54.4166 48.7736 54.8504 48.38C55.4184 47.8746 57.5339 49.3997 58.3747 50.0572C59.7522 51.1619 64.6362 53.9169 64.6362 53.9169C64.6362 53.9169 65.6067 53.0224 66.2463 52.9285C67.8921 52.6244 68.3617 53.2013 68.8984 53.3758C69.045 53.4625 69.2095 53.5145 69.3793 53.5276C69.5491 53.5408 69.7197 53.5149 69.8779 53.4518C70.3843 53.2618 70.9252 53.1815 71.4649 53.2162C72.0046 53.2509 72.5308 53.3998 73.0086 53.6531C73.1697 53.7336 73.6482 54.1003 73.8226 54.0556C75.7816 53.7246 76.9534 54.8606 77.5214 55.3616C80.0707 57.6425 82.7318 62.8664 87.6873 65.5364L81.3767 73.7971C81.3767 73.7971 72.1812 69.3246 70.3699 68.3899C69.8564 68.1229 69.3063 67.933 68.7374 67.8264C66.9484 67.4909 62.8964 66.7351 61.501 66.5606C59.5733 66.3102 57.1582 66.1671 57.3684 65.0579C57.5473 64.0829 58.0303 63.8772 59.0053 63.5372C61.0805 62.8038 63.4241 63.5372 65.1416 63.0005C66.121 62.6785 66.4833 61.3547 65.8527 60.3976C65.0342 59.1766 62.2747 56.7257 59.9311 54.8651C58.7459 53.9438 55.2261 51.0769 54.7207 49.9141Z" fill="#DBE0E6"/>
<path d="M81.4102 73.9358L81.3386 73.9C81.2447 73.8552 72.1163 69.4275 70.3274 68.4927C69.8197 68.2333 69.2775 68.0481 68.7173 67.9426C67.0132 67.6206 62.903 66.8513 61.4942 66.6724L60.8368 66.5964C59.3698 66.422 57.8536 66.2386 57.3974 65.6214C57.3375 65.5419 57.2954 65.4504 57.2738 65.3532C57.2522 65.256 57.2516 65.1553 57.2722 65.0579C57.4645 64.0382 57.9878 63.8101 58.9717 63.4612C60.0897 63.1407 61.257 63.0285 62.4155 63.1302C63.3153 63.2085 64.2217 63.139 65.099 62.9245C65.3027 62.8522 65.487 62.7339 65.6375 62.5788C65.788 62.4236 65.9007 62.2358 65.9667 62.03C66.053 61.772 66.0793 61.4977 66.0437 61.228C66.008 60.9583 65.9113 60.7003 65.761 60.4736C64.938 59.2437 62.1248 56.7525 59.8573 54.959C58.7615 54.0914 55.1478 51.1708 54.62 49.9543C54.3159 49.2566 54.3695 48.6707 54.7765 48.3084C55.4698 47.6868 57.9341 49.592 58.4216 49.9812C59.7007 51.0009 64.0659 53.4786 64.6339 53.8007C65.0956 53.3688 65.6425 53.0382 66.2395 52.8301C67.0386 52.618 67.8891 52.7305 68.6054 53.1432C68.7151 53.2042 68.8287 53.258 68.9454 53.3042L69.0348 53.3355C69.1597 53.405 69.2989 53.4447 69.4416 53.4517C69.5843 53.4587 69.7267 53.4327 69.8577 53.3758C70.3735 53.1848 70.9237 53.1049 71.4724 53.1411C72.0211 53.1773 72.556 53.3289 73.0421 53.586L73.2345 53.6978C73.4057 53.8208 73.5961 53.9145 73.798 53.9751C74.4744 53.8719 75.1657 53.9339 75.8129 54.1559C76.4601 54.3779 77.0439 54.7532 77.5146 55.2497L77.5728 55.3034C78.5655 56.2726 79.4793 57.3195 80.3055 58.4341C82.1571 60.7867 84.4649 63.7072 87.7208 65.4604L87.8237 65.5185L81.4102 73.9358ZM61.4853 63.3091C60.6567 63.282 59.8295 63.3954 59.0388 63.6446C58.0728 63.989 57.6389 64.1768 57.4645 65.0937C57.4493 65.1647 57.4493 65.2381 57.4648 65.3091C57.4802 65.38 57.5106 65.4469 57.554 65.5051C57.961 66.0552 59.4995 66.2386 60.8591 66.3996L61.5166 66.4801C62.9165 66.659 67.0446 67.4283 68.7575 67.7503C69.3356 67.8569 69.8947 68.0483 70.4168 68.3183C72.1208 69.2128 80.4844 73.2693 81.352 73.6853L87.5419 65.5812C84.3039 63.7922 82.0095 60.894 80.1623 58.5549C79.3531 57.4412 78.4557 56.3943 77.4789 55.4242L77.4162 55.3705C76.9672 54.8947 76.4097 54.5348 75.7913 54.3214C75.1728 54.108 74.512 54.0475 73.8651 54.145C73.61 54.1062 73.3695 54.0014 73.1674 53.8409C73.1096 53.8021 73.0499 53.7663 72.9885 53.7336C72.5248 53.4883 72.0145 53.344 71.4911 53.3101C70.9677 53.2762 70.4431 53.3534 69.9517 53.5368C69.8 53.599 69.6364 53.6273 69.4726 53.6196C69.3088 53.6118 69.1487 53.5683 69.0035 53.492L68.9141 53.4607C68.7887 53.4127 68.6675 53.3543 68.5518 53.2863C67.8733 52.9001 67.0702 52.7957 66.3155 52.9956C65.7073 53.1119 64.7591 53.9572 64.7502 53.9661L64.701 54.0109L64.6384 53.9795C64.5892 53.9482 59.7186 51.2021 58.3411 50.1109C56.9636 49.0196 55.3446 48.0714 54.9465 48.4292C54.5485 48.787 54.6513 49.4131 54.8392 49.8515C55.3624 51.0545 59.2446 54.1674 60.0183 54.7712C62.3753 56.6362 65.1259 59.0782 65.9622 60.3305C66.1309 60.5828 66.2392 60.8706 66.2788 61.1715C66.3183 61.4724 66.2881 61.7784 66.1903 62.0658C66.1155 62.2995 65.9871 62.5125 65.8156 62.688C65.644 62.8635 65.4339 62.9965 65.2019 63.0766C64.2992 63.3031 63.365 63.3771 62.4379 63.2957C62.098 63.3181 61.7894 63.3091 61.4808 63.3091H61.4853Z" fill="#3A3A3A"/>
<path d="M65.8515 60.4154C66.0889 60.7619 66.1998 61.1796 66.1655 61.5982C66.1313 62.0168 65.9541 62.4109 65.6636 62.7143C66.8712 61.8869 66.5581 60.8135 66.3211 60.1829C65.847 58.8724 63.9283 57.2579 62.8594 56.4081C61.0704 54.9993 60.7842 54.7533 58.9236 53.4652C58.5345 53.1969 57.5058 52.2442 56.5711 51.3631C55.4619 50.3255 54.4869 49.3013 54.8537 48.38C54.4064 48.7825 54.4869 49.3774 54.7195 49.9141C55.2249 51.0769 58.7447 53.9393 59.9299 54.883C62.2825 56.7435 65.033 59.1945 65.8515 60.4154Z" fill="#3A3A3A"/>
<path d="M78.6473 70.2773C77.2071 69.9865 76.6346 69.5169 75.2974 68.9355C74.2598 68.4659 73.1908 67.7548 69.0761 66.9453C68.2264 66.7798 63.1188 66.2699 61.6518 66.1715C60.7573 66.1134 56.5219 66.5204 57.7429 64.217C57.5339 64.4726 57.4034 64.7833 57.3672 65.1115C57.2286 66.2341 59.5721 66.3638 61.4998 66.6143C62.8952 66.7887 66.9428 67.5446 68.7318 67.88C69.3023 67.9859 69.8539 68.1758 70.3687 68.4435C72.18 69.3783 76.6302 71.6369 77.3681 71.7889C79.0364 72.1154 79.9756 72.0483 81.7646 70.3801C80.7267 70.5141 79.674 70.4794 78.6473 70.2773Z" fill="#3A3A3A"/>
<path d="M101.131 67.8264L89.7668 61.4576C88.586 60.8001 86.967 60.9119 85.1825 61.9406C81.5687 64.0292 78.6348 69.0966 78.6348 73.2783C78.6348 75.3893 79.3861 76.8563 80.5982 77.5361L91.9404 83.896L101.131 67.8264Z" fill="#D2FC1B"/>
<path d="M91.9806 84.0391L80.5444 77.63C79.2429 76.91 78.5273 75.3625 78.5273 73.2783C78.5273 69.0742 81.4881 63.9487 85.1287 61.8467C86.8864 60.8314 88.5546 60.6615 89.8159 61.3636L101.279 67.7861L91.9806 84.0391ZM88.1208 61.1534C87.1033 61.1954 86.1147 61.5039 85.2539 62.0479C81.676 64.1142 78.7599 69.1592 78.7599 73.2917C78.7599 75.2954 79.4397 76.7758 80.6652 77.4601L91.9179 83.7618L101.002 67.8845L89.7309 61.5649C89.2391 61.2902 88.6841 61.1484 88.1208 61.1534Z" fill="#3A3A3A"/>
<path d="M96.435 68.3318C92.8212 70.4159 89.9007 75.4877 89.9141 79.6248C89.9275 83.7618 92.8615 85.439 96.4797 83.3682C100.098 81.2975 103.01 76.2123 103.001 72.0708C102.992 67.9292 100.049 66.2431 96.435 68.3318Z" fill="#3A3A3A"/>
<path d="M17.9694 39.4394C17.5595 39.4509 17.1582 39.3212 16.8325 39.072C16.5068 38.8229 16.2766 38.4694 16.1804 38.0709C15.7332 36.6397 16.5114 34.9401 18.0007 34.1082C18.4227 33.8619 18.8989 33.7236 19.3872 33.7057C19.7878 33.6972 20.1793 33.8255 20.4972 34.0694C20.8151 34.3133 21.0404 34.6583 21.1359 35.0475C21.5832 36.4965 20.8139 38.2095 19.3201 39.0414C18.9092 39.2826 18.4454 39.4193 17.9694 39.4394ZM18.8371 34.5957C18.5481 34.5979 18.2645 34.675 18.0141 34.8194C17.5807 35.0688 17.2433 35.4564 17.056 35.9202C16.8687 36.3839 16.8423 36.8971 16.981 37.3776C17.0791 37.7141 17.284 38.0096 17.5647 38.2193C17.8455 38.4291 18.1869 38.5418 18.5374 38.5405C18.8273 38.5341 19.1112 38.4573 19.3648 38.3168C19.7882 38.0629 20.1156 37.676 20.296 37.2164C20.4764 36.7569 20.4997 36.2506 20.3622 35.7765C20.2722 35.4399 20.0742 35.1422 19.7988 34.9289C19.5233 34.7156 19.1855 34.5986 18.8371 34.5957Z" fill="#3A3A3A"/>
<path d="M21.5859 32.1718L22.4536 31.6888L26.206 33.8311L25.0655 30.2352L25.808 29.8237L27.3018 34.5377L26.4341 35.0207L22.6906 32.8829L23.8266 36.4743L23.0797 36.8858L21.5859 32.1718Z" fill="#3A3A3A"/>
<path d="M27.2852 29.0007L28.1126 28.54L29.4185 32.6502L31.5698 31.4516L31.7621 32.0554L28.7834 33.7147L27.2852 29.0007Z" fill="#3A3A3A"/>
<path d="M31.3516 26.7377L32.1745 26.2815L33.6728 30.9955L32.8454 31.4517L31.3516 26.7377Z" fill="#3A3A3A"/>
<path d="M33.6543 25.454L34.522 24.9755L38.2788 27.1133L37.1384 23.5174L37.8763 23.106L39.3701 27.8244L38.5069 28.303L34.759 26.1651L35.895 29.7565L35.1526 30.1725L33.6543 25.454Z" fill="#3A3A3A"/>
<path d="M39.3555 22.2831L42.8664 20.3286L43.0363 20.8698L40.3528 22.3636L40.8403 23.9066L43.2644 22.5559L43.4344 23.0971L41.0103 24.4433L41.5067 26.0042L44.2707 24.4612L44.4407 25.0024L40.8493 26.9971L39.3555 22.2831Z" fill="#3A3A3A"/>
<path d="M47.1644 18.5977L45.6482 19.443L45.4648 18.875L49.338 16.7192L49.5214 17.2872L47.9873 18.137L49.3067 22.2919L48.4793 22.7526L47.1644 18.5977Z" fill="#3A3A3A"/>
<path d="M50.3594 16.1603L53.8703 14.2058L54.0402 14.747L51.3567 16.2408L51.8442 17.7838L54.2683 16.4331L54.4383 16.9698L52.0187 18.3205L52.5106 19.8769L55.2746 18.3429L55.4446 18.8796L51.8532 20.8743L50.3594 16.1603Z" fill="#3A3A3A"/>
<path d="M56.572 17.8017C56.4647 17.8017 56.3618 17.8017 56.2634 17.8017L56.3797 16.9519C56.5531 16.9755 56.728 16.9875 56.903 16.9877C57.4215 16.9868 57.9328 16.8658 58.3968 16.6343C58.9022 16.3526 59.1169 15.9769 59.0006 15.5967C58.9412 15.4505 58.8356 15.3277 58.7 15.247C58.5644 15.1662 58.4061 15.132 58.2492 15.1495C57.961 15.1698 57.676 15.2223 57.3994 15.306C57.0749 15.4026 56.7402 15.4611 56.4021 15.4804C56.2189 15.5025 56.0343 15.4529 55.8868 15.342C55.7393 15.2312 55.6403 15.0677 55.6105 14.8856C55.3332 14.0135 55.9012 13.0385 57.0506 12.3989C57.5708 12.1053 58.1498 11.9311 58.7457 11.889L58.6383 12.7478C58.0425 12.752 57.4549 12.8864 56.9164 13.1413C56.4692 13.3828 56.2903 13.7138 56.3931 14.0358C56.4524 14.1812 56.5572 14.3035 56.6919 14.3841C56.8266 14.4648 56.9839 14.4995 57.14 14.4831C57.42 14.4636 57.6972 14.4157 57.9674 14.34C58.2897 14.2479 58.6212 14.1924 58.9559 14.1745C59.1508 14.151 59.3472 14.2034 59.5046 14.3208C59.6619 14.4382 59.7681 14.6116 59.8012 14.8051C60.0785 15.6996 59.5149 16.6746 58.361 17.3186C57.8134 17.624 57.199 17.7899 56.572 17.8017Z" fill="#3A3A3A"/>
<path d="M61.1546 10.8112L59.6385 11.6565L59.4551 11.0885L63.3327 8.93274L63.5116 9.50074L61.982 10.3505L63.2969 14.5099L62.4695 14.9661L61.1546 10.8112Z" fill="#3A3A3A"/>
<path d="M21.1094 45.0211L41.5486 33.2898L41.723 33.7997L21.3196 45.7188L21.1094 45.0211Z" fill="#3A3A3A"/>
<path d="M21.6504 46.6536L42.0896 34.9222L42.264 35.4321L21.8606 47.3557L21.6504 46.6536Z" fill="#3A3A3A"/>
<path d="M23.623 51.238L44.0578 39.5022L44.2322 40.0121L23.8333 51.9357L23.623 51.238Z" fill="#3A3A3A"/>
<path d="M24.1641 52.8703L44.5988 41.139L44.7732 41.6489L24.3743 53.5681L24.1641 52.8703Z" fill="#3A3A3A"/>
<path d="M44.6445 31.2996L65.0838 19.5638L65.2582 20.0737L44.8547 31.9973L44.6445 31.2996Z" fill="#3A3A3A"/>
<path d="M45.1836 32.932L65.6228 21.2007L65.7972 21.7105L45.3938 33.6297L45.1836 32.932Z" fill="#3A3A3A"/>
<path d="M47.1562 37.5118L67.591 25.7805L67.7654 26.2904L47.362 38.2095L47.1562 37.5118Z" fill="#3A3A3A"/>
<path d="M47.6992 39.1444L68.134 27.4131L68.3084 27.9274L47.905 39.8466L47.6992 39.1444Z" fill="#3A3A3A"/>
</svg>
