<svg width="648" height="267" fill="none" xmlns="http://www.w3.org/2000/svg"><path d="M136.745 57.22h-42.19V1h33.15l9.04 8.831v47.39z" stroke="#263238" stroke-linecap="round" stroke-linejoin="round"/><path d="M128.848 8.907v2.3l7.9-1.365-7.9-.935z" fill="#263238" stroke="#263238" stroke-linecap="round" stroke-linejoin="round"/><path d="M127.707 1v8.842h9.04L127.707 1zM99.922 13.215h32.473m-32.473 8.037h32.473m-32.473 8.025h32.473m-32.473 8.036h32.473m-32.473 8.025h32.473M17.602 125.163h15.113m-31.817 0h13.974m11.995 4.77h5.848m-31.817 0h23.24m6.276 4.77h2.3m-14.843 0H26.6m-25.702 0h14.523m-14.523 4.77h31.818m-5.298 4.77h5.3m-23.566 0h12.813m-21.067 0h4.44m10.084 4.77h17.295m-31.819 0h11.524m11.718 4.77h8.578m-17.03 0h5.998m-20.788 0h11.524m102.065 35.497H79.691v-46.369h27.336l7.46 7.273v39.096z" stroke="#263238" stroke-linecap="round" stroke-linejoin="round"/><path d="M107.961 149.432v1.891l6.525-1.128-6.525-.763z" fill="#263238" stroke="#263238" stroke-linecap="round" stroke-linejoin="round"/><path d="M107.027 142.911v7.284h7.46l-7.46-7.284zM84.11 152.978h26.786m-26.786 6.628h26.786m-26.786 6.629h26.786m-26.786 6.618h26.786m-26.786 6.628h26.786M77.906 62.42H35.715V6.2h33.15l9.04 8.82v47.4z" stroke="#263238" stroke-linecap="round" stroke-linejoin="round"/><path d="M69.996 14.107v2.299l7.912-1.375-7.912-.924z" fill="#263238" stroke="#263238" stroke-linecap="round" stroke-linejoin="round"/><path d="M68.867 6.2v8.83h9.04l-9.04-8.83zM41.066 18.415h32.485M41.066 26.44h32.485m-32.485 8.037h32.485m-32.485 8.036h32.485m-32.485 8.025h32.485m94.714 37.602h-42.191V31.91h33.151l9.04 8.83v47.4z" stroke="#263238" stroke-linecap="round" stroke-linejoin="round"/><path d="M160.363 39.816v2.31l7.901-1.375-7.901-.935z" fill="#263238" stroke="#263238" stroke-linecap="round" stroke-linejoin="round"/><path d="M159.223 31.91v8.841h9.04l-9.04-8.842zm-27.785 12.225h32.473m-32.473 8.025h32.473m-32.473 8.037h32.473m-32.473 8.025h32.473m-32.473 8.036h32.473m60.959 74.195h-42.19V94.221h33.15l9.04 8.831v47.401z" stroke="#263238" stroke-linecap="round" stroke-linejoin="round"/><path d="M216.957 102.128v2.31l7.911-1.375-7.911-.935z" fill="#263238" stroke="#263238" stroke-linecap="round" stroke-linejoin="round"/><path d="M215.828 94.221v8.842h9.04l-9.04-8.842zm-27.797 12.226h32.484m-32.484 8.026h32.484m-32.484 8.036h32.484m-32.484 8.025h32.484m-32.484 8.036h32.484M107.134 47.917H60.708c-5.111 0-9.255 4.141-9.255 9.25v55.157c0 5.109 4.144 9.25 9.255 9.25h46.426c5.112 0 9.255-4.141 9.255-9.25V57.167c0-5.109-4.143-9.25-9.255-9.25z" stroke="#263238" stroke-linecap="round" stroke-linejoin="round"/><path d="M109.164 47.917H58.642a7.215 7.215 0 00-7.212 7.209v1.558h64.925v-1.547a7.207 7.207 0 00-7.191-7.22z" fill="#263238" stroke="#263238" stroke-linecap="round" stroke-linejoin="round"/><path d="M60.719 69.554h46.383M60.719 80.878h46.383M60.719 92.212h46.383m-46.383 11.334h46.383m-44.469 4.685H36.114c-5.111 0-9.255 4.141-9.255 9.25v32.574c0 5.109 4.144 9.251 9.255 9.251h26.519c5.111 0 9.255-4.142 9.255-9.251v-32.574c0-5.109-4.144-9.25-9.255-9.25z" stroke="#263238" stroke-linecap="round" stroke-linejoin="round"/><path d="M66.879 108.252H31.858a5 5 0 00-4.999 4.996v1.075h44.997v-1.075a4.995 4.995 0 00-4.977-4.996z" fill="#263238" stroke="#263238" stroke-linecap="round" stroke-linejoin="round"/><path d="M33.285 123.229h32.162m-32.162 7.853h32.162m-32.162 7.864h32.162M33.285 146.8h32.162m-16.318 27.879h15.113m-31.828 0H46.4m11.998 4.77h5.848m-31.832.001h23.25m6.27 4.77h2.31m-14.846 0h8.718m-25.702 0h14.533m-14.533 4.77h31.829m-5.298 4.77h5.3m-23.565 0h12.802m-21.068 0h4.45m10.086 4.77h17.295m-31.831 0h11.534m11.716 4.77h8.578m-17.023 0h5.998m-20.803 0h11.534m112.017-35.034h15.124m-31.827 0h13.984m11.988 4.78h5.859m-31.831 0h23.25m6.269 4.77h2.311m-14.846 0h8.718m-25.702 0h14.533m-14.533 4.77h31.828m-5.309 4.77h5.31m-23.571 0h12.813m-21.071 0h4.439m10.096 4.77h17.295m-31.83 0h11.534m11.716 4.771h8.578m-17.024 0h5.998m-20.802 0h11.534m40.536-136.84h15.113m-31.828 0h13.985m11.996 4.77h5.847m-31.828 0h23.251m6.265 4.77h2.311m-14.842 0h8.717m-25.702 0h14.533m-14.533 4.77h31.829m-5.301 4.77h5.299m-23.561 0h12.802m-21.068 0h4.45m10.081 4.771h17.296m-31.827-.001h11.534m11.716 4.771h8.578m-17.027 0h5.998m-20.799 0h11.534M25.516 70.832h15.113m-31.832 0h13.985m11.999 4.771h5.848m-31.832 0h23.25m6.281 4.77h2.3m-14.843 0h8.729m-25.717 0H23.33m-14.533 4.77h31.828m-5.297 4.77h5.3m-23.562 0H29.88m-21.083 0h4.45m10.085 4.77h17.295m-31.83 0H20.33m11.72 4.77h8.579m-17.027.001H29.6m-20.803-.001H20.33m99.701 9.176v47.4h42.191v-56.22h-33.14l-9.051 8.82z" stroke="#263238" stroke-linecap="round" stroke-linejoin="round"/><path d="M127.943 107.715v2.299l-7.912-1.364 7.912-.935z" fill="#263238" stroke="#263238" stroke-linecap="round" stroke-linejoin="round"/><path d="M129.071 99.808v8.842h-9.04l9.04-8.842zm27.8 12.215h-32.484m32.484 8.026h-32.484m32.484 8.036h-32.484m32.484 8.036h-32.484" stroke="#263238" stroke-linecap="round" stroke-linejoin="round"/><path d="M162.222 142.911h-42.191v13.128h42.191v-13.128zm6.516-30.598h-29.195v14.053h29.195v-14.053z" fill="#263238" stroke="#263238" stroke-linecap="round" stroke-linejoin="round"/><path opacity=".2" d="M623.366 183.855l-7.439-.183-.107 4.233c-1.83.191-3.633.588-5.375 1.182l-2.096-3.836-6.567 3.567 2.02 3.707a25.541 25.541 0 00-4.095 3.749l-3.73-2.288-3.87 6.349 3.601 2.149a25.143 25.143 0 00-1.666 5.296l-4.375-.118-.183 7.445 4.236.108a24.527 24.527 0 001.182 5.372l-3.87 2.18 3.558 6.543 3.72-2.02a24.93 24.93 0 003.74 4.083l-2.279 3.739 6.353 3.878 2.204-3.599a25.206 25.206 0 005.288 1.665l-.107 4.373 7.449.183.172-4.255a24.553 24.553 0 005.375-1.182l2.085 3.836 6.546-3.556-2.031-3.718a25.083 25.083 0 004.095-3.738l3.73 2.277 3.891-6.349-3.611-2.203a24.505 24.505 0 001.666-5.296l4.375.118.193-7.445-4.235-.108a25.196 25.196 0 00-1.182-5.371l3.826-2.085-3.558-6.542-3.719 2.03a24.131 24.131 0 00-3.741-4.093l2.29-3.739-6.321-3.9-2.203 3.61a24.291 24.291 0 00-5.289-1.676l.054-4.372zm-5.375 46.702a17.926 17.926 0 01-16.284-11.471 17.914 17.914 0 014.372-19.427 17.932 17.932 0 0127.51 3.401 17.914 17.914 0 012.773 10.028 17.922 17.922 0 01-5.569 12.533 17.945 17.945 0 01-12.802 4.936zm-15.66-102.311l-7.439-.183-.107 4.223c-1.83.199-3.632.599-5.375 1.192l-2.15-3.835-6.535 3.556 2.021 3.717a25.486 25.486 0 00-4.096 3.739l-3.74-2.278-3.881 6.35 3.601 2.202a25.057 25.057 0 00-1.666 5.286l-4.375-.108-.183 7.446 4.225.096a25.137 25.137 0 001.193 5.426l-3.838 2.084 3.558 6.532 3.72-2.02a25.043 25.043 0 003.74 4.094l-2.279 3.728 6.353 3.889 2.15-3.61a24.444 24.444 0 005.289 1.665l-.108 4.373 7.45.193.107-4.233a24.617 24.617 0 005.375-1.192l2.085 3.835 6.536-3.556-1.903-3.664a24.993 24.993 0 004.095-3.738l3.73 2.277 3.892-6.349-3.612-2.202a24.203 24.203 0 001.666-5.286l4.375.107.193-7.434-4.235-.108a24.294 24.294 0 00-1.193-5.372l3.837-2.094-3.558-6.533-3.719 2.02a24.998 24.998 0 00-3.741-4.093l2.279-3.728-6.352-3.878-2.15 3.599a24.817 24.817 0 00-5.289-1.666l.054-4.469zm-5.375 46.691a17.931 17.931 0 01-16.285-11.473 17.912 17.912 0 014.377-19.428 17.94 17.94 0 0119.634-3.39 17.924 17.924 0 0110.645 16.833 17.916 17.916 0 01-5.569 12.53 17.933 17.933 0 01-12.802 4.928zM240.004 59.015v-7.52h-4.235a24.784 24.784 0 00-1.323-5.372l3.784-2.149-3.73-6.446-3.665 2.149a25.467 25.467 0 00-3.838-3.997l2.15-3.781-6.449-3.728-2.15 3.663a25.55 25.55 0 00-5.375-1.536v-4.426h-7.449v4.233a24.84 24.84 0 00-5.375 1.321l-2.15-3.782-6.449 3.728 2.15 3.664a25.95 25.95 0 00-3.999 3.835l-3.784-2.149-3.719 6.447 3.655 2.148a25.474 25.474 0 00-1.537 5.372h-4.375v7.445h4.235a24.782 24.782 0 001.322 5.372l-3.784 2.149 3.73 6.446 3.666-2.149a25.964 25.964 0 003.837 3.997l-2.15 3.781 6.45 3.718 2.15-3.653a25.541 25.541 0 005.374 1.536v4.394h7.45v-4.297a24.822 24.822 0 005.374-1.322l2.15 3.782 6.45-3.728-2.15-3.663a25.473 25.473 0 003.998-3.836l3.784 2.149 3.73-6.446-3.665-2.149a25.532 25.532 0 001.537-5.372l4.375.172zm-46.845-4.2a17.914 17.914 0 0111.068-16.556 17.938 17.938 0 0119.54 3.884 17.922 17.922 0 014.907 9.175 17.919 17.919 0 01-7.624 18.397 17.938 17.938 0 01-22.655-2.244 17.919 17.919 0 01-5.236-12.7v.044zM295.094 36.55v-7.445h-4.225a24.781 24.781 0 00-1.322-5.372l3.773-2.148-3.719-6.446-3.666 2.148a24.638 24.638 0 00-3.848-3.996l2.15-3.793-6.45-3.717-2.15 3.653a24.513 24.513 0 00-5.374-1.526V3.46h-7.439v4.233c-1.835.236-3.638.68-5.374 1.322l-2.15-3.782-6.45 3.717 2.15 3.664a24.617 24.617 0 00-3.945 3.846l-3.783-2.149-3.73 6.447 3.665 2.148a23.958 23.958 0 00-1.537 5.372h-4.397v7.445h4.236a25.094 25.094 0 001.322 5.372l-3.784 2.149 3.719 6.446 3.677-2.149a24.542 24.542 0 003.837 3.954l-2.15 3.781 6.45 3.728 2.15-3.663a24.117 24.117 0 005.374 1.536v4.373h7.449v-4.233a24.223 24.223 0 005.375-1.322l2.15 3.782 6.449-3.717-2.149-3.664a25.061 25.061 0 003.998-3.846l3.795 2.149 3.719-6.446-3.655-2.149a24.529 24.529 0 001.527-5.372l4.332.118zm-46.835-4.2a17.915 17.915 0 0111.068-16.556 17.941 17.941 0 0119.54 3.884 17.915 17.915 0 01-2.717 27.572 17.935 17.935 0 01-9.961 3.02 17.927 17.927 0 01-16.568-11.06 17.92 17.92 0 01-1.362-6.86z" stroke="#172224" stroke-opacity=".74" stroke-linecap="round" stroke-linejoin="round"/><g opacity=".2" stroke="#172224" stroke-opacity=".74"><path d="M353.151 246.382c10.508 0 19.026-8.514 19.026-19.016 0-10.503-8.518-19.016-19.026-19.016s-19.026 8.513-19.026 19.016c0 10.502 8.518 19.016 19.026 19.016z" stroke-linecap="round" stroke-linejoin="round"/><path d="M367.431 230.036c1.483-7.884-3.709-15.477-11.597-16.959-7.888-1.483-15.485 3.707-16.968 11.59-1.484 7.884 3.708 15.477 11.596 16.96 7.888 1.482 15.485-3.707 16.969-11.591z" stroke-linecap="round" stroke-linejoin="round"/><path d="M381.014 240.408l-10.266-5.565-1.709 3.148 10.276 5.554a1.797 1.797 0 00.721 2.428l19.574 10.593a1.793 1.793 0 002.429-.72l1.709-3.148a1.8 1.8 0 00-.731-2.428l-19.574-10.593a1.805 1.805 0 00-2.429.731z" stroke-miterlimit="10"/></g><path opacity=".2" d="M393.246 37.528a20.77 20.77 0 01-12.826 19.204 20.798 20.798 0 01-22.659-4.497 20.772 20.772 0 013.145-31.972 20.798 20.798 0 0111.551-3.502" stroke="#172224" stroke-opacity=".74" stroke-linecap="round" stroke-linejoin="round"/><path opacity=".2" d="M393.246 37.528h-20.789V16.76a20.793 20.793 0 0114.696 6.082 20.77 20.77 0 016.093 14.685zm-2.152-14.321l10.749-8.595h15.049m8.6 0h20.058m-20.058 6.446h20.058m-20.058 6.446h20.058m-20.058 6.446h20.058" stroke="#172224" stroke-opacity=".74" stroke-linecap="round" stroke-linejoin="round"/><g opacity=".2" stroke="#172224" stroke-opacity=".74" stroke-linecap="round" stroke-linejoin="round"><path d="M175.445 206.76l-.774-3.782h-13.609l.774 3.782.699 3.373 4.622 22.562h36.333l-5.31-25.935h-22.735z"/><path d="M203.489 232.694l6.697-24.183h-11.448"/></g><path d="M487.731 216.611H468.5l-9.609 16.652 9.609 16.642h19.231l9.62-16.642-9.62-16.652zm-.064-33.466h-19.23l-9.621 16.642 9.621 16.641h19.23l9.61-16.641-9.61-16.642zm57.486 0h-19.231l-9.61 16.642 9.61 16.641h19.231l9.62-16.641-9.62-16.642z" stroke="#263238" stroke-linecap="round" stroke-linejoin="round"/><path d="M516.657 232.995h-19.231l-9.61 16.652 9.61 16.642h19.231l9.62-16.642-9.62-16.652z" stroke="#263238" stroke-linecap="round" stroke-linejoin="round"/><path d="M516.581 199.969h-19.23l-9.621 16.642 9.621 16.652h19.23l9.61-16.652-9.61-16.642z" stroke="#263238" stroke-linecap="round" stroke-linejoin="round"/><path d="M515.778 166.45h-19.231l-9.609 16.641 9.609 16.653h19.231l9.62-16.653-9.62-16.641z" fill="#263238"/><path d="M545.507 216.353h-19.23l-9.621 16.642 9.621 16.652h19.23l9.61-16.652-9.61-16.642zm39.86-200.312h-88.573a2.504 2.504 0 00-2.505 2.503v65.482a2.504 2.504 0 002.505 2.503h88.573a2.504 2.504 0 002.505-2.503V18.544a2.504 2.504 0 00-2.505-2.503z" stroke="#263238" stroke-linecap="round" stroke-linejoin="round"/><path d="M498.633 79.943h87.864m-87.864 0v1.29m5.859-1.29v1.29m5.856-1.29v1.29m5.859-1.29v1.29m5.859-1.29v1.29m5.856-1.29v1.29m5.859-1.29v1.29m5.86-1.29v1.29m5.855-1.29v1.29m5.848-1.29v1.29m5.859-1.29v1.29m5.859-1.29v1.29m5.86-1.29v1.29m5.859-1.29v1.29m5.856-1.29v1.29m5.859-1.29v1.29" stroke="#263238" stroke-width=".5" stroke-miterlimit="10"/><path d="M501.566 78.88h81.996V67.556l-5.794-11.216a.652.652 0 01-.075-.247l-5.106-33.251a.623.623 0 00-1.247 0l-5.246 40.589a.797.797 0 01-.279.505l-5.053 3.91a.58.58 0 01-.902-.247l-5.096-10.507a.573.573 0 00-.471-.374.58.58 0 00-.55.245l-5.267 6.79-5.858 7.52-5.859-7.52-5.159-6.65a.602.602 0 00-1.075.236l-5.493 16.986-5.858-30.286-5.848 33.305-5.858-4.534-4.644-13.16c-.258-.742-1.215-.527-1.215.278l-.043 18.952z" stroke="#263238" stroke-miterlimit="10"/><path d="M583.562 78.901h-81.996v-9.744l5.794-9.67a.879.879 0 00.086-.214l5.149-28.513a.632.632 0 01.624-.518.634.634 0 01.623.518l5.256 34.905a.589.589 0 00.269.43l5.063 3.341a.636.636 0 00.892-.225l5.095-9.025a.636.636 0 011.075-.118l5.267 5.845 5.859 6.446 5.858-6.446 5.16-5.727a.64.64 0 01.594-.196.646.646 0 01.481.4l5.493 14.612h5.858l5.858 2.6 5.848-3.9 4.643-11.313a.633.633 0 011.065-.156c.093.11.146.248.15.392l-.064 16.276z" fill="#263238"/><path d="M545.973 25.452h18.144m-18.144 4.244h18.144m-18.144 4.244h18.144m-18.144 4.244h18.144m-18.144 4.254h18.144m-18.144 4.244h18.144m-22.273-21.23h2.268m-2.268 4.244h2.268m-2.268 4.244h2.268m-2.268 4.244h2.268m-2.268 4.254h2.268m-2.268 4.244h2.268m-15.729 87.452v-6.801m-17.438 42.157h10.051a7.395 7.395 0 007.385-7.381v-23.732m-42.943 31.113h4.245m-56.648-19.639v12.258a7.39 7.39 0 007.385 7.381h38.235m-45.639-34.938v11.055m22.229-48.99H440.4a7.397 7.397 0 00-7.384 7.381v24.216m45.188-31.597h-7.653m57.832 23.915v-16.534a7.391 7.391 0 00-7.385-7.38h-39.385" stroke="#263238" stroke-linecap="round" stroke-linejoin="round"/><path d="M520.989 99.84h-80.587a4.16 4.16 0 00-4.16 4.158v58.112a4.159 4.159 0 004.16 4.157h80.587a4.158 4.158 0 004.16-4.157v-58.112a4.159 4.159 0 00-4.16-4.158z" stroke="#263238" stroke-linecap="round" stroke-linejoin="round"/><path d="M516.106 109.08h-70.805v47.937h70.805V109.08z" stroke="#263238" stroke-linecap="round" stroke-linejoin="round"/><path d="M516.095 133.199l-9.405 1.848 4.299 21.97h-6.245l-4.063-20.799-34.365 6.714 1.612 8.273 17.661-3.438 3.913-.774.688 3.503 1.279 6.521h-4.074l-1.129-5.748-17.65 3.438.451 2.31h-5.557l-2.548-13.032-5.353 1.032 2.344 12h-4.988l-2.161-11.055-5.503 1.074v-6.392l14.457-2.815-2.762-14.17-11.695 2.288v-4.201l1.816-.354-1.816-9.272v-3.04h3.289l2.257 11.581 5.364-1.053-2.074-10.528h5.557l5.407 27.696 7.772-1.515-1.57-7.993-.989-5.103 1.946-2.901 6.858-10.184h5.794l-9.642 14.331 2.139 10.97 38.686-7.564v6.382z" stroke="#263238" stroke-linecap="round" stroke-linejoin="round"/><path d="M499.845 118.469a7.29 7.29 0 00-10.309 0 7.283 7.283 0 000 10.293l5.149 5.146 5.16-5.146a7.284 7.284 0 000-10.293zm-3.031 7.263a3.01 3.01 0 01-1.536.823 3.004 3.004 0 01-3.587-2.94 2.995 2.995 0 011.853-2.77 3.01 3.01 0 011.734-.169 3.01 3.01 0 012.415 2.939 2.981 2.981 0 01-.879 2.117z" fill="#263238"/><path d="M417.785 107.64h11.394a7.396 7.396 0 007.385-7.381V79.256M404.18 107.64h7.223m-53.618-32.639v25.258a7.39 7.39 0 007.385 7.381h35.182m-25.52-60.443h-9.674a7.394 7.394 0 00-7.385 7.381V69.06m29.817-21.863h-4.676m53.597 17.179v-9.798a7.395 7.395 0 00-7.331-7.38h-38.192" stroke="#263238" stroke-linecap="round" stroke-linejoin="round"/><path d="M429.126 50.42h-63.958a4.159 4.159 0 00-4.16 4.158v45.681a4.158 4.158 0 004.16 4.158h63.958a4.159 4.159 0 004.16-4.158v-45.68a4.16 4.16 0 00-4.16-4.159z" stroke="#263238" stroke-linecap="round" stroke-linejoin="round"/><path d="M426.171 58.822h-58.046v37.194h58.046V58.822z" stroke="#263238" stroke-linecap="round" stroke-linejoin="round"/><path d="M426.171 58.822h-58.046v5.017h58.046v-5.017z" stroke="#263238" stroke-linecap="round" stroke-linejoin="round"/><path d="M393.235 67.567h-6.051v4.082h6.051v-4.082zm6.934 0h-6.052v4.082h6.052v-4.082zm6.945 0h-6.052v4.082h6.052v-4.082zm6.93 0h-6.052v4.082h6.052v-4.082zm6.945 0h-6.051v4.082h6.051v-4.082zm-41.64 4.856h-6.052v4.082h6.052v-4.082zm6.945 0h-6.052v4.082h6.052v-4.082zm6.941 0h-6.051v4.082h6.051v-4.082zm6.934 0h-6.052v4.082h6.052v-4.082zm6.945 0h-6.052v4.082h6.052v-4.082zm6.93 0h-6.052v4.082h6.052v-4.082zm6.945 0h-6.051v4.082h6.051v-4.082zm-41.64 4.845h-6.052v4.083h6.052v-4.083zm6.945.001h-6.052v4.082h6.052V77.27zm6.941-.001h-6.051v4.083h6.051v-4.083zm6.934 0h-6.052v4.083h6.052v-4.083z" fill="#263238"/><path d="M407.114 77.269h-6.052v4.082h6.052V77.27z" stroke="#263238" stroke-linecap="round" stroke-linejoin="round"/><path d="M414.044 77.269h-6.052v4.082h6.052V77.27zm6.945-.001h-6.051v4.083h6.051v-4.083zm-41.64 4.856h-6.052v4.083h6.052v-4.082z" fill="#263238"/><path d="M386.294 82.124h-6.052v4.083h6.052v-4.082z" stroke="#263238" stroke-linecap="round" stroke-linejoin="round"/><path d="M393.235 82.124h-6.051v4.083h6.051v-4.082zm6.934 0h-6.052v4.083h6.052v-4.082zm6.945 0h-6.052v4.083h6.052v-4.082zm6.93 0h-6.052v4.083h6.052v-4.082zm6.945 0h-6.051v4.083h6.051v-4.082zm-41.64 4.846h-6.052v4.082h6.052V86.97zm6.945 0h-6.052v4.082h6.052V86.97zm6.941 0h-6.051v4.082h6.051V86.97zm6.934 0h-6.052v4.082h6.052V86.97z" fill="#263238"/><path d="M317.293 52.569h-70.375a4.159 4.159 0 00-4.16 4.158V107.2a4.158 4.158 0 004.16 4.157h70.375a4.159 4.159 0 004.16-4.157V56.727a4.16 4.16 0 00-4.16-4.158z" stroke="#263238" stroke-linecap="round" stroke-linejoin="round"/><path d="M305.329 92.223h-46.458a4.417 4.417 0 00-4.418 4.416v1.192a4.417 4.417 0 004.418 4.416h46.458a4.417 4.417 0 004.418-4.416V96.64a4.417 4.417 0 00-4.418-4.416z" stroke="#263238" stroke-linecap="round" stroke-linejoin="round"/><path d="M290.31 95.124h-4.224v4.222h4.224v-4.222zm-12.363 0h-1.322v4.222h1.322v-4.222zm-2.566 0h-1.322v4.222h1.322v-4.222zm26.175 0v2.052l-3.665-2.052v4.222l3.665-2.052v2.052h1.333v-4.222h-1.333zm-38.914 4.222v-2.052l3.677 2.052v-4.222l-3.677 2.052v-2.052h-1.322v4.222h1.322z" fill="#263238"/><path d="M275.8 61.68h-20.058c-.742 0-1.344.6-1.344 1.342V83.07c0 .741.602 1.342 1.344 1.342H275.8c.742 0 1.344-.6 1.344-1.343V63.023c0-.741-.602-1.343-1.344-1.343z" stroke="#263238" stroke-linecap="round" stroke-linejoin="round"/><path d="M260.234 78.998c0 1.44 1.785 2.6 3.978 2.6 2.192 0 3.977-1.16 3.977-2.6 0-1.44-1.774-2.61-3.977-2.61-2.204 0-3.978 1.17-3.978 2.61z" fill="#263238"/><path d="M264.695 65.128l2.731 13.87h.763l-2-10.131-.516-2.643a5.15 5.15 0 01-.978-1.075v-.021z" fill="#263238"/><path d="M264.695 65.128l.678 3.352c.256.156.531.282.816.376.85.29 1.75.4 2.645.322a3.223 3.223 0 013.063 1.601c0-.161-.817-3.116-3.579-3.416a4.842 4.842 0 01-2.602-1.15 5.138 5.138 0 01-1.021-1.085zm20.241 7.918h-2.053v11.366h2.053V73.046zm4.141 0h-2.054v11.366h2.054V73.046zm4.148-3.653h-2.053v15.02h2.053v-15.02zm4.148-2.439h-2.053v17.458h2.053V66.954zm4.137 2.439h-2.053v15.02h2.053v-15.02zm4.152-2.439h-2.053v17.458h2.053V66.954zm4.149 6.092h-2.053v11.366h2.053V73.046z" fill="#263238"/><path d="M291.246 114.58h26.099a7.396 7.396 0 007.385-7.381v-24.71m-42.472 32.091h5.525m-48.252-30.393V107.2a7.39 7.39 0 007.385 7.38h24.723M258.02 49.346h-11.104a7.391 7.391 0 00-7.385 7.38v18.587m27.423-25.967h-5.106m62.829 14.439v-7.058a7.391 7.391 0 00-7.385-7.381h-43.534m50.918 31.446V76.12" stroke="#263238" stroke-linecap="round" stroke-linejoin="round"/><path d="M310.334 103.063H298.51a7.396 7.396 0 00-7.385 7.381v12.333m40.04-19.714h-8.083m83.189 19.714v-12.333a7.39 7.39 0 00-7.385-7.381h-64.324m33.602 87.667h30.721a7.396 7.396 0 007.385-7.381v-28.255m-64.903 35.614h10.212m-60.442-51.354v43.974a7.39 7.39 0 007.384 7.38h37.322m70.427-43.285v-8.069" stroke="#263238" stroke-miterlimit="10"/><path d="M398.885 106.286H298.519a4.16 4.16 0 00-4.16 4.158v72.884a4.159 4.159 0 004.16 4.157h100.366a4.159 4.159 0 004.16-4.157v-72.884a4.16 4.16 0 00-4.16-4.158z" stroke="#263238" stroke-linecap="round" stroke-linejoin="round"/><path d="M388.763 141.594c1.808-7.694-2.968-15.396-10.667-17.202-7.698-1.806-15.404 2.967-17.211 10.662-1.807 7.694 2.969 15.395 10.667 17.202 7.699 1.806 15.404-2.968 17.211-10.662z" stroke="#263238" stroke-linecap="round" stroke-linejoin="round"/><path d="M381.807 130.566l-.387-.386a1.073 1.073 0 00-1.462 0l-3.085 3.083a1.073 1.073 0 000 1.461l1.075 1.075a1.155 1.155 0 010 1.654l-3.999 3.997a1.175 1.175 0 01-1.645 0l-1.075-1.075a1.073 1.073 0 00-1.462 0l-3.128 3.084a1.074 1.074 0 000 1.471l.398.387a4.959 4.959 0 007.009 0l7.739-7.746a4.954 4.954 0 001.091-5.394 4.968 4.968 0 00-1.069-1.611z" fill="#263238"/><path d="M344.346 120.521h-36.364c-.974 0-1.763.789-1.763 1.762v36.345c0 .973.789 1.762 1.763 1.762h36.364c.974 0 1.763-.789 1.763-1.762v-36.345c0-.973-.789-1.762-1.763-1.762z" stroke="#263238" stroke-linecap="round" stroke-linejoin="round"/><path d="M338.897 128.17s2.053-1.815 3.644 4.147c1.59 5.963.526 12.624-2.462 19.188-2.988 6.564 3.569 6.113 3.676 8.885h-33.247s-4.386-5.243 0-8.885c4.385-3.642 4.052-2.439 3.053-6.757-1-4.319-2.548-15.707 7.599-20.864 15.468-7.843 17.737 4.286 17.737 4.286z" fill="#263238"/><path d="M332.486 152.29s-1.612 4.437-.72 7.66h-12.77a12.528 12.528 0 001.183-9.025c-1.183-5.404 12.307 1.365 12.307 1.365zm-14.641-13.881s-.903-1.397-1.72-1.075c-.817.323-.817 4.072-.752 5.061.064.988 2.053 3.223 2.891 2.589m19.61-3.674s1.279-1.074 1.977-.57c.699.505-.397 4.137-.741 5.061-.344.924-2.892 2.471-3.505 1.654" stroke="#263238" stroke-width=".5" stroke-linecap="round" stroke-linejoin="round"/><path d="M325.511 155.878c-3.353-.483-6.686-6.167-7.083-7.767-.452-1.784-1.43-10.561.483-15.374 2.15-5.372 6.654-7.682 11.04-7.037 4.386.644 8.051 4.125 8.545 9.927.452 5.156-3.02 13.279-3.966 14.858-.838 1.407-5.514 5.919-9.019 5.393z" stroke="#263238" stroke-width=".5" stroke-linecap="round" stroke-linejoin="round"/><path d="M333.1 141.804c-.086.623-.44 1.074-.784 1.074-.344 0-.538-.591-.452-1.214.086-.623.441-1.074.785-1.074.344 0 .548.591.451 1.214zm-10.94-1.569c-.086.624.119 1.161.462 1.214.344.054.688-.408.785-1.074.097-.666-.118-1.171-.462-1.214-.344-.043-.688.408-.785 1.074z" fill="#263238"/><path d="M326.761 141.503c.096 2.149-1.742 2.504-1.398 3.223.253.467.677.817 1.183.978m-3.538 1.773a13.397 13.397 0 007.094 1.074" stroke="#263238" stroke-width=".5" stroke-linecap="round" stroke-linejoin="round"/><path d="M323.5 147.681s0 3.223 2.15 3.76c2.15.537 3.945-2.847 3.945-2.847m-9.415-11.227a5.175 5.175 0 015.095-1.719m10.244 3.986a5.162 5.162 0 00-1.754-2.179 5.165 5.165 0 00-2.632-.948" stroke="#263238" stroke-width=".5" stroke-linecap="round" stroke-linejoin="round"/><path d="M333.242 130.33a11.06 11.06 0 01-6.676 3.556c-5.729.999-8.889 5.941-8.814 8.015a17.59 17.59 0 01-.978-9.111c1.139-7.595 8.234-9.776 13.382-9.239 5.149.537 7.643 5.694 7.643 5.694s3.881 3.008 3.311 6.811c-.537 3.632-1.419 3.739-1.881 4.555-.645 1.139.193 1.612-2.064 3.492 0 0 .892-5.082-.215-8.863a7.615 7.615 0 00-3.708-4.91z" fill="#263238"/><path d="M334.661 129.041s-2.021 7.703-13.501 8.917c0 0 7.74-1.408 11.308-8.466l2.193-.451zm11.448 39.675h-39.89v3.664h39.89v-3.664z" fill="#263238"/><path d="M367.756 166.89h-9.33v5.812h9.33v-5.812z" stroke="#263238" stroke-linecap="round" stroke-linejoin="round"/><path d="M367.746 168.835l2.999-1.161v4.244l-2.999-1.246v-1.837zm23.456 2.729h-3.655l-1.419 1.686-1.161-1.686h-3.912v-5.222h10.147v5.222z" stroke="#263238" stroke-linecap="round" stroke-linejoin="round"/></svg>