<svg width="64" height="64" viewBox="0 0 64 64" fill="none" xmlns="http://www.w3.org/2000/svg">
<path d="M20.0133 9.25802C20.0053 9.26263 19.9976 9.26582 19.9896 9.27043C13.9628 12.7499 8.87539 21.3486 8.8952 28.4735C8.90288 31.1171 9.65969 33.986 11.9506 35.3047C13.9217 36.4377 16.5877 36.1536 19.4558 34.4981C25.5886 30.957 30.561 22.3348 30.5408 15.2771C30.5221 8.46706 25.8677 5.89012 20.0133 9.25802ZM19.3803 14.5466C20.8755 13.6823 22.2708 14.477 22.2758 16.2015C22.28 17.6691 21.2807 19.3971 20.0015 20.136C18.513 20.9957 17.117 20.2041 17.112 18.4841C17.1078 17.0123 18.1041 15.2831 19.3803 14.5466ZM24.1726 24.5212C24.1726 24.7403 24.063 24.9352 23.8682 25.0447L16.1743 29.5004C15.7603 29.7072 15.2612 29.4613 15.2612 28.9647V28.5143C15.2491 25.836 17.0751 22.6829 19.4003 21.3438C21.9653 19.8454 24.1726 21.1839 24.1726 24.0708V24.5212Z" fill="#172224" fill-opacity="0.7"/>
<path d="M7.67301 28.4758C7.65697 21.0237 12.9218 11.9451 19.3815 8.21525C21.0617 7.24489 22.8839 6.7034 24.1212 6.59662C24.1412 6.59491 24.1622 6.58926 24.1821 6.5877L22.6187 5.69784C20.6387 4.54583 17.9709 4.82759 15.0992 6.48784C9.17295 9.89652 3.98534 18.4797 4.00003 25.6903C4.0143 28.9549 5.09378 31.379 7.03816 32.5144L8.70494 33.4625C8.69216 33.4365 8.68376 33.4062 8.67121 33.38C7.98133 31.9349 7.67978 30.0596 7.67301 28.4758Z" fill="#172224" fill-opacity="0.7"/>
<path d="M49.4487 31.632C43.3491 35.1534 38.3347 43.7638 38.3543 50.8351C38.362 53.4968 39.1126 56.344 41.4097 57.6657C43.3814 58.7993 46.0462 58.5145 48.9149 56.8591C55.0477 53.3186 60.0201 44.6964 59.9999 37.6381C59.9816 30.9683 55.4637 28.1527 49.4487 31.632ZM48.8366 36.914C50.4266 36.0255 51.734 36.9126 51.734 38.5575C51.734 40.0305 50.7358 41.7593 49.4575 42.5018C48.0053 43.3381 46.5723 42.6006 46.5723 40.8462C46.5723 39.3731 47.5584 37.6445 48.8366 36.914ZM53.6331 46.8844C53.6331 47.1036 53.5236 47.2984 53.3288 47.4079L45.635 51.8514C45.4387 51.974 45.173 51.9563 45.0263 51.8514C44.8314 51.754 44.7219 51.5471 44.7219 51.328V50.8775C44.7097 48.1992 46.5236 45.0462 48.861 43.6949C51.5106 42.1876 53.6331 43.6232 53.6331 46.4218V46.8844Z" fill="#172224" fill-opacity="0.7"/>
<path d="M37.1324 50.8375C37.1162 43.332 42.4592 34.2616 48.8408 30.5764C50.5892 29.5669 52.2585 29.072 53.5812 28.9583C53.601 28.9566 53.6218 28.951 53.6415 28.9494L52.0781 28.0596C51.2762 27.5929 50.362 27.3617 49.3669 27.3617C42.0703 27.3617 33.4393 38.7272 33.4594 48.0514C33.4731 51.3167 34.5525 53.7407 36.4975 54.8749L38.1643 55.8236C38.1518 55.7982 38.1436 55.7686 38.1313 55.743C37.46 54.3362 37.1391 52.4149 37.1324 50.8375Z" fill="#172224" fill-opacity="0.7"/>
<path d="M35.6271 9.62405C43.5134 11.4649 44.1913 17.1884 44.2499 21.8778L42.2087 20.1443C41.9531 19.9279 41.5691 19.9582 41.3503 20.2144C41.1328 20.4706 41.1643 20.8552 41.4205 21.0728L44.4984 23.6859C44.7733 23.9194 45.1918 23.8628 45.3948 23.5652L47.5068 20.4754C47.697 20.1978 47.6257 19.8191 47.3481 19.6295C47.0705 19.4399 46.6919 19.5106 46.5022 19.7882L45.4581 21.3157C45.3403 16.4907 44.3439 10.4086 35.9042 8.43875C35.5725 8.36207 35.2491 8.56596 35.173 8.8929C35.0963 9.22043 35.3002 9.54796 35.6271 9.62405Z" fill="#172224" fill-opacity="0.7"/>
<path d="M28.3733 53.7248C20.5986 51.9094 19.83 46.3208 19.7536 41.6698L21.324 43.2919C21.5582 43.535 21.9434 43.5398 22.1847 43.3062C22.4267 43.072 22.4326 42.6868 22.199 42.4454L19.5449 39.7039C19.4177 39.5731 19.2376 39.5024 19.0557 39.5208C18.8738 39.5363 18.7079 39.6326 18.6051 39.7836L16.4937 42.8734C16.3034 43.151 16.3748 43.5297 16.6524 43.7193C16.9304 43.9093 17.309 43.8378 17.4982 43.5606L18.5424 42.0326C18.6603 46.8576 19.6567 52.9397 28.0963 54.9101C28.4324 54.9866 28.7527 54.7768 28.8275 54.4559C28.9042 54.1284 28.7009 53.8008 28.3733 53.7248Z" fill="#172224" fill-opacity="0.7"/>
</svg>
