<svg width="64" height="64" viewBox="0 0 64 64" fill="none" xmlns="http://www.w3.org/2000/svg">
<path d="M33.9047 33.7887L36.9422 32.0119V29.7017L33.9047 31.4507V33.7887Z" fill="#172224" fill-opacity="0.7"/>
<path d="M36.1858 28.3812L23.5618 21.0438L20.5228 22.7929L33.1468 30.1303L36.1858 28.3812Z" fill="#172224" fill-opacity="0.7"/>
<path d="M41.9664 25.0434L37.8168 22.6326L40.522 10.9721L40.9112 11.2184C40.8737 10.9406 40.8537 10.6607 40.8514 10.3803C40.9246 8.57747 41.4282 6.81831 42.3199 5.24976C43.2117 3.68122 44.4659 2.34882 45.9776 1.36384C46.3308 1.16938 46.6959 0.997534 47.0708 0.849326L46.0082 0.178861C45.5737 0.0146412 45.1049 -0.0376604 44.6449 0.0267803C44.1849 0.0912209 43.7485 0.27032 43.3759 0.547611C42.1021 1.40374 41.0442 2.54368 40.2855 3.87778C39.5268 5.21189 39.0878 6.70381 39.0032 8.23625C38.9991 8.73144 39.0865 9.22313 39.2612 9.68652L36.4481 21.8353L29.341 17.7089L25.0792 20.1693L37.7045 27.5066L41.9664 25.0434Z" fill="#172224" fill-opacity="0.7"/>
<path d="M42.3745 10.3643C42.3949 12.6745 43.8321 13.7618 46.084 12.4442C47.3594 11.588 48.4183 10.4471 49.1772 9.11147C49.936 7.77588 50.3741 6.28219 50.4567 4.74829C50.4319 2.18736 48.7776 1.48336 46.7501 2.67565C45.4792 3.53504 44.4234 4.67566 43.6646 6.00904C42.9058 7.34242 42.4643 8.83271 42.3745 10.3643Z" fill="#172224" fill-opacity="0.7"/>
<path d="M5.92096 55.314C6.92358 53.7575 8.37525 52.5422 10.0838 51.8289L9.02121 51.1585C8.5866 50.9945 8.11769 50.9424 7.65769 51.0071C7.19768 51.0718 6.76137 51.2512 6.38886 51.5287C5.1149 52.3847 4.05693 53.5246 3.29817 54.8587C2.53942 56.1928 2.10058 57.6848 2.01618 59.2173C1.96525 59.6793 2.03502 60.1465 2.2187 60.5734C2.40239 61.0003 2.69371 61.3723 3.06416 61.6529L3.92847 62.198C3.88974 61.9198 3.8693 61.6394 3.86727 61.3585C3.93429 59.184 4.64943 57.0792 5.92096 55.314Z" fill="#172224" fill-opacity="0.7"/>
<path d="M57.5055 40.8258C57.8484 40.624 58.2101 40.4561 58.5855 40.3244L57.5361 39.6394C57.2736 39.5012 56.9798 39.4334 56.6834 39.4426C56.0486 39.4709 55.4336 39.6726 54.9052 40.0256C53.9127 40.6389 53.0604 41.4544 52.404 42.4189L42.7666 37.2533L42.7331 26.3668L38.4683 28.8286V32.4536C38.4682 32.5862 38.4335 32.7165 38.3675 32.8316C38.3016 32.9466 38.2066 33.0424 38.0922 33.1095L33.5345 35.7754C33.419 35.8432 33.2877 35.8793 33.1538 35.8801C33.0199 35.8808 32.8882 35.8461 32.772 35.7795C32.6558 35.7129 32.5593 35.6168 32.4923 35.5009C32.4252 35.3849 32.3901 35.2534 32.3903 35.1195V32.3384L28.0788 34.8279L28.1269 50.2038L42.7812 41.7499L42.7724 39.1642L51.5965 43.7307L51.5892 43.7438C50.9235 44.9632 50.5587 46.3239 50.5252 47.7128C50.4722 48.177 50.5412 48.6469 50.7252 49.0763C50.9092 49.5057 51.202 49.8797 51.5746 50.1615L52.4259 50.6935C52.3953 50.4355 52.3807 50.1469 52.3647 49.8568C52.4394 48.0507 52.9449 46.2886 53.8392 44.7175C54.7335 43.1465 55.9905 41.8122 57.5055 40.8258Z" fill="#172224" fill-opacity="0.7"/>
<path d="M58.2605 42.1492C56.9938 43.0114 55.9413 44.152 55.1833 45.4836C54.4254 46.8153 53.9822 48.3027 53.8878 49.832C53.9097 52.1189 55.3089 53.2544 57.5988 51.912C58.8741 51.0558 59.933 49.9148 60.6919 48.5792C61.4508 47.2437 61.8888 45.75 61.9714 44.2161C61.9452 41.7003 60.3477 40.9089 58.2605 42.1492Z" fill="#172224" fill-opacity="0.7"/>
<path d="M19.004 23.6761L14.6867 26.1686L27.3121 33.5059L31.6279 31.0135L19.004 23.6761Z" fill="#172224" fill-opacity="0.7"/>
<path d="M14.0148 27.5371L14.0338 27.5473L13.9653 27.508L13.9813 27.5167L13.9492 27.4992L13.9288 27.4875L13.9769 42.8561L19.8173 46.2492L12.1914 53.2222C10.8796 52.7048 9.10137 53.9277 8.05776 55.0646C6.45451 56.7786 5.50693 59.003 5.38168 61.3467C5.40646 63.7341 6.88151 64.7209 9.09408 63.4281C10.3697 62.5717 11.4287 61.4305 12.1876 60.0947C12.9464 58.7588 13.3844 57.2648 13.4668 55.7307C13.4694 55.2576 13.388 54.7877 13.2263 54.3431L21.1991 47.0553L26.5994 50.1934L26.5513 34.8264L14.0148 27.5371Z" fill="#172224" fill-opacity="0.7"/>
</svg>
