<svg width="64" height="64" viewBox="0 0 64 64" fill="none" xmlns="http://www.w3.org/2000/svg">
<path d="M20.8576 26.1303L15.5666 21.9813C14.7269 22.8797 14.1724 24.1758 14.0158 25.6062L19.3058 29.7499C19.5536 28.3668 20.0925 27.1098 20.8576 26.1303Z" fill="#172224" fill-opacity="0.7"/>
<path d="M21.7955 25.2499L49.1092 3.96336L49.208 3.89401L44.35 0.0810621C44.1921 0.00318877 44.0221 -0.0190615 43.8561 0.01641C43.69 0.0518816 43.5334 0.143914 43.4011 0.283789L16.5837 21.1596L21.7955 25.2499Z" fill="#172224" fill-opacity="0.7"/>
<path d="M19.2079 31.294L14 27.2157L14.0188 42.0967C14.0237 42.122 14.0356 42.126 14.0356 42.1687L14.0553 57.8138C14.0343 58.0355 14.0549 58.2607 14.1152 58.4687C14.1754 58.6768 14.2734 58.8612 14.4003 59.0048L19.2672 62.8244C19.2672 62.7897 19.2672 62.7537 19.2672 62.7177L19.2079 31.294Z" fill="#172224" fill-opacity="0.7"/>
<path d="M50.9377 6.17048C50.9377 4.90351 50.4089 4.57009 49.632 5.17291L22.0555 26.6582C21.5326 27.126 21.0973 27.7509 20.7836 28.484C20.47 29.2171 20.2865 30.0383 20.2477 30.8832L20.307 62.711C20.307 63.8886 20.7883 64.3527 21.6127 63.7086L49.1892 42.2246C49.7132 41.7575 50.1495 41.1323 50.4638 40.3986C50.778 39.665 50.9616 38.8428 51 37.9969L50.9377 6.17048ZM48.7712 38.6771C28.4021 54.5476 35.1094 49.3264 23.0459 58.7193C22.9671 58.7802 22.878 58.8121 22.7872 58.812C22.6965 58.8118 22.6074 58.7796 22.5288 58.7185C22.4502 58.6573 22.3848 58.5694 22.3392 58.4636C22.2937 58.3577 22.2694 58.2376 22.269 58.1152L22.2107 30.8112C22.2108 30.6881 22.2347 30.5673 22.2802 30.4606C22.3256 30.3539 22.3909 30.2651 22.4696 30.203L48.1959 10.1715C48.2745 10.1102 48.3636 10.0779 48.4544 10.0778C48.5451 10.0777 48.6344 10.1098 48.7131 10.1709C48.7917 10.2319 48.8571 10.3198 48.9027 10.4257C48.9483 10.5316 48.9725 10.6518 48.9728 10.7743L49.0301 38.0796C49.0298 38.2019 49.0057 38.3219 48.9603 38.4277C48.9148 38.5335 48.8496 38.6213 48.7712 38.6824V38.6771Z" fill="#172224" fill-opacity="0.7"/>
<path d="M23.2476 31.2166L23.3019 56.9109L24.6629 55.8506L29.2669 40.5802C29.3008 40.4659 29.3564 40.3658 29.4282 40.2899C29.5001 40.214 29.5855 40.1652 29.6758 40.1482C29.7662 40.1313 29.8582 40.1469 29.9427 40.1935C30.0271 40.2401 30.1009 40.316 30.1565 40.4135L33.181 45.6441L38.8001 27.0062C38.8346 26.8928 38.8905 26.7935 38.9623 26.7184C39.0341 26.6433 39.1193 26.5949 39.2093 26.5781C39.2996 26.5605 39.3917 26.576 39.476 26.6229C39.5604 26.6699 39.6338 26.7465 39.6887 26.8449L46.5749 38.7851L47.9953 37.6782L47.9409 11.9852L23.2476 31.2166ZM31.8635 36.8033C31.6174 37.0658 31.3189 37.2232 31.0061 37.2553C30.6933 37.2873 30.3806 37.1926 30.108 36.9833C29.8354 36.7739 29.6153 36.4595 29.476 36.0802C29.3367 35.701 29.2846 35.2743 29.3262 34.8548C29.3574 33.9107 29.5561 32.9905 29.9056 32.1715C30.2551 31.3525 30.7451 30.6587 31.3346 30.1483C31.5826 29.8895 31.8821 29.7359 32.1949 29.7072C32.5077 29.6784 32.8198 29.7758 33.0915 29.9869C33.3632 30.198 33.5823 30.5133 33.7209 30.8928C33.8595 31.2723 33.9114 31.6988 33.8699 32.1181C33.8379 33.0588 33.6389 33.9753 33.2897 34.7906C32.9406 35.6058 32.4515 36.2961 31.8635 36.8033Z" fill="#172224" fill-opacity="0.7"/>
</svg>
