<svg width="64" height="64" viewBox="0 0 64 64" fill="none" xmlns="http://www.w3.org/2000/svg">
<path d="M36.0187 28.9586V29.688C35.9986 30.0699 35.8765 30.4394 35.6651 30.758C35.4536 31.0766 35.1605 31.3327 34.8164 31.4995C34.0602 31.8992 33.2178 32.1082 32.3624 32.1082C31.507 32.1082 30.6646 31.8992 29.9084 31.4995C29.5549 31.3336 29.254 31.0733 29.0391 30.7473C28.8241 30.4212 28.7033 30.0423 28.6901 29.652V28.9841C28.4129 29.1278 28.1747 29.3366 27.9958 29.5925C27.8169 29.8484 27.7026 30.1438 27.6628 30.4535V30.4682C27.7224 30.8212 27.8675 31.1543 28.0854 31.4384C28.3034 31.7225 28.5876 31.949 28.9132 32.098C29.9918 32.6364 31.1809 32.9167 32.3865 32.9167C33.592 32.9167 34.7811 32.6364 35.8597 32.098C36.1786 31.9496 36.4569 31.7264 36.6709 31.4472C36.8849 31.1681 37.0283 30.8414 37.0887 30.4949V30.4842C37.0494 30.1616 36.9312 29.8537 36.7446 29.5876C36.5579 29.3215 36.3086 29.1055 36.0187 28.9586Z" fill="#172224" fill-opacity="0.7"/>
<path d="M30.0769 29.6726C30.0769 29.873 30.2773 30.1081 30.6032 30.2938C31.1473 30.5655 31.7471 30.707 32.3552 30.707C32.9634 30.707 33.5632 30.5655 34.1072 30.2938C34.4332 30.1027 34.6269 29.8757 34.6269 29.6833V25.7651C33.9188 26.1125 33.1406 26.2931 32.3519 26.2931C31.5632 26.2931 30.785 26.1125 30.0769 25.7651V29.6726Z" fill="#172224" fill-opacity="0.7"/>
<path d="M34.1072 19.8748C34.4319 19.6864 34.6256 19.4566 34.6269 19.2616V14.5406C33.1403 14.9658 31.5647 14.9681 30.0769 14.5473V19.2669C30.0863 19.4619 30.2773 19.6877 30.6019 19.8761C31.1464 20.1473 31.7464 20.2884 32.3547 20.2882C32.963 20.288 33.563 20.1464 34.1072 19.8748Z" fill="#172224" fill-opacity="0.7"/>
<path d="M38.9963 33.0592C38.8333 32.9657 38.6569 32.8762 38.4753 32.792V36.7341C38.4355 37.331 38.2361 37.9063 37.8979 38.3998C37.5598 38.8933 37.0952 39.2869 36.5529 39.5395C35.2647 40.2067 33.8351 40.5549 32.3844 40.5549C30.9336 40.5549 29.504 40.2067 28.2158 39.5395C27.6656 39.2852 27.1943 38.8871 26.8515 38.3873C26.5087 37.8874 26.3071 37.3043 26.2681 36.6995V32.7706C26.0864 32.8588 25.9021 32.9496 25.7337 33.0525C25.0523 33.3511 24.461 33.8231 24.0189 34.4216C23.5768 35.02 23.2994 35.7239 23.2143 36.463C23.2977 37.2172 23.5794 37.9358 24.0306 38.5458C24.4818 39.1559 25.0865 39.6356 25.7832 39.9363C27.8355 40.9666 30.1004 41.5024 32.3968 41.5007C34.6932 41.4991 36.9574 40.9601 39.0083 39.9269C39.6895 39.6205 40.2804 39.1439 40.7238 38.5427C41.1672 37.9416 41.4482 37.2364 41.5397 36.4951C41.4554 35.7493 41.1759 35.0388 40.7293 34.4356C40.2828 33.8323 39.6849 33.3576 38.9963 33.0592Z" fill="#172224" fill-opacity="0.7"/>
<path d="M28.9078 38.3335C29.9863 38.8722 31.1754 39.1526 32.381 39.1526C33.5866 39.1526 34.7757 38.8722 35.8543 38.3335C36.1801 38.1949 36.4646 37.9745 36.6802 37.6937C36.8957 37.4128 37.035 37.081 37.0846 36.7304V32.9473L37.0285 32.9833C36.8806 33.0958 36.7268 33.2001 36.5676 33.2959C35.2755 33.9565 33.8449 34.301 32.3937 34.301C30.9425 34.301 29.512 33.9565 28.2198 33.2959C28.0595 33.2011 27.9406 33.1249 27.8057 33.0287C27.7749 33.006 27.7576 32.9847 27.7282 32.9606C27.6988 32.9366 27.6854 32.9352 27.6667 32.9205V36.6957C27.7155 37.0523 27.8552 37.3903 28.0726 37.6772C28.29 37.9641 28.5776 38.1901 28.9078 38.3335Z" fill="#172224" fill-opacity="0.7"/>
<path d="M31.0213 13.3381C32.3827 13.6153 33.7965 13.4648 35.069 12.9071C36.3415 12.3495 37.4105 11.4121 38.1295 10.2233C38.8486 9.03457 39.1825 7.65262 39.0855 6.26669C38.9886 4.88076 38.4655 3.55868 37.588 2.48159C36.7104 1.4045 35.5213 0.62507 34.1836 0.250058C32.8459 -0.124954 31.4249 -0.0771896 30.1153 0.386792C28.8058 0.850774 27.6717 1.70823 26.8684 2.84181C26.0652 3.97539 25.6321 5.32957 25.6284 6.71888C25.6245 8.27529 26.1596 9.7851 27.1427 10.9917C28.1257 12.1984 29.4962 13.0274 31.0213 13.3381Z" fill="#172224" fill-opacity="0.7"/>
<path d="M25.0821 41.1449C24.4162 40.7567 23.8036 40.2834 23.26 39.7369C23.2426 39.7182 23.2199 39.7035 23.2025 39.6848V39.8078C23.2861 40.5621 23.5679 41.2808 24.0194 41.8909C24.4708 42.501 25.0758 42.9806 25.7727 43.281C27.8215 44.3222 30.0872 44.8648 32.3853 44.8648C34.6834 44.8648 36.9491 44.3222 38.9979 43.281C39.6818 42.9821 40.2752 42.5087 40.7185 41.9083C41.1619 41.3078 41.4396 40.6015 41.524 39.8599V39.7423C40.9735 40.2766 40.3645 40.7471 39.7085 41.1449C37.4424 42.2955 34.9368 42.8951 32.3953 42.8951C29.8538 42.8951 27.3482 42.2955 25.0821 41.1449Z" fill="#172224" fill-opacity="0.7"/>
<path d="M30.0769 23.8895C30.0863 24.0845 30.2773 24.3103 30.6019 24.4973C31.1462 24.7691 31.7462 24.9105 32.3546 24.9105C32.9629 24.9105 33.563 24.7691 34.1072 24.4973C34.4319 24.3076 34.6256 24.0778 34.6269 23.8828V21.147C33.919 21.495 33.1407 21.6759 32.3519 21.6759C31.5631 21.6759 30.7848 21.495 30.0769 21.147V23.8895Z" fill="#172224" fill-opacity="0.7"/>
<path d="M13.4625 35.4919C14.1131 35.8164 14.8301 35.9854 15.5571 35.9854C16.2842 35.9854 17.0012 35.8164 17.6518 35.4919C18.5241 34.9856 18.5375 34.3765 17.6451 33.8635C16.9971 33.5228 16.2731 33.3523 15.5411 33.368C14.8117 33.3512 14.0902 33.5213 13.4451 33.8622C12.5367 34.3886 12.6129 35.003 13.4625 35.4919Z" fill="#172224" fill-opacity="0.7"/>
<path d="M14.8255 37.3356H14.8095C14.1014 37.2542 13.4147 37.0418 12.7843 36.7091V37.4933C12.7843 37.7698 13.0288 38.0704 13.4589 38.3189C14.1097 38.6434 14.827 38.8123 15.5542 38.8123C16.2815 38.8123 16.9988 38.6434 17.6496 38.3189C18.069 38.0744 18.3095 37.7778 18.3108 37.5066V36.7198C18.1946 36.7852 18.065 36.836 17.9408 36.8922C16.9608 37.3161 15.8849 37.4692 14.8255 37.3356Z" fill="#172224" fill-opacity="0.7"/>
<path d="M59.3996 38.5022L36.0218 26.5928V27.3944C36.1942 27.4759 36.3732 27.5493 36.5375 27.6401C37.0869 27.8944 37.5577 28.2919 37.9005 28.7909C38.2432 29.29 38.4452 29.8721 38.4852 30.4762V30.5016V31.2577C38.8999 31.4324 39.3048 31.6295 39.6982 31.8482C40.604 32.2614 41.3825 32.9098 41.9527 33.726C42.5229 34.5422 42.8639 35.4963 42.9403 36.489V36.5103C42.9403 36.318 42.9296 39.6122 42.9296 39.85C42.8526 40.8368 42.5137 41.7852 41.9477 42.5973C41.3818 43.4093 40.6093 44.0557 39.7102 44.4695C37.4451 45.6227 34.9397 46.2245 32.3979 46.2259C29.8562 46.2273 27.3501 45.6282 25.0837 44.4774C24.1701 44.0627 23.3849 43.4098 22.8105 42.5871C22.2361 41.7645 21.8936 40.8025 21.8189 39.8019L21.8296 36.4997V36.4769C21.9023 35.4901 22.238 34.5409 22.8018 33.7278C23.3656 32.9147 24.137 32.2675 25.0356 31.8535C25.4366 31.6212 25.853 31.4168 26.282 31.2416V30.5737C26.282 30.5363 26.282 30.5029 26.282 30.4642C26.3219 29.8671 26.5204 29.2916 26.8572 28.797C27.194 28.3024 27.6567 27.9067 28.1977 27.6508C28.3566 27.56 28.533 27.4905 28.7039 27.4104V23.1263C28.2183 23.0849 27.7307 23.1797 27.2959 23.4001L5.34092 36.1577C5.14187 36.2766 5.04703 36.4062 5.04435 36.4743C5.05118 36.5176 5.06965 36.5582 5.09779 36.5918C5.13881 36.6356 5.1835 36.6759 5.23137 36.7121C5.25422 36.7347 5.27831 36.7561 5.30351 36.7761L31.4545 53.8753C31.8416 54.0843 32.2729 54.1979 32.7128 54.2068C33.1526 54.2156 33.5881 54.1193 33.9833 53.9261C36.4159 52.4566 24.7792 59.2696 59.4343 39.1287C59.6587 39.0031 59.7362 38.8788 59.7362 38.8241V38.8134C59.7095 38.7586 59.6253 38.6304 59.3996 38.5022ZM19.7069 34.6842V37.5069C19.6797 37.932 19.5401 38.3424 19.3024 38.6959C19.0646 39.0494 18.7372 39.3333 18.3536 39.5187C17.4905 39.9654 16.5328 40.1986 15.561 40.1986C14.5891 40.1986 13.6315 39.9654 12.7684 39.5187C12.3793 39.3322 12.047 39.0452 11.8061 38.6872C11.5651 38.3293 11.4241 37.9136 11.3978 37.4829C11.3978 37.6165 11.3978 34.7991 11.3978 34.6588C11.397 34.6504 11.397 34.6418 11.3978 34.6334C11.4295 34.2148 11.5702 33.8118 11.806 33.4645C12.0417 33.1172 12.3643 32.8376 12.7416 32.6536C13.6064 32.206 14.5659 31.9724 15.5396 31.9724C16.5133 31.9724 17.4729 32.206 18.3376 32.6536C18.7242 32.8387 19.0546 33.1231 19.2952 33.4777C19.5358 33.8324 19.6779 34.2446 19.7069 34.6722V34.6789V34.6842Z" fill="#172224" fill-opacity="0.7"/>
<path d="M5 46.287C5 46.3351 5.04141 46.4433 5.23244 46.5648L30.463 63.0843V54.9167L5.02137 38.2784L5 46.287Z" fill="#172224" fill-opacity="0.7"/>
<path d="M35.001 63.0986L59.3726 48.9383C59.6184 48.7887 59.6745 48.6578 59.6745 48.6338L59.7066 40.5731L35.001 54.9404V63.0986Z" fill="#172224" fill-opacity="0.7"/>
<path d="M31.855 55.4973V63.8812C32.4298 64.0511 33.0431 64.0385 33.6104 63.8451V55.5026C33.0318 55.628 32.4329 55.6262 31.855 55.4973Z" fill="#172224" fill-opacity="0.7"/>
</svg>
