<svg width="53" height="54" viewBox="0 0 53 54" fill="none" xmlns="http://www.w3.org/2000/svg">
<path d="M28.1328 28.5094L30.7159 27.0103V25.061L28.1328 26.5368V28.5094Z" fill="#B1FE33"/>
<path d="M30.0698 23.9468L19.3344 17.7559L16.75 19.2317L27.4855 25.4225L30.0698 23.9468Z" fill="#B1FE33"/>
<path d="M34.986 21.1303L31.4571 19.0962L33.7577 9.2577L34.0886 9.46553C34.0568 9.2311 34.0398 8.99492 34.0378 8.75839C34.1001 7.23724 34.5283 5.75294 35.2866 4.42949C36.045 3.10603 37.1115 1.98181 38.3972 1.15074C38.6975 0.986665 39.008 0.841669 39.3268 0.716619L38.4232 0.150914C38.0537 0.0123535 37.655 -0.0317759 37.2638 0.0225959C36.8726 0.0769676 36.5015 0.228082 36.1846 0.462046C35.1014 1.1844 34.2018 2.14623 33.5565 3.27188C32.9113 4.39753 32.538 5.65634 32.4661 6.94934C32.4626 7.36716 32.5369 7.78201 32.6855 8.173L30.2932 18.4235L24.2493 14.9419L20.625 17.0178L31.3617 23.2087L34.986 21.1303Z" fill="#B1FE33"/>
<path d="M35.3359 8.74492C35.3533 10.6942 36.5754 11.6116 38.4905 10.4999C39.5751 9.77745 40.4756 8.81479 41.1209 7.68788C41.7663 6.56097 42.1388 5.30067 42.209 4.00644C42.188 1.84566 40.7811 1.25166 39.0569 2.25765C37.9762 2.98277 37.0783 3.94516 36.433 5.0702C35.7877 6.19524 35.4123 7.45267 35.3359 8.74492Z" fill="#B1FE33"/>
<path d="M4.3344 46.6714C5.18703 45.3581 6.42154 44.3327 7.87448 43.7309L6.97087 43.1652C6.60128 43.0268 6.20251 42.9828 5.81132 43.0374C5.42013 43.092 5.04909 43.2434 4.73231 43.4775C3.64893 44.1997 2.74922 45.1615 2.10397 46.2872C1.45872 47.4129 1.08554 48.6718 1.01376 49.9648C0.970453 50.3546 1.02978 50.7488 1.18599 51.109C1.3422 51.4692 1.58994 51.783 1.90496 52.0198L2.63998 52.4798C2.60704 52.245 2.58966 52.0084 2.58793 51.7714C2.64493 49.9367 3.25309 48.1607 4.3344 46.6714Z" fill="#B1FE33"/>
<path d="M48.2004 34.4468C48.492 34.2766 48.7996 34.1349 49.1188 34.0238L48.2264 33.4458C48.0032 33.3292 47.7534 33.272 47.5013 33.2797C46.9614 33.3037 46.4384 33.4738 45.9891 33.7717C45.145 34.2891 44.4203 34.9772 43.862 35.791L35.6664 31.4326L35.6379 22.2471L32.0111 24.3242V27.3828C32.011 27.4947 31.9815 27.6046 31.9254 27.7017C31.8693 27.7988 31.7885 27.8796 31.6912 27.9362L27.8153 30.1855C27.7171 30.2428 27.6055 30.2733 27.4916 30.2739C27.3777 30.2745 27.2657 30.2452 27.1669 30.189C27.0681 30.1328 26.986 30.0517 26.929 29.9539C26.872 29.8561 26.8421 29.7451 26.8423 29.6321V27.2856L23.1758 29.3861L23.2167 42.3595L35.6788 35.2265L35.6713 33.0449L43.1754 36.8979L43.1692 36.9089C42.603 37.9377 42.2928 39.0859 42.2643 40.2577C42.2193 40.6494 42.2779 41.0459 42.4344 41.4082C42.5909 41.7705 42.8399 42.0861 43.1568 42.3238L43.8807 42.7727C43.8546 42.555 43.8422 42.3115 43.8286 42.0668C43.8921 40.5428 44.3221 39.056 45.0826 37.7305C45.8431 36.4049 46.9121 35.2791 48.2004 34.4468Z" fill="#B1FE33"/>
<path d="M48.8435 35.5635C47.7664 36.2909 46.8713 37.2533 46.2267 38.3769C45.5822 39.5005 45.2053 40.7555 45.125 42.0458C45.1436 43.9754 46.3336 44.9335 48.2808 43.8008C49.3654 43.0784 50.2659 42.1157 50.9112 40.9888C51.5566 39.8619 51.9291 38.6016 51.9994 37.3074C51.9771 35.1847 50.6185 34.5169 48.8435 35.5635Z" fill="#B1FE33"/>
<path d="M15.4605 19.9766L11.7891 22.0796L22.5257 28.2704L26.1959 26.1675L15.4605 19.9766Z" fill="#B1FE33"/>
<path d="M11.2167 23.2347L11.2328 23.2433L11.1745 23.2101L11.1881 23.2175L11.1609 23.2027L11.1435 23.1929L11.1844 36.1601L16.1512 39.0231L9.66601 44.9065C8.55045 44.4699 7.03824 45.5017 6.15075 46.461C4.78733 47.9072 3.98151 49.784 3.875 51.7615C3.89607 53.7759 5.15046 54.6085 7.03204 53.5177C8.1168 52.7951 9.01741 51.8323 9.66276 50.7051C10.3081 49.578 10.6805 48.3175 10.7506 47.023C10.7529 46.6238 10.6836 46.2274 10.5461 45.8522L17.3262 39.7032L21.9186 42.3509L21.8777 29.385L11.2167 23.2347Z" fill="#B1FE33"/>
</svg>
