<svg width="254" height="70" viewBox="0 0 254 70" fill="none" xmlns="http://www.w3.org/2000/svg">
<g clip-path="url(#clip0_355_1738)">
<mask id="path-1-outside-1_355_1738" maskUnits="userSpaceOnUse" x="0" y="1" width="254" height="68" fill="black">
<rect fill="white" y="1" width="254" height="68"/>
<path d="M33.1059 66.44C27.6126 66.44 22.7326 65.6133 18.4659 63.96C14.2526 62.2533 10.8659 59.9867 8.30594 57.16C5.74594 54.28 4.19927 51.1067 3.66594 47.64H22.3059C22.9993 48.92 24.1726 49.9867 25.8259 50.84C27.5326 51.64 29.7726 52.04 32.5459 52.04C35.9593 52.04 38.7859 51.4267 41.0259 50.2C43.2659 48.9733 44.9459 47.16 46.0659 44.76C47.2393 42.36 47.8259 39.4 47.8259 35.88C47.8259 31.8267 47.2126 28.4933 45.9859 25.88C44.7593 23.2667 42.9993 21.32 40.7059 20.04C38.4126 18.76 35.6659 18.12 32.4659 18.12C30.4393 18.12 28.7326 18.3867 27.3459 18.92C25.9593 19.4533 24.8926 20.1733 24.1459 21.08C23.4526 21.9333 23.1059 22.92 23.1059 24.04C23.1059 25.32 23.4526 26.3867 24.1459 27.24C24.8926 28.0933 25.9593 28.76 27.3459 29.24C28.7326 29.6667 30.3859 29.88 32.3059 29.88C34.9726 29.88 37.5593 29.4 40.0659 28.44C42.6259 27.4267 45.1326 25.6933 47.5859 23.24L53.9859 27.4C52.4393 30.7067 50.4126 33.64 47.9059 36.2C45.3993 38.76 42.4126 40.76 38.9459 42.2C35.4793 43.64 31.4526 44.36 26.8659 44.36C21.7459 44.36 17.3726 43.5333 13.7459 41.88C10.1193 40.1733 7.34594 37.8533 5.42594 34.92C3.50594 31.9333 2.51927 28.5467 2.46594 24.76C2.51927 20.7067 3.6926 17.08 5.98594 13.88C8.27927 10.68 11.6659 8.17333 16.1459 6.36C20.6793 4.49333 26.2526 3.56 32.8659 3.56C40.5459 3.56 46.8926 4.92 51.9059 7.64C56.9193 10.3067 60.6526 14.0133 63.1059 18.76C65.6126 23.4533 66.8393 28.84 66.7859 34.92C66.8393 41 65.6126 46.4133 63.1059 51.16C60.5993 55.9067 56.8393 59.64 51.8259 62.36C46.8659 65.08 40.6259 66.44 33.1059 66.44ZM107.66 66.44C100.674 66.44 94.5403 65.1333 89.2603 62.52C84.0336 59.9067 79.9536 56.2533 77.0203 51.56C74.1403 46.8133 72.7003 41.2933 72.7003 35C72.7003 28.7067 74.1403 23.2133 77.0203 18.52C79.9536 13.7733 84.0336 10.0933 89.2603 7.48C94.5403 4.86667 100.674 3.56 107.66 3.56C114.647 3.56 120.754 4.86667 125.98 7.48C131.26 10.0933 135.34 13.7733 138.22 18.52C141.154 23.2133 142.62 28.7067 142.62 35C142.62 41.2933 141.154 46.8133 138.22 51.56C135.34 56.2533 131.26 59.9067 125.98 62.52C120.754 65.1333 114.647 66.44 107.66 66.44ZM107.74 49.8C112.274 49.8 115.794 48.52 118.3 45.96C120.86 43.3467 122.14 39.6933 122.14 35C122.14 30.2533 120.86 26.6 118.3 24.04C115.794 21.48 112.247 20.2 107.66 20.2C103.127 20.2 99.5803 21.48 97.0203 24.04C94.4603 26.6 93.1803 30.2267 93.1803 34.92C93.1803 39.6667 94.4603 43.3467 97.0203 45.96C99.5803 48.52 103.154 49.8 107.74 49.8ZM169.523 40.6C165.097 40.6 161.203 39.8533 157.843 38.36C154.483 36.8133 151.87 34.68 150.003 31.96C148.137 29.1867 147.203 25.96 147.203 22.28C147.203 18.6533 148.137 15.48 150.003 12.76C151.87 10.04 154.483 7.93333 157.843 6.44C161.203 4.89333 165.097 4.12 169.523 4.12C174.003 4.12 177.897 4.89333 181.203 6.44C184.563 7.93333 187.177 10.04 189.043 12.76C190.91 15.48 191.843 18.6533 191.843 22.28C191.843 25.96 190.91 29.1867 189.043 31.96C187.177 34.68 184.563 36.8133 181.203 38.36C177.897 39.8533 174.003 40.6 169.523 40.6ZM169.523 29.24C171.657 29.24 173.31 28.6533 174.483 27.48C175.657 26.2533 176.243 24.5467 176.243 22.36C176.243 20.1733 175.657 18.4667 174.483 17.24C173.363 16.0133 171.737 15.4 169.603 15.4C167.417 15.4 165.737 16.0133 164.563 17.24C163.443 18.4667 162.883 20.1733 162.883 22.36C162.883 24.5467 163.443 26.2533 164.563 27.48C165.737 28.6533 167.39 29.24 169.523 29.24ZM229.283 66.6C224.857 66.6 220.963 65.8533 217.603 64.36C214.243 62.8133 211.63 60.68 209.763 57.96C207.897 55.1867 206.963 51.96 206.963 48.28C206.963 44.6533 207.897 41.48 209.763 38.76C211.63 36.04 214.243 33.9333 217.603 32.44C220.963 30.8933 224.857 30.12 229.283 30.12C233.763 30.12 237.657 30.8933 240.963 32.44C244.323 33.9333 246.937 36.04 248.803 38.76C250.67 41.48 251.603 44.6533 251.603 48.28C251.603 51.96 250.67 55.1867 248.803 57.96C246.937 60.68 244.323 62.8133 240.963 64.36C237.657 65.8533 233.763 66.6 229.283 66.6ZM229.283 55.24C231.417 55.24 233.07 54.6533 234.243 53.48C235.417 52.2533 236.003 50.5467 236.003 48.36C236.003 46.1733 235.417 44.4667 234.243 43.24C233.123 42.0133 231.497 41.4 229.363 41.4C227.177 41.4 225.497 42.0133 224.323 43.24C223.203 44.4667 222.643 46.1733 222.643 48.36C222.643 50.5467 223.203 52.2533 224.323 53.48C225.497 54.6533 227.15 55.24 229.283 55.24ZM208.563 5H223.043L190.243 65H175.763L208.563 5Z"/>
</mask>
<path d="M18.4659 63.96L17.7151 65.8137L17.7291 65.8194L17.7433 65.8249L18.4659 63.96ZM8.30594 57.16L6.81112 58.4887L6.81729 58.4957L6.82353 58.5026L8.30594 57.16ZM3.66594 47.64V45.64H1.33472L1.68919 47.9441L3.66594 47.64ZM22.3059 47.64L24.0645 46.6874L23.4972 45.64H22.3059V47.64ZM25.8259 50.84L24.9087 52.6172L24.9425 52.6347L24.9771 52.6509L25.8259 50.84ZM46.0659 44.76L44.2692 43.8816L44.2612 43.8978L44.2536 43.9142L46.0659 44.76ZM45.9859 25.88L44.1755 26.7298L44.1755 26.7298L45.9859 25.88ZM40.7059 20.04L39.7312 21.7864L39.7312 21.7864L40.7059 20.04ZM27.3459 18.92L26.628 17.0533L26.628 17.0533L27.3459 18.92ZM24.1459 21.08L22.602 19.8086L22.5937 19.8188L24.1459 21.08ZM24.1459 27.24L22.5937 28.5012L22.6167 28.5295L22.6408 28.557L24.1459 27.24ZM27.3459 29.24L26.6917 31.13L26.7246 31.1413L26.7578 31.1516L27.3459 29.24ZM40.0659 28.44L40.7812 30.3077L40.7917 30.3037L40.802 30.2996L40.0659 28.44ZM47.5859 23.24L48.6759 21.5631L47.3174 20.6801L46.1717 21.8258L47.5859 23.24ZM53.9859 27.4L55.7976 28.2474L56.5347 26.6713L55.0759 25.7231L53.9859 27.4ZM38.9459 42.2L38.1787 40.353L38.1787 40.353L38.9459 42.2ZM13.7459 41.88L12.8943 43.6896L12.9053 43.6948L12.9163 43.6998L13.7459 41.88ZM5.42594 34.92L3.74358 36.0015L3.74803 36.0084L3.75253 36.0153L5.42594 34.92ZM2.46594 24.76L0.466111 24.7337L0.465752 24.7609L0.466136 24.7882L2.46594 24.76ZM5.98594 13.88L7.61157 15.045L7.61157 15.045L5.98594 13.88ZM16.1459 6.36L16.8963 8.21392L16.9074 8.20935L16.1459 6.36ZM51.9059 7.64L50.9522 9.39793L50.9594 9.40187L50.9667 9.40574L51.9059 7.64ZM63.1059 18.76L61.3292 19.6783L61.3354 19.6903L61.3418 19.7022L63.1059 18.76ZM66.7859 34.92L64.786 34.9025L64.7859 34.92L64.786 34.9375L66.7859 34.92ZM63.1059 51.16L64.8745 52.0939L64.8745 52.0939L63.1059 51.16ZM51.8259 62.36L50.8722 60.6021L50.8643 60.6064L51.8259 62.36ZM33.1059 64.44C27.8114 64.44 23.1837 63.6432 19.1886 62.0951L17.7433 65.8249C22.2816 67.5835 27.4138 68.44 33.1059 68.44V64.44ZM19.2168 62.1063C15.2297 60.4913 12.1109 58.3819 9.78835 55.8174L6.82353 58.5026C9.62096 61.5914 13.2756 64.0154 17.7151 65.8137L19.2168 62.1063ZM9.80076 55.8313C7.47053 53.2098 6.1117 50.3845 5.64268 47.3359L1.68919 47.9441C2.28684 51.8288 4.02135 55.3502 6.81112 58.4887L9.80076 55.8313ZM3.66594 49.64H22.3059V45.64H3.66594V49.64ZM20.5474 48.5926C21.4789 50.3123 22.9974 51.6308 24.9087 52.6172L26.7432 49.0628C25.3478 48.3426 24.5197 47.5277 24.0645 46.6874L20.5474 48.5926ZM24.9771 52.6509C27.0444 53.62 29.6062 54.04 32.5459 54.04V50.04C29.939 50.04 28.0208 49.66 26.6748 49.0291L24.9771 52.6509ZM32.5459 54.04C36.1864 54.04 39.3696 53.3873 41.9866 51.9542L40.0653 48.4458C38.2023 49.466 35.7322 50.04 32.5459 50.04V54.04ZM41.9866 51.9542C44.6144 50.5151 46.5854 48.3762 47.8783 45.6058L44.2536 43.9142C43.3064 45.9438 41.9174 47.4315 40.0653 48.4458L41.9866 51.9542ZM47.8627 45.6384C49.2053 42.8923 49.8259 39.6118 49.8259 35.88H45.8259C45.8259 39.1882 45.2733 41.8277 44.2692 43.8816L47.8627 45.6384ZM49.8259 35.88C49.8259 31.6438 49.1877 27.9943 47.7964 25.0302L44.1755 26.7298C45.2375 28.9924 45.8259 32.0095 45.8259 35.88H49.8259ZM47.7964 25.0302C46.4104 22.0774 44.3759 19.7979 41.6807 18.2936L39.7312 21.7864C41.6227 22.8421 43.1081 24.456 44.1755 26.7298L47.7964 25.0302ZM41.6807 18.2936C39.0308 16.8146 35.9331 16.12 32.4659 16.12V20.12C35.3987 20.12 37.7944 20.7054 39.7312 21.7864L41.6807 18.2936ZM32.4659 16.12C30.2773 16.12 28.3106 16.4062 26.628 17.0533L28.0639 20.7867C29.1547 20.3672 30.6012 20.12 32.4659 20.12V16.12ZM26.628 17.0533C25.0031 17.6783 23.6189 18.5739 22.6021 19.8086L25.6898 22.3514C26.1663 21.7728 26.9155 21.2284 28.0639 20.7867L26.628 17.0533ZM22.5937 19.8188C21.6049 21.0358 21.1059 22.47 21.1059 24.04H25.1059C25.1059 23.37 25.3003 22.8308 25.6982 22.3412L22.5937 19.8188ZM21.1059 24.04C21.1059 25.7003 21.5645 27.2345 22.5937 28.5012L25.6982 25.9788C25.3407 25.5389 25.1059 24.9397 25.1059 24.04H21.1059ZM22.6408 28.557C23.6743 29.7381 25.0707 30.5689 26.6917 31.13L28.0002 27.35C26.8478 26.9511 26.1109 26.4485 25.6511 25.923L22.6408 28.557ZM26.7578 31.1516C28.3852 31.6523 30.2469 31.88 32.3059 31.88V27.88C30.525 27.88 29.08 27.681 27.9341 27.3284L26.7578 31.1516ZM32.3059 31.88C35.2188 31.88 38.0478 31.3546 40.7812 30.3077L39.3506 26.5723C37.0708 27.4454 34.7265 27.88 32.3059 27.88V31.88ZM40.802 30.2996C43.673 29.1632 46.4021 27.2522 49.0002 24.6542L46.1717 21.8258C43.8631 24.1344 41.5789 25.6901 39.3298 26.5804L40.802 30.2996ZM46.496 24.9169L52.896 29.0769L55.0759 25.7231L48.6759 21.5631L46.496 24.9169ZM52.1743 26.5526C50.7213 29.659 48.8229 32.4049 46.4769 34.8007L49.335 37.5992C52.0024 34.8751 54.1572 31.7543 55.7976 28.2474L52.1743 26.5526ZM46.4769 34.8007C44.1674 37.1594 41.409 39.0112 38.1787 40.353L39.7132 44.047C43.4162 42.5088 46.6311 40.3606 49.335 37.5992L46.4769 34.8007ZM38.1787 40.353C35.0027 41.6723 31.2461 42.36 26.8659 42.36V46.36C31.6591 46.36 35.9558 45.6077 39.7132 44.047L38.1787 40.353ZM26.8659 42.36C21.9538 42.36 17.8788 41.5661 14.5756 40.0602L12.9163 43.6998C16.8664 45.5006 21.5381 46.36 26.8659 46.36V42.36ZM14.5975 40.0704C11.2566 38.4982 8.789 36.4061 7.09934 33.8247L3.75253 36.0153C5.90288 39.3006 8.98195 41.8485 12.8943 43.6896L14.5975 40.0704ZM7.10829 33.8385C5.4041 31.1875 4.51417 28.1706 4.46574 24.7318L0.466136 24.7882C0.524369 28.9227 1.60777 32.6791 3.74358 36.0015L7.10829 33.8385ZM4.46576 24.7863C4.51389 21.129 5.56387 17.9023 7.61157 15.045L4.3603 12.715C1.82134 16.2577 0.524654 20.2844 0.466111 24.7337L4.46576 24.7863ZM7.61157 15.045C9.63882 12.2163 12.6873 9.91754 16.8963 8.21389L15.3956 4.5061C10.6446 6.42912 6.91972 9.14368 4.3603 12.715L7.61157 15.045ZM16.9074 8.20935C21.1309 6.4703 26.4281 5.56 32.8659 5.56V1.56C26.0772 1.56 20.2277 2.51636 15.3844 4.51064L16.9074 8.20935ZM32.8659 5.56C40.3235 5.56 46.3155 6.8823 50.9522 9.39793L52.8597 5.88207C47.4697 2.9577 40.7684 1.56 32.8659 1.56V5.56ZM50.9667 9.40574C55.645 11.8942 59.0745 15.3158 61.3292 19.6783L64.8827 17.8417C62.2307 12.7108 58.1935 8.71912 52.8452 5.87425L50.9667 9.40574ZM61.3418 19.7022C63.6695 24.0605 64.8368 29.1088 64.786 34.9025L68.7859 34.9375C68.8417 28.5712 67.5557 22.8461 64.8701 17.8178L61.3418 19.7022ZM64.786 34.9375C64.8368 40.7307 63.6697 45.8095 61.3374 50.2261L64.8745 52.0939C67.5555 47.0172 68.8417 41.2693 68.7859 34.9025L64.786 34.9375ZM61.3374 50.2261C59.0268 54.6014 55.5614 58.0579 50.8722 60.6021L52.7797 64.1179C58.1172 61.2221 62.1717 57.2119 64.8745 52.0939L61.3374 50.2261ZM50.8643 60.6064C46.2802 63.1202 40.3965 64.44 33.1059 64.44V68.44C40.8554 68.44 47.4516 67.0398 52.7876 64.1136L50.8643 60.6064ZM89.2603 62.52L88.3659 64.3089L88.3731 64.3125L89.2603 62.52ZM77.0203 51.56L75.3104 52.5975L75.3173 52.6088L75.3243 52.62L77.0203 51.56ZM77.0203 18.52L75.319 17.4686L75.3157 17.474L77.0203 18.52ZM89.2603 7.48L88.3731 5.68752L88.3659 5.69114L89.2603 7.48ZM125.98 7.48L125.086 9.26887L125.093 9.27246L125.98 7.48ZM138.22 18.52L136.51 19.5575L136.517 19.5688L136.524 19.58L138.22 18.52ZM138.22 51.56L136.519 50.5086L136.516 50.514L138.22 51.56ZM125.98 62.52L125.093 60.7275L125.086 60.7311L125.98 62.52ZM118.3 45.96L116.872 44.5604L116.871 44.5608L118.3 45.96ZM118.3 24.04L116.871 25.4392L116.879 25.4468L116.886 25.4542L118.3 24.04ZM97.0203 24.04L95.6061 22.6258L95.6061 22.6258L97.0203 24.04ZM97.0203 45.96L95.5916 47.3596L95.5988 47.3669L95.6061 47.3742L97.0203 45.96ZM107.66 64.44C100.925 64.44 95.1049 63.1812 90.1475 60.7275L88.3731 64.3125C93.9757 67.0854 100.423 68.44 107.66 68.44V64.44ZM90.1547 60.7311C85.238 58.2728 81.4435 54.8636 78.7163 50.5L75.3243 52.62C78.4638 57.6431 82.8293 61.5405 88.3659 64.3089L90.1547 60.7311ZM78.7302 50.5225C76.0643 46.1288 74.7003 40.9775 74.7003 35H70.7003C70.7003 41.6092 72.2163 47.4979 75.3104 52.5975L78.7302 50.5225ZM74.7003 35C74.7003 29.022 76.0645 23.9017 78.725 19.566L75.3157 17.474C72.2162 22.525 70.7003 28.3913 70.7003 35H74.7003ZM78.7217 19.5714C81.4503 15.156 85.2439 11.7243 90.1547 9.26885L88.3659 5.69114C82.8234 8.46237 78.457 12.3907 75.319 17.4686L78.7217 19.5714ZM90.1475 9.27246C95.1049 6.81878 100.925 5.56 107.66 5.56V1.56C100.423 1.56 93.9757 2.91455 88.3731 5.68754L90.1475 9.27246ZM107.66 5.56C114.397 5.56 120.186 6.81899 125.086 9.26885L126.875 5.69114C121.321 2.91434 114.897 1.56 107.66 1.56V5.56ZM125.093 9.27246C130.055 11.7281 133.84 15.1556 136.51 19.5575L139.93 17.4825C136.841 12.391 132.466 8.45855 126.867 5.68754L125.093 9.27246ZM136.524 19.58C139.233 23.9136 140.62 29.0288 140.62 35H144.62C144.62 28.3845 143.074 22.5131 139.916 17.46L136.524 19.58ZM140.62 35C140.62 40.9707 139.233 46.1169 136.519 50.5086L139.922 52.6114C143.074 47.5098 144.62 41.616 144.62 35H140.62ZM136.516 50.514C133.846 54.8639 130.06 58.269 125.093 60.7275L126.867 64.3125C132.46 61.5444 136.834 57.6427 139.925 52.606L136.516 50.514ZM125.086 60.7311C120.186 63.181 114.397 64.44 107.66 64.44V68.44C114.897 68.44 121.321 67.0857 126.875 64.3089L125.086 60.7311ZM107.74 51.8C112.661 51.8 116.753 50.3991 119.729 47.3592L116.871 44.5608C114.835 46.6409 111.886 47.8 107.74 47.8V51.8ZM119.729 47.3596C122.751 44.2749 124.14 40.0621 124.14 35H120.14C120.14 39.3246 118.97 42.4184 116.872 44.5604L119.729 47.3596ZM124.14 35C124.14 29.8944 122.756 25.6668 119.715 22.6258L116.886 25.4542C118.965 27.5332 120.14 30.6123 120.14 35H124.14ZM119.729 22.6407C116.748 19.5965 112.626 18.2 107.66 18.2V22.2C111.868 22.2 114.839 23.3635 116.871 25.4392L119.729 22.6407ZM107.66 18.2C102.738 18.2 98.6304 19.6014 95.6061 22.6258L98.4345 25.4542C100.53 23.3586 103.516 22.2 107.66 22.2V18.2ZM95.6061 22.6258C92.5691 25.6628 91.1803 29.8602 91.1803 34.92H95.1803C95.1803 30.5931 96.3515 27.5372 98.4345 25.4542L95.6061 22.6258ZM91.1803 34.92C91.1803 40.0281 92.5659 44.2708 95.5916 47.3596L98.449 44.5604C96.3547 42.4225 95.1803 39.3052 95.1803 34.92H91.1803ZM95.6061 47.3742C98.6347 50.4029 102.772 51.8 107.74 51.8V47.8C103.535 47.8 100.526 46.6371 98.4345 44.5458L95.6061 47.3742ZM157.843 38.36L157.007 40.1768L157.019 40.1823L157.031 40.1876L157.843 38.36ZM150.003 31.96L148.344 33.0768L148.349 33.0842L148.354 33.0917L150.003 31.96ZM150.003 12.76L148.354 11.6283L148.354 11.6283L150.003 12.76ZM157.843 6.44L158.656 8.26762L158.668 8.26227L158.68 8.25676L157.843 6.44ZM181.203 6.44L180.356 8.25162L180.374 8.25979L180.391 8.26762L181.203 6.44ZM189.043 31.96L190.692 33.0917L190.698 33.0842L190.703 33.0768L189.043 31.96ZM181.203 38.36L182.027 40.1827L182.033 40.1798L182.04 40.1768L181.203 38.36ZM174.483 27.48L175.898 28.8942L175.913 28.8785L175.929 28.8624L174.483 27.48ZM174.483 17.24L173.006 18.5885L173.022 18.6057L173.038 18.6224L174.483 17.24ZM164.563 17.24L163.118 15.8576L163.102 15.8743L163.086 15.8915L164.563 17.24ZM164.563 27.48L163.086 28.8285L163.117 28.8621L163.149 28.8942L164.563 27.48ZM217.603 64.36L216.767 66.1768L216.779 66.1823L216.791 66.1876L217.603 64.36ZM209.763 57.96L208.104 59.0768L208.109 59.0842L208.114 59.0917L209.763 57.96ZM217.603 32.44L218.416 34.2676L218.428 34.2623L218.44 34.2568L217.603 32.44ZM240.963 32.44L240.116 34.2516L240.134 34.2598L240.151 34.2676L240.963 32.44ZM248.803 38.76L247.154 39.8917L247.154 39.8917L248.803 38.76ZM248.803 57.96L250.452 59.0917L250.458 59.0842L250.463 59.0768L248.803 57.96ZM240.963 64.36L241.787 66.1827L241.793 66.1798L241.8 66.1768L240.963 64.36ZM234.243 53.48L235.658 54.8942L235.673 54.8785L235.689 54.8624L234.243 53.48ZM234.243 43.24L232.766 44.5885L232.782 44.6057L232.798 44.6224L234.243 43.24ZM224.323 43.24L222.878 41.8576L222.862 41.8743L222.846 41.8915L224.323 43.24ZM224.323 53.48L222.846 54.8285L222.877 54.8621L222.909 54.8942L224.323 53.48ZM208.563 5V3H207.377L206.809 4.04065L208.563 5ZM223.043 5L224.798 5.95934L226.416 3H223.043V5ZM190.243 65V67H191.429L191.998 65.9593L190.243 65ZM175.763 65L174.009 64.0407L172.391 67H175.763V65ZM169.523 38.6C165.321 38.6 161.713 37.8913 158.656 36.5324L157.031 40.1876C160.694 41.8153 164.873 42.6 169.523 42.6V38.6ZM158.68 36.5432C155.607 35.1287 153.291 33.2159 151.652 30.8283L148.354 33.0917C150.449 36.1441 153.36 38.498 157.007 40.1768L158.68 36.5432ZM151.663 30.8432C150.04 28.433 149.203 25.6039 149.203 22.28H145.203C145.203 26.3161 146.233 29.9403 148.344 33.0768L151.663 30.8432ZM149.203 22.28C149.203 19.0154 150.037 16.2456 151.652 13.8917L148.354 11.6283C146.236 14.7144 145.203 18.2913 145.203 22.28H149.203ZM151.652 13.8917C153.287 11.5106 155.594 9.62849 158.656 8.26762L157.031 4.61237C153.373 6.23817 150.454 8.56939 148.354 11.6283L151.652 13.8917ZM158.68 8.25676C161.731 6.85221 165.33 6.12 169.523 6.12V2.12C164.864 2.12 160.676 2.93445 157.007 4.62323L158.68 8.25676ZM169.523 6.12C173.776 6.12 177.368 6.85393 180.356 8.25162L182.051 4.62838C178.426 2.93273 174.231 2.12 169.523 2.12V6.12ZM180.391 8.26762C183.453 9.62849 185.76 11.5106 187.394 13.8917L190.692 11.6283C188.593 8.56939 185.674 6.23817 182.016 4.61237L180.391 8.26762ZM187.394 13.8917C189.01 16.2456 189.843 19.0154 189.843 22.28H193.843C193.843 18.2913 192.81 14.7144 190.692 11.6283L187.394 13.8917ZM189.843 22.28C189.843 25.6039 189.007 28.433 187.384 30.8432L190.703 33.0768C192.814 29.9403 193.843 26.3161 193.843 22.28H189.843ZM187.394 30.8283C185.756 33.2159 183.44 35.1287 180.367 36.5432L182.04 40.1768C185.687 38.498 188.598 36.1441 190.692 33.0917L187.394 30.8283ZM180.38 36.5373C177.386 37.8897 173.785 38.6 169.523 38.6V42.6C174.222 42.6 178.408 41.817 182.027 40.1827L180.38 36.5373ZM169.523 31.24C172.029 31.24 174.25 30.5415 175.898 28.8942L173.069 26.0658C172.37 26.7651 171.285 27.24 169.523 27.24V31.24ZM175.929 28.8624C177.552 27.1654 178.243 24.9076 178.243 22.36H174.243C174.243 24.1858 173.762 25.3413 173.038 26.0976L175.929 28.8624ZM178.243 22.36C178.243 19.8124 177.552 17.5546 175.929 15.8576L173.038 18.6224C173.762 19.3787 174.243 20.5342 174.243 22.36H178.243ZM175.96 15.8915C174.36 14.1391 172.129 13.4 169.603 13.4V17.4C171.344 17.4 172.366 17.8875 173.006 18.5885L175.96 15.8915ZM169.603 13.4C167.037 13.4 164.77 14.1309 163.118 15.8576L166.009 18.6224C166.704 17.8958 167.797 17.4 169.603 17.4V13.4ZM163.086 15.8915C161.535 17.5908 160.883 19.836 160.883 22.36H164.883C164.883 20.5107 165.352 19.3426 166.04 18.5885L163.086 15.8915ZM160.883 22.36C160.883 24.884 161.535 27.1292 163.086 28.8285L166.04 26.1315C165.352 25.3774 164.883 24.2093 164.883 22.36H160.883ZM163.149 28.8942C164.797 30.5415 167.018 31.24 169.523 31.24V27.24C167.762 27.24 166.677 26.7651 165.978 26.0658L163.149 28.8942ZM229.283 64.6C225.081 64.6 221.473 63.8913 218.416 62.5324L216.791 66.1876C220.454 67.8153 224.633 68.6 229.283 68.6V64.6ZM218.44 62.5432C215.367 61.1287 213.051 59.2159 211.412 56.8283L208.114 59.0917C210.209 62.1441 213.12 64.498 216.767 66.1768L218.44 62.5432ZM211.423 56.8432C209.8 54.433 208.963 51.6039 208.963 48.28H204.963C204.963 52.3161 205.993 55.9403 208.104 59.0768L211.423 56.8432ZM208.963 48.28C208.963 45.0154 209.797 42.2456 211.412 39.8917L208.114 37.6283C205.996 40.7144 204.963 44.2913 204.963 48.28H208.963ZM211.412 39.8917C213.047 37.5106 215.354 35.6285 218.416 34.2676L216.791 30.6124C213.133 32.2382 210.214 34.5694 208.114 37.6283L211.412 39.8917ZM218.44 34.2568C221.491 32.8522 225.09 32.12 229.283 32.12V28.12C224.624 28.12 220.436 28.9344 216.767 30.6232L218.44 34.2568ZM229.283 32.12C233.536 32.12 237.128 32.8539 240.116 34.2516L241.811 30.6284C238.186 28.9327 233.991 28.12 229.283 28.12V32.12ZM240.151 34.2676C243.213 35.6285 245.52 37.5106 247.154 39.8917L250.452 37.6283C248.353 34.5694 245.434 32.2382 241.776 30.6124L240.151 34.2676ZM247.154 39.8917C248.77 42.2456 249.603 45.0154 249.603 48.28H253.603C253.603 44.2913 252.57 40.7144 250.452 37.6283L247.154 39.8917ZM249.603 48.28C249.603 51.6039 248.767 54.433 247.144 56.8432L250.463 59.0768C252.574 55.9403 253.603 52.3161 253.603 48.28H249.603ZM247.154 56.8283C245.516 59.2159 243.2 61.1287 240.127 62.5432L241.8 66.1768C245.447 64.498 248.358 62.1441 250.452 59.0917L247.154 56.8283ZM240.14 62.5373C237.146 63.8897 233.545 64.6 229.283 64.6V68.6C233.982 68.6 238.168 67.817 241.787 66.1827L240.14 62.5373ZM229.283 57.24C231.789 57.24 234.01 56.5415 235.658 54.8942L232.829 52.0658C232.13 52.7651 231.045 53.24 229.283 53.24V57.24ZM235.689 54.8624C237.312 53.1654 238.003 50.9076 238.003 48.36H234.003C234.003 50.1858 233.522 51.3413 232.798 52.0976L235.689 54.8624ZM238.003 48.36C238.003 45.8124 237.312 43.5546 235.689 41.8576L232.798 44.6224C233.522 45.3787 234.003 46.5342 234.003 48.36H238.003ZM235.72 41.8915C234.12 40.1391 231.889 39.4 229.363 39.4V43.4C231.104 43.4 232.126 43.8875 232.766 44.5885L235.72 41.8915ZM229.363 39.4C226.797 39.4 224.53 40.1309 222.878 41.8576L225.769 44.6224C226.464 43.8958 227.557 43.4 229.363 43.4V39.4ZM222.846 41.8915C221.295 43.5908 220.643 45.836 220.643 48.36H224.643C224.643 46.5107 225.112 45.3426 225.8 44.5885L222.846 41.8915ZM220.643 48.36C220.643 50.884 221.295 53.1292 222.846 54.8285L225.8 52.1315C225.112 51.3774 224.643 50.2093 224.643 48.36H220.643ZM222.909 54.8942C224.557 56.5415 226.778 57.24 229.283 57.24V53.24C227.522 53.24 226.437 52.7651 225.738 52.0658L222.909 54.8942ZM208.563 7H223.043V3H208.563V7ZM221.289 4.04065L188.489 64.0407L191.998 65.9593L224.798 5.95934L221.289 4.04065ZM190.243 63H175.763V67H190.243V63ZM177.518 65.9593L210.318 5.95934L206.809 4.04065L174.009 64.0407L177.518 65.9593Z" fill="#172224" mask="url(#path-1-outside-1_355_1738)"/>
</g>
<defs>
<clipPath id="clip0_355_1738">
<rect width="254" height="70" fill="white"/>
</clipPath>
</defs>
</svg>
