<svg width="53" height="53" viewBox="0 0 53 53" fill="none" xmlns="http://www.w3.org/2000/svg">
<path d="M22.0039 48.8787L26.0298 52.3496C26.6268 52.7372 27.3151 52.9599 28.0252 52.9952C28.7353 53.0305 29.4422 52.8771 30.0744 52.5506L38.6191 47.5722C38.7747 47.5074 38.9117 47.4046 39.0176 47.273C39.1235 47.1415 39.1949 46.9854 39.2253 46.8191V45.5635L39.2066 45.5756L30.6663 50.5506H30.6597C29.9036 50.9373 29.0674 51.14 28.2187 51.1423C27.3701 51.1446 26.5328 50.9465 25.7745 50.5639C25.3542 50.3055 24.1659 49.2387 23.0426 48.2746L22.0039 48.8787Z" fill="#B1FE33"/>
<path d="M8.05942 44.3574V49.2838C8.03099 49.4941 8.05649 49.7082 8.1335 49.9059C8.21052 50.1036 8.33649 50.2783 8.49952 50.4135L10.7001 51.6956C10.6891 51.5112 10.7 52.8695 10.6637 36.6348L10.6362 23.8975C10.683 22.9129 10.9631 21.9537 11.4534 21.0996C11.9436 20.2454 12.6299 19.5211 13.4551 18.9866L43.6784 1.4742C43.7466 1.43444 43.816 1.398 43.8842 1.36376L41.6946 0.0860609C41.491 0.00677749 41.2705 -0.0183125 41.0543 0.0132281C40.8382 0.0447686 40.6339 0.131866 40.4612 0.266064L10.2413 17.7707C9.59245 18.2038 9.05243 18.7819 8.66358 19.4596C8.27472 20.1372 8.04759 20.8962 8 21.6767L8.0528 44.3441C8.055 44.3508 8.05942 44.3497 8.05942 44.3574Z" fill="#B1FE33"/>
<path d="M26.3378 49.5488C26.9226 49.8351 27.5648 49.9838 28.2154 49.9838C28.8661 49.9838 29.5082 49.8351 30.093 49.5488L38.6311 44.5639C39.65 43.9697 39.2385 43.232 38.2559 42.8798L34.723 41.5049L24.0977 47.6626C26.0957 49.382 26.4511 49.6427 26.3378 49.5488Z" fill="#B1FE33"/>
<path d="M31.9026 32.8039C32.0547 32.8033 32.2004 32.7422 32.3076 32.6339C32.4149 32.5256 32.475 32.379 32.4747 32.2263L32.4329 17.5984C32.4326 17.4459 32.3721 17.2997 32.2647 17.1919C32.1572 17.0841 32.0116 17.0234 31.8596 17.0231C31.7836 17.0215 31.7081 17.0355 31.6376 17.0641C31.5671 17.0926 31.5031 17.1353 31.4494 17.1893C31.3957 17.2434 31.3535 17.3078 31.3253 17.3787C31.2971 17.4496 31.2835 17.5254 31.2853 17.6017L31.3271 32.2296C31.3277 32.3823 31.3886 32.5286 31.4965 32.6362C31.6044 32.7439 31.7504 32.8042 31.9026 32.8039Z" fill="#B1FE33"/>
<path d="M34.8479 28.5709C34.9233 28.5708 34.9979 28.5557 35.0675 28.5266C35.1371 28.4975 35.2002 28.4549 35.2534 28.4012C35.3065 28.3476 35.3486 28.2839 35.3772 28.2139C35.4058 28.144 35.4204 28.069 35.4201 27.9933L35.3937 18.4001C35.3934 18.2474 35.3327 18.101 35.2251 17.9932C35.1174 17.8853 34.9715 17.8247 34.8193 17.8247C34.6669 17.8253 34.5209 17.8866 34.4135 17.995C34.306 18.1035 34.2458 18.2504 34.2461 18.4034L34.2736 27.9967C34.2737 28.0722 34.2887 28.147 34.3177 28.2167C34.3466 28.2865 34.3889 28.3498 34.4423 28.4032C34.4956 28.4565 34.5589 28.4988 34.6285 28.5275C34.6981 28.5563 34.7727 28.5711 34.8479 28.5709Z" fill="#B1FE33"/>
<path d="M37.7204 24.4032C37.7958 24.403 37.8704 24.388 37.9401 24.3589C38.0097 24.3298 38.0729 24.2872 38.1262 24.2335C38.1794 24.1799 38.2216 24.1163 38.2503 24.0463C38.279 23.9763 38.2938 23.9013 38.2936 23.8256L38.2804 19.2305C38.2795 19.0781 38.2187 18.9322 38.1111 18.8246C38.0035 18.7171 37.8579 18.6565 37.7061 18.6562C37.6306 18.6564 37.556 18.6714 37.4864 18.7006C37.4167 18.7297 37.3535 18.7722 37.3003 18.8259C37.247 18.8795 37.2048 18.9431 37.1761 19.0131C37.1474 19.0831 37.1327 19.1581 37.1328 19.2338L37.146 23.8289C37.1466 23.9814 37.2074 24.1275 37.315 24.2351C37.4227 24.3427 37.5684 24.4032 37.7204 24.4032Z" fill="#B1FE33"/>
<path d="M23.0265 35.7571C23.1019 35.7568 23.1766 35.7416 23.2462 35.7123C23.3157 35.6831 23.3789 35.6404 23.432 35.5867C23.4851 35.5329 23.5272 35.4692 23.5558 35.3992C23.5844 35.3291 23.599 35.2541 23.5987 35.1784L23.5701 24.9258C23.5699 24.8503 23.5549 24.7755 23.526 24.7057C23.4971 24.636 23.4547 24.5727 23.4014 24.5193C23.3481 24.466 23.2848 24.4237 23.2152 24.395C23.1456 24.3662 23.071 24.3514 22.9957 24.3516C22.9194 24.3483 22.8432 24.361 22.772 24.3889C22.7008 24.4167 22.6362 24.4592 22.5823 24.5135C22.5283 24.5679 22.4863 24.6329 22.4588 24.7045C22.4313 24.776 22.4189 24.8525 22.4225 24.9292L22.4511 35.1828C22.4517 35.3355 22.5126 35.4817 22.6205 35.5894C22.7284 35.6971 22.8744 35.7574 23.0265 35.7571Z" fill="#B1FE33"/>
<path d="M25.9274 31.2346C26.0795 31.234 26.2252 31.1728 26.3325 31.0646C26.4397 30.9563 26.4998 30.8097 26.4995 30.657L26.4863 26.063C26.4857 25.9105 26.425 25.7645 26.3173 25.6568C26.2097 25.5492 26.0639 25.4888 25.912 25.4888C25.7598 25.4894 25.6142 25.5505 25.5069 25.6588C25.3996 25.7671 25.3396 25.9136 25.3398 26.0663L25.3519 30.6603C25.3525 30.813 25.4134 30.9592 25.5213 31.0669C25.6292 31.1746 25.7753 31.2349 25.9274 31.2346Z" fill="#B1FE33"/>
<path d="M20.0908 35.0588C20.243 35.0582 20.3887 34.997 20.4959 34.8888C20.6032 34.7805 20.6633 34.6339 20.663 34.4812L20.6476 29.0181C20.647 28.8656 20.5862 28.7195 20.4786 28.6119C20.3709 28.5043 20.2252 28.4438 20.0732 28.4438C19.9249 28.4565 19.7858 28.5216 19.6808 28.6276C19.5758 28.7336 19.5117 28.8735 19.5 29.0225L19.5154 34.4845C19.5156 34.5602 19.5306 34.635 19.5596 34.7049C19.5886 34.7747 19.631 34.8381 19.6845 34.8914C19.7379 34.9448 19.8013 34.987 19.871 35.0157C19.9408 35.0444 20.0155 35.0591 20.0908 35.0588Z" fill="#B1FE33"/>
<path d="M28.9445 32.1338C29.0199 32.1337 29.0945 32.1186 29.164 32.0895C29.2336 32.0604 29.2968 32.0178 29.3499 31.9641C29.403 31.9105 29.4451 31.8468 29.4737 31.7768C29.5023 31.7068 29.5169 31.6319 29.5166 31.5562L29.4891 21.6968C29.4888 21.5444 29.4283 21.3983 29.3208 21.2907C29.2134 21.183 29.0677 21.1226 28.9159 21.1226C28.8405 21.1227 28.7659 21.1378 28.6964 21.1669C28.6268 21.196 28.5636 21.2386 28.5105 21.2922C28.4573 21.3459 28.4153 21.4095 28.3866 21.4795C28.358 21.5495 28.3435 21.6245 28.3438 21.7001L28.3713 31.5595C28.3715 31.7119 28.4321 31.858 28.5395 31.9657C28.647 32.0733 28.7927 32.1338 28.9445 32.1338Z" fill="#B1FE33"/>
<path d="M11.793 23.8907L11.8183 36.6545L11.8502 51.4911C11.8502 52.6749 12.5379 53.0372 13.5402 52.4519C23.8145 46.4521 30.0233 42.8763 43.7536 34.9439C44.403 34.5117 44.9437 33.9342 45.3332 33.2569C45.7226 32.5795 45.9503 31.8207 45.9981 31.0401L45.9376 3.44297C45.9376 2.21165 45.1961 1.92563 44.2487 2.47558L14.0375 19.9858C13.3881 20.4182 12.8474 20.9959 12.4579 21.6734C12.0685 22.351 11.8408 23.1099 11.793 23.8907ZM30.0795 41.3545L28.3443 42.3605C28.2791 42.4061 28.2053 42.4376 28.1273 42.453C28.0494 42.4685 27.9692 42.4675 27.8916 42.4503C27.8141 42.433 27.741 42.3998 27.6769 42.3527C27.6128 42.3056 27.5591 42.2457 27.5192 42.1767C27.4794 42.1078 27.4542 42.0312 27.4453 41.952C27.4365 41.8728 27.444 41.7926 27.4676 41.7165C27.4912 41.6403 27.5302 41.57 27.5822 41.5097C27.6343 41.4495 27.6982 41.4008 27.77 41.3666L29.5062 40.3606C29.6363 40.2997 29.7844 40.2899 29.9213 40.3332C30.0583 40.3764 30.1741 40.4695 30.246 40.5942C30.3179 40.7189 30.3407 40.8661 30.3099 41.0068C30.2791 41.1476 30.1969 41.2716 30.0795 41.3545ZM43.0626 5.50365C43.1498 5.4535 43.2486 5.42715 43.3491 5.42721C43.4496 5.42728 43.5483 5.45376 43.6354 5.50402C43.7226 5.55428 43.7951 5.62657 43.8457 5.71369C43.8964 5.80081 43.9234 5.89973 43.9241 6.00059L43.9836 29.9855C43.9839 30.0868 43.9574 30.1865 43.907 30.2743C43.8566 30.3622 43.7839 30.4351 43.6964 30.4857L14.7241 47.277C14.6369 47.3273 14.5381 47.3537 14.4375 47.3536C14.337 47.3535 14.2382 47.3269 14.1511 47.2765C14.064 47.2261 13.9916 47.1536 13.9411 47.0663C13.8907 46.9789 13.864 46.8799 13.8637 46.7789L13.8032 22.7952C13.8028 22.6936 13.8292 22.5938 13.8796 22.5057C13.93 22.4177 14.0027 22.3446 14.0903 22.2938L43.0626 5.50365Z" fill="#B1FE33"/>
</svg>
