<svg width="53" height="53" viewBox="0 0 53 53" fill="none" xmlns="http://www.w3.org/2000/svg">
<path d="M29.5486 23.9814V24.5855C29.532 24.9017 29.4309 25.2077 29.2558 25.4716C29.0806 25.7354 28.8379 25.9475 28.553 26.0856C27.9267 26.4166 27.2291 26.5897 26.5208 26.5897C25.8124 26.5897 25.1148 26.4166 24.4885 26.0856C24.1958 25.9482 23.9466 25.7326 23.7686 25.4627C23.5906 25.1927 23.4906 24.8788 23.4796 24.5556V24.0025C23.2501 24.1216 23.0528 24.2944 22.9046 24.5064C22.7565 24.7183 22.6619 24.9629 22.6289 25.2194V25.2315C22.6782 25.5239 22.7984 25.7998 22.9789 26.035C23.1594 26.2703 23.3947 26.4579 23.6644 26.5812C24.5576 27.0271 25.5423 27.2593 26.5407 27.2593C27.539 27.2593 28.5237 27.0271 29.417 26.5812C29.6811 26.4584 29.9115 26.2735 30.0888 26.0423C30.266 25.8112 30.3847 25.5406 30.4347 25.2537V25.2448C30.4022 24.9777 30.3043 24.7226 30.1497 24.5023C29.9952 24.282 29.7887 24.103 29.5486 23.9814Z" fill="#B1FE33"/>
<path d="M24.625 24.5728C24.625 24.7387 24.7909 24.9334 25.0609 25.0872C25.5114 25.3122 26.0081 25.4294 26.5117 25.4294C27.0154 25.4294 27.5121 25.3122 27.9626 25.0872C28.2325 24.929 28.3929 24.7409 28.3929 24.5816V21.3369C27.8066 21.6245 27.1621 21.7741 26.509 21.7741C25.8558 21.7741 25.2114 21.6245 24.625 21.3369V24.5728Z" fill="#B1FE33"/>
<path d="M27.9626 16.4588C28.2314 16.3028 28.3918 16.1126 28.3929 15.951V12.0415C27.1619 12.3936 25.8571 12.3955 24.625 12.047V15.9554C24.6327 16.117 24.7909 16.3039 25.0598 16.4599C25.5107 16.6845 26.0076 16.8014 26.5113 16.8012C27.0151 16.801 27.5119 16.6838 27.9626 16.4588Z" fill="#B1FE33"/>
<path d="M32.0109 27.3771C31.8759 27.2997 31.7299 27.2256 31.5794 27.1559V30.4205C31.5465 30.9148 31.3813 31.3912 31.1013 31.7998C30.8213 32.2085 30.4366 32.5345 29.9875 32.7437C28.9207 33.2962 27.7368 33.5846 26.5354 33.5846C25.334 33.5846 24.1501 33.2962 23.0833 32.7437C22.6277 32.5331 22.2373 32.2034 21.9534 31.7895C21.6696 31.3755 21.5027 30.8927 21.4703 30.3918V27.1382C21.3199 27.2112 21.1672 27.2864 21.0278 27.3716C20.4635 27.6189 19.9738 28.0098 19.6077 28.5054C19.2416 29.0009 19.0119 29.5839 18.9414 30.1959C19.0105 30.8205 19.2437 31.4156 19.6174 31.9208C19.9911 32.426 20.4918 32.8233 21.0688 33.0722C22.7683 33.9255 24.644 34.3692 26.5457 34.3678C28.4474 34.3665 30.3224 33.9201 32.0208 33.0645C32.585 32.8108 33.0743 32.416 33.4415 31.9182C33.8087 31.4204 34.0414 30.8364 34.1172 30.2225C34.0474 29.6049 33.8159 29.0165 33.4461 28.517C33.0762 28.0174 32.5812 27.6242 32.0109 27.3771Z" fill="#B1FE33"/>
<path d="M23.6566 31.7448C24.5498 32.1909 25.5345 32.4231 26.5329 32.4231C27.5313 32.4231 28.516 32.1909 29.4092 31.7448C29.679 31.6301 29.9146 31.4476 30.0931 31.215C30.2717 30.9824 30.387 30.7076 30.4281 30.4173V27.2844L30.3816 27.3142C30.2592 27.4073 30.1318 27.4937 30 27.5731C28.9299 28.1201 27.7452 28.4054 26.5434 28.4054C25.3416 28.4054 24.157 28.1201 23.0869 27.5731C22.9542 27.4945 22.8557 27.4315 22.744 27.3518C22.7185 27.333 22.7041 27.3153 22.6798 27.2954C22.6555 27.2755 22.6444 27.2744 22.6289 27.2622V30.3885C22.6693 30.6838 22.785 30.9638 22.965 31.2013C23.145 31.4389 23.3832 31.6261 23.6566 31.7448Z" fill="#B1FE33"/>
<path d="M25.4074 11.0457C26.5348 11.2752 27.7056 11.1505 28.7594 10.6887C29.8132 10.227 30.6985 9.45066 31.2939 8.46621C31.8894 7.48175 32.1659 6.33733 32.0856 5.18961C32.0053 4.04188 31.5722 2.94703 30.8455 2.05507C30.1187 1.1631 29.134 0.517636 28.0262 0.207079C26.9184 -0.103477 25.7416 -0.0639227 24.6572 0.320312C23.5727 0.704548 22.6335 1.41463 21.9683 2.35338C21.3032 3.29212 20.9445 4.41355 20.9414 5.56408C20.9382 6.85297 21.3813 8.10329 22.1954 9.10253C23.0095 10.1018 24.1445 10.7883 25.4074 11.0457Z" fill="#B1FE33"/>
<path d="M20.4901 34.0729C19.9386 33.7514 19.4314 33.3594 18.9812 32.9069C18.9668 32.8914 18.948 32.8793 18.9336 32.8638V32.9656C19.0028 33.5903 19.2362 34.1855 19.61 34.6907C19.9839 35.1959 20.4849 35.5931 21.062 35.8419C22.7587 36.7041 24.6349 37.1535 26.5381 37.1535C28.4412 37.1535 30.3175 36.7041 32.0141 35.8419C32.5805 35.5944 33.0719 35.2023 33.439 34.7051C33.8062 34.2078 34.0362 33.6229 34.106 33.0087V32.9114C33.6502 33.3539 33.1458 33.7435 32.6026 34.0729C30.726 35.0257 28.651 35.5223 26.5464 35.5223C24.4417 35.5223 22.3668 35.0257 20.4901 34.0729Z" fill="#B1FE33"/>
<path d="M24.625 19.7834C24.6327 19.9449 24.7909 20.1318 25.0598 20.2867C25.5105 20.5118 26.0074 20.6289 26.5112 20.6289C27.015 20.6289 27.5119 20.5118 27.9626 20.2867C28.2314 20.1296 28.3918 19.9393 28.3929 19.7778V17.5122C27.8067 17.8004 27.1622 17.9502 26.509 17.9502C25.8557 17.9502 25.2112 17.8004 24.625 17.5122V19.7834Z" fill="#B1FE33"/>
<path d="M10.866 29.3917C11.4048 29.6604 11.9986 29.8003 12.6006 29.8003C13.2027 29.8003 13.7965 29.6604 14.3353 29.3917C15.0577 28.9724 15.0687 28.468 14.3297 28.0432C13.7931 27.761 13.1935 27.6198 12.5874 27.6328C11.9833 27.6189 11.3858 27.7598 10.8516 28.0421C10.0994 28.478 10.1624 28.9868 10.866 29.3917Z" fill="#B1FE33"/>
<path d="M11.9951 30.9187H11.9818C11.3954 30.8513 10.8267 30.6754 10.3047 30.3999V31.0493C10.3047 31.2783 10.5071 31.5272 10.8634 31.733C11.4023 32.0017 11.9963 32.1416 12.5985 32.1416C13.2008 32.1416 13.7948 32.0017 14.3337 31.733C14.6811 31.5305 14.8802 31.2849 14.8813 31.0603V30.4087C14.7851 30.463 14.6778 30.505 14.5749 30.5515C13.7633 30.9026 12.8724 31.0294 11.9951 30.9187Z" fill="#B1FE33"/>
<path d="M48.9074 31.8845L29.5478 22.0221V22.6859C29.6905 22.7534 29.8387 22.8142 29.9748 22.8894C30.4298 23.1 30.8197 23.4292 31.1035 23.8424C31.3873 24.2557 31.5546 24.7378 31.5877 25.238V25.2591V25.8852C31.9312 26.0299 32.2665 26.1931 32.5922 26.3742C33.3424 26.7164 33.9871 27.2534 34.4593 27.9293C34.9315 28.6052 35.2139 29.3953 35.2771 30.2174V30.2351C35.2771 30.0758 35.2683 32.8038 35.2683 33.0007C35.2045 33.8179 34.9238 34.6033 34.4551 35.2758C33.9865 35.9483 33.3468 36.4835 32.6022 36.8262C30.7264 37.7812 28.6516 38.2796 26.5467 38.2808C24.4418 38.2819 22.3665 37.7858 20.4897 36.8328C19.7331 36.4894 19.0828 35.9487 18.6071 35.2674C18.1314 34.5862 17.8478 33.7895 17.7859 32.9609L17.7948 30.2262V30.2074C17.855 29.3902 18.133 28.6041 18.5999 27.9308C19.0668 27.2574 19.7056 26.7214 20.4498 26.3786C20.7819 26.1863 21.1267 26.017 21.482 25.8719V25.3188C21.482 25.2878 21.482 25.2602 21.482 25.2281C21.515 24.7337 21.6794 24.257 21.9583 23.8474C22.2372 23.4378 22.6204 23.1102 23.0684 22.8983C23.2 22.823 23.346 22.7655 23.4876 22.6992V19.1514C23.0854 19.1171 22.6817 19.1956 22.3216 19.3781L4.14012 29.943C3.97529 30.0415 3.89674 30.1488 3.89453 30.2052C3.90018 30.2411 3.91548 30.2747 3.93878 30.3025C3.97276 30.3388 4.00977 30.3721 4.04941 30.4021C4.06833 30.4209 4.08827 30.4386 4.10915 30.4552L25.7654 44.6155C26.086 44.7885 26.4432 44.8826 26.8074 44.8899C27.1717 44.8972 27.5324 44.8175 27.8596 44.6575C29.8741 43.4406 20.2374 49.0826 48.9362 32.4034C49.1221 32.2994 49.1862 32.1965 49.1862 32.1511V32.1423C49.1641 32.0969 49.0944 31.9907 48.9074 31.8845ZM16.0369 28.7228V31.0603C16.0145 31.4124 15.8989 31.7522 15.702 32.045C15.5051 32.3377 15.2339 32.5729 14.9163 32.7264C14.2015 33.0963 13.4084 33.2894 12.6036 33.2894C11.7988 33.2894 11.0057 33.0963 10.291 32.7264C9.96875 32.572 9.69364 32.3342 9.49409 32.0378C9.29454 31.7414 9.1778 31.3971 9.15594 31.0405C9.15594 31.1511 9.15594 28.8179 9.15594 28.7018C9.15531 28.6948 9.15531 28.6877 9.15594 28.6807C9.18219 28.3341 9.29874 28.0004 9.49398 27.7127C9.68923 27.4251 9.95637 27.1936 10.2688 27.0412C10.985 26.6705 11.7796 26.4771 12.5859 26.4771C13.3923 26.4771 14.1869 26.6705 14.903 27.0412C15.2231 27.1945 15.4968 27.43 15.696 27.7237C15.8953 28.0174 16.0129 28.3588 16.0369 28.7129V28.7184V28.7228Z" fill="#B1FE33"/>
<path d="M3.85938 38.3313C3.85938 38.3711 3.89367 38.4607 4.05187 38.5614L24.9459 52.2415V45.4778L3.87707 31.6992L3.85938 38.3313Z" fill="#B1FE33"/>
<path d="M28.7031 52.2535L48.8859 40.527C49.0894 40.4031 49.1359 40.2947 49.1359 40.2748L49.1624 33.5996L28.7031 45.4975V52.2535Z" fill="#B1FE33"/>
<path d="M26.0977 45.9585V52.9014C26.5736 53.0421 27.0815 53.0316 27.5513 52.8715V45.9629C27.0721 46.0667 26.5762 46.0652 26.0977 45.9585Z" fill="#B1FE33"/>
</svg>
