<svg width="53" height="53" viewBox="0 0 53 53" fill="none" xmlns="http://www.w3.org/2000/svg">
<path d="M15.8574 21.639L10.5664 18.2031C9.72673 18.9471 9.17223 20.0205 9.01562 21.205L14.3056 24.6365C14.5535 23.4911 15.0924 22.4502 15.8574 21.639Z" fill="#B1FE33"/>
<path d="M16.7939 20.9101L44.1075 3.28216L44.2064 3.22473L39.3484 0.0671296C39.1905 0.0026407 39.0205 -0.0157853 38.8545 0.0135896C38.6884 0.0429645 38.5318 0.119179 38.3995 0.235013L11.582 17.5228L16.7939 20.9101Z" fill="#B1FE33"/>
<path d="M14.2079 25.9155L9 22.5381L9.01876 34.8614C9.0237 34.8824 9.03559 34.8857 9.03559 34.921L9.05532 47.8772C9.03428 48.0607 9.05489 48.2472 9.11517 48.4195C9.17544 48.5919 9.27344 48.7445 9.40027 48.8635L14.2672 52.0266C14.2672 51.9979 14.2672 51.968 14.2672 51.9382L14.2079 25.9155Z" fill="#B1FE33"/>
<path d="M45.9361 5.11023C45.9361 4.06102 45.4073 3.78491 44.6305 4.28411L17.0539 22.0766C16.531 22.464 16.0957 22.9816 15.782 23.5886C15.4684 24.1957 15.2849 24.8758 15.2461 25.5755L15.3054 51.9329C15.3054 52.9081 15.7867 53.2924 16.6111 52.759L44.1877 34.9676C44.7116 34.5807 45.1479 34.063 45.4622 33.4554C45.7764 32.8479 45.96 32.167 45.9984 31.4665L45.9361 5.11023ZM43.7696 32.0298C23.4005 45.1726 30.1078 40.8487 18.0443 48.6273C17.9655 48.6777 17.8764 48.7041 17.7856 48.704C17.6949 48.7039 17.6058 48.6772 17.5272 48.6266C17.4486 48.5759 17.3832 48.5032 17.3377 48.4155C17.2921 48.3278 17.2678 48.2283 17.2674 48.127L17.2091 25.5158C17.2092 25.4139 17.2332 25.3138 17.2786 25.2255C17.324 25.1372 17.3893 25.0636 17.468 25.0122L43.1943 8.42354C43.2729 8.37283 43.362 8.34609 43.4528 8.34601C43.5436 8.34592 43.6328 8.37248 43.7115 8.42304C43.7902 8.4736 43.8556 8.54638 43.9012 8.63408C43.9467 8.72178 43.9709 8.82133 43.9712 8.92275L44.0285 31.535C44.0282 31.6363 44.0042 31.7356 43.9587 31.8232C43.9133 31.9108 43.8481 31.9836 43.7696 32.0342V32.0298Z" fill="#B1FE33"/>
<path d="M18.2461 25.8513L18.3004 47.1294L19.6614 46.2513L24.2655 33.6055C24.2993 33.5109 24.355 33.4279 24.4268 33.3651C24.4986 33.3023 24.584 33.2618 24.6744 33.2478C24.7647 33.2338 24.8568 33.2467 24.9412 33.2853C25.0256 33.3239 25.0994 33.3867 25.1551 33.4675L28.1796 37.7991L33.7987 22.3646C33.8331 22.2706 33.889 22.1884 33.9608 22.1262C34.0326 22.064 34.1179 22.0239 34.2079 22.01C34.2982 21.9955 34.3902 22.0083 34.4746 22.0472C34.5589 22.086 34.6324 22.1495 34.6872 22.2309L41.5734 32.1189L42.9938 31.2023L42.9394 9.92529L18.2461 25.8513ZM26.862 30.4778C26.616 30.6952 26.3174 30.8255 26.0046 30.8521C25.6919 30.8786 25.3792 30.8002 25.1065 30.6268C24.8339 30.4534 24.6138 30.193 24.4746 29.879C24.3353 29.5649 24.2831 29.2116 24.3248 28.8642C24.3559 28.0823 24.5547 27.3203 24.9041 26.642C25.2536 25.9638 25.7437 25.3892 26.3332 24.9666C26.5812 24.7522 26.8806 24.6251 27.1935 24.6013C27.5063 24.5775 27.8183 24.6581 28.09 24.8329C28.3618 25.0078 28.5808 25.2689 28.7194 25.5831C28.858 25.8974 28.9099 26.2506 28.8685 26.5979C28.8364 27.3768 28.6374 28.1358 28.2883 28.811C27.9391 29.4861 27.45 30.0578 26.862 30.4778Z" fill="#B1FE33"/>
</svg>
