<svg width="64" height="64" fill="none" xmlns="http://www.w3.org/2000/svg"><path d="M36.019 28.959v.729a2.139 2.139 0 01-1.203 1.812 5.251 5.251 0 01-4.908 0 2.12 2.12 0 01-1.218-1.848v-.668a1.932 1.932 0 00-1.027 1.47v.014a2.195 2.195 0 001.25 1.63 7.777 7.777 0 006.947 0 2.182 2.182 0 001.229-1.603v-.01a1.978 1.978 0 00-1.07-1.526z" fill="#172224" fill-opacity=".7"/><path d="M30.077 29.673c0 .2.2.435.526.62a3.922 3.922 0 003.504 0c.326-.19.52-.417.52-.61v-3.918a5.165 5.165 0 01-4.55 0v3.908zm4.03-9.798c.325-.189.519-.418.52-.613V14.54a8.316 8.316 0 01-4.55.006v4.72c.01.195.2.42.525.61a3.929 3.929 0 003.505-.002zm4.889 13.185a6.819 6.819 0 00-.52-.268v3.942a3.34 3.34 0 01-1.923 2.805 9.064 9.064 0 01-8.337 0 3.368 3.368 0 01-1.948-2.84v-3.928a6.339 6.339 0 00-.534.282 4.255 4.255 0 00-2.52 3.41 4.297 4.297 0 002.57 3.473 14.717 14.717 0 0013.224-.01 4.347 4.347 0 002.532-3.43 4.267 4.267 0 00-2.544-3.437z" fill="#172224" fill-opacity=".7"/><path d="M28.908 38.334a7.773 7.773 0 006.946 0 2.056 2.056 0 001.23-1.604v-3.783l-.056.036a5.13 5.13 0 01-.46.313 9.17 9.17 0 01-8.348 0 5.414 5.414 0 01-.414-.267c-.031-.023-.048-.044-.078-.068-.03-.024-.043-.026-.061-.04v3.775a2.095 2.095 0 001.24 1.638zm2.113-24.996A6.736 6.736 0 1033.71.138a6.736 6.736 0 00-2.688 13.2zm-5.939 27.807a8.873 8.873 0 01-1.822-1.408c-.017-.019-.04-.034-.058-.052v.123a4.297 4.297 0 002.57 3.473 14.596 14.596 0 0013.226 0 4.259 4.259 0 002.526-3.421v-.118c-.55.535-1.16 1.005-1.816 1.403a16.153 16.153 0 01-14.626 0zm4.995-17.255c.01.194.2.42.525.607a3.923 3.923 0 003.505 0c.325-.19.519-.42.52-.614v-2.736a5.157 5.157 0 01-4.55 0v2.743zM13.463 35.492a4.693 4.693 0 004.189 0c.872-.506.886-1.115-.007-1.628a4.322 4.322 0 00-2.104-.496 4.275 4.275 0 00-2.096.494c-.908.527-.832 1.141.018 1.63zm1.362 1.844h-.015a5.744 5.744 0 01-2.026-.627v.784c0 .277.245.577.675.826a4.696 4.696 0 004.19 0c.42-.245.66-.541.662-.812v-.787c-.116.065-.246.116-.37.172a5.967 5.967 0 01-3.115.444z" fill="#172224" fill-opacity=".7"/><path d="M59.4 38.502l-23.378-11.91v.802c.172.082.351.155.516.246a3.372 3.372 0 011.947 2.836v.782c.415.174.82.372 1.213.59a5.57 5.57 0 013.242 4.641v.021l-.01 3.34a5.561 5.561 0 01-3.22 4.62 16.136 16.136 0 01-14.626.007 5.59 5.59 0 01-3.265-4.675l.01-3.302v-.023a5.539 5.539 0 013.207-4.623c.4-.233.817-.437 1.246-.612v-.778a3.36 3.36 0 011.916-2.813c.159-.091.335-.16.506-.24v-4.285a2.622 2.622 0 00-1.408.274L5.34 36.158c-.2.119-.294.248-.297.316a.242.242 0 00.054.118c.04.044.086.084.133.12a.885.885 0 00.073.064l26.15 17.1a2.766 2.766 0 002.53.05c2.432-1.47-9.205 5.344 25.45-14.797.225-.126.302-.25.302-.305v-.01c-.026-.055-.11-.184-.336-.312zm-39.693-3.818v2.823a2.406 2.406 0 01-1.353 2.012 6.076 6.076 0 01-5.586 0 2.421 2.421 0 01-1.37-2.036v-2.85a2.404 2.404 0 011.344-1.98 6.087 6.087 0 015.596 0 2.42 2.42 0 011.369 2.02v.011z" fill="#172224" fill-opacity=".7"/><path d="M5 46.287c0 .048.041.156.232.278l25.231 16.52v-8.168L5.021 38.278 5 46.287zm30.001 16.812l24.372-14.16c.245-.15.302-.281.302-.305l.032-8.06L35 54.94v8.16zm-3.146-7.602v8.384c.575.17 1.188.157 1.755-.036v-8.342a4.087 4.087 0 01-1.755-.006z" fill="#172224" fill-opacity=".7"/></svg>