<svg width="64" height="64" fill="none" xmlns="http://www.w3.org/2000/svg"><path d="M33.905 33.789l3.037-1.777v-2.31l-3.037 1.749v2.338zm2.281-5.408l-12.624-7.337-3.04 1.749 12.625 7.337 3.039-1.749zm5.78-3.338l-4.15-2.41 2.706-11.66.39.245a6.674 6.674 0 01-.06-.838 11.31 11.31 0 015.126-9.016A9.534 9.534 0 0147.07.849L46.008.18a2.77 2.77 0 00-2.632.369 9.923 9.923 0 00-4.373 7.688c-.004.495.084.987.258 1.45l-2.813 12.15-7.107-4.127-4.262 2.46 12.626 7.338 4.261-2.464z" fill="#172224" fill-opacity=".7"/><path d="M42.374 10.364c.02 2.31 1.458 3.398 3.71 2.08a9.911 9.911 0 004.373-7.696c-.025-2.56-1.68-3.265-3.707-2.072a9.987 9.987 0 00-4.376 7.688zM5.921 55.314a9.14 9.14 0 014.163-3.485l-1.063-.67a2.77 2.77 0 00-2.632.37 9.921 9.921 0 00-4.373 7.688 2.686 2.686 0 001.048 2.436l.864.545a6.425 6.425 0 01-.06-.84 10.904 10.904 0 012.053-6.044zm51.584-14.488a6.13 6.13 0 011.08-.502l-1.049-.685a1.716 1.716 0 00-.853-.196 3.48 3.48 0 00-1.778.583 8.309 8.309 0 00-2.501 2.393l-9.637-5.166-.034-10.886-4.265 2.462v3.625a.761.761 0 01-.376.655l-4.557 2.666a.76.76 0 01-1.145-.655v-2.782l-4.311 2.49.048 15.376L42.78 41.75l-.009-2.586 8.825 4.567-.008.013a8.722 8.722 0 00-1.064 3.969 2.688 2.688 0 001.05 2.448l.85.532c-.03-.258-.044-.546-.06-.836a11.336 11.336 0 015.14-9.031z" fill="#172224" fill-opacity=".7"/><path d="M58.26 42.15a10.044 10.044 0 00-4.372 7.682c.022 2.287 1.42 3.422 3.71 2.08a9.913 9.913 0 004.373-7.696c-.026-2.516-1.623-3.307-3.71-2.067zM19.004 23.676l-4.317 2.493 12.625 7.337 4.316-2.492-12.624-7.338zm-4.989 3.861l.019.01-.069-.039.016.009-.032-.018-.02-.011.048 15.368 5.84 3.393-7.626 6.973c-1.311-.517-3.09.706-4.133 1.843a9.975 9.975 0 00-2.676 6.282c.024 2.387 1.5 3.374 3.712 2.081a9.913 9.913 0 004.373-7.697 3.996 3.996 0 00-.24-1.388l7.972-7.288 5.4 3.138-.048-15.367-12.536-7.289z" fill="#172224" fill-opacity=".7"/></svg>