<svg width="64" height="64" fill="none" xmlns="http://www.w3.org/2000/svg"><path d="M20.013 9.258l-.023.012C13.963 12.75 8.875 21.35 8.895 28.474c.008 2.643.765 5.512 3.056 6.83 1.97 1.134 4.637.85 7.505-.806 6.133-3.541 11.105-12.163 11.085-19.22-.019-6.81-4.673-9.388-10.528-6.02zm-.633 5.289c1.495-.865 2.89-.07 2.896 1.654.004 1.468-.995 3.196-2.274 3.935-1.489.86-2.885.068-2.89-1.652-.004-1.472.992-3.2 2.268-3.937zm4.793 9.974a.59.59 0 01-.305.524L16.174 29.5c-.414.207-.913-.039-.913-.535v-.45c-.012-2.679 1.814-5.832 4.14-7.171 2.564-1.499 4.772-.16 4.772 2.727v.45z" fill="#172224" fill-opacity=".7"/><path d="M7.673 28.476c-.016-7.452 5.249-16.53 11.708-20.26 1.68-.971 3.503-1.513 4.74-1.62.02-.001.041-.007.061-.008l-1.563-.89c-1.98-1.152-4.648-.87-7.52.79C9.173 9.897 3.985 18.48 4 25.69c.014 3.265 1.094 5.689 3.038 6.824l1.667.948c-.013-.026-.021-.056-.034-.082-.69-1.445-.991-3.32-.998-4.904zm41.776 3.156c-6.1 3.521-11.114 12.132-11.095 19.203.008 2.662.759 5.509 3.056 6.83 1.971 1.134 4.636.85 7.505-.806C55.048 53.32 60.02 44.696 60 37.64c-.018-6.67-4.536-9.486-10.551-6.007zm-.612 5.282c1.59-.889 2.897-.001 2.897 1.643 0 1.474-.998 3.202-2.276 3.945-1.453.836-2.886.099-2.886-1.656 0-1.473.986-3.201 2.265-3.932zm4.796 9.97a.59.59 0 01-.304.524l-7.694 4.443c-.196.123-.462.105-.609 0a.575.575 0 01-.304-.523v-.45c-.012-2.679 1.802-5.832 4.139-7.183 2.65-1.507 4.772-.072 4.772 2.727v.462z" fill="#172224" fill-opacity=".7"/><path d="M37.132 50.837c-.016-7.505 5.327-16.575 11.709-20.26 1.748-1.01 3.417-1.505 4.74-1.619.02-.001.04-.007.06-.009l-1.563-.89c-.802-.466-1.716-.697-2.711-.697-7.297 0-15.928 11.365-15.908 20.69.014 3.265 1.093 5.689 3.038 6.823l1.667.949c-.012-.026-.02-.055-.033-.081-.671-1.407-.992-3.328-.999-4.906zM35.627 9.624c7.886 1.84 8.564 7.564 8.623 12.254l-2.041-1.734a.61.61 0 00-.788.928l3.077 2.614a.61.61 0 00.897-.12l2.112-3.09a.608.608 0 10-1.005-.688l-1.044 1.528c-.118-4.825-1.114-10.907-9.554-12.877a.608.608 0 10-.277 1.185zm-7.254 44.101c-7.774-1.816-8.543-7.404-8.62-12.055l1.571 1.622a.607.607 0 10.875-.847l-2.654-2.741a.608.608 0 00-.94.08l-2.111 3.09a.608.608 0 101.004.687l1.044-1.528c.118 4.825 1.115 10.907 9.554 12.877a.609.609 0 10.277-1.185z" fill="#172224" fill-opacity=".7"/></svg>