<svg width="64" height="64" fill="none" xmlns="http://www.w3.org/2000/svg"><path d="M20.858 26.13l-5.291-4.149c-.84.899-1.395 2.195-1.551 3.625l5.29 4.144c.248-1.383.787-2.64 1.552-3.62zm.938-.88L49.108 3.963l.099-.069L44.35.081a.75.75 0 00-.494-.065.886.886 0 00-.455.268L16.584 21.16l5.212 4.09zm-2.588 6.044L14 27.216l.019 14.88c.005.026.017.03.017.073l.02 15.645c-.022.221-.001.447.06.655.06.208.157.392.284.536l4.867 3.82v-.107l-.06-31.424zM50.938 6.17c0-1.266-.53-1.6-1.306-.997L22.056 26.658c-.523.468-.959 1.093-1.272 1.826a6.939 6.939 0 00-.536 2.4l.059 31.827c0 1.178.481 1.642 1.306.998l27.576-21.484c.524-.468.96-1.093 1.275-1.826A6.928 6.928 0 0051 37.997L50.938 6.17zM48.77 38.677c-20.368 15.87-13.66 10.65-25.724 20.043a.42.42 0 01-.259.093.421.421 0 01-.258-.093.643.643 0 01-.19-.255.896.896 0 01-.07-.349l-.058-27.304c0-.123.024-.244.07-.35a.649.649 0 01.189-.258l25.726-20.032a.42.42 0 01.258-.093c.091 0 .18.032.26.093a.64.64 0 01.189.255c.045.106.07.226.07.348l.057 27.306a.894.894 0 01-.07.348.641.641 0 01-.189.254v-.005z" fill="#172224" fill-opacity=".7"/><path d="M23.248 31.217l.054 25.694 1.36-1.06 4.605-15.27a.719.719 0 01.161-.291.461.461 0 01.248-.142.396.396 0 01.267.045.569.569 0 01.213.22l3.025 5.231 5.62-18.638a.718.718 0 01.161-.288.461.461 0 01.247-.14.39.39 0 01.267.045.564.564 0 01.213.222l6.886 11.94 1.42-1.107-.054-25.693-24.693 19.232zm8.615 5.586c-.246.263-.544.42-.857.452a1.255 1.255 0 01-.898-.272 1.995 1.995 0 01-.632-.903 2.788 2.788 0 01-.15-1.225c.031-.944.23-1.864.58-2.683.35-.82.84-1.513 1.429-2.024.248-.258.547-.412.86-.44.313-.03.625.068.897.279.271.211.49.526.629.906s.19.806.149 1.225a7.468 7.468 0 01-.58 2.673c-.35.815-.838 1.505-1.427 2.012z" fill="#172224" fill-opacity=".7"/></svg>