<svg width="64" height="64" fill="none" xmlns="http://www.w3.org/2000/svg"><path d="M27.004 54.879l4.026 3.47a4.032 4.032 0 004.045.201l8.544-4.978a1.011 1.011 0 00.607-.753v-1.256l-.02.012-8.54 4.975h-.006a5.393 5.393 0 01-4.885.014c-.42-.259-1.609-1.325-2.732-2.29l-1.039.605zM13.06 50.357v4.927a1.252 1.252 0 00.44 1.13l2.2 1.282c-.01-.185 0 1.174-.036-15.061l-.028-12.737a6.213 6.213 0 01.817-2.798 6.185 6.185 0 012.002-2.113L48.678 7.474a3.74 3.74 0 01.206-.11l-2.19-1.278a1.262 1.262 0 00-1.233.18l-30.22 17.505A5.055 5.055 0 0013 27.677l.053 22.667c.002.007.006.006.006.013z" fill="#B1FE33"/><path d="M31.337 55.549a4.27 4.27 0 003.755 0l8.538-4.985c1.02-.594.608-1.332-.375-1.684l-3.533-1.375-10.625 6.158c1.998 1.719 2.353 1.98 2.24 1.886zm5.566-16.745a.573.573 0 00.572-.578L37.434 23.6a.578.578 0 00-.984-.41.566.566 0 00-.164.413l.042 14.628a.578.578 0 00.575.574zm2.944-4.233a.571.571 0 00.572-.578l-.027-9.593a.577.577 0 00-.574-.575.574.574 0 00-.573.579l.027 9.593a.58.58 0 00.355.53c.07.03.144.044.22.044zm2.873-4.168a.57.57 0 00.53-.356.578.578 0 00.043-.221l-.014-4.595a.579.579 0 00-.574-.575.574.574 0 00-.573.578l.013 4.595a.578.578 0 00.574.574zM28.026 41.757a.573.573 0 00.573-.579l-.03-10.252a.577.577 0 00-.573-.575.548.548 0 00-.574.578l.029 10.254a.577.577 0 00.575.574zm2.903-4.522a.573.573 0 00.572-.578l-.013-4.594a.578.578 0 00-.575-.574.573.573 0 00-.572.577l.012 4.594a.577.577 0 00.576.575zm-5.839 3.824a.573.573 0 00.573-.578l-.015-5.463a.578.578 0 00-.575-.574.628.628 0 00-.573.579l.015 5.462a.578.578 0 00.356.53c.07.03.145.044.22.044zm8.856-2.925a.571.571 0 00.572-.578l-.028-9.86a.577.577 0 00-.573-.574.57.57 0 00-.572.578l.028 9.86a.576.576 0 00.573.574z" fill="#B1FE33"/><path d="M16.795 29.89l.025 12.765.032 14.836c0 1.184.688 1.546 1.69.961 10.274-6 16.483-9.575 30.213-17.508A5.07 5.07 0 0051 37.04l-.06-27.597c0-1.231-.742-1.517-1.69-.967l-30.21 17.51a5.072 5.072 0 00-2.245 3.905zM35.08 47.356l-1.735 1.006a.575.575 0 11-.574-.994l1.736-1.006a.573.573 0 01.804.646.576.576 0 01-.23.348zm12.983-35.851a.573.573 0 01.784.21.58.58 0 01.078.287l.06 23.985a.577.577 0 01-.288.5l-28.971 16.79a.572.572 0 01-.86-.498l-.061-23.984a.578.578 0 01.287-.5l28.973-16.791z" fill="#B1FE33"/></svg>