<svg width="64" height="64" fill="none" xmlns="http://www.w3.org/2000/svg"><path d="M25.678 39.878c.125.528.257 1.044.399 1.536 1.742 5.938 4.56 9.027 8.596 9.436l-.05-16.14-8.945 5.168zm8.905-18.336c-3.343 2.039-6.773 4.636-10.26 7.779.166 3.571.54 6.75 1.112 9.491l9.185-5.306-.037-11.964z" fill="#B1FE33"/><path d="M49.794 11.736a.432.432 0 00-.145-.074.433.433 0 00-.08-.024.68.68 0 00-.194-.007h-.015c-9.682 1.266-18.682 7.464-25.888 13.937-.667.6-1.336 1.214-2.007 1.851-.577.547-1.009 1.363-1.16 2.111-.177.902-.242 20.005 8.082 25.058 1.873 1.131 4.084 1.592 6.606 1.349 9.342-9.554 15.108-26.16 15.059-43.401.001-.364-.092-.654-.258-.8zm-3.99 16.308c-.003.015-.004.03-.009.044-.154.833-.305 1.667-.489 2.491-1.944 8.641-5.291 15.963-9.68 21.176a.52.52 0 01-.399.186h-.035c-4.776-.188-8.18-3.632-10.118-10.236-.98-3.397-1.587-7.63-1.805-12.583a.522.522 0 01.171-.41c3.908-3.54 7.754-6.42 11.431-8.559 3.956-2.289 7.814-3.777 11.532-4.466a.522.522 0 01.617.523 72.732 72.732 0 01-1.216 11.834z" fill="#B1FE33"/><path d="M20.75 26.657c.498-.472.996-.929 1.493-1.382 7.19-6.56 15.975-12.713 25.512-14.443.123-.022.247-.051.37-.072l-4.636-2.702a.582.582 0 00-.357-.05C32.64 9.376 22.865 16.553 15.225 23.795c-.738.703-1.243 1.813-1.224 2.7.206 7.93 1.395 20.562 8.297 24.573l2.166 1.257c-4.721-6.398-6.891-22.683-3.714-25.668z" fill="#B1FE33"/><path d="M35.662 32.904l9.168-5.297a71.658 71.658 0 001.13-10.769c-3.352.703-6.825 2.077-10.335 4.083l.037 11.983zm.051 17.042c3.842-4.996 6.802-11.72 8.575-19.595.102-.457.18-.922.273-1.383l-8.896 5.14.048 15.838z" fill="#B1FE33"/></svg>