<svg width="64" height="64" fill="none" xmlns="http://www.w3.org/2000/svg"><path d="M8.016 39.397l15.794 9.119.013-4.669-15.792-9.118-.015 4.668zm16.869-1.296l-.013 4.538 10-5.812-.031-4.508-9.956 5.782zm-2.688-5.675a5.7 5.7 0 014.565 0l4.657-2.692-10.011-5.781-4.721 2.735a1.8 1.8 0 01.535 1.246 1.831 1.831 0 01-.556 1.287l5.531 3.205zm-.439-5.118a3.722 3.722 0 013.441 0 1.353 1.353 0 01.009 2.5 3.722 3.722 0 01-3.441 0 1.355 1.355 0 01-.009-2.5z" fill="#B1FE33"/><path d="M34.168 31.318l-1.7-.982-5.427 3.137a.525.525 0 01-.523 0 4.587 4.587 0 00-4.07 0 .521.521 0 01-.521 0l-6.449-3.736a.522.522 0 010-.9c.45-.262.708-.588.707-.9-.001-.312-.25-.611-.683-.86a.521.521 0 010-.9l4.872-2.822-1.834-1.059-9.963 5.789.077.044.091.053.01.006.066.038 15.55 8.975 9.96-5.79-.163-.093zM8 45.147l15.793 9.119.014-4.547-15.795-9.118L8 45.147zm.641-17.024l.02.011-.015-.009-.005-.002zm-.349 1.011h-.005l-.243-.141-.013 4.537 15.795 9.12.012-4.543-15.546-8.973zm33.559-14.372a5.646 5.646 0 01-4.568 0L32.56 17.5l10.008 5.784 4.794-2.777a1.744 1.744 0 01.02-2.532l-5.531-3.213zm.436 5.127a3.75 3.75 0 01-3.439 0 1.35 1.35 0 01-.009-2.5 3.73 3.73 0 013.43 0 1.354 1.354 0 01.018 2.5zM24.854 48.508l10.059-5.842-.032-4.637-10.013 5.819-.014 4.66z" fill="#B1FE33"/><path d="M39.683 10l-10.028 5.822 1.862 1.076 5.493-3.184a.52.52 0 01.526 0 4.521 4.521 0 004.065 0 .517.517 0 01.524 0l6.449 3.746a.52.52 0 010 .9c-.921.537-.936 1.23-.022 1.759a.521.521 0 010 .9l-4.942 2.862 1.833 1.059 10.039-5.832L39.683 10zm6.274 26.244l10.011-5.808.014-4.675-10.022 5.83-.003 4.653zm.007-10.395v4.534l10.025-5.832.014-4.533-10.039 5.831zm-.011 16.147l10-5.811.014-4.54-10.008 5.806-.006 4.545zm-21.102 7.72l-.014 4.549 10.115-5.88-.031-4.518-10.07 5.849z" fill="#B1FE33"/><path d="M19.561 21.678l16.062 9.274a.52.52 0 01.261.452v.006l.109 16.393 8.913-5.179.011-16.775c-.885-.5-16.209-9.366-16.308-9.423l-9.048 5.252z" fill="#B1FE33"/></svg>