<svg width="64" height="64" fill="none" xmlns="http://www.w3.org/2000/svg"><path d="M45.36 14.537l-4.789 2.764a.527.527 0 01-.79-.455l-.016-5.64-16.772 9.683.1 35.111L45.44 43.1l-.08-28.563zm-19.974 8.516l11.674-6.739a.526.526 0 11.526.912l-11.674 6.74a.527.527 0 01-.526-.913zm17.75 17.9l-17.224 9.943a.53.53 0 01-.526-.917l17.224-9.943a.527.527 0 01.526.913v.004zm0-5.386l-17.224 9.944a.526.526 0 11-.526-.912l17.224-9.944a.527.527 0 01.526.912zm0-5.385l-17.224 9.944a.527.527 0 01-.526-.913l17.224-9.944a.527.527 0 01.526.913zm0-5.386L25.912 34.74a.527.527 0 01-.526-.912l17.224-9.944a.527.527 0 01.526.912zm0-5.384l-17.224 9.943a.527.527 0 01-.526-.913l17.224-9.943a.527.527 0 01.526.913zM35.294 8l-16.772 9.684 3.944 2.292 16.773-9.683L35.294 8z" fill="#B1FE33"/><path d="M40.833 15.925l4.014-2.317-4.027-2.388v1.288l.013 3.417zM21.94 20.889L18 18.599l.1 35.106 3.939 2.29-.099-35.106z" fill="#B1FE33"/></svg>