<svg width="64" height="64" fill="none" xmlns="http://www.w3.org/2000/svg"><path d="M36.007 46.281l.024-3.107c-.053.018-.108.03-.162.047a14.127 14.127 0 01-8.584.018c-.078-.025-.158-.043-.235-.07l-.024 3.093c-.01.584.424 1.16 1.218 1.623 2.916 1.672 7.73.438 7.763-1.604z" fill="#B1FE33"/><path d="M37.955 43.23a9.528 9.528 0 00-.886-.45l-.004.002-.027 3.51c-.038 2.601-3.844 3.651-6.532 3.346-1.01-.115-1.978-.402-2.778-.86-2.64-1.541-1.428-3.348-1.707-5.895-.254.117-.468.23-.66.343-5.06 2.936-1.696 7.412 4.642 8.121.08.01.164.006.245.014 8.119.775 13.638-4.692 7.707-8.131z" fill="#B1FE33"/><path d="M40.038 49.678c-2.022 2.018-5.5 2.78-8.333 2.78-3.095 0-6.965-.923-8.873-3.34l-.073 2.146c-.016 4.359 10.126 6.235 15.076 3.361 1.572-.914 2.439-2.095 2.443-3.326l.067-1.935c-.034.039-.081.073-.117.11-.063.069-.122.138-.19.205zM29.072 22.591c4.306.48 9.492-.257 12.942-2.819l.155-.12c-4.98-3.856-14.423-4.113-19.995-.876-.465.271-.875.544-1.238.826.103.057 2.737 2.388 8.136 2.99z" fill="#B1FE33"/><path d="M50.195 12.391a.775.775 0 00-1.156-.667L44.47 14.32C43.335 9.954 36.394 8 31.504 8c-5.062 0-13.059 2.3-13.032 7.358.007 1.368.709 2.59 1.683 3.565.441-.357.924-.702 1.5-1.038 5.847-3.395 15.933-3.221 21.293 1.084.783-.779 1.37-1.661 1.591-2.748.014-.068.028-.136.039-.204v-.007c.041-.015.084-.018.123-.04l3.955-2.249.002.42c.01 2.941-1.97 6.578-4.032 9.076v-4.634c-2.553 3.738-8.478 5.162-13.026 5.163h-.009c-4.689 0-10.595-1.508-13.12-5.22v6.476l-4.084 2.359a.773.773 0 00-.387.671l.005 1.74c.011 3.942 2.21 5.855 4.743 5.855.345 0 .702-.047 1.064-.116a12.976 12.976 0 002.498 3.52 12.967 12.967 0 009.246 3.84c1.534 0 3.359-.32 4.985-.994.072-.03.145-.058.215-.092 4.628-2.016 7.875-6.633 7.875-12V25.3a.752.752 0 00.423-.218c2.572-2.77 5.162-7.229 5.15-10.947l-.01-1.743zM17.267 33.703c-1.101-.633-1.71-2.03-1.715-3.934l-.004-1.293 2.924-1.689v2.999c0 1.478.264 2.91.734 4.266-.728.084-1.386-.03-1.94-.349z" fill="#B1FE33"/></svg>