<svg width="64" height="64" fill="none" xmlns="http://www.w3.org/2000/svg"><path d="M19.858 27.639l-5.291-3.436c-.84.744-1.395 1.817-1.551 3.002l5.29 3.432a6.31 6.31 0 011.552-2.998zm.938-.729L48.108 9.282l.099-.057-4.858-3.158a.89.89 0 00-.494-.053.94.94 0 00-.455.221L15.584 23.523l5.212 3.387zm-2.588 5.005L13 28.538l.019 12.323c.005.021.017.025.017.06l.02 12.956c-.022.184-.001.37.06.542.06.173.157.325.284.444l4.867 3.163v-.088l-.06-26.023zm31.73-20.805c0-1.05-.529-1.325-1.306-.826L21.056 28.076a4.37 4.37 0 00-1.272 1.512 4.93 4.93 0 00-.536 1.987l.059 26.358c0 .975.481 1.36 1.306.826l27.576-17.792c.524-.386.96-.904 1.275-1.512A4.922 4.922 0 0050 37.466l-.062-26.356zM47.77 38.03c-20.368 13.141-13.66 8.819-25.724 16.597a.478.478 0 01-.517 0 .553.553 0 01-.19-.212.632.632 0 01-.07-.288l-.058-22.611c0-.102.024-.202.07-.29a.558.558 0 01.189-.214l25.726-16.589a.477.477 0 01.517 0c.079.05.144.123.19.21.045.089.07.188.07.29l.057 22.612a.63.63 0 01-.07.288.552.552 0 01-.189.211v-.005z" fill="#B1FE33"/><path d="M22.248 31.851l.054 21.278 1.36-.878 4.605-12.645a.577.577 0 01.161-.24.468.468 0 01.514-.08.528.528 0 01.215.182l3.024 4.331 5.62-15.434a.578.578 0 01.161-.239.491.491 0 01.247-.116.46.46 0 01.267.037.522.522 0 01.213.184l6.886 9.888 1.42-.917-.054-21.277-24.693 15.926zm8.615 4.627a1.441 1.441 0 01-1.755.15 1.695 1.695 0 01-.632-.749 1.942 1.942 0 01-.15-1.015c.031-.782.23-1.544.58-2.222.35-.678.84-1.253 1.429-1.675.248-.215.547-.342.86-.366a1.45 1.45 0 01.897.232c.271.175.49.436.629.75.139.315.19.668.149 1.015a5.3 5.3 0 01-.58 2.213 4.681 4.681 0 01-1.427 1.667z" fill="#B1FE33"/></svg>