<svg width="658" height="319" fill="none" xmlns="http://www.w3.org/2000/svg"><path d="M21.355 34.75s-5.39 1.284-7.059 5.402C12.628 44.27 1 72.134 1 75.457a9.222 9.222 0 002.49 5.824l27.426 11.213s5.814-1.668 10.383-.834c4.57.834 7.483 8.724 12.051 9.558 4.57.833 23.692-.424 32.83-4.58 9.138-4.157 12.051-17.024 12.051-25.748s-2.913-17.447-5.403-19.102l-3.734-2.49" stroke="#263238" stroke-miterlimit="10"/><path d="M82.857 45.142s-2.914-2.489 4.569-1.283c7.482 1.206 26.181 25.748 32.419 33.638 6.237 7.89 12.462 8.313 17.441 3.322 4.98-4.99 1.284-11.212-.41-14.535-1.695-3.323-8.728-11.636-11.218-17.447-2.489-5.812-9.561-20.77-15.4-24.503-5.84-3.734-14.542-4.567-27.838.834-13.296 5.4-19.533 9.968-19.533 9.968m-36.539-.796l26.181-1.655" stroke="#263238" stroke-miterlimit="10"/><path d="M40.055 84.18c4.992-1.654 4.569-4.156 9.561-10.801 4.993-6.646 10.806-29.07 11.217-31.983a6.925 6.925 0 00-1.283-4.977l24.937 12.533M9.727 81.294h22.857a27.173 27.173 0 009.138-11.636c2.9-7.48 8.727-24.503 10.383-28.224a6.63 6.63 0 000-6.222" stroke="#263238" stroke-miterlimit="10"/><path d="M35.074 91.25s-11.64-6.236-6.237-5.402c5.403.834 17.454 8.3 26.182 8.3 8.727 0 12.051-4.977 16.21-11.622C75.385 75.88 85.345 58.01 85.345 52.62m36.989 40.695s7.059-9.134 13.707-.821c6.648 8.313-2.49 21.18-6.224 24.914-3.735 3.733-14.118 3.746-15.799 2.912a12.697 12.697 0 01-2.901-2.079M129.34 84.18l21.613 24.927s.41-6.645 4.158-9.557a37.988 37.988 0 015.39-3.733l-19.944-20.77m22.501 21.642h2.901s7.482 9.147 7.482 11.636c0 2.488-11.628 19.102-15.401 19.102-3.773 0-9.138-2.899-9.138-2.899s2.079-2.913 3.735-5.825c1.656-2.912 0-7.056 0-7.056s7.482 5.401 6.237 12.457m-118.331 23.67c7.546 1.667 21.292 1.911 24.038 3.284 3.324 1.655 10.794 22.425 10.794 22.425M34.239 93.738s-3.735 2.489-1.656 5.812c2.079 3.322 6.648 5.401 6.648 5.401s-6.237 6.645-4.992 9.557a8.08 8.08 0 010 5.812s-1.284 3.733-.835 5.811c.45 2.078.834 5.401.834 5.401s-2.49 12.047 2.49 14.959" stroke="#263238" stroke-miterlimit="10"/><path d="M148.928 124.476s-7.893 7.056-8.316 15.78c-.424 8.724-1.284 11.212-1.284 11.212m30.903-66.672a55.768 55.768 0 01-2.567 10.187M171 72.314a64.46 64.46 0 010 5.221m-62.387-56.896s25.348-4.58 47.371 17.434a50.03 50.03 0 0114.58 29.34" stroke="#263238" stroke-miterlimit="10"/><path d="M9.315 54.623a2.99 2.99 0 100-5.98 2.99 2.99 0 000 5.98zM70.6 102.808a2.99 2.99 0 10.001-5.979 2.99 2.99 0 00-.001 5.979zm-4.852 50.803a2.99 2.99 0 10.002-5.979 2.99 2.99 0 00-.002 5.979zm57.073-76.076a2.99 2.99 0 10-2.978 2.99 2.976 2.976 0 002.978-2.99zm-6.995-43.836a2.99 2.99 0 10.002-5.98 2.99 2.99 0 00-.002 5.98zM64.4 37.419a2.99 2.99 0 10.002-5.98 2.99 2.99 0 00-.002 5.98zM164.404 99.82a2.99 2.99 0 10.002-5.98 2.99 2.99 0 00-.002 5.98z" fill="#263238"/><path d="M524.004 34.15h-5.262M500.43 94.536h23.576a5.888 5.888 0 005.134-2.938l13.976-24.31a5.887 5.887 0 000-5.89l-14.002-24.297m-15.273-2.951h-17.967a5.904 5.904 0 00-5.134 2.95l-13.951 24.3a5.887 5.887 0 000 5.888l14.041 24.375a5.883 5.883 0 005.133 2.938m46.975 22.347l4.029 6.953a5.879 5.879 0 005.134 2.938h28.081a5.879 5.879 0 005.134-2.938l14.04-24.375a5.853 5.853 0 000-5.875l-8.29-14.356m-51.738 31.393l2.066 3.579m47.014-39.372l-3.17-5.49a5.888 5.888 0 00-5.133-2.952H552.1a5.888 5.888 0 00-5.133 2.951L532.926 93.78a5.862 5.862 0 000 5.876l4.146 7.197m5.069-94.563l-9.215 15.92a5.887 5.887 0 000 5.889l14.04 24.35a5.881 5.881 0 005.134 2.937h28.081a5.883 5.883 0 005.134-2.938l14.04-24.31a5.888 5.888 0 000-5.89l-1.052-1.629M546.965 3.938l-2.207 3.823m52.043 16.19L585.25 3.938A5.871 5.871 0 00580.117 1H552.1a5.5 5.5 0 00-1.373.167m85.541 32.175h-28.081a5.881 5.881 0 00-5.134 2.938l-14.002 24.272a5.887 5.887 0 000 5.889l14.04 24.375a5.881 5.881 0 005.134 2.938h28.081a5.897 5.897 0 005.134-2.938l14.028-24.375a5.887 5.887 0 000-5.889l-14.092-24.31a5.9 5.9 0 00-5.108-2.9zm-56.473 100.066h-28.082a5.875 5.875 0 00-5.133 2.937l-14.041 24.375a5.89 5.89 0 000 5.889l14.041 24.311a5.873 5.873 0 005.133 2.938h28.082a5.888 5.888 0 005.133-2.938l14.028-24.311a5.887 5.887 0 000-5.889l-14.028-24.375a5.886 5.886 0 00-5.133-2.937zm66.161 17.46l10.717-18.564a5.859 5.859 0 000-5.875l-14.041-24.375a5.89 5.89 0 00-5.134-2.95h-28.042a5.895 5.895 0 00-5.134 2.95l-14.04 24.375a5.863 5.863 0 000 5.875l14.04 24.375a5.894 5.894 0 005.134 2.951h22.485m5.594-.064a5.888 5.888 0 005.134-2.951l.847-1.462" stroke="#263238" stroke-miterlimit="10"/><path d="M580.091 105.723l3.427.77.796-3.464-3.286-.744v-.295a7.609 7.609 0 00-.629-3.066l2.67-2.13-2.221-2.784-2.566 2.04a7.707 7.707 0 00-3.081-1.642v-3.336h-3.568v3.182a7.997 7.997 0 00-3.221 1.45l-2.567-2.053-2.194 2.797 2.566 2.014a7.703 7.703 0 00-.834 3.387l-3.285.756.795 3.464 3.235-.744a7.839 7.839 0 002.079 2.707l-1.502 3.118 3.209 1.552 1.476-3.079a7.933 7.933 0 001.848.231c.5-.005.998-.057 1.488-.154l1.541 3.181 3.208-1.539-1.502-3.092a7.765 7.765 0 002.118-2.527zm-10.408-3.733a3.487 3.487 0 012.155-3.224 3.49 3.49 0 11-2.155 3.224zm-6.275-10.302l3.413.782.796-3.463-3.285-.757v-.295a7.893 7.893 0 00-.616-3.066l2.656-2.117-2.22-2.784-2.567 2.027a7.913 7.913 0 00-3.093-1.642v-3.31h-3.529v3.182a7.832 7.832 0 00-3.222 1.45l-2.567-2.053-2.207 2.784 2.567 2a7.773 7.773 0 00-.834 3.4l-3.286.745.796 3.463 3.234-.73a7.929 7.929 0 002.079 2.693l-1.501 3.13 3.208 1.54 1.476-3.079a7.3 7.3 0 001.848.23c.5 0 .998-.047 1.489-.14l1.54 3.181 3.208-1.54-1.488-3.104a7.842 7.842 0 002.105-2.527zm-10.422-3.733a3.486 3.486 0 012.155-3.224 3.493 3.493 0 014.76 2.543 3.487 3.487 0 01-3.424 4.17 3.49 3.49 0 01-3.491-3.49zm76.208-22.467c2.441-5.853-.327-12.576-6.182-15.016-5.855-2.44-12.581.327-15.022 6.18-2.441 5.853.327 12.576 6.183 15.016 5.855 2.44 12.58-.327 15.021-6.18z" stroke="#263238" stroke-miterlimit="10"/><path d="M618.594 70.828c5.387 0 9.754-4.365 9.754-9.75s-4.367-9.75-9.754-9.75-9.754 4.365-9.754 9.75 4.367 9.75 9.754 9.75z" stroke="#263238" stroke-miterlimit="10"/><path d="M631.52 73.214l7.61 6.312" stroke="#263238" stroke-width="3" stroke-miterlimit="10"/><path d="M626.949 69.43l4.569 3.784" stroke="#263238" stroke-width="2" stroke-miterlimit="10"/><path d="M492.512 56.665h34.139" stroke="#263238" stroke-miterlimit="10"/><path d="M499.815 54.78h-3.53v3.527h3.53v-3.528z" fill="#263238"/><path d="M492.512 64.657h34.139" stroke="#263238" stroke-miterlimit="10"/><path d="M518.053 62.784h-3.53v3.528h3.53v-3.528z" fill="#263238"/><path d="M492.512 72.663h34.139" stroke="#263238" stroke-miterlimit="10"/><path d="M509.928 70.777h-3.53v3.528h3.53v-3.528zm112.759 91.278a2.695 2.695 0 10.002-5.386 2.695 2.695 0 00-.002 5.386zm21.024-55.37a2.695 2.695 0 100-5.39 2.695 2.695 0 000 5.39zm-79.084-39.641a2.707 2.707 0 10-2.695 2.694 2.697 2.697 0 002.695-2.694zm28.787-53.304a2.694 2.694 0 10-2.695 2.693 2.71 2.71 0 002.695-2.694zM489.713 85.35a2.712 2.712 0 00-3.233-2.668 2.71 2.71 0 00-1.975 3.698 2.712 2.712 0 004.418.876c.506-.506.79-1.19.79-1.905zm83.744 41.207a2.695 2.695 0 10-2.695 2.694 2.707 2.707 0 002.695-2.694zm-35.09 44.837a2.691 2.691 0 00-1.664-2.489 2.694 2.694 0 101.664 2.489zm54.609-18.294a2.695 2.695 0 10.002-5.39 2.695 2.695 0 00-.002 5.39zm54.661-102.657a2.695 2.695 0 100-5.39 2.695 2.695 0 000 5.39zm-33.28 43.08a2.703 2.703 0 00-1.653-2.52 2.71 2.71 0 00-3.709 1.956 2.712 2.712 0 001.147 2.787 2.71 2.71 0 001.507.458 2.703 2.703 0 001.91-.78 2.7 2.7 0 00.798-1.901zM540.42 42.835a2.707 2.707 0 00-4.627-1.91 2.702 2.702 0 00.424 4.167 2.71 2.71 0 001.508.45 2.695 2.695 0 002.695-2.707z" fill="#263238"/><path d="M376.277 234.315v-65.774a3.31 3.31 0 01.966-2.344 3.289 3.289 0 012.346-.966h69.086a3.318 3.318 0 013.324 3.31v2.566m-69.867 71.098h-2.567a3.316 3.316 0 01-3.063-2.052 3.316 3.316 0 01-.248-1.271m75.745-63.336v63.336a3.324 3.324 0 01-3.324 3.323h-61.796" stroke="#263238" stroke-miterlimit="10"/><path d="M397.727 194.302v-7.261h32.816v33.355h-10.139m-22.677-16.588v-5.003m18.673 21.591h-18.673v-12.085m-5.907-42.49V145m14.875 20.821V145m14.875 20.821V145m14.875 20.821V145M391.82 263.219V242.41m14.875 20.809V242.41m14.875 20.809V242.41m14.875 20.809V242.41m15.993-60.604h20.829m-20.829 14.869h20.829m-20.829 14.869h20.829m-20.829 14.869h20.829M355 181.806h20.83M355 196.675h20.83M355 211.544h20.83M355 226.413h20.83" stroke="#263238" stroke-miterlimit="10"/><path d="M475.975 211.582a2.704 2.704 0 00-1.672-2.501 2.713 2.713 0 00-2.951.587 2.703 2.703 0 00-.587 2.95 2.71 2.71 0 002.502 1.671 2.705 2.705 0 002.708-2.707zm-89.85-45.761c0-.533-.158-1.053-.455-1.496a2.691 2.691 0 00-2.766-1.146 2.7 2.7 0 00-2.118 2.117 2.692 2.692 0 001.146 2.765 2.695 2.695 0 004.193-2.24zm-18.649 59.989a2.695 2.695 0 10-5.39 0 2.695 2.695 0 005.39 0zm54.094-71.394a2.694 2.694 0 10.002-5.388 2.694 2.694 0 00-.002 5.388zm-5.25 87.956a2.695 2.695 0 10-2.695 2.694 2.705 2.705 0 002.695-2.694zm22.858 14.445a2.71 2.71 0 10-5.208 1.029 2.71 2.71 0 002.512 1.665 2.696 2.696 0 002.696-2.694z" fill="#263238"/><path d="M337.944 48h-75.799a4.148 4.148 0 00-3.833 2.567 4.128 4.128 0 00-.312 1.59v38.769a4.119 4.119 0 001.21 2.933 4.138 4.138 0 002.935 1.21H303.6l-6.417 19.064 16.209-19.064h24.501a4.147 4.147 0 004.145-4.143v-38.77A4.156 4.156 0 00337.944 48zm-20.549 13.393h14.9m-25.014 0h6.122m-30.852 0h18.879m-31.059 0h7.393m50.002 9.777h4.53m-44.163 0h36.436m-54.198 0h14.041m42.291 9.775h5.596m-17.303 0h5.852m-38.567 0h27.658m-39.568 0h8.727" stroke="#263238" stroke-miterlimit="10"/><path d="M212.962 256.379c5.573-5.571 5.573-14.603 0-20.174-5.573-5.572-14.61-5.572-20.183 0-5.573 5.571-5.573 14.603 0 20.174 5.573 5.572 14.61 5.572 20.183 0z" stroke="#263238" stroke-linecap="round" stroke-linejoin="round"/><path d="M209.99 246.289a7.138 7.138 0 00-4.408-6.591 7.143 7.143 0 00-7.778 1.552 7.136 7.136 0 00-1.538 7.778 7.13 7.13 0 006.601 4.394 7.117 7.117 0 005.042-2.09 7.122 7.122 0 002.081-5.043zm52.221-41.925l9.921-8.031m-13.476 22.323l14.772-.706m-18.934 2.384c5.968-1.402 9.669-7.376 8.266-13.342-1.403-5.966-7.379-9.665-13.348-8.263-5.968 1.403-9.669 7.376-8.266 13.343 1.403 5.966 7.379 9.665 13.348 8.262z" stroke="#263238" stroke-linecap="round" stroke-linejoin="round"/><path d="M251.97 215.051a5.543 5.543 0 100-11.084 5.543 5.543 0 100 11.084zm24.014-16.768a4.35 4.35 0 10-4.351-4.349 4.35 4.35 0 004.351 4.349z" stroke="#263238" stroke-linecap="round" stroke-linejoin="round"/><path d="M278.15 193.934a2.169 2.169 0 10-4.337 0 2.169 2.169 0 004.337 0zm-1.166 25.684a4.35 4.35 0 10-4.351-4.349 4.35 4.35 0 004.351 4.349z" stroke="#263238" stroke-linecap="round" stroke-linejoin="round"/><path d="M279.164 215.269a2.176 2.176 0 00-1.338-2.024 2.183 2.183 0 00-2.982 1.581 2.182 2.182 0 104.32.443zm-88.989 37.358l-8.714 53.882h46.768l-12.681-52.291" stroke="#263238" stroke-linecap="round" stroke-linejoin="round"/><path d="M235.62 306.483h-62.643v11.956h62.643v-11.956zm-32.753-74.459l37.296-20.219m-23.038 34.484l28.543-26.94m13.773-18.397l12.103-7.338m-8.743 20.385l9.844 1.27m6.574-18.23l9.933 4.734 1.027-1.668-9.844-6.17m-.054 18.46l9.818-4.362.501 1.758-9.01 6.389" stroke="#263238" stroke-linecap="round" stroke-linejoin="round"/></svg>