<svg width="124" height="115" fill="none" xmlns="http://www.w3.org/2000/svg"><g clip-path="url(#clip0_7019_5589)"><path d="M123.822 79.74c0 .69-.457 1.377-1.369 1.9l-46.5 26.652a7.23 7.23 0 01-6.543 0L1.458 69.153C.566 68.659.12 67.959.12 67.277v2.38c0 .68.452 1.357 1.344 1.875l67.952 39.135a7.243 7.243 0 006.542 0l46.501-26.653c.912-.523 1.368-1.21 1.364-1.895v-2.38z" fill="#3A3A3A"/><path d="M122.477 77.87L54.525 38.73a7.245 7.245 0 00-6.547 0L1.488 65.377c-1.82 1.037-1.83 2.73-.03 3.771l67.952 39.14a7.243 7.243 0 006.542 0l46.495-26.653c1.821-1.031 1.831-2.724.03-3.766z" fill="#DBE0E6"/><path d="M72.684 109.186a6.777 6.777 0 01-3.333-.8L1.399 69.246C.496 68.725 0 68.024 0 67.269c0-.755.496-1.481 1.428-1.975l46.5-26.652a7.37 7.37 0 016.657 0l67.952 39.14c.903.523 1.399 1.224 1.399 1.974s-.496 1.48-1.429 1.974l-46.5 26.652a6.845 6.845 0 01-3.323.805zM51.252 38.059a6.598 6.598 0 00-3.21.76L1.543 65.47C.7 65.965.229 66.591.229 67.263c0 .671.456 1.303 1.285 1.781l67.952 39.14a7.108 7.108 0 006.448 0l46.5-26.652c.843-.494 1.314-1.12 1.314-1.792 0-.671-.456-1.303-1.284-1.782l-67.952-39.14a6.564 6.564 0 00-3.24-.76z" fill="#3A3A3A"/><path d="M119.446 77.09l-51.465 29.5L1.254 68.092l51.465-29.505 66.727 38.502z" fill="#fff"/><path d="M67.981 106.723l-.059-.03-66.9-38.601L52.72 38.478l66.96 38.636-.174.099-51.525 29.51zM1.489 68.092L67.98 106.46l51.237-29.371L52.72 38.72 1.488 68.092zm28.439-17.956l-6.086 3.5c-.189.103-.208.266-.05.36a.707.707 0 00.635 0l6.086-3.5c.188-.103.208-.266.045-.36a.698.698 0 00-.63 0z" fill="#3A3A3A"/><path d="M10.975 76.398a.418.418 0 01-.208-.059l-4.003-2.305a.851.851 0 01-.397-.69v-.1c0-.246.149-.36.303-.36.074 0 .146.023.208.064l4.003 2.305a.87.87 0 01.402.686v.109c0 .252-.154.36-.308.36v-.01z" fill="#fff"/><path d="M6.672 72.988a.294.294 0 01.154.05l3.997 2.304a.732.732 0 01.342.588v.108c0 .158-.074.247-.188.247a.333.333 0 01-.154-.044l-3.997-2.305a.747.747 0 01-.343-.593v-.098c0-.153.075-.247.189-.247v-.01zm0-.227a.439.439 0 00-.408.313.432.432 0 00-.014.18v.11a.984.984 0 00.461.789l3.998 2.305a.55.55 0 00.268.074.432.432 0 00.422-.494v-.108a.984.984 0 00-.462-.785L6.945 72.84a.558.558 0 00-.268-.079h-.005z" fill="#3A3A3A"/><path d="M11.407 75.599a.788.788 0 00-.114-.222.654.654 0 00-.194-.178l-4.002-2.305a.244.244 0 00-.244 0l-.248.143a.244.244 0 01.244.025l3.997 2.305a.669.669 0 01.199.178c.044.068.083.141.114.217a.693.693 0 01.03.192v.109a.235.235 0 01-.1.222l.248-.138a.242.242 0 00.104-.222v-.109a.658.658 0 00-.034-.217zm3.879 2.088a.615.615 0 00-.193-.183l-1.895-1.09a.243.243 0 00-.243 0l-.248.142a.249.249 0 01.243 0l1.895 1.091a.563.563 0 01.193.183c.05.065.09.139.114.217a.526.526 0 01.035.192v.109a.236.236 0 01-.104.222l.253-.143a.247.247 0 00.099-.222v-.109c0-.065-.01-.13-.03-.192a.928.928 0 00-.119-.217z" fill="#3A3A3A"/><path d="M14.995 78.698a.447.447 0 01-.208-.059l-1.89-1.09a.86.86 0 01-.397-.691v-.109c0-.247.149-.36.303-.36.074 0 .146.023.208.064l1.9 1.09a.867.867 0 01.396.692v.108a.31.31 0 01-.307.355h-.005z" fill="#fff"/><path d="M12.797 76.502a.295.295 0 01.154.05l1.895 1.09a.752.752 0 01.342.593v.108c0 .153-.08.242-.193.242a.32.32 0 01-.149-.044l-1.895-1.091a.733.733 0 01-.342-.592v-.109c0-.153.075-.247.188-.247zm0-.227a.434.434 0 00-.41.312.427.427 0 00-.011.182v.108a.984.984 0 00.461.79l1.895 1.09c.08.049.17.076.263.08a.433.433 0 00.41-.312.427.427 0 00.011-.182v-.108a.984.984 0 00-.456-.79l-1.895-1.09a.558.558 0 00-.268-.08z" fill="#3A3A3A"/><path d="M27.25 74.558L56.9 58.27V.217L27.25 16.144v58.413z" fill="#fff"/><path d="M27.121 74.775v-58.71l.07-.034L57.04 0v58.344l-.065.04-29.854 16.39zm.258-58.557V74.34l29.393-16.144V.449L27.379 16.22z" fill="#3A3A3A"/><path d="M30.252 29.18l7.113-3.89v-1.11l-7.113 3.889v1.11z" fill="#96999E"/><path d="M30.137 29.372v-1.367l7.34-4.018v1.382l-7.34 4.003zm.228-1.234v.849l6.884-3.761v-.844l-6.884 3.756z" fill="#3A3A3A"/><path d="M38.772 24.52l7.112-3.89v-1.11l-7.112 3.885v1.115z" fill="#96999E"/><path d="M38.658 24.708V23.34L46 19.328V20.7l-.06.03-7.28 3.978zm.228-1.234v.854l6.885-3.766v-.85l-6.885 3.762z" fill="#3A3A3A"/><path d="M47.998 19.471l5.7-3.114.004-1.11-5.704 3.113v1.111z" fill="#96999E"/><path d="M47.885 19.664v-1.368l5.952-3.242v1.367l-.06.034-5.892 3.209zm.228-1.234v.849l5.456-2.991v-.854l-5.456 2.996z" fill="#3A3A3A"/><path d="M30.246 32.101l15.203-8.316v-1.11L30.246 30.99v1.11z" fill="#96999E"/><path d="M30.133 32.279v-1.357l.06-.03 15.375-8.39v1.367l-.06.034-15.375 8.376zm.228-1.234v.849l14.974-8.173v-.854l-14.974 8.178z" fill="#3A3A3A"/><path d="M46.828 23.035l2.852-1.56v-1.11l-2.847 1.554-.005 1.116z" fill="#96999E"/><path d="M46.713 23.222v-1.367l3.075-1.683v1.367l-3.075 1.683zm.228-1.234v.854l2.624-1.421v-.87l-2.624 1.437z" fill="#3A3A3A"/><path d="M50.75 20.887l2.852-1.56v-1.115l-2.852 1.565v1.11z" fill="#96999E"/><path d="M50.637 21.08v-1.372l3.08-1.683v1.372l-3.08 1.683zm.228-1.239v.854l2.624-1.436v-.854l-2.624 1.436z" fill="#3A3A3A"/><path d="M30.24 35.023l6.557-3.588v-1.11l-6.557 3.588v1.11z" fill="#96999E"/><path d="M30.127 35.24v-1.397l6.785-3.711v1.372l-6.785 3.736zm.228-1.234v.85L36.69 31.4v-.883l-6.334 3.49z" fill="#3A3A3A"/><path d="M38.762 30.364l12.013-6.574.005-1.11-12.018 6.573v1.111z" fill="#96999E"/><path d="M38.648 30.556v-1.372l.06-.03 12.187-6.667v1.372l-.06.03-12.187 6.667zm.229-1.238v.854l11.785-6.447v-.853l-11.785 6.446z" fill="#3A3A3A"/><path d="M52.066 23.089l1.622-.888.005-1.111-1.627.883v1.116z" fill="#96999E"/><path d="M51.951 23.281v-1.367l1.855-1.012v1.367l-1.855 1.012zm.228-1.238v.858l1.39-.77v-.854l-1.39.765z" fill="#3A3A3A"/><path d="M30.23 37.945l9.811-5.365v-1.11l-9.806 5.364-.005 1.111z" fill="#96999E"/><path d="M30.123 38.138v-1.372l.06-.03 9.994-5.444v1.372l-.06.03-9.994 5.444zm.228-1.24v.855l9.578-5.242v-.849l-9.578 5.237z" fill="#3A3A3A"/><path d="M49.055 27.65l4.627-2.533v-1.11l-4.622 2.532-.005 1.11z" fill="#96999E"/><path d="M48.94 27.837v-1.362l4.85-2.656v1.367l-4.85 2.65zm.233-1.234v.854l4.394-2.404V24.2l-4.394 2.404z" fill="#3A3A3A"/><path d="M41.332 31.88l6.681-3.658v-1.11l-6.681 3.652v1.115z" fill="#96999E"/><path d="M41.217 32.072V30.7l.06-.035 6.834-3.746v1.367l-6.894 3.786zm.228-1.24v.855l6.448-3.534v-.85l-6.448 3.53z" fill="#3A3A3A"/><path d="M30.227 40.867l2.271-1.239v-1.11l-2.266 1.238-.005 1.11z" fill="#96999E"/><path d="M30.111 41.06v-1.378l2.48-1.367v1.367l-2.48 1.377zm.233-1.234v.844l2.044-1.12v-.855l-2.044 1.13z" fill="#3A3A3A"/><path d="M47.978 31.159l5.7-3.115V26.93l-5.7 3.119v1.11z" fill="#96999E"/><path d="M47.863 31.351V29.98l5.952-3.243v1.377l-5.952 3.238zm.228-1.234v.85l5.456-2.992v-.854l-5.456 2.996z" fill="#3A3A3A"/><path d="M33.504 39.075l13.09-7.161.004-1.11-13.09 7.156-.004 1.115z" fill="#96999E"/><path d="M33.39 39.263v-1.367l.06-.035 13.263-7.25v1.372l-.06.03-13.262 7.25zm.234-1.234v.854l12.856-7.038v-.85L33.624 38.03z" fill="#3A3A3A"/><path d="M30.223 43.789l12.816-7.004V35.67l-12.811 7.008-.005 1.11z" fill="#96999E"/><path d="M30.107 43.981V42.61l.06-.03 12.985-7.097v1.367l-.054.035-12.99 7.097zm.233-1.234v.85l12.584-6.876v-.859L30.34 42.747z" fill="#3A3A3A"/><path d="M44.262 36.109l9.409-5.148v-1.11l-9.41 5.147v1.111z" fill="#96999E"/><path d="M44.145 36.301v-1.367l.06-.034 9.582-5.237v1.367l-9.642 5.271zm.228-1.233v.854l9.196-5.025v-.854l-9.196 5.025z" fill="#3A3A3A"/><path d="M30.217 46.71l4.598-2.517v-1.11L30.217 45.6v1.11z" fill="#96999E"/><path d="M30.102 46.903v-1.372l.06-.03 4.76-2.605v1.367l-4.82 2.64zm.228-1.239v.854l4.39-2.394v-.853l-4.39 2.393z" fill="#3A3A3A"/><path d="M50.815 35.443l2.852-1.56v-1.11l-2.852 1.56v1.11z" fill="#96999E"/><path d="M50.701 35.635v-1.382l3.085-1.683v1.367l-3.085 1.698zm.228-1.234v.84l2.64-1.422v-.854l-2.64 1.436z" fill="#3A3A3A"/><path d="M35.89 43.611l2.114-1.16v-1.11l-2.113 1.155v1.115z" fill="#96999E"/><path d="M35.777 43.804V42.43l.06-.034 2.281-1.234v1.372l-2.34 1.269zm.228-1.24v.855l1.885-1.037v-.849l-1.885 1.032z" fill="#3A3A3A"/><path d="M39.074 41.864l9.84-5.38V35.37l-9.835 5.384-.005 1.11z" fill="#96999E"/><path d="M38.96 42.056V40.67l10.07-5.489v1.372l-.06.03-10.01 5.474zm.234-1.233v.834l9.608-5.237v-.859l-9.608 5.262z" fill="#3A3A3A"/><path d="M30.21 49.633l8.582-4.694.005-1.11-8.586 4.693v1.11z" fill="#96999E"/><path d="M30.098 49.82v-1.362l8.814-4.827v1.372l-.06.03-8.754 4.787zm.228-1.229v.85l8.362-4.571v-.85l-8.362 4.571z" fill="#3A3A3A"/><path d="M49.828 38.903l3.834-2.098v-1.11l-3.829 2.097-.005 1.11z" fill="#96999E"/><path d="M49.715 39.095v-1.387l4.057-2.22v1.371l-4.057 2.236zm.228-1.239v.84l3.626-1.975v-.834l-3.626 1.97z" fill="#3A3A3A"/><path d="M39.695 44.445l4.554-2.492.005-1.11L39.7 43.33l-.005 1.115z" fill="#96999E"/><path d="M39.586 44.618v-1.372l.06-.035 4.721-2.541v1.372l-4.781 2.576zm.228-1.239v.854l4.33-2.35v-.848l-4.33 2.344z" fill="#3A3A3A"/><path d="M45.457 41.291l2.961-1.618v-1.111l-2.956 1.619-.005 1.11z" fill="#96999E"/><path d="M45.344 41.479v-1.362l3.184-1.747v1.372l-3.184 1.737zm.233-1.229v.849l2.733-1.48v-.864l-2.733 1.495z" fill="#3A3A3A"/><path d="M30.207 52.554l6.066-3.321.005-1.11-6.071 3.321v1.11z" fill="#96999E"/><path d="M30.094 52.747v-1.372l6.299-3.455v1.367l-.06.03-6.24 3.43zm.228-1.234v.849l5.838-3.193v-.854l-5.838 3.198z" fill="#3A3A3A"/><path d="M52.397 40.413l1.254-.686V38.62l-1.255.681v1.11z" fill="#96999E"/><path d="M52.283 40.605v-1.367l1.488-.81v1.368l-1.488.81zm.228-1.234v.854l1.057-.543v-.873l-1.057.562z" fill="#3A3A3A"/><path d="M37.225 48.715l5.704-3.12v-1.11l-5.7 3.12-.004 1.11z" fill="#96999E"/><path d="M37.11 48.907v-1.372l.054-.03 5.873-3.213v1.372l-5.928 3.243zm.227-1.239v.854l5.456-2.99v-.855l-5.456 2.991z" fill="#3A3A3A"/><path d="M43.603 45.225l7.445-4.072.005-1.11-7.45 4.072v1.11z" fill="#96999E"/><path d="M43.49 45.418V44.05l7.678-4.2v1.372l-.06.03-7.618 4.166zm.228-1.234v.854l7.217-3.949v-.854l-7.217 3.949z" fill="#3A3A3A"/><path d="M30.197 55.477l11.468-6.269v-1.115l-11.463 6.273-.005 1.11z" fill="#96999E"/><path d="M30.082 55.669v-1.372l.06-.03 11.63-6.362v1.367l-.059.035-11.631 6.362zm.233-1.239v.854l11.24-6.145v-.854l-11.24 6.145z" fill="#3A3A3A"/><path d="M42.953 48.502l3.918-2.147.005-1.11-3.923 2.147v1.11z" fill="#96999E"/><path d="M42.84 48.695v-1.372l4.151-2.27v1.372l-4.151 2.27zm.228-1.239v.854l3.695-2.019v-.854l-3.695 2.019z" fill="#3A3A3A"/><path d="M47.95 45.768l5.698-3.12v-1.11l-5.699 3.12v1.11z" fill="#96999E"/><path d="M47.834 45.96v-1.342l5.952-3.243v1.367l-5.952 3.219zm.228-1.233v.849l5.456-2.991v-.854l-5.456 2.996z" fill="#3A3A3A"/><path d="M30.197 58.398l3.492-1.91v-1.115l-3.492 1.91v1.115z" fill="#96999E"/><path d="M30.082 58.59v-1.37l3.72-2.034v1.367l-3.72 2.039zm.228-1.238v.854l3.264-1.787v-.854l-3.264 1.787z" fill="#3A3A3A"/><path d="M51.346 46.83l2.296-1.26.005-1.11-2.301 1.259v1.11z" fill="#96999E"/><path d="M51.23 47.022V45.65l2.53-1.382v1.372l-2.53 1.382zm.229-1.24v.855l2.068-1.13v-.854l-2.068 1.13z" fill="#3A3A3A"/><path d="M34.664 55.95l3.68-2.014.005-1.11-3.68 2.014-.005 1.11z" fill="#96999E"/><path d="M34.557 56.143V54.77l3.908-2.138v1.363l-3.908 2.147zm.228-1.234v.849l3.472-1.886v-.863l-3.472 1.9z" fill="#3A3A3A"/><path d="M39.268 53.433l10.971-6.002.005-1.11-10.976 6.002v1.11z" fill="#96999E"/><path d="M39.154 53.626v-1.373l.06-.03 11.145-6.095V47.5l-.06.03-11.145 6.096zm.228-1.234v.848l10.744-5.873v-.854l-10.743 5.879z" fill="#3A3A3A"/><path d="M30.191 61.32l6.617-3.623.005-1.11-6.622 3.623v1.11z" fill="#96999E"/><path d="M30.078 61.513v-1.367l6.85-3.752v1.373l-6.85 3.746zm.223-1.234v.849l6.404-3.495v-.854l-6.404 3.5z" fill="#3A3A3A"/><path d="M48.398 51.36l5.238-2.867v-1.111l-5.238 2.868v1.11z" fill="#96999E"/><path d="M48.285 51.553v-1.368l5.456-2.995v1.377l-5.456 2.986zm.223-1.234v.853l5.015-2.744v-.849l-5.015 2.74z" fill="#3A3A3A"/><path d="M37.36 57.396l10.177-5.567v-1.11l-10.173 5.567-.005 1.11z" fill="#96999E"/><path d="M37.246 57.589v-1.367l10.416-5.696v1.372l-.06.03-10.356 5.66zm.233-1.234v.849l9.95-5.43v-.853l-9.95 5.434z" fill="#3A3A3A"/><path d="M30.182 64.242l4.171-2.28v-1.116l-4.171 2.286v1.11z" fill="#96999E"/><path d="M30.068 64.435v-1.373l4.4-2.403v1.367l-4.4 2.409zm.229-1.24v.855l3.928-2.157v-.854l-3.928 2.157z" fill="#3A3A3A"/><path d="M35.023 61.592l5.645-3.085v-1.11l-5.64 3.084-.005 1.11z" fill="#96999E"/><path d="M34.908 61.784v-1.372l.055-.03 5.808-3.178v1.367l-.06.035-5.803 3.178zm.233-1.234v.85l5.417-2.962v-.85L35.14 60.55z" fill="#3A3A3A"/><path d="M41.77 57.9l11.864-6.486v-1.11l-11.86 6.49-.005 1.106z" fill="#96999E"/><path d="M41.664 58.092v-1.367l.06-.03 12.028-6.584v1.372l-.06.035-12.028 6.574zm.228-1.234v.854l11.636-6.362v-.854l-11.636 6.362z" fill="#3A3A3A"/><path d="M34.422 11.777l-3.586 1.89a.643.643 0 00-.333.661 45.28 45.28 0 01.367 9.871l2.287-3.603 2.649 1.318c.2-3.232.058-6.476-.422-9.679a.654.654 0 00-.665-.537.662.662 0 00-.297.079z" fill="#D2FC1B"/><path d="M30.724 24.634l.03-.46c.238-3.28.115-6.577-.368-9.831a.761.761 0 01.397-.78l3.586-1.89a.786.786 0 01.72 0 .762.762 0 01.416.562 46.66 46.66 0 01.422 9.68v.182l-2.713-1.382-2.49 3.919zm3.754-12.754l-3.586 1.895a.495.495 0 00-.268.533 44.6 44.6 0 01.392 9.422l2.098-3.297 2.6 1.303c.184-3.163.04-6.337-.432-9.471a.492.492 0 00-.288-.39.543.543 0 00-.496 0l-.02.005z" fill="#3A3A3A"/><mask id="a" style="mask-type:luminance" maskUnits="userSpaceOnUse" x="2" y="-7" width="118" height="114"><path d="M119.715 76.813L68.489 106.18 2.074 67.86 42.037-6.22l77.678 83.032z" fill="#fff"/></mask><g mask="url(#a)"><path d="M86.982 75.165c-2.48-5.474-10.346-14.57-16.284-17.69-5.937-3.119.313 16.614 3.522 19.743 3.21 3.129 17.702 8.928 12.762-2.053z" fill="#96999E"/><path d="M84.875 81.635c-3.472 0-8.804-2.512-10.709-4.368-1.294-1.258-3.16-5.29-4.538-9.802-1.518-4.985-1.89-8.692-.992-9.92.437-.598 1.14-.642 2.093-.144 6.051 3.184 13.888 12.3 16.323 17.734 1.354 3.016 1.364 5.02.03 5.923-.66.41-1.43.61-2.207.577zM69.593 57.224a.997.997 0 00-.823.414c-1.984 2.705 2.852 16.934 5.505 19.516 2.366 2.3 10.064 5.641 12.718 3.8 1.27-.878 1.24-2.818-.084-5.755-2.43-5.429-10.223-14.49-16.25-17.655a2.33 2.33 0 00-1.066-.32z" fill="#3A3A3A"/><path d="M81.145 79.538l-1.547.863c-.412.227-1.042-.143-1.404-.814l-35.37-65.644.54-.3L81.18 77.937c.387.642.372 1.373-.035 1.6z" fill="#3A3A3A"/><path d="M91.293 112.843c.211-.272.378-.575.496-.898.109-.296.382-24.12.536-31.48.153-7.359 1.021-8.765-1.092-10.957-2.113-2.191-17.052-14.362-18.798-16.174-1.746-1.811-4.519-3.1-5.173-2.305-.794.988-.293 2.725.838 4.768a13.164 13.164 0 003.214 3.593 41.257 41.257 0 009.424 10.627s4.494 5.528 2.48 8.148c-2.227 2.873-4.638-.765-7.316-5.606-2.678-4.842-6.16-6.945-7.36-6.283-1.2.661.282 3.726 1.12 5.236.839 1.51 1.488 11.382 3.04 16.52 1.553 5.138 4.34 8.02 5.75 10.552 3.219 5.804 1.81 14.254 1.81 14.254a10.734 10.734 0 007.53 1.866 5.285 5.285 0 003.5-1.861z" fill="#DBE0E6"/><path d="M86.408 114.936a11.157 11.157 0 01-6.26-1.974l-.064-.045v-.079c0-.084 1.369-8.474-1.796-14.175-.406-.73-.942-1.51-1.512-2.334-1.404-2.044-3.15-4.58-4.241-8.243-.823-2.749-1.389-6.767-1.885-10.305-.416-2.962-.774-5.509-1.15-6.19-.72-1.293-1.87-3.637-1.528-4.812a.956.956 0 01.451-.592 1.64 1.64 0 011.24-.03c1.642.494 4.226 2.62 6.294 6.362 1.717 3.1 3.69 6.416 5.427 6.555.595.044 1.145-.267 1.681-.987 1.95-2.518-2.415-7.942-2.48-7.996a41.652 41.652 0 01-9.4-10.622 13.212 13.212 0 01-3.233-3.617c-1.3-2.35-1.577-3.998-.823-4.906a.864.864 0 01.68-.282c1.165-.044 3.263 1.116 4.676 2.581.829.86 4.628 4.053 8.65 7.404 4.465 3.731 9.038 7.596 10.149 8.746 1.602 1.658 1.532 2.853 1.324 6.416-.07 1.22-.159 2.734-.198 4.645-.065 2.961-.144 8.706-.228 14.264-.164 11.593-.254 17.077-.318 17.274-.116.335-.283.65-.496.933a5.465 5.465 0 01-3.596 1.915 9.29 9.29 0 01-1.364.094zm-6.056-2.152a10.605 10.605 0 007.4 1.806 5.187 5.187 0 003.438-1.821c.2-.262.36-.553.47-.864.06-.32.19-9.274.303-17.176.085-5.557.164-11.302.228-14.263.04-1.915.13-3.456.199-4.655.203-3.455.268-4.63-1.255-6.209-1.101-1.145-5.69-5-10.128-8.73-4.028-3.382-7.832-6.58-8.67-7.444-1.325-1.377-3.334-2.512-4.435-2.512h-.054a.648.648 0 00-.496.192c-.68.82-.392 2.38.853 4.63a13.194 13.194 0 003.18 3.554l.034.034a41.703 41.703 0 009.37 10.597c.208.247 4.553 5.651 2.48 8.317-.586.755-1.226 1.1-1.9 1.06-1.677-.128-3.393-2.65-5.62-6.682-2.038-3.677-4.558-5.785-6.15-6.244a1.41 1.41 0 00-1.047 0 .672.672 0 00-.337.44c-.328 1.135.942 3.612 1.488 4.63.397.72.744 3.173 1.175 6.272.472 3.357 1.057 7.537 1.875 10.271 1.086 3.628 2.817 6.145 4.211 8.169.576.834 1.116 1.619 1.528 2.36 3.07 5.492 1.994 13.399 1.86 14.268z" fill="#3A3A3A"/></g><path d="M81.84 93.91c-5.455 0-9.07-2.522-9.483-6.58h.248c.397 3.92 3.939 6.358 9.236 6.358 5.416 0 10.064-2.818 10.366-6.288h.243c-.322 3.613-5.084 6.51-10.61 6.51z" fill="#3A3A3A"/><path d="M95.61 87.316v3.317l-17.36 9.95-5.57-9.664.357-1.194c1.071 2.468 4.498 4.215 8.789 4.215 5.486 0 10.183-2.893 10.485-6.417.013-.18.013-.362 0-.542l3.299.335z" fill="#fff" opacity=".7"/><path d="M51.266 66.74a1.305 1.305 0 00-1.186 0L30.414 78.625a.362.362 0 00-.244.34.359.359 0 00.244.34l13.392 7.873 20.832-12.162-13.372-8.276z" fill="#3A3A3A"/><path d="M51.262 65.506a1.305 1.305 0 00-1.185 0L30.415 76.803a.357.357 0 00-.255.34.354.354 0 00.255.341l13.367 7.69 20.833-12.161-13.353-7.507z" fill="#96999E"/><path d="M43.782 85.263l-13.392-7.71a.495.495 0 01-.283-.41.492.492 0 01.283-.409l19.666-11.297a1.38 1.38 0 011.265 0l13.496 7.57-21.035 12.256zm6.885-19.822a1.12 1.12 0 00-.55.134L30.454 76.872a.342.342 0 00-.209.272c0 .099.075.192.209.271l13.327 7.675L64.48 73.013l-13.253-7.438a1.126 1.126 0 00-.56-.133z" fill="#3A3A3A"/><path d="M43.781 84.992l20.857-11.98-.005 2.187-20.847 11.979-.005-2.186z" fill="#D2FC1B"/><path d="M30.852 79.084V77.84l12.682 7.295-.005 1.406-12.677-7.457z" fill="#fff"/><path d="M30.94 77.998l12.505 7.19v1.195L30.94 79.034v-1.036zm-.188-.311v1.456l12.856 7.561.04-1.614-12.896-7.403z" fill="#3A3A3A"/><path d="M43.781 84.992l20.857-11.98-.005 2.187-20.847 11.979-.005-2.186z" fill="#96999E"/><path d="M43.707 87.316v-2.369l.04-.025 20.976-12.047v2.369h-.04L43.707 87.316zm.159-2.28v2.028L64.554 75.18v-2.003l-20.688 11.86zm4.366-21.559a1.32 1.32 0 00-1.185 0l-19.666 11.89a.362.362 0 00-.244.34.359.359 0 00.244.341l13.392 7.872 20.832-12.16-13.373-8.283z" fill="#3A3A3A"/><path d="M48.227 62.248a1.295 1.295 0 00-1.18 0L27.381 73.541a.362.362 0 00-.244.34.36.36 0 00.244.34l13.392 7.69 20.832-12.16-13.377-7.503z" fill="#fff"/><path d="M40.752 82.02l-.044-.03-13.392-7.69a.45.45 0 01-.211-.673.45.45 0 01.21-.165l19.667-11.298a1.4 1.4 0 011.275 0l13.51 7.581L40.753 82.02zm6.865-19.826c-.19-.004-.377.04-.546.128L27.425 73.62a.273.273 0 00-.2.261.27.27 0 00.2.262l13.327 7.665L61.42 69.755l-13.238-7.433a1.14 1.14 0 00-.565-.128z" fill="#3A3A3A"/><path d="M40.75 81.729L61.602 69.75v2.187L40.75 83.92v-2.19z" fill="#D2FC1B"/><path d="M27.816 75.826v-1.249l12.688 7.295-.01 1.412-12.678-7.458z" fill="#fff"/><path d="M27.91 74.725l12.5 7.192v1.199l-12.5-7.34v-1.05zm-.183-.31v1.48l12.856 7.562v-1.62l-12.866-7.403.01-.02z" fill="#3A3A3A"/><path d="M40.75 81.729L61.602 69.75v2.187L40.75 83.92v-2.19z" fill="#fff"/><path d="M40.672 84.073V81.68l.045-.025 20.985-12.058v2.394l-.044.03-20.986 12.052zm.178-2.29v1.974l20.654-11.87v-1.974L40.85 81.783zm7.758-22.664a1.294 1.294 0 00-1.18 0L27.745 71.004a.362.362 0 00-.244.34.359.359 0 00.244.341l13.392 7.872L61.97 67.396l-13.362-8.277z" fill="#3A3A3A"/><path d="M27.776 69.79a.337.337 0 01-.204-.262c0-.099.075-.188.204-.262l19.676-11.322a1.16 1.16 0 01.546-.128 1.12 1.12 0 01.55.133l13.238 7.428L41.113 77.45l-13.337-7.66z" fill="#D2FC1B"/><path d="M47.997 57.944c.172-.003.343.038.496.119l13.099 7.349-20.48 11.93-13.278-7.636c-.099-.055-.154-.124-.154-.183s.055-.128.154-.187l19.667-11.298c.153-.079.323-.118.496-.113v.02zm0-.182a1.215 1.215 0 00-.59.143L27.74 69.183a.362.362 0 00-.244.34.359.359 0 00.244.34l13.392 7.69 20.832-12.16-13.357-7.508a1.22 1.22 0 00-.596-.143l-.014.02z" fill="#3A3A3A"/><path d="M41.113 77.37L61.97 65.393v2.187L41.118 79.557l-.005-2.186z" fill="#D2FC1B"/><path d="M28.184 71.463v-1.244l12.682 7.295-.005 1.407-12.677-7.458z" fill="#fff"/><path d="M28.273 70.377l12.504 7.191v1.195l-12.505-7.35v-1.036zm-.18-.316v1.456l12.857 7.567v-1.62l-12.866-7.403h.01z" fill="#3A3A3A"/><path d="M41.207 77.42l20.668-11.875v1.98L41.207 79.398V77.42z" fill="#D2FC1B"/><path d="M61.787 65.703v1.772l-20.49 11.771v-1.771l20.49-11.772zm.184-.31L41.139 77.37v2.186L61.97 67.58v-2.187z" fill="#3A3A3A"/></g><defs><clipPath id="clip0_7019_5589"><path fill="#fff" d="M0 0h124v115H0z"/></clipPath></defs></svg>