<svg width="128" height="94" fill="none" xmlns="http://www.w3.org/2000/svg"><g clip-path="url(#clip0_7019_6247)"><path d="M79.197 84.305l-.186-.345 6.22-3.438a1.7 1.7 0 00.638-.622 1.734 1.734 0 00.017-1.734 1.703 1.703 0 00-.626-.635l-12.148-6.9a1.683 1.683 0 00-1.657 0l-7.607 4.246a2.052 2.052 0 01-2.038 0l-9.242-5.393a2.093 2.093 0 01-.77-.781 2.133 2.133 0 01.021-2.132 2.09 2.09 0 01.785-.766l12.356-6.703.187.349-12.356 6.681a1.702 1.702 0 00-.638.623 1.734 1.734 0 00-.017 1.733c.149.265.365.484.626.636L62 74.517a1.69 1.69 0 001.661 0l7.604-4.246a2.059 2.059 0 012.038 0l12.147 6.904c.321.185.587.454.771.78a2.133 2.133 0 01-.017 2.13 2.09 2.09 0 01-.783.768l-6.224 3.452zM65.05 81.993l-.552-.045a.613.613 0 00-.059-.044l-46.058-26.97a1.205 1.205 0 00-1.219 0L.697 64.584a.73.73 0 00-.084.067l-.523.041v.961a1.251 1.251 0 00.607 1.058l46.059 26.985a1.202 1.202 0 001.222 0l16.465-9.65a1.239 1.239 0 00.611-1.069l-.004-.984z" fill="#3A3A3A"/><path d="M.698 63.538l16.466-9.65a1.211 1.211 0 011.218 0L64.44 80.874c.186.11.34.266.447.454a1.253 1.253 0 01-.447 1.692l-16.465 9.65a1.202 1.202 0 01-1.222 0L.698 65.698a1.23 1.23 0 01-.455-.455 1.253 1.253 0 01.455-1.705z" fill="#96999E"/><path d="M47.368 92.924c-.23 0-.455-.06-.655-.175L.655 65.761a1.32 1.32 0 01-.48-.486 1.344 1.344 0 01.48-1.815l16.465-9.65a1.296 1.296 0 011.31 0l46.055 26.995c.199.116.364.284.479.486a1.344 1.344 0 01-.48 1.815l-16.465 9.65a1.32 1.32 0 01-.65.168zM17.771 53.82c-.198 0-.393.053-.563.156L.743 63.626a1.143 1.143 0 00-.414.422 1.164 1.164 0 00.414 1.568L46.8 92.601a1.122 1.122 0 001.13 0l16.466-9.65a1.163 1.163 0 000-1.99L18.338 53.976a1.107 1.107 0 00-.567-.156z" fill="#DBE0E6"/><path d="M58.866 80.745l1.463.862a.768.768 0 00.787 0l.42-.253a.317.317 0 00.162-.278.322.322 0 00-.161-.279l-1.464-.86a.792.792 0 00-.79 0l-.42.252a.32.32 0 00-.156.28.327.327 0 00.159.276zm-5.05-2.958l1.463.861a.767.767 0 00.787 0l.424-.252a.321.321 0 00.157-.279.327.327 0 00-.157-.278l-1.463-.861a.784.784 0 00-.787 0l-.42.256a.317.317 0 00-.16.275.323.323 0 00.156.278zm-2.528-1.477l1.463.861a.784.784 0 00.787 0l.42-.252a.316.316 0 00.162-.279.322.322 0 00-.161-.278l-1.464-.861a.767.767 0 00-.786 0l-.425.252a.32.32 0 00-.155.28.327.327 0 00.159.277zm-2.526-1.481l1.464.86a.768.768 0 00.787 0l.42-.251a.317.317 0 00.161-.279.322.322 0 00-.16-.278l-1.464-.861a.785.785 0 00-.787 0l-.42.252a.316.316 0 00-.161.278.323.323 0 00.16.279zm-5.054-2.959l1.463.862a.767.767 0 00.787 0l.425-.253a.32.32 0 00.156-.278.326.326 0 00-.157-.278l-1.463-.862a.785.785 0 00-.787 0l-.424.253a.32.32 0 00-.157.278.327.327 0 00.157.279zm-2.522-1.477l1.464.861a.785.785 0 00.786 0l.421-.256a.316.316 0 00.16-.278.322.322 0 00-.16-.278l-1.464-.862a.792.792 0 00-.79 0l-.42.256a.317.317 0 00-.16.28.324.324 0 00.163.277zm-2.526-1.481l1.464.861a.768.768 0 00.787 0l.42-.252a.318.318 0 00.161-.278.323.323 0 00-.16-.279l-1.464-.86a.785.785 0 00-.787 0l-.42.252a.316.316 0 00-.161.278.323.323 0 00.16.278zm-5.053-2.958l1.464.861a.768.768 0 00.787-.004l.42-.252a.316.316 0 00.161-.278.324.324 0 00-.16-.279l-1.464-.86a.768.768 0 00-.787 0l-.424.252a.321.321 0 00-.159.28.327.327 0 00.162.28zm-2.506-1.477l1.464.85a.767.767 0 00.786 0l.421-.252a.318.318 0 00.16-.279.323.323 0 00-.16-.278l-1.464-.861a.784.784 0 00-.786 0l-.421.256a.316.316 0 00-.167.282.323.323 0 00.167.282zm-2.544-1.481l1.464.86a.792.792 0 00.79 0l.421-.252a.316.316 0 00.16-.278.322.322 0 00-.16-.278l-1.464-.861a.768.768 0 00-.786 0l-.421.252a.318.318 0 00-.163.277.324.324 0 00.16.28zm-2.527-1.477l1.463.857a.767.767 0 00.787 0l.421-.252a.316.316 0 00.16-.279.322.322 0 00-.16-.278l-1.464-.861a.785.785 0 00-.786 0l-.425.256a.321.321 0 00-.155.28.327.327 0 00.159.277zm29.713 21.056l1.463.861a.785.785 0 00.787 0l1.463-.86a.317.317 0 00.161-.28.323.323 0 00-.16-.278l-1.464-.86a.768.768 0 00-.787 0l-1.463.86a.316.316 0 00-.161.279.322.322 0 00.16.278zm-2.527-1.481l1.463.861a.784.784 0 00.787 0l1.463-.86a.317.317 0 00.161-.28.323.323 0 00-.16-.278l-1.464-.86a.785.785 0 00-.787 0l-1.463.86a.321.321 0 00-.157.279.327.327 0 00.157.278zm-2.526-1.477l1.464.857a.768.768 0 00.786 0l1.464-.857a.317.317 0 00.16-.279.322.322 0 00-.16-.278l-1.464-.86a.767.767 0 00-.786 0l-1.464.861a.318.318 0 00-.16.278.323.323 0 00.16.279zm-2.524-1.481l1.464.861a.785.785 0 00.787 0l1.463-.861a.317.317 0 00.161-.278.322.322 0 00-.16-.279l-1.464-.86a.786.786 0 00-.787 0l-1.464.86a.317.317 0 00-.16.279.322.322 0 00.16.278zm-2.528-1.481l1.464.861a.767.767 0 00.786 0l1.464-.861a.317.317 0 00.157-.277.322.322 0 00-.157-.276l-1.464-.861a.768.768 0 00-.786 0l-1.464.86a.317.317 0 00-.157.277.322.322 0 00.157.277zm-2.526-1.477l1.463.86a.785.785 0 00.787 0l1.464-.86a.32.32 0 00.157-.279.326.326 0 00-.157-.278l-1.464-.861a.785.785 0 00-.787 0l-1.463.861a.316.316 0 00-.16.278.323.323 0 00.16.279zm-2.524-1.481l1.464.86a.768.768 0 00.787 0l1.463-.86a.318.318 0 00.16-.279.323.323 0 00-.16-.278l-1.463-.861a.786.786 0 00-.787 0l-1.464.861a.317.317 0 00-.16.278.322.322 0 00.16.279zm-2.537-1.477l1.464.86a.785.785 0 00.787 0l1.463-.86a.318.318 0 00.16-.279.323.323 0 00-.16-.278l-1.463-.861a.786.786 0 00-.787 0l-1.464.86a.317.317 0 00-.16.28.322.322 0 00.16.278zm-2.515-1.481l1.463.86a.767.767 0 00.787 0l1.464-.86a.321.321 0 00.157-.279.327.327 0 00-.157-.278l-1.464-.861a.785.785 0 00-.787 0l-1.463.86a.32.32 0 00-.157.28.327.327 0 00.157.278zm-2.526-1.478l1.464.861a.785.785 0 00.787 0l1.463-.86a.318.318 0 00.16-.28.323.323 0 00-.16-.278l-1.463-.86a.767.767 0 00-.787 0l-1.464.86a.318.318 0 00-.16.279.323.323 0 00.16.278zm-2.523-1.481l1.463.861a.775.775 0 00.79 0l1.464-.86a.317.317 0 00.161-.28.323.323 0 00-.16-.278l-1.464-.86a.793.793 0 00-.79 0l-1.464.86a.317.317 0 00-.16.279.323.323 0 00.16.278zm-2.529-1.477l1.463.861a.784.784 0 00.787 0l1.464-.861a.316.316 0 00.16-.278.322.322 0 00-.16-.279l-1.464-.861a.768.768 0 00-.787 0l-1.463.861a.32.32 0 00-.157.279.327.327 0 00.157.278zm-5.049-3.515l1.463-.861a.775.775 0 01.79 0l3.996 2.338a.321.321 0 01.157.278.327.327 0 01-.157.279l-1.463.861a.785.785 0 01-.787 0l-1.464-.861-2.524-1.485a.317.317 0 01-.16-.271.323.323 0 01.149-.278zm.184-2.966l1.463.861a.793.793 0 00.79 0l.421-.256a.32.32 0 00.157-.278.326.326 0 00-.157-.279l-1.463-.86a.786.786 0 00-.787 0l-.42.256a.317.317 0 00-.163.277.322.322 0 00.159.28zm-2.53-1.481l1.464.861a.785.785 0 00.786 0l.421-.252a.317.317 0 00.16-.279.322.322 0 00-.16-.278l-1.463-.861a.768.768 0 00-.787 0l-.425.252a.32.32 0 00-.155.28.326.326 0 00.16.277zm-2.525-1.481l1.464.861a.768.768 0 00.787 0l.42-.252a.317.317 0 00.161-.278.323.323 0 00-.16-.279l-1.464-.86a.786.786 0 00-.787 0l-.42.255a.317.317 0 00-.158.277.322.322 0 00.157.276zm1.929 4.788l1.464.861a.785.785 0 00.787 0l1.463-.86a.32.32 0 00.157-.279.327.327 0 00-.157-.278l-1.463-.861a.767.767 0 00-.787 0l-1.464.86a.317.317 0 00-.16.279.322.322 0 00.16.278zm-2.525-1.481l1.463.861a.793.793 0 00.79 0l1.464-.86a.318.318 0 00.161-.279.323.323 0 00-.16-.278l-1.464-.861a.792.792 0 00-.79 0l-1.464.86a.317.317 0 00-.16.279.322.322 0 00.16.278zm-2.527-1.477l1.463.861a.785.785 0 00.787 0l1.464-.86a.316.316 0 00.16-.28.323.323 0 00-.16-.278l-1.464-.86a.768.768 0 00-.787 0l-1.463.86a.321.321 0 00-.157.279.327.327 0 00.157.278zm2.445 4.488l1.463.86a.785.785 0 00.787 0l1.464-.86a.321.321 0 00.157-.279.327.327 0 00-.157-.278l-1.464-.861a.767.767 0 00-.787 0l-1.463.86a.318.318 0 00-.16.28.323.323 0 00.16.278zm-2.524-1.481l1.464.86a.793.793 0 00.79 0l1.464-.86a.316.316 0 00.16-.279.323.323 0 00-.16-.278l-1.464-.861a.793.793 0 00-.79 0l-1.464.86a.318.318 0 00-.16.28.323.323 0 00.16.278zM12.31 60.22l1.463.86a.785.785 0 00.787 0l1.463-.86a.315.315 0 00.16-.279.323.323 0 00-.16-.278l-1.463-.861a.768.768 0 00-.787 0l-1.464.86a.32.32 0 00-.157.279.326.326 0 00.157.278zm38.3 21.843l1.464-.861a.784.784 0 01.786 0l1.464.861 2.524 1.485a.316.316 0 01.161.278.322.322 0 01-.16.279l-1.464.857a.768.768 0 01-.787 0l-3.995-2.338a.313.313 0 01-.158-.279.323.323 0 01.165-.282zm-2.526-.921l1.464.858a.767.767 0 00.787 0l1.463-.858a.316.316 0 00.161-.278.323.323 0 00-.16-.278l-1.464-.861a.768.768 0 00-.787 0l-1.464.86a.316.316 0 00-.16.28.322.322 0 00.16.278zm-2.523-1.48l1.464.86a.793.793 0 00.79 0l1.464-.86a.316.316 0 00.16-.279.323.323 0 00-.16-.278l-1.464-.861a.793.793 0 00-.79 0l-1.464.86a.316.316 0 00-.16.28.323.323 0 00.16.278zm-2.529-1.482l1.464.862a.768.768 0 00.787 0l1.463-.861a.318.318 0 00.158-.277.323.323 0 00-.158-.276l-1.463-.862a.767.767 0 00-.787 0l-1.464.861a.316.316 0 00-.157.277.323.323 0 00.157.277zm-2.524-1.477l1.464.861a.785.785 0 00.787 0l1.463-.86a.32.32 0 00.157-.279.326.326 0 00-.157-.278l-1.463-.862a.784.784 0 00-.787 0l-1.464.862a.316.316 0 00-.16.278.322.322 0 00.16.278zm-2.525-1.481l1.464.861a.768.768 0 00.786 0l1.464-.86a.317.317 0 00.16-.28.322.322 0 00-.16-.278l-1.464-.86a.784.784 0 00-.786 0l-1.464.86a.315.315 0 00-.16.279.323.323 0 00.16.278zm-2.525-1.477l1.463.861a.786.786 0 00.787 0l1.463-.86a.317.317 0 00.161-.28.322.322 0 00-.16-.278l-1.464-.86a.767.767 0 00-.787 0l-1.463.86a.316.316 0 00-.161.279.323.323 0 00.16.278zm-2.528-1.481l1.463.857a.768.768 0 00.787 0l1.464-.86a.321.321 0 00.157-.28.327.327 0 00-.157-.277l-1.464-.862a.784.784 0 00-.787 0l-1.463.862a.32.32 0 00-.16.28.326.326 0 00.16.28zm-2.523-1.477l1.463.86a.785.785 0 00.787 0l1.464-.86a.321.321 0 00.157-.279.327.327 0 00-.157-.278l-1.464-.861a.768.768 0 00-.787 0l-1.463.861a.317.317 0 00-.16.278.323.323 0 00.16.279zm-2.527-1.481l1.463.86a.768.768 0 00.787 0l1.463-.86a.316.316 0 00.16-.279.323.323 0 00-.16-.278l-1.463-.861a.785.785 0 00-.787 0l-1.464.86a.316.316 0 00-.16.28.322.322 0 00.16.278zm-2.528-1.477l1.464.86a.785.785 0 00.787 0l1.463-.86a.318.318 0 00.16-.279.323.323 0 00-.16-.278l-1.463-.861a.767.767 0 00-.787 0l-1.464.86a.321.321 0 00-.157.28.327.327 0 00.157.278zm-2.523-1.482l1.463.862a.786.786 0 00.787 0l1.463-.862a.32.32 0 00.157-.278.326.326 0 00-.157-.278l-1.463-.861a.785.785 0 00-.787 0l-1.463.86a.317.317 0 00-.161.279.323.323 0 00.16.278zm25.176 17.241l1.463-.86a.785.785 0 01.787 0l1.463.86 2.525 1.485a.316.316 0 01.16.279.323.323 0 01-.16.278l-1.464.857a.768.768 0 01-.786 0l-3.996-2.338a.31.31 0 01-.157-.278.322.322 0 01.165-.282zm-2.524-.92l1.464.858a.768.768 0 00.786 0l1.464-.858a.322.322 0 00.157-.278.327.327 0 00-.157-.279l-1.464-.86a.767.767 0 00-.786 0l-1.464.86a.318.318 0 00-.16.279.323.323 0 00.16.278zm-2.525-1.481l1.463.861a.792.792 0 00.79 0l1.464-.861a.316.316 0 00.16-.278.322.322 0 00-.16-.279l-1.464-.861a.793.793 0 00-.79 0l-1.463.861a.316.316 0 00-.161.279.323.323 0 00.16.278zm-2.53-1.477l1.464.857a.768.768 0 00.787 0l1.463-.857a.317.317 0 00.161-.279.323.323 0 00-.16-.278l-1.464-.861a.767.767 0 00-.787 0l-1.464.86a.32.32 0 00-.157.28.326.326 0 00.157.278zm-2.523-1.481l1.463.86a.786.786 0 00.787 0l1.464-.86a.32.32 0 00.157-.279.327.327 0 00-.157-.278l-1.464-.861a.784.784 0 00-.787 0l-1.463.861a.316.316 0 00-.16.278.323.323 0 00.16.279zm-2.526-1.481l1.464.86a.767.767 0 00.787 0l1.463-.86a.318.318 0 00.161-.279.323.323 0 00-.16-.278l-1.464-.858a.768.768 0 00-.787 0l-1.464.858a.318.318 0 00-.16.278.323.323 0 00.16.279zm-2.525-1.478l1.463.862a.786.786 0 00.787 0l1.464-.861a.317.317 0 00.16-.279.322.322 0 00-.16-.278l-1.442-.85a.785.785 0 00-.787 0l-1.463.861a.317.317 0 00-.163.267.323.323 0 00.14.279zm-2.527-1.48l1.463.86a.768.768 0 00.787 0l1.464-.86a.321.321 0 00.157-.279.327.327 0 00-.157-.278l-1.464-.861a.785.785 0 00-.787 0l-1.463.86a.32.32 0 00-.157.28.327.327 0 00.157.278zm-2.518-1.478l1.464.861a.786.786 0 00.786 0l1.464-.86a.321.321 0 00.157-.28.327.327 0 00-.157-.278l-1.464-.86a.768.768 0 00-.786 0l-1.464.86a.318.318 0 00-.16.279.323.323 0 00.16.278zm-2.531-1.481l1.463.861a.775.775 0 00.79 0l1.464-.86a.316.316 0 00.161-.28.322.322 0 00-.16-.278l-1.464-.86a.792.792 0 00-.79 0l-1.464.86a.316.316 0 00-.16.279.322.322 0 00.16.278zm-2.529-1.477l1.463.861a.785.785 0 00.787 0l1.464-.861a.317.317 0 00.16-.278.323.323 0 00-.16-.279l-1.464-.86a.767.767 0 00-.787 0l-1.463.86a.32.32 0 00-.157.279.326.326 0 00.157.278z" fill="#3A3A3A"/><path d="M17.698 65.839l1.463-.861 2.609-1.507a.775.775 0 01.79 0l1.464.861a.316.316 0 01.16.278.323.323 0 01-.16.279l-2.13 1.247 2.053 1.199a.321.321 0 01.157.278.327.327 0 01-.157.279l-1.464.86a.785.785 0 01-.786 0L17.7 66.415a.317.317 0 01-.157-.278.32.32 0 01.154-.297zm25.039 17.998a.335.335 0 01.021-.082l.023-.022a.264.264 0 01.095-.096l1.463-.861a.742.742 0 01.392-.108.756.756 0 01.395.108l1.463.86 2.525 1.486 2.525 1.484a.317.317 0 01.16.279.323.323 0 01-.16.278l-1.464.861a.784.784 0 01-.786 0l-6.52-3.82a.318.318 0 01-.158-.278.272.272 0 01.026-.089zm-2.387-1.124l1.464.86a.793.793 0 00.79 0l1.464-.86a.318.318 0 00.16-.279.323.323 0 00-.16-.278l-1.464-.861a.792.792 0 00-.79 0l-1.464.86a.317.317 0 00-.16.28.322.322 0 00.16.278zm-2.528-1.481l1.463.86a.767.767 0 00.787 0l1.463-.86a.316.316 0 00.158-.277.322.322 0 00-.158-.276l-1.463-.862a.768.768 0 00-.787 0l-1.463.862a.317.317 0 00-.158.276.322.322 0 00.157.277zm-2.525-1.478l1.464.861a.785.785 0 00.787 0l1.463-.86a.321.321 0 00.157-.279.327.327 0 00-.157-.278l-1.463-.861a.785.785 0 00-.787 0l-1.464.86a.318.318 0 00-.16.279.323.323 0 00.16.278zm-2.523-1.481l1.463.862a.768.768 0 00.787 0l1.464-.862a.316.316 0 00.16-.278.323.323 0 00-.16-.278l-1.464-.858a.767.767 0 00-.787 0l-1.463.858a.317.317 0 00-.16.278.323.323 0 00.16.278zm-2.527-1.477l1.463.861a.785.785 0 00.787 0l1.463-.86a.316.316 0 00.161-.28.323.323 0 00-.16-.278l-1.464-.86a.786.786 0 00-.787 0l-1.463.86a.316.316 0 00-.161.279.322.322 0 00.16.278zm-2.527-1.481l1.463.861a.768.768 0 00.787 0l1.463-.86a.321.321 0 00.157-.28.327.327 0 00-.157-.278l-1.463-.86a.785.785 0 00-.787 0l-1.463.86a.321.321 0 00-.157.279.327.327 0 00.157.278zm-2.524-1.477l1.463.861a.785.785 0 00.787 0l1.464-.861a.32.32 0 00.157-.278.326.326 0 00-.157-.279l-1.464-.861a.768.768 0 00-.787 0l-1.463.861a.316.316 0 00-.16.278.323.323 0 00.16.279zm-2.512-1.481l1.464.86a.76.76 0 00.783 0l1.463-.86a.316.316 0 00.161-.279.322.322 0 00-.16-.278l-1.464-.861a.778.778 0 00-.783 0l-1.464.861a.316.316 0 00-.16.278.322.322 0 00.16.279zm20.125 14.275l1.463-.861a.768.768 0 01.787 0l3.996 2.35a.316.316 0 01.16.278.322.322 0 01-.16.278l-1.464.861a.793.793 0 01-.79 0l-2.492-1.484h-.033l-1.464-.861a.328.328 0 01-.156-.282.334.334 0 01.156-.283l-.003.004zm-2.539-.912l1.464.857a.768.768 0 00.786 0l1.464-.858a.32.32 0 00.157-.278.326.326 0 00-.157-.279l-1.464-.86a.767.767 0 00-.786 0l-1.464.86a.317.317 0 00-.16.279.323.323 0 00.16.278zm-2.523-1.463l1.463.86a.792.792 0 00.79 0l1.464-.86a.317.317 0 00.16-.279.322.322 0 00-.16-.278l-1.463-.861a.792.792 0 00-.79 0l-1.464.861a.317.317 0 00-.161.278.322.322 0 00.16.279zM22.59 75.348l1.464.862a.786.786 0 00.787 0l1.463-.862a.321.321 0 00.157-.278.327.327 0 00-.157-.278l-1.463-.862a.785.785 0 00-.787 0l-1.464.862a.318.318 0 00-.16.278.323.323 0 00.16.278zm-2.525-1.466l1.464.861a.774.774 0 00.79 0l1.463-.86a.317.317 0 00.161-.28.323.323 0 00-.16-.277l-1.464-.862a.793.793 0 00-.79 0l-1.464.862a.316.316 0 00-.16.278.323.323 0 00.16.278zm-2.524-1.477l1.464.861a.785.785 0 00.787 0l1.463-.861a.317.317 0 00.161-.278.322.322 0 00-.16-.279l-1.464-.86a.767.767 0 00-.787 0l-1.463.86a.317.317 0 00-.161.279.322.322 0 00.16.278zm-5.054-3.515l1.463-.861a.768.768 0 01.787 0l3.996 2.338a.32.32 0 01.157.279.326.326 0 01-.157.278l-1.464.861a.767.767 0 01-.787 0l-3.995-2.338a.315.315 0 01-.16-.279.323.323 0 01.16-.278zM9.67 64.737l1.464.86a.786.786 0 00.787 0l1.463-.86a.32.32 0 00.157-.279.326.326 0 00-.157-.278l-1.463-.861a.784.784 0 00-.787 0l-1.464.86a.317.317 0 00-.16.28.323.323 0 00.16.278zm-.08 3.003l1.464.86a.767.767 0 00.787 0l1.463-.86a.318.318 0 00.161-.279.323.323 0 00-.16-.278l-1.464-.858a.768.768 0 00-.787 0l-1.463.858a.32.32 0 00-.157.278.327.327 0 00.157.278zm-2.525-1.478l1.464.861a.786.786 0 00.786 0l1.464-.86a.321.321 0 00.157-.28.327.327 0 00-.157-.278l-1.464-.86a.786.786 0 00-.786 0l-1.464.86a.318.318 0 00-.16.279.323.323 0 00.16.278zM4.54 64.781l1.463.861a.775.775 0 00.79 0l1.464-.86a.318.318 0 00.16-.28.323.323 0 00-.16-.278l-1.464-.86a.792.792 0 00-.79 0l-1.463.86a.318.318 0 00-.161.279.323.323 0 00.16.278zm20.574 11.503l1.464-.858a.768.768 0 01.787 0l11.573 6.778a.317.317 0 01.157.277.322.322 0 01-.157.276l-1.464.861a.768.768 0 01-.786 0l-10.103-5.916-1.463-.861a.32.32 0 01-.161-.276.326.326 0 01.153-.281zm-10.022-8.359l6.52 3.816a.767.767 0 00.787 0l1.463-.861a.317.317 0 00.161-.279.322.322 0 00-.16-.278l-6.513-3.82a.768.768 0 00-.787 0l-1.464.862a.317.317 0 00-.167.278.322.322 0 00.16.282z" fill="#3A3A3A"/><path d="M22.223 59.818l1.464.861a.322.322 0 01.157.279.327.327 0 01-.157.278l-1.464.861a.767.767 0 01-.786 0l-1.464-.86a.316.316 0 01-.16-.28.323.323 0 01.16-.278l1.464-.86a.785.785 0 01.786 0z" fill="#fff"/><path d="M21.828 62.294a.829.829 0 01-.436-.118l-1.463-.861a.406.406 0 01-.206-.357.412.412 0 01.206-.356l1.463-.861a.876.876 0 01.875 0l1.463.86a.409.409 0 01.203.357.416.416 0 01-.203.357l-1.463.86a.84.84 0 01-.44.12zm0-2.49a.683.683 0 00-.348.096l-1.463.861a.228.228 0 00-.113.199.232.232 0 00.113.199l1.463.86a.695.695 0 00.699 0l1.463-.86a.228.228 0 00.113-.199.232.232 0 00-.113-.199l-1.463-.86a.723.723 0 00-.351-.097z" fill="#3A3A3A"/><path d="M42.846 71.87l1.464.862a.316.316 0 01.16.278.323.323 0 01-.16.279l-1.464.86a.786.786 0 01-.786 0l-1.464-.86a.317.317 0 01-.16-.279.322.322 0 01.16-.278l1.464-.861a.785.785 0 01.786 0z" fill="#fff"/><path d="M42.445 74.346a.887.887 0 01-.44-.119l-1.463-.86a.405.405 0 01-.206-.357.413.413 0 01.206-.356l1.463-.861a.865.865 0 01.879 0l1.463.86a.41.41 0 01.203.357.417.417 0 01-.203.356l-1.463.861a.875.875 0 01-.44.12zm0-2.49a.68.68 0 00-.366.092l-1.464.862a.228.228 0 00-.113.2.235.235 0 00.113.2l1.464.862a.687.687 0 00.695 0l1.463-.862a.225.225 0 00.114-.2.226.226 0 00-.114-.2l-1.463-.862a.682.682 0 00-.33-.092z" fill="#3A3A3A"/><path d="M39.515 70.39a.784.784 0 01.787 0l1.463.86a.317.317 0 01.16.279.323.323 0 01-.16.278l-1.463.861a.768.768 0 01-.787 0l-1.464-.86a.317.317 0 01-.16-.279.322.322 0 01.16-.278l1.464-.862z" fill="#fff"/><path d="M39.927 72.865a.873.873 0 01-.44-.115l-1.463-.86a.413.413 0 01-.202-.359.42.42 0 01.202-.358l1.464-.861a.883.883 0 01.878 0l1.463.86a.41.41 0 01.206.359.416.416 0 01-.206.358l-1.463.861a.884.884 0 01-.44.115zm-.366-2.394l-1.464.861a.23.23 0 00-.112.199.232.232 0 00.112.199l1.464.86a.694.694 0 00.699 0l1.463-.86a.228.228 0 00.112-.199.233.233 0 00-.112-.199l-1.463-.86a.695.695 0 00-.7 0z" fill="#3A3A3A"/><path d="M47.817 77.835l1.464.862a.318.318 0 01.16.278.323.323 0 01-.16.278l-1.464.858a.775.775 0 01-.79 0l-1.464-.858a.317.317 0 01-.16-.278.322.322 0 01.16-.278l1.464-.862a.775.775 0 01.79 0z" fill="#fff"/><path d="M47.422 80.311a.887.887 0 01-.439-.119l-1.463-.86a.406.406 0 01-.205-.372.42.42 0 01.201-.371l1.464-.861a.883.883 0 01.878 0l1.463.86a.413.413 0 01.202.359.42.42 0 01-.202.358l-1.463.861a.888.888 0 01-.436.145zm0-2.494a.683.683 0 00-.366.096l-1.463.861a.221.221 0 00-.114.2.23.23 0 00.114.198l1.463.86a.687.687 0 00.696 0l1.463-.86a.228.228 0 00.112-.199.233.233 0 00-.112-.199l-1.463-.86a.684.684 0 00-.33-.097z" fill="#3A3A3A"/><path d="M45.29 76.354l1.464.861a.318.318 0 01.16.279.323.323 0 01-.16.278l-1.464.861a.785.785 0 01-.787 0l-1.463-.86a.321.321 0 01-.157-.28.327.327 0 01.157-.278l1.463-.86a.785.785 0 01.787 0z" fill="#fff"/><path d="M44.898 78.83a.876.876 0 01-.44-.119l-1.463-.86a.41.41 0 01-.202-.357.417.417 0 01.202-.356l1.464-.862a.862.862 0 01.874 0l1.464.862a.406.406 0 01.206.356.413.413 0 01-.206.356l-1.464.861a.865.865 0 01-.435.12zm0-2.49a.702.702 0 00-.366.092l-1.464.861a.233.233 0 00-.111.2.236.236 0 00.111.201l1.464.861a.694.694 0 00.699 0l1.463-.86a.233.233 0 00.112-.201.236.236 0 00-.112-.2l-1.463-.862a.68.68 0 00-.333-.093z" fill="#3A3A3A"/><path d="M25.165 61.515l3.996 2.327a.325.325 0 01.156.28.33.33 0 01-.156.28l-1.464.862a.785.785 0 01-.786 0l-1.464-.861-2.525-1.485a.318.318 0 01-.16-.279.323.323 0 01.16-.278l1.464-.861a.792.792 0 01.78.015z" fill="#fff"/><path d="M27.295 65.472a.873.873 0 01-.435-.12l-3.996-2.341a.405.405 0 01-.206-.357.413.413 0 01.206-.356l1.464-.861a.865.865 0 01.878 0l3.995 2.338a.413.413 0 01.202.358.42.42 0 01-.202.359l-1.463.86a.876.876 0 01-.443.12zm-1.793-1.114l1.464.846a.695.695 0 00.699 0l1.463-.86a.217.217 0 00.114-.198.233.233 0 00-.114-.204l-4.01-2.327a.688.688 0 00-.695 0l-1.464.857a.235.235 0 000 .401l2.543 1.485z" fill="#3A3A3A"/><path d="M32.743 65.954l1.463.861a.316.316 0 01.161.279.322.322 0 01-.16.278l-1.464.861a.792.792 0 01-.79 0l-1.464-.861a.316.316 0 01-.16-.278.322.322 0 01.16-.279l1.463-.861a.774.774 0 01.79 0z" fill="#fff"/><path d="M32.349 68.43a.875.875 0 01-.439-.12l-1.464-.86a.41.41 0 01-.202-.356.416.416 0 01.202-.357l1.464-.861a.865.865 0 01.878 0l1.464.861a.405.405 0 01.206.357.413.413 0 01-.206.356l-1.464.86a.887.887 0 01-.439.12zm0-2.49a.68.68 0 00-.366.092l-1.463.861a.22.22 0 00-.114.2.232.232 0 00.114.2l1.463.858a.677.677 0 00.695 0l1.464-.857a.236.236 0 000-.401l-1.464-.861a.681.681 0 00-.329-.093z" fill="#3A3A3A"/><path d="M37.712 71.915l1.464.865a.317.317 0 01.157.276.322.322 0 01-.157.277l-1.464.861a.767.767 0 01-.786 0l-1.464-.861a.316.316 0 01-.157-.276.322.322 0 01.157-.277l1.464-.865a.786.786 0 01.786 0z" fill="#fff"/><path d="M37.321 74.39a.873.873 0 01-.44-.114l-1.463-.861a.421.421 0 01-.2-.372.415.415 0 01.2-.37l1.464-.862a.883.883 0 01.878 0l1.464.861a.406.406 0 01.205.371.42.42 0 01-.205.372l-1.464.86a.883.883 0 01-.439.116zm0-2.49a.724.724 0 00-.366.097l-1.463.86a.229.229 0 00-.113.2.232.232 0 00.113.198l1.463.861a.695.695 0 00.699 0l1.463-.86a.229.229 0 00.113-.2.234.234 0 00-.112-.198l-1.431-.85a.684.684 0 00-.366-.108z" fill="#3A3A3A"/><path d="M49.632 76.31a.768.768 0 01.787 0l1.463.861a.317.317 0 01.161.278.323.323 0 01-.16.279l-1.464.857a.767.767 0 01-.787 0l-1.463-.857a.317.317 0 01-.161-.279.324.324 0 01.16-.278l1.464-.861z" fill="#fff"/><path d="M50.028 78.785a.888.888 0 01-.44-.118l-1.463-.862a.408.408 0 01-.205-.358.417.417 0 01.205-.358l1.464-.857a.866.866 0 01.878 0l1.464.857a.409.409 0 01.205.358.416.416 0 01-.205.358l-1.464.862a.888.888 0 01-.439.118zm-.348-2.397l-1.463.86a.23.23 0 00-.112.2.233.233 0 00.112.198l1.463.861a.688.688 0 00.696 0l1.463-.861a.228.228 0 00.112-.199.232.232 0 00-.112-.198l-1.463-.861a.688.688 0 00-.696 0z" fill="#3A3A3A"/><path d="M30.216 64.473l1.463.861a.317.317 0 01.161.278.323.323 0 01-.16.279l-1.464.861a.768.768 0 01-.787 0l-1.463-.861a.322.322 0 01-.157-.279.327.327 0 01.157-.278l1.463-.861a.784.784 0 01.787 0z" fill="#fff"/><path d="M29.824 66.949a.84.84 0 01-.44-.12l-1.463-.86a.41.41 0 01-.202-.357.417.417 0 01.202-.356l1.464-.861a.875.875 0 01.874 0l1.464.861a.406.406 0 01.206.356.413.413 0 01-.206.357l-1.464.86a.859.859 0 01-.435.12zm0-2.49a.724.724 0 00-.366.096l-1.464.857a.228.228 0 00-.113.2.225.225 0 00.113.2l1.464.862a.694.694 0 00.699 0l1.463-.861a.229.229 0 00.114-.2.24.24 0 00-.114-.201l-1.463-.857a.684.684 0 00-.333-.097z" fill="#3A3A3A"/><path d="M35.188 70.438l1.464.86a.32.32 0 01.157.28.326.326 0 01-.157.278l-1.464.86a.785.785 0 01-.786 0l-1.464-.86a.32.32 0 01-.157-.279.326.326 0 01.157-.278l1.464-.861a.786.786 0 01.786 0z" fill="#fff"/><path d="M34.796 72.914a.876.876 0 01-.439-.12l-1.463-.86a.408.408 0 01-.203-.357.416.416 0 01.203-.356l1.463-.861a.862.862 0 01.875 0l1.463.861a.414.414 0 01.205.371.412.412 0 01-.205.371l-1.463.862a.87.87 0 01-.436.089zm0-2.491a.702.702 0 00-.366.093l-1.463.86a.225.225 0 00-.117.201.236.236 0 00.117.2l1.463.862a.694.694 0 00.7 0l1.463-.861a.236.236 0 00.083-.316.228.228 0 00-.083-.085l-1.464-.861a.699.699 0 00-.333-.093z" fill="#3A3A3A"/><path d="M34.134 70.375l-1.463.86a.768.768 0 01-.787 0l-1.463-.86a.316.316 0 01-.161-.279.323.323 0 01.16-.278l1.464-.861a.784.784 0 01.787 0l1.463.861a.32.32 0 01.157.278.326.326 0 01-.157.279z" fill="#fff"/><path d="M32.268 71.433a.85.85 0 01-.439-.12l-1.464-.86a.402.402 0 01-.204-.371.413.413 0 01.204-.372l1.464-.86a.883.883 0 01.878 0l1.464.86a.41.41 0 01.202.357.416.416 0 01-.202.356l-1.464.861a.84.84 0 01-.439.149zm0-2.49a.683.683 0 00-.366.096l-1.463.86a.229.229 0 00-.113.2.233.233 0 00.113.198l1.463.861a.695.695 0 00.699 0l1.464-.861a.229.229 0 00.112-.199.234.234 0 00-.112-.198l-1.464-.861a.723.723 0 00-.333-.097z" fill="#3A3A3A"/><path d="M44.236 76.291l-1.463.861a.768.768 0 01-.787 0l-1.463-.86a.318.318 0 01-.158-.277.323.323 0 01.158-.277l1.463-.861a.767.767 0 01.787 0l1.463.861a.317.317 0 01.158.277.323.323 0 01-.157.276z" fill="#fff"/><path d="M42.37 77.353a.873.873 0 01-.436-.119l-1.463-.861a.41.41 0 01-.205-.371.413.413 0 01.205-.371l1.463-.862a.875.875 0 01.875 0l1.463.862a.402.402 0 01.202.37.413.413 0 01-.202.372l-1.463.861a.876.876 0 01-.44.119zm0-2.494a.684.684 0 00-.366.096l-1.464.861a.228.228 0 00-.112.199.232.232 0 00.112.198l1.464.862a.694.694 0 00.699 0l1.463-.862a.228.228 0 00.113-.198.233.233 0 00-.113-.199l-1.463-.86a.724.724 0 00-.333-.097z" fill="#3A3A3A"/><path d="M31.716 77.245l-1.463-.861a.316.316 0 01-.161-.278.323.323 0 01.16-.279l1.464-.857a.767.767 0 01.787 0l1.463.857a.317.317 0 01.161.279.323.323 0 01-.16.278l-1.464.861a.768.768 0 01-.787 0z" fill="#fff"/><path d="M32.11 77.446a.876.876 0 01-.44-.12l-1.463-.86a.413.413 0 01-.2-.371.418.418 0 01.2-.372l1.464-.86a.884.884 0 01.878 0l1.464.86a.406.406 0 01.205.371.418.418 0 01-.205.372l-1.464.86a.887.887 0 01-.439.12zm-.366-.279a.695.695 0 00.699 0l1.464-.86a.228.228 0 00.112-.2.232.232 0 00-.112-.198l-1.464-.861a.694.694 0 00-.699 0l-1.463.86a.228.228 0 00-.113.2.232.232 0 00.113.198l1.463.861z" fill="#3A3A3A"/><path d="M34.243 78.726l-1.463-.861a.317.317 0 01-.16-.278.322.322 0 01.16-.279l1.463-.86a.785.785 0 01.787 0l1.464.86a.317.317 0 01.16.279.323.323 0 01-.16.278l-1.464.861a.786.786 0 01-.787 0z" fill="#fff"/><path d="M34.636 78.923a.887.887 0 01-.44-.119l-1.463-.861a.406.406 0 01-.206-.356.413.413 0 01.206-.357l1.464-.86a.865.865 0 01.878 0l1.464.86a.409.409 0 01.202.357.416.416 0 01-.202.356l-1.464.861a.875.875 0 01-.439.119zm-.366-.275a.694.694 0 00.699 0l1.463-.86a.224.224 0 00.114-.201.225.225 0 00-.114-.2l-1.463-.862a.694.694 0 00-.699 0l-1.464.861a.229.229 0 00-.113.2.237.237 0 00.114.201l1.463.861z" fill="#3A3A3A"/><path d="M36.77 80.203l-1.464-.86a.317.317 0 01-.158-.277.323.323 0 01.158-.277l1.464-.861a.768.768 0 01.786 0l1.464.861a.317.317 0 01.157.277.323.323 0 01-.157.276l-1.464.861a.767.767 0 01-.786 0z" fill="#fff"/><path d="M37.159 80.404a.873.873 0 01-.436-.119l-1.463-.861a.41.41 0 01-.205-.371.413.413 0 01.205-.371l1.463-.862a.876.876 0 01.875 0l1.464.862a.402.402 0 01.2.37.413.413 0 01-.2.372l-1.464.861a.876.876 0 01-.44.119zm0-2.494a.692.692 0 00-.366.096l-1.464.861a.228.228 0 00-.112.199.233.233 0 00.112.198l1.464.862a.694.694 0 00.699 0l1.463-.862a.228.228 0 00.113-.198.232.232 0 00-.113-.199l-1.463-.86a.725.725 0 00-.333-.097z" fill="#3A3A3A"/><path d="M26.667 74.287l-1.463-.861a.316.316 0 01-.161-.279.323.323 0 01.16-.278l1.464-.861a.785.785 0 01.776 0l1.463.861a.32.32 0 01.158.278.327.327 0 01-.157.279l-1.464.86a.767.767 0 01-.776 0z" fill="#fff"/><path d="M27.077 74.484a.829.829 0 01-.435-.12l-1.464-.857a.409.409 0 01-.205-.358.416.416 0 01.205-.358l1.464-.861a.875.875 0 01.874 0l1.464.861a.413.413 0 01.201.358.42.42 0 01-.201.358l-1.464.858a.84.84 0 01-.439.119zm0-2.476a.684.684 0 00-.366.096l-1.463.862a.228.228 0 00-.113.198.232.232 0 00.113.199l1.463.86a.695.695 0 00.699 0l1.464-.86a.229.229 0 00.112-.199.232.232 0 00-.112-.198l-1.464-.862a.724.724 0 00-.333-.096z" fill="#3A3A3A"/><path d="M29.19 75.768l-1.463-.861a.321.321 0 01-.157-.279.327.327 0 01.157-.278l1.464-.861a.785.785 0 01.787 0l1.463.861a.32.32 0 01.157.278.327.327 0 01-.157.279l-1.463.86a.785.785 0 01-.787 0z" fill="#fff"/><path d="M29.585 75.965a.876.876 0 01-.439-.12l-1.463-.86a.41.41 0 01-.203-.357.417.417 0 01.203-.356l1.463-.861a.862.862 0 01.875 0l1.463.861a.405.405 0 01.206.356.413.413 0 01-.206.357l-1.463.86a.872.872 0 01-.436.12zm-.366-.275a.694.694 0 00.7 0l1.463-.861a.236.236 0 000-.401l-1.464-.861a.695.695 0 00-.698 0l-1.464.86a.224.224 0 00-.114.201.233.233 0 00.114.2l1.463.862z" fill="#3A3A3A"/><path d="M50.343 81.592a.786.786 0 01-.787 0l-1.464-.861a.317.317 0 01-.16-.279.322.322 0 01.16-.278l1.464-.861a.784.784 0 01.787 0l1.463.86a.32.32 0 01.157.28.327.327 0 01-.157.278l-1.463.86z" fill="#fff"/><path d="M49.949 81.788a.851.851 0 01-.44-.118l-1.463-.862a.406.406 0 01-.206-.356.413.413 0 01.206-.356l1.463-.861a.865.865 0 01.879 0l1.463.86a.41.41 0 01.201.372.408.408 0 01-.2.371l-1.464.861a.839.839 0 01-.44.09zm0-2.49a.68.68 0 00-.348.093l-1.464.86a.236.236 0 000 .402l1.464.86a.695.695 0 00.699 0l1.463-.86a.224.224 0 00.114-.2.233.233 0 00-.114-.201L50.3 79.39a.702.702 0 00-.351-.093z" fill="#3A3A3A"/><path d="M47.74 83.117a.786.786 0 01-.788 0l-1.463-.86a.317.317 0 01-.16-.28.322.322 0 01.16-.278l1.463-.86a.785.785 0 01.787 0l1.464.86a.32.32 0 01.157.279.327.327 0 01-.157.278l-1.464.861z" fill="#fff"/><path d="M47.343 83.314a.887.887 0 01-.44-.119l-1.463-.86a.406.406 0 01-.206-.357.413.413 0 01.206-.357l1.464-.86a.866.866 0 01.878 0l1.464.86a.409.409 0 01.202.357.416.416 0 01-.202.356l-1.464.861a.876.876 0 01-.439.119zm0-2.49a.68.68 0 00-.348.092l-1.463.861a.236.236 0 00-.083.317c.02.035.048.064.083.084l1.463.861a.694.694 0 00.7 0l1.463-.86a.221.221 0 00.113-.201.233.233 0 00-.113-.2l-1.464-.862a.702.702 0 00-.351-.093z" fill="#3A3A3A"/><path d="M52.948 77.787l1.464.861a.321.321 0 01.157.279.327.327 0 01-.157.278l-1.464.861a.785.785 0 01-.787 0l-1.463-.86a.318.318 0 01-.16-.28.323.323 0 01.16-.278l1.463-.86a.785.785 0 01.787 0z" fill="#fff"/><path d="M52.552 80.263a.887.887 0 01-.44-.12l-1.463-.86a.405.405 0 01-.206-.356.412.412 0 01.206-.357l1.464-.861a.866.866 0 01.878 0l1.464.861a.408.408 0 01.2.371.41.41 0 01-.2.371l-1.464.862a.874.874 0 01-.439.089zm0-2.49a.681.681 0 00-.348.092l-1.463.861a.236.236 0 00-.084.316c.02.035.05.065.084.085l1.463.861a.694.694 0 00.7 0l1.463-.861a.221.221 0 00.113-.2.233.233 0 00-.113-.2l-1.464-.862a.702.702 0 00-.351-.093z" fill="#3A3A3A"/><path d="M42.609 83.162a.774.774 0 01-.79 0l-1.464-.861a.317.317 0 01-.158-.277.322.322 0 01.158-.276l1.463-.862a.775.775 0 01.79 0l1.464.862a.317.317 0 01.158.276.323.323 0 01-.158.277l-1.463.86z" fill="#fff"/><path d="M42.213 83.362a.887.887 0 01-.439-.119l-1.463-.86a.405.405 0 01-.205-.372.42.42 0 01.205-.371l1.463-.858a.866.866 0 01.878 0l1.464.858a.412.412 0 01.205.371.413.413 0 01-.205.371l-1.464.861a.887.887 0 01-.439.12zm0-2.494a.685.685 0 00-.366.096l-1.463.862a.228.228 0 00-.112.198.232.232 0 00.112.199l1.463.86a.688.688 0 00.696 0l1.463-.86a.229.229 0 00.112-.199.232.232 0 00-.112-.198l-1.463-.862a.684.684 0 00-.33-.096z" fill="#3A3A3A"/><path d="M44.423 81.636l-1.464-.857a.317.317 0 01-.16-.279.322.322 0 01.16-.278l1.464-.861a.775.775 0 01.79 0l1.464.86a.317.317 0 01.16.28.322.322 0 01-.16.278l-1.464.857a.775.775 0 01-.79 0z" fill="#fff"/><path d="M44.819 81.837a.887.887 0 01-.44-.12l-1.463-.86a.406.406 0 01-.205-.371.422.422 0 01.205-.372l1.464-.86a.884.884 0 01.878 0l1.463.86a.414.414 0 01.205.372.413.413 0 01-.205.37l-1.463.862a.887.887 0 01-.44.119zm0-2.495a.683.683 0 00-.348.097l-1.463.861a.228.228 0 00-.113.199.233.233 0 00.113.198l1.463.861a.687.687 0 00.695 0l1.464-.86a.225.225 0 00.113-.197.225.225 0 00-.113-.201l-1.464-.861a.684.684 0 00-.347-.097z" fill="#3A3A3A"/><path d="M39.292 81.684l-1.463-.86a.32.32 0 01-.157-.28.327.327 0 01.157-.278l1.463-.86a.786.786 0 01.787 0l1.464.86a.316.316 0 01.16.279.322.322 0 01-.16.278l-1.464.861a.785.785 0 01-.787 0z" fill="#fff"/><path d="M39.689 81.881a.876.876 0 01-.44-.119l-1.463-.86a.41.41 0 01-.202-.357.416.416 0 01.202-.356l1.464-.862a.862.862 0 01.874 0l1.464.862a.405.405 0 01.206.356.412.412 0 01-.206.356l-1.464.861a.864.864 0 01-.435.12zm-.366-.275a.695.695 0 00.699 0l1.463-.86a.231.231 0 00.114-.201.24.24 0 00-.114-.2l-1.463-.862a.695.695 0 00-.699 0l-1.464.861a.229.229 0 00-.113.2.228.228 0 00.113.201l1.464.861z" fill="#3A3A3A"/><path d="M39.373 78.69l-1.464-.862a.317.317 0 01-.157-.276.322.322 0 01.157-.277l1.464-.861a.768.768 0 01.787 0l1.463.861a.317.317 0 01.158.276.323.323 0 01-.158.277l-1.463.861a.767.767 0 01-.787 0z" fill="#fff"/><path d="M39.765 78.878a.871.871 0 01-.436-.118l-1.463-.862a.407.407 0 01-.206-.358.417.417 0 01.206-.358l1.463-.857a.86.86 0 01.875 0l1.463.857a.409.409 0 01.206.358.417.417 0 01-.206.358l-1.463.862a.875.875 0 01-.44.118zm0-2.494a.692.692 0 00-.366.097l-1.464.86a.228.228 0 00-.112.2.233.233 0 00.112.198l1.464.861a.694.694 0 00.698 0l1.464-.861a.229.229 0 00.112-.199.232.232 0 00-.112-.198l-1.464-.861a.724.724 0 00-.332-.097z" fill="#3A3A3A"/><path d="M24.148 72.81l-1.464-.862a.317.317 0 01-.16-.278.322.322 0 01.16-.278l1.464-.869a.76.76 0 01.783 0l1.463.861a.317.317 0 01.161.279.322.322 0 01-.16.278l-1.464.861a.778.778 0 01-.783.007z" fill="#fff"/><path d="M24.532 73.006a.887.887 0 01-.439-.118l-1.463-.862a.406.406 0 01-.206-.356.413.413 0 01.206-.356l1.463-.861a.864.864 0 01.878 0l1.464.86a.409.409 0 01.202.357.416.416 0 01-.202.356l-1.463.862a.887.887 0 01-.44.118zm-.365-.274a.687.687 0 00.695 0l1.463-.861a.236.236 0 00.114-.2.226.226 0 00-.114-.201l-1.463-.861a.688.688 0 00-.695 0l-1.464.86a.228.228 0 00-.113.201.24.24 0 00.113.2l1.464.862z" fill="#3A3A3A"/><path d="M17.17 56.86l1.464.861a.317.317 0 01.161.279.322.322 0 01-.16.278l-1.464.861a.785.785 0 01-.787 0l-1.463-.86a.32.32 0 01-.157-.28.327.327 0 01.157-.278l1.463-.86a.786.786 0 01.787 0z" fill="#fff"/><path d="M16.779 59.336a.839.839 0 01-.44-.119l-1.463-.861a.41.41 0 01-.202-.356.417.417 0 01.202-.357l1.464-.86a.86.86 0 01.874 0l1.464.86a.404.404 0 01.206.357.413.413 0 01-.206.356l-1.464.861a.828.828 0 01-.435.119zm0-2.49a.701.701 0 00-.366.092l-1.464.861a.229.229 0 00-.113.2.226.226 0 00.113.201l1.464.861a.696.696 0 00.699 0l1.463-.86A.23.23 0 0018.69 58a.24.24 0 00-.114-.2l-1.463-.862a.68.68 0 00-.333-.093z" fill="#3A3A3A"/><path d="M19.7 58.341l1.463.861a.317.317 0 01.161.279.323.323 0 01-.16.278l-1.464.861a.792.792 0 01-.79 0l-1.464-.86a.316.316 0 01-.16-.28.322.322 0 01.16-.278l1.463-.86a.775.775 0 01.79 0z" fill="#fff"/><path d="M19.305 60.817a.887.887 0 01-.439-.119l-1.464-.86a.406.406 0 01-.204-.372.417.417 0 01.2-.371l1.464-.861a.864.864 0 01.879 0l1.463.86a.406.406 0 01.205.372.417.417 0 01-.201.371l-1.464.861a.887.887 0 01-.439.12zm0-2.49a.68.68 0 00-.348.092l-1.463.861a.229.229 0 00-.113.2.24.24 0 00.113.201l1.463.858a.677.677 0 00.696 0l1.463-.858a.236.236 0 00.084-.316.23.23 0 00-.084-.085l-1.463-.86a.68.68 0 00-.348-.093z" fill="#3A3A3A"/><path d="M30.136 67.48l1.463.86a.318.318 0 01.16.279.323.323 0 01-.16.278l-1.463.861a.784.784 0 01-.787 0l-1.464-.86a.318.318 0 01-.16-.279.323.323 0 01.16-.278l1.464-.861a.768.768 0 01.787 0z" fill="#fff"/><path d="M29.744 69.955a.886.886 0 01-.44-.118l-1.463-.862a.41.41 0 01-.202-.356.418.418 0 01.202-.356l1.463-.861a.865.865 0 01.879 0l1.463.86a.404.404 0 01.206.357.413.413 0 01-.206.356l-1.463.862a.885.885 0 01-.44.118zm0-2.49a.679.679 0 00-.366.093l-1.464.86a.221.221 0 00-.113.201.233.233 0 00.113.2l1.464.858a.687.687 0 00.695 0l1.463-.857a.236.236 0 00.084-.317.229.229 0 00-.084-.084l-1.463-.861a.68.68 0 00-.33-.093z" fill="#3A3A3A"/><path d="M17.36 62.209l1.463-.861a.785.785 0 01.787 0l1.464.86a.32.32 0 01.157.28.327.327 0 01-.157.278l-1.464.86a.767.767 0 01-.787 0l-1.463-.86a.317.317 0 01-.16-.279.323.323 0 01.16-.278z" fill="#fff"/><path d="M19.224 63.842a.828.828 0 01-.435-.119l-1.464-.86a.405.405 0 01-.206-.357.413.413 0 01.206-.356l1.464-.862a.868.868 0 01.874 0l1.464.862a.409.409 0 01.202.356.416.416 0 01-.202.356l-1.464.861a.84.84 0 01-.439.12zm0-2.49a.685.685 0 00-.348.096l-1.463.861a.23.23 0 00-.112.199.232.232 0 00.112.198l1.463.861a.695.695 0 00.7 0l1.463-.86a.229.229 0 00.112-.2.232.232 0 00-.112-.198l-1.464-.861a.726.726 0 00-.35-.115v.019z" fill="#3A3A3A"/><path d="M26.741 71.284l-1.463-.861a.316.316 0 01-.16-.278.323.323 0 01.16-.279l1.463-.86a.793.793 0 01.79 0l1.464.86a.316.316 0 01.161.279.323.323 0 01-.16.278l-1.464.861a.793.793 0 01-.79 0z" fill="#fff"/><path d="M27.137 71.48a.887.887 0 01-.439-.118l-1.463-.861a.408.408 0 01-.204-.363.417.417 0 01.215-.357l1.463-.861a.865.865 0 01.878 0l1.464.86a.405.405 0 01.206.357.413.413 0 01-.206.356l-1.464.862a.886.886 0 01-.45.126zm0-2.49a.68.68 0 00-.366.093l-1.463.861a.222.222 0 00-.114.2.24.24 0 00.114.201l1.463.861a.724.724 0 00.695 0l1.464-.861a.236.236 0 00.083-.316.229.229 0 00-.083-.085l-1.463-.861a.68.68 0 00-.33-.093z" fill="#3A3A3A"/><path d="M24.3 66.811l-1.463-.86a.318.318 0 01-.161-.279.323.323 0 01.16-.278l1.464-.862a.767.767 0 01.787 0l1.463.862a.32.32 0 01.157.278.326.326 0 01-.157.278l-1.463.861a.785.785 0 01-.787 0z" fill="#fff"/><path d="M24.69 66.997a.873.873 0 01-.434-.119l-1.464-.86a.406.406 0 01-.206-.357.413.413 0 01.206-.356l1.463-.862a.862.862 0 01.875 0l1.463.862a.409.409 0 01.203.356.416.416 0 01-.203.356l-1.463.861a.876.876 0 01-.44.12zm0-2.49a.68.68 0 00-.365.092l-1.464.861a.229.229 0 00-.112.199.232.232 0 00.112.199l1.464.86a.694.694 0 00.699 0l1.463-.86a.217.217 0 00.114-.197.218.218 0 00-.114-.2l-1.463-.862a.703.703 0 00-.333-.093z" fill="#3A3A3A"/><path d="M24.218 69.803l-1.463-.861a.32.32 0 01-.157-.278.326.326 0 01.157-.279l1.463-.861a.786.786 0 01.787 0l1.463.861a.317.317 0 01.161.278.322.322 0 01-.16.279l-1.464.861a.767.767 0 01-.787 0z" fill="#fff"/><path d="M24.613 70a.84.84 0 01-.44-.119l-1.463-.861a.409.409 0 01-.202-.356.417.417 0 01.202-.357l1.464-.86a.876.876 0 01.874 0l1.464.86a.404.404 0 01.206.357.413.413 0 01-.206.356l-1.464.861a.85.85 0 01-.435.119zm-.366-.275a.695.695 0 00.699 0l1.463-.86a.228.228 0 00.112-.2.233.233 0 00-.112-.198l-1.463-.861a.695.695 0 00-.7 0l-1.463.861a.23.23 0 00-.112.199.232.232 0 00.112.198l1.464.861z" fill="#3A3A3A"/><path d="M27.61 65.999l1.464.86a.318.318 0 01.16.28.323.323 0 01-.16.278l-1.464.86a.767.767 0 01-.786 0l-1.464-.86a.32.32 0 01-.157-.279.326.326 0 01.157-.278l1.464-.861a.785.785 0 01.786 0z" fill="#fff"/><path d="M27.218 68.474a.84.84 0 01-.439-.118l-1.463-.862a.41.41 0 01-.203-.356.416.416 0 01.203-.356l1.463-.861a.876.876 0 01.875 0l1.463.86a.406.406 0 01.206.357.412.412 0 01-.206.356l-1.463.862a.829.829 0 01-.436.118zm0-2.49a.724.724 0 00-.366.096l-1.463.858a.229.229 0 00-.114.2.225.225 0 00.114.2l1.463.862a.694.694 0 00.7 0l1.463-.862a.228.228 0 00.113-.2.24.24 0 00-.113-.2l-1.464-.858a.684.684 0 00-.333-.096z" fill="#3A3A3A"/><path d="M21.693 68.326l-3.995-2.339a.323.323 0 01-.157-.28.33.33 0 01.157-.28l1.463-.861 2.602-1.526a.793.793 0 01.79 0l1.463.861a.317.317 0 01.161.279.323.323 0 01-.16.278l-2.119 1.24 2.053 1.203a.321.321 0 01.157.278.327.327 0 01-.157.278l-1.464.861a.785.785 0 01-.794.008z" fill="#fff"/><path d="M22.085 68.523a.873.873 0 01-.435-.12l-3.996-2.334a.41.41 0 01-.204-.371.413.413 0 01.204-.371l4.073-2.387a.882.882 0 01.878 0l1.463.861a.406.406 0 01.205.371.417.417 0 01-.2.372l-1.995 1.154 1.917 1.113a.406.406 0 01.201.372.408.408 0 01-.2.37l-1.464.862a.875.875 0 01-.447.108zm-.366-.279a.695.695 0 00.7 0l1.463-.857a.233.233 0 00.112-.2.236.236 0 00-.112-.201l-2.196-1.28 2.265-1.326a.22.22 0 00.114-.2.233.233 0 00-.114-.2l-1.463-.858a.694.694 0 00-.699 0l-4.076 2.383a.236.236 0 00-.083.316c.02.035.048.064.083.085l4.006 2.338z" fill="#3A3A3A"/><path d="M39.454 75.675l-1.463-.861a.316.316 0 01-.16-.278.323.323 0 01.16-.279l1.463-.86a.785.785 0 01.787 0l1.464.86a.316.316 0 01.16.279.322.322 0 01-.16.278l-1.464.861a.785.785 0 01-.787 0z" fill="#fff"/><path d="M39.845 75.872a.886.886 0 01-.44-.119l-1.463-.861a.405.405 0 01-.206-.356.413.413 0 01.206-.357l1.464-.86a.865.865 0 01.878 0l1.464.86a.41.41 0 01.202.357.416.416 0 01-.202.356l-1.464.861a.876.876 0 01-.439.119zm0-2.49a.679.679 0 00-.366.092l-1.463.861a.232.232 0 00-.083.316c.02.035.048.064.083.085l1.463.861a.687.687 0 00.695 0l1.464-.86a.228.228 0 00.113-.201.229.229 0 00-.113-.2l-1.464-.862a.68.68 0 00-.329-.093z" fill="#3A3A3A"/><path d="M42.685 77.88l1.463.861a.315.315 0 01.16.278.322.322 0 01-.16.279l-1.463.861a.785.785 0 01-.787 0l-1.464-.861a.32.32 0 01-.157-.279.326.326 0 01.157-.278l1.464-.861a.784.784 0 01.787 0z" fill="#fff"/><path d="M42.292 80.356a.876.876 0 01-.439-.119l-1.463-.861a.409.409 0 01-.203-.357.416.416 0 01.203-.356l1.463-.861a.862.862 0 01.875 0l1.463.861a.405.405 0 01.206.356.413.413 0 01-.206.357l-1.463.861a.887.887 0 01-.436.119zm0-2.49a.702.702 0 00-.366.092l-1.463.861a.232.232 0 00-.112.2.236.236 0 00.112.2l1.463.862a.695.695 0 00.7 0l1.463-.861a.232.232 0 00.112-.2.236.236 0 00-.112-.2l-1.464-.862a.682.682 0 00-.333-.093z" fill="#3A3A3A"/><path d="M29.27 72.75l-1.463-.86a.317.317 0 01-.16-.28.323.323 0 01.16-.278l1.464-.86a.785.785 0 01.786 0l1.464.86a.321.321 0 01.157.279.327.327 0 01-.157.278l-1.464.861a.768.768 0 01-.786 0z" fill="#fff"/><path d="M29.663 72.958a.85.85 0 01-.44-.119l-1.463-.86a.402.402 0 01-.205-.372.412.412 0 01.205-.371l1.463-.861a.883.883 0 01.879 0l1.463.86a.402.402 0 01.201.372.406.406 0 01-.2.371l-1.464.861a.84.84 0 01-.44.119zm0-2.49a.683.683 0 00-.348.096l-1.464.861a.228.228 0 00-.112.199.232.232 0 00.112.198l1.464.861a.695.695 0 00.699 0l1.463-.86a.228.228 0 00.113-.2.233.233 0 00-.113-.198l-1.463-.861a.723.723 0 00-.351-.096z" fill="#3A3A3A"/><path d="M36.849 77.204l-1.464-.86a.317.317 0 01-.16-.28.323.323 0 01.16-.277l1.464-.862a.784.784 0 01.787 0l1.463.862a.317.317 0 01.16.278.323.323 0 01-.16.278l-1.463.861a.785.785 0 01-.787 0z" fill="#fff"/><path d="M37.24 77.397a.886.886 0 01-.44-.119l-1.463-.86a.405.405 0 01-.206-.357.412.412 0 01.206-.356l1.463-.861a.865.865 0 01.879 0l1.463.86a.41.41 0 01.202.357.416.416 0 01-.202.356l-1.463.861a.876.876 0 01-.44.12zm-.366-.274a.688.688 0 00.695 0l1.463-.862a.228.228 0 00.114-.2.23.23 0 00-.114-.2l-1.463-.862a.689.689 0 00-.695 0l-1.464.862a.232.232 0 00-.082.315.23.23 0 00.082.085l1.464.862z" fill="#3A3A3A"/><path d="M31.796 74.235l-1.463-.861a.32.32 0 01-.157-.279.327.327 0 01.157-.278l1.463-.861a.785.785 0 01.787 0l1.464.861a.321.321 0 01.157.278.327.327 0 01-.157.279l-1.464.86a.785.785 0 01-.787 0z" fill="#fff"/><path d="M32.199 74.44a.876.876 0 01-.44-.12l-1.463-.86a.41.41 0 01-.202-.357.416.416 0 01.202-.356l1.464-.862a.861.861 0 01.874 0l1.464.862a.404.404 0 01.206.356.413.413 0 01-.206.356l-1.464.861a.872.872 0 01-.435.12zm-.366-.275a.695.695 0 00.699 0l1.463-.862a.235.235 0 000-.4l-1.463-.862a.695.695 0 00-.7 0l-1.463.862a.224.224 0 00-.117.2.236.236 0 00.117.2l1.464.862z" fill="#3A3A3A"/><path d="M34.32 75.72l-1.464-.861a.317.317 0 01-.16-.279.323.323 0 01.16-.278l1.464-.858a.767.767 0 01.786 0l1.464.858a.317.317 0 01.16.278.323.323 0 01-.16.279l-1.446.86a.767.767 0 01-.804 0z" fill="#fff"/><path d="M34.716 75.92a.843.843 0 01-.44-.122l-1.463-.858a.413.413 0 01-.202-.358.42.42 0 01.202-.358l1.464-.861a.883.883 0 01.878 0l1.463.86a.409.409 0 01.206.359.416.416 0 01-.206.358l-1.463.858a.853.853 0 01-.44.122zm-.366-.278a.694.694 0 00.699 0l1.463-.861a.23.23 0 00.112-.199.233.233 0 00-.112-.199l-1.463-.86a.694.694 0 00-.7 0l-1.463.86a.228.228 0 00-.112.199.233.233 0 00.112.199l1.464.86z" fill="#3A3A3A"/><path d="M47.848 83.459a.32.32 0 01.157-.279l1.464-.86a.768.768 0 01.786 0l1.464.86 2.525 1.485a.317.317 0 01.16.278.323.323 0 01-.16.279l-1.464.86a.767.767 0 01-.787 0l-3.995-2.338a.317.317 0 01-.15-.285z" fill="#fff"/><path d="M52.394 86.272a.84.84 0 01-.439-.119l-3.995-2.338a.402.402 0 01-.202-.371.42.42 0 01.201-.371l1.464-.858a.861.861 0 01.875 0l3.995 2.338a.406.406 0 01.206.357.413.413 0 01-.206.356l-1.463.861a.851.851 0 01-.436.145zM49.87 82.3a.724.724 0 00-.366.097l-1.464.861a.214.214 0 00-.113.2.222.222 0 00.113.201l3.996 2.338a.687.687 0 00.695 0l1.463-.86a.228.228 0 00.114-.201.24.24 0 00-.114-.2L50.217 82.4a.685.685 0 00-.347-.1z" fill="#3A3A3A"/><path d="M42.717 83.514a.299.299 0 01.022-.156l.022-.022a.305.305 0 01.095-.1l1.464-.861a.778.778 0 01.787 0l1.463.86 2.525 1.486 2.525 1.484a.317.317 0 01.16.279.323.323 0 01-.16.278l-1.464.861a.767.767 0 01-.787 0l-6.52-3.82a.316.316 0 01-.132-.289z" fill="#fff"/><path d="M49.79 87.798a.85.85 0 01-.438-.12l-6.52-3.815a.406.406 0 01-.206-.37.244.244 0 010-.083v-.037a.296.296 0 01.026-.081l.033-.038a.37.37 0 01.12-.118l1.464-.861a.876.876 0 01.875 0l6.553 3.838a.404.404 0 01.206.356.413.413 0 01-.206.356l-1.464.861a.85.85 0 01-.442.112zm-7.072-4.284h.091a.233.233 0 00.114.2l6.524 3.82a.688.688 0 00.695 0l1.463-.861a.228.228 0 00.113-.198.233.233 0 00-.113-.2l-6.52-3.822a.724.724 0 00-.699 0l-1.463.86a.22.22 0 00-.066.075l-.026.026v.089l-.113.011z" fill="#3A3A3A"/><path d="M21.613 71.329l-6.52-3.82a.316.316 0 01-.161-.278.322.322 0 01.16-.278l1.464-.858h.044a.781.781 0 01.75 0l6.52 3.82a.317.317 0 01.16.278.322.322 0 01-.16.278l-1.463.861a.786.786 0 01-.794-.003z" fill="#fff"/><path d="M22.009 71.525a.876.876 0 01-.44-.118l-6.52-3.82a.406.406 0 01-.205-.356.413.413 0 01.206-.356l1.463-.858.048-.022a.864.864 0 01.834 0l6.52 3.82a.405.405 0 01.206.356.413.413 0 01-.206.356l-1.463.861a.887.887 0 01-.443.137zm-5.046-5.456a.723.723 0 00-.322.078l-.054.022-1.464.85a.236.236 0 00-.083.316c.02.036.048.065.083.085l6.535 3.846a.696.696 0 00.699 0l1.463-.862a.232.232 0 00.114-.2.233.233 0 00-.114-.2l-6.513-3.831a.678.678 0 00-.344-.104z" fill="#3A3A3A"/><path d="M41.741 83.886a.785.785 0 01.787 0l1.464.86a.321.321 0 01.157.28.327.327 0 01-.157.278l-1.464.86a.785.785 0 01-.787 0l-1.463-.86a.318.318 0 01-.16-.279.323.323 0 01.16-.278l1.463-.861z" fill="#fff"/><path d="M42.132 86.365a.836.836 0 01-.435-.119l-1.464-.86a.406.406 0 01-.206-.357.413.413 0 01.206-.357l1.464-.86a.862.862 0 01.874 0l1.464.86a.41.41 0 01.202.357.417.417 0 01-.202.356l-1.464.861a.84.84 0 01-.439.119zm0-2.49a.68.68 0 00-.366.092l-1.463.861a.236.236 0 000 .401l1.463.861a.694.694 0 00.7 0l1.463-.86a.227.227 0 00.115-.201.233.233 0 00-.115-.2l-1.464-.862a.701.701 0 00-.333-.081v-.012z" fill="#3A3A3A"/><path d="M55.743 81.607l1.463-.862a.785.785 0 01.787 0l1.463.862a.317.317 0 01.161.278.323.323 0 01-.16.278l-1.464.861a.785.785 0 01-.787 0l-1.463-.86a.316.316 0 01-.161-.28.322.322 0 01.16-.277z" fill="#fff"/><path d="M57.605 83.221a.84.84 0 01-.44-.119l-1.463-.86a.409.409 0 01-.202-.357.417.417 0 01.202-.357l1.464-.86a.865.865 0 01.878 0l1.464.86a.406.406 0 01.206.357.413.413 0 01-.206.356l-1.464.861a.851.851 0 01-.44.119zm-1.83-1.537a.229.229 0 00-.113.2.225.225 0 00.113.201l1.464.861a.688.688 0 00.695 0l1.464-.86a.229.229 0 00.113-.201.24.24 0 00-.113-.2l-1.464-.862a.688.688 0 00-.695 0l-1.464.861z" fill="#3A3A3A"/><path d="M44.272 85.37a.768.768 0 01.786 0l3.996 2.346a.316.316 0 01.16.278.322.322 0 01-.16.279l-1.464.86a.775.775 0 01-.79 0l-3.992-2.345a.331.331 0 01-.156-.284.339.339 0 01.156-.284l1.464-.85z" fill="#fff"/><path d="M47.199 89.323a.84.84 0 01-.439-.119l-4.01-2.35a.42.42 0 01-.201-.361.428.428 0 01.2-.362l1.464-.861a.875.875 0 01.875 0l3.999 2.35a.408.408 0 01.202.356.416.416 0 01-.202.356l-1.464.861a.85.85 0 01-.424.13zm-2.525-3.979a.724.724 0 00-.365.097l-1.464.86a.232.232 0 00-.115.203.237.237 0 00.115.202l3.988 2.343a.687.687 0 00.695 0l1.464-.862a.228.228 0 00.113-.2.24.24 0 00-.113-.2l-3.988-2.346a.685.685 0 00-.344-.097h.014z" fill="#3A3A3A"/><path d="M51.02 75.282a.784.784 0 01-.786 0l-1.464-.861a.315.315 0 01-.16-.279.323.323 0 01.16-.278l.42-.253a.767.767 0 01.788 0l1.463.861a.316.316 0 01.16.279.322.322 0 01-.16.278l-.42.253z" fill="#fff"/><path d="M50.624 75.478a.873.873 0 01-.435-.118l-1.464-.861a.406.406 0 01-.206-.357.413.413 0 01.206-.356l.421-.252a.864.864 0 01.878 0l1.464.857a.414.414 0 01.205.371.413.413 0 01-.205.371l-.42.253a.876.876 0 01-.444.093zm-1.046-1.885a.683.683 0 00-.348.096l-.42.253a.224.224 0 00-.117.2.24.24 0 00.113.2l1.464.862a.695.695 0 00.698 0l.421-.253a.236.236 0 00.083-.316.228.228 0 00-.083-.085l-1.463-.86a.683.683 0 00-.348-.097z" fill="#3A3A3A"/><path d="M39.213 82.4a.775.775 0 01.79 0l1.464.862a.316.316 0 01.157.276.323.323 0 01-.157.277l-1.464.865a.793.793 0 01-.79 0l-1.464-.865a.316.316 0 01-.157-.276.323.323 0 01.157-.277l1.464-.861z" fill="#fff"/><path d="M39.608 84.888a.887.887 0 01-.44-.119l-1.463-.861a.406.406 0 01-.205-.371.42.42 0 01.205-.372l1.464-.86a.882.882 0 01.878 0l1.464.86a.42.42 0 01.2.372.418.418 0 01-.2.37l-1.464.862a.876.876 0 01-.44.119zm-.366-2.398l-1.464.861a.229.229 0 00-.112.199.232.232 0 00.112.198l1.464.861a.688.688 0 00.695 0l1.464-.86a.23.23 0 00.112-.2.233.233 0 00-.112-.198l-1.464-.861a.687.687 0 00-.695 0z" fill="#3A3A3A"/><path d="M53.544 76.759a.768.768 0 01-.786 0l-1.464-.861a.317.317 0 01-.157-.277.324.324 0 01.157-.276l.425-.256a.786.786 0 01.786 0l1.464.86a.317.317 0 01.16.28.322.322 0 01-.16.278l-.425.252z" fill="#fff"/><path d="M53.153 76.96a.844.844 0 01-.439-.123l-1.463-.857a.414.414 0 01-.202-.359.42.42 0 01.202-.358l.42-.252a.865.865 0 01.879 0l1.463.86a.409.409 0 01.202.357.416.416 0 01-.202.357l-.424.252a.833.833 0 01-.436.123zm-1.05-1.886a.68.68 0 00-.366.093l-.42.256a.229.229 0 00-.113.198.232.232 0 00.112.199l1.464.861a.695.695 0 00.699 0l.42-.252a.225.225 0 00.114-.2.233.233 0 00-.113-.201l-1.464-.861a.68.68 0 00-.333-.093z" fill="#3A3A3A"/><path d="M55.472 81.543a.768.768 0 01-.787 0l-1.464-.857a.32.32 0 01-.156-.278.326.326 0 01.157-.279l1.463-.86a.767.767 0 01.787 0l1.463.86a.317.317 0 01.16.279.322.322 0 01-.16.278l-1.463.857z" fill="#fff"/><path d="M55.081 81.744a.876.876 0 01-.44-.119l-1.463-.861a.413.413 0 01-.201-.358.42.42 0 01.201-.358l1.464-.858a.862.862 0 01.874 0l1.464.858a.414.414 0 01.205.37.413.413 0 01-.205.372l-1.464.861a.871.871 0 01-.435.093zm0-2.494a.724.724 0 00-.366.096l-1.464.861a.229.229 0 00-.112.199.233.233 0 00.112.198l1.464.862a.694.694 0 00.699 0l1.463-.862a.229.229 0 00.113-.198.232.232 0 00-.113-.199l-1.463-.86a.704.704 0 00-.333-.097z" fill="#3A3A3A"/><path d="M58.864 79.78l.42-.252a.775.775 0 01.791 0l1.464.861a.317.317 0 01.16.279.323.323 0 01-.16.278l-.42.252a.786.786 0 01-.788 0l-1.463-.86a.32.32 0 01-.159-.278.325.325 0 01.155-.28z" fill="#fff"/><path d="M60.738 81.395a.873.873 0 01-.435-.119l-1.464-.86a.41.41 0 01-.202-.357.417.417 0 01.202-.357l.42-.252a.864.864 0 01.879 0l1.464.861a.409.409 0 01.202.356.416.416 0 01-.203.357l-.42.252a.902.902 0 01-.443.119zm-1.047-1.882a.68.68 0 00-.365.093l-.425.252a.236.236 0 000 .401l1.464.861a.696.696 0 00.699 0l.42-.252a.236.236 0 00.084-.316.229.229 0 00-.084-.085l-1.463-.861a.68.68 0 00-.34-.093h.01z" fill="#3A3A3A"/><path d="M56.07 78.24a.785.785 0 01-.788 0l-1.463-.861a.318.318 0 01-.16-.279.323.323 0 01.16-.278l.42-.252a.768.768 0 01.787 0l1.464.86a.321.321 0 01.157.28.327.327 0 01-.157.278l-.42.252z" fill="#fff"/><path d="M55.678 78.437a.876.876 0 01-.428-.12l-1.464-.86a.41.41 0 01-.202-.356.416.416 0 01.202-.357l.421-.252a.866.866 0 01.878 0l1.464.857a.413.413 0 01.201.371.41.41 0 01-.201.371l-.421.253a.885.885 0 01-.45.093zm-1.05-1.882a.68.68 0 00-.366.093l-.42.252a.233.233 0 00-.113.2.236.236 0 00.112.2l1.464.862a.688.688 0 00.695 0l.42-.252a.229.229 0 00.114-.2.225.225 0 00-.113-.201l-1.464-.861a.704.704 0 00-.33-.093z" fill="#3A3A3A"/><path d="M6.007 62.955a.792.792 0 01.79 0l1.464.861a.317.317 0 01.16.278.323.323 0 01-.16.279l-1.464.86a.793.793 0 01-.79 0l-1.463-.86a.316.316 0 01-.161-.279.323.323 0 01.16-.278l1.464-.861z" fill="#fff"/><path d="M6.402 65.43a.887.887 0 01-.44-.118L4.5 64.45a.406.406 0 01-.206-.356.413.413 0 01.206-.357l1.464-.861a.865.865 0 01.878 0l1.463.861a.406.406 0 01.206.356.413.413 0 01-.206.357l-1.463.86a.887.887 0 01-.44.12zm0-2.49a.68.68 0 00-.348.093l-1.464.861a.233.233 0 00-.111.2.236.236 0 00.111.2l1.464.862a.688.688 0 00.695 0l1.464-.861a.233.233 0 00.112-.2.236.236 0 00-.112-.201l-1.464-.861a.68.68 0 00-.347-.093z" fill="#3A3A3A"/><path d="M49.365 76.247l-1.464.86a.785.785 0 01-.786 0l-1.464-.86a.32.32 0 01-.157-.279.326.326 0 01.157-.278l1.464-.861a.785.785 0 01.786 0l1.464.861a.317.317 0 01.16.278.323.323 0 01-.16.279z" fill="#fff"/><path d="M47.503 77.305a.84.84 0 01-.439-.12l-1.463-.86a.41.41 0 01-.203-.357.417.417 0 01.203-.356l1.463-.861a.86.86 0 01.875 0l1.463.86a.405.405 0 01.206.357.413.413 0 01-.206.357l-1.47.88a.828.828 0 01-.429.1zm0-2.491a.702.702 0 00-.366.093l-1.463.86a.225.225 0 00-.114.201.232.232 0 00.114.2l1.463.862a.696.696 0 00.7 0l1.463-.861a.236.236 0 00.083-.316.233.233 0 00-.083-.085l-1.464-.861a.68.68 0 00-.333-.093z" fill="#3A3A3A"/><path d="M8.535 64.436a.768.768 0 01.787 0l1.463.86a.317.317 0 01.158.277.322.322 0 01-.158.277l-1.463.861a.767.767 0 01-.787 0l-1.463-.861a.317.317 0 01-.158-.276.323.323 0 01.158-.277l1.463-.861z" fill="#fff"/><path d="M8.927 66.912a.872.872 0 01-.436-.12l-1.463-.86a.41.41 0 01-.206-.359.417.417 0 01.206-.358l1.463-.86a.876.876 0 01.875 0l1.463.86a.403.403 0 01.202.371.413.413 0 01-.202.372l-1.463.86a.874.874 0 01-.44.094zm-.348-2.398l-1.463.86a.228.228 0 00-.113.2.233.233 0 00.113.198l1.463.861a.694.694 0 00.699 0l1.463-.86a.229.229 0 00.113-.2.232.232 0 00-.112-.198l-1.464-.861a.695.695 0 00-.699 0z" fill="#3A3A3A"/><path d="M24.062 73.537a.768.768 0 01.786 0l1.464.857a.322.322 0 01.157.279.327.327 0 01-.157.278l-1.464.861a.767.767 0 01-.786 0l-1.464-.86a.316.316 0 01-.16-.28.323.323 0 01.16-.278l1.464-.857z" fill="#fff"/><path d="M24.452 76.01a.851.851 0 01-.44-.12l-1.463-.857a.41.41 0 01-.205-.371.413.413 0 01.205-.371l1.463-.861a.883.883 0 01.879 0l1.463.86a.401.401 0 01.201.372.413.413 0 01-.2.371l-1.464.858a.84.84 0 01-.44.118zm0-2.491a.683.683 0 00-.366.096l-1.464.861a.23.23 0 00-.112.199.233.233 0 00.112.199l1.464.86a.694.694 0 00.699 0l1.463-.86a.228.228 0 00.112-.2.233.233 0 00-.112-.198l-1.463-.86a.724.724 0 00-.333-.097z" fill="#3A3A3A"/><path d="M26.585 75.014a.784.784 0 01.787 0l11.573 6.778a.317.317 0 01.16.278.322.322 0 01-.16.279l-1.464.861a.786.786 0 01-.787 0l-11.58-6.778a.32.32 0 01-.157-.278.326.326 0 01.157-.278l1.47-.862z" fill="#fff"/><path d="M37.082 83.407a.876.876 0 01-.44-.119L25.07 76.51a.41.41 0 01-.202-.356.417.417 0 01.202-.356l1.464-.861a.86.86 0 01.874 0l11.574 6.777a.407.407 0 01.206.356.413.413 0 01-.206.357l-1.464.861a.865.865 0 01-.435.119zm-10.454-8.314l-1.463.86a.221.221 0 00-.114.201.233.233 0 00.114.2l11.565 6.79a.694.694 0 00.7 0l1.463-.862a.229.229 0 00.113-.2.24.24 0 00-.113-.2l-11.566-6.79a.695.695 0 00-.699 0z" fill="#3A3A3A"/><path d="M21.532 72.056a.792.792 0 01.79 0l1.464.861a.316.316 0 01.161.279.322.322 0 01-.16.278l-1.464.861a.793.793 0 01-.79 0l-1.464-.861a.317.317 0 01-.16-.278.323.323 0 01.16-.279l1.463-.86z" fill="#fff"/><path d="M21.929 74.532a.887.887 0 01-.44-.119l-1.463-.86a.404.404 0 01-.206-.357.413.413 0 01.206-.357l1.464-.86a.865.865 0 01.878 0l1.464.86a.406.406 0 01.206.357.413.413 0 01-.206.356l-1.464.861a.887.887 0 01-.44.119zm-.366-2.398l-1.463.861a.228.228 0 00-.114.2.24.24 0 00.113.201l1.464.861a.688.688 0 00.695 0l1.464-.86a.236.236 0 000-.402l-1.464-.86a.687.687 0 00-.695 0z" fill="#3A3A3A"/><path d="M11.062 65.913a.784.784 0 01.787 0l1.463.861a.316.316 0 01.16.279.323.323 0 01-.16.278l-1.463.861a.785.785 0 01-.787 0l-1.464-.861a.32.32 0 01-.157-.278.326.326 0 01.157-.279l1.464-.86z" fill="#fff"/><path d="M11.457 68.389a.875.875 0 01-.44-.119l-1.463-.861a.41.41 0 01-.202-.356.416.416 0 01.202-.357l1.463-.86a.861.861 0 01.875 0l1.463.86a.404.404 0 01.206.357.413.413 0 01-.206.356l-1.463.861a.87.87 0 01-.435.119zm0-2.49a.702.702 0 00-.366.092l-1.464.861a.225.225 0 00-.113.2.225.225 0 00.113.201l1.464.861a.695.695 0 00.698 0l1.464-.86a.229.229 0 00.113-.201.236.236 0 00-.113-.2l-1.464-.862a.682.682 0 00-.332-.093z" fill="#3A3A3A"/><path d="M13.958 67.617a.786.786 0 01.786 0l3.996 2.342a.32.32 0 01.157.278.326.326 0 01-.157.279l-1.464.861a.785.785 0 01-.786 0l-4.003-2.338a.315.315 0 01-.16-.279.323.323 0 01.16-.278l1.47-.865z" fill="#fff"/><path d="M16.875 71.574a.872.872 0 01-.435-.12l-4-2.341a.406.406 0 01-.206-.357.413.413 0 01.206-.356l1.464-.846a.876.876 0 01.878 0l3.996 2.342a.41.41 0 01.202.356.416.416 0 01-.202.357l-1.464.86a.876.876 0 01-.439.105zm-2.872-3.88l-1.464.866a.228.228 0 00-.112.198.233.233 0 00.112.199l3.996 2.338a.694.694 0 00.698 0l1.464-.86a.225.225 0 00.116-.2.229.229 0 00-.116-.198l-3.992-2.342a.723.723 0 00-.699 0h-.003z" fill="#3A3A3A"/><path d="M19.027 70.575a.784.784 0 01.786 0l1.464.861a.315.315 0 01.16.279.323.323 0 01-.16.278l-1.464.861a.768.768 0 01-.786 0l-1.464-.86a.317.317 0 01-.16-.28.322.322 0 01.16-.278l1.464-.86z" fill="#fff"/><path d="M19.392 73.05a.84.84 0 01-.44-.118l-1.463-.861a.399.399 0 01-.201-.371.409.409 0 01.2-.371l1.465-.862a.884.884 0 01.878 0l1.463.862a.406.406 0 01.205.37.409.409 0 01-.205.372l-1.463.861a.85.85 0 01-.44.119zm-.366-2.393l-1.464.86a.229.229 0 00-.112.2.233.233 0 00.112.198l1.464.861a.694.694 0 00.698 0l1.464-.861a.23.23 0 00.112-.199.233.233 0 00-.112-.198l-1.463-.861a.695.695 0 00-.7 0z" fill="#3A3A3A"/><path d="M50.453 81.933a.32.32 0 01.158-.278l1.463-.862a.767.767 0 01.787 0l1.464.862 2.524 1.484a.318.318 0 01.16.279.323.323 0 01-.16.278l-1.463.861a.785.785 0 01-.787 0l-3.996-2.338a.318.318 0 01-.15-.286z" fill="#fff"/><path d="M55.002 84.747a.84.84 0 01-.44-.12l-3.995-2.337a.403.403 0 01-.201-.372.42.42 0 01.2-.37l1.465-.858a.862.862 0 01.874 0l3.995 2.338a.406.406 0 01.206.356.413.413 0 01-.206.357l-1.463.86a.852.852 0 01-.435.146zm-2.525-3.968a.702.702 0 00-.366.093l-1.464.86a.214.214 0 00-.113.201.222.222 0 00.113.2l3.996 2.339a.687.687 0 00.695 0l1.464-.861a.229.229 0 00.113-.2.24.24 0 00-.113-.201l-3.996-2.338a.682.682 0 00-.33-.093z" fill="#3A3A3A"/><path d="M13.779 60.669l-1.464-.862a.32.32 0 01-.157-.278.327.327 0 01.157-.278l1.464-.861a.784.784 0 01.786 0l1.464.86a.317.317 0 01.16.279.323.323 0 01-.16.278l-1.464.861a.768.768 0 01-.786 0z" fill="#fff"/><path d="M14.175 60.873a.84.84 0 01-.439-.12l-1.463-.86a.409.409 0 01-.203-.357.416.416 0 01.203-.356l1.463-.861a.862.862 0 01.875 0l1.463.861a.406.406 0 01.206.356.413.413 0 01-.206.357l-1.463.86a.829.829 0 01-.436.12zm-.366-.275a.694.694 0 00.7 0l1.463-.861a.23.23 0 00.113-.2.242.242 0 00-.113-.201l-1.464-.861a.702.702 0 00-.699 0l-1.463.86a.23.23 0 00-.114.201.225.225 0 00.114.2l1.463.862z" fill="#3A3A3A"/><path d="M14.836 60.731l1.464-.86a.793.793 0 01.79 0l1.464.86a.315.315 0 01.16.279.323.323 0 01-.16.278l-1.464.861a.793.793 0 01-.79 0l-1.464-.86a.318.318 0 01-.16-.28.323.323 0 01.16-.278z" fill="#fff"/><path d="M16.698 62.357a.887.887 0 01-.44-.118l-1.463-.861a.405.405 0 01-.205-.372.418.418 0 01.201-.37l1.464-.862a.865.865 0 01.878 0l1.464.861a.406.406 0 01.206.356.413.413 0 01-.206.357l-1.464.86a.889.889 0 01-.435.15zm-1.83-1.536a.229.229 0 00-.113.2.24.24 0 00.113.2l1.464.858a.687.687 0 00.695 0l1.463-.857a.236.236 0 00.084-.317.229.229 0 00-.084-.084l-1.463-.861a.688.688 0 00-.695 0l-1.464.86z" fill="#3A3A3A"/><path d="M45.37 75.627a.768.768 0 01-.786 0l-1.464-.861a.316.316 0 01-.157-.277.322.322 0 01.157-.276l1.464-.861a.767.767 0 01.787 0l1.463.86a.317.317 0 01.158.277.322.322 0 01-.158.277l-1.463.86z" fill="#fff"/><path d="M44.975 75.827a.873.873 0 01-.435-.118l-1.463-.862a.41.41 0 01-.206-.358.416.416 0 01.206-.358l1.463-.861a.876.876 0 01.875 0l1.463.861a.413.413 0 01.202.358.42.42 0 01-.202.358l-1.463.862a.876.876 0 01-.44.118zm0-2.494a.685.685 0 00-.365.097l-1.464.86a.229.229 0 00-.112.2.232.232 0 00.112.198l1.464.861a.694.694 0 00.699 0l1.463-.861a.228.228 0 00.112-.199.233.233 0 00-.112-.198l-1.463-.861a.725.725 0 00-.334-.097z" fill="#3A3A3A"/><path d="M11.927 65.186a.767.767 0 01-.787 0l-1.464-.861a.317.317 0 01-.16-.279.323.323 0 01.16-.278l1.464-.858a.768.768 0 01.787 0l1.463.858a.32.32 0 01.157.278.327.327 0 01-.157.279l-1.463.86z" fill="#fff"/><path d="M11.532 65.386a.865.865 0 01-.435-.119l-1.464-.86a.41.41 0 01-.205-.372.413.413 0 01.205-.371l1.464-.861a.875.875 0 01.874 0l1.463.86a.413.413 0 01.202.359.42.42 0 01-.201.358l-1.464.861a.877.877 0 01-.44.145zm0-2.494a.683.683 0 00-.348.096l-1.463.861a.229.229 0 00-.112.199.233.233 0 00.112.199l1.463.86a.694.694 0 00.7 0l1.463-.86a.228.228 0 00.112-.199.233.233 0 00-.112-.199l-1.464-.86a.723.723 0 00-.351-.097z" fill="#3A3A3A"/><path d="M20.296 57.313a.784.784 0 01-.787 0l-1.463-.861a.315.315 0 01-.161-.278.323.323 0 01.16-.279l.421-.252a.768.768 0 01.787 0l1.463.861a.316.316 0 01.161.278.323.323 0 01-.16.279l-.421.252z" fill="#fff"/><path d="M19.9 57.51a.836.836 0 01-.435-.12L18 56.53a.404.404 0 01-.206-.357.413.413 0 01.206-.356l.42-.252a.865.865 0 01.879 0l1.463.86a.404.404 0 01.206.357.413.413 0 01-.206.357l-.42.252a.84.84 0 01-.443.119zm-1.047-1.882a.68.68 0 00-.366.093l-.42.252a.232.232 0 00-.004.4l1.464.862a.694.694 0 00.698 0l.421-.252a.236.236 0 00.084-.316.228.228 0 00-.084-.085l-1.463-.861a.681.681 0 00-.33-.093z" fill="#3A3A3A"/><path d="M35.268 69.71a.767.767 0 01-.786 0l-1.464-.86a.317.317 0 01-.16-.28.323.323 0 01.16-.278l1.464-.86a.785.785 0 01.786 0l1.464.86a.318.318 0 01.16.279.323.323 0 01-.16.278l-1.464.861z" fill="#fff"/><path d="M34.873 69.907a.85.85 0 01-.439-.119l-1.463-.86a.398.398 0 01-.205-.353.413.413 0 01.205-.372l1.463-.86a.882.882 0 01.879 0l1.463.86a.409.409 0 01.202.357.416.416 0 01-.202.356l-1.464.861a.84.84 0 01-.439.13zm0-2.49a.684.684 0 00-.365.096l-1.464.861a.229.229 0 00-.112.199.233.233 0 00.112.198l1.464.861a.694.694 0 00.698 0l1.464-.86a.228.228 0 00.112-.2.232.232 0 00-.112-.198l-1.464-.861a.725.725 0 00-.333-.097z" fill="#3A3A3A"/><path d="M40.919 69.365a.784.784 0 01-.787 0l-1.463-.861a.317.317 0 01-.161-.278.323.323 0 01.16-.279l.421-.252a.767.767 0 01.787 0l1.464.857a.317.317 0 01.16.279.323.323 0 01-.16.278l-.421.256z" fill="#fff"/><path d="M40.523 69.562a.887.887 0 01-.44-.119l-1.463-.861a.406.406 0 01-.206-.356.412.412 0 01.206-.357l.42-.252a.869.869 0 01.875 0l1.464.86a.41.41 0 01.205.36.416.416 0 01-.205.357l-.42.253a.875.875 0 01-.436.115zm-1.047-1.886a.724.724 0 00-.366.097l-.42.252a.228.228 0 00-.114.2.242.242 0 00.114.201l1.463.857a.695.695 0 00.699 0l.42-.252a.23.23 0 00.113-.199.232.232 0 00-.112-.198l-1.464-.861a.684.684 0 00-.333-.097z" fill="#3A3A3A"/><path d="M39.263 70.33l-1.463.861a.784.784 0 01-.787 0l-1.463-.86a.32.32 0 01-.157-.28.327.327 0 01.157-.278l1.463-.86a.786.786 0 01.787 0l1.463.86a.322.322 0 01.157.279.327.327 0 01-.157.278z" fill="#fff"/><path d="M37.401 71.388a.876.876 0 01-.446-.123l-1.464-.86a.406.406 0 01-.206-.357.412.412 0 01.206-.356l1.464-.861a.862.862 0 01.874 0l1.464.86a.407.407 0 01.206.357.413.413 0 01-.206.356l-1.464.862a.871.871 0 01-.428.122zm0-2.49a.702.702 0 00-.366.092l-1.463.861a.229.229 0 00-.114.2.24.24 0 00.114.201l1.463.861a.694.694 0 00.7 0l1.463-.86a.236.236 0 000-.402l-1.464-.86a.699.699 0 00-.333-.094z" fill="#3A3A3A"/><path d="M43.442 70.842a.767.767 0 01-.786 0l-1.464-.86a.317.317 0 01-.16-.28.322.322 0 01.16-.278l.42-.252a.793.793 0 01.791 0l1.464.861a.318.318 0 01.16.279.323.323 0 01-.16.278l-.425.252z" fill="#fff"/><path d="M43.046 71.04a.837.837 0 01-.436-.12l-1.463-.86a.402.402 0 01-.205-.372.413.413 0 01.205-.371l.42-.252a.865.865 0 01.879 0l1.463.86a.407.407 0 01.206.357.413.413 0 01-.206.356l-.42.253a.841.841 0 01-.443.148zm-1.047-1.883a.68.68 0 00-.366.093l-.42.252a.233.233 0 00-.004.401l1.463.861a.696.696 0 00.7 0l.42-.252a.236.236 0 00.083-.316.233.233 0 00-.083-.085l-1.464-.86a.68.68 0 00-.329-.094z" fill="#3A3A3A"/><path d="M45.966 72.323a.785.785 0 01-.787 0l-1.463-.86a.32.32 0 01-.157-.28.327.327 0 01.157-.278l.424-.252a.768.768 0 01.787 0l1.463.861a.317.317 0 01.158.277.322.322 0 01-.158.276l-.424.256z" fill="#fff"/><path d="M45.575 72.52a.876.876 0 01-.439-.119l-1.464-.86a.401.401 0 01-.2-.372.416.416 0 01.2-.371l.421-.252a.875.875 0 01.878 0l1.464.86a.413.413 0 01.202.359.42.42 0 01-.202.358l-.42.252a.888.888 0 01-.44.145zm-1.05-1.885a.685.685 0 00-.366.096l-.42.252a.22.22 0 00-.114.2.23.23 0 00.113.201l1.464.858a.684.684 0 00.699 0l.42-.256a.23.23 0 00.113-.199.232.232 0 00-.112-.199l-1.464-.86a.725.725 0 00-.333-.093z" fill="#3A3A3A"/><path d="M33.34 64.926a.785.785 0 01-.786 0l-1.464-.861a.317.317 0 01-.16-.279.323.323 0 01.16-.278l.421-.252a.785.785 0 01.787 0l1.463.86a.317.317 0 01.161.28.322.322 0 01-.16.278l-.421.252z" fill="#fff"/><path d="M32.93 65.123a.829.829 0 01-.436-.12l-1.464-.86a.406.406 0 01-.206-.357.413.413 0 01.206-.356l.421-.252a.865.865 0 01.878 0l1.464.86a.404.404 0 01.206.357.413.413 0 01-.206.356l-.421.253a.84.84 0 01-.443.118zm-1.047-1.882a.68.68 0 00-.366.092l-.425.253a.236.236 0 00-.083.316c.02.035.049.064.083.085l1.464.86a.687.687 0 00.695 0l.425-.252a.236.236 0 00.083-.316.228.228 0 00-.083-.084l-1.464-.862a.68.68 0 00-.315-.092h-.014z" fill="#3A3A3A"/><path d="M28.286 61.986a.767.767 0 01-.787 0l-1.463-.86a.321.321 0 01-.157-.28.327.327 0 01.157-.278l.424-.252a.768.768 0 01.787 0l1.464.861a.316.316 0 01.16.279.322.322 0 01-.16.278l-.425.252z" fill="#fff"/><path d="M27.895 62.164a.84.84 0 01-.439-.118l-1.463-.861a.402.402 0 01-.201-.372.416.416 0 01.2-.37l.421-.253a.865.865 0 01.879 0l1.463.857a.42.42 0 01.201.371.417.417 0 01-.2.371l-.422.253a.85.85 0 01-.439.122zm-1.05-1.882a.68.68 0 00-.366.093l-.42.253a.228.228 0 00-.114.2.225.225 0 00.114.2l1.463.862a.695.695 0 00.699 0l.42-.253a.229.229 0 00.114-.2.225.225 0 00-.113-.2l-1.464-.862a.703.703 0 00-.333-.093z" fill="#3A3A3A"/><path d="M25.348 60.271a.793.793 0 01-.79 0l-1.464-.86a.317.317 0 01-.16-.28.323.323 0 01.16-.278l.421-.252a.785.785 0 01.787 0l1.463.861a.321.321 0 01.157.279.327.327 0 01-.157.278l-.417.252z" fill="#fff"/><path d="M24.954 60.468a.85.85 0 01-.439-.119l-1.463-.86a.409.409 0 01-.202-.357.416.416 0 01.202-.356l.42-.253a.866.866 0 01.879 0l1.463.861a.41.41 0 01.203.357.416.416 0 01-.203.356l-.42.252a.85.85 0 01-.44.12zm-1.05-1.882a.688.688 0 00-.366.093l-.42.252a.229.229 0 00-.114.201.225.225 0 00.114.2l1.463.861a.688.688 0 00.695 0l.421-.252a.233.233 0 00.004-.4l-1.464-.862a.704.704 0 00-.333-.093z" fill="#3A3A3A"/><path d="M30.815 63.445a.775.775 0 01-.79 0l-1.464-.857a.318.318 0 01-.16-.279.323.323 0 01.16-.278l.42-.256a.785.785 0 01.787 0l1.464.86a.317.317 0 01.16.28.322.322 0 01-.16.278l-.417.252z" fill="#fff"/><path d="M30.421 63.645a.886.886 0 01-.439-.119l-1.463-.86a.409.409 0 01-.203-.357.417.417 0 01.203-.356l.42-.256a.876.876 0 01.879 0l1.463.86a.406.406 0 01.206.357.413.413 0 01-.206.356l-.42.256a.886.886 0 01-.44.12zm-1.046-1.885a.74.74 0 00-.366.093l-.42.256a.229.229 0 00-.113.198.232.232 0 00.112.199l1.464.86a.688.688 0 00.695 0l.42-.252a.224.224 0 00.118-.2.24.24 0 00-.114-.2l-1.463-.861a.723.723 0 00-.333-.093z" fill="#3A3A3A"/><path d="M22.821 58.794a.785.785 0 01-.786 0l-1.464-.86a.32.32 0 01-.157-.28.326.326 0 01.157-.278l.424-.256a.785.785 0 01.787 0l1.464.861a.317.317 0 01.16.279.323.323 0 01-.16.278l-.425.256z" fill="#fff"/><path d="M22.429 58.99a.876.876 0 01-.44-.118l-1.463-.861a.413.413 0 01-.202-.358.42.42 0 01.202-.358l.42-.253a.884.884 0 01.879 0l1.463.861a.41.41 0 01.203.357.416.416 0 01-.203.356l-.424.256a.872.872 0 01-.435.119zm-1.05-1.885a.682.682 0 00-.366.097l-.421.252a.228.228 0 00-.112.199.233.233 0 00.112.198l1.463.861a.695.695 0 00.7 0l.42-.252a.228.228 0 00.112-.199.233.233 0 00-.112-.198l-1.463-.861a.722.722 0 00-.334-.097z" fill="#3A3A3A"/><path d="M35.856 66.407a.786.786 0 01-.786 0l-1.464-.861a.32.32 0 01-.157-.279.327.327 0 01.157-.278l.421-.256a.784.784 0 01.787 0l1.463.861a.316.316 0 01.16.279.323.323 0 01-.16.278l-.42.256z" fill="#fff"/><path d="M35.492 66.603a.876.876 0 01-.44-.118l-1.463-.861a.41.41 0 01-.202-.357.416.416 0 01.202-.356l.42-.256a.876.876 0 01.879 0l1.464.861a.408.408 0 01.2.371.413.413 0 01-.2.371l-.425.256a.87.87 0 01-.435.09zm-1.05-1.885a.685.685 0 00-.366.096l-.414.253a.22.22 0 00-.113.2.233.233 0 00.113.2l1.464.858a.694.694 0 00.699 0l.42-.252a.23.23 0 00.113-.199.232.232 0 00-.113-.198l-1.463-.862a.684.684 0 00-.359-.096h.018z" fill="#3A3A3A"/><path d="M86.643 83.849c.08 1.629-2.682 2.39-4.317 3.132-1.35.546-2.828 2.88-5.016 2.918-14.797.27-.454-14.944 6.454-8.805.077.07 2.605.891 2.88 2.755z" fill="#C2C7CB"/><path d="M76.921 89.995c-4.35 0-5.69-1.377-6.04-2.554-.546-1.807 1.031-4.413 3.746-6.195 2.627-1.722 6.425-2.683 9.195-.218l.114.048c1.69.716 2.634 1.644 2.795 2.758.066 1.406-1.79 2.16-3.425 2.824-.34.138-.662.267-.947.397a6.588 6.588 0 00-1.54 1.114c-.981.846-2.09 1.8-3.51 1.826h-.388zm2.928-10.278a9.678 9.678 0 00-5.123 1.682c-2.649 1.737-4.193 4.257-3.659 5.99.348 1.151 1.709 2.499 6.26 2.42 1.355-.025 2.441-.957 3.4-1.781a6.485 6.485 0 011.584-1.114c.285-.13.611-.26.951-.4 1.577-.639 3.367-1.363 3.312-2.64-.158-1.043-1.061-1.922-2.69-2.598a.909.909 0 01-.16-.078 5.664 5.664 0 00-3.894-1.48h.019z" fill="#3A3A3A"/><path d="M86.638 83.93c-.303 2.116-4.061 2.598-5.594 4.142-4.23 4.595-15.181 1.058-8.05-5.404-5.166 5.055 1.043 7.23 4.281 5.709 2.382-1.259 3.846-5.264 9.199-5.23.12.242.177.512.164.783z" fill="#3A3A3A"/><path d="M80.22 81.15l.542.345c.109-.03.214-.07.315-.122.468-.33 1.727-.535 2.561-.642-.132-1.021-2.32-1.827-3.293.204-.08.133-.124.215-.124.215z" fill="#fff"/><path d="M80.75 81.595l-.644-.412.04-.074s.044-.081.106-.212c.457-.953 1.27-1.432 2.162-1.284.688.115 1.237.58 1.303 1.114v.093h-.088c-.498.066-2.009.27-2.51.627-.11.057-.225.103-.344.137l-.026.011zm-.41-.475l.435.279c.091-.03.18-.066.267-.108.34-.245 1.156-.457 2.48-.638a1.396 1.396 0 00-.45-.59 1.368 1.368 0 00-.687-.272c-.812-.137-1.551.309-1.972 1.184l-.073.145z" fill="#3A3A3A"/><path d="M83.841 81.157a1.26 1.26 0 00-.43-.784 1.226 1.226 0 00-.835-.292c-1.186-.085-1.83 1.418-1.83 1.418a7.631 7.631 0 013.096-.342z" fill="#3A3A3A"/><path d="M33.947 13.537a6.519 6.519 0 011.782-.572c2.119-.371 4.65.175 7.366 1.767.424.248.834.516 1.244.794.325-3.827 1.745-6.644 3.907-8.247a8.94 8.94 0 00-1.032-.063 6.98 6.98 0 00-3.088.682l-10.179 5.639z" fill="#fff"/><path d="M44.415 15.693l-.143-.104a21.982 21.982 0 00-1.237-.79c-2.605-1.53-5.122-2.135-7.318-1.756-.61.1-1.2.29-1.756.564l-.084-.167 10.18-5.638a7.081 7.081 0 013.142-.68c.349 0 .697.023 1.043.068l.227.026-.183.14c-2.218 1.641-3.557 4.455-3.871 8.167v.17zm-7.377-2.932c1.892 0 3.974.642 6.103 1.893.366.204.732.434 1.12.709.333-3.586 1.624-6.347 3.743-8.018a9.17 9.17 0 00-.79-.037 6.898 6.898 0 00-3.048.672l-9.082 5.03c.205-.052.414-.1.626-.138a7.82 7.82 0 011.328-.111z" fill="#3A3A3A"/><path d="M100.371 40.113l-10.176 5.642c.344.163.692.345 1.043.553 6.656 3.897 12.053 13.336 12.053 21.082 0 3.927-1.391 6.682-3.623 7.899l10.245-5.679h.033l.077-.048c2.126-1.28 3.439-3.972 3.439-7.795 0-7.746-5.397-17.185-12.052-21.083a9.014 9.014 0 00-1.039-.571z" fill="#fff"/><path d="M99.713 75.37l-.088-.159c2.298-1.277 3.564-4.05 3.564-7.813 0-7.702-5.386-17.122-12.005-21.005-.344-.197-.691-.371-1.039-.546l-.164-.077 10.376-5.754.04.023c.366.181.732.37 1.054.556 6.67 3.909 12.097 13.4 12.097 21.157 0 3.571-1.138 6.288-3.217 7.699h.022l-.366.222h-.032L99.71 75.348l.003.023zm-9.315-29.623c.296.149.596.308.889.48 6.67 3.908 12.096 13.402 12.096 21.156 0 3.133-.867 5.594-2.473 7.104l9.07-5.03c2.195-1.32 3.396-4.06 3.396-7.712 0-7.706-5.386-17.126-12.005-21.001a11.47 11.47 0 00-.996-.535l-9.977 5.538z" fill="#3A3A3A"/><path d="M59.081 1.203L49.184 6.68l.19-.096c1.745-.88 3.856-1.095 6.194-.568a16.851 16.851 0 014.757 1.952c4.994 2.929 9.455 8.192 12.407 14.079l10.176-5.635C79.955 10.523 75.495 5.278 70.5 2.335 66.11-.245 62.114-.52 59.213 1.114l-.037.022-.095.067z" fill="#fff"/><path d="M72.71 22.181l-.043-.085c-3.06-6.113-7.57-11.228-12.371-14.042a16.825 16.825 0 00-4.757-1.944c-2.272-.513-4.39-.316-6.136.56l-.19.1-.084-.167 9.912-5.49.084-.044.117-.074C62.29-.687 66.304-.241 70.56 2.249c4.826 2.829 9.363 7.973 12.44 14.105l.04.082-.076.044-10.252 5.701zM53.133 5.646c.826.002 1.65.098 2.455.285a16.826 16.826 0 014.786 1.964c4.808 2.817 9.323 7.928 12.4 14.03l10.014-5.567c-3.06-6.078-7.553-11.162-12.328-13.96-4.21-2.458-8.185-2.888-11.185-1.2l-.058.034-.092.052-8.507 4.71a8.968 8.968 0 012.514-.348z" fill="#3A3A3A"/><path d="M48.89 6.848c.043-.029.087-.055.132-.078l-.131.078z" fill="url(#paint0_linear_7019_6247)"/><path d="M72.75 22.052c1.851-.524 4.16-.153 6.648 1.332.503.297 1 .626 1.49.987 5.433 4.028 9.622 11.9 9.622 18.459.008.988-.101 1.974-.325 2.936l10.175-5.642c.224-.96.334-1.945.326-2.932 0-7.145-4.973-15.853-11.109-19.446-2.502-1.462-4.807-1.856-6.662-1.318L72.75 22.051z" fill="#fff"/><path d="M90.058 45.937l.047-.205a12.41 12.41 0 00.326-2.913c0-6.43-4.12-14.331-9.587-18.385-.47-.352-.959-.68-1.463-.98-2.404-1.406-4.68-1.855-6.586-1.314l-.783.227 10.87-6.035c1.972-.576 4.3-.115 6.751 1.317 6.154 3.604 11.156 12.364 11.156 19.528.009 1-.102 1.997-.329 2.97v.04l-10.402 5.75zM74.43 21.732c1.548 0 3.257.527 5.024 1.563.516.303 1.015.634 1.497.99 5.51 4.084 9.663 12.05 9.663 18.534.005.925-.09 1.849-.282 2.754l9.96-5.52c.215-.941.321-1.906.314-2.872.015-7.116-4.961-15.794-11.064-19.365-2.408-1.406-4.684-1.855-6.586-1.306l-9.594 5.308a6.32 6.32 0 011.068-.086z" fill="#3A3A3A"/><path d="M99.73 72.999c-14.843-8.7-51.681-30.27-51.864-30.388-3.806-2.428-7.38-6.355-10.14-11.173-2.897-5.085-4.503-10.493-4.503-15.221 0-.052 3.885-5.141 12.502 2.264.395-19.821 19.253-10.003 26.037 5.27 9.583-2.279 19.539 13.203 16.531 22.924C95.373 48.527 106.416 66.07 99.731 73z" fill="#3A3A3A"/><path d="M99.749 73.121l-.062-.037C85 64.48 48 42.807 47.817 42.685c-3.808-2.428-7.42-6.407-10.171-11.202-2.927-5.119-4.515-10.541-4.515-15.27 0-.085.578-.798 1.657-1.307 2.024-.95 5.544-1.113 10.849 3.374.209-7.984 3.366-10.311 5.993-10.857 2.997-.623 6.952.813 10.816 3.935a34.088 34.088 0 019.37 12.286c3.62-.828 7.655.846 11.087 4.599 4.819 5.263 7.124 12.968 5.488 18.369 4.666 1.303 10.882 9.183 12.843 16.31.846 3.062 1.277 7.304-1.463 10.144l-.022.055zM33.314 16.246c0 4.692 1.602 10.067 4.493 15.148 2.733 4.77 6.323 8.726 10.11 11.135.245.156 37.097 21.74 51.799 30.351 2.616-2.773 2.195-6.919 1.361-9.914-1.961-7.12-8.185-14.995-12.806-16.206l-.092-.022.026-.096c1.654-5.342-.63-13.032-5.434-18.277-3.41-3.712-7.416-5.374-10.976-4.528h-.073l-.03-.07a34 34 0 00-9.36-12.26C58.499 8.417 54.613 7 51.668 7.608c-3.703.768-5.726 4.528-5.854 10.872v.196l-.147-.126c-4.412-3.79-7.533-4.22-9.377-3.912a4.806 4.806 0 00-2.975 1.607z" fill="#3A3A3A"/><path d="M33.78 15.59c-.196.152-.379.32-.55.5.167-.184.351-.352.55-.5z" fill="url(#paint2_linear_7019_6247)"/><path d="M99.855 73.077a4.31 4.31 0 01-1.246.894 4.244 4.244 0 01-1.96.409 7.952 7.952 0 01-2.802-.587 10.656 10.656 0 01-1.072-.475c-.235-.119-49.239-28.822-49.422-28.933-3.154-2.015-6.117-5.267-8.415-9.25-2.375-4.209-3.721-8.681-3.721-12.597 0-2.884.71-5.096 2.012-6.459v.138c0 4.728 1.607 10.133 4.504 15.218 2.76 4.825 6.334 8.745 10.14 11.172.175.123 37.207 21.81 51.982 30.47z" fill="#fff"/><path d="M96.65 74.484a7.95 7.95 0 01-2.835-.594 10.343 10.343 0 01-1.08-.48 89708.89 89708.89 0 01-49.428-28.932c-3.168-2.027-6.161-5.323-8.415-9.28-2.433-4.242-3.765-8.737-3.765-12.66 0-2.866.706-5.13 2.038-6.522l.161-.17v.3a.437.437 0 000 .07c0 4.7 1.595 10.09 4.493 15.178 2.733 4.77 6.323 8.726 10.11 11.135.212.134 28.236 16.55 44.979 26.354l6.952 4.083a5.55 5.55 0 00.26-.301l.142.119a4.399 4.399 0 01-1.605 1.289 4.335 4.335 0 01-2.006.41zM33.133 16.332c-1.193 1.37-1.83 3.511-1.83 6.213 0 3.89 1.325 8.352 3.725 12.56 2.262 3.931 5.222 7.209 8.376 9.213.662.401 49.168 28.803 49.417 28.926.344.18.698.338 1.061.475.882.36 1.82.556 2.77.58a4.214 4.214 0 001.65-.29 4.26 4.26 0 001.412-.91l-6.908-4.06C74.957 58.578 47.98 42.778 47.82 42.684c-3.809-2.427-7.42-6.406-10.172-11.202-2.887-5.074-4.493-10.456-4.515-15.151z" fill="#3A3A3A"/><mask id="a" style="mask-type:luminance" maskUnits="userSpaceOnUse" x="32" y="6" width="69" height="68"><path d="M99.924 69.21c-.512 2.471-1.83 3.711-4.153 3.837-1.957-.167-2.397-.445-2.66-.612-.157-.104-49.187-28.58-51.144-30.04-5.57-4.513-9.751-12.675-9.912-19.382v-1.329c.117-1.986.64-3.611 1.51-4.71.056-.07.158-.204.195-.238.677-.78 7.812-10.508 7.812-10.508s9.513.843 9.831.884a351 351 0 013.414.092c1.12.167 2.045.275 3.172.828.403.245 2.521 1.581 2.927 1.823.15.111.754.842.915.961 2.243 1.707 4.555 3.712 6.403 6.34.951 1.332 2.836 4.565 3.202 5.226l.585 1.21.732-.438c.183 0 .915.156 1.657.156.234 0 .593.026.732.033h.915c4.793.988 9.513 6.93 11.449 12.249 1.613 4.454.91 9.483.903 9.524l-.336 1.581 1.43.743c7.64 3.86 11.775 15.33 10.421 21.77z" fill="#fff"/></mask><g mask="url(#a)"><path d="M46.098 22.085l13.077-7.643.003 20.549-13.073 7.646-.007-20.552z" fill="#DBE0E6"/><path d="M59.083 14.602v20.333l-12.89 7.542V22.141l12.894-7.54h-.004zm.183-.32l-13.26 7.75v20.764l13.267-7.754v-20.76h-.007z" fill="#3A3A3A"/><path d="M61.734 36.086V17.382L49.543 24.51l.004 18.703 12.188-7.126z" fill="#D2FC1B"/><path d="M46.63 22.801l2.913 1.708 12.192-7.127-2.916-1.707L46.63 22.8z" fill="#fff"/><path d="M49.544 24.616l-3.077-1.815.135-.081 12.236-7.153 3.099 1.815-12.393 7.234zm-2.711-1.815l2.73 1.6 12.008-7.019-2.733-1.6-12.005 7.02z" fill="#3A3A3A"/><path d="M49.797 44.975a6.643 6.643 0 01-1.504-.208 4.209 4.209 0 01-2.287-1.403 3.302 3.302 0 01-.425-.705.924.924 0 00-.095-.252V22.122c.103.212.226.413.366.601a4.33 4.33 0 002.382 1.455 6.896 6.896 0 001.552.216l.01 20.581z" fill="#DBE0E6"/><path d="M45.57 22.475c.07.107.143.207.22.304a4.38 4.38 0 002.426 1.485c.486.127.984.2 1.486.215v20.415a6.507 6.507 0 01-1.39-.2 4.037 4.037 0 01-2.24-1.37 3.188 3.188 0 01-.392-.65v-.045a1.124 1.124 0 00-.091-.233V22.489l-.018-.014zm-.182-.806v20.786c.047.071.08.15.099.234v.03c.115.258.261.5.435.723a4.282 4.282 0 002.338 1.433 6.62 6.62 0 001.61.212V24.3h-.051a6.532 6.532 0 01-1.57-.212 4.296 4.296 0 01-2.33-1.425 3.475 3.475 0 01-.546-.995h.015z" fill="#3A3A3A"/><path d="M49.973 24.356L63.05 16.71v20.548l-13.074 7.647-.003-20.549z" fill="#DBE0E6"/><path d="M62.958 16.87v20.333l-12.89 7.542V24.41l12.894-7.539h-.004zm.183-.32L49.88 24.3v20.787l13.256-7.758V16.551h.004z" fill="#3A3A3A"/><path d="M63.14 16.55l-.618-.37-13.004 7.609c-.966-.041-2.744-.323-3.465-1.786l13.22-7.72-.619-.371-13.263 7.757c.49 2.944 4.303 2.64 4.486 2.624l13.263-7.742z" fill="#3A3A3A"/><path d="M55.124 21.246v10.86l-1.248-1.299-1.4 2.914V22.775l-.542-.397 2.601-1.522.59.39z" fill="#3A3A3A"/><path d="M65.31 38.587v-25.73l-13.263 7.75.007 25.734 13.257-7.754z" fill="#96999E"/><path d="M51.955 46.504V20.556l.048-.026 13.395-7.836v25.949l-.044.026-13.399 7.835zm.176-25.84V46.18l13.073-7.646V13.017l-13.073 7.646z" fill="#3A3A3A"/><path d="M67.781 39.63l-.004-23.673-12.191 7.126.007 23.674 12.188-7.127z" fill="#D2FC1B"/><path d="M52.672 21.376l2.912 1.707 12.192-7.126-2.913-1.708-12.191 7.127z" fill="#fff"/><path d="M55.584 23.191l-3.096-1.815.136-.078 12.239-7.156 3.095 1.819-.139.081-12.235 7.15zm-2.73-1.815l2.73 1.6 12.008-7.015-2.73-1.6-12.008 7.015z" fill="#3A3A3A"/><path d="M55.838 48.516a6.273 6.273 0 01-1.504-.204 4.106 4.106 0 01-2.287-1.403 3.302 3.302 0 01-.424-.705.818.818 0 00-.096-.252v-25.24c.103.212.226.413.366.601a4.344 4.344 0 002.382 1.455 6.405 6.405 0 001.552.215l.01 25.533z" fill="#96999E"/><path d="M51.615 21.05c.066.105.138.207.216.304a4.42 4.42 0 002.43 1.484 7.1 7.1 0 001.463.216v25.362a6.554 6.554 0 01-1.39-.2 4.037 4.037 0 01-2.24-1.37 3.286 3.286 0 01-.391-.65v-.044a1.236 1.236 0 00-.092-.234V21.05h.004zm-.187-.806V45.98c.047.07.08.148.1.23a.075.075 0 000 .034c.111.265.256.515.431.742a4.282 4.282 0 002.338 1.433 6.645 6.645 0 001.61.211V22.875h-.051a6.557 6.557 0 01-1.57-.211 4.297 4.297 0 01-2.33-1.425 3.472 3.472 0 01-.546-.995h.019z" fill="#3A3A3A"/><path d="M56.014 22.931l13.077-7.646v25.518L56.017 48.45l-.003-25.518z" fill="#96999E"/><path d="M68.999 15.445v25.303l-12.89 7.542V22.983l12.893-7.538H69zm.183-.32l-13.26 7.75v25.749l13.256-7.758v-25.74h.004z" fill="#3A3A3A"/><path d="M69.183 15.125l-.618-.37-13.004 7.608c-.966-.04-2.744-.323-3.462-1.785l13.213-7.72-.622-.372-13.256 7.758c.49 2.943 4.303 2.643 4.485 2.624l13.264-7.743z" fill="#3A3A3A"/><path d="M58.607 21.302l-.464-.338 2.43-1.421.5.33V30.45l-1.181-1.225-1.285 2.67V21.301z" fill="#D2FC1B"/><path d="M60.572 19.65l.41.27v10.305l-.933-.97-.18-.188-.116.237-1.054 2.19v-10.24l-.073-.053-.315-.23 2.261-1.321zm0-.22l-2.601 1.523.541.397v10.942l1.402-2.91 1.247 1.295V19.825l-.589-.393z" fill="#3A3A3A"/><path d="M71.594 41.705l-.004-20.763-13.26 7.75.007 20.767 13.257-7.754z" fill="#D2FC1B"/><path d="M58.246 49.619v-20.98l.048-.029 13.391-7.824v20.971l-.044.026-13.395 7.836zm.176-20.871v20.548l13.073-7.646V21.1l-13.073 7.647z" fill="#3A3A3A"/><path d="M74.059 42.745V24.04l-12.192 7.127.008 18.703 12.184-7.127z" fill="#D2FC1B"/><path d="M58.955 29.46l2.913 1.707 12.191-7.126-2.916-1.707-12.188 7.126z" fill="#fff"/><path d="M61.869 31.275l-3.096-1.815.136-.078 12.235-7.156 3.1 1.815-.14.082-12.235 7.152zm-2.73-1.815l2.73 1.6 12.008-7.019-2.733-1.6-12.005 7.02z" fill="#3A3A3A"/><path d="M62.12 51.634a6.47 6.47 0 01-1.503-.208 4.224 4.224 0 01-2.287-1.403 3.372 3.372 0 01-.424-.701.807.807 0 00-.096-.256V28.78c.103.212.226.413.366.601a4.354 4.354 0 002.382 1.459c.508.13 1.028.201 1.552.212l.01 20.581z" fill="#D2FC1B"/><path d="M57.898 29.134c.065.105.137.207.215.304a4.42 4.42 0 002.43 1.485c.485.124.982.196 1.482.215V51.53a6.554 6.554 0 01-1.39-.2 4.161 4.161 0 01-2.24-1.37 3.088 3.088 0 01-.391-.65v-.044a1.102 1.102 0 00-.092-.23V29.134h-.014zm-.187-.806v20.786c.047.071.08.15.099.234a.038.038 0 000 .03c.111.265.257.514.431.742a4.282 4.282 0 002.339 1.433 6.426 6.426 0 001.61.211V30.96h-.052a6.542 6.542 0 01-1.57-.212 4.297 4.297 0 01-2.312-1.425 3.476 3.476 0 01-.545-.995z" fill="#3A3A3A"/><path d="M62.297 31.015l13.077-7.646v20.548L62.3 51.567l-.004-20.552z" fill="#D2FC1B"/><path d="M75.282 23.529v20.336l-12.89 7.539V31.067l12.893-7.538h-.003zm.183-.32L62.2 30.96v20.786l13.256-7.757v-20.78h.008z" fill="#3A3A3A"/><path d="M75.464 23.21l-.618-.372-13.011 7.598c-.966-.04-2.744-.323-3.462-1.785l13.213-7.72-.618-.372-13.253 7.769c.49 2.943 4.303 2.643 4.486 2.624l13.263-7.743z" fill="#3A3A3A"/><path d="M67.446 27.909v10.856L66.2 37.466l-1.402 2.914V29.434l-.541-.397 2.601-1.522.59.394z" fill="#3A3A3A"/><path d="M64.283 32.623l13.08-7.647v20.549L64.29 53.17l-.007-20.548z" fill="#DBE0E6"/><path d="M77.272 25.136v20.333L64.396 53.01V32.674l12.898-7.538h-.022zm.183-.32l-13.264 7.75V53.33l13.257-7.753v-20.76h.007z" fill="#3A3A3A"/><path d="M79.926 46.62l-.004-18.704-12.191 7.127.007 18.703 12.188-7.127z" fill="#D2FC1B"/><path d="M64.816 33.335l2.913 1.708 12.191-7.127-2.912-1.707-12.192 7.126z" fill="#fff"/><path d="M67.728 35.15l-3.095-1.815.135-.081 12.24-7.153 3.095 1.815-.136.082-12.239 7.152zm-2.73-1.815l2.73 1.6 12.009-7.019-2.73-1.6L65 33.336z" fill="#3A3A3A"/><path d="M67.982 55.51a6.648 6.648 0 01-1.504-.209 4.245 4.245 0 01-2.287-1.403 3.063 3.063 0 01-.42-.705.91.91 0 00-.1-.252V32.663c.101.214.224.415.367.602a4.332 4.332 0 002.378 1.455c.508.13 1.028.203 1.551.215l.015 20.574z" fill="#DBE0E6"/><path d="M63.76 33.005c.066.107.138.21.216.308a4.43 4.43 0 002.43 1.485c.478.123.97.194 1.463.211v20.396a6.417 6.417 0 01-1.387-.2 4.15 4.15 0 01-2.239-1.37 3.044 3.044 0 01-.395-.65v-.044a1.125 1.125 0 00-.092-.234V33.005h.004zm-.183-.802V52.99c.047.071.08.15.099.234a.07.07 0 000 .03c.112.265.257.514.432.742a4.282 4.282 0 002.338 1.433 6.64 6.64 0 001.61.211V34.835h-.052a6.542 6.542 0 01-1.57-.212 4.296 4.296 0 01-2.33-1.425 3.383 3.383 0 01-.541-.995h.014z" fill="#3A3A3A"/><path d="M68.156 34.89l13.077-7.646v20.548L68.16 55.44l-.004-20.549z" fill="#DBE0E6"/><path d="M81.143 27.404V47.74l-12.89 7.539V34.942l12.893-7.538h-.003zm.183-.323l-13.271 7.754V55.62l13.256-7.757V27.096l.015-.015z" fill="#3A3A3A"/><path d="M81.326 27.096l-.619-.371-13 7.597c-.97-.04-2.748-.322-3.465-1.785l13.212-7.72-.618-.371-13.26 7.757c.487 2.944 4.3 2.643 4.482 2.624l13.268-7.731z" fill="#3A3A3A"/><path d="M73.31 31.78v10.86l-1.244-1.299-1.402 2.914V33.31l-.545-.397 2.602-1.522.589.39z" fill="#3A3A3A"/><path d="M83.377 49.377l-.004-25.733-13.26 7.754.004 25.733 13.26-7.754z" fill="#96999E"/><path d="M70.027 57.29V31.343l.044-.026 13.4-7.832V49.43l-.048.03-13.396 7.832zm.18-25.84v25.52l13.077-7.65V23.808L70.207 31.45z" fill="#3A3A3A"/><path d="M85.844 50.42l-.004-23.673-12.188 7.126.004 23.674 12.188-7.127z" fill="#D2FC1B"/><path d="M70.736 32.166l2.916 1.708 12.188-7.127-2.912-1.707-12.192 7.126z" fill="#fff"/><path d="M73.654 33.981l-3.1-1.815.14-.082 12.235-7.152 3.096 1.815-.136.078-12.235 7.156zm-2.733-1.815l2.733 1.611 12.005-7.019-2.73-1.6-12.008 7.008z" fill="#3A3A3A"/><path d="M73.908 59.306a6.43 6.43 0 01-1.5-.204 4.14 4.14 0 01-2.29-1.403 3.44 3.44 0 01-.421-.705 1.004 1.004 0 00-.095-.252v-25.24c.1.213.223.414.365.601a4.332 4.332 0 002.379 1.455c.51.133 1.035.206 1.562.219v25.53z" fill="#96999E"/><path d="M69.678 31.836c.066.107.138.21.216.308a4.405 4.405 0 002.43 1.484c.485.126.983.198 1.485.216V59.21a6.265 6.265 0 01-1.387-.204 4.015 4.015 0 01-2.24-1.37 3.346 3.346 0 01-.394-.646v-.04a1.125 1.125 0 00-.092-.235V31.848l-.018-.011zm-.183-.802v25.733a.96.96 0 01.099.234.037.037 0 000 .03 3.4 3.4 0 00.435.724 4.279 4.279 0 002.335 1.436 6.34 6.34 0 001.61.208V33.666h-.052a6.542 6.542 0 01-1.57-.212 4.318 4.318 0 01-2.334-1.425 3.475 3.475 0 01-.541-.995h.018z" fill="#3A3A3A"/><path d="M74.08 33.721l13.077-7.646v25.518L74.084 59.24l-.004-25.518z" fill="#96999E"/><path d="M87.082 26.235v25.303l-12.89 7.542V33.777l12.89-7.543zm.183-.323L73.99 33.666v25.722l13.257-7.754V25.912h.018z" fill="#3A3A3A"/><path d="M87.25 25.916l-.618-.372-13.004 7.61c-.97-.042-2.747-.324-3.465-1.786l13.213-7.724-.619-.371-13.238 7.761c.487 2.947 4.3 2.643 4.486 2.628l13.246-7.746z" fill="#3A3A3A"/><path d="M76.675 32.092l-.468-.342 2.433-1.421.498.334V41.24l-1.178-1.228-1.285 2.668V32.09z" fill="#D2FC1B"/><path d="M78.636 30.436l.41.271v10.308l-.93-.973-.182-.189-.114.237-1.053 2.19V32.044l-.077-.056-.315-.227 2.261-1.325zm0-.219l-2.605 1.522.545.397v10.946l1.402-2.913 1.244 1.299V30.61l-.586-.371v-.023z" fill="#3A3A3A"/><path d="M75.777 39.137l13.077-7.643.004 20.548-13.073 7.647-.008-20.552z" fill="#D2FC1B"/><path d="M88.764 31.654v20.333l-12.89 7.542V39.192l12.89-7.538zm.183-.32l-13.26 7.75v20.764l13.257-7.754v-20.76h.003z" fill="#3A3A3A"/><path d="M91.416 53.137V34.434L79.225 41.56l.007 18.704 12.184-7.127z" fill="#D2FC1B"/><path d="M76.313 39.853l2.912 1.707 12.192-7.126-2.917-1.707-12.188 7.126z" fill="#fff"/><path d="M79.226 41.668l-3.095-1.815.135-.082 12.24-7.152 3.095 1.815-.128.085-12.247 7.15zm-2.73-1.815l2.73 1.6 12.009-7.02-2.73-1.599-12.008 7.02z" fill="#3A3A3A"/><path d="M79.478 62.023a6.247 6.247 0 01-1.504-.204 4.246 4.246 0 01-2.287-1.403 3.31 3.31 0 01-.424-.705.784.784 0 00-.095-.252V39.174c.103.212.225.413.366.601a4.343 4.343 0 002.382 1.455 6.623 6.623 0 001.551.215l.011 20.578z" fill="#D2FC1B"/><path d="M75.256 39.523c.065.107.137.21.216.308a4.42 4.42 0 002.43 1.484c.484.126.98.197 1.48.212v20.396a6.5 6.5 0 01-1.39-.2 4.16 4.16 0 01-2.239-1.37 3.188 3.188 0 01-.391-.65v-.044a1.124 1.124 0 00-.092-.234V39.523h-.014zm-.187-.802v20.786c.046.07.08.148.099.23a.049.049 0 000 .03c.11.265.256.515.432.742a4.282 4.282 0 002.338 1.433 6.639 6.639 0 001.61.211v-20.8h-.052a6.537 6.537 0 01-1.57-.212 4.296 4.296 0 01-2.33-1.425 3.525 3.525 0 01-.545-.995h.018z" fill="#3A3A3A"/><path d="M79.654 41.408l13.077-7.646V54.31l-13.073 7.646-.004-20.548z" fill="#D2FC1B"/><path d="M92.64 33.922v20.333l-12.876 7.542V41.46l12.894-7.538h-.019zm.182-.323l-13.26 7.754v20.785l13.257-7.757V33.599h.003z" fill="#3A3A3A"/><path d="M92.822 33.602l-.619-.37-13 7.597c-.97-.04-2.748-.323-3.465-1.785l13.209-7.72-.615-.372-13.26 7.75c.49 2.944 4.303 2.64 4.486 2.625l13.264-7.725z" fill="#3A3A3A"/><path d="M84.804 38.298v10.86l-1.248-1.299-1.401 2.914V39.827l-.542-.397 2.602-1.522.589.39z" fill="#3A3A3A"/></g><path d="M90.225 45.729c.532-3.237.214-6.56-.922-9.632-2.075-5.724-7.153-12.828-13.103-14.05a.208.208 0 010-.044c-1.204-.267-3.388 0-3.417.023-.03.022-2.01-3.627-3.169-5.26a31.608 31.608 0 00-6.743-7.115c-.198-.149-.385-.29-.59-.43-.029-.03-3.292-2.005-3.322-2.016a13.652 13.652 0 00-4.101-1.337c-.077 0-.384-.055-.454-.063a8.745 8.745 0 00-5.01.757 7.69 7.69 0 00-2.1 1.556l-.222.226v.022c-1.321 1.463-2.254 3.549-2.602 6.31-.037.271-.07.542-.091.824l-.077-.048a15.265 15.265 0 00-2.05-1.229 12.395 12.395 0 00-4.277-1.34 13.711 13.711 0 00-2.195.056h-.033a6.494 6.494 0 00-3.838 2.172c-.026.03-.209.24-.264.319-1.218 1.54-1.862 3.648-2.008 6.069 0 .3-.022 1.291 0 1.443v.019c.183 7.568 4.815 16.428 10.918 21.369 1.464 1.213 45.89 27.095 51.818 30.477.68.248.797.928 4.248 1.198 12.154-.53 5.971-24.014-6.396-30.276zm6.447 28.506c-2.137-.178-2.624-.494-2.927-.68l-3.853-2.245c-11.526-6.71-46.6-27.14-48.276-28.372-5.76-4.677-10.066-13.092-10.23-20.01v-1.33c.124-2.148.684-3.874 1.617-5.055a3.4 3.4 0 01.223-.27 4.74 4.74 0 012.755-1.574l.15-.023a9.29 9.29 0 01.984-.033h.685c1.271.16 2.503.552 3.637 1.158.637.315 1.248.68 1.83 1.091l2.557 1.667.289-2.899c0-.249.047-.494.077-.742.289-2.276 1.017-4.083 2.158-5.345 0 0 .132-.134.169-.178a6.2 6.2 0 011.657-1.23 7.022 7.022 0 014.025-.593c.08 0 .315.037.399.052 1.227.195 2.417.578 3.53 1.136l1.67 1.013 1.514.92.509.372a30.086 30.086 0 016.359 6.737c.97 1.35 2.67 4.357 3.073 5.088l.622 1.136 1.178-.241c.588-.07 1.18-.107 1.771-.111h.575l.472.107c4.998 1.032 9.81 7.424 11.793 12.917a17.515 17.515 0 01.863 8.63l-.289 1.358 1.215.628c7.918 4.005 13.172 16.046 11.778 22.723-.564 2.68-2.053 4.05-4.56 4.198z" fill="#96999E"/></g><defs><linearGradient id="paint0_linear_7019_6247" x1="48.96" y1="6.811" x2="48.96" y2="6.807" gradientUnits="userSpaceOnUse"><stop stop-color="#4065A8"/><stop offset="1" stop-color="#284075"/></linearGradient><linearGradient id="paint1_linear_7019_6247" x1="93.379" y1="21.001" x2="92.695" y2="19.837" gradientUnits="userSpaceOnUse"><stop stop-color="#4065A8"/><stop offset="1" stop-color="#284075"/></linearGradient><linearGradient id="paint2_linear_7019_6247" x1="33.867" y1="15.563" x2="33.468" y2="15.848" gradientUnits="userSpaceOnUse"><stop stop-color="#4065A8"/><stop offset="1" stop-color="#284075"/></linearGradient><clipPath id="clip0_7019_6247"><path fill="#fff" d="M0 0h128v94H0z"/></clipPath></defs></svg>