<svg width="103" height="85" fill="none" xmlns="http://www.w3.org/2000/svg"><path d="M1.081 72.625l18.073 9.808a.998.998 0 00.975 0l51.46-29.518-20.264-9.473L1.08 70.984a.934.934 0 000 1.641z" fill="#3A3A3A"/><path d="M1.08 71.556l18.074 9.84a.998.998 0 00.975 0L71.57 51.877l-20.246-9.481L1.08 69.933a.935.935 0 000 1.623z" fill="#DBE0E6"/><path d="M19.628 81.602a1.09 1.09 0 01-.523-.135L1.036 71.66a1.029 1.029 0 010-1.789L51.32 42.284h.045L71.8 51.877l-.161.094-51.46 29.519c-.172.083-.36.121-.55.112zM1.13 71.489l18.07 9.808a.894.894 0 00.893 0l51.282-29.42-20.046-9.392L1.126 70.018a.84.84 0 000 1.471h.004z" fill="#3A3A3A"/><path d="M.392 70.881l.864.479.228-.662 59.202-32.65 3.998-34.54.139-1.208.447-.063.488-1.346-.81-.559a.188.188 0 00-.188 0L4.83 33.625a1.695 1.695 0 00-.86 1.257l-.447 3.578-3.51 31.638a.734.734 0 00.38.783z" fill="#3A3A3A"/><path d="M2.047 71.404l59.551-32.837L65.48 5.024l.18-1.579.267-2.299a.25.25 0 00-.38-.246l-.523.304L4.99 34.547l-.555 4.472L.938 70.61a.756.756 0 001.109.795z" fill="#96999E"/><path d="M1.685 71.597a.823.823 0 01-.5-.166.84.84 0 01-.34-.84l3.493-31.58.563-4.527h.04L64.975 1.133 65.5.829a.358.358 0 01.375 0 .354.354 0 01.152.34l-.447 3.873-3.882 33.58-.045.022L2.097 71.489a.855.855 0 01-.412.108zM5.08 34.609l-.55 4.424-3.493 31.584a.658.658 0 00.966.702l59.506-32.814L65.83 1.15a.146.146 0 00-.066-.148.156.156 0 00-.166 0l-.523.304L5.08 34.61z" fill="#3A3A3A"/><path d="M3.066 35.678L20.509 81.57a2.237 2.237 0 002.88.694l58.437-32.202c.97-.537 2.04-1.463 1.445-3.086L65.828 1.079a2.236 2.236 0 00-2.885-.724 4953.38 4953.38 0 01-19.907 10.988c-3.278 1.79-6.708 3.695-10.134 5.587l-13.163 7.25-12.572 6.94c-1.342.73-2.5 1.383-3.47 1.92a1.79 1.79 0 00-.631 2.638z" fill="#DBE0E6"/><path d="M22.346 82.621a2.336 2.336 0 01-1.927-.997L2.976 35.723a1.9 1.9 0 01.666-2.769l1.159-.644 2.317-1.279c3.354-1.847 7.723-4.262 12.572-6.941l13.162-7.25 3.645-2.008 6.494-3.578 6.445-3.556C55.17 4.541 60.126 1.808 62.894.27a2.34 2.34 0 013.01.733l17.443 45.914c.483 1.342-.023 2.398-1.494 3.212L23.415 82.33a2.21 2.21 0 01-1.069.29zM63.967.193a2.008 2.008 0 00-.984.246 7224.526 7224.526 0 01-13.462 7.434l-6.445 3.578-6.494 3.578-3.645 2.008c-4.495 2.46-8.994 4.942-13.153 7.227L7.21 31.206l-2.316 1.279-1.159.64a1.719 1.719 0 00-.858 1.113 1.74 1.74 0 00.268 1.386l17.438 45.91a2.138 2.138 0 002.742.644l58.437-32.201c1.396-.77 1.852-1.74 1.405-2.97L65.725 1.115a2.12 2.12 0 00-1.758-.922z" fill="#3A3A3A"/><path d="M63.562 2.998a.313.313 0 01.448.16l16.642 44.556S27.076 77.049 27.009 76.87L22.375 64.4 10.371 32.32l12.586-6.938L63.562 2.998z" fill="#fff"/><path d="M26.986 76.968h-.04v-.04L10.25 32.275l.076-.04L63.522 2.907a.447.447 0 01.581.242l16.669 44.63-.076.04c-.13.077-13.502 7.398-26.732 14.612C28.381 76.37 27.12 76.968 26.986 76.968zM10.491 32.364l16.576 44.38c2.325-1.082 51.227-27.854 53.46-29.07L63.91 3.193a.205.205 0 00-.125-.125.202.202 0 00-.175 0L10.49 32.363z" fill="#3A3A3A"/><path d="M45.51 48l11.655-6.691 3.122 9.786-11.714 6.847L45.51 48z" fill="#fff"/><path d="M48.436 58.291l-3.198-10.398 12.076-6.928 3.265 10.237-12.143 7.089zm-2.648-10.18l2.92 9.482 11.303-6.61-2.979-9.334-11.244 6.463z" fill="#3A3A3A"/><path d="M54.237 53.183c-.191 0-.38-.037-.559-.107l-6.122-2.366a1.558 1.558 0 111.122-2.907l4.696 1.816 6.123-14.947a1.562 1.562 0 112.885 1.185l-6.709 16.356a1.556 1.556 0 01-1.436.97z" fill="#D2FC1B"/><path d="M54.237 53.376c-.216 0-.43-.04-.63-.116l-6.124-2.366a1.753 1.753 0 01-.071-3.238 1.713 1.713 0 011.341-.032l4.518 1.744 6.064-14.759a1.755 1.755 0 013.243 1.342l-6.709 16.36a1.749 1.749 0 01-1.632 1.065zm-6.123-5.483a1.341 1.341 0 00-1.243 1.918 1.342 1.342 0 00.755.716l6.119 2.366a1.378 1.378 0 001.753-.752l6.709-16.36a1.364 1.364 0 00-2.523-1.038L53.476 49.87l-4.87-1.883a1.341 1.341 0 00-.492-.093zM3.693 33.035C15.187 26.67 54.03 5.297 63.114.265c.067-.04 1.185-.313.698-.04C52.733 6.357 13.81 27.85 4.135 33.209c-.585.322-1.024 1.75-.648 2.304l17.89 46.545c.268.398 1.458.657.362.384a2.022 2.022 0 01-1.225-.894L3.07 35.66a1.788 1.788 0 01.622-2.625zm61.13 30.725c.42.591 2.76 0 2.76-1.824 0-1.427-1.557-5.765-2.51-5.29-.657.335-1.551 3.282-1.551 3.282.01.356.078.708.2 1.042.336.886.994 2.639 1.101 2.79z" fill="#3A3A3A"/><path d="M54.72 49.914c-.232-.537-.303-1.14.13-1.534.568-.505 2.684 1.02 3.525 1.677 1.377 1.105 6.261 3.86 6.261 3.86s.97-.895 1.61-.989c1.646-.304 2.116.273 2.652.448a1.113 1.113 0 00.98.076 3.82 3.82 0 013.13.201c.162.08.64.447.815.403 1.959-.331 3.13.805 3.698 1.306 2.55 2.28 5.21 7.504 10.166 10.174l-6.31 8.261S72.18 69.325 70.37 68.39a5.89 5.89 0 00-1.633-.564c-1.789-.335-5.84-1.09-7.236-1.265-1.928-.25-4.343-.394-4.133-1.503.18-.975.662-1.18 1.637-1.52 2.075-.734 4.42 0 6.137-.537.979-.322 1.341-1.646.71-2.603-.818-1.221-3.577-3.672-5.92-5.533-1.186-.921-4.706-3.788-5.211-4.95z" fill="#DBE0E6"/><path d="M81.41 73.936l-.071-.036c-.094-.045-9.223-4.473-11.012-5.407a5.965 5.965 0 00-1.61-.55c-1.704-.322-5.814-1.092-7.223-1.27l-.657-.077c-1.467-.174-2.983-.357-3.44-.975a.697.697 0 01-.125-.563c.193-1.02.716-1.248 1.7-1.597a9.486 9.486 0 013.444-.33c.9.078 1.806.008 2.683-.206a1.405 1.405 0 00.868-.895 1.79 1.79 0 00-.206-1.556c-.823-1.23-3.636-3.721-5.904-5.515-1.096-.868-4.71-3.788-5.237-5.005-.304-.697-.25-1.283.157-1.646.693-.621 3.157 1.284 3.645 1.673 1.279 1.02 5.644 3.498 6.212 3.82a4.536 4.536 0 011.606-.97c.799-.213 1.65-.1 2.365.312.11.061.224.115.34.161l.09.032a.93.93 0 00.823.04 3.909 3.909 0 013.184.21l.192.112c.172.123.362.216.564.277a4.24 4.24 0 013.717 1.275l.058.053c.993.97 1.906 2.017 2.733 3.131 1.851 2.353 4.159 5.273 7.415 7.026l.103.059-6.414 8.417zM61.485 63.309a7.34 7.34 0 00-2.446.336c-.966.344-1.4.532-1.575 1.449a.51.51 0 00.09.411c.407.55 1.945.734 3.305.895l.658.08c1.4.179 5.528.948 7.24 1.27a5.968 5.968 0 011.66.568c1.704.895 10.067 4.951 10.935 5.367l6.19-8.104c-3.238-1.789-5.532-4.687-7.38-7.026a25.72 25.72 0 00-2.683-3.13l-.063-.054a4.051 4.051 0 00-3.55-1.226 1.48 1.48 0 01-.699-.304 2.05 2.05 0 00-.178-.107 3.716 3.716 0 00-3.037-.197 1.124 1.124 0 01-.948-.045l-.09-.031a2.429 2.429 0 01-.362-.175 2.979 2.979 0 00-2.237-.29c-.608.116-1.556.961-1.565.97l-.049.045-.063-.032c-.049-.03-4.92-2.777-6.297-3.868-1.377-1.091-2.996-2.04-3.395-1.682-.398.358-.295.984-.107 1.422.523 1.203 4.406 4.316 5.18 4.92 2.356 1.865 5.107 4.307 5.943 5.56a1.977 1.977 0 01.228 1.735 1.58 1.58 0 01-.988 1.01 8.353 8.353 0 01-2.764.22c-.34.022-.649.013-.957.013h.004z" fill="#3A3A3A"/><path d="M65.852 60.415a1.829 1.829 0 01-.188 2.3c1.207-.828.894-1.902.657-2.532-.474-1.31-2.393-2.925-3.462-3.775-1.789-1.409-2.075-1.655-3.935-2.943-.39-.268-1.418-1.22-2.353-2.102-1.11-1.038-2.084-2.062-1.717-2.983-.448.402-.367.997-.135 1.534.506 1.163 4.026 4.025 5.21 4.969 2.353 1.86 5.104 4.311 5.922 5.532zm12.795 9.862c-1.44-.29-2.012-.76-3.35-1.341-1.037-.47-2.106-1.181-6.22-1.99-.85-.166-5.958-.676-7.425-.775-.895-.058-5.13.35-3.91-1.954a1.71 1.71 0 00-.375.895c-.138 1.122 2.205 1.252 4.133 1.502 1.395.175 5.443.93 7.232 1.266a5.87 5.87 0 011.637.564c1.811.934 6.261 3.193 7 3.345 1.667.326 2.607.26 4.396-1.409a9.685 9.685 0 01-3.118-.103z" fill="#3A3A3A"/><path d="M101.131 67.826l-11.364-6.368c-1.181-.658-2.8-.546-4.584.483-3.614 2.088-6.548 7.156-6.548 11.337 0 2.111.751 3.578 1.963 4.258l11.342 6.36 9.191-16.07z" fill="#D2FC1B"/><path d="M91.98 84.04l-11.436-6.41c-1.301-.72-2.017-2.267-2.017-4.352 0-4.204 2.961-9.33 6.602-11.431 1.757-1.016 3.426-1.186 4.687-.483l11.463 6.422-9.298 16.253zm-3.86-22.887a5.815 5.815 0 00-2.866.895c-3.578 2.066-6.494 7.111-6.494 11.244 0 2.003.68 3.484 1.905 4.168l11.253 6.302 9.084-15.877-11.271-6.32a3.243 3.243 0 00-1.61-.412z" fill="#3A3A3A"/><path d="M96.435 68.332c-3.614 2.084-6.534 7.156-6.52 11.293.012 4.137 2.947 5.814 6.565 3.743 3.618-2.07 6.53-7.156 6.521-11.297-.009-4.142-2.952-5.828-6.566-3.74zM17.97 39.44a1.788 1.788 0 01-1.79-1.37c-.447-1.43.331-3.13 1.82-3.962a2.966 2.966 0 011.387-.402 1.762 1.762 0 011.749 1.341c.447 1.45-.322 3.163-1.816 3.994a2.91 2.91 0 01-1.35.398zm.867-4.844a1.676 1.676 0 00-.823.223 2.236 2.236 0 00-1.033 2.559 1.615 1.615 0 001.556 1.163c.29-.007.574-.084.828-.224a2.235 2.235 0 00.997-2.54 1.592 1.592 0 00-1.525-1.181zm2.749-2.424l.868-.483 3.752 2.142-1.14-3.596.742-.411 1.494 4.714-.868.483-3.743-2.138 1.136 3.591-.747.412-1.494-4.714zM27.285 29l.828-.46 1.306 4.11 2.15-1.198.193.603-2.979 1.66L27.285 29zm4.067-2.262l.823-.456 1.498 4.713-.828.457-1.493-4.714zm2.302-1.284l.868-.479 3.757 2.138-1.14-3.596.737-.411 1.494 4.718-.863.479-3.748-2.138 1.136 3.591-.742.416-1.499-4.718zm5.701-3.171l3.511-1.954.17.54-2.683 1.495.487 1.543 2.424-1.351.17.541-2.424 1.346.497 1.561 2.764-1.543.17.541-3.592 1.995-1.493-4.714zm7.809-3.685l-1.516.845-.183-.568 3.873-2.156.183.568-1.534.85 1.32 4.155-.828.46-1.315-4.154zm3.196-2.438l3.51-1.954.17.541-2.683 1.494.487 1.543 2.424-1.35.17.536-2.42 1.35.493 1.557 2.764-1.534.17.537-3.592 1.994-1.494-4.714zm6.212 1.642h-.309l.117-.85c.173.023.348.035.523.036a3.36 3.36 0 001.494-.354c.505-.281.72-.657.604-1.037a.724.724 0 00-.752-.447c-.288.02-.573.072-.85.156a4.323 4.323 0 01-.997.174.715.715 0 01-.791-.594c-.278-.872.29-1.847 1.44-2.487a4.017 4.017 0 011.695-.51l-.108.859a4.092 4.092 0 00-1.722.393c-.447.242-.626.573-.523.895a.725.725 0 00.747.447c.28-.02.557-.067.827-.143.323-.092.654-.148.989-.165a.765.765 0 01.845.63c.277.895-.286 1.87-1.44 2.514a3.82 3.82 0 01-1.789.483zm4.583-6.991l-1.517.845-.183-.568 3.878-2.155.179.568-1.53.85 1.315 4.159-.828.456-1.314-4.155zM21.11 45.021L41.548 33.29l.174.51L21.32 45.719l-.21-.698zm.54 1.633l20.44-11.732.174.51-20.403 11.924-.21-.702zm1.973 4.584l20.435-11.736.174.51-20.399 11.924-.21-.698zm.541 1.632L44.6 41.14l.174.51-20.399 11.92-.21-.699zM44.645 31.3l20.439-11.736.174.51-20.403 11.923-.21-.697zm.539 1.632l20.439-11.731.174.51L45.394 33.63l-.21-.698zm1.972 4.58L67.591 25.78l.174.51-20.403 11.92-.206-.698zm.544 1.632l20.434-11.73.174.513-20.403 11.92-.206-.703z" fill="#3A3A3A"/></svg>