<svg width="119" height="98" fill="none" xmlns="http://www.w3.org/2000/svg"><path d="M70.002 97.659l-40.577-23.41-.658-.444L.193 35.822l48.764-28.92 30.306 36.346 39.278 25.618-48.539 28.793z" fill="#D2FC1B"/><path d="M70.002 97.812l-.066-.036-40.577-23.41-.693-.48L0 35.786l.127-.076 48.86-28.982.072.087L79.35 43.146l39.441 25.725-.183.107-48.606 28.834zM28.864 73.708l.632.433 40.506 23.365 48.284-28.645-39.114-25.516L48.932 7.07.391 35.863l28.472 37.845z" fill="#3A3A3A"/><path d="M48.875 9.108L3.445 36.056l26.586 36.362.5.352 39.44 22.748 45.135-26.775-35.69-25.087L48.875 9.108z" fill="#96999E"/><path d="M69.972 95.67l-.066-.04-39.441-22.748-.54-.382L3.252 36.016l.122-.072L48.901 8.93l.071.081L79.513 43.57l35.838 25.185-.179.102-45.2 26.815zM30.123 72.322l.485.337 39.359 22.707 44.894-26.647-35.52-24.976L48.85 9.277 3.64 36.097l26.483 36.224z" fill="#3A3A3A"/><path d="M30.275 72.622l49.14-28.966L54.538 6.723 6.691 36.199c16.754 13.39 23.584 36.423 23.584 36.423z" fill="#DBE0E6"/><path d="M30.2 72.821l-.05-.163c-.077-.23-7.02-23.145-23.524-36.357l-.147-.117 48.12-29.65.067.102 24.94 37.05-.123.077L30.2 72.821zM6.927 36.214c15.745 12.692 22.774 34.15 23.446 36.19L79.243 43.6 54.538 6.9 6.928 36.214z" fill="#3A3A3A"/><path d="M30.277 72.622l49.14-28.961c17.937-6.264 39.375 23.018 39.375 23.018L69.657 95.64s-25.5-25.102-39.38-23.018z" fill="#DBE0E6"/><path d="M69.635 95.788l-.077-.071c-.254-.25-25.607-25.016-39.247-22.967l-.672.102 49.726-29.303c9.338-3.272 19.598 3.18 26.561 9.175a94.219 94.219 0 0112.987 13.874l.087.117-.128.076-49.237 28.997zM31.963 72.342c13.68 0 36.245 21.667 37.718 23.09l48.931-28.83a94.645 94.645 0 00-12.88-13.685c-6.906-5.938-17.075-12.34-26.275-9.123l-48.57 28.62c.352-.031.714-.047 1.076-.047v-.025z" fill="#3A3A3A"/><path d="M80.81 47.616L41.734 65.87l-11.458 6.753c3.298-.51 7.248.55 11.356 2.421a71.613 71.613 0 0120.042 9.43l47.912-28.233c-4.215-4.108-9.516-8.45-15.143-11.055-4.583-1.284-9.425-1.1-13.635 2.431z" fill="#DBE0E6"/><path d="M61.644 84.63l-.07-.05a72.225 72.225 0 00-19.976-9.41c-4.521-2.038-8.313-2.869-11.3-2.42l-.673.102 12.044-7.095 39.069-18.253c3.741-3.134 8.359-3.96 13.71-2.446 4.843 2.237 9.95 5.968 15.2 11.086l.128.122-.153.087L61.644 84.63zm-29.68-12.262c2.727 0 5.99.856 9.726 2.548a72.443 72.443 0 0119.985 9.399l47.683-28.1c-5.184-5.036-10.225-8.706-14.98-10.913-5.255-1.478-9.787-.667-13.462 2.416h-.03l-39.09 18.273-10.907 6.422c.352-.03.714-.045 1.076-.045z" fill="#3A3A3A"/><path d="M37.905 70.757c-1.529-.352-5.143.632-7.645 1.87l49.14-28.96c13.415-8.05 29.981 7.894 29.981 7.894l-49.14 28.962s-9.522-7.727-22.336-9.766z" fill="#fff"/><path d="M60.246 80.676l-.07-.056c-.098-.077-9.685-7.712-22.295-9.74-1.382-.322-4.904.544-7.539 1.86l-.127-.235 49.14-28.956c6.978-4.19 14.781-1.81 20.149.922a47.138 47.138 0 019.99 6.989l.122.122-.148.087-49.222 29.007zM37.932 70.619c12.115 1.947 21.407 9.022 22.335 9.736l48.931-28.824c-1.57-1.448-17.13-15.291-29.69-7.758L32.111 71.684c2.166-.795 4.618-1.34 5.82-1.065z" fill="#3A3A3A"/><path d="M57.79.183L9.917 30.133S23.252 52.648 30.27 72.618l49.136-28.961C72.376 23.68 57.789.183 57.789.183z" fill="#fff"/><path d="M30.2 72.796l-.056-.153C23.212 52.917 9.939 30.424 9.807 30.2l-.067-.112.107-.067L57.831 0l.07.117c.144.235 14.69 23.737 21.633 43.493l.035.102-.097.056L30.2 72.796zM10.097 30.174c1.02 1.744 13.543 23.248 20.245 42.25l48.901-28.83c-6.692-19-20.388-41.428-21.5-43.227L10.098 30.174z" fill="#3A3A3A"/><path d="M92.756 49.236c0 2.865-.99 4.845-2.57 5.77l-6.705 3.927c1.577-.924 2.57-2.904 2.57-5.77 0-5.958-4.354-13.42-9.737-15.932-1.112-10.966-11.842-21.84-18.376-18.495l6.694-3.923c6.548-3.35 17.275 7.526 18.387 18.5 5.383 2.513 9.737 9.972 9.737 15.923z" fill="#DAE0E5"/><path d="M54.601 24.151c.626-4.264 3.29-5.367 3.337-5.415 6.535-3.344 17.265 7.529 18.376 18.508 5.384 2.513 9.738 9.974 9.738 15.933 0 2.865-.991 4.845-2.57 5.77-1.408.823-3.287.8-5.347-.166-.483-.226.61.41-10.88-6.32V41.17l4.693 2.748-7.16-13.55-7.157 5.167 4.692 2.747V49.57l-7.396-4.33c-4.156-2.439-7.525-8.355-7.525-13.221 0-2.436.844-4.147 2.205-4.943 1.271-.744 2.995-.693 4.908.306h.016a14.33 14.33 0 01.07-3.23z" fill="#fff"/><path d="M67.666 40.924l2.05-1.231 2.232 4.226-4.692-2.747.41-.248z" fill="#D3F36B"/><path d="M67.664 35.81l2.05 3.883-2.05 1.231V35.81z" fill="#fff"/><path d="M67.664 35.81v5.114l-.41.248v5.479l-4.932 2.918V38.283l5.076-2.971.266.498z" fill="#D2FC1B"/><path d="M67.163 34.864l.237.448-5.077 2.971-4.692-2.747 5.341-3.126 4.191 2.454z" fill="#D3F36B"/><path d="M65.067 30.896l2.096 3.968-4.19-2.454 2.094-1.514z" fill="#fff"/><path d="M65.066 30.896l-2.094 1.514-5.341 3.126 7.157-5.168.278.528z" fill="#373A3A"/><path d="M64.612 14.822l-.42.25c.215-.141.37-.213.42-.25z" fill="#fff"/><path d="M49.605 27.075l4.992-2.932a14.324 14.324 0 00-.068 3.24h-.016c-1.912-1.001-3.636-1.052-4.907-.308z" fill="#DAE0E5"/><path d="M67.255 46.65v5.805c11.49 6.732 10.397 6.095 10.88 6.321 2.06.975 3.941.989 5.347.165 1.576-.924 2.57-2.904 2.57-5.77 0-5.958-4.354-13.42-9.738-15.932-1.111-10.974-11.841-21.847-18.376-18.503-.047.048-2.711 1.138-3.337 5.415a14.33 14.33 0 00-.07 3.233h-.016c-1.913-1-3.637-1.05-4.908-.307-1.361.8-2.205 2.508-2.205 4.944 0 4.866 3.369 10.782 7.525 13.218l7.396 4.333V38.283l-4.692-2.747 7.157-5.168 7.16 13.551-4.693-2.747v5.479zm-2.643-31.828c-.058.032-.213.109-.428.25" stroke="#373A3A" stroke-width=".7" stroke-linecap="round" stroke-linejoin="round"/><path d="M83.481 58.941l6.705-3.928c1.577-.924 2.57-2.904 2.57-5.77 0-5.958-4.354-13.417-9.737-15.93-1.112-10.974-11.84-21.85-18.376-18.505m-6.705 3.928l6.694-3.923M49.605 27.075L54.6 24.15m13.064 16.777V35.81m-.501-.946l-4.19-2.454 2.094-1.514m-7.437 4.64l5.342-3.126m-.65 5.873l5.076-2.971M62.322 49.57l4.932-2.919m.002-5.479l2.46-1.48" stroke="#373A3A" stroke-width=".7" stroke-linecap="round" stroke-linejoin="round"/></svg>