<svg width="128" height="128" viewBox="0 0 128 128" fill="none" xmlns="http://www.w3.org/2000/svg">
<path d="M77.7422 97.5196L91.8894 83.3746L77.7422 69.2295" stroke="black" stroke-linecap="round" stroke-linejoin="round"/>
<path d="M22.8779 53.0156H105.125C109.649 53.006 113.325 56.6663 113.334 61.1908C113.334 61.2023 113.334 61.214 113.334 61.2255V105.524C113.344 110.048 109.684 113.724 105.159 113.734C105.148 113.734 105.136 113.734 105.125 113.734H22.8779C18.3533 113.743 14.6776 110.083 14.668 105.558C14.668 105.547 14.668 105.535 14.668 105.524V61.2255C14.6584 56.701 18.3187 53.0252 22.8432 53.0156C22.8547 53.0156 22.8664 53.0156 22.8779 53.0156Z" stroke="black" stroke-linecap="round" stroke-linejoin="round"/>
<path d="M113.335 50.8771V42.3896C113.343 37.8651 109.682 34.1902 105.157 34.1819C105.146 34.1819 105.134 34.1819 105.123 34.1819H22.88C18.3554 34.1712 14.6786 37.8304 14.668 42.355C14.668 42.3664 14.668 42.3782 14.668 42.3896V50.8771M113.335 31.764V23.0664C113.335 18.647 109.751 15.0646 105.331 15.0664H105.123H22.8802C18.3557 15.0558 14.6789 18.715 14.6682 23.2395C14.6682 23.251 14.6682 23.2627 14.6682 23.2742V31.7638" stroke="black" stroke-linecap="round" stroke-linejoin="round"/>
</svg>
