<svg width="128" height="128" viewBox="0 0 128 128" fill="none" xmlns="http://www.w3.org/2000/svg">
<path d="M43.1718 65.3333H87.4918M43.1718 96.48H77.0118M43.1718 80.88H69.1451M27.5984 12C26.2072 12.0348 24.8846 12.612 23.9131 13.6085C22.9416 14.6049 22.398 15.9416 22.3984 17.3333V110.933C22.398 112.325 22.9416 113.662 23.9131 114.658C24.8846 115.655 26.2072 116.232 27.5984 116.267H100.398C101.813 116.267 103.169 115.705 104.17 114.705C105.17 113.704 105.732 112.348 105.732 110.933V17.2C105.697 15.8087 105.12 14.4862 104.123 13.5147C103.127 12.5431 101.79 11.9996 100.398 12H95.0651V35.52L84.7718 25.0933L74.4251 35.52V12H27.5984Z" stroke="black" stroke-linecap="round" stroke-linejoin="round"/>
</svg>
