<svg width="658" height="319" viewBox="0 0 658 319" fill="none" xmlns="http://www.w3.org/2000/svg">
<path d="M21.3549 34.7507C21.3549 34.7507 15.9646 36.0336 14.2961 40.1517C12.6277 44.2698 1 72.1343 1 75.457C1.11619 77.6313 1.99817 79.6945 3.48983 81.2813L30.9164 92.4938C30.9164 92.4938 36.7302 90.8261 41.2992 91.6599C45.8681 92.4938 48.7815 100.384 53.3505 101.218C57.9194 102.051 77.0423 100.794 86.1802 96.6376C95.3181 92.481 98.2314 79.6136 98.2314 70.8899C98.2314 62.1662 95.3181 53.4425 92.8282 51.7876L89.0935 49.2988" stroke="#263238" stroke-miterlimit="10"/>
<path d="M82.8566 45.1421C82.8566 45.1421 79.9433 42.6533 87.4256 43.8592C94.9079 45.0652 113.607 69.6069 119.845 77.4967C126.082 85.3865 132.307 85.8099 137.286 80.8194C142.266 75.829 138.57 69.6069 136.876 66.2842C135.181 62.9615 128.148 54.6484 125.658 48.8369C123.169 43.0254 116.097 28.0668 110.258 24.3336C104.418 20.6004 95.7164 19.7665 82.4203 25.1675C69.1241 30.5685 62.8867 35.1356 62.8867 35.1356" stroke="#263238" stroke-miterlimit="10"/>
<path d="M26.3477 34.3402L52.5293 32.6853" stroke="#263238" stroke-miterlimit="10"/>
<path d="M40.0547 84.1806C45.0472 82.5257 44.6237 80.0241 49.6161 73.3787C54.6086 66.7333 60.4225 44.3083 60.8332 41.3961C61.0598 39.6338 60.6003 37.8517 59.5497 36.4185L84.4865 48.9523" stroke="#263238" stroke-miterlimit="10"/>
<path d="M9.72656 81.294H32.5842C36.6481 78.3348 39.8113 74.3069 41.7221 69.6581C44.6226 62.1788 50.4493 45.1548 52.1049 41.4344C52.6139 40.4764 52.8801 39.4082 52.8801 38.3234C52.8801 37.2386 52.6139 36.1704 52.1049 35.2124" stroke="#263238" stroke-miterlimit="10"/>
<path d="M35.0744 91.2493C35.0744 91.2493 23.4339 85.0144 28.8371 85.8483C34.2402 86.6822 46.2915 94.1486 55.0187 94.1486C63.7459 94.1486 67.07 89.171 71.2282 82.5256C75.3865 75.8802 85.3458 58.0095 85.3458 52.6213" stroke="#263238" stroke-miterlimit="10"/>
<path d="M122.334 93.3148C122.334 93.3148 129.393 84.1806 136.041 92.4937C142.689 100.807 133.551 113.674 129.817 117.408C126.082 121.141 115.699 121.154 114.018 120.32C112.958 119.767 111.981 119.067 111.117 118.241" stroke="#263238" stroke-miterlimit="10"/>
<path d="M129.34 84.1806L150.953 109.107C150.953 109.107 151.363 102.462 155.111 99.5497C156.797 98.1522 158.6 96.9032 160.501 95.8165L140.557 75.0464" stroke="#263238" stroke-miterlimit="10"/>
<path d="M163.058 96.6887H165.959C165.959 96.6887 173.441 105.836 173.441 108.325C173.441 110.813 161.813 127.427 158.04 127.427C154.267 127.427 148.902 124.528 148.902 124.528C148.902 124.528 150.981 121.615 152.637 118.703C154.293 115.791 152.637 111.647 152.637 111.647C152.637 111.647 160.119 117.048 158.874 124.104" stroke="#263238" stroke-miterlimit="10"/>
<path d="M40.543 147.774C48.0894 149.441 61.8348 149.685 64.5813 151.058C67.9054 152.713 75.3748 173.483 75.3748 173.483" stroke="#263238" stroke-miterlimit="10"/>
<path d="M34.2385 93.738C34.2385 93.738 30.5038 96.2269 32.5829 99.5496C34.662 102.872 39.231 104.951 39.231 104.951C39.231 104.951 32.9936 111.596 34.2385 114.508C34.9594 116.378 34.9594 118.449 34.2385 120.32C34.2385 120.32 32.9551 124.053 33.4043 126.131C33.8535 128.209 34.2385 131.532 34.2385 131.532C34.2385 131.532 31.7487 143.579 36.7283 146.491" stroke="#263238" stroke-miterlimit="10"/>
<path d="M148.928 124.476C148.928 124.476 141.035 131.532 140.612 140.256C140.188 148.98 139.328 151.468 139.328 151.468" stroke="#263238" stroke-miterlimit="10"/>
<path d="M170.231 84.7964C169.698 88.265 168.838 91.6755 167.664 94.9826" stroke="#263238" stroke-miterlimit="10"/>
<path d="M171 72.3137C171.077 74.1098 171.064 75.8545 171 77.5351" stroke="#263238" stroke-miterlimit="10"/>
<path d="M108.613 20.6388C108.613 20.6388 133.961 16.0589 155.984 38.0733C164 45.9407 169.135 56.2749 170.564 67.4132" stroke="#263238" stroke-miterlimit="10"/>
<path d="M9.31459 54.6226C10.9661 54.6226 12.3049 53.2843 12.3049 51.6334C12.3049 49.9826 10.9661 48.6443 9.31459 48.6443C7.66307 48.6443 6.32422 49.9826 6.32422 51.6334C6.32422 53.2843 7.66307 54.6226 9.31459 54.6226Z" fill="#263238"/>
<path d="M70.5998 102.808C72.2513 102.808 73.5901 101.47 73.5901 99.819C73.5901 98.1681 72.2513 96.8298 70.5998 96.8298C68.9482 96.8298 67.6094 98.1681 67.6094 99.819C67.6094 101.47 68.9482 102.808 70.5998 102.808Z" fill="#263238"/>
<path d="M65.7482 153.611C67.3997 153.611 68.7385 152.273 68.7385 150.622C68.7385 148.971 67.3997 147.633 65.7482 147.633C64.0967 147.633 62.7578 148.971 62.7578 150.622C62.7578 152.273 64.0967 153.611 65.7482 153.611Z" fill="#263238"/>
<path d="M122.821 77.5353C122.821 76.9435 122.645 76.3651 122.316 75.8733C121.987 75.3814 121.519 74.9983 120.972 74.7724C120.424 74.5466 119.822 74.4881 119.242 74.6045C118.662 74.7209 118.129 75.0069 117.711 75.4262C117.293 75.8455 117.01 76.3793 116.896 76.96C116.782 77.5407 116.843 78.1421 117.071 78.6881C117.299 79.234 117.685 79.7 118.178 80.0269C118.672 80.3538 119.251 80.5269 119.843 80.5244C120.235 80.5244 120.623 80.447 120.985 80.2966C121.348 80.1463 121.676 79.9259 121.953 79.6481C122.23 79.3704 122.449 79.0408 122.598 78.6782C122.746 78.3156 122.822 77.9272 122.821 77.5353Z" fill="#263238"/>
<path d="M115.826 33.6988C117.478 33.6988 118.817 32.3605 118.817 30.7096C118.817 29.0587 117.478 27.7205 115.826 27.7205C114.175 27.7205 112.836 29.0587 112.836 30.7096C112.836 32.3605 114.175 33.6988 115.826 33.6988Z" fill="#263238"/>
<path d="M64.4005 37.419C66.052 37.419 67.3909 36.0807 67.3909 34.4298C67.3909 32.779 66.052 31.4407 64.4005 31.4407C62.749 31.4407 61.4102 32.779 61.4102 34.4298C61.4102 36.0807 62.749 37.419 64.4005 37.419Z" fill="#263238"/>
<path d="M164.404 99.8191C166.056 99.8191 167.395 98.4808 167.395 96.83C167.395 95.1791 166.056 93.8408 164.404 93.8408C162.753 93.8408 161.414 95.1791 161.414 96.83C161.414 98.4808 162.753 99.8191 164.404 99.8191Z" fill="#263238"/>
<path d="M524.004 34.1501H518.742" stroke="#263238" stroke-miterlimit="10"/>
<path d="M500.43 94.536H524.006C525.045 94.5423 526.067 94.2739 526.968 93.7579C527.87 93.242 528.619 92.4969 529.14 91.5982L543.116 67.2873C543.633 66.3922 543.905 65.3767 543.905 64.3431C543.905 63.3095 543.633 62.294 543.116 61.3989L529.114 37.1008" stroke="#263238" stroke-miterlimit="10"/>
<path d="M513.841 34.1502H495.874C494.834 34.1465 493.811 34.4174 492.91 34.9356C492.008 35.4537 491.26 36.2007 490.74 37.1008L476.789 61.3989C476.272 62.294 476 63.3095 476 64.3431C476 65.3768 476.272 66.3922 476.789 67.2874L490.83 91.6624C491.35 92.561 492.099 93.3061 493.001 93.8221C493.903 94.338 494.925 94.6065 495.963 94.6002" stroke="#263238" stroke-miterlimit="10"/>
<path d="M542.938 116.948L546.967 123.901C547.487 124.801 548.236 125.547 549.138 126.063C550.039 126.579 551.062 126.847 552.101 126.839H580.182C581.221 126.847 582.244 126.579 583.146 126.063C584.047 125.547 584.796 124.801 585.316 123.901L599.356 99.5264C599.874 98.6336 600.146 97.6202 600.146 96.5886C600.146 95.5569 599.874 94.5435 599.356 93.6508L591.066 79.2952" stroke="#263238" stroke-miterlimit="10"/>
<path d="M539.328 110.688L541.394 114.267" stroke="#263238" stroke-miterlimit="10"/>
<path d="M588.408 74.8949L585.238 69.4041C584.719 68.503 583.971 67.7554 583.069 67.2371C582.168 66.7188 581.145 66.4484 580.105 66.4534H552.1C551.06 66.4484 550.037 66.7188 549.136 67.2371C548.234 67.7554 547.486 68.503 546.967 69.4041L532.926 93.7791C532.409 94.6719 532.137 95.6853 532.137 96.7169C532.137 97.7486 532.409 98.762 532.926 99.6548L537.072 106.852" stroke="#263238" stroke-miterlimit="10"/>
<path d="M542.141 12.2896L532.926 28.2103C532.409 29.1054 532.137 30.1209 532.137 31.1545C532.137 32.1882 532.409 33.2036 532.926 34.0988L546.966 58.4481C547.486 59.3477 548.235 60.0935 549.137 60.6096C550.038 61.1256 551.061 61.3935 552.1 61.3859H580.181C581.22 61.3935 582.243 61.1256 583.145 60.6096C584.047 60.0935 584.795 59.3477 585.315 58.4481L599.355 34.1373C599.872 33.2421 600.145 32.2266 600.145 31.193C600.145 30.1594 599.872 29.1439 599.355 28.2488L598.303 26.6195" stroke="#263238" stroke-miterlimit="10"/>
<path d="M546.965 3.93799L544.758 7.76101" stroke="#263238" stroke-miterlimit="10"/>
<path d="M596.801 23.9511L585.25 3.93799C584.731 3.03841 583.982 2.29259 583.08 1.77651C582.178 1.26044 581.156 0.992552 580.117 1.00016H552.1C551.637 0.997818 551.175 1.05385 550.727 1.16693" stroke="#263238" stroke-miterlimit="10"/>
<path d="M636.268 33.342H608.187C607.148 33.3343 606.125 33.6022 605.223 34.1183C604.321 34.6344 603.573 35.3802 603.053 36.2798L589.051 60.5521C588.534 61.4473 588.262 62.4627 588.262 63.4964C588.262 64.53 588.534 65.5455 589.051 66.4406L603.091 90.8156C603.611 91.7152 604.36 92.461 605.262 92.9771C606.163 93.4932 607.186 93.7611 608.225 93.7535H636.306C637.345 93.7597 638.367 93.4913 639.269 92.9754C640.17 92.4594 640.919 91.7143 641.44 90.8156L655.468 66.4406C655.985 65.5455 656.257 64.53 656.257 63.4964C656.257 62.4627 655.985 61.4473 655.468 60.5521L641.376 36.2413C640.852 35.3536 640.105 34.6186 639.209 34.1098C638.313 33.601 637.298 33.3363 636.268 33.342Z" stroke="#263238" stroke-miterlimit="10"/>
<path d="M579.795 133.408H551.713C550.674 133.4 549.652 133.668 548.75 134.184C547.848 134.7 547.099 135.446 546.58 136.345L532.539 160.72C532.022 161.616 531.75 162.631 531.75 163.665C531.75 164.698 532.022 165.714 532.539 166.609L546.58 190.92C547.099 191.819 547.848 192.565 548.75 193.081C549.652 193.597 550.674 193.865 551.713 193.858H579.795C580.833 193.864 581.855 193.595 582.757 193.08C583.659 192.564 584.408 191.818 584.928 190.92L598.956 166.609C599.473 165.714 599.745 164.698 599.745 163.665C599.745 162.631 599.473 161.616 598.956 160.72L584.928 136.345C584.408 135.447 583.659 134.702 582.757 134.186C581.855 133.67 580.833 133.401 579.795 133.408Z" stroke="#263238" stroke-miterlimit="10"/>
<path d="M645.956 150.868L656.673 132.304C657.19 131.412 657.462 130.398 657.462 129.367C657.462 128.335 657.19 127.322 656.673 126.429L642.632 102.054C642.113 101.153 641.365 100.405 640.463 99.8867C639.561 99.3685 638.539 99.0981 637.498 99.1031H609.456C608.416 99.0981 607.393 99.3685 606.491 99.8867C605.59 100.405 604.841 101.153 604.322 102.054L590.282 126.429C589.765 127.322 589.492 128.335 589.492 129.367C589.492 130.398 589.765 131.412 590.282 132.304L604.322 156.679C604.841 157.58 605.59 158.328 606.491 158.846C607.393 159.365 608.416 159.635 609.456 159.63H631.941" stroke="#263238" stroke-miterlimit="10"/>
<path d="M637.535 159.566C638.575 159.571 639.598 159.301 640.5 158.782C641.402 158.264 642.15 157.516 642.669 156.615L643.516 155.153" stroke="#263238" stroke-miterlimit="10"/>
<path d="M580.091 105.723L583.518 106.493L584.314 103.029L581.028 102.285C581.028 102.182 581.028 102.08 581.028 101.99C581.033 100.935 580.819 99.8911 580.399 98.9236L583.069 96.794L580.848 94.0101L578.282 96.0499C577.394 95.274 576.34 94.7122 575.201 94.4078V91.0723H571.633V94.2538C570.465 94.4909 569.364 94.9862 568.412 95.7035L565.845 93.6509L563.651 96.4476L566.217 98.4617C565.684 99.512 565.398 100.671 565.383 101.849L562.098 102.605L562.893 106.069L566.128 105.325C566.614 106.369 567.323 107.293 568.207 108.032L566.705 111.15L569.914 112.702L571.39 109.623C571.994 109.772 572.615 109.85 573.238 109.854C573.738 109.849 574.236 109.797 574.726 109.7L576.267 112.881L579.475 111.342L577.973 108.25C578.852 107.569 579.574 106.707 580.091 105.723ZM569.683 101.99C569.683 101.3 569.887 100.625 570.271 100.051C570.655 99.4772 571.2 99.03 571.838 98.7658C572.475 98.5017 573.177 98.4326 573.855 98.5673C574.532 98.7019 575.154 99.0343 575.642 99.5223C576.13 100.01 576.463 100.632 576.597 101.309C576.732 101.986 576.663 102.687 576.399 103.325C576.134 103.963 575.687 104.508 575.113 104.891C574.539 105.275 573.864 105.479 573.174 105.479C572.248 105.479 571.36 105.112 570.705 104.457C570.05 103.803 569.683 102.915 569.683 101.99Z" stroke="#263238" stroke-miterlimit="10"/>
<path d="M563.408 91.688L566.821 92.4705L567.617 89.0067L564.332 88.2498C564.332 88.1472 564.332 88.0574 564.332 87.9548C564.333 86.9018 564.124 85.8593 563.716 84.8886L566.372 82.7719L564.152 79.988L561.585 82.015C560.69 81.2437 559.633 80.6826 558.492 80.3729V77.063H554.963V80.2446C553.792 80.4761 552.691 80.972 551.741 81.6942L549.174 79.6416L546.967 82.4255L549.534 84.4268C549.001 85.4819 548.716 86.6446 548.7 87.8265L545.414 88.5706L546.21 92.0344L549.444 91.3031C549.934 92.341 550.643 93.2602 551.523 93.9972L550.022 97.1275L553.23 98.6669L554.706 95.588C555.31 95.7436 555.931 95.8212 556.554 95.8189C557.054 95.8183 557.552 95.7711 558.043 95.6778L559.583 98.8594L562.791 97.3199L561.303 94.2153C562.175 93.5314 562.893 92.6699 563.408 91.688ZM552.986 87.9548C552.986 87.2646 553.191 86.59 553.575 86.0161C553.958 85.4423 554.503 84.995 555.141 84.7309C555.779 84.4668 556.481 84.3977 557.158 84.5323C557.835 84.667 558.457 84.9993 558.946 85.4873C559.434 85.9753 559.766 86.5971 559.901 87.274C560.036 87.9509 559.966 88.6525 559.702 89.2901C559.438 89.9277 558.991 90.4727 558.417 90.8562C557.842 91.2396 557.168 91.4442 556.477 91.4442C555.551 91.4442 554.663 91.0766 554.009 90.4222C553.354 89.7678 552.986 88.8802 552.986 87.9548Z" stroke="#263238" stroke-miterlimit="10"/>
<path d="M629.194 65.4878C631.635 59.6348 628.867 52.9119 623.012 50.472C617.157 48.032 610.431 50.7988 607.99 56.6519C605.549 62.5049 608.317 69.2278 614.173 71.6678C620.028 74.1077 626.753 71.3409 629.194 65.4878Z" stroke="#263238" stroke-miterlimit="10"/>
<path d="M618.594 70.8281C623.981 70.8281 628.348 66.4629 628.348 61.0781C628.348 55.6934 623.981 51.3281 618.594 51.3281C613.207 51.3281 608.84 55.6934 608.84 61.0781C608.84 66.4629 613.207 70.8281 618.594 70.8281Z" stroke="#263238" stroke-miterlimit="10"/>
<path d="M631.52 73.2144L639.13 79.5262" stroke="#263238" stroke-width="3" stroke-miterlimit="10"/>
<path d="M626.949 69.4297L631.518 73.2142" stroke="#263238" stroke-width="2" stroke-miterlimit="10"/>
<path d="M492.512 56.665H526.651" stroke="#263238" stroke-miterlimit="10"/>
<path d="M499.815 54.7791H496.285V58.307H499.815V54.7791Z" fill="#263238"/>
<path d="M492.512 64.6575H526.651" stroke="#263238" stroke-miterlimit="10"/>
<path d="M518.053 62.7844H514.523V66.3124H518.053V62.7844Z" fill="#263238"/>
<path d="M492.512 72.6626H526.651" stroke="#263238" stroke-miterlimit="10"/>
<path d="M509.928 70.7769H506.398V74.3048H509.928V70.7769Z" fill="#263238"/>
<path d="M622.687 162.055C624.176 162.055 625.383 160.848 625.383 159.361C625.383 157.873 624.176 156.667 622.687 156.667C621.199 156.667 619.992 157.873 619.992 159.361C619.992 160.848 621.199 162.055 622.687 162.055Z" fill="#263238"/>
<path d="M643.711 106.685C645.199 106.685 646.406 105.479 646.406 103.991C646.406 102.503 645.199 101.297 643.711 101.297C642.222 101.297 641.016 102.503 641.016 103.991C641.016 105.479 642.222 106.685 643.711 106.685Z" fill="#263238"/>
<path d="M564.627 67.0437C564.629 66.5072 564.472 65.9821 564.176 65.535C563.879 65.0879 563.457 64.739 562.961 64.5325C562.466 64.326 561.92 64.2713 561.394 64.3754C560.867 64.4794 560.384 64.7375 560.004 65.1168C559.625 65.4962 559.366 65.9797 559.262 66.5059C559.158 67.0322 559.213 67.5775 559.42 68.0727C559.626 68.5678 559.975 68.9905 560.422 69.2869C560.87 69.5834 561.395 69.7403 561.932 69.7378C562.647 69.7378 563.332 69.4539 563.838 68.9487C564.343 68.4434 564.627 67.7582 564.627 67.0437Z" fill="#263238"/>
<path d="M593.414 13.7392C593.414 13.2064 593.256 12.6855 592.96 12.2425C592.663 11.7995 592.242 11.4542 591.75 11.2502C591.258 11.0463 590.716 10.993 590.193 11.0969C589.67 11.2009 589.19 11.4575 588.813 11.8342C588.436 12.211 588.179 12.6911 588.075 13.2137C587.971 13.7363 588.025 14.2779 588.229 14.7702C588.433 15.2625 588.778 15.6833 589.221 15.9793C589.664 16.2753 590.186 16.4333 590.719 16.4333C591.432 16.43 592.116 16.145 592.621 15.6405C593.125 15.136 593.41 14.4527 593.414 13.7392Z" fill="#263238"/>
<path d="M489.713 85.3506C489.715 84.8141 489.558 84.289 489.262 83.8419C488.965 83.3948 488.542 83.0458 488.047 82.8394C487.552 82.6329 487.006 82.5782 486.48 82.6823C485.953 82.7863 485.47 83.0444 485.09 83.4237C484.711 83.803 484.452 84.2865 484.348 84.8128C484.244 85.3391 484.299 85.8844 484.505 86.3796C484.712 86.8747 485.061 87.2973 485.508 87.5938C485.956 87.8903 486.481 88.0472 487.018 88.0446C487.732 88.0446 488.418 87.7608 488.923 87.2556C489.429 86.7503 489.713 86.0651 489.713 85.3506Z" fill="#263238"/>
<path d="M573.457 126.557C573.457 126.024 573.299 125.503 573.003 125.06C572.706 124.617 572.285 124.272 571.793 124.068C571.3 123.864 570.759 123.811 570.236 123.915C569.713 124.019 569.233 124.275 568.856 124.652C568.479 125.029 568.222 125.509 568.118 126.032C568.014 126.554 568.068 127.096 568.272 127.588C568.476 128.08 568.821 128.501 569.264 128.797C569.707 129.093 570.229 129.251 570.762 129.251C571.475 129.248 572.159 128.963 572.664 128.458C573.168 127.954 573.453 127.271 573.457 126.557Z" fill="#263238"/>
<path d="M538.367 171.394C538.367 170.861 538.209 170.341 537.913 169.898C537.617 169.454 537.196 169.109 536.703 168.905C536.211 168.701 535.669 168.648 535.146 168.752C534.623 168.856 534.143 169.113 533.766 169.489C533.389 169.866 533.132 170.346 533.028 170.869C532.924 171.391 532.978 171.933 533.182 172.425C533.386 172.918 533.731 173.338 534.174 173.634C534.618 173.93 535.139 174.088 535.672 174.088C536.387 174.088 537.072 173.805 537.578 173.299C538.083 172.794 538.367 172.109 538.367 171.394Z" fill="#263238"/>
<path d="M592.976 153.1C594.465 153.1 595.672 151.894 595.672 150.406C595.672 148.918 594.465 147.712 592.976 147.712C591.488 147.712 590.281 148.918 590.281 150.406C590.281 151.894 591.488 153.1 592.976 153.1Z" fill="#263238"/>
<path d="M647.637 50.4429C649.125 50.4429 650.332 49.2367 650.332 47.7488C650.332 46.2609 649.125 45.0547 647.637 45.0547C646.148 45.0547 644.941 46.2609 644.941 47.7488C644.941 49.2367 646.148 50.4429 647.637 50.4429Z" fill="#263238"/>
<path d="M614.357 93.5226C614.362 92.9862 614.208 92.4603 613.913 92.0118C613.619 91.5633 613.198 91.2124 612.704 91.0035C612.209 90.7947 611.664 90.7374 611.137 90.839C610.61 90.9405 610.125 91.1963 609.744 91.5738C609.362 91.9513 609.102 92.4336 608.995 92.9594C608.889 93.4851 608.941 94.0307 609.145 94.5268C609.349 95.0229 609.696 95.4472 610.142 95.7458C610.588 96.0444 611.113 96.2038 611.649 96.2039C612.003 96.2055 612.354 96.1375 612.682 96.0037C613.009 95.8699 613.307 95.6728 613.559 95.4239C613.81 95.1749 614.01 94.8788 614.147 94.5526C614.284 94.2264 614.356 93.8764 614.357 93.5226Z" fill="#263238"/>
<path d="M540.42 42.8353C540.42 42.2994 540.261 41.7755 539.963 41.3301C539.664 40.8847 539.241 40.5377 538.745 40.3332C538.25 40.1287 537.705 40.0759 537.179 40.1814C536.653 40.2869 536.171 40.546 535.793 40.9258C535.414 41.3057 535.157 41.7892 535.054 42.3151C534.951 42.841 535.007 43.3857 535.214 43.8801C535.421 44.3745 535.77 44.7964 536.217 45.0923C536.664 45.3881 537.189 45.5447 537.725 45.5422C538.08 45.5422 538.431 45.4721 538.759 45.3359C539.087 45.1997 539.385 45.0001 539.635 44.7486C539.886 44.4971 540.084 44.1986 540.218 43.8702C540.353 43.5419 540.422 43.1902 540.42 42.8353Z" fill="#263238"/>
<path d="M376.277 234.315V168.541C376.276 168.106 376.36 167.675 376.526 167.272C376.692 166.87 376.936 166.505 377.243 166.197C377.551 165.889 377.917 165.645 378.319 165.48C378.722 165.314 379.153 165.23 379.589 165.231H448.675C449.111 165.23 449.543 165.314 449.946 165.479C450.349 165.645 450.716 165.889 451.024 166.196C451.333 166.504 451.578 166.869 451.746 167.271C451.913 167.674 451.999 168.105 451.999 168.541V171.107" stroke="#263238" stroke-miterlimit="10"/>
<path d="M382.132 242.205H379.565C379.129 242.205 378.698 242.119 378.295 241.952C377.892 241.785 377.527 241.54 377.219 241.231C376.912 240.922 376.668 240.556 376.502 240.153C376.337 239.75 376.252 239.318 376.254 238.882" stroke="#263238" stroke-miterlimit="10"/>
<path d="M451.999 175.546V238.882C451.999 239.763 451.649 240.609 451.026 241.232C450.402 241.855 449.557 242.205 448.675 242.205H386.879" stroke="#263238" stroke-miterlimit="10"/>
<path d="M397.727 194.302V187.041H430.543V220.396H420.404" stroke="#263238" stroke-miterlimit="10"/>
<path d="M397.727 203.808V198.805" stroke="#263238" stroke-miterlimit="10"/>
<path d="M416.4 220.396H397.727V208.311" stroke="#263238" stroke-miterlimit="10"/>
<path d="M391.82 165.821V145" stroke="#263238" stroke-miterlimit="10"/>
<path d="M406.695 165.821V145" stroke="#263238" stroke-miterlimit="10"/>
<path d="M421.57 165.821V145" stroke="#263238" stroke-miterlimit="10"/>
<path d="M436.445 165.821V145" stroke="#263238" stroke-miterlimit="10"/>
<path d="M391.82 263.219V242.41" stroke="#263238" stroke-miterlimit="10"/>
<path d="M406.695 263.219V242.41" stroke="#263238" stroke-miterlimit="10"/>
<path d="M421.57 263.219V242.41" stroke="#263238" stroke-miterlimit="10"/>
<path d="M436.445 263.219V242.41" stroke="#263238" stroke-miterlimit="10"/>
<path d="M452.438 181.806H473.267" stroke="#263238" stroke-miterlimit="10"/>
<path d="M452.438 196.675H473.267" stroke="#263238" stroke-miterlimit="10"/>
<path d="M452.438 211.544H473.267" stroke="#263238" stroke-miterlimit="10"/>
<path d="M452.438 226.413H473.267" stroke="#263238" stroke-miterlimit="10"/>
<path d="M355 181.806H375.83" stroke="#263238" stroke-miterlimit="10"/>
<path d="M355 196.675H375.83" stroke="#263238" stroke-miterlimit="10"/>
<path d="M355 211.544H375.83" stroke="#263238" stroke-miterlimit="10"/>
<path d="M355 226.413H375.83" stroke="#263238" stroke-miterlimit="10"/>
<path d="M475.975 211.582C475.975 211.047 475.816 210.523 475.518 210.078C475.221 209.633 474.798 209.286 474.303 209.081C473.808 208.876 473.264 208.823 472.738 208.927C472.213 209.032 471.73 209.289 471.352 209.668C470.973 210.047 470.715 210.529 470.611 211.054C470.506 211.579 470.56 212.123 470.765 212.618C470.97 213.113 471.317 213.535 471.762 213.833C472.207 214.13 472.731 214.289 473.267 214.289C473.985 214.289 474.674 214.004 475.181 213.496C475.689 212.989 475.975 212.3 475.975 211.582Z" fill="#263238"/>
<path d="M386.125 165.821C386.125 165.288 385.967 164.768 385.67 164.325C385.374 163.881 384.953 163.536 384.461 163.332C383.968 163.128 383.427 163.075 382.904 163.179C382.381 163.283 381.901 163.54 381.524 163.916C381.147 164.293 380.89 164.773 380.786 165.296C380.682 165.818 380.736 166.36 380.94 166.852C381.144 167.345 381.489 167.765 381.932 168.061C382.375 168.357 382.896 168.515 383.43 168.515C384.144 168.515 384.83 168.232 385.335 167.726C385.841 167.221 386.125 166.536 386.125 165.821Z" fill="#263238"/>
<path d="M367.476 225.81C367.476 225.277 367.318 224.756 367.022 224.313C366.726 223.87 366.305 223.524 365.813 223.321C365.32 223.117 364.778 223.063 364.255 223.167C363.732 223.271 363.252 223.528 362.875 223.905C362.498 224.281 362.242 224.761 362.138 225.284C362.034 225.807 362.087 226.348 362.291 226.841C362.495 227.333 362.841 227.754 363.284 228.05C363.727 228.346 364.248 228.504 364.781 228.504C365.135 228.504 365.486 228.434 365.813 228.299C366.14 228.163 366.437 227.965 366.687 227.715C366.937 227.464 367.136 227.167 367.271 226.841C367.407 226.514 367.476 226.163 367.476 225.81Z" fill="#263238"/>
<path d="M421.57 154.416C423.059 154.416 424.265 153.21 424.265 151.722C424.265 150.234 423.059 149.028 421.57 149.028C420.082 149.028 418.875 150.234 418.875 151.722C418.875 153.21 420.082 154.416 421.57 154.416Z" fill="#263238"/>
<path d="M416.32 242.372C416.32 241.839 416.162 241.318 415.866 240.875C415.57 240.432 415.149 240.087 414.656 239.883C414.164 239.679 413.622 239.626 413.099 239.729C412.576 239.833 412.096 240.09 411.719 240.467C411.342 240.844 411.085 241.324 410.981 241.846C410.877 242.369 410.931 242.911 411.135 243.403C411.339 243.895 411.684 244.316 412.128 244.612C412.571 244.908 413.092 245.066 413.625 245.066C414.339 245.063 415.022 244.778 415.527 244.273C416.032 243.769 416.317 243.085 416.32 242.372Z" fill="#263238"/>
<path d="M439.178 256.817C439.18 256.281 439.023 255.756 438.727 255.308C438.43 254.861 438.007 254.512 437.512 254.306C437.017 254.099 436.471 254.045 435.945 254.149C435.418 254.253 434.934 254.511 434.555 254.89C434.175 255.27 433.917 255.753 433.813 256.279C433.709 256.806 433.764 257.351 433.97 257.846C434.177 258.341 434.526 258.764 434.973 259.06C435.421 259.357 435.946 259.514 436.482 259.511C437.197 259.511 437.883 259.227 438.388 258.722C438.894 258.217 439.178 257.532 439.178 256.817Z" fill="#263238"/>
<path d="M337.944 48H262.145C261.6 48 261.06 48.1076 260.556 48.3166C260.052 48.5257 259.595 48.8321 259.21 49.2182C258.825 49.6044 258.519 50.0627 258.312 50.5669C258.104 51.0711 257.998 51.6113 258 52.1566V90.9257C257.998 91.4703 258.104 92.0099 258.312 92.5134C258.52 93.0169 258.825 93.4744 259.21 93.8595C259.596 94.2446 260.053 94.5498 260.557 94.7574C261.061 94.9651 261.601 95.0711 262.145 95.0694H303.6L297.183 114.133L313.392 95.0694H337.893C338.992 95.0694 340.046 94.6328 340.824 93.8557C341.601 93.0786 342.038 92.0246 342.038 90.9257V52.1566C342.038 51.0652 341.609 50.0176 340.843 49.2399C340.077 48.4622 339.036 48.0168 337.944 48Z" stroke="#263238" stroke-miterlimit="10"/>
<path d="M317.395 61.3933H332.295" stroke="#263238" stroke-miterlimit="10"/>
<path d="M307.281 61.3933H313.403" stroke="#263238" stroke-miterlimit="10"/>
<path d="M282.551 61.3933H301.43" stroke="#263238" stroke-miterlimit="10"/>
<path d="M270.371 61.3933H277.764" stroke="#263238" stroke-miterlimit="10"/>
<path d="M327.766 71.1692H332.296" stroke="#263238" stroke-miterlimit="10"/>
<path d="M288.133 71.1692H324.569" stroke="#263238" stroke-miterlimit="10"/>
<path d="M270.371 71.1692H284.412" stroke="#263238" stroke-miterlimit="10"/>
<path d="M326.703 80.9448H332.299" stroke="#263238" stroke-miterlimit="10"/>
<path d="M314.996 80.9448H320.848" stroke="#263238" stroke-miterlimit="10"/>
<path d="M282.281 80.9448H309.939" stroke="#263238" stroke-miterlimit="10"/>
<path d="M270.371 80.9448H279.098" stroke="#263238" stroke-miterlimit="10"/>
<path d="M212.962 256.379C218.535 250.808 218.535 241.776 212.962 236.205C207.389 230.633 198.352 230.633 192.779 236.205C187.206 241.776 187.206 250.808 192.779 256.379C198.352 261.951 207.389 261.951 212.962 256.379Z" stroke="#263238" stroke-linecap="round" stroke-linejoin="round"/>
<path d="M209.99 246.289C209.99 244.878 209.571 243.499 208.787 242.325C208.002 241.152 206.887 240.238 205.582 239.698C204.278 239.159 202.842 239.018 201.458 239.294C200.073 239.571 198.802 240.251 197.804 241.25C196.807 242.249 196.128 243.521 195.854 244.906C195.58 246.29 195.724 247.725 196.266 249.028C196.808 250.331 197.724 251.444 198.899 252.226C200.075 253.009 201.455 253.425 202.867 253.422C203.804 253.422 204.731 253.238 205.596 252.879C206.461 252.52 207.247 251.995 207.909 251.332C208.57 250.67 209.095 249.883 209.452 249.018C209.809 248.153 209.992 247.225 209.99 246.289Z" stroke="#263238" stroke-linecap="round" stroke-linejoin="round"/>
<path d="M262.211 204.364L272.132 196.333" stroke="#263238" stroke-linecap="round" stroke-linejoin="round"/>
<path d="M258.656 218.656L273.428 217.95" stroke="#263238" stroke-linecap="round" stroke-linejoin="round"/>
<path d="M254.494 220.334C260.462 218.932 264.163 212.958 262.76 206.992C261.357 201.026 255.381 197.327 249.412 198.729C243.444 200.132 239.743 206.105 241.146 212.072C242.549 218.038 248.525 221.737 254.494 220.334Z" stroke="#263238" stroke-linecap="round" stroke-linejoin="round"/>
<path d="M251.97 215.051C255.032 215.051 257.514 212.57 257.514 209.509C257.514 206.448 255.032 203.967 251.97 203.967C248.908 203.967 246.426 206.448 246.426 209.509C246.426 212.57 248.908 215.051 251.97 215.051Z" stroke="#263238" stroke-linecap="round" stroke-linejoin="round"/>
<path d="M275.984 198.283C278.386 198.283 280.334 196.336 280.334 193.934C280.334 191.533 278.386 189.585 275.984 189.585C273.581 189.585 271.633 191.533 271.633 193.934C271.633 196.336 273.581 198.283 275.984 198.283Z" stroke="#263238" stroke-linecap="round" stroke-linejoin="round"/>
<path d="M278.15 193.934C278.15 193.506 278.023 193.086 277.785 192.73C277.547 192.373 277.208 192.095 276.811 191.931C276.415 191.767 275.979 191.724 275.558 191.808C275.138 191.892 274.751 192.098 274.448 192.401C274.144 192.705 273.938 193.091 273.854 193.511C273.77 193.932 273.813 194.368 273.978 194.764C274.142 195.16 274.42 195.499 274.776 195.737C275.133 195.975 275.552 196.103 275.981 196.103C276.557 196.103 277.108 195.874 277.515 195.468C277.922 195.061 278.15 194.509 278.15 193.934Z" stroke="#263238" stroke-linecap="round" stroke-linejoin="round"/>
<path d="M276.984 219.618C279.386 219.618 281.334 217.671 281.334 215.269C281.334 212.867 279.386 210.92 276.984 210.92C274.581 210.92 272.633 212.867 272.633 215.269C272.633 217.671 274.581 219.618 276.984 219.618Z" stroke="#263238" stroke-linecap="round" stroke-linejoin="round"/>
<path d="M279.164 215.269C279.167 214.837 279.041 214.414 278.803 214.054C278.565 213.693 278.225 213.412 277.826 213.245C277.428 213.078 276.989 213.033 276.565 213.116C276.141 213.198 275.751 213.405 275.444 213.709C275.138 214.014 274.929 214.402 274.844 214.826C274.758 215.249 274.801 215.688 274.966 216.088C275.13 216.487 275.41 216.828 275.769 217.069C276.128 217.309 276.55 217.437 276.983 217.437C277.559 217.437 278.112 217.209 278.521 216.803C278.93 216.397 279.161 215.845 279.164 215.269Z" stroke="#263238" stroke-linecap="round" stroke-linejoin="round"/>
<path d="M190.175 252.627L181.461 306.509H228.229L215.548 254.218" stroke="#263238" stroke-linecap="round" stroke-linejoin="round"/>
<path d="M235.62 306.483H172.977V318.439H235.62V306.483Z" stroke="#263238" stroke-linecap="round" stroke-linejoin="round"/>
<path d="M202.867 232.024L240.163 211.805" stroke="#263238" stroke-linecap="round" stroke-linejoin="round"/>
<path d="M217.125 246.289L245.668 219.349" stroke="#263238" stroke-linecap="round" stroke-linejoin="round"/>
<path d="M259.441 200.952L271.544 193.614" stroke="#263238" stroke-linecap="round" stroke-linejoin="round"/>
<path d="M262.801 213.999L272.645 215.269" stroke="#263238" stroke-linecap="round" stroke-linejoin="round"/>
<path d="M279.219 197.039L289.152 201.773L290.179 200.105L280.335 193.935" stroke="#263238" stroke-linecap="round" stroke-linejoin="round"/>
<path d="M280.281 212.395L290.099 208.033L290.6 209.791L281.59 216.18" stroke="#263238" stroke-linecap="round" stroke-linejoin="round"/>
</svg>
