<svg width="111" height="242" fill="none" xmlns="http://www.w3.org/2000/svg"><g clip-path="url(#clip0_6741_1730)"><path d="M11.57 159.603l.236 54.814c0 6.555 4.44 13.086 13.226 17.997 17.311 9.656 44.872 9.398 61.806-.611 8.266-4.934 12.375-11.278 12.352-17.621l-.237-54.814-87.383.235z" fill="#C2C7CB"/><path d="M55.264 239.65a63.655 63.655 0 01-30.443-7.048c-8.596-4.699-13.343-11.254-13.367-18.209l-.142-55.026h.26l87.62-.258v.258l.141 54.815c0 6.696-4.416 13.039-12.493 17.832a63.362 63.362 0 01-31.576 7.636zm-43.456-79.883l.142 54.556c0 6.766 4.724 13.063 13.108 17.785 17.193 9.586 44.872 9.398 61.522-.634 7.912-4.699 12.257-10.878 12.257-17.386l-.165-54.556-86.864.235z" fill="#172224"/><path d="M96.261 159.367h-5.904a2.694 2.694 0 00-2.669 2.749v63.719c-.002.51.143 1.01.417 1.441a2.689 2.689 0 002.618 1.226 2.704 2.704 0 001.382-.599 18.416 18.416 0 005.053-6.076 18.322 18.322 0 002.032-7.622l-.236-52.089a2.665 2.665 0 00-.763-1.939 2.708 2.708 0 00-1.93-.81z" fill="#C2C7CB"/><path d="M90.406 228.796a2.993 2.993 0 01-1.205-.259c-.538-.219-1-.594-1.323-1.075a2.903 2.903 0 01-.495-1.627v-63.719c0-.774.308-1.518.856-2.068a2.959 2.959 0 012.072-.868h5.905c.785 0 1.538.308 2.095.858.558.55.874 1.297.88 2.078l.142 52.136a18.717 18.717 0 01-2.03 7.707 18.816 18.816 0 01-5.055 6.179 2.894 2.894 0 01-1.842.658zm5.857-69.17h-5.904a2.37 2.37 0 00-1.67.688 2.343 2.343 0 00-.692 1.661v63.86a2.342 2.342 0 001.464 2.232 2.372 2.372 0 002.574-.376 18.392 18.392 0 004.913-6.014 18.3 18.3 0 001.984-7.495l-.213-52.066a2.335 2.335 0 00-.732-1.715 2.368 2.368 0 00-1.724-.705v-.07z" fill="#172224"/><path d="M85.73 141.37c-17.31-9.656-44.871-9.398-61.805.635-16.933 10.032-16.532 25.844.874 35.595 17.406 9.75 44.872 9.398 61.806-.611 16.933-10.009 16.414-25.939-.874-35.619z" fill="#172224"/><path d="M84.502 141.088c-16.531-9.257-43.171-8.998-59.325.611-16.155 9.61-15.73 24.905.803 34.186 16.531 9.28 43.171 8.998 59.325-.611 16.154-9.61 15.824-24.905-.803-34.186z" fill="#C2C7CB"/><path d="M55.122 182.91a61.116 61.116 0 01-29.143-6.697c-8.266-4.699-12.824-10.831-12.919-17.456-.094-6.626 4.157-12.617 11.974-17.293 16.201-9.609 42.936-9.891 59.61-.493 8.17 4.581 12.729 10.737 12.823 17.339.095 6.602-4.156 12.641-11.997 17.293a60.901 60.901 0 01-30.348 7.307zm.284-48.33a60.162 60.162 0 00-30.089 7.331c-7.675 4.558-11.808 10.525-11.808 16.846 0 6.32 4.558 12.429 12.588 16.893 16.532 9.233 43.03 8.975 59.042-.588 7.676-4.558 11.809-10.526 11.809-16.846s-4.558-12.429-12.588-16.893a60.681 60.681 0 00-28.954-6.743z" fill="#172224"/><path d="M67.495 151.215a27.492 27.492 0 00-24.822.235c-6.754 4.018-6.613 10.432.355 14.308a27.429 27.429 0 0024.821-.235c6.754-4.017 6.613-10.455-.354-14.308z" fill="#C2C7CB"/><path d="M55.193 168.86a25.805 25.805 0 01-12.28-2.867 9.037 9.037 0 01-3.748-2.956 8.976 8.976 0 01-1.708-4.445 8.804 8.804 0 011.527-4.357 8.873 8.873 0 013.527-2.997 27.894 27.894 0 0125.081-.258 9.085 9.085 0 013.742 2.961 9.016 9.016 0 011.714 4.44 8.778 8.778 0 01-1.534 4.363 8.843 8.843 0 01-3.544 2.991 25.76 25.76 0 01-12.777 3.125zm.119-20.23a25 25 0 00-12.517 3.055 8.416 8.416 0 00-3.356 2.805 8.36 8.36 0 00-1.486 4.102 8.623 8.623 0 001.637 4.226 8.684 8.684 0 003.559 2.823 27.283 27.283 0 0024.585-.259 8.416 8.416 0 003.355-2.805 8.36 8.36 0 001.487-4.102 8.623 8.623 0 00-1.637-4.226 8.684 8.684 0 00-3.56-2.823 25.45 25.45 0 00-12.068-2.796z" fill="#172224"/><path d="M19.555 178.986v44.359c9.21 7.495 22.578 10.808 34.457 11.419v-44.453a76.994 76.994 0 01-17.595-2.937 48.855 48.855 0 01-16.862-8.388z" fill="#C2C7CB"/><path d="M54.32 234.951h-.283c-13.887-.634-26.546-4.699-34.623-11.418v-44.97l.402.329a47.752 47.752 0 0016.768 8.435 75.072 75.072 0 0017.523 2.937h.213v44.687zm-34.504-11.747c7.959 6.438 20.31 10.526 33.937 11.278V190.64a76.603 76.603 0 01-17.406-2.937 49.18 49.18 0 01-16.531-8.2v43.701zm73.896-45.134a1.484 1.484 0 00-.59 1.198v35.572c.003.309.1.61.28.863a1.534 1.534 0 001.635.6c.301-.077.572-.243.776-.477a14.065 14.065 0 003.378-6.884l-.118-39.237c.118 2.491-3.165 6.673-5.361 8.365z" fill="#172224"/><path d="M29.095 216.531a49.363 49.363 0 01-4.724-2.349 1.017 1.017 0 00-1.535.822v5.146a.935.935 0 00.401.775 31.908 31.908 0 004.96 2.89 1.008 1.008 0 00.97-.014.988.988 0 00.494-.832v-5.592a.91.91 0 00-.567-.846z" fill="#D2FC1B"/><path d="M28.645 224.097a1.27 1.27 0 01-.567-.141 33.392 33.392 0 01-4.983-2.914 1.202 1.202 0 01-.52-.987v-5.145a1.192 1.192 0 01.615-1.104 1.278 1.278 0 011.299 0 48.795 48.795 0 004.723 2.349 1.205 1.205 0 01.732 1.081v5.498a1.215 1.215 0 01-.567 1.01c-.197.195-.455.32-.732.353zm-4.723-9.915a.78.78 0 00-.378 0 .66.66 0 00-.354.611v5.145a.63.63 0 00.283.564 35.006 35.006 0 004.865 2.984.827.827 0 00.78 0 .731.731 0 00.354-.588v-5.521a.73.73 0 00-.449-.634 52.834 52.834 0 01-4.723-2.35.803.803 0 00-.473-.211h.095z" fill="#172224"/><path d="M41.777 220.619a59.833 59.833 0 01-4.298-1.057c-1.393-.399-2.362-.752-3.613-1.151a.993.993 0 00-1.222.443.983.983 0 00-.125.45v5.521a.99.99 0 00.661.916 66.574 66.574 0 008.172 2.162 1.032 1.032 0 00.834-.205 1.032 1.032 0 00.394-.758v-5.381a.984.984 0 00-.803-.94z" fill="#fff"/><path d="M41.567 228.161h-.26a61.048 61.048 0 01-8.242-2.185 1.2 1.2 0 01-.85-1.151v-5.521a1.19 1.19 0 01.52-.987 1.314 1.314 0 011.18-.141c1.228.423 2.362.799 3.59 1.128 1.228.329 2.763.752 4.275 1.08a1.196 1.196 0 01.992 1.175v5.381a1.188 1.188 0 01-.45.939 1.274 1.274 0 01-.755.282zm-8.053-9.656a.834.834 0 00-.449.141.705.705 0 00-.283.564v5.521a.68.68 0 00.496.658 60.1 60.1 0 008.124 2.161.754.754 0 00.661-.164.657.657 0 00.26-.54v-5.287a.726.726 0 00-.59-.681 72.315 72.315 0 01-4.322-1.081 50.269 50.269 0 01-3.614-1.151l-.283-.141z" fill="#172224"/><path d="M52.927 222.264c-2.22-.164-4.44-.446-6.637-.775a.961.961 0 00-.817.187.973.973 0 00-.364.753v5.286a1.01 1.01 0 00.874.963c2.197.306 4.464.564 6.778.729a1.001 1.001 0 00.996-.57.988.988 0 00.09-.394v-5.239a.969.969 0 00-.921-.94z" fill="#D2FC1B"/><path d="M52.833 229.665c-2.361-.188-4.723-.423-6.801-.728a1.243 1.243 0 01-1.063-1.222v-5.286a1.168 1.168 0 01.425-.917 1.362 1.362 0 011.04-.282c2.172.353 4.392.611 6.612.776a1.245 1.245 0 011.157 1.222v5.215a1.24 1.24 0 01-.378.893c-.275.234-.63.352-.992.329zm-6.707-7.941a.76.76 0 00-.496.188.629.629 0 00-.26.517v5.286a.726.726 0 00.638.705c2.15.305 4.44.564 6.778.752a.903.903 0 00.59-.212.702.702 0 00.237-.517v-5.239a.728.728 0 00-.709-.705 89.398 89.398 0 01-6.636-.799l-.142.024z" fill="#172224"/><path d="M29.095 206.593a49.383 49.383 0 01-4.724-2.35 1.016 1.016 0 00-1.002-.022 1.015 1.015 0 00-.533.845v5.145a.911.911 0 00.402.775 31.846 31.846 0 004.96 2.82 1 1 0 001.327-.366.984.984 0 00.136-.48v-5.498a.934.934 0 00-.566-.869z" fill="#fff"/><path d="M28.648 214.158a1.256 1.256 0 01-.567-.141 33.387 33.387 0 01-4.983-2.913 1.206 1.206 0 01-.52-.987v-5.145a1.219 1.219 0 01.614-1.058 1.24 1.24 0 011.3 0 48.803 48.803 0 004.723 2.35 1.203 1.203 0 01.732 1.104v5.474a1.19 1.19 0 01-.567 1.011 1.255 1.255 0 01-.732.305zm-4.724-9.891a.756.756 0 00-.378 0 .661.661 0 00-.354.611v5.145a.7.7 0 00.284.587 33.669 33.669 0 004.865 2.961.827.827 0 00.779 0 .73.73 0 00.354-.588v-5.521a.702.702 0 00-.448-.634 47.39 47.39 0 01-4.724-2.35.782.782 0 00-.472-.211h.094z" fill="#172224"/><path d="M41.777 210.704a76.02 76.02 0 01-4.298-1.08c-1.393-.4-2.362-.729-3.613-1.152a.992.992 0 00-1.346.917v5.498a.984.984 0 00.66.916 62.76 62.76 0 008.172 2.161 1.019 1.019 0 001.114-.52c.068-.13.107-.273.114-.419v-5.404a.938.938 0 00-.803-.917z" fill="#D2FC1B"/><path d="M41.567 218.246h-.26a64.753 64.753 0 01-8.242-2.091 1.201 1.201 0 01-.85-1.151v-5.615a1.17 1.17 0 01.52-.987 1.238 1.238 0 011.18-.165c1.252.447 2.362.823 3.59 1.152 1.228.329 2.763.728 4.275 1.057a1.202 1.202 0 01.992 1.175v5.404a1.197 1.197 0 01-.449.916c-.212.18-.477.287-.756.305zm-8.053-9.586a.834.834 0 00-.449.141.708.708 0 00-.283.588v5.498a.727.727 0 00.496.681 63.924 63.924 0 008.124 2.138.84.84 0 00.661-.141.711.711 0 00.26-.54v-5.404a.735.735 0 00-.59-.682 58.14 58.14 0 01-4.322-1.08c-1.346-.4-2.362-.705-3.614-1.152l-.283-.047z" fill="#172224"/><path d="M52.927 212.326a78.578 78.578 0 01-6.637-.776.99.99 0 00-.809.198.994.994 0 00-.372.742v5.31a.985.985 0 00.874.94c2.197.329 4.464.564 6.778.752a.993.993 0 001.087-.987v-5.216a.992.992 0 00-.921-.963z" fill="#fff"/><path d="M52.83 219.75a105.102 105.102 0 01-6.801-.752 1.228 1.228 0 01-1.157-1.198v-5.31a1.071 1.071 0 01.425-.893 1.289 1.289 0 011.039-.305 87.83 87.83 0 006.613.799 1.204 1.204 0 011.157 1.198v5.216a1.17 1.17 0 01-.402.869 1.202 1.202 0 01-.873.376zm-6.707-7.965a.76.76 0 00-.496.188.687.687 0 00-.26.517v5.31a.776.776 0 00.638.705c2.15.282 4.44.54 6.778.728a.794.794 0 00.59-.211.662.662 0 00.237-.494v-5.239a.728.728 0 00-.709-.705c-2.22-.164-4.44-.446-6.636-.775l-.142-.024z" fill="#172224"/><path d="M29.094 196.654a44.588 44.588 0 01-4.723-2.349 1.017 1.017 0 00-1.535.822v5.169a.982.982 0 00.401.775 33.766 33.766 0 004.96 2.89 1.024 1.024 0 00.97-.038 1.02 1.02 0 00.494-.831v-5.568a.939.939 0 00-.567-.87z" fill="#D2FC1B"/><path d="M28.648 204.22a1.256 1.256 0 01-.567-.141 31.445 31.445 0 01-4.983-2.914 1.152 1.152 0 01-.52-.963v-5.192a1.263 1.263 0 01.614-1.058 1.351 1.351 0 011.3 0 43.927 43.927 0 004.723 2.35 1.227 1.227 0 01.732 1.104v5.592a1.168 1.168 0 01-.567 1.01 1.253 1.253 0 01-.732.212zm-4.724-9.892a.78.78 0 00-.378 0 .683.683 0 00-.354.611v5.169a.696.696 0 00.284.564 34.948 34.948 0 004.865 2.96.828.828 0 00.779 0 .727.727 0 00.354-.587v-5.521a.727.727 0 00-.448-.635 47.382 47.382 0 01-4.724-2.349.783.783 0 00-.472-.212h.094z" fill="#172224"/><path d="M41.777 200.766a76.04 76.04 0 01-4.298-1.081c-1.393-.399-2.362-.728-3.613-1.151a.992.992 0 00-1.346.916v5.498a.961.961 0 00.66.916 62.605 62.605 0 008.172 2.162 1.023 1.023 0 00.833-.187 1.008 1.008 0 00.395-.753v-5.38a.961.961 0 00-.803-.94z" fill="#fff"/><path d="M41.567 208.308h-.26a64.794 64.794 0 01-8.242-2.209 1.2 1.2 0 01-.85-1.151v-5.498a1.193 1.193 0 01.52-.986 1.305 1.305 0 011.18-.165c1.252.446 2.362.822 3.59 1.151 1.228.329 2.787.729 4.275 1.058a1.224 1.224 0 01.992 1.198v5.38a1.239 1.239 0 01-1.205 1.222zm-8.053-9.586a.876.876 0 00-.449.164.641.641 0 00-.283.564v5.498a.703.703 0 00.496.682 63.795 63.795 0 008.124 2.161.836.836 0 00.661-.164.706.706 0 00.26-.541v-5.38a.774.774 0 00-.59-.705 77.668 77.668 0 01-4.322-1.057c-1.347-.376-2.362-.729-3.614-1.175l-.283-.047z" fill="#172224"/><path d="M52.927 202.411a89.943 89.943 0 01-6.637-.799 1.005 1.005 0 00-.809.198.984.984 0 00-.372.742v5.31a1.034 1.034 0 00.874.963c2.197.305 4.464.54 6.778.728a1 1 0 00.755-.245.99.99 0 00.332-.718v-5.239a.963.963 0 00-.921-.94z" fill="#D2FC1B"/><path d="M52.833 209.812a105.81 105.81 0 01-6.801-.752 1.219 1.219 0 01-1.063-1.198v-5.31a1.144 1.144 0 01.425-.893 1.179 1.179 0 011.039-.282c2.196.329 4.416.611 6.613.775a1.198 1.198 0 011.157 1.199v5.239a1.19 1.19 0 01-.378.869 1.296 1.296 0 01-.992.353zm-6.707-7.965a.76.76 0 00-.496.188.678.678 0 00-.26.517v5.31a.727.727 0 00.638.704c2.149.306 4.44.541 6.778.729a.789.789 0 00.59-.188.751.751 0 00.237-.517v-5.239a.756.756 0 00-.709-.705 79.73 79.73 0 01-6.636-.776l-.142-.023z" fill="#172224"/><path d="M29.095 186.716a44.386 44.386 0 01-4.724-2.35 1.027 1.027 0 00-1.002-.022 1.014 1.014 0 00-.533.845v5.122a.932.932 0 00.401.775 31.828 31.828 0 004.96 2.89 1.024 1.024 0 001.323-.391c.087-.146.135-.31.141-.478v-5.522a.935.935 0 00-.567-.869z" fill="#D2FC1B"/><path d="M28.648 194.281c-.188.033-.38.033-.567 0a35.447 35.447 0 01-4.983-3.03 1.224 1.224 0 01-.52-.94v-5.169a1.192 1.192 0 01.614-1.034 1.278 1.278 0 011.3 0 49.056 49.056 0 004.723 2.35 1.173 1.173 0 01.732 1.08v5.475a1.215 1.215 0 01-.567 1.033 1.437 1.437 0 01-.732.235zm-4.724-9.891a1.09 1.09 0 00-.378 0 .708.708 0 00-.354.611v5.31a.703.703 0 00.284.564 33.72 33.72 0 004.865 2.819.783.783 0 00.779 0 .663.663 0 00.354-.587v-5.522a.723.723 0 00-.448-.634 49.678 49.678 0 01-4.724-2.35.81.81 0 00-.472-.211h.094z" fill="#172224"/><path d="M41.777 190.828c-1.464-.306-2.904-.682-4.298-1.058-1.393-.376-2.362-.752-3.613-1.151a.994.994 0 00-1.346.893v5.498a.94.94 0 00.66.893 62.804 62.804 0 008.172 2.185 1.049 1.049 0 00.834-.205 1.032 1.032 0 00.394-.759v-5.357a.96.96 0 00-.803-.939z" fill="#D2FC1B"/><path d="M41.567 198.37h-.26a64.917 64.917 0 01-8.242-2.185 1.228 1.228 0 01-.85-1.152v-5.521a1.194 1.194 0 01.52-.987 1.377 1.377 0 011.18-.164c1.228.446 2.362.822 3.59 1.151 1.228.329 2.787.752 4.275 1.081a1.196 1.196 0 01.992 1.174v5.381a1.195 1.195 0 01-.45.94 1.28 1.28 0 01-.755.282zm-8.053-9.563a.833.833 0 00-.449.141.68.68 0 00-.283.564v5.498a.704.704 0 00.472.658 61.404 61.404 0 008.148 2.161.754.754 0 00.661-.164.705.705 0 00.26-.541v-5.357a.727.727 0 00-.59-.681 82.697 82.697 0 01-4.322-1.081c-1.37-.376-2.362-.728-3.614-1.151a.587.587 0 00-.283-.047z" fill="#172224"/><path d="M52.927 192.472a89.407 89.407 0 01-6.637-.799 1.032 1.032 0 00-.81.216 1.009 1.009 0 00-.37.748v5.286a1.008 1.008 0 00.873.963c2.197.306 4.464.564 6.778.729a.984.984 0 00.403-.045.98.98 0 00.593-.525.988.988 0 00.09-.393v-5.216a.968.968 0 00-.921-.964z" fill="#D2FC1B"/><path d="M52.833 199.873c-2.361-.188-4.723-.423-6.801-.752a1.203 1.203 0 01-1.063-1.198v-5.263a1.174 1.174 0 01.425-.916 1.277 1.277 0 011.04-.282c2.172.329 4.392.611 6.612.775.313.018.608.155.823.382.215.227.335.528.334.84v5.216a1.168 1.168 0 01-.401.893 1.291 1.291 0 01-.453.25 1.286 1.286 0 01-.516.055zm-6.707-7.941a.736.736 0 00-.496.164.707.707 0 00-.26.541v5.286a.726.726 0 00.638.705c2.173.305 4.44.564 6.778.752a.903.903 0 00.59-.212.75.75 0 00.237-.517v-5.216a.73.73 0 00-.709-.704 89.933 89.933 0 01-6.636-.799h-.142zM21.775 180.56c-.756-.517-1.512-1.01-2.22-1.574v44.359c9.21 7.495 22.578 10.808 34.457 11.419v-2.585c-11.313-.869-23.617-3.054-32.237-10.103V180.56zm-.283-36.699c.6 4.44 2.129 8.706 4.487 12.523a33.097 33.097 0 0020.004 11.912c15.54 3.383 42.723-2.35 43.337-25.845-16.484 14.708-53.894 13.486-67.828 1.41z" fill="#172224"/><path d="M78.243 122.715c-6.33-3.031-30.017-7.894-46.077.47-5.101 2.631-13.32 7.847-10.392 22.132 1.37 6.79 9.046 13.487 16.957 17.504 7.416 3.759 19.39 3.102 23.925 2.35a41.67 41.67 0 0013.178-4.112 25.666 25.666 0 0011.808-11.043c4.7-9.68-.826-23.142-9.4-27.301z" fill="#172224"/><path d="M17.406 136.695a29.38 29.38 0 005.078 12.523c5.62 6.766 14.17 10.314 22.46 11.912 17.43 3.383 47.895-2.35 48.58-25.845-18.54 14.731-60.46 13.486-76.118 1.41z" fill="#C2C7CB"/><path d="M17.406 135.426a29.588 29.588 0 005.078 12.593c5.62 6.743 14.17 10.315 22.46 11.912 17.43 3.384 47.895-2.349 48.58-25.844-18.54 14.637-60.46 13.415-76.118 1.339z" fill="#172224"/><path d="M81.03 114.28c-7.085-3.031-33.654-7.894-51.674.47-5.74 2.726-14.926 7.848-11.667 22.133 1.559 6.79 10.155 13.486 19.035 17.504 8.314 3.759 21.728 3.101 26.83 2.349a50.893 50.893 0 0014.784-4.018c5.172-2.349 10.438-5.732 13.296-11.042 5.196-9.774-.992-23.307-10.604-27.396z" fill="#172224"/><path d="M15.469 127.579a28.492 28.492 0 005.337 12.523c5.904 6.743 14.926 10.314 23.617 11.912 18.303 3.383 50.352-2.35 51.06-25.845-19.507 14.802-63.577 13.486-80.014 1.41z" fill="#C2C7CB"/><path d="M15.469 126.404a28.444 28.444 0 005.337 12.546c5.904 6.743 14.926 10.315 23.617 11.912 18.303 3.384 50.352-2.349 51.06-25.844-19.507 14.708-63.577 13.603-80.014 1.386z" fill="#172224"/><path d="M82.353 105.282c-7.463-3.031-35.425-7.895-54.32.446-5.998 2.655-15.68 7.871-12.256 22.156 1.63 6.79 10.675 13.486 20.003 17.504 8.739 3.759 22.838 3.101 28.199 2.349a55.766 55.766 0 0015.54-4.111c5.432-2.35 10.982-5.733 13.981-11.066 5.456-9.657-1.039-23.19-11.147-27.278z" fill="#172224"/><path d="M91.114 111.954c-6.495-7.401-20.075-12.499-35.78-12.499-15.705 0-28.765 4.91-35.425 12.076a18.368 18.368 0 00-3.378 5.24 13.006 13.006 0 00-1.039 5.075c0 .598.047 1.195.142 1.785a14.045 14.045 0 001.842 5.216c5.243 8.929 20.216 15.39 37.905 15.39 17.288 0 32.001-6.156 37.551-14.802a14.79 14.79 0 002.079-4.934c.182-.873.27-1.763.26-2.655a12.724 12.724 0 00-.874-4.699 16.79 16.79 0 00-3.283-5.193z" fill="#C2C7CB"/><path d="M91.114 110.192c-6.495-7.401-20.075-12.476-35.78-12.476-15.705 0-28.765 4.887-35.425 12.077a17.94 17.94 0 00-3.378 5.333 13.03 13.03 0 00-1.039 5.099c0 .59.048 1.179.142 1.762a14.056 14.056 0 001.842 5.216c5.243 8.928 20.216 15.389 37.905 15.389 17.288 0 32.001-6.156 37.551-14.778a15.116 15.116 0 002.079-4.958 12.27 12.27 0 00.26-2.631 12.86 12.86 0 00-.874-4.699 17.068 17.068 0 00-3.283-5.334z" fill="#172224"/><path d="M55.335 100.63c-22.035 0-37.386 10.267-37.386 19.477s15.351 19.478 37.386 19.478c22.035 0 37.386-10.362 37.386-19.478 0-9.116-15.351-19.477-37.386-19.477z" fill="#C2C7CB"/><path d="M55.336 140.196c-22.39 0-38-10.597-38-20.089 0-9.492 15.729-20.112 38-20.112 22.27 0 38.023 10.597 38.023 20.112 0 9.516-15.61 20.089-38.023 20.089zm0-38.955c-21.657 0-36.748 9.938-36.748 18.796 0 8.857 15.09 18.796 36.748 18.796 21.657 0 36.771-9.821 36.771-18.726 0-8.904-15.114-18.866-36.771-18.866z" fill="#172224"/><g opacity=".5"><path d="M57.957.305h-2.621A55.293 55.293 0 0027.43 7.871 54.923 54.923 0 007.227 28.46a54.565 54.565 0 00-6.93 27.935A54.585 54.585 0 008.55 83.972a65.719 65.719 0 019.447 33.739c0 5.404 3.732 10.784 10.864 14.896 14.572 8.434 38.732 8.505 53.398 0 7.203-4.136 10.32-8.153 10.604-15.014a71.105 71.105 0 019.73-34.303 54.188 54.188 0 007.841-31.248C108.876 24.176 85.282.305 57.957.305z" fill="#D2FC1B"/><path d="M55.547 139.256a54.854 54.854 0 01-26.9-6.438c-7.085-4.018-10.864-9.398-11.005-15.107a65.155 65.155 0 00-9.305-33.598 54.843 54.843 0 01-8.324-27.72 54.823 54.823 0 016.953-28.09A55.182 55.182 0 0127.276 7.6 55.554 55.554 0 0155.334 0h2.646a51.237 51.237 0 0119.585 4.187 51.017 51.017 0 0116.454 11.367 55.763 55.763 0 0116.532 36.535 54.659 54.659 0 01-7.888 31.413 70.377 70.377 0 00-9.683 34.185c-.236 6.837-3.236 10.878-10.699 15.202a54.696 54.696 0 01-26.734 6.367zM55.335.634a55.056 55.056 0 00-27.729 7.547 54.689 54.689 0 00-20.08 20.465A54.332 54.332 0 00.61 56.406 54.35 54.35 0 008.76 83.83a65.529 65.529 0 019.448 33.856c0 5.545 3.944 10.761 10.745 14.708 14.643 8.458 38.472 8.482 53.139 0 7.368-4.229 10.202-8.247 10.462-14.802a71.013 71.013 0 019.777-34.42 54.028 54.028 0 007.794-31.131C108.638 24.176 84.738.564 57.956.564h-2.622v.07z" fill="#172224"/></g><g style="mix-blend-mode:screen" opacity=".55"><path d="M73.851 7.26c-1.18 3.313-2.362 6.65-3.519 9.985a42.825 42.825 0 0114.69 10.95l7.77-6.767A55.781 55.781 0 0073.85 7.26z" fill="url(#paint0_linear_6741_1730)"/><path d="M69.648 19.219c-1.157 3.336-2.362 6.626-3.52 9.985a28.112 28.112 0 019.448 7.19l7.746-6.767A40.74 40.74 0 0069.648 19.22z" fill="url(#paint1_linear_6741_1730)"/><path d="M87.219 31.225a42.65 42.65 0 017.25 16.705l10.675-.94a55.625 55.625 0 00-9.447-21.592l-8.478 5.827z" fill="url(#paint2_linear_6741_1730)"/><path d="M77.11 38.297a28.122 28.122 0 014.723 10.855l10.58-1.01A40.118 40.118 0 0085.517 32.4l-8.408 5.897z" fill="url(#paint3_linear_6741_1730)"/></g><path style="mix-blend-mode:screen" opacity=".5" d="M56.35 7.847c-18.02 0-32.733 7.871-32.733 17.598 0 9.727 14.62 17.622 32.639 17.622 18.02 0 32.733-7.824 32.733-17.622 0-9.797-14.619-17.598-32.639-17.598z" fill="url(#paint4_radial_6741_1730)"/><path style="mix-blend-mode:screen" opacity=".5" d="M56.351 12.053c-13.84 0-25.152 4.816-25.152 10.76 0 5.945 11.313 10.762 25.152 10.762 13.84 0 25.153-4.7 25.153-10.761 0-6.062-11.266-10.761-25.153-10.761z" fill="url(#paint5_radial_6741_1730)"/><path d="M83.18 70.72c-.804-1.198-2.362-7.048-4.913-8.599-2.55-1.55-6.542-3.101-7.25-4.206a37.532 37.532 0 00-11.667-5.803c-3.826-1.01-17.217-1.41-19.744 1.105-2.527 2.514-4.913.493-5.621 3.688-.709 3.196-2.527 13.58 14.831 22.415a297.516 297.516 0 0027.821 12.617 3.864 3.864 0 004.133 0c1.417-.823 4.417-1.504 4.322-5.005-.094-3.5 1.252-5.169 1.323-8.81a11.976 11.976 0 00-3.236-7.402z" fill="#D2FC1B"/><path d="M78.95 92.735a5.903 5.903 0 01-2.362-.657c-.448-.212-1.133-.494-2.078-.87-3.85-1.527-11.808-4.699-25.766-11.747-8.148-4.136-17.359-11.42-14.902-22.556a2.58 2.58 0 01.83-1.67 2.605 2.605 0 011.744-.68 5.253 5.253 0 003.094-1.503c2.55-2.514 15.941-2.161 19.862-1.128a37.318 37.318 0 0111.808 5.874 13.144 13.144 0 003.85 2.35 37.327 37.327 0 013.353 1.785c1.89 1.151 3.212 4.488 4.086 6.696.248.669.54 1.32.874 1.95l.52.682a10.823 10.823 0 012.715 6.907 16.975 16.975 0 01-.684 4.37 15.363 15.363 0 00-.662 4.394 4.824 4.824 0 01-.991 2.957 4.866 4.866 0 01-2.599 1.742l-.802.4a3.933 3.933 0 01-1.89.704zm-28.718-41.28c-4.535 0-9.164.493-10.51 1.855a5.799 5.799 0 01-3.259 1.551c-1.133.235-1.984.4-2.362 2.068-2.361 10.995 6.684 18.162 14.761 22.273 13.863 7.049 21.87 10.22 25.719 11.748.968.376 1.653.634 2.102.846a3.674 3.674 0 003.991 0l.827-.4a4.725 4.725 0 002.478-1.597 4.685 4.685 0 001.04-2.75 15.058 15.058 0 01.638-4.51c.417-1.398.647-2.843.685-4.3a10.614 10.614 0 00-2.668-6.743 9.598 9.598 0 01-.544-.705 15.087 15.087 0 01-.897-1.997c-.85-2.162-2.15-5.451-3.991-6.555-.992-.611-2.173-1.222-3.307-1.786a12.483 12.483 0 01-4.085-2.467 37.863 37.863 0 00-11.596-5.756 44.31 44.31 0 00-9.022-.776z" fill="#172224"/><path d="M80.678 80.33c.142-1.057 3.235-5.004 1.89-5.71-1.347-.704-3.095 4.37-4.016 3.619-.92-.752-2.361 2.35-2.361.893s.826-3.9-.237-4.958c-1.062-1.057-1.63-6.532-2.361-7.4-.732-.87-3.047 1.55-4.724 1.55s-4.062-1.504-4.227-3.148a6.561 6.561 0 00-1.795-4.37c-.921-.447-2.881-2.538-2.362-3.595a5.739 5.739 0 00.473-2.091s-2.575 1.033-1.96 2.35c.397.97.698 1.977.897 3.007 0 0-.449.587-2.574-.165a10.57 10.57 0 01-3.92-3.148 29.479 29.479 0 01-3.614-.447c-1.37-.305-1.677-2.35-4.393-2.114-2.716.235-3.613 0-6.33.235-2.715.235-6.494 1.057-6.187 6.46.307 5.405 8.384 21.147 21.964 27.537 13.58 6.39 21.964 4.817 24.514 3.008a5.705 5.705 0 001.37-6.461 27.894 27.894 0 01-2.362-4.488s2.15.493 2.315-.564z" fill="#172224"/><path d="M71.015 57.916a20.312 20.312 0 00-3.401-.588c-1.417 0-6.755-4.088-6.755-4.088s5.267 6.273 5.928 5.498c.661-.776 3.283.916 3.684 2.35.402 1.433-3.495 4.44-3.495 4.44s6.944-.658 5.645-2.35c-1.3-1.691 0-3.265.52-3.9a6.45 6.45 0 01-2.126-1.362zm11.171 10.549c-.402.258-1.819-.94-2.504-1.01-.685-.07-2.125-4.3-3.59-4.887-1.464-.588 2.055 4.699 1.748 5.85a20.798 20.798 0 000 4.206 26.631 26.631 0 001.323 4.205s.189-2.913.307-3.994c.046-.61.14-1.214.283-1.81l4.133.612c-.283-.353-.543-.658-.708-.917a17.107 17.107 0 01-.992-2.255zM55.12 53.099c-2.526-.705-11.808-1.621-12.847-.587-.449.422 1.771 1.104 4.345.845 4.417-.422 4.157 2.35 5.456 2.35 1.299 0 .78-2.02 1.228-1.95 2.04-.015 4.061-.38 5.975-1.08a37.25 37.25 0 01-4.157.422zm29.074 31.225c-1.417.564-1.18-2.35-1.653-2.35-1.748.306.401 5.804-.756 7.05-1.157 1.244-8.715.704-8.715.704l.26.846c1.606.658 2.692 1.057 3.306 1.339a3.864 3.864 0 004.133 0c1.417-.822 4.417-1.504 4.322-5.004.084-2.167.44-4.314 1.063-6.391-.496 1.316-1.133 3.5-1.96 3.806z" fill="#172224"/><path d="M74.229 77.04c.401-2.607-4.724-7.048-6.85-8.011-2.125-.964-5.03-.893-6.423-3.407-1.394-2.514-5.834-4.417-8.053-6.015a7.892 7.892 0 00-3.307-1.128c-1.464-.258-2.787-.47-3.235-1.48-.803-1.785-6.448-.799-11.266-.4-4.818.4-3.826 2.82-6.849 3.008-3.023.188-4.629 4.206-4.629 6.015a13.524 13.524 0 01-1.653 6.743 9.073 9.073 0 00-.478 6.211 9.118 9.118 0 003.643 5.067 8.434 8.434 0 005.432 1.997c1.003.33 1.968.763 2.881 1.292a72.02 72.02 0 004.133 7.049 10.015 10.015 0 003.666 2.54c1.398.561 2.906.801 4.411.702 1.606 0 1.204.799 3.212 1.198 2.248.069 4.493-.2 6.66-.799a7.856 7.856 0 006.424 1.598c3.235-.987 5.03.799 9.447.211a7.97 7.97 0 004.57-2.465 7.899 7.899 0 002.066-4.748c0-2.35 2.007-5.803-1.417-9.21a6.675 6.675 0 01-1.962-2.68 6.641 6.641 0 01-.423-3.287z" fill="#D2FC1B"/><path d="M69.599 99.713a17.931 17.931 0 01-3.26-.352 8.261 8.261 0 00-4.345 0 8.023 8.023 0 01-6.518-1.574c-2.16.594-4.398.856-6.637.775a4.216 4.216 0 01-1.771-.752 1.99 1.99 0 00-1.417-.446h-.213a10.082 10.082 0 01-4.352-.752 10.036 10.036 0 01-3.607-2.538 66.415 66.415 0 01-4.156-7.048 13.665 13.665 0 00-2.787-1.245h-.803a7.649 7.649 0 01-4.723-1.95c-1.89-1.575-6-5.827-3.189-11.42a13.337 13.337 0 001.795-6.79c0-2.043 1.559-5.943 4.535-6.131a3.39 3.39 0 002.361-1.175 5.978 5.978 0 014.464-1.927l2.81-.164c4.133-.423 8.007-.823 8.715.728.402.893 1.583 1.104 2.976 1.363h.118a7.915 7.915 0 013.448 1.175c.661.47 1.511.963 2.362 1.503a16.965 16.965 0 015.691 4.535 6.48 6.48 0 001.875 1.73c.733.449 1.55.747 2.4.878.705.2 1.398.435 2.078.705 2.362 1.033 7.345 5.45 6.92 8.152a6.572 6.572 0 00.422 3.25 6.604 6.604 0 001.94 2.648 7.155 7.155 0 011.724 7.354 10.25 10.25 0 00-.26 1.95 8.038 8.038 0 01-2.098 4.84 8.113 8.113 0 01-4.656 2.514 18.05 18.05 0 01-1.842.164zm-5.621-.916a14.24 14.24 0 012.361.282c1.643.37 3.337.449 5.007.235a7.759 7.759 0 004.494-2.395 7.687 7.687 0 002.025-4.654c.034-.671.12-1.339.26-1.997a6.851 6.851 0 00-1.63-7.048 6.815 6.815 0 01-1.967-2.754 6.783 6.783 0 01-.395-3.355c.401-2.561-4.582-6.884-6.754-7.871a19.188 19.188 0 00-2.055-.705 6.754 6.754 0 01-2.525-.92 6.718 6.718 0 01-1.962-1.829 16.518 16.518 0 00-5.598-4.44c-.897-.54-1.77-1.058-2.361-1.527a8.22 8.22 0 00-3.283-1.222h-.165c-1.394-.235-2.716-.47-3.189-1.504-.472-1.034-4.7-1.01-8.455-.705l-2.692.259a5.86 5.86 0 00-4.251 1.762 3.634 3.634 0 01-2.598 1.245c-3.023.211-4.298 4.276-4.298 5.874a13.736 13.736 0 01-1.771 6.813c-2.716 5.428 1.299 9.563 3.14 11.09a7.104 7.104 0 004.559 1.88h.803a15.27 15.27 0 012.905 1.315 72.532 72.532 0 004.203 7.354 9.802 9.802 0 003.523 2.47c1.345.552 2.795.8 4.248.726h.212a2.204 2.204 0 011.559.493 3.647 3.647 0 001.7.705 22.69 22.69 0 006.566-.775 7.905 7.905 0 006.33 1.574 6.573 6.573 0 012.054-.376z" fill="#172224"/><path d="M51.485 91.631a4.738 4.738 0 01-2.296-.895 4.703 4.703 0 01-1.53-1.924 6.763 6.763 0 01-2.967-.474 6.731 6.731 0 01-2.465-1.711c-1.015-1.527-2.196-5.944-3.282-7.871-.26-.423-1.677-2.35-1.3 1.856a12.511 12.511 0 001.406 4.798 12.56 12.56 0 003.176 3.872c4.44 3.007 7.086 3.007 8.054 5.216.52 1.279.862 2.623 1.015 3.994a36.917 36.917 0 004.228-.799 4.266 4.266 0 01-1.205-2.655 24.07 24.07 0 011.795-5.404 7.34 7.34 0 01-4.629 1.997zm-6.142 3.407c-1.653-1.34-4.062-1.199-5.267-2.843a14.36 14.36 0 01-1.818-4.511s0 4.699 1.96 6.014a437.55 437.55 0 005.432 3.548s1.37-.916-.307-2.208zM26.78 75.819c.165-1.034 1.748-4.817.827-5.193-1.488-.61-3.377 4.7-1.866 7.613 1.512 2.913-2.834 1.104-1.842 3.172a10.258 10.258 0 004.582 3.9 11.5 11.5 0 001.63.282h.448a4.934 4.934 0 00-.898-4.864c-1.96-2.208-3.023-3.853-2.88-4.91z" fill="#172224"/><path d="M33.583 71.472c-1.37.306-2.361-2.35-2.125-4.699a20.475 20.475 0 00-1.96-7.4s.92 5.732-1.512 6.343c-2.433.61-3.306 4.699-3.306 4.699a8.815 8.815 0 013.306-3.007c2.362-1.34 2.362.305 1.984 2.35-.378 2.043 1.96 4.816 1.96 5.873 0 1.057-2.362 2.091-2.362 2.091a12.82 12.82 0 013.165 2.35c1.063 1.198.59 7.048.59 7.048a42.094 42.094 0 001.229-7.049c0-2.936-1.063-1.738-1.37-3.524-.307-1.785-.898-3.688.756-3.83 1.653-.14 2.574-3.618 2.574-3.618s-1.583 2.068-2.929 2.373zm-8.525-6.978a10.31 10.31 0 01-1.322.94.517.517 0 000 .188c-.007.39-.07.778-.19 1.151a12.5 12.5 0 001.465-.634c1.134-.588 2.102-3.524 2.102-3.524a22.624 22.624 0 01-2.055 1.88zm43.079 28.453c-1.346-2.35-5.267-.752-5.267-.752s3.023 1.81 3.023 3.313c0 1.504-3.944 3.736-3.944 3.736l6.731-1.199c1.88-.351 3.74-.798 5.574-1.339 1.653-.61 3.542-5.122 3.542-5.122a62.434 62.434 0 01-6.187 4.065c-1.205.446-2.102-.447-3.472-2.702zm1.958-11.865c-2.858-1.645-3-5.71-5.574-6.767-2.574-1.057-9.447-3.712-9.447-3.712a56.951 56.951 0 008.313 5.686c2.102.752 2.575 3.9 2.575 3.9l-2.882-.446s2.575 3.148 4.535 3.148 10.77 6.508 10.77 6.508a49.062 49.062 0 00-8.29-8.317z" fill="#172224"/><path d="M62.254 85.804a7.507 7.507 0 00-2.378-2.687 7.557 7.557 0 00-3.36-1.283c-2.858 0-7.7-.306-8.597-2.35-.898-2.044 5.739-2.608 6.4-4.3.661-1.691-4.723-6.72-5.88-5.098-.78 1.175 2.078 3.313 1.936 4.37-.142 1.057-2.362 1.48-3.897 2.984a3.688 3.688 0 01-3.306 1.057 23.628 23.628 0 014.062 2.726c.897 1.057.307 1.809 0 3.313-.25.78-.25 1.617 0 2.396 0 0 0-3.595 3.023-3.736 3.023-.14 7.085-.54 8.006.893 3.637 5.427-2.362 8.552-.425 9.398 2.858 1.081 4.346-4.205 5.101-4.699.756-.493 8.88 3.407 7.841 1.433-1.18-2.537-8.077-3.289-8.526-4.417zM49.595 58.48c-1.465-.259-2.787-.47-3.236-1.48a8.741 8.741 0 01-3.33 4.698c-2.716 1.95-1.346 5.71-1.204 6.743.141 1.034-4.724 4.7-3.165 6.32.52.565 2.362-1.057 3.92-2.866a6.091 6.091 0 00.756-5.85c-.449-1.198 1.063-.893 2.362-.141 1.299.752 9.919-2.467 9.919-2.467s-6.825-.705-9.093-.846c-2.267-.14 2.362-3.642 3.07-4.111zm6.023 7.447a3.24 3.24 0 00-1.936 1.081 3.21 3.21 0 00-.78 2.068 14.78 14.78 0 004.063-.94c2.125-.893 4.983.305 5.29-.893a14.922 14.922 0 00-6.637-1.316zm-18.115-9.539s-3.613 2.561-3.33 3.313c.42 1.186.925 2.34 1.512 3.454.92 1.645-2.362 4.582-2.126 5.474.189.47 3-.752 3.944-2.35a4.677 4.677 0 00-1.063-5.168c-1.204-1.645.307-3.76 1.063-4.723z" fill="#172224"/></g><defs><linearGradient id="paint0_linear_6741_1730" x1="68.372" y1="17.762" x2="107.104" y2="17.762" gradientUnits="userSpaceOnUse"><stop stop-color="#fff"/><stop offset=".04" stop-color="#F3F3F3"/><stop offset=".4" stop-color="#8D8D8D"/><stop offset=".69" stop-color="#414141"/><stop offset=".89" stop-color="#121212"/><stop offset="1"/></linearGradient><linearGradient id="paint1_linear_6741_1730" x1="47.117" y1="27.795" x2="79.591" y2="27.795" gradientUnits="userSpaceOnUse"><stop stop-color="#fff"/><stop offset=".04" stop-color="#F3F3F3"/><stop offset=".4" stop-color="#8D8D8D"/><stop offset=".69" stop-color="#414141"/><stop offset=".89" stop-color="#121212"/><stop offset="1"/></linearGradient><linearGradient id="paint2_linear_6741_1730" x1="85.377" y1="36.629" x2="110.694" y2="36.629" gradientUnits="userSpaceOnUse"><stop stop-color="#fff"/><stop offset=".04" stop-color="#F3F3F3"/><stop offset=".4" stop-color="#8D8D8D"/><stop offset=".69" stop-color="#414141"/><stop offset=".89" stop-color="#121212"/><stop offset="1"/></linearGradient><linearGradient id="paint3_linear_6741_1730" x1="62.089" y1="40.787" x2="87.052" y2="40.787" gradientUnits="userSpaceOnUse"><stop stop-color="#fff"/><stop offset=".04" stop-color="#F3F3F3"/><stop offset=".4" stop-color="#8D8D8D"/><stop offset=".69" stop-color="#414141"/><stop offset=".89" stop-color="#121212"/><stop offset="1"/></linearGradient><radialGradient id="paint4_radial_6741_1730" cx="0" cy="0" r="1" gradientUnits="userSpaceOnUse" gradientTransform="matrix(26.2385 0 0 26.1031 56.35 25.445)"><stop stop-color="#fff"/><stop offset="1"/></radialGradient><radialGradient id="paint5_radial_6741_1730" cx="0" cy="0" r="1" gradientUnits="userSpaceOnUse" gradientTransform="matrix(19.366 0 0 19.266 56.351 22.814)"><stop stop-color="#fff"/><stop offset="1"/></radialGradient><clipPath id="clip0_6741_1730"><path fill="#fff" d="M0 0h111v242H0z"/></clipPath></defs></svg>