<svg width="263" height="253" fill="none" xmlns="http://www.w3.org/2000/svg"><path d="M130.23 251.357l129.077-74.883v-14.919L130.23 236.411v14.946z" fill="#172224"/><path d="M.785 176.265l129.523 75.092v-14.945L.785 161.424v14.841z" fill="#C2C7CB"/><path d="M130.571 251.852l-.42-.234L.523 176.448v-15.389h.42l129.628 75.196v15.597zM1.074 176.109l128.946 74.752v-14.163L1.074 161.92v14.189z" fill="#172224"/><path d="M.785 161.424l129.523 74.987 128.998-74.856-129.654-75.092L.785 161.424z" fill="#D2FC1B"/><path d="M130.308 236.698h-.158L.234 161.424l.42-.365L129.652 86.15h.158l130.047 75.405-.42.235-129.129 74.908zM1.362 161.424l128.946 74.675 128.5-74.544-129.156-74.779-128.29 74.648z" fill="#172224"/><path d="M130.203 224.413l107.389-62.285v-35.837l-107.389 62.311v35.811z" fill="#172224"/><path d="M22.5 161.946l107.756 62.468v-35.812L22.5 126.187v35.759z" fill="#C2C7CB"/><path d="M130.544 224.909l-.446-.235-107.887-62.571v-36.516l.42.261 107.913 62.598v36.463zM22.788 161.79l107.179 62.154v-35.185l-107.18-62.077v35.108z" fill="#172224"/><path d="M22.367 126.213l107.888 62.494 107.468-62.364L129.73 63.772 22.367 126.213z" fill="#DBE0E6"/><path d="M130.259 189.046L21.82 126.239l.42-.261L129.76 63.38l108.517 62.963-.419.235-107.599 62.468zM22.948 126.239l107.311 62.155 106.891-62.051-107.521-62.232-106.681 62.128z" fill="#172224"/><g opacity=".5"><mask id="a" style="mask-type:luminance" maskUnits="userSpaceOnUse" x="22" y="63" width="216" height="126"><path d="M130.178 188.707L22.422 126.239l107.31-62.441 107.94 62.519-107.494 62.39z" fill="#fff"/></mask><g mask="url(#a)" fill="#172224"><path d="M106.21 68.388a1.396 1.396 0 00-1.075-.182c-.131 0-.131.182 0 .313l-23.76 13.38-19.8-11.32 4.066.73 4.589 2.609c-.341.417.157 1.174 1.232 1.773a4.18 4.18 0 003.383.6c.656-.365.184-1.225-1.049-1.93a4.978 4.978 0 00-3.12-.704l-4.878-2.817-5.533-1.07-10.202-5.79-1.573-2.895 9.23-5.216-1.992-3.626-21.924-12.467-.656.182 21.636 12.364 1.757 3.182-6.74 3.834-1.101-2.009 5.9-3.338-6.95-4.017a.916.916 0 00-.393-.391 1.445 1.445 0 00-1.101-.209c-.236.13 0 .417.315.626.219.121.459.2.708.235l6.057 3.469-5.612 3.156 1.521 2.79-1.862 1.044 1.862 3.339 32.571 18.623 24.258-13.616a.844.844 0 00.577 0c.21-.13.052-.417-.341-.652zm-33.699 6.86l.472-.26-1.416-.81a3.265 3.265 0 011.705.444c.734.417 1.023.939.63 1.174a2.638 2.638 0 01-2.046-.365c-.55-.34-.866-.73-.76-.992l1.415.809z"/><path d="M132.224 70.032a158.898 158.898 0 01-45.29-17.24 100.811 100.811 0 01-25.752-20.058l-.63.156a83.892 83.892 0 0014.03 12.52l-6.634 3.704-8.838-3-9.939-5.686c0-.13-.184-.26-.393-.391a1.42 1.42 0 00-1.102-.209c-.21 0 0 .417.341.626.209.124.44.204.682.235l10.044 5.738 9.808 3.365 6.792-3.808 2.413 1.669-7.868 4.486-8.916-3.104-19.616-11.19-.63.157 15.42 8.816-3.46-.521-7.029-3.887a1.02 1.02 0 00-.42-.39 1.42 1.42 0 00-1.101-.21c-.21.13 0 .418.34.626.219.125.46.205.709.235l7.317 4.2 4.799.6 3.252 1.903 9.755 3.417 8.208-4.59a136.469 136.469 0 005.927 3.703L73.35 58.19a.87.87 0 00-.577 0c-.21 0 0 .392.341.626a1.419 1.419 0 001.102.209c.13 0 0-.209 0-.34l11.119-6.259 1.101.626 1.574.887-14.844 8.346a.95.95 0 00-.55 0c-.21 0 0 .418.34.626a1.42 1.42 0 001.102.209v-.34l14.843-8.346a142 142 0 006.583 3.391L92.337 59.6a4.105 4.105 0 00-3.121-.47c-.656.365-.184 1.252 1.023 1.93a4.287 4.287 0 003.409.626c.524-.313.315-.939-.472-1.539l3.304-1.851 2.623 1.252-6.504 3.73-10.805-1.957-9.257 5.217a1.053 1.053 0 00-.577 0c-.183.13 0 .417.341.626a1.5 1.5 0 001.128.208v-.339l9.047-5.086 10.805 1.93 6.897-3.86 2.78 1.2-8.89 5.008-10.254-1.826-11.198 6.312a1.055 1.055 0 00-.577 0c-.21.13 0 .417.34.626a1.42 1.42 0 001.102.209c.131 0 0-.183 0-.314l11.015-6.207 10.227 1.826 9.257-5.217a157.714 157.714 0 0027.379 8.712l-5.245 2.92-6.189-1.042-4.826 2.608a3.993 3.993 0 00-3.173-.47c-.655.34-.183 1.226 1.049 1.93a4.37 4.37 0 003.409.6c.525-.313.289-.913-.445-1.512l4.668-2.609 4.825.809-12.431 7.068-6.608-1.07-4.484 2.61a3.98 3.98 0 00-2.964-.392c-.63.365-.183 1.226 1.05 1.93a4.289 4.289 0 003.408.626c.551-.34.263-1.017-.603-1.67l4.353-2.477 5.245.835-23.811 13.406h-.237L44.031 69.093c.315-.444-.184-1.174-1.259-1.774a4.209 4.209 0 00-3.383-.626c-.655.365-.183 1.252 1.05 1.93a4.82 4.82 0 003.12.73l44.32 25.327a.864.864 0 00.419.39 1.42 1.42 0 001.102.21v-.313l43.925-24.7-1.101-.235zm-39.337-8.868a2.638 2.638 0 01-2.045-.366c-.734-.417-.997-.939-.63-1.147a2.267 2.267 0 011.81.208l-.682.392.865.521.63-.339c.157.287.21.574-.053.73h.105zm22.737 15.31a2.423 2.423 0 01-2.046-.365c-.734-.417-1.022-.939-.629-1.148a2.637 2.637 0 011.81.235l-.682.391.865.522.682-.34c.131.288.184.575 0 .705zm-13.112 7.277a2.637 2.637 0 01-2.046-.365c-.734-.417-.996-.939-.63-1.148.515-.2 1.086-.2 1.6 0l-.917.522.891.495.892-.495c.446.47.551.835.21.991zm-60.16-15.65a.863.863 0 00-.419-.39 1.419 1.419 0 00-1.101-.21c-.21 0 0 .392.34.627.22.12.46.2.709.234l.681.392a3.03 3.03 0 01-1.704-.444c-.734-.417-1.023-.939-.63-1.147a2.638 2.638 0 012.046.365c.577.313.865.704.76.965l-.681-.391z"/><path d="M146.544 19.275C118.222 3.104 83.606-3.938 65.484 2.217l.446.652c17.65-6.286 52.082.652 80.142 16.693 30.211 17.267 41.776 38.654 25.727 47.6-16.05 8.947-53.682 2.296-83.919-14.97A94.985 94.985 0 0162.574 32.29l-.656.157a96.66 96.66 0 0025.49 20.005c30.84 17.632 68.997 24.465 85.282 15.31l.787-.495 4.406 8.633-27.746 15.65-21.399-12.337-26.225 14.71a.734.734 0 00-.576 0c-.21 0 0 .391.34.626a1.288 1.288 0 001.102.183v-.313l25.674-14.45 21.53 12.311 28.427-15.963-4.851-9.467c14.082-9.625 2.15-30.543-27.615-47.575z"/><path d="M117.144 70.292a1.288 1.288 0 00-1.101-.182v.313L84.521 88.028 50.06 68.414a.915.915 0 00-.419-.417 1.394 1.394 0 00-1.101-.182c-.21.13 0 .39.34.626.219.124.46.204.709.234l35.403 20.24 31.968-17.997c.186.068.39.068.577 0 .157-.13 0-.39-.394-.626z"/><path d="M111.746 69.301a1.29 1.29 0 00-1.101-.182v.313l-27.772 15.65L45.765 63.85c.315-.417-.157-1.174-1.258-1.774a4.209 4.209 0 00-3.383-.626c-.656.366-.184 1.252 1.049 1.93.926.59 2.027.848 3.12.73l38 21.701 28.217-15.884a.844.844 0 00.577 0c.236-.156.079-.391-.341-.626zm-67.606-6.39a.864.864 0 00-.42-.391 1.421 1.421 0 00-1.102-.209c-.21 0 0 .417.341.626.218.125.46.204.708.235l.682.391a3.03 3.03 0 01-1.704-.443c-.735-.418-1.023-.94-.63-1.148a2.635 2.635 0 012.046.365c.577.313.865.704.76.965l-.681-.39zm24.648 29.995c.34-.417-.157-1.148-1.233-1.774a4.263 4.263 0 00-3.409-.6c-.63.366-.157 1.227 1.05 1.93a5.03 5.03 0 003.225.783l7.867 4.512 3.068 5.921-31.679 17.71-24.021-13.719-3.095-5.712 22.894-12.885-57.904-33.099-1.783-3.312-.76.209 1.704 3.156 57.484 32.811-22.71 12.702 2.91 5.4-10.07-5.739-3.461-5.66 17.203-9.65-2.622-6.39-43.192-24.7-.603-1.07-.76.183.524.939 43.14 24.674 2.438 5.895-2.91 1.643-1.181-2.217c0-.13 0-.365-.393-.548a1.419 1.419 0 00-1.102-.209c-.21 0 0 .418.341.626.087.068.185.12.289.157l1.39 2.608-5.036 2.843-1.101-2.008c.21 0 0-.392-.341-.626a1.288 1.288 0 00-1.101-.183c-.236 0 0 .391.34.626l1.364 2.608-4.825 2.765-1.05-1.956c.21 0 0-.391-.34-.626a1.42 1.42 0 00-1.075-.287c-.21.13 0 .417.34.626l1.364 2.608-2.255 1.278 3.2 5.217-8.864-5.217-2.99-5.451 15.236-8.581-1.914-3.521-32.833-18.806c.315-.417-.157-1.173-1.233-1.773a4.286 4.286 0 00-3.409-.626c-.655.365-.183 1.252 1.05 1.956a4.952 4.952 0 003.094.704L2.65 72.536l-6.976-2.322-8.025-4.616c.341-.418-.157-1.148-1.232-1.774a4.314 4.314 0 00-3.383-.6c-.656.365-.184 1.252 1.023 1.93a4.899 4.899 0 003.068.73l8.26 4.696 9.284 3.103 5.245 3.026-16.233-5.217-6.425-3.677s-.184-.261-.393-.391a1.313 1.313 0 00-1.05-.261c-.21.13 0 .391.315.626.22.12.46.2.708.234l6.661 3.809 18.095 5.764 1.757 3.13-15.367 8.58 2.884 5.348-5.874-3.365-3.593-5.712 11.723-6.599-8.917-5.086c.341-.417-.157-1.174-1.232-1.774a4.287 4.287 0 00-3.41-.626c-.629.366-.183 1.252 1.05 1.93a4.898 4.898 0 003.12.73l8.025 4.591-11.46 6.443 3.357 5.451-22.606-13.041 4.065.73 1.206.678c-.34.417.158 1.174 1.233 1.774a4.184 4.184 0 003.383.6c.655-.34.183-1.226-1.05-1.93a4.925 4.925 0 00-3.094-.705l-1.573-.886-5.428-.966-9.573-5.477 4.668 1.07.892.495c-.34.418.157 1.174 1.206 1.774a4.314 4.314 0 003.41.626c.655-.392.183-1.252-1.05-1.957a4.926 4.926 0 00-3.199-.704l-1.206-.678-6.215-1.408-2.885-1.644-3.33-6.181-2.623-1.46-.656.182 2.335 1.33 3.33 6.182 93.202 53.13 32.36-18.258-3.435-6.338-8.234-4.669zm-1.626-.913a.836.836 0 00-.393-.417 1.394 1.394 0 00-1.102-.183c-.21 0 0 .392.341.626.209.125.44.205.682.235l.708.391a3.292 3.292 0 01-1.6-.443c-.734-.417-1.022-.94-.63-1.174a2.636 2.636 0 012.046.365c.577.34.866.73.787.992l-.839-.392zm-88.56-33.724l-1.259-.73-.472.26 1.259.73a3.26 3.26 0 01-1.705-.469c-.734-.417-1.023-.939-.63-1.148a2.638 2.638 0 012.046.366c.577.339.866.73.76.99zm7.421 6.416c0-.14-.13-.27-.393-.391a1.316 1.316 0 00-1.128-.209c-.21 0 0 .391.341.626.216.129.458.209.708.235l.682.391a3.16 3.16 0 01-1.73-.443c-.735-.418-1.023-.94-.63-1.148a2.638 2.638 0 012.045.365c.578.313.866.704.787.965l-.682-.391zm6.557 8.268a.915.915 0 00-.394-.391 1.448 1.448 0 00-1.101-.183c-.21 0 0 .418.34.626.21.124.441.205.683.235l.708.391a3.055 3.055 0 01-1.731-.443c-.735-.418-1.023-.94-.63-1.148a2.636 2.636 0 012.046.365c.577.34.865.704.787.965l-.708-.417zm-14.634 6.99s.158.261.394.391a1.42 1.42 0 001.101.21c.21-.131 0-.418-.34-.627a1.737 1.737 0 00-.709-.235l-.682-.417c.61-.01 1.211.152 1.731.47.734.417.997.939.603 1.147a2.637 2.637 0 01-2.019-.365c-.577-.34-.865-.73-.787-.965l.708.391zm-10.49-6.025c.1.168.245.303.42.391a1.42 1.42 0 001.102.209c.21-.13 0-.417-.341-.626a1.896 1.896 0 00-.709-.235l-.681-.417c.6-.003 1.19.16 1.704.47.735.417 1.023.938.63 1.147a2.635 2.635 0 01-2.02-.365c-.603-.34-.891-.73-.786-.991l.681.417zM190.051 98.07L148.092 74.1a.917.917 0 00-.393-.39 1.4 1.4 0 00-1.128-.21c-.21.131 0 .392.341.627.219.12.459.2.708.234l42.169 24.1 8.995 3 6.556 3.756-39.337 22.066-5.428-.965-39.704 22.352 1.652 3.078-18.646 10.433-16.6-2.947 11.644 21.544c-.21 0 0 .391.34.626a1.43 1.43 0 001.102.209c.21 0 0-.418-.341-.653l-11.355-21.022 16.023 2.869 19.039-10.694-1.652-3.104 39.337-22.144 5.428.965 39.914-22.43-7.71-4.33-8.995-3zm-63.7 72.718l9.677-5.451a3.816 3.816 0 002.911.365c.656-.365.184-1.226-1.023-1.93a4.263 4.263 0 00-3.409-.6c-.577.313-.288 1.017.63 1.67l-9.887 5.529 10.149 18.779 35.534 20.475.472-.261-35.167-20.266-9.887-18.31zm9.048-7.12a2.637 2.637 0 012.019.365c.761.417 1.023.939.63 1.174a2.22 2.22 0 01-1.548-.131l.367-.208c.186.07.392.07.577 0v-.313l-.839-.574a.842.842 0 00-.577 0c-.131 0 0 .182 0 .313l-.367.208c-.472-.286-.577-.652-.262-.834z"/><path d="M243.232 104.852v-7.825l6.504-3.782-.367-.652-6.923 3.912v3.991l-5.245-1.043-7.841 4.225 1.442 7.251-16.967 9.52 1.442 7.355-7.159 4.043a.736.736 0 00-.577 0l-9.1-1.617 7.028-3.964-1.442-7.251 17.124-9.625 1.731-.965-1.468-7.225 24.388-13.72-.498-.73-24.913 14.007 1.442 7.251-1.573.887-2.623-1.539 1.888-1.044-54.074-30.777c0-.13-.184-.26-.394-.391a1.426 1.426 0 00-1.101-.209c-.21 0 0 .418.341.626.208.124.44.204.681.235l53.131 30.282-1.416.808-57.694-33.02c.315-.418-.157-1.148-1.232-1.774a4.372 4.372 0 00-3.409-.6c-.63.365-.184 1.226 1.049 1.93a4.897 4.897 0 003.12.73l57.694 32.995-41.225 23.187-1.049 2.609-2.622-.47-1.233.678a2.933 2.933 0 00-1.259-1.199 4.255 4.255 0 00-3.409-.6c-.655.365-.183 1.226 1.049 1.93a5.736 5.736 0 002.124.73l-1.337.73a2.773 2.773 0 00-1.259-1.199 4.255 4.255 0 00-3.409-.6c-.629.365-.157 1.226 1.049 1.93a6.447 6.447 0 002.124.73l-1.311.73a3.006 3.006 0 00-1.285-1.199 4.215 4.215 0 00-3.383-.6c-.656.365-.184 1.226 1.023 1.93a6.636 6.636 0 002.124.73l-1.311.73a2.933 2.933 0 00-1.259-1.199 4.255 4.255 0 00-3.409-.6c-.656.365-.184 1.226 1.049 1.93.65.365 1.36.612 2.098.73l-1.312.73a2.925 2.925 0 00-1.258-1.199 4.245 4.245 0 00-1.641-.661 4.25 4.25 0 00-1.768.061c-.656.365-.184 1.226 1.049 1.93.657.37 1.377.617 2.124.73l-1.338.73a2.768 2.768 0 00-1.259-1.199 4.255 4.255 0 00-3.409-.6c-.629.365-.183 1.226 1.049 1.93a6.44 6.44 0 002.124.73l-12.614 7.016a2.607 2.607 0 00-1.258-1.199 4.235 4.235 0 00-3.383-.626c-.656.365-.184 1.252 1.022 1.93a5.902 5.902 0 002.125.73l-1.312.756a2.873 2.873 0 00-1.285-1.199 4.207 4.207 0 00-3.383-.626c-.655.365-.183 1.252 1.049 1.93a5.763 5.763 0 002.098.73l-1.311.756a2.614 2.614 0 00-1.259-1.199 4.274 4.274 0 00-3.409-.626c-.655.365-.183 1.226 1.049 1.93a5.736 5.736 0 002.124.73l-2.937 1.643h-.183l-18.856 10.616 1.6 2.921-16.312-2.921 10.831 20.083-4.983-.808.289.548 4.956.886.708 1.278.944.183-.681-1.278 12.902 2.295 42.458 24.283.472-.261-42.825-24.465-13.296-2.374-10.49-19.536 15.342 2.609 9.913 18.257 42.772 24.701.445-.261-42.431-24.257-9.886-18.258 3.094-1.747 6.137 11.372c-.21 0 0 .417.341.626a1.31 1.31 0 001.075.182c.21-.13 0-.391-.341-.626l-6.425-11.893 13.427-7.564a3.766 3.766 0 002.937.365c.656-.365.184-1.226-1.049-1.93l-.813-.365-.997-1.904 5.245.913L174 136.125l1.022-2.609 2.623.47 7.159-4.225a.74.74 0 00.551 0v-.313l5.061-2.843a.853.853 0 00.577 0v-.313l12.116-6.808 1.259 6.338-28.087 15.858h-7.316l-20.98 11.737 3.331 6.182-22.58 12.806 8.471 15.65 7.447 4.304 8.995 2.999 20.98 12.181.472-.261-21.084-12.311-8.995-3-6.819-3.886-8.313-15.284 22.606-12.702-3.331-6.182 20.586-11.555h7.317l5.612-3.156 8.313 1.487c.298.319.643.592 1.023.809a4.279 4.279 0 003.409.6c.629-.366.184-1.226-1.049-1.93a4.215 4.215 0 00-3.383-.6.47.47 0 00-.288.573l-7.369-1.304 6.87-3.86 8.314 1.461c.293.341.649.624 1.049.834a4.29 4.29 0 003.383.6c.655-.365.183-1.226-1.049-1.93a4.219 4.219 0 00-3.383-.626.548.548 0 00-.289.6l-7.343-1.33 6.845-3.86 10.096 1.799a1.293 1.293 0 001.102.183c.131 0 .131-.183 0-.313l3.252-1.826 4.484 2.608c-.341.418.157 1.174 1.232 1.774a4.219 4.219 0 003.383.626c.656-.365.184-1.252-1.049-1.93a4.816 4.816 0 00-3.094-.73l-4.511-2.609 3.619-2.034-1.442-7.225 1.705-.965 8.313 1.487c.298.319.643.591 1.023.808a4.255 4.255 0 003.409.6c.655-.365.183-1.226-1.049-1.93a4.204 4.204 0 00-3.383-.6.526.526 0 00-.289.574l-7.369-1.33 6.871-3.86 8.339 1.486c.286.333.633.607 1.023.809a4.299 4.299 0 003.409.626c.63-.391.158-1.252-1.049-1.956a4.366 4.366 0 00-3.409-.6.522.522 0 00-.288.574l-7.343-1.305 7.107-3.964-1.443-7.225 7.369-4.147 4.511.913v3.808l25.044 14.293-.603-.861-23.471-13.432zm-85.937-31.899c0-.13-.184-.26-.394-.391a1.368 1.368 0 00-1.127-.209c-.21 0 0 .391.341.626.219.12.459.2.708.235l.708.391a3.054 3.054 0 01-1.731-.443c-.734-.418-1.023-.94-.629-1.148a2.632 2.632 0 012.045.365c.577.313.865.704.787.965l-.708-.391zm-25.491 85.707l-13.558 7.616-3.12 1.748-1.233-2.322 18.174-10.224.734 1.382a2.48 2.48 0 00-1.547 0c-.656.444-.367 1.148.55 1.8zm2.308 0c.131 0 0-.183 0-.313l-.21-.365c.709.417.997.913.604 1.147a2.206 2.206 0 01-1.548 0l.368-.208a.841.841 0 00.786-.261zm-1.101-1.2l.21.365a.74.74 0 00-.551 0v.313l-.367.209c-.42-.339-.525-.704-.21-.887.299-.091.619-.091.918 0zm33.934-24.517c-.734-.418-1.022-.939-.629-1.174a2.64 2.64 0 012.045.365c.735.417 1.023.939.63 1.174a2.634 2.634 0 01-2.046-.365zm-2.832 1.591c-.734-.418-1.023-.939-.629-1.174a2.639 2.639 0 012.045.365c.734.417 1.023.939.63 1.174a2.634 2.634 0 01-2.046-.365zm-2.832 1.591c-.734-.418-.997-.939-.63-1.174a2.639 2.639 0 012.046.365c.734.417 1.023.939.629 1.174a2.63 2.63 0 01-2.045-.365zm-2.806 1.591c-.734-.418-1.023-.939-.63-1.174a2.639 2.639 0 012.046.365c.708.418.996.939.603 1.174a2.637 2.637 0 01-2.019-.365zm-2.832 1.591c-.735-.418-1.023-.939-.63-1.174a2.634 2.634 0 012.046.365c.734.418.996.939.629 1.174a2.634 2.634 0 01-2.045-.365zm-2.833 1.591c-.734-.418-1.022-.965-.629-1.174a2.634 2.634 0 012.045.365c.735.418 1.023.939.63 1.174a2.639 2.639 0 01-2.046-.365zm-14.135 7.825c-.734-.418-1.022-.939-.629-1.148a2.64 2.64 0 012.045.365c.735.417 1.023.939.63 1.148a2.637 2.637 0 01-2.046-.261v-.104zm-2.832 1.591c-.734-.418-.996-.939-.603-1.148a2.48 2.48 0 012.019.365c.734.417 1.023.939.63 1.148a2.64 2.64 0 01-2.046-.261v-.104zm-2.806 1.591c-.734-.418-1.023-.939-.629-1.148a2.42 2.42 0 012.045.365c.708.417.997.939.603 1.148a2.478 2.478 0 01-2.019-.261v-.104zm39.835-16.458l-35.665 20.057-4.091-.73 38.917-21.857 1.731.313-.892 2.217zm3.881-2.191l-1.757-.313.918-2.217 3.645-2.061 4.065.73-6.871 3.861zm7.868-4.356a.842.842 0 00-.577 0l-3.672-.652 4.983-2.817 4.091.73-4.825 2.739zm18.357-10.433l-12.824 7.199a.808.808 0 00-.577 0l-3.671-.652 31.207-17.58 2.622 1.539-16.757 9.494zm-11.119 21.361a2.642 2.642 0 012.045.34c.734.443 1.023.938.629 1.173a2.629 2.629 0 01-2.045-.365c-.813-.261-1.023-.782-.629-.991v-.157zm7.683-4.095a2.652 2.652 0 012.046.366c.708.417.996.939.603 1.147a2.48 2.48 0 01-2.019-.365 1.909 1.909 0 01-.499-.365l.735.156a1.302 1.302 0 001.101.209c.21-.13 0-.391-.341-.626a1.422 1.422 0 00-1.101-.209l-.761-.156a.317.317 0 01.236-.157zm18.934-1.721a.863.863 0 00.42.391 1.42 1.42 0 001.101.209c.21 0 0-.417-.34-.626-.22-.121-.46-.2-.709-.235l-.681-.391a3.03 3.03 0 011.704.443c.761.418 1.023.939.63 1.148a2.48 2.48 0 01-2.02-.365c-.603-.313-.865-.704-.786-.965l.681.391zm7.448-13.041a2.637 2.637 0 012.019.365c.735.417 1.023.939.63 1.174a2.642 2.642 0 01-2.019-.365c-.787-.522-1.181-1.018-.787-1.252l.157.078zm7.395-4.252a2.634 2.634 0 012.046.366c.734.417.997.938.603 1.147a2.637 2.637 0 01-2.019-.365c-.734-.469-1.023-.991-.63-1.148z"/><path d="M259.023 131.404l-.21 4.147-30.84 17.345a3.728 3.728 0 00-2.911-.366c-.656.366-.184 1.226 1.023 1.931a4.272 4.272 0 003.409.599c.577-.313.288-1.017-.629-1.669l30.997-17.397.21-4.147 11.512-6.468-.472-.731-12.089 6.756zm-30.421 23.161a2.63 2.63 0 01-2.045-.365c-.735-.444-.997-.939-.63-1.174a2.29 2.29 0 011.574 0l-.394.209a.971.971 0 00-.55 0c-.21.13 0 .417.341.652a1.404 1.404 0 001.101.182v-.313l.367-.208c.42.469.551.834.236 1.017zm-26.855-50.887a4.299 4.299 0 00-3.41-.626c-.367.209-.34.6 0 1.017h-5.402l-28.27 15.963-4.668-.704a1.407 1.407 0 00-1.101-.209v.339l-4.196 2.347a3.88 3.88 0 00-2.937-.365c-.656.365-.184 1.226 1.049 1.93.444.259.92.461 1.416.6l.891 1.617-10.647 5.843-1.154-2.139c.323.026.648-.028.945-.156.629-.366.183-1.226-1.049-1.931a4.272 4.272 0 00-3.41-.599c-.629.339-.183 1.225 1.049 1.93.483.255.993.457 1.521.6l1.443 2.608-4.983 2.817-1.259-2.191c.332.038.668-.017.971-.157.655-.365.183-1.226-1.049-1.93a4.187 4.187 0 00-3.383-.521c-.656.365-.184 1.225 1.049 1.93.45.284.935.512 1.442.678l1.442 2.608-1.678.965-4.72-.965-2.439-4.512c.305.01.608-.043.891-.157.656-.365.184-1.226-1.049-1.93a4.087 4.087 0 00-3.383-.6c-.655.365-.183 1.226 1.023 1.904a6.396 6.396 0 001.547.626l2.439 4.669-5.245-.913-17.15 9.651 1.599 2.921-8.103-1.435a3.216 3.216 0 00-.997-.782 4.254 4.254 0 00-3.409-.6c-.63.365-.183 1.226 1.05 1.93a4.375 4.375 0 003.408.6.524.524 0 00.263-.6l8.077 1.435 1.442 2.608-9.205 5.216-16.311-2.921-3.646 2.035-14.03-8.112-1.888 1.069-2.622-1.539 5.664-3.156-4.458-2.608-7.526 4.252-2.623-1.513 5.586-3.13-4.432-2.608-3.776 2.138-2.623-1.538 1.888-1.044-25.647-14.397-10.857-1.93-13.584-7.825 2.36-1.33a3.881 3.881 0 002.937.365c.656-.365.184-1.226-1.049-1.93a4.18 4.18 0 00-3.383-.6c-.577.313-.288 1.017.63 1.643L.63 111.503l-6.215-3.574.498-.26a3.881 3.881 0 002.937.365c.63-.365.158-1.226-1.049-1.93a4.254 4.254 0 00-3.41-.6c-.576.313-.261 1.017.63 1.643l-.498.287-6.241-3.573-5.062-9.364-12.325-7.042c.34-.418 0-1.174-1.206-1.8a4.367 4.367 0 00-3.41-.6c-.655.365-.183 1.226 1.05 1.93.917.564 1.993.82 3.068.73l11.984 6.834 4.642 8.607-2.465-1.408-3.41-6.234-24.729-14.136-.97-1.774a1.97 1.97 0 001.022-.157c.656-.365.184-1.225-1.049-1.93a4.288 4.288 0 00-3.383-.6c-.655.366-.183 1.226 1.023 1.93.447.255.922.456 1.416.6l.682 1.226-5.822-3.338-3.645-6.364-10.018-5.634-.655.156 5.9 3.365-4.3-.757-3.62-2.086-.655.183 4.17 2.373 5.664 1.017 2.623 1.565 1.52 2.608-4.825-.808-9.755-5.582s-.158-.26-.394-.391a1.422 1.422 0 00-1.101-.209c-.21.13 0 .392.34.626.21.125.442.205.683.235l10.122 5.79 5.245.887 1.81 3.156 31.836 18.258 3.016 5.347-27.85-15.91-3.41 1.93-1.1-2.035c.209-.13 0-.417-.342-.652a1.397 1.397 0 00-1.101-.183c-.21 0 0 .392.34.627l1.39 2.608-3.12 1.747-2.78-5.216c.21-.13 0-.418-.34-.626a1.314 1.314 0 00-1.102-.209c-.21.13 0 .391.34.626l3.095 5.738-3.094 1.748-2.833-5.217c.21-.13 0-.417-.34-.626a1.315 1.315 0 00-1.102-.208c-.21.13 0 .39.34.626l3.122 5.764-.84.47.892.521 12.01-6.755 60.527 34.507 10.857 1.93 24.205 13.85-1.862 1.069 4.432 2.608 3.803-2.217 2.622 1.513-5.638 3.182 4.432 2.608 7.526-4.251 2.623 1.513-5.586 3.26 4.458 2.608 1.862-1.069 13.322 7.616-3.619 2.034 5.114 9.155-10.49-1.878-10.28-5.868-2.622-4.721c.349.039.702-.015 1.022-.157.656-.365.184-1.252-1.049-1.93a4.23 4.23 0 00-3.383-.6c-.655.366-.183 1.226 1.023 1.931a8.12 8.12 0 001.416.573l2.282 4.2-9.415-5.373-.865-1.644c.34.04.685-.014.996-.156.656-.365.184-1.226-1.022-1.93a4.254 4.254 0 00-3.41-.6c-.655.365-.183 1.226 1.05 1.904.444.259.92.461 1.416.6l.576 1.095-19.878-11.606-3.356-6.182-29.949-17.136c.341-.417-.157-1.174-1.232-1.774a4.278 4.278 0 00-3.41-.6c-.629.366-.157 1.226 1.05 1.93a5.03 5.03 0 003.12.705l29.581 16.927 3.357 6.182 42.982 24.569 10.805 1.931 6.057 10.824.97.182-11.38-20.318 7.263-4.121 16.312 2.921 9.624-5.425-3.33-6.181 16.731-9.416 10.857 1.93 19.039-10.694-.996-1.878a1.74 1.74 0 001.022-.156c.551-.313.263-1.018-.629-1.643l4.196-2.374c.188.054.388.054.577 0l5.035.913 28.296-15.91h5.245l.525.339a4.272 4.272 0 003.409.6c.76-.47.288-1.357-.944-2.061zM153.52 122.77l.21.418-.63-.287c-.734-.418-1.023-.939-.629-1.148a1.946 1.946 0 011.547.131l-.367.208a.75.75 0 00-.577 0c-.105.183.052.444.446.678zm-12.273 5.478c-.735-.418-1.023-.939-.63-1.148a2.634 2.634 0 012.046.365c.734.418 1.023.939.629 1.148-.347.094-.71.111-1.064.048a2.438 2.438 0 01-.981-.413zm-5.612 3.182c-.735-.418-1.023-.939-.63-1.174a2.634 2.634 0 012.046.365c.734.418.996.939.603 1.174a2.637 2.637 0 01-2.019-.365zm-6.897-1.904c.157 0 0-.391-.367-.6a1.418 1.418 0 00-1.102-.209c-.21 0 0 .418.341.626h.236l.21.391a3.366 3.366 0 01-.787-.339c-.708-.417-.996-.939-.603-1.147.344-.078.7-.085 1.047-.022.347.062.678.194.972.387.734.417 1.023.939.63 1.148a1.083 1.083 0 01-.341 0l-.236-.235zm-27.72 16.223a2.42 2.42 0 01-2.045-.365c-.734-.417-1.023-.939-.63-1.148a2.632 2.632 0 012.046.365c.166.101.324.214.472.34l-1.311-.235.315.547 1.311.235a.284.284 0 01-.158.261zM3.28 109.103a2.637 2.637 0 012.019.365c.734.418 1.023.939.63 1.148a2.082 2.082 0 01-1.548-.13l.367-.209c.187.066.39.066.577 0 .21 0 0-.391-.34-.626a1.293 1.293 0 00-1.102-.183v.313l-.394.209c-.42-.365-.629-.704-.21-.887zm-34.302-22.066l-.682-.39s-.157-.288-.42-.418a1.314 1.314 0 00-1.1-.209c-.21.13 0 .391.34.626.2.124.423.204.656.235l.708.417a3.344 3.344 0 01-1.679-.47c-.734-.417-1.022-.938-.629-1.147a2.638 2.638 0 012.046.365c.55.34.865.73.76.991zm-14.843-7.824l-.21-.418c.21 0 0-.39-.34-.626a1.396 1.396 0 00-1.102-.182c-.21 0 0 .391.34.626l.237.443-.656-.287c-.734-.417-.996-.939-.63-1.173a2.636 2.636 0 012.046.365c.735.443 1.023.965.63 1.173a1.05 1.05 0 01-.315 0v.079zm40.15 26.891a2.632 2.632 0 012.045.365c.734.417.997.939.63 1.147a2.028 2.028 0 01-1.574-.13l.393-.209a.79.79 0 00.551 0c.21-.13 0-.391-.34-.626a1.421 1.421 0 00-.997-.208v.339l-.367.209c-.525-.366-.656-.705-.341-.887zm65.56 46.035c.21 0 0-.391-.34-.626a1.43 1.43 0 00-1.101-.208c-.21 0 0 .417.34.626l.236.417a2.642 2.642 0 01-.629-.287c-.76-.417-1.023-.939-.63-1.148a2.633 2.633 0 012.02.366c.734.417 1.023.939.63 1.147a.77.77 0 01-.446 0l-.08-.287zM-4.01 115.363a.917.917 0 00-.42-.417 1.293 1.293 0 00-1.1-.183c-.21 0 0 .391.34.626.216.129.458.209.708.235l.682.391a3.341 3.341 0 01-1.73-.443c-.735-.444-.997-.939-.604-1.174a2.637 2.637 0 012.02.365c.576.339.865.73.786.991l-.682-.391zm54.81 33.751c.21-.131 0-.392-.341-.626a1.415 1.415 0 00-1.102-.209c-.21 0 0 .417.341.626l.236.417a2.217 2.217 0 01-.63-.287c-.734-.417-1.022-.939-.629-1.147a2.632 2.632 0 012.046.365c.734.417.996.939.603 1.148a.714.714 0 01-.42 0l-.105-.287zm104.452-25.796a1.048 1.048 0 01-.446 0l-.236-.417v-.339l.367-.209c.498.417.629.783.315.965zm46.653-18.258a2.634 2.634 0 01-2.046-.365c-.734-.417-.996-.939-.629-1.147a2.634 2.634 0 012.046.365c.734.469 1.022.991.629 1.2v-.053z"/><path d="M165.241 88.028c-.22-.12-.46-.2-.708-.234l-6.373-3.652-1.652-3.078-5.245-2.92c.341-.418-.131-1.148-1.206-1.774a4.258 4.258 0 00-3.41-.6c-.655.365-.183 1.226 1.049 1.93a4.955 4.955 0 003.095.704l4.747 2.608 1.678 3.078 6.845 3.938-29.555 16.745-13.795-7.824-.445.26 14.633 8.373 30.106-16.927c.188.053.388.053.577 0 .209-.157.052-.418-.341-.627zm-15.525-10.85a1.023 1.023 0 00-.42-.391 1.426 1.426 0 00-1.101-.209c-.21.13 0 .418.341.652.219.121.459.2.708.235l.682.391a3.08 3.08 0 01-1.705-.47c-.734-.416-1.023-.912-.629-1.147a2.632 2.632 0 012.045.365c.551.34.865.73.761.992l-.682-.418zm4.723 113.772l-14.24-8.138-4.851-9.024 26.224-14.841-3.199-6.182 10.07-5.66a3.732 3.732 0 002.911.366c.655-.366.183-1.226-1.049-1.931a4.18 4.18 0 00-3.383-.599c-.577.313-.289 1.017.629 1.669l-10.254 5.764 3.331 6.077-26.382 14.919 5.245 9.494 14.187 8.138 1.679 3.078 21.504 12.285.472-.261-21.137-12.076-1.757-3.078zm13.374-45.54a2.648 2.648 0 012.046.391c.734.418.996.913.629 1.148a2.29 2.29 0 01-1.573-.131l.367-.208c.189.053.388.053.577 0 .21 0 0-.418-.341-.652a1.386 1.386 0 00-1.101-.183v.313l-.368.209c-.445-.313-.55-.678-.236-.887z"/><path d="M167.917 162.494l-4.091 2.295 7.107 4.095-1.416.809-3.566-2.035-2.334 1.226 7.08 4.121-1.416.809-10.647-6.103-2.334 1.33 7.081 4.069-1.417.782-3.54-2.034-4.248 2.399 11.276 6.495h7.317l3.094 1.773 2.702 4.617a1.997 1.997 0 00-1.023.13c-.656.392-.184 1.252 1.049 1.93a4.207 4.207 0 003.383.626c.655-.365.183-1.225-1.049-1.93a6.132 6.132 0 00-1.416-.6l-2.256-4.173 9.048 5.217a.784.784 0 00.393.391 1.286 1.286 0 001.102.183c.209 0 0-.392-.341-.626a1.875 1.875 0 00-.708-.235l-13.952-7.981h-7.316l-9.94-5.686 3.305-1.852 3.54 2.034 2.36-1.33-7.159-3.965 1.39-.782 10.673 6.077 2.334-1.33-7.08-4.043 1.389-.808 3.567 2.034 2.36-1.304-7.028-4.069 3.435-1.93 10.49 1.852 35.351 20.214.472-.287-35.744-20.397-11.277-2.008zm11.146 25.665c-.21 0 0 .417.341.626a1.309 1.309 0 001.101.209c.21-.131 0-.391-.341-.626l-.236-.417c.228.073.448.169.656.286.734.418.996.939.603 1.148a2.645 2.645 0 01-2.046-.365c-.734-.417-.996-.939-.603-1.148h.42l.105.287zm11.304-25.822l-17.649-10.093-.472.26 17.859 10.225 8.995 2.999 24.756 14.137.472-.261-24.966-14.267-8.995-3z"/><path d="M172.611 171.962l3.541 2.008-10.175 5.738h8.785l16.915 9.573s.183.261.393.391a1.48 1.48 0 001.128.209c.183 0 0-.418-.341-.626a2.047 2.047 0 00-.708-.235l-9.022-5.217 1.915.339c.298.32.643.592 1.023.809a4.263 4.263 0 003.409.6c.629-.365.183-1.226-1.049-1.93a4.245 4.245 0 00-1.641-.661 4.25 4.25 0 00-1.768.061.494.494 0 00-.263.574l-2.884-.522-7.212-4.095h-5.822l8.654-4.851-3.566-2.035 7.08-3.964 31.47 17.997.472-.261-32.414-18.519-7.92 4.617zm13.322 11.607a2.634 2.634 0 012.046.365c.734.417 1.023.939.629 1.174a2.647 2.647 0 01-2.045-.366 2.581 2.581 0 01-.498-.365l.76.131a1.282 1.282 0 001.101.182c.236 0 0-.391-.314-.626a1.396 1.396 0 00-1.102-.182l-.734-.131a.309.309 0 01.157-.182zm11.38-81.404a1.45 1.45 0 00-1.128-.182h-6.818l-9.362 5.216-10.49-1.878-10.91-6.233-18.986 10.693-5.035-.913-14.266-7.798-11.251-2.009-47.204 26.605 3.462 6.39 31.47 18.049a.724.724 0 00.393.417 1.387 1.387 0 001.101.183c.21 0 0-.392-.34-.626a1.745 1.745 0 00-.683-.235l-6.372-3.625-.892-1.644c.349.04.702-.014 1.023-.156.655-.365.183-1.226-1.05-1.93a4.21 4.21 0 00-3.383-.6c-.655.365-.183 1.226 1.024 1.93.45.242.924.434 1.416.574l.603 1.095-9.388-5.373-.892-1.643c.335.087.688.087 1.023 0 .63-.391.157-1.252-1.05-1.956a4.358 4.358 0 00-3.408-.6c-.63.365-.184 1.226 1.049 1.93.444.259.92.461 1.416.6l.603 1.095-5.848-3.338-3.226-5.973 7.343-4.121 16.312 2.921 26.382-14.841 5.035.887 17.177 9.833c-.341.417.157 1.148 1.232 1.774a4.204 4.204 0 003.383.6c.656-.366.184-1.226-1.023-1.93a4.686 4.686 0 00-3.094-.809l-17.544-10.172-5.848-1.043-26.225 14.84-16.311-2.921-7.737 4.356 3.042 5.634-5.979-3.339-3.225-5.947 46.915-26.395 10.49 1.878 14.214 8.112 5.848 1.043 18.698-10.433 10.49 5.947 11.276 2.008 9.467-5.216h6.478a1.264 1.264 0 001.049.156c.104-.365-.053-.652-.446-.887zM89.399 143.141l-.97-.183.42.783-.656-.287c-.735-.444-.997-.939-.603-1.174a2.637 2.637 0 012.019.365c.734.418 1.023.939.63 1.148a.77.77 0 01-.447 0l-.393-.652zm-10.752-6.104l-.944-.156.42.756a2.908 2.908 0 01-.656-.287c-.734-.417-1.023-.938-.63-1.147a2.422 2.422 0 012.046.365c.734.417 1.023.939.63 1.148-.147.032-.3.032-.447 0l-.419-.679zm64.617-12.024a2.634 2.634 0 012.046.366c.734.417 1.022.939.629 1.147a2.624 2.624 0 01-2.046-.339c-.734-.443-1.022-.939-.629-1.174zm80.223 39.176l-31.811-18.127 1.548-.861 13.767 2.452c.293.325.638.599 1.023.808a4.31 4.31 0 003.383.6c.656-.365.184-1.226-1.023-1.93a4.279 4.279 0 00-3.409-.6.502.502 0 00-.235.24.5.5 0 00-.027.334l-14.161-2.608-2.229 1.252 17.124 9.781-7.343-1.304a3.763 3.763 0 00-1.022-.809 4.299 4.299 0 00-3.41-.626c-.655.391-.183 1.252 1.049 1.93a4.235 4.235 0 003.383.626.524.524 0 00.289-.574l8.313 1.487 9.415 5.373-7.37-1.33a4.352 4.352 0 00-1.022-.809 4.277 4.277 0 00-3.409-.6c-.63.366-.184 1.226 1.049 1.931a4.272 4.272 0 003.409.599.488.488 0 00.234-.24.49.49 0 00.028-.333l8.339 1.486 3.173 1.826 3.226 6.025-7.212 4.043-20.324-11.659 1.364-.756a.853.853 0 00.577 0c.21 0 0-.392-.341-.626a1.45 1.45 0 00-1.128-.183v.313l-1.363.756-6.215-3.625 1.363-.756c.189.053.389.053.577 0 .21 0 0-.418-.341-.626a1.407 1.407 0 00-1.101-.209v.339l-1.364.756-6.215-3.547 1.364-.782c.186.065.39.065.577 0 .209 0 0-.391-.341-.626a1.293 1.293 0 00-1.102-.183v.313l-1.363.757-4.459-2.609c.263-.365 0-.965-.813-1.512l11.933-6.704 10.07 1.8a1.44 1.44 0 001.127.183c.21 0 0-.392-.34-.626a1.299 1.299 0 00-1.102-.183l-10.49-1.878-12.115 6.834a3.766 3.766 0 00-2.938-.365c-.655.365-.183 1.225 1.049 1.93a4.959 4.959 0 003.095.704l47.571 27.36.472-.26-6.661-3.808 7.395-4.174-3.487-6.39zm-15.525-17.162a2.639 2.639 0 012.045.365c.734.417.997.939.603 1.148a2.45 2.45 0 01-2.019-.339c-.734-.444-1.023-.939-.629-1.174zm-8.628 7.825a2.634 2.634 0 01-2.046-.366c-.734-.417-1.022-.938-.629-1.147a2.64 2.64 0 012.045.365c.181.1.349.223.499.365l-.761-.13a1.407 1.407 0 00-1.101-.209c-.21.131 0 .417.341.626a1.431 1.431 0 001.101.209h.761a.282.282 0 01.011.112.262.262 0 01-.116.186.271.271 0 01-.105.041v-.052zm10.699 6.207a2.629 2.629 0 01-2.045-.365c-.734-.417-1.023-.939-.629-1.174a2.629 2.629 0 012.045.366c.629.365.97.886.629 1.173zm-34.485-10.433c-.76-.417-1.023-.939-.629-1.147a2.079 2.079 0 011.547 0l-.367.208a.853.853 0 00-.577 0c-.21 0 0 .392.341.626.218.125.459.204.708.235l.682.391a3.03 3.03 0 01-1.705-.313zm1.495-.208l.367-.209c.289.261.446.496.367.704l-.734-.495z"/><path d="M169.438 109.781a4.37 4.37 0 00-3.409-.6c-.551.339-.262 1.044.629 1.67l-18.567 10.433h-6.975l-12.85-7.173 9.913 1.774 9.414-5.217 10.857 1.93 3.672-2.06a3.761 3.761 0 002.937.365c.629-.365.157-1.226-1.049-1.93a4.362 4.362 0 00-3.409-.6c-.577.313-.289 1.017.629 1.669l-3.462 1.93-10.857-1.93-9.44 5.217-10.49-1.852-5.848-3.365 1.914.365a4.904 4.904 0 004.432 1.409c.656-.365.184-1.226-1.049-1.93a4.215 4.215 0 00-3.383-.6.47.47 0 00-.288.574l-2.885-.522-3.54-2.035-5.822-1.017-7.736 4.252 1.678 3.077-16.784 9.442-10.857-1.956-11.512 6.469 1.547 2.869c-.21 0 0 .391.34.626a1.404 1.404 0 001.102.182c.21 0 0-.391-.34-.626l-1.417-2.608 11.093-6.234 10.883 1.93 17.02-9.598-1.652-3.104 7.317-4.121 5.035.887 24.965 14.163h7.658l18.698-10.433a4.004 4.004 0 002.937.365c.656-.365.21-1.382-1.049-2.087zm-7.867-1.069a2.64 2.64 0 012.045.365c.735.443.997.939.63 1.174a2.634 2.634 0 01-2.046-.365c-.813-.418-1.101-.991-.708-1.174h.079zm-37.527.991a2.637 2.637 0 012.019.365c.734.418 1.023.939.629 1.148-.346.094-.71.111-1.064.048a2.438 2.438 0 01-.981-.413 2.482 2.482 0 01-.498-.365l.76.156a1.43 1.43 0 001.101.209c.21 0 0-.392-.34-.626a1.418 1.418 0 00-1.102-.209l-.76-.13a.26.26 0 01.157-.183h.079zm45.63 1.513a2.63 2.63 0 01-2.045-.365c-.735-.418-1.023-.939-.63-1.148a2.634 2.634 0 012.046.365c.655.418.944.939.551 1.148h.078zM152.838 85.42c.341-.417-.157-1.148-1.233-1.773a4.358 4.358 0 00-3.409-.6c-.655.365-.183 1.225 1.049 1.93a4.9 4.9 0 003.121.73l4.484 2.608-8.89 4.93a.844.844 0 00-.577 0l-5.035-.887-9.283 5.217-2.806-1.722 1.626-4.069a3.162 3.162 0 002.124 0c.655-.365.183-1.252-1.049-1.93a4.214 4.214 0 00-3.383-.626c-.656.365-.184 1.252 1.049 1.93l.262.157-1.757 4.538 3.435 1.956-2.386 1.33a3.818 3.818 0 00-2.911-.365c-.656.366-.184 1.226 1.023 1.931a4.272 4.272 0 003.409.599c.577-.313.288-1.017-.629-1.643l11.932-6.73 4.641.836a1.29 1.29 0 001.102.182v-.313l9.362-5.216-5.271-3zm-1.075-.339a2.634 2.634 0 01-2.046-.443c-.734-.418-1.023-.94-.629-1.148a2.633 2.633 0 012.045.365c.735.417 1.023.94.63 1.148v.078zm-21.295 4.93a2.457 2.457 0 012.02.365c.76.417 1.022.939.655 1.147a1.635 1.635 0 01-1.075 0v-.339a.607.607 0 00.315 0c.21-.13 0-.39-.341-.626a1.424 1.424 0 00-1.102-.208c-.157 0 0 .287 0 .47v.338c-.576-.521-.865-1.017-.472-1.226v.079zm.341 10.876a2.637 2.637 0 01-2.019-.365c-.76-.417-1.023-.939-.629-1.148a2.475 2.475 0 012.019.366c.76.339 1.023.86.629 1.069v.078zm135.316 34.586l-.236 4.147-32.072 18.023 3.356 6.181-8.785 5.06-3.042-5.634-3.54-2.191-1.285-2.608c.21 0 0-.417-.341-.626a1.326 1.326 0 00-1.101-.208c-.21 0 0 .391.34.626l1.154 2.086-9.414-5.373-1.416-2.608c.209 0 0-.391-.341-.626a1.293 1.293 0 00-1.102-.183c-.21 0 0 .392.341.626l1.128 2.087-12.063-6.886 3.671.652a1.42 1.42 0 001.101.209c.21-.131 0-.417-.34-.626a1.431 1.431 0 00-1.102-.209l-5.927-1.069 29.293 16.745 4.878 9.05-5.796 3.261 4.013 2.269.472-.261-3.121-1.774 5.533-3.103-1.678-3.078 9.415-5.217-3.331-6.155 31.994-17.997.21-4.147 8.601-4.721-.472-.73-8.995 5.008z"/><path d="M274.833 146.662l-10.883-1.93-24.677 13.876 3.33 6.181-9.572 5.373 4.013 2.296.472-.261-3.095-1.774 9.257-5.216-3.33-6.182 24.31-13.667 10.857 1.93 7.92-4.434-.499-.756-8.103 4.564zm-151.34-31.116a4.215 4.215 0 00-3.383-.6c-.577.313-.289 1.017.603 1.643l-15.105 8.503 10.935 6.234 1.548 2.869-11.932 6.703a3.866 3.866 0 00-2.938-.365c-.655.365-.183 1.226 1.049 1.93a4.098 4.098 0 001.625.673 4.107 4.107 0 001.758-.073c.577-.313.289-1.018-.629-1.644l12.142-6.833-1.783-3.313-10.49-5.946 14.633-8.216a3.88 3.88 0 002.937.365c.656-.365.184-1.226-.97-1.93zm-16.81 27.021a2.637 2.637 0 01-2.019-.365c-.735-.417-1.023-.939-.63-1.148a2.084 2.084 0 011.548.131l-.368.208a.875.875 0 00-.576 0c-.21 0 0 .392.34.626a1.42 1.42 0 001.102.209v-.339l.367-.209c.446.365.551.705.236.887zm16.81-25.613a2.639 2.639 0 01-2.046-.365c-.734-.417-.996-.939-.603-1.148a2.654 2.654 0 012.02.365c.812.418 1.101.913.629 1.148zm20.036 29.134a1.398 1.398 0 00-1.101-.182c-.21.13 0 .391.341.626a1.449 1.449 0 001.101.208c.21-.13.052-.417-.341-.652zm1.887-1.043a1.42 1.42 0 00-1.102-.209c-.209 0 0 .418.341.626a1.42 1.42 0 001.102.209c.21-.131.052-.261-.341-.626zm1.89-1.07a1.408 1.408 0 00-1.101-.182c-.21 0 0 .391.341.626a1.398 1.398 0 001.101.182c.21-.104.053-.391-.341-.626zm1.887-1.043a1.326 1.326 0 00-1.101-.209c-.21.131 0 .392.341.626a1.407 1.407 0 001.101.209c.184-.13.184-.417-.341-.626zm1.812-1.017a1.468 1.468 0 00-1.128-.209c-.21.131 0 .418.341.626a1.491 1.491 0 001.127.209c.21-.131.053-.391-.34-.626zM-10.57 53.887l-1.232-2.374-.76.183 1.153 2.217 67.03 38.34-23.785 13.381a.878.878 0 00-.577 0c-.21.131 0 .391.34.626a1.416 1.416 0 001.102.209v-.339l24.258-13.641-67.528-38.602z"/><path d="M59.191 87.48l-65.43-37.375-.656.156 65.247 37.272 3.068 5.712-29.712 16.771a1.047 1.047 0 00-.577 0c-.21.13 0 .417.34.626a1.325 1.325 0 001.101.209l.001-.313 30.001-16.876-3.383-6.181zm-18.464 26.918l2.884 1.669.498-.261-2.91-1.669-.472.261zm2.73-1.539l2.911 1.669.472-.287-2.885-1.643-.498.261zm2.753-1.539l2.886 1.669.472-.26-2.885-1.67-.472.261zm2.728-1.513l2.884 1.644.472-.261-2.884-1.669-.472.286zm2.726-1.538l2.885 1.643.472-.261-2.885-1.643-.472.261zm2.726-1.539l2.885 1.643.472-.261-2.884-1.643-.472.261zm2.727-1.539l2.885 1.643.472-.261-2.885-1.643-.472.261zm2.727-1.539l2.884 1.643.472-.261-2.884-1.643-.472.261zm2.73-1.539l2.911 1.643.472-.261-2.91-1.643-.473.261zm2.754-1.539l2.885 1.669.472-.26-2.885-1.67-.472.261zm2.727-1.539l2.884 1.67.472-.261-2.884-1.67-.472.261zm2.726-1.513l2.885 1.644.472-.261-2.885-1.67-.472.287zm179.504 13.485c.21-.443-.288-1.095-1.258-1.669a4.261 4.261 0 00-3.41-.6c-.655.365-.183 1.226 1.049 1.93a4.582 4.582 0 003.252.652l15.368 8.79 1.442 2.921-11.276 6.338-.21 4.148-27.038 15.206a4.07 4.07 0 00-3.12-.444c-.63.365-.158 1.226 1.049 1.93a4.255 4.255 0 003.409.6c.524-.287.288-.939-.498-1.539l27.194-15.31.21-4.199 11.277-6.312-1.652-3.391-15.788-9.051zm-2.098-1.199l-.472.26 1.312.757a2.896 2.896 0 01-1.889-.418c-.734-.417-1.022-.939-.629-1.173a2.634 2.634 0 012.046.365c.472.287.76.6.786.861l-1.154-.652zm-19.537 40.506a2.63 2.63 0 01-2.045-.366c-.735-.417-.997-.938-.63-1.173a2.367 2.367 0 011.757.235l-.341.182a.948.948 0 00-.786 0c-.21 0 0 .391.314.626a1.343 1.343 0 001.128.183.156.156 0 000-.157l.42-.235c.393.235.445.548.183.705zm-39.334 16.771a4.845 4.845 0 00-3.121-.809l-4.484-2.608 2.386-1.33a3.834 3.834 0 002.911.365c.656-.365.184-1.226-1.023-1.93a4.255 4.255 0 00-3.409-.6c-.577.313-.262 1.017.63 1.669l-2.387 1.33-6.215-3.417.498-.287a3.864 3.864 0 002.937.366c.656-.366.184-1.226-1.049-1.931a4.272 4.272 0 00-3.409-.599c-.551.313-.262 1.017.63 1.669l-.499.261-3.54-2.035-26.723 15.024 3.462 6.416 14.214 8.112 3.33 6.181 18.121 10.172.446-.313-10.306-5.738 6.949-3.912a.865.865 0 00.577 0c.21 0 0-.391-.341-.626a1.431 1.431 0 00-1.101-.209v.339l-6.95 3.913-6.556-3.678-3.33-6.181-3.305-1.878 2.387-1.331a4.004 4.004 0 002.937.366c.656-.366.184-1.226-1.049-1.931a4.41 4.41 0 00-3.409-.626c-.551.34-.262 1.044.629 1.67l-2.386 1.356-10.018-5.738-3.278-5.947 26.224-14.658 15.132 8.659c-.341.417.157 1.148 1.233 1.774a4.279 4.279 0 003.409.6c.524-.366.052-1.226-1.154-1.93zm-5.848-6.286a2.63 2.63 0 012.045.365c.735.417 1.023.939.603 1.174-.516.146-1.07.09-1.547-.157l.367-.209a.7.7 0 00.577 0c.21 0 0-.391-.341-.626a1.299 1.299 0 00-1.101-.287v.313l-.393.209c-.394-.235-.525-.522-.21-.782zm-23.052 21.126a2.634 2.634 0 012.046.366c.734.417 1.023.939.629 1.147a2.079 2.079 0 01-1.547 0l.656-.365-.892-.522-.656.392c-.445-.6-.445-1.018-.236-1.018zm14.057-24.022a2.647 2.647 0 012.045.366c.735.417 1.023.939.63 1.173a2.112 2.112 0 01-1.548-.156l.656-.365-.892-.47-.655.365c-.42-.365-.525-.834-.236-1.017v.104zm15 10.72a2.63 2.63 0 01-2.045-.365c-.577-.339-.866-.73-.787-.991l.708.391a.841.841 0 00.393.418 1.405 1.405 0 001.102.182c.236 0 0-.391-.315-.626a2.031 2.031 0 00-.708-.234l-.708-.392a3.052 3.052 0 011.731.444c.734.313 1.023.834.629 1.069v.104zm-61.759 13.772c.21 0 0-.391-.341-.626a1.388 1.388 0 00-1.102-.183c-.209 0 0 .392.341.626l3.2 5.973 39.336 22.431.472-.287-38.838-22.196-3.068-5.738zM-12.218 91.34L-34.98 78.3c.341-.418-.157-1.174-1.232-1.774a4.286 4.286 0 00-3.41-.626c-.629.365-.183 1.252 1.05 1.93a4.899 4.899 0 003.12.73l21.872 12.494-2.02 1.148 46.549 26.682-1.469.809-14.135-2.609a3.217 3.217 0 00-.944-.756 4.374 4.374 0 00-3.409-.6c-.63.365-.184 1.226 1.049 1.93a4.271 4.271 0 003.41.6.521.521 0 00.261-.626l14.476 2.608 2.125-1.2-46.575-26.525 2.045-1.174zm-24.257-13.927s-.184-.261-.394-.391a1.472 1.472 0 00-1.127-.21c-.21.131 0 .418.34.627.22.12.46.2.709.235l.708.39a3.055 3.055 0 01-1.731-.442c-.734-.418-1.023-.94-.63-1.148a2.638 2.638 0 012.046.365c.577.34.865.704.787.965l-.708-.391zm51.033 40.454a2.632 2.632 0 01-2.046-.365c-.734-.418-1.023-.939-.63-1.148a2.422 2.422 0 012.046.365 1.7 1.7 0 01.42.287l-.813-.156a1.343 1.343 0 00-1.05-.157c-.183.13 0 .391.342.626a1.478 1.478 0 001.128.209l.707.13a.295.295 0 01-.105.209z"/><path d="M175.022 90.637a4.298 4.298 0 00-3.409-.626.569.569 0 00-.288.6l-3.252-.678-31.915 17.944-13.952-7.98-3.357-.6-2.307-4.252 22.684-12.755a.736.736 0 00.577 0c.21 0 0-.39-.341-.626a1.394 1.394 0 00-1.101-.182v.313l-22.842 12.858 2.413 4.487-3.593-.678-2.282-4.252 29.791-16.614c.189.053.389.053.577 0 .21-.13 0-.418-.341-.626a1.306 1.306 0 00-1.101-.21v.314l-30.027 16.77 2.413 4.618-7.868-1.409-11.355 6.39-9.152 1.148-36.138 20.162 24.809 14.189-1.416.808-80.746-46.166 1.889-1.07-32.493-18.622-10.857-1.956-12.745-7.382-.629.183 13.165 7.642 10.857 1.93 31.469 17.919-1.888 1.043 82.58 47.209 2.361-1.33-24.86-14.215 35.533-19.979 9.153-1.148 11.302-6.338 15.892 2.843 14.371 8.321 32.152-17.997 2.884.495c.278.34.627.616 1.023.809a4.29 4.29 0 003.409.626c.63-.443.158-1.33-1.049-1.93zm.158 1.408a2.639 2.639 0 01-2.046-.365 1.89 1.89 0 01-.498-.365l.734.13a1.426 1.426 0 001.102.209c.209-.13 0-.391-.315-.626a1.497 1.497 0 00-1.128-.209l-.708-.182a.393.393 0 01.184-.235 2.633 2.633 0 012.045.365c.735.47.997.991.63 1.2v.078zm-13.297 8.373l.367.261.996-.235-.367-.261-.996.235z"/><path d="M159.707 98.905l.367.26.997-.26-.367-.261-.997.26zm-6.918-3.808l.446.209.446-.574-.446-.209-.446.574zm-2.703-1.252l.472.209.446-.548-.446-.209-.472.548z"/></g></g><path style="mix-blend-mode:multiply" d="M229.359 122.509l-13.873-8.085a1.002 1.002 0 00-1.075 0l-62.913 36.202a1.07 1.07 0 00-.393 1.461c.094.162.23.297.393.391l13.611 8.007a.993.993 0 001.075 0l63.149-36.124a1.065 1.065 0 00.026-1.852z" fill="url(#paint0_linear_6741_1637)"/><path style="mix-blend-mode:multiply" d="M206.567 109.938l-13.847-8.086a1.001 1.001 0 00-1.075 0l-62.912 36.255a1.07 1.07 0 00-.394 1.46c.095.163.23.298.394.392l13.61 8.059a1.134 1.134 0 001.075 0l63.149-36.229a1.06 1.06 0 00.537-.925 1.06 1.06 0 00-.537-.926z" fill="url(#paint1_linear_6741_1637)"/><path style="mix-blend-mode:multiply" d="M148.691 76.109l-13.847-8.112a1.133 1.133 0 00-1.075 0L70.83 104.278a1.041 1.041 0 000 1.825l13.637 8.008a1.133 1.133 0 001.075 0l63.149-36.177a1.043 1.043 0 000-1.825z" fill="url(#paint2_linear_6741_1637)"/><path d="M150.868 143.662l-7.264 4.095-8.786-13.302-6.372-20.188-29.214-16.745-6.006 13.042-7.264 4.095-8.392-13.042 21.19-52.165 7.264-4.199 15.577 8.868 29.267 89.541zm-27.169-44.34l-10.07-32.734-9.86 21.284 19.93 11.45zm34.538 48.696l-7.264-68.675 7.264-4.095 14.738 8.477v72.639l-7.002 4.095-7.736-12.441z" fill="#172224"/><path d="M143.604 147.757l-16.05-9.207-6.372-20.188-29.162-16.745-6.031 13.042-15.735-8.999L98.76 49.348l15.735 8.972 29.109 89.437zm-27.143-44.34l-10.07-32.734-9.86 21.284 19.93 11.45z" fill="#D2FC1B"/><path d="M144.233 148.514l-16.967-9.729-6.399-20.162-28.847-16.51-6.031 13.041-16.286-9.338 28.9-56.912 16.049 9.234v.13l29.581 90.246zm-16.364-10.225l15.105 8.686-28.925-88.42-15.132-8.685-28.139 55.66 15.027 8.581 6.032-13.042 29.633 17.032 6.399 20.188zm-10.804-34.116l-20.98-12.05 10.49-22.43 10.49 34.48zM96.977 91.836l18.855 10.825-9.519-30.987-9.336 20.162z" fill="#172224"/><path d="M150.973 151.982v-72.64l14.738 8.478v72.639l-14.738-8.477z" fill="#D2FC1B"/><path d="M166.078 161.059l-15.473-8.868V78.717l15.473 8.894v73.448zm-14.738-9.285l14.109 8.059V88.028l-14.031-8.06-.078 71.806z" fill="#172224"/><defs><linearGradient id="paint0_linear_6741_1637" x1="172.294" y1="166.902" x2="206.846" y2="110.292" gradientUnits="userSpaceOnUse"><stop stop-color="#CBCDD1"/><stop offset="1" stop-color="#AFAFB5" stop-opacity="0"/></linearGradient><linearGradient id="paint1_linear_6741_1637" x1="149.529" y1="154.33" x2="184.081" y2="97.72" gradientUnits="userSpaceOnUse"><stop stop-color="#CBCDD1"/><stop offset="1" stop-color="#AFAFB5" stop-opacity="0"/></linearGradient><linearGradient id="paint2_linear_6741_1637" x1="91.626" y1="120.501" x2="126.178" y2="63.891" gradientUnits="userSpaceOnUse"><stop stop-color="#CBCDD1"/><stop offset="1" stop-color="#AFAFB5" stop-opacity="0"/></linearGradient></defs></svg>