<svg width="123" height="248" fill="none" xmlns="http://www.w3.org/2000/svg"><path d="M102.798 188.648l-40.357-23.526a2.909 2.909 0 00-2.976 0l-39.159 22.602-1.59.924-18.58.667v21.37a2.943 2.943 0 001.472 2.566l58.695 34.219a2.998 2.998 0 002.96 0l58.284-33.158a2.938 2.938 0 001.489-2.635v-21.301l-20.238-1.728zm-43.385-14.133a2.949 2.949 0 012.977 0l34.215 19.967-33.308 18.906a2.998 2.998 0 01-2.96 0l-33.94-19.83 33.017-19.043z" fill="#C2C7CB"/><path d="M61.809 248.085a3.224 3.224 0 01-1.574-.41L1.54 213.371A3.107 3.107 0 010 210.684v-21.489h.137l18.544-.667 1.557-.907 39.159-22.618a3.077 3.077 0 013.113 0l40.339 23.508 20.323 1.711v21.438a3.039 3.039 0 01-1.556 2.737l-58.319 33.209a3.002 3.002 0 01-1.488.479zM.222 189.537v21.233a2.774 2.774 0 001.489 2.361l58.695 34.219a2.82 2.82 0 002.823 0l58.233-33.141a2.785 2.785 0 001.42-2.498v-21.216l-20.17-1.711-40.339-23.559a2.895 2.895 0 00-2.84 0l-40.715 23.542-18.596.77zm61.587 24.45a3.17 3.17 0 01-1.557-.411l-34.215-19.932 33.223-19.197a3.116 3.116 0 013.113 0l34.437 20.086-.205.103-33.188 18.872a3.268 3.268 0 01-1.54.359l-.068.12zm-35.156-20.429l33.804 19.693a2.82 2.82 0 002.823 0l33.068-18.82-34.026-19.847a2.853 2.853 0 00-2.84 0l-32.829 18.974z" fill="#172224"/><path d="M122.486 188.648a2.921 2.921 0 00-.924-.839L62.44 153.334a2.98 2.98 0 00-2.977 0L1.606 186.748a2.951 2.951 0 00-1.386 1.9 2.24 2.24 0 000 .667 2.893 2.893 0 001.472 2.549l58.695 34.219a2.998 2.998 0 002.96 0l58.284-33.175a2.924 2.924 0 001.488-2.567 2.866 2.866 0 00-.633-1.693zm-59.191 24.74a2.999 2.999 0 01-2.96 0l-33.94-19.83 33.016-19.043a2.949 2.949 0 012.977 0l34.215 19.967-33.308 18.906z" fill="#DBE0E6"/><path d="M61.792 226.63a3.057 3.057 0 01-1.557-.427L1.54 191.984a3.061 3.061 0 01-1.454-3.371 3 3 0 011.454-1.967l57.857-33.432a3.117 3.117 0 013.113 0l59.123 34.493c.379.21.706.502.958.855.379.529.583 1.163.582 1.814a3.048 3.048 0 01-1.557 2.686L63.297 226.22a3.096 3.096 0 01-1.505.41zm-.839-73.57a2.798 2.798 0 00-1.42.377L1.711 186.868a2.775 2.775 0 00-1.335 1.814c-.028.21-.028.423 0 .633a2.773 2.773 0 001.335 2.447l58.695 34.218a2.82 2.82 0 002.823 0l58.233-33.158a2.772 2.772 0 001.42-2.446 2.84 2.84 0 00-.514-1.711 2.853 2.853 0 00-.889-.787l-59.106-34.424a2.841 2.841 0 00-1.42-.377v-.017zm.924 60.807a3.17 3.17 0 01-1.557-.411l-34.214-19.932 33.222-19.197a3.116 3.116 0 013.114 0l34.437 20.086-.206.103-33.256 18.992a3.268 3.268 0 01-1.54.359zm-35.224-20.309l33.804 19.693a2.82 2.82 0 002.823 0l33.068-18.82-34.026-19.847a2.853 2.853 0 00-2.84 0l-32.829 18.974z" fill="#172224"/><path d="M101.292 191.796l-4.67 2.669-34.232-19.95a2.95 2.95 0 00-2.977 0l-33.017 19.077-4.67-2.737a2.98 2.98 0 010-5.133l37.636-21.746a2.98 2.98 0 012.977 0l38.936 22.704a2.983 2.983 0 011.468 2.566 2.983 2.983 0 01-1.468 2.567l.017-.017z" fill="#C2C7CB"/><path d="M96.621 194.619l-34.214-19.967a2.82 2.82 0 00-2.823 0l-33.188 19.06-4.688-2.72a3.136 3.136 0 01-1.536-2.695 3.13 3.13 0 011.536-2.695l37.636-21.746a3.075 3.075 0 013.114 0l38.936 22.636a3.004 3.004 0 011.471 2.053 3.06 3.06 0 01-1.488 3.422l-4.756 2.652zm-35.737-20.668a3.036 3.036 0 011.574.427l34.215 19.916 4.55-2.669a2.83 2.83 0 001.415-2.447 2.825 2.825 0 00-1.415-2.447l-38.919-22.67a2.861 2.861 0 00-2.823 0l-37.636 21.764a2.724 2.724 0 00-1.368 1.933 2.771 2.771 0 001.351 2.943l4.568 2.635 32.948-19.026a3.09 3.09 0 011.54-.359z" fill="#172224"/><path d="M102.798 133.453l-40.357-23.525a2.97 2.97 0 00-2.976 0l-39.159 22.601-1.59.924H.135v12.438a2.944 2.944 0 001.472 2.567l58.695 34.218a2.989 2.989 0 002.96 0l58.284-33.14a2.95 2.95 0 001.489-2.618v-13.465h-20.238zm-43.385-14.15a2.91 2.91 0 012.977 0l34.215 19.967-33.308 18.923a2.958 2.958 0 01-2.96 0l-33.94-19.83 33.017-19.06z" fill="#C2C7CB"/><path d="M61.809 183.207a3.236 3.236 0 01-1.574-.411L1.54 148.577A3.096 3.096 0 010 145.891v-12.575h18.681l1.557-.907 39.159-22.601a3.159 3.159 0 013.113 0l40.322 23.508h20.341v13.687a3.029 3.029 0 01-1.557 2.721l-58.319 33.089a3.01 3.01 0 01-1.488.394zM.222 133.59v12.301a2.773 2.773 0 001.489 2.447l58.695 34.219a2.83 2.83 0 002.823 0l58.233-33.141a2.785 2.785 0 001.42-2.498V133.59h-20.221l-40.288-23.543a2.812 2.812 0 00-2.84 0L18.818 133.59H.222zm61.587 25.133a3.178 3.178 0 01-1.557-.427l-34.215-19.933 33.308-19.179a3.077 3.077 0 013.114 0l34.437 20.086-.206.103-33.273 18.94c-.469.269-1 .41-1.54.41h-.068zm-35.156-20.36l33.804 19.693a2.82 2.82 0 002.823 0l33.068-18.82-34.026-19.813a2.863 2.863 0 00-2.84 0l-32.829 18.94z" fill="#172224"/><path d="M122.486 133.453a2.864 2.864 0 00-.924-.821L62.44 98.156a2.976 2.976 0 00-2.977 0L1.606 131.571a2.863 2.863 0 00-1.386 1.882 2.24 2.24 0 000 .667 2.944 2.944 0 001.472 2.566l58.695 34.219a2.988 2.988 0 002.96 0l58.198-33.158a2.973 2.973 0 00.941-4.294zm-59.191 24.74a2.957 2.957 0 01-2.96 0l-33.94-19.83 33.016-19.06a2.909 2.909 0 012.977 0l34.215 19.967-33.308 18.923z" fill="#DBE0E6"/><path d="M61.79 171.436a3.217 3.217 0 01-1.557-.411l-58.695-34.15a3.065 3.065 0 01-1.454-3.422 2.992 2.992 0 011.454-2.002L59.395 98.02a3.113 3.113 0 013.113 0l59.123 34.492a2.9 2.9 0 01.958.855c.374.525.577 1.152.582 1.797a3.045 3.045 0 01-1.557 2.686l-58.319 33.244a3.27 3.27 0 01-1.505.342zm-.838-73.57a2.805 2.805 0 00-1.42.376l-57.823 33.5a2.825 2.825 0 00-1.369 1.711 2.48 2.48 0 000 .633 2.775 2.775 0 001.369 2.481l58.695 34.219a2.83 2.83 0 002.823 0l58.233-33.158a2.843 2.843 0 00.907-4.09 2.87 2.87 0 00-.89-.787L62.371 98.259a2.84 2.84 0 00-1.42-.376v-.017zm.923 60.84a3.178 3.178 0 01-1.556-.427l-34.215-19.933 33.24-19.162a3.076 3.076 0 013.113 0l34.437 20.086-.205.103-33.274 18.94c-.469.269-1 .41-1.54.41v-.017zm-35.224-20.343l33.804 19.693a2.82 2.82 0 002.823 0l33.069-18.82-34.027-19.813a2.863 2.863 0 00-2.84 0l-32.829 18.94z" fill="#172224"/><path d="M101.29 136.601l-4.67 2.669-34.215-19.967a2.909 2.909 0 00-2.976 0l-33.034 19.06-4.67-2.72a2.943 2.943 0 01-1.42-3.114 2.88 2.88 0 011.42-2.019l37.635-21.763a2.939 2.939 0 012.977 0l38.988 22.704a2.983 2.983 0 011.468 2.567 2.983 2.983 0 01-1.468 2.566l-.035.017z" fill="#C2C7CB"/><path d="M96.621 139.424l-34.214-19.967a2.78 2.78 0 00-2.823 0l-33.188 19.129-4.688-2.721a3.042 3.042 0 01-1.471-3.25 3 3 0 011.488-2.122l37.636-21.763a3.116 3.116 0 013.114 0l38.919 22.601a3.017 3.017 0 011.471 2.053 3.06 3.06 0 01-1.488 3.422l-4.756 2.618zm-35.737-20.668a3.027 3.027 0 011.574.428l34.214 19.915 4.602-2.618a2.806 2.806 0 001.369-3.028 2.725 2.725 0 00-1.335-1.865l-39.004-22.704a2.82 2.82 0 00-2.823 0l-37.636 21.763a2.824 2.824 0 000 4.893l4.602 2.686 32.897-19.059c.469-.269 1-.411 1.54-.411z" fill="#172224"/><path d="M102.798 78.258L62.442 54.75a2.976 2.976 0 00-2.977 0L20.306 77.334l-1.59.924H.136V90.68a2.909 2.909 0 001.471 2.566l58.695 34.219a2.998 2.998 0 002.96 0l58.284-33.124a2.944 2.944 0 001.489-2.618V78.258h-20.238zm-43.384-14.15a2.976 2.976 0 012.976 0l34.215 19.967-33.308 18.923a2.958 2.958 0 01-2.96 0l-33.94-19.83 33.017-19.06z" fill="#C2C7CB"/><path d="M61.809 128.029a3.244 3.244 0 01-1.574-.427L1.54 93.382A3.097 3.097 0 010 90.68V78.121h18.681l1.557-.906 39.159-22.602a3.165 3.165 0 013.113 0l40.322 23.508h20.341V91.81a3.071 3.071 0 01-1.557 2.737L63.297 127.62a3.041 3.041 0 01-1.488.41zM.223 78.412V90.68a2.806 2.806 0 001.487 2.48l58.695 34.219a2.85 2.85 0 002.823 0l58.233-33.158a2.787 2.787 0 001.42-2.498V78.395H102.66L62.373 54.853a2.806 2.806 0 00-2.84 0L18.818 78.394l-18.595.017zm61.586 25.134a3.006 3.006 0 01-1.557-.428L26.037 83.186l33.308-19.197a3.165 3.165 0 013.114 0l34.437 20.086-.206.12-33.273 18.923c-.469.269-1 .41-1.54.411l-.068.017zM26.653 83.168l33.804 19.71a2.82 2.82 0 002.823 0l33.068-18.82-34.026-19.83a2.805 2.805 0 00-2.84 0l-32.829 18.94z" fill="#172224"/><path d="M122.487 78.258a2.875 2.875 0 00-.924-.821L62.44 42.962a2.942 2.942 0 00-2.976 0L1.607 76.376A2.909 2.909 0 00.22 78.258a2.275 2.275 0 000 .684 2.909 2.909 0 001.471 2.55l58.696 34.218a2.958 2.958 0 002.96 0l58.198-33.157a2.978 2.978 0 00.941-4.295zm-59.191 24.74a2.958 2.958 0 01-2.96 0l-33.94-19.83 33.016-19.06a2.976 2.976 0 012.977 0l34.215 19.967-33.308 18.923z" fill="#DBE0E6"/><path d="M61.789 116.344a3.237 3.237 0 01-1.557-.428L1.537 81.612a3.097 3.097 0 010-5.356l57.857-33.483a3.113 3.113 0 013.113 0l59.123 34.544c.376.221.703.519.958.873a3.082 3.082 0 01-.975 4.482l-58.319 33.175a3.09 3.09 0 01-1.505.497zm-.856-73.57a2.976 2.976 0 00-1.402.376L1.708 76.479a2.823 2.823 0 00-1.369 1.813 2.618 2.618 0 000 .65 2.772 2.772 0 001.369 2.43l58.695 34.219a2.82 2.82 0 002.823 0l58.233-33.141a2.851 2.851 0 001.354-1.854 2.862 2.862 0 00-.447-2.252 2.663 2.663 0 00-.89-.787L62.37 43.08a2.89 2.89 0 00-1.437-.308zm.941 60.84a3.006 3.006 0 01-1.556-.428L26.102 83.254l33.24-19.265a3.165 3.165 0 013.113 0l34.437 20.086-.205.12-33.274 18.923c-.469.269-1 .41-1.54.411v.085zM26.65 83.169l33.804 19.71a2.83 2.83 0 002.823 0l33.069-18.82-34.027-19.83a2.805 2.805 0 00-2.84 0L26.65 83.168z" fill="#172224"/><path d="M101.29 81.406l-4.67 2.67-34.215-19.967a2.976 2.976 0 00-2.976 0l-33.034 19.06-4.67-2.755a2.943 2.943 0 01-1.42-3.114 2.907 2.907 0 011.42-2.019L59.36 53.518a2.942 2.942 0 012.977 0l38.988 22.755a2.83 2.83 0 011.402 1.95 2.927 2.927 0 01-1.437 3.183z" fill="#C2C7CB"/><path d="M96.62 84.246L62.404 64.28a2.823 2.823 0 00-2.823 0L26.394 83.34l-4.687-2.72a3.114 3.114 0 010-5.373l37.636-21.763a3.114 3.114 0 013.113 0l38.936 22.67a2.973 2.973 0 011.472 2.036 3.065 3.065 0 01-1.489 3.336l-4.756 2.72zM60.881 63.561a3.199 3.199 0 011.574.428L96.62 83.836l4.602-2.618a2.805 2.805 0 001.369-3.028 2.779 2.779 0 00-1.335-1.865L62.302 53.689a2.823 2.823 0 00-2.822 0L21.843 75.452a2.824 2.824 0 000 4.894l4.601 2.686 32.898-19.043c.464-.282.996-.43 1.54-.428z" fill="#172224"/><path d="M96.62 30.916L63.295 49.84a2.96 2.96 0 01-2.96 0l-33.94-19.83-4.67-2.635a2.942 2.942 0 01-1.42-3.114 2.908 2.908 0 011.42-2.019L59.411.393a2.942 2.942 0 012.976 0l38.937 22.722a2.83 2.83 0 011.402 1.95 2.927 2.927 0 01-1.437 3.182l-4.67 2.67z" fill="url(#paint0_linear_6741_1020)"/><path d="M65.762 48.95a2.787 2.787 0 00.948 5.47 2.788 2.788 0 10-.948-5.47z" fill="#D2FC1B"/><path d="M66.496 54.613a2.993 2.993 0 01-2.874-2.173 3.03 3.03 0 01.291-2.275 2.908 2.908 0 011.71-1.403 2.976 2.976 0 013.662 2.07 2.979 2.979 0 01-2.07 3.678 3.15 3.15 0 01-.719.103zm0-5.578a3.186 3.186 0 00-.701.086 2.608 2.608 0 001.386 5.03 2.634 2.634 0 001.813-3.216 2.499 2.499 0 00-1.232-1.557 2.429 2.429 0 00-1.249-.343h-.017z" fill="#172224"/><path d="M65.95 49.84l.119.102c.26.167.564.251.872.24.17.028.344.028.514 0h.102c0-.462 1.403-13.38 2.173-20.703l-1.608-.188c-.36 3.37-2.139 20.326-2.173 20.549z" fill="#172224"/><path d="M65.762 168.921a2.786 2.786 0 00-1.753 3.944 2.785 2.785 0 002.701 1.526 2.79 2.79 0 002.474-3.537 2.788 2.788 0 00-3.422-1.933z" fill="#D2FC1B"/><path d="M66.497 174.515a2.975 2.975 0 01-2.491-4.625 2.976 2.976 0 011.704-1.226 2.981 2.981 0 013.39 4.344 2.98 2.98 0 01-1.8 1.405 3.16 3.16 0 01-.803.102zm-.685-5.492a2.597 2.597 0 00-1.888 2.188 2.603 2.603 0 002.772 2.913 2.598 2.598 0 002.278-1.778 2.599 2.599 0 00.037-1.509 2.616 2.616 0 00-3.199-1.814z" fill="#172224"/><path d="M65.95 169.81l.119.103c.26.167.564.251.872.239a1.2 1.2 0 00.514 0h.102c0-.462 1.403-13.379 2.173-20.702l-1.608-.188c-.36 3.37-2.139 20.377-2.173 20.548zm-9.24-4.037l17.006 13.875h.12a1.702 1.702 0 00.82-1.095v-.102L57.55 164.506l-.838 1.267z" fill="#172224"/><path d="M55.684 161.512a2.785 2.785 0 00-2.298 2.076 2.79 2.79 0 002.558 3.469 2.793 2.793 0 002.662-1.584 2.789 2.789 0 00-2.922-3.961z" fill="#D2FC1B"/><path d="M56.076 167.261a2.975 2.975 0 01-1.71-.599 3.03 3.03 0 01-1.164-1.967 2.978 2.978 0 012.532-3.422 2.982 2.982 0 01.855 5.902l-.513.086zm-.36-5.561a2.607 2.607 0 00-2.153 1.927 2.602 2.602 0 00.956 2.727 2.536 2.536 0 001.933.496 2.598 2.598 0 002.005-2.906 2.602 2.602 0 00-2.74-2.226v-.018z" fill="#172224"/><path d="M53.53 200.008a2.79 2.79 0 00-2.779 4.805 2.795 2.795 0 003.096.106c.468-.291.84-.713 1.069-1.215a2.77 2.77 0 00-1.386-3.696z" fill="#D2FC1B"/><path d="M52.367 205.517a2.99 2.99 0 01-1.25-.273 2.997 2.997 0 01-1.453-3.953 2.99 2.99 0 013.952-1.471 2.976 2.976 0 01.641 5.053 2.973 2.973 0 01-1.89.644zm0-5.577a2.634 2.634 0 00-2.378 1.505 2.618 2.618 0 001.283 3.422 2.601 2.601 0 003.421-1.283 2.6 2.6 0 00-1.283-3.422 2.456 2.456 0 00-1.026-.222h-.017z" fill="#172224"/><path d="M76.574 193.028l-22.856 6.843a1.353 1.353 0 00-.838 1.027 2.824 2.824 0 00.787 2.498c.248.254.586.401.94.411h.309c.205 0 21.914-6.502 22.855-6.844l.582-.188-1.198-3.884-.581.137z" fill="#172224"/><path d="M68.327 26.314a2.806 2.806 0 103.421 1.95 2.772 2.772 0 00-3.421-1.95z" fill="#D2FC1B"/><path d="M69.079 31.994a2.994 2.994 0 01-2.6-4.448 2.891 2.891 0 011.71-1.403 2.977 2.977 0 111.608 5.732 2.617 2.617 0 01-.718.12zm0-5.594a2.585 2.585 0 00-.702.102 2.583 2.583 0 00-1.573 1.232 2.548 2.548 0 00-.24 1.968 2.618 2.618 0 004.79.582 2.703 2.703 0 00.24-1.968 2.618 2.618 0 00-2.515-1.916z" fill="#172224"/><path d="M72.91 53.877a2.805 2.805 0 10-.497 5.588 2.805 2.805 0 00.496-5.588z" fill="#D2FC1B"/><path d="M72.688 59.66h-.256a2.924 2.924 0 01-2.019-1.043 2.858 2.858 0 01-.701-2.156 2.941 2.941 0 011.026-2.036 2.979 2.979 0 014.205.342c.513.602.766 1.384.705 2.173a3.011 3.011 0 01-2.96 2.755v-.035zm0-5.594a2.634 2.634 0 00-1.71.616 2.635 2.635 0 00-.308 3.678c.433.51 1.045.834 1.71.907.69.05 1.37-.171 1.9-.616a2.6 2.6 0 00-1.472-4.568h-.222l.102-.017z" fill="#172224"/><path d="M62.852 35.091L60.32 36.41l10.265 19.385a.718.718 0 00.633.325 2.225 2.225 0 001.71-.941.701.701 0 00.12-.685L62.852 35.091z" fill="#172224"/><path d="M61.295 34.047a2.806 2.806 0 103.422 1.95 2.772 2.772 0 00-3.422-1.95z" fill="#D2FC1B"/><path d="M62.048 39.728a3.01 3.01 0 01-1.47-.394 2.856 2.856 0 01-1.404-1.71 2.96 2.96 0 012.07-3.748 2.982 2.982 0 111.591 5.75 3.114 3.114 0 01-.787.102zm-.701-5.51a2.6 2.6 0 00-.582 4.774 2.581 2.581 0 001.985.24A2.548 2.548 0 0064.307 38a2.584 2.584 0 00-2.96-3.781z" fill="#172224"/><path d="M75.27 57.197a2.789 2.789 0 103.165 2.36 2.77 2.77 0 00-3.165-2.36z" fill="#D2FC1B"/><path d="M75.632 62.928a2.959 2.959 0 01-2.942-2.55 2.908 2.908 0 01.564-2.206 2.856 2.856 0 012.019-1.164 2.981 2.981 0 11.855 5.903l-.496.017zm0-5.577h-.359a2.634 2.634 0 00-2.207 2.96 2.601 2.601 0 102.583-2.977l-.017.017z" fill="#172224"/><path d="M56.71 45.51l17.006 13.928h.12a1.557 1.557 0 00.82-1.078v-.12L57.55 44.296l-.838 1.215z" fill="#172224"/><path d="M55.684 41.233a2.789 2.789 0 10.81 5.519 2.789 2.789 0 00-.81-5.519z" fill="#D2FC1B"/><path d="M56.077 46.982a2.994 2.994 0 01-2.943-2.498 2.926 2.926 0 01.565-2.207 3.028 3.028 0 011.967-1.215 2.91 2.91 0 012.207.565 2.976 2.976 0 01-1.42 5.321l-.376.034zm0-5.594H55.7a2.565 2.565 0 00-1.71 1.026 2.482 2.482 0 00-.497 1.916 2.65 2.65 0 001.01 1.711 2.617 2.617 0 101.574-4.705v.052z" fill="#172224"/><path d="M56.575 89.26a2.788 2.788 0 103.421 1.933 2.774 2.774 0 00-3.422-1.934z" fill="#D2FC1B"/><path d="M57.328 94.923a2.994 2.994 0 01-1.471-.377 2.96 2.96 0 01-1.403-1.71 2.976 2.976 0 012.001-3.765 2.997 2.997 0 013.838 3.184 3 3 0 01-2.127 2.565 3.423 3.423 0 01-.838.103zm0-5.578a3.28 3.28 0 00-.702.086 2.635 2.635 0 00-1.573 1.231 2.6 2.6 0 00-.308 1.985c.188.666.63 1.232 1.231 1.574.606.334 1.317.42 1.985.24a2.6 2.6 0 001.556-1.232 2.69 2.69 0 00.36-1.985 2.635 2.635 0 00-2.55-1.899z" fill="#172224"/><path d="M73.407 78.806a2.789 2.789 0 103.422 1.95 2.806 2.806 0 00-3.422-1.95z" fill="#D2FC1B"/><path d="M74.144 84.486a3.182 3.182 0 01-1.471-.376 3.046 3.046 0 01-1.403-1.814 2.995 2.995 0 012.087-3.593 2.977 2.977 0 013.627 2.002 2.892 2.892 0 01-.274 2.258 2.977 2.977 0 01-1.71 1.42c-.28.073-.568.107-.856.103zm0-5.595a2.396 2.396 0 00-.684.103 2.6 2.6 0 00-1.711 3.2 2.516 2.516 0 001.215 1.573 2.6 2.6 0 101.282-4.876h-.102z" fill="#172224"/><path d="M65.759 108.901a2.791 2.791 0 00-2.034 2.34 2.788 2.788 0 105.455-.39 2.806 2.806 0 00-3.421-1.95z" fill="#D2FC1B"/><path d="M66.497 114.633a2.901 2.901 0 01-1.454-.394 2.944 2.944 0 01-1.42-1.711 2.976 2.976 0 01.29-2.258 2.857 2.857 0 011.712-1.403 2.97 2.97 0 013.168 1.012 2.971 2.971 0 01.253 3.316 2.973 2.973 0 01-1.71 1.42c-.278.044-.56.049-.839.018zm0-5.595a2.414 2.414 0 00-.701.102 2.602 2.602 0 00-1.814 3.2 2.562 2.562 0 001.215 1.574c.297.169.625.277.965.318a2.59 2.59 0 002.585-1.302 2.602 2.602 0 00-.214-2.886 2.607 2.607 0 00-.77-.664 2.543 2.543 0 00-1.249-.393l-.017.051z" fill="#172224"/><path d="M53.528 79.73a2.817 2.817 0 10-2.327 5.132 2.817 2.817 0 002.327-5.132z" fill="#D2FC1B"/><path d="M52.366 85.256a2.977 2.977 0 111.249-5.698 2.94 2.94 0 011.557 1.711 2.995 2.995 0 01-2.806 4.021v-.034zm0-5.595a2.617 2.617 0 101.9.848 2.566 2.566 0 00-.822-.591 2.735 2.735 0 00-1.06-.257h-.018z" fill="#172224"/><path d="M53.906 80.106a.702.702 0 00-.428.565 2.242 2.242 0 00.6 1.916.719.719 0 00.666.24l22.838-6.844-.838-2.704-22.838 6.827z" fill="#172224"/><path d="M76.985 72.03a2.788 2.788 0 101.38 5.403 2.788 2.788 0 00-1.38-5.403z" fill="#D2FC1B"/><path d="M77.6 77.745a2.942 2.942 0 01-2.89-2.344 2.995 2.995 0 012.275-3.542 2.993 2.993 0 013.54 2.293 2.892 2.892 0 01-.41 2.241 2.977 2.977 0 01-1.864 1.3c-.214.043-.433.06-.65.052zm-.615-5.526a2.6 2.6 0 00-1.916 3.062 2.566 2.566 0 001.146 1.711 2.6 2.6 0 003.602-.785 2.626 2.626 0 00-2.764-3.988h-.068zm-12.252 37.503a1.317 1.317 0 00.598 1.181 2.79 2.79 0 001.608.479c.346.002.688-.062 1.01-.188a1.376 1.376 0 00.838-1.01c0-.205 2.019-19.18 2.241-21.352v-.6l-4.054-.444s-2.224 21.712-2.241 21.934z" fill="#172224"/><path d="M68.325 86.282a2.806 2.806 0 001.506 5.39 2.806 2.806 0 00-1.506-5.39z" fill="#D2FC1B"/><path d="M69.08 91.946a2.976 2.976 0 01-.803-5.852 2.985 2.985 0 111.608 5.75 3.236 3.236 0 01-.805.102zm-.65-5.492a2.617 2.617 0 001.403 5.03 2.685 2.685 0 001.574-1.232 2.737 2.737 0 00.24-1.985 2.6 2.6 0 00-1.232-1.557 2.685 2.685 0 00-1.985-.256z" fill="#172224"/><path d="M76.76 61.217a2.806 2.806 0 102.35 5.096 2.806 2.806 0 00-2.35-5.096z" fill="#D2FC1B"/><path d="M77.959 66.727a2.96 2.96 0 01-2.686-1.712 2.925 2.925 0 01-.102-2.275 2.994 2.994 0 011.54-1.71 3.01 3.01 0 013.968 1.436c.323.724.36 1.543.103 2.293a2.995 2.995 0 01-1.557 1.71 2.89 2.89 0 01-1.266.258zm-1.112-5.339a2.515 2.515 0 00-1.334 1.472 2.6 2.6 0 004.892 1.71 2.584 2.584 0 000-1.984 2.634 2.634 0 00-3.421-1.266l-.137.068z" fill="#172224"/><path d="M77.12 61.388l-24.738-5.731-.599-.137-.924 3.97.6.136 24.72 5.732h.239a1.385 1.385 0 001.009-.48 2.839 2.839 0 00.582-2.566 1.37 1.37 0 00-.89-.924z" fill="#172224"/><path d="M52.605 55.11a2.788 2.788 0 00-2.505 4.952 2.789 2.789 0 102.505-4.953z" fill="#D2FC1B"/><path d="M51.595 60.687a3.098 3.098 0 01-1.095-.205 2.994 2.994 0 012.19-5.56 2.994 2.994 0 01-1.095 5.765zm0-5.595a2.635 2.635 0 10-.075 5.269 2.635 2.635 0 00.075-5.269z" fill="#172224"/><path d="M77.582 66.162a2.789 2.789 0 102.46 5.005 2.789 2.789 0 00-2.46-5.005z" fill="#D2FC1B"/><path d="M78.811 71.637a2.976 2.976 0 111.97-5.21 2.983 2.983 0 01-.652 4.919 3.01 3.01 0 01-1.318.29zm0-5.578a2.583 2.583 0 00-1.163.274 2.601 2.601 0 103.422 1.18 2.583 2.583 0 00-2.259-1.454z" fill="#172224"/><path d="M51.733 67.89a2.788 2.788 0 10-2.405 5.032 2.788 2.788 0 002.405-5.032z" fill="#D2FC1B"/><path d="M50.484 73.365a2.994 2.994 0 01-2.823-2.019 2.927 2.927 0 01.172-2.276 2.84 2.84 0 011.71-1.488 2.926 2.926 0 012.276.154 2.977 2.977 0 01-1.335 5.646v-.017zm0-5.578c-.285-.006-.57.04-.838.137a2.6 2.6 0 103.165 3.627 2.6 2.6 0 00-1.18-3.422 2.464 2.464 0 00-1.13-.342h-.017z" fill="#172224"/><path d="M72.91 113.846a2.801 2.801 0 00-3.036 3.108 2.808 2.808 0 002.018 2.385 2.803 2.803 0 002.972-.961 2.805 2.805 0 00-1.955-4.532z" fill="#D2FC1B"/><path d="M72.67 119.612h-.24a2.984 2.984 0 01-2.605-2.098 2.973 2.973 0 01-.115-1.17 2.913 2.913 0 011.027-2.036 2.973 2.973 0 012.173-.702 2.994 2.994 0 012.72 2.572 2.978 2.978 0 01-2.96 3.382v.052zm0-5.578a2.583 2.583 0 00-2.532 2.395 2.6 2.6 0 102.806-2.395h-.273z" fill="#172224"/><path d="M75.27 117.199a2.79 2.79 0 00-2.223 3.692 2.79 2.79 0 004.054 1.464 2.793 2.793 0 001.334-2.795 2.795 2.795 0 00-1.093-1.837 2.78 2.78 0 00-2.072-.524z" fill="#D2FC1B"/><path d="M75.63 122.948a2.981 2.981 0 01-1.71-.599 3.03 3.03 0 01-1.163-1.968 2.975 2.975 0 115.885-.889 2.98 2.98 0 01-2.532 3.37l-.48.086zm-.358-5.561a2.587 2.587 0 00-1.711 1.01 2.549 2.549 0 00-.496 1.933 2.618 2.618 0 001.925 2.156c.332.085.678.103 1.017.051a2.598 2.598 0 002.005-2.906 2.602 2.602 0 00-2.74-2.227v-.017z" fill="#172224"/><path d="M57.547 103.392l-1.711 2.224 17.518 14.338a.668.668 0 00.701 0 2.139 2.139 0 001.198-1.557.738.738 0 00-.189-.668l-17.517-14.337z" fill="#172224"/><path d="M56.573 149.262a2.802 2.802 0 00-2.061 2.351 2.805 2.805 0 105.482-.4 2.763 2.763 0 00-1.304-1.689 2.762 2.762 0 00-2.117-.262z" fill="#D2FC1B"/><path d="M57.327 154.942a3.012 3.012 0 01-1.471-.393 2.962 2.962 0 01-1.527-2.883 2.993 2.993 0 012.126-2.592 3.008 3.008 0 013.439 4.318 2.975 2.975 0 01-1.728 1.43 2.676 2.676 0 01-.839.12zm0-5.595a2.487 2.487 0 00-.701.103 2.584 2.584 0 00-1.574 1.232 2.55 2.55 0 00-.308 1.968c.188.666.63 1.231 1.232 1.574a2.593 2.593 0 002.887-.219 2.55 2.55 0 00.654-.774 2.582 2.582 0 00-2.258-3.884h.068z" fill="#172224"/><path d="M58.662 149.279a.732.732 0 00-.29.667 2.25 2.25 0 001.06 1.711.697.697 0 00.701 0l15.807-9.649-1.488-2.43-15.79 9.701z" fill="#172224"/><path d="M73.406 138.825a2.787 2.787 0 00-1.753 3.944 2.788 2.788 0 101.753-3.944z" fill="#D2FC1B"/><path d="M74.142 144.488a2.977 2.977 0 01-3.353-2.549 2.98 2.98 0 012.549-3.353 2.98 2.98 0 111.59 5.748 3.2 3.2 0 01-.786.154zm-.684-5.492a2.597 2.597 0 00-1.888 2.188 2.603 2.603 0 002.771 2.913 2.605 2.605 0 002.278-1.778 2.6 2.6 0 00.038-1.509 2.616 2.616 0 00-3.2-1.814z" fill="#172224"/><path d="M68.327 146.285a2.807 2.807 0 00-1.79 3.962 2.81 2.81 0 002.715 1.548 2.809 2.809 0 002.462-1.926 2.807 2.807 0 00.034-1.634 2.78 2.78 0 00-1.304-1.689 2.778 2.778 0 00-2.117-.261z" fill="#D2FC1B"/><path d="M69.08 151.965a2.98 2.98 0 01-2.978-2.571 2.979 2.979 0 012.174-3.28 2.974 2.974 0 013.678 2.07 2.995 2.995 0 01-2.07 3.679 3.255 3.255 0 01-.803.102zm-.65-5.492a2.598 2.598 0 00-1.873 2.194 2.603 2.603 0 001.305 2.574 2.604 2.604 0 002.877-.215 2.603 2.603 0 00.908-2.739 2.633 2.633 0 00-1.232-1.574 2.595 2.595 0 00-1.985-.24z" fill="#172224"/><path d="M53.528 139.732a2.788 2.788 0 10-2.291 5.085 2.788 2.788 0 002.29-5.085z" fill="#D2FC1B"/><path d="M52.366 145.258a2.974 2.974 0 01-2.867-3.614 2.977 2.977 0 112.867 3.614zm0-5.594a2.593 2.593 0 00-2.268 1.363 2.6 2.6 0 104.646 2.332 2.633 2.633 0 00-1.283-3.422 2.727 2.727 0 00-1.078-.273h-.017z" fill="#172224"/><path d="M76.985 132.05a2.788 2.788 0 101.381 5.403 2.788 2.788 0 00-1.381-5.403z" fill="#D2FC1B"/><path d="M77.616 137.765a3.06 3.06 0 01-1.625-.48 2.858 2.858 0 01-1.283-1.882 2.956 2.956 0 011.207-3.081 2.948 2.948 0 011.068-.46 2.866 2.866 0 012.241.41 2.978 2.978 0 01-.975 5.424c-.209.039-.42.062-.633.069zm0-5.595a3.132 3.132 0 00-.564 0 2.654 2.654 0 00-2.003 2.085 2.55 2.55 0 00.018 1.012 2.618 2.618 0 001.13 1.71 2.575 2.575 0 001.967.36 2.605 2.605 0 002.02-2.082 2.6 2.6 0 00-1.165-2.658 2.583 2.583 0 00-1.403-.427z" fill="#172224"/><path d="M76.76 121.237a2.786 2.786 0 00-1.597 2.656 2.794 2.794 0 001.842 2.491 2.789 2.789 0 10-.246-5.147z" fill="#D2FC1B"/><path d="M77.958 126.746a2.958 2.958 0 01-2.703-1.711 2.994 2.994 0 011.437-3.969c.73-.3 1.547-.3 2.276 0a2.89 2.89 0 011.71 1.54c.324.717.36 1.531.103 2.275a2.888 2.888 0 01-1.557 1.711 2.69 2.69 0 01-1.266.154zm-1.112-5.27a2.603 2.603 0 00.183 4.812 2.605 2.605 0 002.816-.694 2.6 2.6 0 00.423-2.869 2.65 2.65 0 00-1.471-1.351 2.614 2.614 0 00-2.002.102h.051z" fill="#172224"/><path d="M77.582 126.164a2.796 2.796 0 00-1.553 2.684 2.79 2.79 0 101.553-2.684z" fill="#D2FC1B"/><path d="M78.812 131.742a2.974 2.974 0 01-2.934-2.302 2.977 2.977 0 011.617-3.361 2.983 2.983 0 112.634 5.355 3.02 3.02 0 01-1.317.308zm-1.163-5.321a2.598 2.598 0 00-.976 3.921 2.603 2.603 0 004.037.144 2.599 2.599 0 00.36-2.884 2.616 2.616 0 00-3.421-1.181z" fill="#172224"/><path d="M77.293 126.917h-.308l-25.507 1.403h-.6l.206 4.072 25.9-1.42c.839-.137 1.37-.958 1.352-2.104-.017-1.147-.393-1.831-1.043-1.951z" fill="#172224"/><path d="M51.732 127.892a2.787 2.787 0 00-3.883 3.388 2.788 2.788 0 103.883-3.388z" fill="#D2FC1B"/><path d="M50.484 133.453a2.804 2.804 0 01-1.318-.308 2.924 2.924 0 01-1.505-1.711 2.992 2.992 0 01.894-3.293c.31-.261.669-.456 1.056-.574a2.966 2.966 0 012.282.155 2.97 2.97 0 011.499 1.727 2.96 2.96 0 01-2.908 4.004zm0-5.578a2.6 2.6 0 00-1.164 4.928 2.616 2.616 0 003.422-1.164 2.581 2.581 0 00.29-2.07 2.559 2.559 0 00-1.317-1.506 2.463 2.463 0 00-1.214-.273l-.017.085z" fill="#172224"/><path d="M72.91 173.865a2.787 2.787 0 00-3 3.101 2.785 2.785 0 002.01 2.362 2.792 2.792 0 003.54-2.469 2.767 2.767 0 00-1.505-2.7 2.768 2.768 0 00-1.045-.294z" fill="#D2FC1B"/><path d="M72.69 179.648h-.257a2.995 2.995 0 113.216-2.737 3.013 3.013 0 01-2.96 2.737zm0-5.595a2.597 2.597 0 00-2.114 1.13 2.6 2.6 0 003.824 3.456 2.603 2.603 0 00-1.47-4.569l-.24-.017z" fill="#172224"/><path d="M75.27 177.458a2.785 2.785 0 00-2.298 2.076 2.788 2.788 0 102.298-2.076z" fill="#D2FC1B"/><path d="M75.63 183.207a2.98 2.98 0 01-3.11-2.76 2.978 2.978 0 012.683-3.177 2.981 2.981 0 012.24.552 3 3 0 011.182 1.98 2.96 2.96 0 01-2.532 3.422c-.154.015-.31.01-.462-.017zm-.358-5.561a2.598 2.598 0 00-2.151 1.93 2.6 2.6 0 102.15-1.93z" fill="#172224"/><path d="M56.573 209.521a2.802 2.802 0 00-2.061 2.351 2.805 2.805 0 105.482-.4 2.771 2.771 0 00-3.421-1.951z" fill="#D2FC1B"/><path d="M57.329 215.201a2.985 2.985 0 01-2.568-1.483 2.99 2.99 0 01.721-3.851 2.895 2.895 0 011.043-.517 2.975 2.975 0 012.267.273 2.996 2.996 0 011.5 2.958 2.976 2.976 0 01-1.12 1.991 2.992 2.992 0 01-1.04.527c-.262.066-.532.1-.803.102zm-.702-5.492a2.584 2.584 0 00-1.574 1.232 2.554 2.554 0 00-.239 1.968 2.604 2.604 0 002.187 1.888 2.602 2.602 0 002.37-4.181 2.6 2.6 0 00-2.744-.907z" fill="#172224"/><path d="M73.406 199.084a2.787 2.787 0 00-1.753 3.944 2.788 2.788 0 101.753-3.944z" fill="#D2FC1B"/><path d="M74.143 204.765a2.996 2.996 0 01-.787-5.869 2.985 2.985 0 013.67 2.079 2.981 2.981 0 01-2.079 3.67c-.26.081-.531.122-.804.12zm0-5.595a2.563 2.563 0 00-.701.103 2.583 2.583 0 00-1.711 3.199 2.548 2.548 0 001.215 1.574 2.595 2.595 0 003.227-.576 2.606 2.606 0 00.098-3.278 2.604 2.604 0 00-2.042-1.022h-.086z" fill="#172224"/><path d="M68.326 206.561a2.758 2.758 0 00-2.022 2.339c-.043.363-.013.731.088 1.083a2.791 2.791 0 002.347 2.03 2.784 2.784 0 002.77-1.396 2.787 2.787 0 00-3.183-4.056z" fill="#D2FC1B"/><path d="M69.079 212.156a2.995 2.995 0 01-2.6-4.448 2.89 2.89 0 011.71-1.403 2.94 2.94 0 012.276.273 2.991 2.991 0 011.48 2.959 2.997 2.997 0 01-2.148 2.516 3.23 3.23 0 01-.718.103zm0-5.578a2.574 2.574 0 00-.702 0 2.636 2.636 0 00-1.573 1.232 2.554 2.554 0 00-.24 1.968 2.618 2.618 0 001.227 1.575 2.607 2.607 0 102.57-4.535 2.604 2.604 0 00-1.282-.171v-.069z" fill="#172224"/><path d="M76.985 192.309a2.788 2.788 0 101.381 5.403 2.788 2.788 0 00-1.381-5.403z" fill="#D2FC1B"/><path d="M77.599 198.024a3.047 3.047 0 01-1.608-.479 2.903 2.903 0 01-1.283-1.865 2.963 2.963 0 012.275-3.559 2.979 2.979 0 013.541 2.275 2.912 2.912 0 01-.41 2.259 2.974 2.974 0 01-2.515 1.369zm-.616-5.527A2.603 2.603 0 0075 195.594a2.616 2.616 0 001.129 1.711 2.583 2.583 0 001.967.359 2.549 2.549 0 001.71-1.129c.373-.584.502-1.29.36-1.967a2.622 2.622 0 00-1.147-1.719 2.617 2.617 0 00-2.035-.352z" fill="#172224"/><path d="M76.76 181.496a2.804 2.804 0 00-1.629 2.664 2.807 2.807 0 004.876 1.776 2.809 2.809 0 00.465-3.088 2.8 2.8 0 00-1.575-1.447 2.767 2.767 0 00-1.078-.165 2.777 2.777 0 00-1.06.26z" fill="#D2FC1B"/><path d="M77.957 187.005a2.971 2.971 0 01-2.925-2.329 2.975 2.975 0 011.659-3.351 2.99 2.99 0 012.28-.098 2.992 2.992 0 011.68 1.544 2.98 2.98 0 01-1.445 3.96 2.887 2.887 0 01-1.25.274zm0-5.577a2.525 2.525 0 00-1.095.239 2.52 2.52 0 00-1.334 1.472 2.58 2.58 0 000 1.984 2.62 2.62 0 003.421 1.266 2.65 2.65 0 001.352-1.471 2.584 2.584 0 00-2.464-3.422l.12-.068z" fill="#172224"/><path d="M76.983 182.266l-24.72-5.749-.65 2.772 24.72 5.749a.74.74 0 00.65-.257 2.222 2.222 0 00.462-1.968.735.735 0 00-.462-.547z" fill="#172224"/><path d="M52.603 175.371a2.79 2.79 0 00-3.556 3.723 2.79 2.79 0 103.556-3.723z" fill="#D2FC1B"/><path d="M51.594 180.966a3.105 3.105 0 01-1.094-.206 2.985 2.985 0 01-1.711-1.591 2.926 2.926 0 010-2.275 2.856 2.856 0 011.574-1.711 2.95 2.95 0 012.292 0 2.992 2.992 0 01.792 5.066 2.996 2.996 0 01-1.887.7l.034.017zm0-5.595a2.503 2.503 0 00-1.043.222 2.596 2.596 0 00-1.385 1.431 2.602 2.602 0 00.033 1.991 2.65 2.65 0 001.438 1.386 2.594 2.594 0 002.794-.612 2.597 2.597 0 00.541-2.81 2.51 2.51 0 00-1.437-1.369 2.56 2.56 0 00-.94-.239z" fill="#172224"/><path d="M77.582 186.492a2.784 2.784 0 00-1.553 2.683 2.79 2.79 0 004.88 1.657 2.789 2.789 0 00-3.327-4.34z" fill="#D2FC1B"/><path d="M78.812 191.916a2.978 2.978 0 01-1.317-5.664 2.991 2.991 0 012.634 5.373 3.044 3.044 0 01-1.317.291zm-1.163-5.321a2.6 2.6 0 00-1.445 2.508 2.606 2.606 0 003.754 2.162 2.582 2.582 0 001.18-3.421 2.618 2.618 0 00-3.421-1.181l-.068-.068z" fill="#172224"/><path d="M76.982 188.374l-24.771 1.386.086 1.608 24.685-1.352c.154 0 .291-.393.291-.855.015-.27-.05-.538-.188-.77l-.103-.017z" fill="#172224"/><path d="M51.733 188.203a2.79 2.79 0 00-3.923 1.779 2.79 2.79 0 004.08 3.144 2.79 2.79 0 001.109-1.176 2.807 2.807 0 00-1.266-3.747z" fill="#D2FC1B"/><path d="M50.482 193.644c-.46 0-.911-.112-1.317-.325a2.945 2.945 0 01-1.335-3.987 2.974 2.974 0 013.986-1.352 2.993 2.993 0 01.51 5.01 2.99 2.99 0 01-1.844.654zm0-5.595a2.614 2.614 0 00-2.344 1.454 2.601 2.601 0 001.18 3.422 2.603 2.603 0 003.755-2.162 2.603 2.603 0 00-1.445-2.509 2.46 2.46 0 00-1.129-.205h-.017zM61.16 96.634c1.71 3.13 9.871 18.649 9.94 18.82a.459.459 0 00.188 0 1.716 1.716 0 001.197-.65v-.103c-.205-.41-6.432-12.165-9.956-18.82l-1.369.753z" fill="#172224"/><path d="M77.617 192.874c0 .154.907.376.941.205.12-.445.24-.89.325-1.352a2.654 2.654 0 01-.975-.154c-.085.445-.171.856-.29 1.301z" fill="#D2FC1B"/><path d="M78.387 193.336a1.46 1.46 0 01-.428 0c-.137 0-.599-.154-.53-.445.102-.394.188-.804.29-1.283v-.223l.206.086c.293.095.599.141.907.137h.24v.222c-.104.496-.223.958-.326 1.369-.034.091-.154.137-.36.137zm-.565-.514c.185.078.382.124.582.137.085-.325.17-.684.257-1.043h-.616c-.069.273-.137.598-.223.906z" fill="#172224"/><path d="M74.879 199.478c-.12.205.718.599.804.428.41-.719.787-1.438 1.163-2.19a2.691 2.691 0 01-.838-.394 23.77 23.77 0 01-1.13 2.156z" fill="#D2FC1B"/><path d="M75.582 200.179a1.222 1.222 0 01-.856-.462.323.323 0 010-.308c.377-.65.702-1.283 1.112-2.138l.103-.206.188.137a2.4 2.4 0 00.753.377h.24l-.12.205c-.411.838-.77 1.54-1.164 2.207a.272.272 0 01-.257.137v.051zm-.445-.616c.138.117.302.199.479.24.342-.599.667-1.215 1.026-1.934a3.16 3.16 0 01-.479-.239c-.427.719-.752 1.3-1.095 1.899l.069.034z" fill="#172224"/><path d="M70.004 207.023c-.137.188.65.702.753.513.428-.667 1.71-2.669 2.19-3.267a3.94 3.94 0 01-.753-.531c-.342.531-1.71 2.549-2.19 3.285z" fill="#D2FC1B"/><path d="M70.672 207.793a1.193 1.193 0 01-.82-.53.329.329 0 010-.308c.427-.685 1.556-2.327 2.035-3.029l.29-.427.172.137c.21.197.446.364.701.496l.206.102-.137.171c-.445.668-1.711 2.601-2.173 3.268a.338.338 0 01-.274.12zm-.41-.684c.118.14.272.246.445.308.41-.65 1.522-2.293 2.035-3.046a3.938 3.938 0 01-.427-.308c-.599.753-1.694 2.361-2.173 3.046h.12z" fill="#172224"/><path d="M63.724 215.201c-.12.137.428.787.582.616 1.231-1.42 2.343-2.72 3.54-4.157a2.85 2.85 0 01-.683-.514c-1.147 1.438-2.31 2.721-3.439 4.055z" fill="#D2FC1B"/><path d="M64.186 216.108a.651.651 0 01-.36-.171c-.153-.137-.513-.547-.307-.787a33.43 33.43 0 011.01-1.18 97.458 97.458 0 002.36-2.806l.12-.154.154.137c.196.185.414.346.65.479l.222.102-.154.188a265.155 265.155 0 01-3.541 4.158.305.305 0 01-.154.034zm-.342-.753c.084.135.187.256.308.36 1.317-1.523 2.344-2.721 3.421-3.935a1.908 1.908 0 01-.376-.291c-.736.906-1.506 1.711-2.241 2.652l-1.027 1.18-.085.034z" fill="#172224"/><path d="M59.055 220.71c-.564.685-1.129 1.318-1.71 2.002-.172.171.393.702.581.514.496-.565 1.01-1.13 1.505-1.711l1.711-1.951a3.583 3.583 0 01-.718-.393l-1.369 1.539z" fill="#D2FC1B"/><path d="M57.825 223.499h-.103a.98.98 0 01-.582-.547.36.36 0 010-.325l.787-.907.924-1.078.684-.821.616-.719.12-.137.137.12c.21.15.441.271.684.36l.24.102-.206.24-1.71 1.899c-.342.41-.702.804-1.061 1.215l-.445.513a.342.342 0 01-.085.085zm-.308-.65a.532.532 0 00.29.257l.428-.479 1.06-1.215 1.49-1.711a2.063 2.063 0 01-.377-.205l-.513.599-.685.804c-.325.376-.616.736-.94 1.095l-.753.855zm20.1-29.975c0 .154.907.376.941.205.12-.445.24-.89.325-1.352a2.654 2.654 0 01-.975-.154c-.085.445-.171.856-.29 1.301zm-2.738 6.604c-.12.205.718.599.804.428.41-.719.787-1.438 1.163-2.19a2.691 2.691 0 01-.838-.394 23.77 23.77 0 01-1.13 2.156zm-4.875 7.545c-.137.188.65.702.753.513.428-.667 1.71-2.669 2.19-3.267a3.94 3.94 0 01-.753-.531c-.342.531-1.71 2.549-2.19 3.285zm-6.28 8.178c-.12.137.428.787.582.616 1.231-1.42 2.343-2.72 3.54-4.157a2.85 2.85 0 01-.683-.514c-1.147 1.438-2.31 2.721-3.439 4.055z" fill="#172224"/><path d="M59.055 220.71c-.564.685-1.129 1.318-1.71 2.002-.172.171.393.702.581.514.496-.565 1.01-1.13 1.505-1.711l1.711-1.951a3.583 3.583 0 01-.718-.393l-1.369 1.539z" fill="#172224"/><path d="M77.617 132.598c0 .154.907.376.941.222.12-.462.24-.89.325-1.352a3.105 3.105 0 01-.975-.154c-.085.428-.171.856-.29 1.284zm-2.738 6.604c-.12.222.718.616.804.445.41-.719.787-1.438 1.163-2.19a3.168 3.168 0 01-.838-.394c-.34.732-.716 1.446-1.13 2.139zm-4.875 7.596c-.137.189.65.685.753.496.428-.667 1.71-2.669 2.19-3.267a3.24 3.24 0 01-.753-.514c-.342.496-1.71 2.515-2.19 3.285zm-6.28 8.144c-.12.137.428.787.582.616a381.814 381.814 0 003.54-4.157 3.433 3.433 0 01-.683-.514c-1.147 1.386-2.31 2.721-3.439 4.055zm-4.669 5.527c-.564.701-1.129 1.317-1.71 2.019-.172.171.393.701.581.513l1.505-1.711 1.711-1.933a3.638 3.638 0 01-.718-.394l-1.369 1.506zm-5.935 44.227c0-.171-.77 0-.702.205a38.123 38.123 0 002.327 4.723c.137.222.29.513.445.752a3.12 3.12 0 01.53-.479 35.72 35.72 0 01-2.498-4.824l-.102-.377zm-2.772-11.771h-.497c.094 2.443.415 4.871.959 7.254l.29-.171.428-.171a36.356 36.356 0 01-1.095-5.886c-.034-.325-.068-.615-.085-1.026zm.6-13.055a.786.786 0 00-.274 0 .354.354 0 00-.188 0s-.103.001-.12.103l-.257 1.626c-.085.53-.17 1.077-.239 1.71-.205 1.711-.342 3.217-.393 4.842h.24c.178-.052.361-.086.547-.102 0-.531 0-1.044.085-1.557.086-.513.086-1.078.137-1.608.051-.531.12-1.078.188-1.626.069-.547.154-1.078.223-1.608 0-.274.102-.531.136-.804a3.807 3.807 0 000-.394c0-.12.086-.239 0-.342l-.085-.24zm3.799-14.269a34.929 34.929 0 00-2.943 7.768c-.154.599-.29 1.215-.445 1.814h.822c.085-.36.136-.634.239-.993a39.36 39.36 0 013.096-8.418c.274-.359-.53-.547-.77-.171z" opacity=".6" fill="#172224"/><path d="M61.414 94.272a2.789 2.789 0 101.476 5.379 2.789 2.789 0 00-1.476-5.379z" fill="#D2FC1B"/><path d="M62.152 99.936a2.977 2.977 0 01-.787-5.835 2.982 2.982 0 111.59 5.75 3.15 3.15 0 01-.803.085zm-.684-5.492a2.6 2.6 0 103.198 1.813 2.618 2.618 0 00-3.198-1.813z" fill="#172224"/><path d="M77.617 72.595c0 .154.907.377.941.222.12-.461.24-.89.325-1.351a3.106 3.106 0 01-.975-.154c-.085.428-.171.855-.29 1.283z" fill="#D2FC1B"/><path d="M78.387 73.057a1.453 1.453 0 01-.428 0c-.154 0-.599-.154-.53-.428.103-.376.188-.787.29-1.266v-.222h.206c.29.11.597.161.907.154h.24v.222c-.103.496-.223.941-.326 1.369-.051.103-.154.171-.359.171zm-.564-.513c.178.077.37.124.564.137.085-.325.171-.668.257-1.044a2.326 2.326 0 01-.616 0c-.052.222-.12.599-.206.907z" fill="#172224"/><path d="M74.879 79.2c-.12.222.718.615.804.444a44.33 44.33 0 001.163-2.19 3.144 3.144 0 01-.838-.393 23.56 23.56 0 01-1.13 2.138z" fill="#D2FC1B"/><path d="M75.582 79.866c-.333-.03-.64-.19-.856-.444a.324.324 0 010-.308c.377-.65.719-1.3 1.112-2.139l.103-.205.188.136c.232.157.485.278.753.36h.24l-.12.222a31.14 31.14 0 01-1.164 2.19s0 .137-.256.137v.051zm-.445-.615c.134.123.3.206.479.239a39.1 39.1 0 001.026-1.933 2.446 2.446 0 01-.479-.223 21.617 21.617 0 01-1.095 1.916h.069z" fill="#172224"/><path d="M70.004 86.779c-.137.188.65.701.753.513.428-.667 1.71-2.67 2.19-3.268a3.893 3.893 0 01-.753-.513c-.342.479-1.71 2.498-2.19 3.268z" fill="#D2FC1B"/><path d="M70.672 87.531a1.248 1.248 0 01-.82-.547.324.324 0 010-.308 189.33 189.33 0 012.035-3.028l.29-.428.172.154c.21.192.446.353.701.479l.206.103-.137.188c-.342.513-1.711 2.566-2.173 3.25a.308.308 0 01-.274.137zm-.41-.684a.89.89 0 00.445.29c.427-.666 1.574-2.36 2.035-3.045a2.467 2.467 0 01-.427-.308v.086c-.599.684-1.694 2.275-2.173 2.977h.12z" fill="#172224"/><path d="M63.724 94.94c-.12.137.428.787.582.599a266.664 266.664 0 003.54-4.14 3.422 3.422 0 01-.683-.514c-1.147 1.505-2.31 2.72-3.439 4.055z" fill="#D2FC1B"/><path d="M64.186 95.812a.496.496 0 01-.342-.17c-.171-.12-.53-.531-.325-.788l1.026-1.198c.787-.906 1.591-1.83 2.344-2.771l.12-.154.153.137c.201.18.419.34.65.479l.223.102-.154.189-3.473 4.174a.308.308 0 01-.222 0zm-.342-.787c0 .103.205.325.308.394.975-1.112 2.104-2.447 3.421-3.918l-.376-.291c-.736.89-1.489 1.71-2.224 2.618l-1.044 1.214-.137-.12.103.138s-.051 0-.051-.018v-.017z" fill="#172224"/><path d="M59.055 100.466c-.564.702-1.129 1.317-1.71 2.002-.172.188.393.718.581.53l1.505-1.711 1.711-1.933a3.606 3.606 0 01-.718-.394l-1.369 1.506z" fill="#D2FC1B"/><path d="M57.823 103.221h-.103a.914.914 0 01-.581-.565.344.344 0 010-.325l.787-.907.923-1.095.685-.804.616-.719.12-.136.136.102c.211.15.441.27.684.36l.24.102-.205.24-1.711 1.899c-.342.428-.718.838-1.078 1.249l-.428.479a.345.345 0 01-.085.12zm-.308-.565a.508.508 0 00.29.274l.394-.462 1.095-1.232 1.489-1.711a2.034 2.034 0 01-.377-.205l-.53.599-.667.787c-.325.376-.616.735-.941 1.095l-.753.855zm20.102-30.061c0 .154.907.377.941.222.12-.461.24-.89.325-1.351a3.106 3.106 0 01-.975-.154c-.085.428-.171.855-.29 1.283zM74.879 79.2c-.12.222.718.615.804.444a44.33 44.33 0 001.163-2.19 3.144 3.144 0 01-.838-.393 23.56 23.56 0 01-1.13 2.138zm-4.875 7.579c-.137.188.65.701.753.513.428-.667 1.71-2.67 2.19-3.268a3.893 3.893 0 01-.753-.513c-.342.479-1.71 2.498-2.19 3.268zm-6.28 8.161c-.12.137.428.787.582.599a266.664 266.664 0 003.54-4.14 3.422 3.422 0 01-.683-.514c-1.147 1.505-2.31 2.72-3.439 4.055z" fill="#172224"/><path d="M59.055 100.466c-.564.702-1.129 1.317-1.71 2.002-.172.188.393.718.581.53l1.505-1.711 1.711-1.933a3.606 3.606 0 01-.718-.394l-1.369 1.506z" fill="#172224"/><path d="M53.12 84.435c0-.188-.77 0-.702.188a36.964 36.964 0 002.327 4.722c.137.24.29.53.445.753a3.03 3.03 0 01.53-.462 35.93 35.93 0 01-2.498-4.842l-.102-.36zm-2.77-11.772h-.342v.086c.198 2.388.61 4.752 1.231 7.066l.291-.17.428-.172a36.587 36.587 0 01-1.095-5.903c-.462-.205-.496-.564-.513-.906zm.598-13.054a.806.806 0 00-.274 0h-.188s-.103 0-.12.103l-.257 1.625c-.085.548-.17 1.078-.239 1.711a51.638 51.638 0 00-.393 4.86h.24c.178-.053.361-.088.547-.104 0-.513 0-1.026.085-1.54.086-.513.086-1.077.137-1.71.051-.633.12-1.078.188-1.609.069-.53.154-1.078.223-1.608.068-.53.102-.547.136-.804v-.41c0-.12.086-.24 0-.326l-.085-.188zm3.8-14.269a34.614 34.614 0 00-2.909 7.699c-.154.599-.29 1.215-.444 1.814h.821c.085-.36.136-.633.24-1.01a39.747 39.747 0 013.096-8.418c.24-.273-.565-.479-.804-.085zm5.764-7.7c-.343.223-2.413 2.824-3.2 3.833.262.131.504.298.719.496.479-.787 2.925-3.559 3.028-3.73.103-.17-.205-.804-.547-.598zm7.371-7.87c-.376.291-3.147 3.542-4.242 4.671.254.181.48.4.667.65 0 0 4.071-4.448 4.294-4.67.222-.223-.342-.941-.719-.65z" opacity=".6" fill="#172224"/><path d="M53.12 144.437c0-.171-.77 0-.702.188a37.194 37.194 0 002.327 4.74c.137.222.29.513.445.735a3.03 3.03 0 01.53-.462 35.672 35.672 0 01-2.498-4.825l-.102-.376z" fill="#D2FC1B"/><path d="M55.206 150.408l-.137-.205-.325-.462-.154-.291c-.92-1.515-1.72-3.1-2.395-4.739 0-.171 0-.36.308-.479.308-.12.633-.12.736.137v.359a38.24 38.24 0 002.48 4.808l.103.154-.154.102c-.18.132-.346.281-.496.445l.034.171zm-2.583-5.783a33.663 33.663 0 002.344 4.637l.154.291.154.256.24-.222a40.246 40.246 0 01-2.481-4.705 1.18 1.18 0 00-.086-.223v-.102a.574.574 0 00-.325.068z" fill="#172224"/><path d="M50.346 132.666h-.291c.198 2.387.61 4.752 1.231 7.066l.291-.171.428-.171a36.224 36.224 0 01-1.095-5.903c-.513-.034-.547-.479-.564-.821z" fill="#D2FC1B"/><path d="M50.725 140.297v-.24a39.823 39.823 0 01-1.248-7.1v-.223h.342v.377h-.12l-.12.085c.19 2.311.58 4.6 1.163 6.844h.103l.257-.12a38.801 38.801 0 01-1.044-5.766c0-.308 0-.633-.085-.941h-.086v-.376h.308c.04.024.07.06.086.103 0 .342 0 .701.085 1.043a38.07 38.07 0 001.078 5.869v.171h-.171a1.856 1.856 0 00-.394.154l-.24.137.086-.017z" fill="#172224"/><path d="M50.948 119.611a.786.786 0 00-.274 0 .354.354 0 00-.188 0s-.103 0-.12.103l-.257 1.711c-.085.548-.17 1.095-.239 1.625-.205 1.711-.342 3.234-.393 4.859h.24a5.08 5.08 0 01.547-.102c0-.513 0-1.027.085-1.54.086-.513.086-1.078.137-1.711.051-.633.12-1.078.188-1.608.069-.531.154-1.078.223-1.609 0-.273.102-.547.136-.804a3.42 3.42 0 000-.41c0-.103.086-.24 0-.325l-.085-.189z" fill="#D2FC1B"/><path d="M49.27 128.063v-.273c0-1.711.188-3.217.393-4.877 0-.547.154-1.095.24-1.71l.256-1.711a.31.31 0 01.24-.24.652.652 0 01.256 0h.342a.405.405 0 01.306.319.446.446 0 01-.015.246v.445c0 .256-.085.53-.12.804-.034.273-.17 1.06-.24 1.591-.067.53-.136 1.078-.187 1.608a38.778 38.778 0 00-.137 1.711c-.034.633 0 1.027-.086 1.54v.171h-.154a1.698 1.698 0 00-.513 0h-.188l-.393.376zm1.283-8.298c-.086.514-.189 1.044-.257 1.574-.069.531-.171 1.078-.24 1.711a52.62 52.62 0 00-.376 4.551h.394c0-.479 0-.941.085-1.403.086-.461.086-1.077.137-1.71.051-.633.12-1.078.188-1.609.069-.53.154-1.078.24-1.711 0-.273.085-.53.12-.804l.085-.462a.25.25 0 000-.102.491.491 0 00-.223 0l-.153-.035z" fill="#172224"/><path d="M54.743 105.342a34.929 34.929 0 00-2.943 7.768c-.154.599-.29 1.215-.444 1.813h.821c.085-.359.136-.633.24-1.009a39.748 39.748 0 013.096-8.418c.273-.342-.53-.53-.77-.154z" fill="#D2FC1B"/><path d="M52.346 115.232h-1.198l.171-.736c.103-.445.223-.89.343-1.335a34.952 34.952 0 012.942-7.819.687.687 0 01.924-.205.437.437 0 01.234.265.431.431 0 01-.046.351 38.932 38.932 0 00-3.08 8.384 4.439 4.439 0 00-.136.564c0 .137 0 .291-.12.445l-.034.086zm-.719-.497h.445v-.256c0-.171.086-.36.137-.565a38.615 38.615 0 013.13-8.469v-.12a.383.383 0 00-.205-.061.383.383 0 00-.205.061 35.528 35.528 0 00-2.908 7.734c-.12.427-.223.872-.325 1.317l-.069.359zm1.493 29.702c0-.171-.77 0-.702.188a37.194 37.194 0 002.327 4.74c.137.222.29.513.445.735a3.03 3.03 0 01.53-.462 35.672 35.672 0 01-2.498-4.825l-.102-.376zm-2.774-11.771h-.291c.198 2.387.61 4.752 1.231 7.066l.291-.171.428-.171a36.224 36.224 0 01-1.095-5.903c-.513-.034-.547-.479-.564-.821zm.602-13.055a.786.786 0 00-.274 0 .354.354 0 00-.188 0s-.103 0-.12.103l-.257 1.711c-.085.548-.17 1.095-.239 1.625-.205 1.711-.342 3.234-.393 4.859h.24a5.08 5.08 0 01.547-.102c0-.513 0-1.027.085-1.54.086-.513.086-1.078.137-1.711.051-.633.12-1.078.188-1.608.069-.531.154-1.078.223-1.609 0-.273.102-.547.136-.804a3.42 3.42 0 000-.41c0-.103.086-.24 0-.325l-.085-.189z" fill="#172224"/><path d="M54.743 105.342a34.929 34.929 0 00-2.943 7.768c-.154.599-.29 1.215-.444 1.813h.821c.085-.359.136-.633.24-1.009a39.748 39.748 0 013.096-8.418c.273-.342-.53-.53-.77-.154zm4.277-15.569v.154a1.71 1.71 0 00.735 1.18h.12l15.243-9.341-.873-1.352-15.226 9.359zm17.964-21.661l-24.789 1.369.086 1.608 24.703-1.351c.137 0 .29-.377.29-.856a1.42 1.42 0 00-.188-.77h-.102zm-22.839 72.561v.137a1.608 1.608 0 00.427 1.335h.086l22.24-6.57-.48-1.557c-3.61 1.146-22.017 6.57-22.273 6.655zm22.651-18.084l-24.105-5.595-.359 1.574 24.07 5.595h.12a1.575 1.575 0 00.308-1.369s-.052-.205-.034-.205zm-3.234 78.566l-14.541 8.879a.24.24 0 000 .154 1.705 1.705 0 00.735 1.198h.12l14.558-8.897a.822.822 0 00.274-1.112.812.812 0 00-.525-.358.806.806 0 00-.621.136z" fill="#172224"/><path d="M61.452 214.26a22.202 22.202 0 01-2.156 2.242 2.755 2.755 0 000 1.232 2.782 2.782 0 002.291 2.057 2.783 2.783 0 002.789-1.306 2.79 2.79 0 00-2.993-4.173l.069-.052z" fill="#D2FC1B"/><path d="M62.049 219.958a2.984 2.984 0 01-1.803-.602 2.983 2.983 0 01-1.071-1.571 2.86 2.86 0 010-1.318c.754-.7 1.468-1.442 2.138-2.224a2.98 2.98 0 013.619 2.731c.034.575-.1 1.148-.386 1.649a3.06 3.06 0 01-1.71 1.403 3.408 3.408 0 01-.787-.068zm-2.566-3.422a2.55 2.55 0 000 1.078 2.62 2.62 0 003.216 1.711 2.528 2.528 0 001.556-1.215 2.6 2.6 0 00-2.668-3.679 23.028 23.028 0 01-2.105 2.173v-.068z" fill="#172224"/><path d="M55.683 101.236a2.805 2.805 0 103.165 2.378 2.8 2.8 0 00-1.087-1.848 2.791 2.791 0 00-2.078-.53z" fill="#D2FC1B"/><path d="M56.078 106.985a3.064 3.064 0 01-2.943-2.618 2.907 2.907 0 01.565-2.207 2.968 2.968 0 011.967-1.181 3 3 0 012.239.553 2.985 2.985 0 011.182 1.98 3.01 3.01 0 01-2.514 3.422l-.496.051zm-.36-5.561a2.568 2.568 0 00-1.71 1.027 2.515 2.515 0 00-.497 1.916 2.65 2.65 0 001.01 1.711 2.7 2.7 0 001.933.513 2.633 2.633 0 002.207-2.96 2.616 2.616 0 00-2.943-2.207z" fill="#172224"/><path d="M52.603 115.112a2.782 2.782 0 00-3.018.676 2.785 2.785 0 00-.538 3.046 2.787 2.787 0 005.147-.095 2.806 2.806 0 00-1.59-3.627z" fill="#D2FC1B"/><path d="M51.597 120.689a2.757 2.757 0 01-1.095-.205 2.985 2.985 0 01-1.884-2.723 2.982 2.982 0 012.93-3.028c.391-.007.78.064 1.144.208a2.973 2.973 0 011.838 3.328 2.976 2.976 0 01-2.933 2.42zm0-5.577a2.598 2.598 0 00-2.054 4.178 2.601 2.601 0 102.054-4.178zm11.786 39.659l-.273-.53-3.61 1.882 10.538 19.932a1.301 1.301 0 001.163.65h.086a2.853 2.853 0 002.241-1.232 1.297 1.297 0 00.137-1.283l-10.282-19.419z" fill="#172224"/><path d="M55.684 221.771a2.785 2.785 0 00-2.298 2.076 2.79 2.79 0 002.558 3.469 2.788 2.788 0 10-.26-5.545z" fill="#D2FC1B"/><path d="M56.077 227.554a2.972 2.972 0 01-3.082-2.769 2.977 2.977 0 012.672-3.168 2.995 2.995 0 01.786 5.937h-.376zm-.36-5.56a2.595 2.595 0 00-2.15 1.929 2.601 2.601 0 00.953 2.725 2.564 2.564 0 001.933.496 2.602 2.602 0 001.07-4.556 2.598 2.598 0 00-1.805-.577v-.017z" fill="#172224"/><path d="M61.295 153.984a2.803 2.803 0 00-2.06 2.351 2.803 2.803 0 002.986 3.159 2.8 2.8 0 002.462-1.926 2.805 2.805 0 00.034-1.633 2.77 2.77 0 00-3.422-1.951z" fill="#D2FC1B"/><path d="M62.031 159.699a2.993 2.993 0 01-1.454-.394 2.845 2.845 0 01-1.403-1.711 2.96 2.96 0 012.07-3.661 2.94 2.94 0 012.276.274 3.01 3.01 0 011.402 1.71 2.963 2.963 0 01-.273 2.259 3.01 3.01 0 01-1.814 1.42 3.162 3.162 0 01-.804.103zm0-5.595c-.237 0-.474.035-.701.103a2.594 2.594 0 00-1.889 2.192 2.6 2.6 0 004.848 1.589 2.603 2.603 0 00-.963-3.537 2.603 2.603 0 00-1.295-.347z" fill="#172224"/><path d="M86.836 212.686l-11.975-5.817-11.565 6.519a2.998 2.998 0 01-2.96 0L44.17 203.96l-9.237 7.392-8.554 16.408 33.838 19.727a2.998 2.998 0 002.96 0l34.745-19.779-11.086-15.022z" fill="#C2C7CB"/><path d="M61.808 248.086a3.237 3.237 0 01-1.574-.411l-33.941-19.881v-.12l8.554-16.442 9.306-7.442 16.252 9.461a2.82 2.82 0 002.823 0l11.53-6.553 12.078 5.869 11.256 15.141h-.137l-34.659 19.899a3.012 3.012 0 01-1.488.479zm-35.156-20.395l33.719 19.659a2.82 2.82 0 002.822 0l34.626-19.693-11.069-14.885-11.975-5.783-11.393 6.502a3.135 3.135 0 01-3.097 0l-16.08-9.376-9.153 7.305-8.4 16.271z" fill="#172224"/><path d="M74.807 206.869l-11.513 6.519a2.998 2.998 0 01-2.96 0l-16.166-9.428-9.238 7.392 25.319 14.765a2.988 2.988 0 002.959 0l23.574-13.431-11.975-5.817z" fill="#DBE0E6"/><path d="M61.789 226.63a3.057 3.057 0 01-1.557-.427l-25.49-14.851 9.46-7.563h.086l16.166 9.428a2.83 2.83 0 002.823 0l11.53-6.553 12.25 5.937-.223.12-23.54 13.499a3.097 3.097 0 01-1.505.41zM35.22 211.232l25.148 14.663a2.83 2.83 0 002.823 0l23.368-13.294-11.752-5.578-11.394 6.502a3.135 3.135 0 01-3.096 0l-16.081-9.376-9.016 7.083z" fill="#172224"/><path d="M34.691 211.01l1.198.701 9.118-7.152-2.378-1.386-7.938 7.837zm52.775 1.18l-1.231.702-11.77-5.681 1.642-.941 11.36 5.92z" fill="#DBE0E6"/><path d="M35.427 211.745l-1.026-.599-8.143 16.323.735.427 8.434-16.151zm51.05 1.301l1.197-.668 10.76 14.937-1.18.667-10.777-14.936zm.359-55.554l-11.975-5.818-11.565 6.519a2.957 2.957 0 01-2.96 0l-16.166-9.427-9.237 7.391-8.554 6.844 33.838 19.727a2.998 2.998 0 002.96 0l34.83-19.813-11.17-5.423z" fill="#C2C7CB"/><path d="M61.806 183.207a3.237 3.237 0 01-1.574-.411l-34.01-19.83 17.98-14.371 16.252 9.461a2.82 2.82 0 002.823 0l11.53-6.553 23.42 11.361-34.933 19.949a3.011 3.011 0 01-1.488.394zm-35.104-20.275l33.667 19.625a2.83 2.83 0 002.822 0l34.54-19.625-22.924-11.104-11.393 6.485a3.135 3.135 0 01-3.096 0l-16.081-9.462-17.535 14.081z" fill="#172224"/><path d="M74.807 151.674l-11.513 6.519a2.958 2.958 0 01-2.96 0l-16.166-9.427-9.238 7.391 25.319 14.765a2.989 2.989 0 002.959 0l23.574-13.43-11.975-5.818z" fill="#DBE0E6"/><path d="M61.789 171.436a3.217 3.217 0 01-1.557-.411l-25.49-14.868 9.46-7.562h.086l16.166 9.41a2.82 2.82 0 002.823 0l11.53-6.553 12.25 5.937-.223.12-23.54 13.585a3.27 3.27 0 01-1.505.342zM35.22 156.037L60.37 170.7a2.82 2.82 0 002.823 0l23.368-13.191-11.752-5.681-11.394 6.485a3.136 3.136 0 01-3.096 0l-16.081-9.462-9.016 7.186z" fill="#172224"/><path d="M34.691 155.815l1.198.701 9.118-7.151-2.378-1.386-7.938 7.836zm52.775 1.18l-1.231.702-11.77-5.681 1.642-.923 11.36 5.902z" fill="#DBE0E6"/><path d="M35.427 156.55l-1.026-.598-8.143 6.724.735.427 8.434-6.553zm51.05 1.301l1.197-.667 10.76 5.338-1.18.667-10.777-5.338zm.358-55.537L74.86 96.48l-11.564 6.518a2.958 2.958 0 01-2.96 0l-16.166-9.41-9.187 7.357-8.553 6.844 33.872 19.693a2.998 2.998 0 002.96 0l34.745-19.693-11.172-5.475z" fill="#C2C7CB"/><path d="M61.806 128.029a3.235 3.235 0 01-1.574-.428l-34.01-19.812 17.98-14.372 16.252 9.479a2.83 2.83 0 002.823 0l11.53-6.553 23.489 11.446-35.002 19.83a3.053 3.053 0 01-1.488.41zm-35.104-20.24l33.667 19.59a2.851 2.851 0 002.822 0l34.54-19.59-22.924-11.104-11.393 6.484a3.074 3.074 0 01-3.096 0l-16.081-9.376-17.535 13.996z" fill="#172224"/><path d="M74.81 96.48l-11.513 6.518a2.957 2.957 0 01-2.96 0l-16.166-9.41-9.187 7.357 25.32 14.766a2.967 2.967 0 002.959 0l23.574-13.397L74.81 96.48z" fill="#DBE0E6"/><path d="M61.789 116.343a3.225 3.225 0 01-1.557-.427l-25.49-14.971 9.46-7.562h.086l16.166 9.427a2.82 2.82 0 002.823 0l11.53-6.553 12.25 5.937-.223.137-23.54 13.516c-.45.293-.969.464-1.505.496zM35.22 100.945l25.148 14.663a2.79 2.79 0 002.823 0l23.368-13.294-11.752-5.68-11.394 6.484a3.083 3.083 0 01-3.096 0l-16.081-9.376-9.016 7.203z" fill="#172224"/><path d="M34.691 100.62l1.198.719 9.118-7.17-2.378-1.368-7.938 7.819zm52.775 1.198l-1.231.684-11.77-5.68 1.642-.924 11.36 5.92z" fill="#DBE0E6"/><path d="M35.427 101.373l-1.026-.616-8.143 6.724.735.428 8.434-6.536zm51.05 1.3l1.197-.684 10.76 5.338-1.18.667-10.777-5.321z" fill="#C2C7CB"/><path d="M102.796 133.675a2.926 2.926 0 01-1.489 2.875l-4.67 2.669-33.342 18.923a2.967 2.967 0 01-2.96 0l-33.94-19.83-4.67-2.72a2.945 2.945 0 01-1.42-3.114v-28.111L60.3 127.721a2.989 2.989 0 002.96 0l39.535-22.481v28.435z" fill="url(#paint1_linear_6741_1020)"/><path d="M102.796 78.412a2.94 2.94 0 01-1.489 2.874l-4.67 2.67-33.342 18.923a2.967 2.967 0 01-2.96 0l-33.94-19.83-4.67-2.635a2.942 2.942 0 01-1.42-3.114V26.981L60.3 50.284a2.96 2.96 0 002.96 0l39.535-22.464v50.592z" fill="url(#paint2_linear_6741_1020)"/><path d="M102.796 188.767a2.925 2.925 0 01-1.489 2.858l-4.67 2.669-33.342 18.923a2.967 2.967 0 01-2.96 0l-33.94-19.881-4.67-2.721a2.943 2.943 0 01-1.42-3.114v-28.025l39.996 23.32a2.989 2.989 0 002.96 0l39.535-22.481v28.452z" fill="url(#paint3_linear_6741_1020)"/><path d="M90.994 159.117a3.28 3.28 0 00-1.283 3.165c.205 1.181 1.129 1.711 2.053 1.078a3.28 3.28 0 001.283-3.165c-.206-1.078-1.13-1.608-2.053-1.078z" fill="#D2FC1B"/><path d="M90.992 163.942a1.502 1.502 0 01-.564-.12 1.831 1.831 0 01-.992-1.437 3.526 3.526 0 011.42-3.422 1.54 1.54 0 011.47-.171 1.83 1.83 0 01.993 1.437 3.526 3.526 0 01-1.42 3.422 1.707 1.707 0 01-.907.291zm.154-4.551a2.976 2.976 0 00-1.163 2.891 1.25 1.25 0 00.667 1.027.994.994 0 00.958-.12 3.011 3.011 0 001.164-2.892 1.249 1.249 0 00-.668-1.026.995.995 0 00-.958.12z" fill="#172224"/><path d="M85.345 162.265a3.28 3.28 0 00-1.283 3.165c.206 1.181 1.13 1.711 2.053 1.095a3.285 3.285 0 001.283-3.182c-.154-1.164-1.129-1.66-2.053-1.078z" fill="#fff"/><path d="M85.347 167.039a1.356 1.356 0 01-.564-.12 1.881 1.881 0 01-.992-1.437 3.58 3.58 0 011.42-3.422 1.587 1.587 0 011.471-.171 1.87 1.87 0 01.992 1.454 3.422 3.422 0 01-1.403 3.422 1.711 1.711 0 01-.924.274zm.788-4.74c-.217.028-.423.11-.6.24a3.027 3.027 0 00-1.163 2.891 1.354 1.354 0 00.668 1.044 1.044 1.044 0 00.958-.137 2.958 2.958 0 001.163-2.891 1.317 1.317 0 00-.667-1.027.733.733 0 00-.36-.12z" fill="#172224"/><path d="M78.144 165.122a3.266 3.266 0 00-1.283 3.165c.205 1.181 1.129 1.711 2.052 1.095a3.297 3.297 0 001.284-3.165c-.206-1.18-1.13-1.676-2.053-1.095z" fill="#DBE0E6"/><path d="M78.144 169.947a1.38 1.38 0 01-.582-.137 1.842 1.842 0 01-1.01-1.454 3.575 3.575 0 011.42-3.422 1.539 1.539 0 011.523-.171 1.843 1.843 0 011.01 1.454 3.594 3.594 0 01-1.438 3.422 1.71 1.71 0 01-.923.308zm.77-4.756a1.094 1.094 0 00-.6.205 2.963 2.963 0 00-1.146 2.84 1.297 1.297 0 00.65 1.01.978.978 0 00.924-.137 2.999 2.999 0 001.146-2.84 1.3 1.3 0 00-.65-1.01.98.98 0 00-.325-.068z" fill="#172224"/><path d="M90.994 103.7a3.283 3.283 0 00-1.283 3.165c.205 1.181 1.129 1.711 2.053 1.095a3.319 3.319 0 001.283-3.182c-.206-1.181-1.13-1.66-2.053-1.078z" fill="#D2FC1B"/><path d="M90.992 108.473a1.502 1.502 0 01-.564-.12 1.82 1.82 0 01-.992-1.437 3.522 3.522 0 011.42-3.422 1.54 1.54 0 011.47-.171 1.832 1.832 0 01.993 1.437 3.525 3.525 0 01-1.42 3.422 1.707 1.707 0 01-.907.291zm.154-4.551a2.976 2.976 0 00-1.163 2.892 1.249 1.249 0 00.684.975.994.994 0 00.958-.12 3.014 3.014 0 001.164-2.891 1.252 1.252 0 00-.668-1.027.995.995 0 00-.957.12l-.018.051z" fill="#172224"/><path d="M85.348 106.796a3.305 3.305 0 00-1.283 3.166c.205 1.18 1.129 1.711 2.053 1.095a3.286 3.286 0 001.283-3.183c-.154-1.163-1.13-1.659-2.053-1.078z" fill="#fff"/><path d="M85.349 111.57a1.325 1.325 0 01-.565-.12 1.875 1.875 0 01-.958-1.437 3.576 3.576 0 011.42-3.422 1.542 1.542 0 011.471-.154 1.813 1.813 0 01.992 1.437 3.422 3.422 0 01-1.403 3.422c-.285.185-.618.28-.957.274zm.786-4.739a1.157 1.157 0 00-.633.205 2.978 2.978 0 00-1.163 2.874 1.347 1.347 0 00.667 1.044 1.077 1.077 0 00.975-.137 2.989 2.989 0 001.147-2.891 1.316 1.316 0 00-.668-1.027.702.702 0 00-.325-.068z" fill="#172224"/><path d="M78.143 109.654a3.285 3.285 0 00-1.283 3.268c.205 1.163 1.129 1.711 2.052 1.078a3.305 3.305 0 001.284-3.166c-.206-1.334-1.13-1.762-2.053-1.18z" fill="#DBE0E6"/><path d="M78.144 114.479c-.202-.003-.4-.05-.582-.137a1.853 1.853 0 01-1.01-1.454 3.58 3.58 0 011.42-3.422 1.54 1.54 0 011.523-.171 1.843 1.843 0 011.01 1.454 3.594 3.594 0 01-1.438 3.422 1.71 1.71 0 01-.923.308zm.77-4.757a1.1 1.1 0 00-.6.206 2.951 2.951 0 00-1.146 2.84 1.283 1.283 0 00.65 1.009 1.015 1.015 0 00.924-.12 3.024 3.024 0 001.146-2.857 1.301 1.301 0 00-.65-1.009 1.006 1.006 0 00-.325-.069z" fill="#172224"/><path d="M43.74 232.003l-30.674-17.486v-11.344l30.674 17.503v11.327z" fill="#DBE0E6"/><path d="M43.86 232.242l-.188-.12-30.793-17.537v-11.634l.205.103 30.793 17.537-.017 11.651zm-30.656-17.811l30.4 17.349v-11.069l-30.4-17.298v11.018z" fill="#172224"/><path d="M14.127 213.456l29.613 16.887v1.66l-30.674-17.486v-11.344l1.061.616v9.667z" fill="#172224"/><path d="M41.794 222.764l-1.677-.941v-1.694l1.677.958v1.677z" fill="#C2C7CB"/><path d="M41.91 223.003l-1.933-1.112v-2.002l1.933 1.112v2.002zm-1.711-1.266l1.403.804v-1.386l-1.403-.804v1.386z" fill="#172224"/><path d="M41.794 225.227l-1.677-.958v-1.676l1.677.941v1.693z" fill="#D2FC1B"/><path d="M41.962 225.553l-2.036-1.164v-2.121l2.035 1.163v2.122zm-1.711-1.386l1.3.753v-1.267l-1.3-.752v1.266z" fill="#172224"/><path d="M41.794 227.691l-1.677-.958v-1.694l1.677.958v1.694z" fill="#C2C7CB"/><path d="M41.91 227.914l-1.933-1.095v-2.002l1.933 1.095v2.002zm-1.711-1.249l1.403.787v-1.369l-1.403-.804v1.386z" fill="#172224"/><path d="M39.398 221.429l-1.66-.941v-1.694l1.66.941v1.694z" fill="#C2C7CB"/><path d="M39.532 221.669l-1.9-1.113v-2.001l1.934 1.112-.034 2.002zm-1.711-1.266l1.42.804v-1.386l-1.42-.804v1.386z" fill="#172224"/><path d="M39.398 223.893l-1.66-.958v-1.694l1.66.958v1.694z" fill="#C2C7CB"/><path d="M39.532 224.132l-1.9-1.112v-2.001l1.934 1.112-.034 2.001zm-1.711-1.249l1.42.788v-1.369l-1.42-.804v1.385z" fill="#172224"/><path d="M39.398 226.357l-1.66-.959v-1.693l1.66.958v1.694z" fill="#D2FC1B"/><path d="M39.583 226.665l-1.95-1.164v-2.104l2.036 1.163-.086 2.105zm-1.71-1.369l1.317.736v-1.267l-1.318-.735v1.266z" fill="#172224"/><path d="M37.02 220.095l-1.676-.959v-1.693l1.676.958v1.694z" fill="#D2FC1B"/><path d="M37.208 220.42l-2.036-1.164v-2.121l2.036 1.163v2.122zm-1.711-1.386l1.3.736v-1.266l-1.3-.736v1.266z" fill="#172224"/><path d="M37.02 222.558l-1.676-.958v-1.694l1.676.958v1.694z" fill="#C2C7CB"/><path d="M37.156 222.781l-1.933-1.095v-2.002l1.933 1.095v2.002zm-1.711-1.266l1.403.804v-1.369l-1.403-.804v1.369z" fill="#172224"/><path d="M37.02 225.005l-1.676-.941v-1.694l1.676.958v1.677z" fill="#C2C7CB"/><path d="M37.156 225.245l-1.933-1.113v-2.001l1.933 1.112v2.002zm-1.711-1.267l1.403.805v-1.386l-1.403-.804v1.385z" fill="#172224"/><path d="M34.641 218.76l-1.676-.958v-1.694l1.676.958v1.694z" fill="#D2FC1B"/><path d="M34.829 219l-2.036-1.164v-2.104l2.036 1.163V219zm-1.711-1.369l1.3.736V217.1l-1.3-.735v1.266z" fill="#172224"/><path d="M34.641 221.207l-1.676-.941v-1.694l1.676.958v1.677z" fill="#C2C7CB"/><path d="M34.777 221.446l-1.933-1.112v-1.985l1.933 1.095v2.002zm-1.71-1.266l1.402.804v-1.386l-1.403-.804v1.386z" fill="#172224"/><path d="M34.641 223.67l-1.676-.941v-1.693l1.676.958v1.676z" fill="#D2FC1B"/><path d="M34.829 223.996l-2.036-1.164v-2.121l2.036 1.163v2.122zm-1.711-1.386l1.3.753v-1.267l-1.3-.752v1.266z" fill="#172224"/><path d="M32.333 217.443l-1.677-.958v-1.694l1.677.958v1.694z" fill="#C2C7CB"/><path d="M32.503 217.665l-1.933-1.112v-1.985l1.933 1.095v2.002zm-1.71-1.266l1.403.804v-1.386l-1.403-.804v1.386z" fill="#172224"/><path d="M32.333 222.353l-1.677-.958v-1.694l1.677.958v1.694z" fill="#C2C7CB"/><path d="M32.503 222.576l-1.933-1.095v-2.002l1.933 1.112v1.985zm-1.71-1.249l1.403.804v-1.42l-1.403-.805v1.421z" fill="#172224"/><path d="M29.954 218.555l-1.677-.958v-1.677l1.677.941v1.694z" fill="#C2C7CB"/><path d="M30.074 218.777l-1.933-1.095v-2.002l1.933 1.113v1.984zm-1.711-1.249l1.403.804v-1.385l-1.403-.805v1.386z" fill="#172224"/><path d="M29.954 221.019l-1.677-.959v-1.693l1.677.958v1.694z" fill="#D2FC1B"/><path d="M30.122 221.326l-2.036-1.163v-2.104l2.036 1.163v2.104zm-1.711-1.368l1.3.735v-1.266l-1.3-.735v1.266z" fill="#172224"/><path d="M27.558 214.756l-1.66-.941v-1.693l1.66.941v1.693z" fill="#D2FC1B"/><path d="M27.747 215.082l-2.087-1.215v-2.122l2.036 1.164.051 2.173zm-1.71-1.386l1.317.753v-1.267l-1.317-.752v1.266z" fill="#172224"/><path d="M27.558 219.684l-1.66-.958v-1.694l1.66.958v1.694z" fill="#C2C7CB"/><path d="M27.695 219.906l-1.933-1.112v-1.984l1.933 1.095v2.001zm-1.71-1.266l1.419.804v-1.385l-1.42-.787v1.368z" fill="#172224"/><path d="M25.18 215.886l-1.676-.958v-1.694l1.676.958v1.694z" fill="#C2C7CB"/><path d="M25.316 216.108l-1.933-1.112v-1.985l1.933 1.095v2.002zm-1.71-1.266l1.402.804v-1.369l-1.403-.804v1.369z" fill="#172224"/><defs><linearGradient id="paint0_linear_6741_1020" x1="61.533" y1="212.361" x2="61.533" y2="-27.666" gradientUnits="userSpaceOnUse"><stop stop-color="#D2FC1B"/><stop offset=".05" stop-color="#D2FC1B" stop-opacity=".92"/><stop offset=".26" stop-color="#D2FC1B" stop-opacity=".92"/><stop offset=".45" stop-color="#D2FC1B" stop-opacity=".41"/><stop offset=".62" stop-color="#D2FC1B" stop-opacity=".24"/><stop offset=".78" stop-color="#D2FC1B" stop-opacity=".11"/><stop offset=".91" stop-color="#D2FC1B" stop-opacity=".03"/><stop offset="1" stop-color="#D2FC1B" stop-opacity="0"/></linearGradient><linearGradient id="paint1_linear_6741_1020" x1="61.533" y1="212.361" x2="61.533" y2="-27.666" gradientUnits="userSpaceOnUse"><stop stop-color="#D2FC1B"/><stop offset=".05" stop-color="#D2FC1B" stop-opacity=".92"/><stop offset=".26" stop-color="#D2FC1B" stop-opacity=".64"/><stop offset=".45" stop-color="#D2FC1B" stop-opacity=".41"/><stop offset=".62" stop-color="#D2FC1B" stop-opacity=".24"/><stop offset=".78" stop-color="#D2FC1B" stop-opacity=".11"/><stop offset=".91" stop-color="#D2FC1B" stop-opacity=".03"/><stop offset="1" stop-color="#D2FC1B" stop-opacity="0"/></linearGradient><linearGradient id="paint2_linear_6741_1020" x1="61.533" y1="212.361" x2="61.533" y2="-27.666" gradientUnits="userSpaceOnUse"><stop stop-color="#D2FC1B"/><stop offset=".05" stop-color="#D2FC1B" stop-opacity=".92"/><stop offset=".26" stop-color="#D2FC1B" stop-opacity=".64"/><stop offset=".45" stop-color="#D2FC1B" stop-opacity=".41"/><stop offset=".62" stop-color="#D2FC1B" stop-opacity=".24"/><stop offset=".78" stop-color="#D2FC1B" stop-opacity=".11"/><stop offset=".91" stop-color="#D2FC1B" stop-opacity=".03"/><stop offset="1" stop-color="#D2FC1B" stop-opacity="0"/></linearGradient><linearGradient id="paint3_linear_6741_1020" x1="61.533" y1="264.801" x2="61.533" y2="48.163" gradientUnits="userSpaceOnUse"><stop stop-color="#D2FC1B"/><stop offset=".05" stop-color="#D2FC1B" stop-opacity=".92"/><stop offset=".26" stop-color="#D2FC1B" stop-opacity=".64"/><stop offset=".45" stop-color="#D2FC1B" stop-opacity=".41"/><stop offset=".62" stop-color="#D2FC1B" stop-opacity=".24"/><stop offset=".78" stop-color="#D2FC1B" stop-opacity=".11"/><stop offset=".91" stop-color="#D2FC1B" stop-opacity=".03"/><stop offset="1" stop-color="#D2FC1B" stop-opacity="0"/></linearGradient></defs></svg>