<svg width="287" height="257" fill="none" xmlns="http://www.w3.org/2000/svg"><path d="M173.847 220.848l-55.406-30.201 31.721-17.292 55.406 30.202-31.721 17.291z" fill="#C2C7CC" opacity=".5"/><path d="M173.843 204.984l-55.405-30.202 31.72-17.292 55.406 30.202-31.721 17.292z" fill="#fff"/><path d="M205.564 187.693v9.769l-31.72 17.291v-9.769l31.72-17.291z" fill="#C2C7CC"/><path d="M173.843 214.753v-9.769l-55.405-30.202v9.769l55.405 30.202z" fill="#fff"/><path d="M141.086 162.299l41.202 22.903.741 14.399 22.535-11.909-55.747-29.98-8.731 4.587z" fill="#C2C7CC" opacity=".5"/><path d="M129.688 177.502l-8-4.361 1.927-1.051 8 4.362-1.927 1.05zm4.321-2.374l-8.001-4.361 1.927-1.05 8.001 4.361-1.927 1.05zm4.246-2.406l-8.001-4.361 1.927-1.05 8 4.361-1.926 1.05z" fill="#D2FC1B"/><path d="M129.69 177.766a.3.3 0 01-.14-.035l-8.001-4.362a.262.262 0 01-.139-.228c0-.095.053-.182.139-.229l1.927-1.05a.296.296 0 01.28 0l8.001 4.361a.261.261 0 01.139.229.262.262 0 01-.139.228l-1.927 1.051a.302.302 0 01-.14.035zm-7.443-4.625l7.442 4.057 1.369-.746-7.442-4.057-1.369.746zm11.759 2.251a.296.296 0 01-.139-.035l-8.001-4.361a.264.264 0 01-.139-.229c0-.095.053-.182.139-.229l1.927-1.05a.296.296 0 01.28 0l8 4.362a.258.258 0 01.139.228.262.262 0 01-.139.229l-1.926 1.05a.306.306 0 01-.141.035zm-7.442-4.625l7.442 4.057 1.368-.746-7.442-4.057-1.368.746zm11.692 2.219a.296.296 0 01-.139-.035l-8.001-4.361a.26.26 0 01-.139-.229.26.26 0 01.139-.228l1.927-1.051a.294.294 0 01.279 0l8.001 4.361a.264.264 0 01.139.229.261.261 0 01-.139.229l-1.927 1.05a.3.3 0 01-.14.035zm-7.442-4.625l7.442 4.057 1.367-.746-7.441-4.057-1.368.746z" fill="#172224"/><path d="M173.845 205.247a.279.279 0 01-.139-.035L118.3 175.009a.26.26 0 01-.14-.228c0-.094.054-.181.14-.229l31.721-17.291a.294.294 0 01.279 0l55.406 30.202a.261.261 0 01.139.229.263.263 0 01-.139.229l-31.721 17.291a.288.288 0 01-.14.035zm-54.847-30.465l54.847 29.897 31.161-16.987-54.846-29.897-31.162 16.987z" fill="#172224"/><path d="M173.845 215.017a.285.285 0 01-.139-.036.262.262 0 01-.14-.228v-9.769c0-.094.054-.181.14-.228l31.721-17.292a.294.294 0 01.279 0 .261.261 0 01.139.228v9.769a.261.261 0 01-.139.228l-31.72 17.292a.293.293 0 01-.141.036zm.28-9.88v9.159l31.161-16.987v-9.159l-31.161 16.987z" fill="#172224"/><path d="M173.845 215.016a.279.279 0 01-.139-.035L118.3 184.779a.262.262 0 01-.14-.229v-9.768c0-.094.054-.182.14-.229a.294.294 0 01.279 0l55.406 30.203a.26.26 0 01.139.228v9.769a.261.261 0 01-.139.228.3.3 0 01-.14.035zm-55.126-30.618l54.847 29.897v-9.159l-54.847-29.898v9.16z" fill="#172224"/><path d="M172.946 190.415l-26.762-14.589v-27.49l26.762 14.588v27.491z" fill="#fff"/><path d="M172.945 190.415l9.344-5.213v-27.49l-9.344 5.212v27.491z" fill="#C2C7CC"/><path d="M146.317 153.714l-.083 1.87 26.57 20.339.143-7.763-26.63-14.446z" fill="#C2C7CC" opacity=".5"/><path d="M172.948 190.679a.296.296 0 01-.139-.035l-26.763-14.589a.262.262 0 01-.14-.229v-27.491c0-.094.054-.182.14-.229a.294.294 0 01.279 0l26.763 14.589a.26.26 0 01.14.229v5.499h-.559v-5.347l-26.204-14.284v26.882l26.204 14.284v-4.735h.559v5.192a.263.263 0 01-.14.229.3.3 0 01-.14.035z" fill="#172224"/><path d="M172.947 190.679a.289.289 0 01-.138-.035.261.261 0 01-.141-.229v-6.425h.559v5.962l8.785-4.901v-26.877l-8.785 4.901v14.994h-.559v-15.144c0-.094.053-.18.138-.228l9.343-5.213a.295.295 0 01.281-.001.261.261 0 01.141.229v27.491a.264.264 0 01-.138.227l-9.343 5.213a.316.316 0 01-.143.036z" fill="#172224"/><path d="M243.428 207.21L88.121 122.551V5.904l155.307 84.659V207.21z" fill="#D2FC1B"/><path d="M97.863 117.24V21.839l135.819 74.035v95.402L97.863 117.24z" fill="#C2C7CC"/><path d="M233.684 191.54a.296.296 0 01-.139-.035l-135.82-74.036a.264.264 0 01-.14-.229V21.839a.26.26 0 01.14-.229.294.294 0 01.28 0l67.962 37.046-.28.457-.242-.132-67.3-36.685v94.792l135.259 73.731V96.026l-20.827-11.353.279-.457 20.968 11.43c.086.047.14.134.14.228v95.402a.264.264 0 01-.14.229.302.302 0 01-.14.035z" fill="#172224"/><path d="M243.426 207.21l10.5-5.641V84.923l-10.5 5.64V207.21z" fill="#C2C7CC"/><path d="M253.928 84.922l-10.5 5.64L88.121 5.905l10.5-5.64 155.307 84.658z" fill="#D2FC1B"/><path d="M163.211 159.57a.302.302 0 01-.14-.035l-65.029-35.448a.261.261 0 01-.14-.228v-2.541a.26.26 0 01.14-.228.294.294 0 01.28 0l7.729 4.213-.28.457-7.31-3.984v1.931l64.471 35.143v-1.931l-21.415-11.673.279-.457 21.555 11.749a.261.261 0 01.139.229v2.541a.261.261 0 01-.139.228.31.31 0 01-.14.034z" fill="#172224"/><path d="M103.68 116.295V30.598l123.051 67.076v85.698L103.68 116.295z" fill="#D2FC1B"/><path d="M226.734 183.635a.285.285 0 01-.14-.035l-123.052-67.077a.262.262 0 01-.14-.228V30.598c0-.095.054-.181.14-.229a.296.296 0 01.28 0l123.052 67.076a.262.262 0 01.139.23v85.697a.261.261 0 01-.139.228.3.3 0 01-.14.035zm-122.773-67.492l122.493 66.771V97.827L103.961 31.055v85.088z" fill="#172224"/><path d="M243.426 207.474a.286.286 0 01-.14-.036L87.98 122.78a.261.261 0 01-.14-.229V5.904a.26.26 0 01.14-.228.294.294 0 01.279 0l155.306 84.658c.086.047.14.135.14.229V207.21a.262.262 0 01-.14.228.285.285 0 01-.139.036zM88.399 122.399l154.747 84.354V90.715L88.399 6.361V122.4z" fill="#172224"/><path d="M243.427 207.474a.289.289 0 01-.14-.036.261.261 0 01-.139-.228V90.563c0-.095.054-.182.142-.23l1.168-.627.276.459-1.027.551v116.04l9.941-5.341V85.375l-3.449 1.853-.277-.458 3.868-2.078a.291.291 0 01.278.002.26.26 0 01.139.227v116.647a.263.263 0 01-.141.23l-10.5 5.641a.287.287 0 01-.139.035z" fill="#172224"/><path d="M243.426 90.827a.291.291 0 01-.14-.035L87.98 6.132a.262.262 0 01-.14-.228c0-.095.054-.182.141-.229l10.5-5.64a.292.292 0 01.278 0l155.305 84.66a.26.26 0 01.14.229.261.261 0 01-.141.228l-5.558 2.986-.276-.459 5.134-2.758L98.618.568l-9.937 5.338 154.746 84.353 2.168-1.164.276.458-2.307 1.24a.299.299 0 01-.138.034z" fill="#172224"/><path d="M114.691 191.198l34.483 20.297.474-9.102-4.071-18.358-10.557-5.482-18.55 1.495-1.779 11.15z" fill="#C2C7CC"/><path d="M149.358 211.828l-.291-.17-34.594-20.364 1.82-11.423.159-.012 18.611-1.5.054.028 10.638 5.524.019.086 4.077 18.381-.493 9.45zm-34.447-20.725l34.078 20.059.456-8.754-4.047-18.249-10.422-5.412-18.331 1.478-1.734 10.878z" fill="#172224"/><path d="M74.844 256.512s28.73-7.689 34.838-44.426c6.108-36.737 30.088-29.261 30.088-29.261l-72.795-40.092c-6.127-3.375-13.826-2.945-19.434 1.156-3.005 2.197-6.12 5.465-8.892 10.315-9.275 16.233 4.072 35.669-38.231 61.086l74.426 41.222z" fill="#fff"/><path d="M67.084 142.559c-6.265-3.454-13.987-2.993-19.677 1.17-3.44 2.513-6.452 6.006-8.947 10.375-2.774 4.85-3.541 9.992-4.354 15.437-1.94 13.009-4.136 27.75-33.806 45.575l-.3.182 11.172 6.188.376-.269-10.715-5.934c29.549-17.844 31.759-32.633 33.705-45.684.808-5.407 1.57-10.515 4.303-15.298 2.47-4.322 5.441-7.771 8.83-10.251 5.553-4.058 13.088-4.504 19.194-1.141l71.545 39.406c-2.586-.451-8.302-.883-14.038 2.422-7.605 4.384-12.62 13.575-14.906 27.318-3.14 18.904-12.402 29.932-19.621 35.851-7.352 6.034-14.13 8.141-14.973 8.385l-55.901-30.964-.36.278 56.124 31.084.076.043.092-.024c.071-.019 7.321-2.01 15.211-8.481 7.275-5.963 16.619-17.072 19.784-36.11 2.261-13.614 7.204-22.708 14.693-27.026 7.534-4.35 15.038-2.096 15.109-2.072l1.957.605-74.573-41.065z" fill="#172224"/><path d="M139.77 182.825c3.167 2.919 4.638 5.944 3.846 15.146-.792 9.203 4.751 19.241 17.08 11.766 12.329-7.476 14.025-17.301 14.025-38.339s-.339 1.806-.339-9.728c0-11.534 6.56-41.968 35.969-57.346L135.246 63.42s-17.106 5.814-28.434 28.096c-5.207 10.239-7.762 21.5-7.762 32.859v6.975c0 17.941-2.482 24.294-5.284 26.137l46.004 25.338z" fill="#fff"/><path d="M135.351 63.245l-.087-.048-.091.033c-.173.058-17.32 6.097-28.558 28.196-5.091 10.016-7.783 21.408-7.783 32.949v6.975c0 1.861-.026 3.627-.082 5.291l.432.177c.056-1.717.081-3.54.081-5.468v-6.975c0-11.479 2.678-22.809 7.743-32.772 10.725-21.096 26.846-27.447 28.218-27.956l74.684 40.673c-10.268 5.439-18.564 13.095-24.747 22.813l.386.192c6.208-9.752 14.561-17.412 24.91-22.823l.335-.173-75.441-41.084zm45.212 72.327c-4.705 10.193-6.402 20.093-6.402 26.099 0 4.907.066 7.924.132 11.411.101 4.787.208-13.766.208-1.683 0 20.204-1.372 30.555-13.926 38.168-4.552 2.758-8.565 3.309-11.599 1.592-4.135-2.346-5.563-8.303-5.146-13.172.792-9.22-.63-12.284-3.912-15.306l-45.766-25.213c1.966-1.501 3.353-4.936 4.181-10.395l-.432-.139c-.843 5.598-2.27 9.076-4.262 10.385l-.28.183 46.279 25.49c3.166 2.926 4.537 5.925 3.76 14.966-.427 4.989 1.062 11.119 5.355 13.551 1.011.571 2.362 1.036 4.1 1.036 2.083 0 4.714-.671 7.956-2.633 12.732-7.723 14.129-18.156 14.129-38.514 0-12.088-.112 6.466-.208 1.679-.071-3.487-.132-6.5-.132-11.407 0-5.982 1.697-15.843 6.401-26.008l-.436-.09z" fill="#172224"/><path d="M44.473 155.483l11.933 6.505 7.523-8.909-11.934-6.505-7.522 8.909z" fill="#fff"/><path d="M64.18 152.974l-11.934-6.505a.503.503 0 00-.294-.039c-.112.015-.209.053-.25.106l-7.524 8.908c-.045.052-.03.106.041.144l11.934 6.504a.34.34 0 00.132.039.495.495 0 00.163 0c.112-.015.208-.053.249-.106l7.524-8.907c.046-.054.03-.106-.04-.144zm-19.341 2.465l7.24-8.577 11.487 6.26-7.245 8.577-11.482-6.26z" fill="#172224"/><path d="M113.188 180.258c-.087.058-.173.115-.254.178-.615.446-1.23.94-1.85 1.487l-47.127-25.692 1.62-1.924 47.611 25.951zm-52.043-20.694l29.979 16.342 1.622-1.92-29.98-16.342-1.621 1.92zm45.678 26.964c-.482.632-.96 1.309-1.427 2.024l-47.072-25.654 1.626-1.918 46.873 25.548z" fill="#C2C7CC"/><path d="M39.379 177.335l11.933 6.505 2.018-11.91-11.933-6.505-2.018 11.91z" fill="#D2FC1B"/><path d="M53.48 171.768l-11.933-6.504a.276.276 0 00-.24-.01c-.085.028-.142.091-.153.164l-2.02 11.906c-.01.072.025.134.096.172l11.93 6.505c.035.019.075.03.119.033a.265.265 0 00.124-.024.216.216 0 00.152-.157l2.016-11.912c.014-.067-.023-.134-.09-.173zm-13.84 5.464l1.944-11.46 11.486 6.259-1.945 11.461-11.485-6.26zm62.883 21.842c-.07.878-.159 1.768-.259 2.668l-47.576-25.937.432-2.572 47.403 25.841zM53.93 180.262l29.979 16.343.435-2.568-29.98-16.342-.434 2.567zm47.341 27.873a80.098 80.098 0 01-.531 2.512l-47.564-25.926.435-2.566 47.66 25.98z" fill="#172224"/><path d="M50.399 172.345l-5.09 3.909-1.76-4.347c-.12-.298-.533-.442-.92-.322-.387.119-.603.457-.482.755l2.438 6.023 6.792-5.218c.303-.232.329-.6.058-.822-.27-.22-.735-.211-1.036.022zm-19.344 25.509l11.933 6.506 4.176-10.734-11.934-6.505-4.175 10.733z" fill="#fff"/><path d="M47.352 193.488l-11.929-6.505a.375.375 0 00-.264-.024c-.096.024-.168.077-.193.139l-4.171 10.735c-.026.063 0 .125.07.163l11.935 6.505a.332.332 0 00.122.034.32.32 0 00.137-.015c.097-.024.168-.076.193-.139l4.177-10.735c.02-.062-.006-.12-.077-.158zm-15.993 4.288l4.018-10.333 11.482 6.261-4.018 10.332-11.482-6.26z" fill="#172224"/><path d="M96.306 220.743a39.09 39.09 0 01-.96 2.284L48 197.215l.9-2.312 47.406 25.84zm-49.872-19.508l29.978 16.342.9-2.314-29.978-16.342-.9 2.314zm45.991 27.135a44.769 44.769 0 01-1.392 2.049l-46.162-25.165.9-2.316 46.654 25.432z" fill="#C2C7CC"/><path d="M14.402 211.832l11.934 6.505 9.527-7.816-11.934-6.505-9.527 7.816z" fill="#D2FC1B"/><path d="M36.152 210.435l-11.935-6.505a.579.579 0 00-.31-.048.516.516 0 00-.294.086l-9.526 7.814c-.056.049-.046.096.025.135l11.93 6.504a.441.441 0 00.136.043.7.7 0 00.178.005.54.54 0 00.29-.081l9.526-7.819c.056-.044.046-.096-.02-.134zm-21.349 1.371l9.17-7.521 11.488 6.26-9.17 7.522-11.488-6.261zm70.061 25.755a82.42 82.42 0 01-1.88 1.784L35.41 213.409l2.053-1.689 47.401 25.841zm-53.02-21.226l29.979 16.342 2.054-1.686-29.98-16.342-2.053 1.686zm46.146 27.222a90.76 90.76 0 01-2.148 1.631L28.277 219.26l2.053-1.683 47.66 25.98z" fill="#172224"/><path d="M31.768 210.302l-8.947 1.807.195-3.282c.014-.224-.445-.393-1.022-.378-.58.016-1.059.21-1.071.435l-.27 4.546 11.94-2.411c.532-.107.778-.354.55-.553-.228-.199-.845-.272-1.375-.164zm80.83-114.182l11.933 6.504 3.762-10.959-11.934-6.505-3.761 10.96z" fill="#fff"/><path d="M128.474 91.52l-11.929-6.504a.341.341 0 00-.259-.02c-.092.025-.163.082-.183.145l-3.765 10.96c-.02.063.01.125.082.164l11.929 6.504a.34.34 0 00.259.019c.091-.024.162-.081.183-.144l3.759-10.96c.026-.063-.005-.125-.076-.163zm-15.582 4.515l3.622-10.548 11.488 6.26-3.623 10.552-11.487-6.264z" fill="#172224"/><path d="M180.69 120.557c-.462.662-.92 1.348-1.376 2.053l-50.08-27.299.808-2.365 50.648 27.611zm-52.87-21.144l29.979 16.342.812-2.363-29.98-16.342-.811 2.363zm48.411 28.454l-.559 1.084a72.64 72.64 0 00-.554 1.118l-48.708-26.551.813-2.365 49.008 26.714z" fill="#C2C7CC"/><path d="M106.297 136.712l11.933 6.505v-13.01l-11.933-6.505v13.01z" fill="#fff"/><path d="M118.344 130.025l-11.934-6.505a.234.234 0 00-.224 0 .206.206 0 00-.112.183v13.009c0 .076.041.144.112.182l11.934 6.505a.212.212 0 00.107.029.25.25 0 00.117-.029.214.214 0 00.112-.182v-13.009a.216.216 0 00-.112-.183zm-.341 12.827l-11.482-6.26v-12.525l11.482 6.26v12.525z" fill="#172224"/><path d="M168.026 157.684a70.087 70.087 0 00-.107 2.748l-47.849-26.085v-2.806l47.956 26.143zm-47.952-18.468l29.98 16.343v-2.805l-29.98-16.343v2.805zm47.839 28.143v1.429c0 .466 0 .921-.005 1.372l-47.834-26.071v-2.806l47.839 26.076z" fill="#C2C7CC"/><path d="M104.023 155.799l11.934 6.506 1.452-12.219-11.933-6.504-1.453 12.217z" fill="#D2FC1B"/><path d="M117.55 149.918l-11.934-6.505a.3.3 0 00-.239-.01c-.076.034-.132.101-.137.168l-1.453 12.223c-.01.067.03.134.096.172l11.934 6.505a.32.32 0 00.117.033c.041 0 .082-.01.122-.024a.219.219 0 00.137-.168l1.454-12.218c.01-.071-.031-.138-.097-.176zm-13.276 5.775l1.398-11.762 11.487 6.26-1.397 11.762-11.488-6.26zm63.382 22.109c-.061.945-.128 1.847-.204 2.696l-48.55-26.464.315-2.633 48.439 26.401zm-49.301-19.194l29.98 16.342.313-2.634-29.98-16.342-.313 2.634zm48.179 28.327a31.574 31.574 0 01-.615 2.466l-48.103-26.22.315-2.633 48.403 26.387z" fill="#172224"/><path d="M114.57 150.548l-4.8 4.068-1.907-4.427c-.13-.303-.539-.446-.911-.318-.373.128-.57.477-.439.78l2.643 6.134 6.404-5.43c.286-.241.295-.618.021-.841-.274-.223-.727-.208-1.011.034z" fill="#fff"/><path d="M106.539 114.435l11.933 6.505 1.994-11.923-11.933-6.505-1.994 11.923z" fill="#D2FC1B"/><path d="M120.62 108.855l-11.935-6.505a.317.317 0 00-.244-.012c-.079.032-.139.096-.147.162l-1.995 11.927c-.013.066.026.131.092.17l11.934 6.504c.036.02.077.03.118.035a.434.434 0 00.126-.022c.079-.032.134-.092.147-.162l1.995-11.922c.013-.071-.025-.137-.091-.175zm-13.818 5.48l1.919-11.477 11.487 6.259-1.918 11.478-11.488-6.26zm63.9 22.391a104.61 104.61 0 01-.32 2.632l-48.55-26.464.432-2.569 48.438 26.401zm-49.62-19.367l29.979 16.342.431-2.571-29.98-16.342-.43 2.571zm48.092 28.279a30.34 30.34 0 01-.731 2.402l-48.103-26.219.432-2.57 48.402 26.387z" fill="#172224"/><path d="M117.543 109.434l-5.077 3.917-1.767-4.351c-.12-.298-.533-.442-.918-.322-.387.12-.603.459-.482.757l2.447 6.027 6.776-5.227c.302-.233.327-.601.057-.822-.271-.221-.735-.212-1.036.021z" fill="#fff"/><path d="M192.364 151.845c-5.088-4.938-9.34-12.757-11.668-21.447-2.328-8.691-2.525-17.478-.54-24.106 1.45-4.84 3.899-6.89 4.576-7.052l-.064-.238c1.757.931 3.559 2.274 5.33 3.996 5.337 5.179 9.75 13.208 12.114 22.031 2.363 8.823 2.524 17.868.437 24.819-.748 2.51-1.759 4.638-2.953 6.311l-.048-.179c-.497.118-3.17-.236-7.184-4.135z" fill="#D2FC1B"/><path d="M196.574 161.167a26.501 26.501 0 01-1.861-1.139c1.732-.541 3.327-1.778 4.686-3.59a2.608 2.608 0 01-.268-.011c.137-.138.263-.286.377-.441.013-.003.032-.004.043-.007l.047.18c1.195-1.673 2.205-3.801 2.954-6.311 2.086-6.951 1.926-15.996-.438-24.819-2.363-8.823-6.777-16.852-12.113-22.031-1.772-1.722-3.573-3.065-5.331-3.997l.006.02a4.313 4.313 0 00-.271-.13l.03-.015c-2.298-1.174-4.507-1.64-6.457-1.315.339-.653.701-1.274 1.078-1.859l-3.558-4.365-.006-.008 13.376-3.194.002.009c5.949-1.534 12.924.71 19.48 7.075 12.926 12.554 19.312 36.388 14.262 53.239-2.564 8.553-7.585 13.658-13.598 14.97l-.002.01-13.375 3.195.002-.01.935-5.456z" fill="#C2C7CC"/><path d="M181.727 154.821c-5.336-5.178-9.75-13.208-12.113-22.031-2.364-8.823-2.524-17.868-.438-24.819 1.71-5.7 4.737-9.462 8.317-10.317a4.56 4.56 0 01.485-.092c1.949-.325 4.158.14 6.456 1.315-1.102.458-3.391 2.85-4.721 7.295-2.009 6.702-1.815 15.566.533 24.334 2.348 8.763 6.642 16.653 11.784 21.647 3.731 3.617 6.366 4.311 7.368 4.285-1.359 1.813-2.953 3.05-4.686 3.591a4.578 4.578 0 01-.474.136c-3.574.853-8.136-1.096-12.511-5.344z" fill="#C2C7CC"/><path d="M199.325 156.276l.148.555.369-.517c1.238-1.733 2.245-3.883 2.994-6.39 2.098-6.994 1.94-16.093-.437-24.963-2.376-8.87-6.818-16.946-12.187-22.157-1.78-1.729-3.595-3.09-5.398-4.046l-.598-.317.171.64c-.971.506-3.16 2.618-4.513 7.134-1.999 6.674-1.803 15.513.538 24.25 2.341 8.741 6.621 16.604 11.743 21.574 3.589 3.488 6.177 4.225 7.17 4.237zm.152-.566c-.434.104-3.024-.293-6.9-4.059-5.051-4.902-9.277-12.673-11.594-21.321-2.316-8.646-2.514-17.379-.542-23.962 1.427-4.763 3.816-6.726 4.364-6.857l.143-.034c1.614.913 3.24 2.161 4.84 3.716 5.299 5.143 9.687 13.127 12.038 21.905 2.352 8.779 2.512 17.772.441 24.675-.687 2.299-1.592 4.287-2.695 5.915l-.095.022z" fill="#172224"/><path d="M196.251 161.309l-.993 5.702 14.01-3.353c6.304-1.46 11.139-6.822 13.628-15.123 2.533-8.454 2.192-18.683-.404-28.372-2.595-9.689-7.445-18.839-13.931-25.138-6.354-6.17-13.289-8.721-19.553-7.204l-.212.045-13.839 3.305.311.34 3.43 4.211c-.35.554-.68 1.13-.985 1.717l-.255.492.571-.095c1.7-.284 3.667.069 5.72 1.02l-.031.013.562.275c.086.038.169.078.252.121l.598.316v-.001c1.555.903 3.119 2.116 4.66 3.612 5.298 5.144 9.686 13.128 12.038 21.906 2.351 8.779 2.512 17.772.44 24.675-.687 2.299-1.592 4.287-2.695 5.914l-.214.044-.094.097a3.77 3.77 0 01-.351.409l-.417.419.344.028c-1.266 1.565-2.684 2.601-4.222 3.081l-.553.172.476.319a27.42 27.42 0 001.709 1.053zm-.251 4.95l.898-5.236-.174-.096a26.44 26.44 0 01-1.38-.825c1.508-.598 2.893-1.7 4.127-3.282l.003.011.507-.688h-.017c1.183-1.703 2.149-3.794 2.873-6.219 2.098-6.994 1.939-16.093-.437-24.964-2.376-8.869-6.818-16.945-12.187-22.156-1.78-1.729-3.596-3.09-5.398-4.046l-.239-.127-.006-.002-.354-.188.003.014c-2.02-.972-3.98-1.396-5.726-1.24.257-.468.53-.925.815-1.367l.105-.163-3.412-4.19 12.655-3.021.001.005.292-.067c6.104-1.573 12.919.913 19.191 7.001 12.838 12.47 19.204 36.232 14.19 52.97-2.453 8.178-7.204 13.426-13.381 14.775l-.187.04-.002.014-12.76 3.047z" fill="#172224"/><path d="M213.705 142.436c.083-2.321 1.928-5.234 4.119-6.507.955-.553 1.817-.704 2.48-.507l18.038 9.479-5.8 9.317s-13.363-6.669-17.496-9.375c-.591-.387-1.388-1.095-1.341-2.407z" fill="#172224"/><path d="M231.511 151.924c.082-2.321 1.928-5.234 4.12-6.506 2.191-1.273 3.902-.422 3.819 1.899-.083 2.321-1.927 5.234-4.12 6.506-2.193 1.273-3.902.422-3.819-1.899z" fill="#172224"/><path d="M228.499 142.862l44.907 24.143L273.22 182l-44.908-24.144.187-14.994z" fill="#8D8D8D"/><path d="M228.516 142.873l13.24-7.255 44.926 24.181-13.275 7.205-44.891-24.131z" fill="#8D8D8D"/><path d="M286.68 159.799l-.185 14.996-13.276 7.207.185-14.995 13.276-7.208z" fill="#C2C7CC"/><path d="M228.165 158.098a.277.277 0 01-.149-.245l.186-14.995a.276.276 0 01.147-.238.313.313 0 01.293-.001l30.882 16.464-.29.485-30.448-16.232-.179 14.36 44.321 23.828.178-14.36-10.127-5.544.295-.481 10.277 5.625a.287.287 0 01.108.102.26.26 0 01.039.142l-.186 14.995a.272.272 0 01-.148.238.306.306 0 01-.292 0l-44.907-24.143z" fill="#172224"/><path d="M273.257 167.245l-11.692-6.397.295-.481 11.545 6.316 12.681-6.883-44.331-23.861-12.648 6.932 30.695 16.369.256.138-.29.484-31.4-16.745a.276.276 0 01-.149-.241.277.277 0 01.146-.243l13.241-7.255a.31.31 0 01.294-.001l44.927 24.181a.292.292 0 01.109.103.266.266 0 01.039.138c0 .1-.056.193-.148.243l-13.276 7.205a.312.312 0 01-.294-.002z" fill="#172224"/><path d="M273.364 182.244l13.276-7.208a.28.28 0 00.148-.238l.185-14.995a.259.259 0 00-.038-.142.291.291 0 00-.107-.102.313.313 0 00-.297-.001l-13.276 7.207a.278.278 0 00-.147.239l-.186 14.995a.275.275 0 00.145.244.31.31 0 00.297.001zm.153-.727l.179-14.348 12.682-6.886-.178 14.349-12.683 6.885z" fill="#172224"/><path d="M195.636 166.623c.106-.016.21-.041.314-.066 5.886-1.405 10.797-6.492 13.32-14.912 5.054-16.853-1.331-40.687-14.263-53.24-6.465-6.278-13.342-8.55-19.233-7.143a2.865 2.865 0 00-.278.076c-5.766 1.495-10.561 6.549-13.042 14.838-5.054 16.852 1.331 40.686 14.264 53.243 6.348 6.165 13.093 8.463 18.918 7.204zm-1.399-6.459c-3.575.854-8.137-1.095-12.512-5.343-5.335-5.179-9.749-13.208-12.113-22.031-2.363-8.823-2.524-17.868-.438-24.819 1.71-5.701 4.737-9.462 8.317-10.317.159-.038.322-.072.485-.093 1.945-.324 4.149.14 6.441 1.308.477.138.922.377 1.287.73 1.425.878 2.869 2.014 4.294 3.399 5.337 5.179 9.75 13.208 12.114 22.031 2.364 8.823 2.525 17.868.437 24.819-.692 2.323-1.612 4.314-2.692 5.925a2.87 2.87 0 01-.573.807c-1.334 1.732-2.888 2.922-4.573 3.448a4.65 4.65 0 01-.474.136z" fill="#fff"/><path d="M194.312 160.434c.168-.04.338-.085.499-.143 1.732-.542 3.317-1.736 4.714-3.547.242-.24.454-.537.603-.858 1.101-1.635 2.019-3.654 2.708-5.962 2.098-6.994 1.94-16.092-.436-24.963-2.376-8.87-6.819-16.946-12.188-22.157-1.412-1.371-2.865-2.522-4.318-3.42a3.32 3.32 0 00-1.388-.78c-2.308-1.184-4.603-1.646-6.579-1.317-.161.02-.336.057-.505.098-3.68.878-6.788 4.71-8.529 10.511-2.098 6.995-1.94 16.094.436 24.963 2.376 8.87 6.819 16.945 12.188 22.157 4.453 4.322 9.116 6.297 12.795 5.418zm-.144-.54c-3.47.829-7.927-1.091-12.229-5.266-5.298-5.144-9.686-13.128-12.038-21.906-2.351-8.777-2.512-17.771-.44-24.675 1.682-5.604 4.636-9.294 8.105-10.123a4.62 4.62 0 01.452-.087c1.856-.31 4.018.133 6.263 1.277.508.153.899.374 1.214.68l.051.039c1.427.878 2.854 2.008 4.245 3.359 5.298 5.143 9.686 13.127 12.038 21.905 2.351 8.779 2.511 17.773.44 24.675-.673 2.257-1.568 4.226-2.658 5.852a2.72 2.72 0 01-.539.765c-1.347 1.745-2.837 2.871-4.452 3.376l-.011.003a4.187 4.187 0 01-.441.126z" fill="#172224"/><path d="M195.694 166.897c.112-.017.221-.043.33-.069 6.255-1.494 11.06-6.859 13.531-15.107 2.535-8.454 2.195-18.684-.4-28.372-2.595-9.691-7.446-18.839-13.935-25.138-6.331-6.148-13.263-8.712-19.516-7.218a3.39 3.39 0 00-.305.083c-6.095 1.579-10.801 6.917-13.228 15.023-5.07 16.909 1.361 40.915 14.336 53.514 6.207 6.027 13.02 8.613 19.187 7.284zm.185-.61c-.095.023-.19.046-.287.061l-.019.003c-5.961 1.29-12.583-1.242-18.642-7.127-6.423-6.236-11.225-15.295-13.795-24.887-2.569-9.592-2.907-19.717-.397-28.086 2.369-7.912 6.928-13.113 12.837-14.645.105-.034.187-.053.273-.074 6.041-1.442 12.771 1.068 18.949 7.067 12.843 12.469 19.21 36.231 14.19 52.97-2.411 8.049-7.067 13.276-13.109 14.718z" fill="#172224"/></svg>