<svg width="211" height="247" fill="none" xmlns="http://www.w3.org/2000/svg"><g opacity=".5" fill="#172224"><path d="M192.605 218.214a2.847 2.847 0 00-2.442 0l-14.066-8.204h-.173l-11.883.237-21.608-12.531-.324.539 21.672 12.552h.173l11.906-.237 13.785 8.01a.827.827 0 00-.151.495 1.093 1.093 0 00.605.904c.392.206.831.309 1.274.301.43.008.855-.096 1.232-.301a1.04 1.04 0 00.627-.904 1.099 1.099 0 00-.627-.861zm-.302 1.27a2.308 2.308 0 01-1.88 0c-.195-.108-.303-.237-.303-.345a.352.352 0 010-.193l.152-.108c.287-.147.606-.221.929-.215.322-.003.641.071.929.215a.523.523 0 01.302.366c.151.043.043.172-.129.28zm1.578-12.789a2.816 2.816 0 00-2.528 0l-.195.15-3.522-2.153-22.925-.517-16.918-9.731-.324.538 16.983 9.882 22.925.539 3.327 1.959a.785.785 0 000 .237 1.083 1.083 0 00.627.904c.379.222.813.334 1.253.323a2.57 2.57 0 001.254-.301 1.107 1.107 0 00.605-.905 1.037 1.037 0 00-.562-.925zm-.324 1.248a2.17 2.17 0 01-1.88 0c-.173 0-.281-.236-.281-.366v-.129a.791.791 0 01.194-.151c.285-.154.606-.228.929-.215.331-.016.66.059.951.215.195 0 .303.237.303.366 0 .13-.022.237-.216.345v-.065zm16.572-4.736a2.787 2.787 0 00-2.42 0h-15.882l-10.803-6.051-15.471-.559-9.745-5.771-.324.539 9.832 5.813 15.47.56 10.804 6.007h15.406c-.013.1-.013.201 0 .301a1.073 1.073 0 00.626.905 2.67 2.67 0 002.507 0 1.1 1.1 0 00.605-.905 1.032 1.032 0 00-.605-.839zm-.324 1.334a2.169 2.169 0 01-1.859 0c-.194 0-.302-.236-.302-.366a.406.406 0 01.216-.301h.13a2.167 2.167 0 011.815 0c.194.108.302.237.302.366s-.108.108-.302.301zm-76.859 37.184a2.873 2.873 0 00-2.312 0l-6.59-4.306-2.312-12.919a.384.384 0 00-.151-.215l-12.23-7.127-.324.56 12.1 7.041 2.312 12.918a.276.276 0 00.13.215l6.482 4.156a.985.985 0 00-.259.603 1.08 1.08 0 00.626.904c.38.222.814.334 1.254.323.436.008.868-.096 1.253-.301a1.1 1.1 0 00.605-.905 1.074 1.074 0 00-.584-.947zm-.324 1.249a2.175 2.175 0 01-1.858 0c-.194 0-.302-.237-.302-.366s0-.237.28-.345c.289-.144.607-.218.93-.215.329-.001.654.072.95.215.195 0 .303.237.303.366s-.108.237-.303.345z"/><path d="M117.457 225.469a2.926 2.926 0 00-2.334 0l-9.68-5.641-1.037.151 10.156 5.792a.857.857 0 00-.238.581 1.076 1.076 0 00.627.904c.379.222.813.334 1.253.323.436.008.868-.095 1.253-.301a1.097 1.097 0 00.605-.905 1.031 1.031 0 00-.605-.904zm-.324 1.249a2.163 2.163 0 01-1.858 0c-.195 0-.303-.237-.303-.366s0-.237.281-.345c.285-.154.606-.228.929-.215.329-.001.655.072.951.215.194 0 .302.237.302.366 0 .13-.108.237-.302.345zm28.393 12.273a2.85 2.85 0 00-2.377 0l-14.477-8.139-5.272-14.232a.412.412 0 00-.151-.172l-6.698-3.789-.324.559 6.611 3.725 5.272 14.254a.262.262 0 00.152.15l14.347 8.031a.834.834 0 00-.216.539 1.04 1.04 0 00.605.904 2.753 2.753 0 002.506 0 1.103 1.103 0 00.627-.904 1.037 1.037 0 00-.605-.926zm-.324 1.249a2.17 2.17 0 01-1.88 0c-.195 0-.303-.237-.303-.367a.432.432 0 01.152-.236h.129l.151-.259c.259-.115.539-.173.822-.172.322-.003.64.071.929.215.172 0 .281.237.281.366a.66.66 0 01-.281.474v-.021zm14.303-2.929a2.815 2.815 0 00-2.528 0l-.195.151-15.967-9.237-2.939-7.837-17.091-9.969-.324.56 16.897 9.818 2.938 7.837 16.119 9.323a.94.94 0 000 .237 1.074 1.074 0 00.627.904c.379.222.813.334 1.253.323.437.008.868-.095 1.253-.301a1.103 1.103 0 00.605-.904 1.037 1.037 0 00-.648-.905zm-.324 1.249a2.17 2.17 0 01-1.88 0c-.173 0-.281-.237-.281-.366v-.151a.752.752 0 01.195-.15c.284-.154.605-.229.929-.216a2.17 2.17 0 01.95.216c.195 0 .303.236.303.366 0 .129-.022.193-.216.301zm37.961-46.571a2.837 2.837 0 00-2.506 0l-.195.151-3.522-2.153-22.925-.517-5.51-3.1-.324.559 5.575 3.187 22.946.517 3.328 1.959c-.01.086-.01.173 0 .258a1.08 1.08 0 00.605.905c.391.212.829.323 1.275.323.44.011.874-.101 1.253-.323a1.043 1.043 0 00.605-.883 1.112 1.112 0 00-.605-.883zm-.303 1.27a2.152 2.152 0 01-1.879 0c-.195-.107-.303-.236-.303-.366v-.129a.48.48 0 01.195-.15c.284-.155.605-.229.929-.216.33-.011.657.064.95.216.173 0 .281.236.281.366 0 .129.022.172-.173.279zm-14.477 33.674a2.782 2.782 0 00-2.507 0l-.194.151-22.666-13.241-7.476-1.529-15.773-9.064-.324.538 15.816 9.107 7.476 1.529 22.623 13.155a.785.785 0 000 .237 1.074 1.074 0 00.605.904c.387.222.828.334 1.275.323.436.006.867-.098 1.253-.301a1.104 1.104 0 00.605-.904 1.075 1.075 0 00-.713-.905zm-.303 1.249a2.168 2.168 0 01-1.879 0c-.195 0-.303-.237-.303-.366v-.129a.756.756 0 01.195-.151c.284-.154.605-.228.929-.215.33-.011.657.063.95.215.173 0 .281.237.281.366s.022.173-.173.323v-.043zm-4.103 10.809a2.767 2.767 0 00-2.506 0l-.194.129-22.623-13.048-9.615-10.184-15.903-9.193-.303.538 15.774 9.086 9.615 10.184 22.687 13.22a1.163 1.163 0 000 .236 1.104 1.104 0 00.605.926 2.792 2.792 0 002.528 0 .97.97 0 000-1.808l-.065-.086zm-.302 1.248a2.168 2.168 0 01-1.88 0c-.194-.107-.302-.236-.302-.366v-.15a.73.73 0 01.194-.151c.288-.144.607-.218.929-.215.329-.002.655.072.951.215.173 0 .281.237.281.366s0 .28-.173.388v-.087zm-127.96-86.252l-14.13-8.03a.895.895 0 00.28-.625 1.032 1.032 0 00-.605-.904 2.836 2.836 0 00-2.506 0 .967.967 0 000 1.808c.377.205.801.309 1.231.302a2.58 2.58 0 001.016-.194l14.433 8.203 12.143 3.122 14.693 9.194.324-.538-14.692-9.151-12.187-3.187zm-14.78-8.31a2.305 2.305 0 01-1.879 0c-.173 0-.28-.237-.28-.366a.517.517 0 01.302-.366c.288-.145.606-.218.929-.216a1.97 1.97 0 01.929.216c.194 0 .302.236.302.366 0 .129-.064.258-.259.366h-.043zm14.654-6.912l-12.013-6.696a.966.966 0 00.28-.646 1.098 1.098 0 00-.604-.904 2.77 2.77 0 00-2.507 0 1.081 1.081 0 00-.626.904 1.14 1.14 0 00.605.905c.386.203.816.306 1.253.301.348.005.694-.061 1.015-.194l12.316 6.89 12.122 2.39 28.673 17.354.324-.539-28.716-17.375-12.122-2.39zm-12.661-6.976a1.82 1.82 0 01-.951.216 1.8 1.8 0 01-.93-.216c-.172-.107-.28-.237-.28-.344 0-.108.108-.259.28-.366.297-.143.622-.217.951-.215a1.79 1.79 0 01.93.215c.194 0 .302.237.302.344 0 .108-.108.259-.302.366zm7.021 35.698l-15.621 2.046-13.613-7.773a.966.966 0 00.281-.624 1.032 1.032 0 00-.605-.905 2.883 2.883 0 00-2.528 0 .969.969 0 000 1.809c.385.206.816.31 1.253.301.348.005.694-.061 1.016-.193l13.98 7.944h.194l15.622-2.153 14.433 8.613.324-.539-14.433-8.397-.303-.129zm-29.817-6.007a2.169 2.169 0 01-1.88 0c-.194 0-.303-.237-.303-.344 0-.108 0-.259.303-.366a2.17 2.17 0 01.95-.216 2.04 2.04 0 01.93.216c.173 0 .28.236.28.366 0 .129-.129.193-.28.344zm33.597 0l-26.706-16.083a.98.98 0 00.345-.711 1.097 1.097 0 00-.605-.904 2.77 2.77 0 00-2.506 0 1.037 1.037 0 00-.627.904 1.094 1.094 0 00.605.904c.385.206.817.31 1.254.302h-.022c.308-.005.614-.055.907-.151l27.182 16.213 11.625.172 12.143 7.385.324-.538-12.316-7.493H47.708zm-27.29-16.428l-.475.172h-.497a1.79 1.79 0 01-.93-.215c-.194-.108-.302-.237-.302-.344 0-.108.13-.259.303-.366a1.88 1.88 0 01.95-.216 1.8 1.8 0 01.93.216c.194 0 .302.236.302.344 0 .108-.086.301-.28.409zm8.862 36.279l-4.732-2.626a1.043 1.043 0 00.518-.819 1.073 1.073 0 00-.605-.904 2.835 2.835 0 00-2.506 0 1.122 1.122 0 00-.627.904 1.029 1.029 0 00.605.905c.385.206.817.309 1.253.301.209.022.419.022.627 0l5.466 3.144 10.523-6.05 10.242 5.899.324-.56-10.566-6.072-10.523 5.878zm-5.143-3.208h-.238a2.15 2.15 0 01-.67 0 2.037 2.037 0 01-.929-.215c-.194 0-.302-.237-.302-.366s.13-.237.302-.345c.292-.158.62-.24.951-.236.323-.003.641.071.93.215.194 0 .302.237.302.366s-.152.474-.346.581z"/><path d="M73.075 155.731l-4.732-2.734a1.02 1.02 0 00.497-.84 1.028 1.028 0 00-.605-.882 2.836 2.836 0 00-2.507 0 1.093 1.093 0 00-.626.904 1.157 1.157 0 00.626.904c.378.205.802.309 1.232.302.215.023.433.023.648 0l5.467 3.143 10.5-6.05 10.264 5.878.324-.538-10.587-6.072-10.501 5.985zm-5.165-3.208h-.216a2.15 2.15 0 01-.67 0 1.8 1.8 0 01-.928-.215c-.173 0-.281-.237-.281-.344 0-.108.108-.259.302-.367.288-.144.607-.218.93-.215.328-.001.654.072.95.215.173 0 .28.237.28.345 0 .108-.172.474-.367.581zm5.791-9.409l-4.731-2.712a1.015 1.015 0 00.496-.84 1.094 1.094 0 00-.605-.904 2.77 2.77 0 00-2.506 0 1.026 1.026 0 00-.605.904 1.097 1.097 0 00.605.904 2.51 2.51 0 001.253.302c.209.022.418.022.627 0l5.466 3.143 3.22-1.916 10.263 5.878.324-.539-10.587-6.071-3.22 1.851zm-5.164-3.165l-.216.108a2.134 2.134 0 01-.648 0 1.881 1.881 0 01-.95-.215c-.174 0-.282-.237-.282-.345 0-.107.108-.258.303-.366a1.8 1.8 0 01.929-.215c.33-.016.66.058.95.215.174 0 .282.237.282.345 0 .107-.173.344-.368.473zm127.009 30.143a2.782 2.782 0 00-2.506 0 .949.949 0 00-.422 1.395c.103.155.25.277.422.349l-11.539 6.998L171 172.805l-13.828 7.794.324.56 13.418-7.622 10.35 5.943h.173l12.229-7.235c.209.022.418.022.627 0 .437.009.868-.095 1.253-.301a.966.966 0 00.452-1.453.979.979 0 00-.452-.356v-.043zm-.324 1.249a2.165 2.165 0 01-1.599 0h-.216c-.195-.107-.303-.237-.303-.344 0-.108.108-.259.281-.366.288-.145.607-.218.929-.216.33-.001.655.073.951.216.195 0 .303.236.303.366 0 .129-.152.323-.346.43v-.086zm-49.502-37.377a2.708 2.708 0 00-2.507 0 .944.944 0 000 1.722l-11.516 6.933-10.501-6.028-13.829 7.794.303.538 13.526-7.6 10.35 5.942h.151l12.229-7.342c.209.021.419.021.627 0a2.51 2.51 0 001.253-.301 1.093 1.093 0 00.605-.904 1.033 1.033 0 00-.691-.754zm-.303 1.249a2.166 2.166 0 01-1.62.107l-.216-.107c-.195 0-.303-.237-.303-.366s0-.237.281-.345c.296-.143.622-.216.951-.215.322-.003.641.071.929.215.194.108.302.237.302.366s-.151.237-.324.345zm60.714 15.265a2.897 2.897 0 00-2.528 0 1.077 1.077 0 00-.605.904.901.901 0 00.302.646l-27.052 15.911-11.884-.237h-.173l-14.433 8.397.324.539 14.369-8.333 11.884.237h.172l27.377-16.126c.318.115.655.173.993.172a2.57 2.57 0 001.254-.301 1.08 1.08 0 00.605-.905 1.105 1.105 0 00-.605-.904zm-.324 1.27a2.292 2.292 0 01-1.88 0 .381.381 0 01-.216-.301c0-.129 0-.259.281-.366.288-.144.606-.218.929-.216a2.17 2.17 0 01.95.216c.195.129.303.258.303.366 0 .107-.173.194-.367.301zm-18.086-25.772a2.837 2.837 0 00-2.507 0 1.032 1.032 0 00-.605.883c.01.243.11.473.281.646l-27.743 15.997-3.738 8.031-23.163 13.435.324.56 23.249-13.543 3.911-8.031 27.744-16.062c.322.133.667.199 1.015.194.437.005.868-.098 1.254-.301a.971.971 0 00.452-1.453.966.966 0 00-.452-.356h-.022zm-.303 1.249a2.167 2.167 0 01-1.879 0c-.195-.108-.303-.237-.303-.366s0-.237.303-.345c.288-.144.606-.218.929-.215.329-.001.654.072.95.215.173.108.281.237.281.366 0 .13-.108.151-.281.345zm-.346 19.184a2.832 2.832 0 00-2.506 0 1.08 1.08 0 00-.605.904.954.954 0 00.324.689l-14.801 8.332-19.9 5.405-12.381 7.105.324.559 12.273-7.126 19.879-5.404 15.124-8.613c.314.171.66.273 1.016.302.43.007.854-.097 1.232-.302a1.032 1.032 0 00.626-.904 1.12 1.12 0 00-.605-.947zm-.302 1.27a2.166 2.166 0 01-1.426.151l-.195-.323-.281.15c-.173 0-.281-.236-.281-.344 0-.108 0-.258.303-.366.287-.147.606-.221.929-.215.326-.007.647.075.929.236.195 0 .303.237.303.345 0 .108-.108.194-.281.301v.065z"/><path d="M151.486 116.266a2.765 2.765 0 00-2.398 0 1.092 1.092 0 00-.605.904.965.965 0 00.216.581l-16.313 9.495h-.151l-.67 9.495-25.151 14.706.303.538 25.215-14.748h.13l.669-9.495 16.357-9.646c.345.161.721.242 1.102.237.43.007.854-.097 1.232-.302a1.08 1.08 0 00.626-.904 1.075 1.075 0 00-.562-.861zm-.302 1.248a2.157 2.157 0 01-1.815 0v-.193a.412.412 0 01-.151-.259s.108-.237.302-.344a1.96 1.96 0 01.929-.215c.329-.002.655.072.951.215.173.107.281.237.281.366s-.324.28-.432.387l-.065.043zM64.82 204.778a.26.26 0 00-.13.173l-3.176 8.612-14.606 8.203a2.816 2.816 0 00-2.356 0 1.08 1.08 0 00-.626.904 1.114 1.114 0 00.626.905c.386.203.817.306 1.254.301a2.52 2.52 0 001.253-.301 1.082 1.082 0 00.605-.905.922.922 0 00-.195-.559l14.347-8.053a.259.259 0 00.13-.172l3.198-8.613 6.59-3.724-.302-.56-6.612 3.789zm-17.977 18.301a2.164 2.164 0 01-1.859 0c-.194 0-.302-.236-.302-.344 0-.108.108-.258.28-.366.29-.144.608-.218.93-.215.28.002.558.053.821.15l.151.28h.152c.072.06.118.144.13.237-.109.022-.217.151-.411.258h.108zm18.584-7.772l-3.824 8.031-22.71 13.22a.707.707 0 00-.215-.13 2.719 2.719 0 00-2.507 0 1.082 1.082 0 00-.605.905 1.097 1.097 0 00.605.904 2.757 2.757 0 002.507 0 1.118 1.118 0 00.626-.926.922.922 0 000-.237l22.688-13.155 3.824-8.031 15.752-9.193-.324-.539-15.817 9.151zm-27.03 22.37a2.163 2.163 0 01-1.858 0c-.195 0-.303-.237-.303-.344 0-.108.108-.259.303-.366a2.17 2.17 0 01.95-.216c.323-.002.641.071.93.216.072.039.138.09.194.15v.151c.086.172-.022.302-.216.409zm7.691-26.289l-11.884-.237h-.173L3.068 229.173a2.763 2.763 0 00-2.441 0 1.073 1.073 0 00-.627.904 1.032 1.032 0 00.605.904c.385.206.816.31 1.253.302.437.01.87-.094 1.253-.302a1.122 1.122 0 00.627-.904 1.029 1.029 0 00-.151-.495l30.682-17.806 11.905.215c.056.02.117.02.173 0l21.759-12.574-.325-.56-21.693 12.531zm-43.28 18.99a2.173 2.173 0 01-.95.216 2.038 2.038 0 01-.929-.216c-.194-.107-.302-.236-.302-.366 0-.129.108-.237.302-.344.29-.164.618-.246.95-.237.323-.003.642.071.93.215h.151a.26.26 0 010 .173s.022.559-.151.559zM45.72 205.36l-22.925.516-13.116 7.665a.667.667 0 00-.194-.15 2.836 2.836 0 00-2.507 0 1.123 1.123 0 00-.626.925 1.056 1.056 0 00.626.883 2.51 2.51 0 001.253.302 2.63 2.63 0 001.254-.302 1.08 1.08 0 00.605-.904.798.798 0 000-.237l12.964-7.557 22.925-.517 17.07-9.926-.39-.538-16.94 9.84zm-36.56 9.301a2.168 2.168 0 01-1.88 0c-.172 0-.28-.237-.28-.345 0-.107 0-.258.302-.366a1.8 1.8 0 01.93-.215c.33-.013.658.062.95.215l.195.151v.129c.086.194-.022.323-.217.431zm35.414-16.988l-15.384.539-6.482 3.595h-8.06a2.799 2.799 0 00-2.42 0 1.103 1.103 0 00-.626.904 1.12 1.12 0 00.605.905 2.802 2.802 0 002.528 0 1.107 1.107 0 00.389-.797.708.708 0 000-.323h7.584l6.59-3.596 15.384-.538 11.063-6.459-.324-.538-10.847 6.308zm-30.25 5.491a2.168 2.168 0 01-1.88 0c-.173 0-.28-.237-.28-.345 0-.108 0-.258.302-.366.288-.144.607-.218.929-.215a1.9 1.9 0 01.886.194c.151 0 .237.215.237.322 0 .108-.086.302-.28.41h.086zm58.946 18.107l-5.662 9.624-3.37 2.002-.195-.15a2.77 2.77 0 00-2.506 0 1.03 1.03 0 00-.627.904 1.097 1.097 0 00.605.904c.385.206.817.31 1.253.302a2.31 2.31 0 001.254-.323 1.04 1.04 0 00.626-.905.765.765 0 000-.236l3.479-2.153 5.531-9.474 16.897-9.839-.302-.56-16.984 9.904zm-9.637 12.789a2.168 2.168 0 01-1.88 0c-.195 0-.303-.237-.303-.344 0-.108.13-.259.303-.366a2.17 2.17 0 01.95-.216 1.79 1.79 0 01.93.216c.072.039.138.09.194.15v.129s0 .323-.194.431zm-21.477-43.363l-18.647-1.787H23.4l-7.714 4.414-.195-.151a2.849 2.849 0 00-2.506 0 1.124 1.124 0 00-.627.905 1.028 1.028 0 00.605.904c.386.203.817.307 1.254.301a2.52 2.52 0 001.253-.301 1.058 1.058 0 00.626-.904.772.772 0 000-.237l7.498-4.306 18.647 1.787 6.612-3.94-.324-.539-6.374 3.854zm-27.03 3.725c-.29.164-.619.246-.952.237a2.036 2.036 0 01-.929-.215c-.194 0-.28-.237-.28-.366 0-.13.107-.237.28-.345.292-.158.619-.24.951-.237.328.017.647.113.93.28a.815.815 0 01.194.172v.13s.043.236-.195.344zm66.118 31.65h-.13l-.67 9.495-16.421 9.431-.195-.129a2.836 2.836 0 00-2.506 0 1.093 1.093 0 00-.627.904 1.078 1.078 0 00.605.904 2.63 2.63 0 001.254.302c.443.008.882-.096 1.274-.302a1.1 1.1 0 00.605-.904c.01-.086.01-.173 0-.259l16.681-9.581.648-9.495 16.832-9.796-.302-.538-17.048 9.968zm-17.74 20.131a2.29 2.29 0 01-1.88 0c-.172 0-.28-.236-.28-.366a.533.533 0 01.28-.366 2.176 2.176 0 011.881 0c.072.04.138.091.194.151v.151c.108.129 0 .258-.195.366v.064z"/><path d="M103.348 218.687l-17.285 10.012 12.575 6.825-8.168 4.801a.758.758 0 00-.194-.15 2.77 2.77 0 00-2.507 0 1.032 1.032 0 00-.605.904 1.097 1.097 0 00.606.904c.384.206.816.31 1.253.302.44.009.873-.103 1.253-.323a1.085 1.085 0 00.475-.818.772.772 0 000-.237l9.054-5.34-12.554-6.825 16.464-9.517-.367-.538zm-13.483 22.758a2.163 2.163 0 01-1.858 0c-.194 0-.302-.237-.302-.344 0-.108 0-.259.302-.366.296-.143.622-.217.95-.216.323-.003.642.071.93.216.073.039.138.09.194.15v.129c.087.13-.021.323-.216.431z"/><path d="M164.841 184.712L104.6 149.746a.53.53 0 00-.259-.066.53.53 0 00-.259.066l-59.873 34.901a.523.523 0 00-.26.452.515.515 0 00.26.431l60.175 34.923a.596.596 0 00.259 0 .544.544 0 00.26 0l59.938-34.859a.468.468 0 00.259-.43.47.47 0 00-.259-.452zm-60.198 34.707l-59.138-34.255 58.836-34.449 59.225 34.449-58.923 34.255z"/><path d="M44.66 209.881l-11.906-.237a.27.27 0 00-.172 0l-14.045 8.16a2.911 2.911 0 00-2.463 0 1.105 1.105 0 00-.605.926 1.035 1.035 0 00.605.883c.385.206.816.31 1.253.301.436.006.867-.098 1.253-.301a1.098 1.098 0 00.627-.904.858.858 0 00-.173-.495l13.807-8.01 11.884.237h.173l21.758-12.574-.303-.56-21.693 12.574zm-26.404 9.258a2.165 2.165 0 01-1.858 0c-.195 0-.303-.236-.303-.344 0-.108 0-.258.303-.366a1.79 1.79 0 01.929-.237c.333-.009.662.073.95.237h.13v.108a.278.278 0 010 .172c.152.194.044.323-.15.43zm24.008-15.523l-22.817.538-3.522 2.153-.194-.129a2.77 2.77 0 00-2.507 0 1.093 1.093 0 00-.626.904 1.073 1.073 0 00.605.904 2.789 2.789 0 002.528 0 1.102 1.102 0 00.605-.926 1.108 1.108 0 000-.236l3.111-2.046 22.947-.517 16.983-9.882-.195-.603-16.918 9.84zm-26.966 3.724a2.169 2.169 0 01-1.88 0c-.194 0-.28-.237-.28-.344 0-.108 0-.259.28-.366.297-.143.622-.217.951-.215.323-.003.641.071.93.215.072.039.138.09.194.151v.129s0 .323-.194.43zm30.23-16.664l-10.803 6.05H18.843a2.8 2.8 0 00-2.42 0 1.093 1.093 0 00-.626.904 1.114 1.114 0 00.627.904c.377.205.801.309 1.231.302.444.008.882-.096 1.275-.302a1.09 1.09 0 00.518-.818.686.686 0 000-.301h15.428l10.803-6.007 8.34-.409a6.204 6.204 0 010-.625l-8.49.302zm-26.922 7.406a2.169 2.169 0 01-1.88 0c-.173 0-.28-.237-.28-.344 0-.108 0-.259.302-.366.288-.145.606-.218.929-.216.306-.007.61.059.886.194h.108a.441.441 0 01.237.302c0 .193-.108.43-.302.43zm70.328 27.021a.298.298 0 00-.151.216l-2.312 12.918-6.59 4.306a2.892 2.892 0 00-2.312 0 .99.99 0 000 1.809 2.52 2.52 0 001.253.301c.437.005.867-.098 1.253-.301a1.117 1.117 0 00.627-.926.988.988 0 00-.26-.603l6.483-4.155a.37.37 0 00.13-.216l2.311-12.918 12.187-6.998-.324-.538-12.295 7.105zm-9.183 18.667a2.164 2.164 0 01-1.858 0c-.194 0-.302-.236-.302-.344 0-.108.108-.258.302-.366.288-.144.607-.218.93-.215.328-.002.654.072.95.215.173 0 .28.237.28.344 0 .108-.107.259-.302.366zm7.799-26.31a.259.259 0 00-.13.172l-5.315 14.189-14.498 8.138a2.815 2.815 0 00-2.355 0 1.04 1.04 0 00-.627.905 1.121 1.121 0 00.627.904c.386.203.816.307 1.253.301.437.009.868-.095 1.253-.301a1.083 1.083 0 00.605-.904.923.923 0 00-.194-.56l14.347-8.053a.254.254 0 00.13-.172l5.271-14.232 6.612-3.746-.302-.538-6.677 3.897zm-20.073 23.877a2.164 2.164 0 01-1.858 0c-.195 0-.303-.237-.303-.344 0-.108.108-.259.281-.366.288-.144.607-.218.93-.215.282-.002.562.057.82.172l.152.258h.151c.072.06.118.144.13.237 0 .065-.108.065-.303.215v.043zm2.768-21.616l-2.938 7.837-15.968 9.279-.194-.15a2.769 2.769 0 00-2.507 0 1.074 1.074 0 00-.626.904 1.098 1.098 0 00.605.904c.386.203.817.307 1.253.302.447.01.888-.101 1.275-.323a1.037 1.037 0 00.605-.905.914.914 0 000-.236l16.119-9.323 2.938-7.837 16.897-9.818-.324-.56-17.135 9.926zM50.8 237.914a2.168 2.168 0 01-1.88 0c-.194 0-.28-.237-.28-.345 0-.107.107-.258.28-.366.297-.143.622-.216.95-.215a1.8 1.8 0 01.93.215c.073.04.138.091.194.151v.129s.022.323-.172.431H50.8zm-11.43-50.403l-22.947.516-3.457 2.089a.74.74 0 00-.194-.151 2.782 2.782 0 00-2.507 0 1.082 1.082 0 00-.605.904 1.103 1.103 0 00.605.905 2.756 2.756 0 002.507 0 1.118 1.118 0 00.626-.926.772.772 0 000-.237l3.328-1.959 22.925-.517 5.574-3.208-.302-.56-5.553 3.144zm-26.987 3.724a2.164 2.164 0 01-1.859 0c-.194 0-.302-.236-.302-.344 0-.108 0-.258.302-.366.297-.143.622-.217.951-.215a1.8 1.8 0 01.93.215.74.74 0 01.194.151v.129c.086.194-.022.323-.216.43zm47.532 20.735l-7.476 1.55-22.666 13.198-.195-.151a2.828 2.828 0 00-2.528 0 1.036 1.036 0 00-.605.905 1.097 1.097 0 00.605.904c.385.206.817.31 1.253.301.44.011.874-.1 1.254-.323a1.072 1.072 0 00.626-.904.772.772 0 000-.237L52.72 214.08l7.477-1.529 15.816-9.108-.389-.538-15.708 9.065zm-30.66 15.868a2.168 2.168 0 01-1.88 0c-.195 0-.303-.237-.303-.345 0-.107.108-.258.302-.366a1.82 1.82 0 01.951-.215 1.8 1.8 0 01.93.215c.072.039.138.09.194.151v.129c.086.194-.022.323-.195.431zm38.267-11.347l-9.615 10.184-22.622 13.177-.217-.129a2.836 2.836 0 00-2.506 0 1.072 1.072 0 00-.605.904 1.098 1.098 0 00.605.904 2.744 2.744 0 002.506 0 1.123 1.123 0 00.627-.926 1.108 1.108 0 000-.236l22.644-13.22 9.615-10.184 15.774-9.086-.325-.538-15.88 9.15zm-32.778 24.48a2.164 2.164 0 01-1.858 0c-.194 0-.302-.236-.302-.344 0-.108.108-.258.302-.366.296-.143.622-.217.95-.215.323-.003.642.071.93.215a.74.74 0 01.194.151v.15c.087.173-.021.302-.216.409zm143.126-95.854a2.75 2.75 0 00-2.528 0 1.033 1.033 0 00-.605.882c.009.243.11.474.281.646l-14.131 8.031-12.143 3.101-14.779 9.236.346.539 14.779-9.194 12.121-3.122 14.434-8.203a2.742 2.742 0 002.161-.108 1.098 1.098 0 00.605-.904 1.07 1.07 0 00-.541-.904zm-.324 1.248a2.153 2.153 0 01-1.88 0c-.172 0-.28-.236-.28-.366 0-.129 0-.236.28-.344.289-.144.607-.218.93-.215.329-.002.654.072.95.215.195 0 .303.237.303.366s-.108.237-.303.388v-.044zm-4.236-16.427a2.766 2.766 0 00-2.506 0 1.04 1.04 0 00-.426.357 1.023 1.023 0 00-.179.525.945.945 0 00.259.646l-11.992 6.696-12.121 2.412-28.716 17.375.324.538 28.673-17.353 12.1-2.39 12.337-6.89c.322.132.668.198 1.016.194.43.007.854-.097 1.231-.302a1.124 1.124 0 00.627-.904 1.103 1.103 0 00-.627-.904zm-.302 1.248a1.793 1.793 0 01-.929.216 1.819 1.819 0 01-.951-.216c-.194 0-.302-.236-.302-.366 0-.129 0-.236.302-.344.287-.147.606-.221.929-.215.323-.003.641.071.929.215.195 0 .303.237.303.366s-.108.237-.281.344zm27.355 31.328a2.709 2.709 0 00-2.507 0 1.024 1.024 0 00-.425.357 1.023 1.023 0 00-.179.525.967.967 0 00.28.646l-13.612 7.773-15.622-2.153h-.216l-14.434 8.397.303.538 14.369-8.332 15.622 2.023a.293.293 0 00.194 0l13.98-7.987c.322.132.667.198 1.015.193.437.006.868-.098 1.254-.301a.966.966 0 00.452-1.453.979.979 0 00-.452-.356l-.022.13zm-.303 1.248a2.166 2.166 0 01-1.879 0c-.152-.107-.238-.215-.238-.323 0-.107 0-.236.302-.344.289-.144.607-.218.93-.215.329-.002.654.072.95.215.173 0 .281.237.281.366s-.151.172-.346.301zm5.812-18.365a2.838 2.838 0 00-2.507 0 1.042 1.042 0 00-.605.904.924.924 0 00.346.689L176.4 162.966l-22.99.517-12.316 7.428.324.559 12.229-7.342 22.947-.495 27.074-16.191c.29.106.598.157.907.151.437.005.868-.098 1.254-.302a1.07 1.07 0 00.605-.904 1.095 1.095 0 00-.562-.99zm-.303 1.27a2.034 2.034 0 01-.929.215 1.644 1.644 0 01-.475 0l-.216-.323-.26.151c-.194 0-.302-.237-.302-.344 0-.108.108-.259.302-.366.289-.145.607-.218.93-.216.332-.003.659.079.95.237.173 0 .281.237.281.345 0 .107-.086.193-.281.301zm-13.267 33.566a2.913 2.913 0 00-2.528 0 .946.946 0 000 1.723l-4.732 2.734-10.501-5.985-10.588 6.071.324.56 10.264-5.899 10.501 6.05 5.466-3.144c.208.023.419.023.627 0 .437.008.868-.095 1.253-.301a1.03 1.03 0 00.605-.904 1.077 1.077 0 00-.691-.905zm-.325 1.271a2.034 2.034 0 01-.929.215 2.3 2.3 0 01-.669-.108h-.238c-.173-.107-.281-.237-.281-.344 0-.108 0-.259.281-.366.288-.145.607-.218.929-.216.329-.001.654.073.951.216.194.129.302.258.302.366 0 .107-.021.129-.259.237h-.087zm-49.154-31.435a2.77 2.77 0 00-2.506 0 1.1 1.1 0 00-.605.904 1.024 1.024 0 00.518.84l-16.464 9.516c0 .216 0 .431.172.625l17.005-9.84c.216.021.433.021.648 0 .437.006.868-.098 1.254-.301a1.1 1.1 0 00.605-.904 1.078 1.078 0 00-.627-.84zm-.302 1.249a1.803 1.803 0 01-.93.215 3.117 3.117 0 01-.669 0h-.238c-.195 0-.303-.237-.303-.366s0-.237.303-.345a1.8 1.8 0 01.929-.215c.335-.052.678-.015.994.108.173 0 .281.237.281.366s-.173.129-.281.237h-.086zm-98.01 21.143a1.094 1.094 0 00-.605-.905 2.782 2.782 0 00-2.506 0 1.084 1.084 0 00-.627.905 1.098 1.098 0 00.605.904c.386.203.817.307 1.254.301.208.023.418.023.626 0l10.285 6.18c0-.194 0-.409.173-.625l-9.723-5.856a1.03 1.03 0 00.518-.904zm-.929.366h-.237a2.165 2.165 0 01-1.6 0c-.194 0-.28-.237-.28-.345 0-.107 0-.258.28-.366a2.177 2.177 0 011.881 0c.194 0 .302.237.302.345 0 .107-.151.258-.346.366zm25.303 4.478l-11.905.237-27.03-15.911a.968.968 0 00.28-.646 1.073 1.073 0 00-.605-.904 2.836 2.836 0 00-2.506 0 1.114 1.114 0 00-.627.904 1.074 1.074 0 00.627.904c.377.205.802.309 1.231.302.346 0 .69-.058 1.016-.173l27.376 16.127h.151l11.906-.237 14.368 8.332.325-.538-14.348-8.354-.259-.043zm-39.498-16.019a2.169 2.169 0 01-1.88 0c-.172 0-.28-.237-.28-.366s0-.237.302-.344a1.79 1.79 0 01.93-.237 1.98 1.98 0 01.928.215c.195.108.303.237.303.366a.405.405 0 01-.303.366zm33.38-7.643l-27.744-16.019a.884.884 0 00.281-.624 1.032 1.032 0 00-.605-.905 2.848 2.848 0 00-2.506 0 1.125 1.125 0 00-.627.905 1.032 1.032 0 00.627.904c.378.205.802.309 1.232.301.346.001.689-.057 1.015-.172l27.852 16.041 3.824 8.031 10.004 5.834.324-.538-9.853-5.662-3.824-8.096zm-28.392-16.277a2.305 2.305 0 01-1.88 0c-.172 0-.28-.237-.28-.366s.108-.237.302-.345a1.81 1.81 0 01.93-.237 1.97 1.97 0 01.928.216c.195 0 .303.237.303.366a.513.513 0 01-.303.366zm51.449 2.002L58.08 123.371a.967.967 0 00.26-.646 1.074 1.074 0 00-.605-.904 2.836 2.836 0 00-2.507 0 1.113 1.113 0 00-.626.904 1.032 1.032 0 00.605.904c.386.203.816.307 1.253.302.346 0 .69-.058 1.015-.173l27.873 16.062 3.803 8.01 10.026 5.77.324-.538-9.853-5.663-3.824-8.031zm-28.392-16.277a2.168 2.168 0 01-1.88 0c-.194-.108-.28-.237-.28-.366s.107-.237.28-.345a1.95 1.95 0 01.951-.236c.325-.007.647.075.93.236.194 0 .302.216.302.345a.514.514 0 01-.303.366zm-24.588 37.205l-14.801-8.332a.986.986 0 00.324-.689 1.073 1.073 0 00-.605-.905 2.835 2.835 0 00-2.507 0 1.084 1.084 0 00-.626.905 1.028 1.028 0 00.605.904c.385.206.816.309 1.253.301.316.006.631-.045.93-.15l15.124 8.612 19.879 5.404 12.402 7.084.303-.56-12.403-7.084-19.878-5.49zm-15.385-8.612l-.302-.173-.173.345c-.479.113-.982.06-1.426-.151-.194-.108-.303-.237-.303-.366s.108-.237.303-.344c.287-.174.615-.27.95-.28.323-.003.642.071.93.215.194 0 .302.237.302.366s-.108.215-.28.323v.065zm67.477-25.6h-.152l-16.313-9.495c.132-.167.207-.37.216-.582a1.07 1.07 0 00-.605-.904 2.835 2.835 0 00-2.506 0 1.123 1.123 0 00-.627.904 1.032 1.032 0 00.605.905c.386.203.817.306 1.253.301a2.85 2.85 0 001.102-.215l16.357 9.452.648 9.495h.151l25.281 14.77.302-.56-25.042-14.512-.67-9.559zm-17.027-9.818h-.108l-.108.193a2.32 2.32 0 01-1.815 0c-.172 0-.28-.236-.28-.366 0-.129.108-.236.28-.344a1.95 1.95 0 01.951-.237c.323-.003.641.071.93.215.194 0 .302.237.302.366a.41.41 0 01-.152.173zm94.38 106.211a2.85 2.85 0 00-2.377 0l-14.476-8.139-3.177-8.612a.255.255 0 00-.151-.151l-6.698-3.789-.324.538 6.612 3.746 3.176 8.612a.39.39 0 00.151.173l14.347 8.052a.943.943 0 00-.216.56 1.095 1.095 0 00.605.904 2.792 2.792 0 002.528 0 1.1 1.1 0 00.605-.926 1.026 1.026 0 00-.605-.968zm-.324 1.248a2.168 2.168 0 01-1.88 0c-.173 0-.281-.237-.281-.344a.306.306 0 01.13-.237h.151l.152-.28c.254-.1.525-.151.799-.151.322-.002.641.071.929.216.195 0 .303.236.303.344 0 .108-.108.345-.216.452h-.087zm7.413 14.727a2.72 2.72 0 00-2.506 0 .44.44 0 00-.195.13l-22.601-13.156-3.824-7.966-15.817-9.107-.302.538 15.73 9.064 3.824 8.031 22.688 13.112a.855.855 0 000 .237 1.119 1.119 0 00.626.926c.386.203.817.307 1.253.301.437.011.869-.093 1.254-.301a1.098 1.098 0 00.605-.904 1.08 1.08 0 00-.735-.905zm-.302 1.249a2.174 2.174 0 01-1.88 0c-.195 0-.303-.237-.303-.366v-.151l.195-.15a2.17 2.17 0 01.95-.216c.323-.002.641.072.929.216.195 0 .303.237.303.366s-.022.194-.194.301zm36.409-9.323a2.773 2.773 0 00-2.377 0l-31.028-17.935h-.173l-11.905.237-21.715-12.595-.303.559 21.78 12.51h.173l11.884-.237 30.704 17.806a.835.835 0 00-.152.495 1.085 1.085 0 00.605.904c.393.206.832.31 1.275.302.43.007.854-.097 1.232-.302a1.025 1.025 0 00.626-.904 1.107 1.107 0 00-.208-.497 1.13 1.13 0 00-.418-.343zm-.303 1.271a2.034 2.034 0 01-.929.215 2.168 2.168 0 01-.95-.215.51.51 0 01-.196-.147.51.51 0 01-.107-.219.202.202 0 010-.173h.151c.288-.146.607-.22.929-.215.332-.003.66.078.951.237.173 0 .281.237.281.344 0 .108-.043.13-.043.237l-.087-.064zm-4.234-17.505a2.838 2.838 0 00-2.507 0l-.194.129-13.224-7.578-22.968-.603-16.918-9.84-.325.56 17.113 9.883 22.925.516 12.965 7.536a1.013 1.013 0 000 .258 1.103 1.103 0 00.605.905 2.65 2.65 0 001.274.301c.43.008.855-.096 1.232-.301a.964.964 0 00.452-1.453.966.966 0 00-.452-.356l.022.043zm-.303 1.249a2.167 2.167 0 01-1.88 0c-.194-.108-.302-.237-.302-.345v-.15l.216-.151c.287-.147.606-.221.929-.215.322-.003.641.071.929.215a.52.52 0 01.303.366.477.477 0 01-.303.194l.108.086zm-5.383-12.294a2.887 2.887 0 00-2.42 0h-8.059l-6.482-3.574-15.384-.538-10.804-6.46-.324.539 11.041 6.459 15.385.56 6.482 3.595h7.584c-.01.108-.01.216 0 .323a1.12 1.12 0 00.626.904 2.747 2.747 0 002.507 0 1.028 1.028 0 00.605-.904 1.094 1.094 0 00-.247-.561 1.09 1.09 0 00-.51-.343zm-.324 1.27a2.285 2.285 0 01-1.879 0 .523.523 0 01-.281-.366.468.468 0 01.216-.323h.129c.272-.123.566-.189.865-.194.332-.009.661.073.95.237.195 0 .303.237.303.345 0 .107-.108.194-.303.301zm-48.009 28.701a2.84 2.84 0 00-2.507 0 .692.692 0 00-.194.15l-3.392-2.002-5.662-9.624-16.983-9.883-.324.56 16.919 9.84 5.661 9.581 3.457 2.153a.785.785 0 000 .237 1.04 1.04 0 00.605.904c.38.22.813.332 1.253.323a2.52 2.52 0 001.253-.301.99.99 0 000-1.831l-.086-.107zm-.303 1.27a2.167 2.167 0 01-1.88 0c-.194 0-.302-.237-.302-.366v-.129a.677.677 0 01.194-.151c.293-.154.621-.228.951-.215.324-.013.645.061.929.215.195 0 .303.237.303.366s.108.172-.108.28h-.087zm48.574-39.573a2.838 2.838 0 00-2.507 0l-.194.15-7.714-4.306-18.647 1.787-6.482-3.811-.324.56 6.612 3.919 18.647-1.787 7.497 4.306a.785.785 0 000 .237 1.055 1.055 0 00.627.904 2.51 2.51 0 001.253.301c.437.006.867-.098 1.253-.301a1.034 1.034 0 00.605-.904 1.117 1.117 0 00-.626-1.055zm-.303 1.27a2.034 2.034 0 01-.929.215 2.162 2.162 0 01-.951-.215.522.522 0 01-.302-.366v-.129a.8.8 0 01.194-.173c.289-.144.607-.218.93-.215.332-.003.659.078.95.237.173 0 .281.237.281.344 0 .108.022.194-.173.302zm-45.68 47.992a2.838 2.838 0 00-2.506 0 .668.668 0 00-.195.151l-16.421-9.496-.67-9.495h-.151l-16.919-9.882-.324.56 16.854 9.796.648 9.495 16.659 9.581a.785.785 0 000 .237 1.07 1.07 0 00.605.904c.393.206.831.31 1.275.302.43.007.854-.097 1.231-.302a1.068 1.068 0 00.627-.904 1.115 1.115 0 00-.713-.947zm-.302 1.27a2.174 2.174 0 01-1.88 0 .515.515 0 01-.303-.366v-.129l.216-.172c.288-.147.607-.221.929-.216.326-.006.647.076.929.237.195.108.303.237.303.345 0 .107-.022.193-.194.301z"/><path d="M107.129 218.472l-.324.56 16.356 9.452-12.553 6.803 9.053 5.34a1.013 1.013 0 000 .258 1.115 1.115 0 00.626.905c.386.203.817.306 1.254.301.436.008.868-.096 1.253-.301a.964.964 0 00.452-1.453.966.966 0 00-.452-.356 2.838 2.838 0 00-2.507 0l-.194.129-8.167-4.801 12.575-6.804-17.372-10.033zm13.158 22.349v-.13a.801.801 0 01.195-.172c.288-.144.607-.218.929-.215.329-.001.654.072.951.215.194.129.302.259.302.366 0 .108-.108.259-.302.366a2.163 2.163 0 01-1.858 0c-.195-.107-.303-.237-.303-.344l.086-.086z"/></g><path d="M172.034 170.093h-21.953l-43.797 13.241a3.248 3.248 0 00-3.22 0l-44.208-13.241h-20.16v12.078a3.155 3.155 0 001.6 2.993l63.676 36.99a3.253 3.253 0 003.219 0l63.222-35.913a3.168 3.168 0 001.621-2.843v-13.305z" fill="#B1FE33"/><path d="M105.594 222.649a3.37 3.37 0 01-1.686-.452l-63.697-37.033a3.352 3.352 0 01-1.664-2.799v-12.272H58.9l44.143 13.133a3.381 3.381 0 013.263 0l43.776-13.133h22.104v13.521a3.31 3.31 0 01-1.707 2.82l-63.223 35.784a3.488 3.488 0 01-1.663.431zm-66.701-40.542v.15a2.982 2.982 0 00.381 1.555c.267.474.657.867 1.131 1.137l63.698 36.989a3.027 3.027 0 003.046 0l63.201-35.827a2.994 2.994 0 001.534-2.713v-13.069h-21.78l-43.819 13.177a3.121 3.121 0 00-3.068 0h-.13l-44.186-13.134H38.893v11.735z" fill="#172224"/><path d="M170.46 168.112l-64.173-37.248a3.245 3.245 0 00-3.22 0L40.299 166.97a3.196 3.196 0 00-1.611 2.767 3.18 3.18 0 001.61 2.767l63.677 36.99a3.254 3.254 0 003.219 0l63.223-35.827a3.217 3.217 0 001.63-2.766 3.202 3.202 0 00-1.587-2.789z" fill="#DBE0E6"/><path d="M105.594 210.075a3.37 3.37 0 01-1.686-.452l-63.697-36.99a3.331 3.331 0 01-1.664-2.907 3.29 3.29 0 011.685-2.885l62.769-36.107a3.357 3.357 0 013.371 0l64.151 37.205a3.34 3.34 0 011.684 2.896 3.328 3.328 0 01-1.684 2.896l-63.266 35.913a3.488 3.488 0 01-1.663.431zm-.908-79.513a3.207 3.207 0 00-1.534.409L40.492 167.1a2.975 2.975 0 00-1.6 2.626 2.987 2.987 0 001.513 2.649l63.655 36.989a3.027 3.027 0 003.046 0l63.244-35.827a3.078 3.078 0 001.556-2.626 3.028 3.028 0 00-1.534-2.67l-64.152-37.248a3.047 3.047 0 00-1.534-.431z" fill="#172224"/><path d="M59.334 165.636l43.517-25.041a3.378 3.378 0 013.435 0l44.964 26.117a3.43 3.43 0 011.711 2.961 3.418 3.418 0 01-1.711 2.96l-43.84 24.846a3.44 3.44 0 01-3.414 0l-44.662-25.836a3.417 3.417 0 010-6.007z" fill="#B1FE33"/><path d="M105.722 198.082a3.66 3.66 0 01-1.815-.495L59.245 171.75a3.49 3.49 0 01-1.772-3.1 3.545 3.545 0 011.772-3.079l43.517-25.126a3.655 3.655 0 013.608 0l44.986 26.138a3.55 3.55 0 011.793 3.1 3.607 3.607 0 01-1.901 3.101l-43.754 24.846a3.524 3.524 0 01-1.772.452zm-46.304-32.296a3.216 3.216 0 00-1.62 2.821 3.126 3.126 0 001.62 2.799l44.662 25.923a3.273 3.273 0 003.241 0l43.927-24.825a3.264 3.264 0 001.2-1.191 3.24 3.24 0 00-1.2-4.45l-45.029-26.138a3.307 3.307 0 00-3.284 0l-43.517 25.061z" fill="#172224"/><path d="M102.849 152.717l-38.029 21.94 39.26 22.822a3.44 3.44 0 003.414 0l38.353-21.767-39.563-22.973a3.445 3.445 0 00-3.435-.022z" fill="#172224"/><path d="M182.989 122.725h-25.561l-50.993 15.33a3.747 3.747 0 00-3.738 0l-51.468-15.33H27.742v13.995a3.717 3.717 0 001.858 3.229l74.113 43.062a3.745 3.745 0 003.716 0l73.659-41.641a3.684 3.684 0 001.901-3.315v-15.33z" fill="#B1FE33"/><path d="M105.638 183.743a3.942 3.942 0 01-1.923-.517L29.56 140.165a3.823 3.823 0 01-1.923-3.273v-14.404h23.767l51.274 15.308a3.886 3.886 0 013.781 0l50.971-15.329h25.734v15.76a3.84 3.84 0 01-.557 1.899 3.87 3.87 0 01-1.43 1.374l-73.616 41.748a3.987 3.987 0 01-1.923.495zm-77.785-47.195v.172a3.523 3.523 0 001.836 3.229l74.156 43.062a3.573 3.573 0 003.565 0l73.615-41.791a3.522 3.522 0 001.794-3.165v-15.33h-25.367l-51.036 15.437a3.623 3.623 0 00-3.587 0L51.21 122.833H27.918l-.065 13.715z" fill="#172224"/><path d="M181.131 120.27l-74.696-43.384a3.748 3.748 0 00-3.738 0l-73.075 42.049a3.716 3.716 0 000 6.46l74.09 43.039a3.701 3.701 0 003.717 0l73.658-41.704a3.728 3.728 0 001.898-3.218 3.732 3.732 0 00-1.854-3.242z" fill="#DBE0E6"/><path d="M105.638 169.123a3.952 3.952 0 01-1.923-.538l-74.156-43.061a3.887 3.887 0 010-6.739l73.054-42.05a3.965 3.965 0 013.911 0l74.695 43.385a3.893 3.893 0 011.439 5.333 3.9 3.9 0 01-1.439 1.427l-73.658 41.727a3.785 3.785 0 01-1.923.516zm-1.081-92.581a3.485 3.485 0 00-1.771.495l-73.075 42.049a3.458 3.458 0 00-1.793 3.057 3.523 3.523 0 001.771 3.079l74.155 43.062a3.628 3.628 0 003.566 0l73.615-41.705a3.547 3.547 0 000-6.158l-74.653-43.384a3.657 3.657 0 00-1.815-.496z" fill="#172224"/><path d="M121.754 169.49l4.753-2.713v-4.802l-4.753 2.713v4.802z" fill="#D2FC1B"/><path d="M121.582 169.769v-5.167l5.099-2.907v5.189l-5.099 2.885zm.346-4.973v4.306l4.321-2.498v-4.306l-4.321 2.498z" fill="#172224"/><path d="M128.52 165.679l4.775-2.692v-4.801l-4.775 2.713v4.78z" fill="#fff"/><path d="M128.305 166.088v-5.318l5.229-2.972v5.318l-5.229 2.972zm.453-5.06v4.306l4.322-2.433v-4.306l-4.322 2.433z" fill="#172224"/><path d="M135.305 161.889l4.753-2.691v-4.802l-4.753 2.713v4.78z" fill="#DBE0E6"/><path d="M135.066 162.298v-5.339l5.229-2.972v5.34l-5.229 2.971zm.476-5.124v4.306l4.321-2.454v-4.307l-4.321 2.455z" fill="#172224"/><path d="M88.805 118.203l17.112 9.861 17.351-9.882-17.221-9.926-17.242 9.947zm-41.355 0l17.112 9.861 17.329-9.882-17.22-9.926-17.222 9.947zm20.679 12.251l17.113 9.861 17.35-9.882-17.22-9.926-17.243 9.947zm63.848-12.251l17.112 9.861 17.351-9.882-17.221-9.926-17.242 9.947zm-21.586 12.251l17.112 9.861 17.351-9.882-17.221-9.926-17.242 9.947zm-21.586 12.251l17.112 9.861 17.351-9.882-17.221-9.926-17.242 9.947z" opacity=".1" fill="#172224"/><path d="M105.961 88.75l-17.156-9.862V61.793l17.156 9.861v17.095z" fill="#D2FC1B"/><path d="M106.135 89.051l-.26-.15-17.285-9.926V61.492l.26.15 17.285 9.904v17.505zm-17.156-10.27l16.896 9.667V71.762l-16.81-9.689-.086 16.708z" fill="#172224"/><path d="M105.961 88.75l17.156-9.862V61.793l-17.156 9.861v17.095z" fill="#172224"/><path d="M88.805 61.6l17.112 9.86 17.351-9.882-17.221-9.904-17.242 9.925z" fill="#D2FC1B"/><path d="M105.876 71.654L88.418 61.6l17.588-10.14 17.588 10.119-17.718 10.076zM89.109 61.6l16.767 9.668 17.005-9.69-16.875-9.71L89.109 61.6z" fill="#172224"/><path d="M85.219 100.893l-17.156-9.861V73.936l17.156 9.861v17.096z" fill="#D2FC1B"/><path d="M85.371 101.194l-.238-.15-17.285-9.904V73.635l.237.15 17.286 9.926v17.483zm-17.156-10.27l16.832 9.689V83.97l-16.832-9.668v16.622z" fill="#172224"/><path d="M85.219 100.893l17.134-9.861V73.936l-17.134 9.861v17.096z" fill="#172224"/><path d="M68.063 73.764l17.09 9.861 17.351-9.882-17.22-9.926-17.222 9.947z" fill="#D2FC1B"/><path d="M85.173 83.819L67.715 73.764 85.28 63.623l17.481 10.076-17.589 10.12zM68.385 73.764l16.788 9.667 16.984-9.688-16.876-9.732-16.896 9.753z" fill="#172224"/><path d="M127.547 100.677l-17.156-9.882V73.699l17.156 9.883v17.095z" fill="#D2FC1B"/><path d="M127.719 100.979l-.238-.151-17.286-9.925V73.42l.26.15 17.285 9.905-.021 17.504zm-17.156-10.27l16.918 9.667V83.668l-16.81-9.667-.108 16.708z" fill="#172224"/><path d="M127.547 100.678l17.156-9.883V73.7l-17.156 9.882v17.096z" fill="#172224"/><path d="M110.391 73.527l17.112 9.861 17.351-9.882-17.221-9.904-17.242 9.925z" fill="#D2FC1B"/><path d="M127.482 83.582l-17.459-10.055 17.589-10.14L145.07 73.44l-17.588 10.141zm-16.767-10.055l16.767 9.668 17.005-9.69-16.875-9.71-16.897 9.732z" fill="#172224"/><path d="M105.961 113.251l-17.156-9.861V86.295l17.156 9.861v17.095z" fill="#D2FC1B"/><path d="M106.135 113.553l-.26-.151-17.285-9.925V85.994l.26.15 17.285 9.926v17.483zm-17.156-10.206l16.896 9.603V96.264l-16.81-9.689-.086 16.772z" fill="#172224"/><path d="M105.961 113.251l17.156-9.861V86.295l-17.156 9.861v17.095z" fill="#172224"/><path d="M88.805 86.101l17.112 9.861 17.351-9.882-17.221-9.904L88.805 86.1z" fill="#D2FC1B"/><path d="M105.876 96.178L88.461 86.123l17.588-10.12 17.545 10.12-17.718 10.055zM89.152 86.123l16.724 9.646 17.048-9.646-16.875-9.732-16.897 9.732z" fill="#172224"/><path d="M64.605 113.251L47.45 103.39V86.295l17.156 9.861v17.095z" fill="#D2FC1B"/><path d="M64.822 113.553l-.259-.151-17.286-9.926V85.993l.26.13 17.285 9.925v17.505zm-17.285-10.206l16.81 9.667v-16.75l-16.81-9.69v16.773z" fill="#172224"/><path d="M64.606 113.251l17.156-9.861V86.295l-17.156 9.861v17.095z" fill="#172224"/><path d="M47.45 86.101l17.112 9.861 17.329-9.882-17.22-9.904L47.448 86.1z" fill="#D2FC1B"/><path d="M64.564 96.178L47.106 86.123l17.588-10.12 17.545 10.12-17.675 10.055zM47.797 86.123l16.767 9.667 17.005-9.667-16.875-9.732-16.897 9.732z" fill="#172224"/><path d="M85.281 125.502l-17.156-9.861V98.546l17.156 9.861v17.095z" fill="#D2FC1B"/><path d="M85.455 125.804l-.26-.151-17.285-9.925V98.245l.26.15 17.285 9.926v17.483zM68.3 115.534l16.81 9.667v-16.686L68.3 98.847v16.687z" fill="#172224"/><path d="M85.281 125.502l17.156-9.861V98.546l-17.156 9.861v17.095z" fill="#172224"/><path d="M68.125 98.374l17.113 9.861 17.35-9.883-17.22-9.925-17.243 9.947z" fill="#D2FC1B"/><path d="M85.24 108.429L67.78 98.352l17.59-10.076 17.481 10.076-17.61 10.077zM68.473 98.352l16.767 9.668 17.005-9.668-16.876-9.732-16.896 9.732z" fill="#172224"/><path d="M149.133 113.251l-17.156-9.861V86.295l17.156 9.861v17.095z" fill="#D2FC1B"/><path d="M149.306 113.553l-.216-.151-17.285-9.925V85.994l.259.15 17.286 9.926-.044 17.483zm-17.156-10.206l16.811 9.668V96.264l-16.811-9.689v16.772z" fill="#172224"/><path d="M149.133 113.251l17.156-9.861V86.295l-17.156 9.861v17.095z" fill="#172224"/><path d="M131.977 86.101l17.112 9.861 17.351-9.882-17.221-9.904-17.242 9.925z" fill="#D2FC1B"/><path d="M149.087 96.178l-17.458-10.055 17.588-10.12 17.567 10.12-17.697 10.055zM132.32 86.123l16.767 9.646 17.005-9.646-16.875-9.732-16.897 9.732z" fill="#172224"/><path d="M127.547 125.502l-17.156-9.861V98.546l17.156 9.861v17.095z" fill="#D2FC1B"/><path d="M127.719 125.804l-.238-.151-17.286-9.925V98.245l.26.15 17.285 9.926-.021 17.483zm-17.156-10.27l16.918 9.667v-16.686l-16.81-9.668-.108 16.687z" fill="#172224"/><path d="M127.547 125.502l17.156-9.861V98.546l-17.156 9.861v17.095z" fill="#172224"/><path d="M110.391 98.374l17.112 9.861 17.351-9.883-17.221-9.925-17.242 9.947z" fill="#D2FC1B"/><path d="M127.482 108.429l-17.459-10.077 17.61-10.076 17.459 10.076-17.61 10.077zm-16.767-10.077l16.767 9.668 17.005-9.668-16.875-9.732-16.897 9.732z" fill="#172224"/><path d="M105.961 137.753l-17.156-9.861v-17.095l17.156 9.861v17.095z" fill="#D2FC1B"/><path d="M106.135 138.055l-.26-.151-17.285-9.926v-17.483l.26.151 17.285 9.926v17.483zm-17.156-10.27l16.896 9.688v-16.707l-16.896-9.668v16.687z" fill="#172224"/><path d="M105.961 137.753l17.156-9.861v-17.095l-17.156 9.861v17.095z" fill="#172224"/><path d="M88.805 110.625l17.112 9.839 17.351-9.861-17.221-9.926-17.242 9.948z" fill="#D2FC1B"/><path d="M105.876 120.679l-17.458-10.054 17.588-10.141 17.459 10.076-17.589 10.119zm-16.767-10.054l16.767 9.645 17.005-9.667-16.875-9.732-16.897 9.754z" fill="#172224"/><path d="M105.961 63.02l-17.156-9.882V36.042l17.156 9.883V63.02z" fill="#D2FC1B"/><path d="M106.135 63.3l-.26-.129-17.285-9.926V35.763l.26.15 17.285 9.904V63.3zM88.979 53.052l16.896 9.667V46.01l-16.81-9.667-.086 16.708z" fill="#172224"/><path d="M105.961 63.02l17.156-9.882V36.042l-17.156 9.883V63.02z" fill="#172224"/><path d="M88.805 35.87l17.112 9.861 17.351-9.883-17.221-9.925-17.242 9.947z" fill="#D2FC1B"/><path d="M105.876 45.925L88.418 35.87l17.631-10.033 17.459 10.055-17.632 10.033zM89.109 35.87l16.767 9.668 17.005-9.69-16.875-9.71-16.897 9.732z" fill="#172224"/><path d="M85.219 75.164l-17.156-9.861V48.207l17.156 9.861v17.096z" fill="#D2FC1B"/><path d="M85.371 75.465l-.238-.108-17.285-9.925V47.906l.237.15 17.286 9.926v17.483zm-17.156-10.27l16.832 9.667v-16.73l-16.832-9.688v16.75z" fill="#172224"/><path d="M85.219 75.164l17.134-9.861V48.207l-17.134 9.861v17.096z" fill="#172224"/><path d="M68.063 48.014l17.09 9.86 17.351-9.86-17.22-9.926-17.222 9.925z" fill="#D2FC1B"/><path d="M85.173 58.133l-17.458-10.12L85.28 37.895l17.567 10.12-17.675 10.119zm-16.788-10.12l16.788 9.668 16.984-9.69-16.876-9.71-16.896 9.733z" fill="#172224"/><path d="M127.547 74.948l-17.156-9.882V47.97l17.156 9.883v17.095z" fill="#D2FC1B"/><path d="M127.719 75.228l-.238-.15-17.286-9.905V47.69l.26.13 17.285 9.925-.021 17.483zM110.563 64.98l16.918 9.667V57.939l-16.81-9.667-.108 16.708z" fill="#172224"/><path d="M127.547 74.948l17.156-9.882V47.97l-17.156 9.883v17.095z" fill="#172224"/><path d="M110.391 47.798l17.112 9.861 17.351-9.883-17.221-9.925-17.242 9.947z" fill="#D2FC1B"/><path d="M127.48 57.853l-17.437-10.055 17.588-10.14 17.459 10.076-17.61 10.119zm-16.746-10.055l16.746 9.667 17.005-9.688-16.875-9.732-16.876 9.753z" fill="#172224"/><path d="M105.961 87.522L88.805 77.64V60.566l17.156 9.861v17.095z" fill="#D2FC1B"/><path d="M106.135 87.824l-.26-.151-17.285-9.926V60.286l.26.15 17.285 9.905v17.483zM88.979 77.51l16.896 9.71V70.514l-16.81-9.667-.086 16.664z" fill="#172224"/><path d="M105.961 87.522l17.156-9.882V60.566l-17.156 9.861v17.095z" fill="#172224"/><path d="M88.805 60.372l17.112 9.861 17.351-9.883-17.221-9.904-17.242 9.926z" fill="#D2FC1B"/><path d="M105.876 70.427L88.461 60.286l17.588-10.141 17.545 10.141-17.718 10.14zM89.152 60.286l16.724 9.753 17.048-9.753-16.875-9.71-16.897 9.71z" fill="#172224"/><path d="M64.605 87.522L47.45 77.64V60.566l17.156 9.861v17.095z" fill="#D2FC1B"/><path d="M64.822 87.824l-.259-.151-17.286-9.926V60.286l.26.15 17.285 9.905v17.483zM47.537 77.51l16.81 9.668V70.513l-16.81-9.667V77.51z" fill="#172224"/><path d="M64.606 87.522l17.156-9.882V60.566l-17.156 9.861v17.095z" fill="#172224"/><path d="M47.45 60.372l17.112 9.861 17.329-9.883-17.22-9.904-17.222 9.926z" fill="#D2FC1B"/><path d="M64.564 70.427L47.106 60.286l17.588-10.141 17.545 10.141-17.675 10.14zM47.797 60.286l16.767 9.667 17.005-9.667-16.875-9.71-16.897 9.71z" fill="#172224"/><path d="M85.281 99.773l-17.156-9.86V72.794l17.156 9.883v17.095z" fill="#D2FC1B"/><path d="M85.455 100.075l-.26-.151-17.285-9.926V72.515l.26.151 17.285 9.904v17.505zM68.3 89.805l16.81 9.667V82.786L68.3 73.203v16.6z" fill="#172224"/><path d="M85.281 99.773l17.156-9.86V72.794l-17.156 9.883v17.095z" fill="#172224"/><path d="M68.125 72.623l17.113 9.861 17.35-9.883-17.22-9.925-17.243 9.947z" fill="#D2FC1B"/><path d="M85.24 82.678L67.78 72.623l17.59-10.184 17.481 10.055-17.61 10.184zM68.473 72.623L85.24 82.29l17.005-9.689-16.876-9.71-16.896 9.732z" fill="#172224"/><path d="M149.133 87.522l-17.156-9.882V60.566l17.156 9.861v17.095z" fill="#D2FC1B"/><path d="M149.306 87.824l-.216-.151-17.285-9.926V60.286l.259.15 17.286 9.905-.044 17.483zM132.15 77.51l16.811 9.668V70.513l-16.811-9.667V77.51z" fill="#172224"/><path d="M149.133 87.522l17.156-9.882V60.566l-17.156 9.861v17.095z" fill="#172224"/><path d="M131.977 60.372l17.112 9.861 17.351-9.883-17.221-9.904-17.242 9.926z" fill="#D2FC1B"/><path d="M149.087 70.427l-17.458-10.141 17.588-10.141 17.567 10.141-17.697 10.14zM132.32 60.286l16.767 9.753 17.005-9.753-16.875-9.71-16.897 9.71z" fill="#172224"/><path d="M127.547 99.773l-17.156-9.86V72.794l17.156 9.883v17.095z" fill="#D2FC1B"/><path d="M127.719 100.075l-.238-.151-17.286-9.926V72.515l.26.151 17.285 9.904-.021 17.505zm-17.156-10.27l16.918 9.667V82.786l-16.918-9.582v16.6z" fill="#172224"/><path d="M127.547 99.773l17.156-9.86V72.794l-17.156 9.883v17.095z" fill="#172224"/><path d="M110.391 72.623l17.112 9.861 17.351-9.883-17.221-9.925-17.242 9.947z" fill="#D2FC1B"/><path d="M127.482 82.678l-17.459-10.055 17.61-10.184 17.459 10.055-17.61 10.184zm-16.767-10.055l16.767 9.667 17.005-9.689-16.875-9.71-16.897 9.732z" fill="#172224"/><path d="M105.961 112.024l-17.156-9.861V85.068l17.156 9.86v17.096z" fill="#D2FC1B"/><path d="M106.135 112.326l-.26-.151-17.285-9.926V84.766l.26.151 17.285 9.904v17.505zm-17.156-10.27l16.896 9.667V95.037l-16.81-9.69-.086 16.709z" fill="#172224"/><path d="M105.961 112.024l17.156-9.861V85.068l-17.156 9.86v17.096z" fill="#172224"/><path d="M88.805 84.874l17.112 9.86 17.351-9.882-17.221-9.904-17.242 9.926z" fill="#D2FC1B"/><path d="M105.876 94.929L88.418 84.874l17.588-10.141 17.459 10.055-17.589 10.14zM89.109 84.874l16.767 9.667 17.005-9.689-16.832-9.71-16.94 9.732z" fill="#172224"/><path d="M105.961 37.291L88.805 27.41V10.313l17.156 9.883V37.29z" fill="#D2FC1B"/><path d="M106.135 37.571l-.26-.15-17.285-9.905V10.012l.26.15 17.285 9.926v17.483zM88.979 27.322l16.896 9.668V20.282l-16.896-9.667v16.707z" fill="#172224"/><path d="M105.961 37.291l17.156-9.882V10.313l-17.156 9.883V37.29z" fill="#172224"/><path d="M88.805 10.141l17.112 9.861 17.351-9.882L106.047.194 88.805 10.14z" fill="#D2FC1B"/><path d="M105.876 20.196L88.461 10.14 106.049 0l17.545 10.12-17.718 10.076zM89.152 10.14l16.724 9.667 17.005-9.689-16.832-9.73-16.897 9.752z" fill="#172224"/><path d="M85.219 49.434l-17.156-9.86V22.477l17.156 9.861v17.095z" fill="#D2FC1B"/><path d="M85.371 49.736l-.238-.215-17.285-9.926V22.177l.237.15 17.286 9.904v17.505zm-17.156-10.27l16.832 9.667V32.425l-16.832-9.667v16.708z" fill="#172224"/><path d="M85.219 49.434l17.134-9.86V22.477l-17.134 9.861v17.095z" fill="#172224"/><path d="M68.063 22.284l17.09 9.861 17.351-9.882-17.22-9.904-17.222 9.925z" fill="#D2FC1B"/><path d="M85.173 32.296L67.715 22.241l17.566-10.14 17.481 10.054-17.589 10.141zM68.385 22.241l16.788 9.668 16.984-9.69-16.876-9.667-16.896 9.69z" fill="#172224"/><path d="M127.547 49.198l-17.156-9.861V22.24l17.156 9.861v17.096z" fill="#D2FC1B"/><path d="M127.719 49.52l-.238-.172-17.286-9.904V21.94l.26.15 17.285 9.926-.021 17.505zm-17.156-10.27l16.918 9.668V32.296l-16.81-9.667-.108 16.621z" fill="#172224"/><path d="M127.547 49.198l17.156-9.861V22.24l-17.156 9.861v17.096z" fill="#172224"/><path d="M110.391 22.069l17.112 9.861 17.351-9.883-17.221-9.925-17.242 9.947z" fill="#D2FC1B"/><path d="M127.482 32.124l-17.459-10.055 17.589-10.141 17.458 10.076-17.588 10.12zm-16.767-10.055l16.767 9.667 17.005-9.689-16.854-9.732-16.918 9.754z" fill="#172224"/><path d="M105.961 61.793L88.805 51.91V34.816l17.156 9.883v17.095z" fill="#D2FC1B"/><path d="M106.135 62.073l-.26-.15-17.285-9.905V34.449l.26.13 17.285 9.925v17.569zM88.979 51.824l16.896 9.668V44.784l-16.81-9.668-.086 16.708z" fill="#172224"/><path d="M105.961 61.793l17.156-9.883V34.816l-17.156 9.883v17.095z" fill="#172224"/><path d="M88.805 34.643l17.112 9.861 17.351-9.883-17.221-9.925-17.242 9.947z" fill="#D2FC1B"/><path d="M105.876 44.698L88.418 34.643l17.588-10.141 17.459 10.076-17.589 10.12zM89.109 34.643l16.767 9.667 17.005-9.689-16.875-9.732-16.897 9.754z" fill="#172224"/><path d="M64.605 61.793L47.45 51.91V34.816l17.156 9.883v17.095z" fill="#D2FC1B"/><path d="M64.822 62.073l-.259-.15-17.286-9.905V34.449l.26.13 17.285 9.925v17.569zM47.537 51.824l16.81 9.668V44.784l-16.81-9.668v16.708z" fill="#172224"/><path d="M64.606 61.793l17.156-9.883V34.816l-17.156 9.883v17.095z" fill="#172224"/><path d="M47.45 34.643l17.112 9.861 17.329-9.883-17.22-9.925-17.222 9.947z" fill="#D2FC1B"/><path d="M64.564 44.698L47.106 34.643l17.588-10.141 17.48 10.076-17.61 10.12zM47.797 34.643l16.767 9.667 17.005-9.689-16.875-9.732-16.897 9.754z" fill="#172224"/><path d="M85.281 74.044l-17.156-9.882V47.066l17.156 9.883v17.095z" fill="#D2FC1B"/><path d="M85.455 74.324l-.26-.13L67.91 64.27V46.786l.26.13 17.285 9.925v17.483zM68.3 64.075l16.81 9.668V57.035L68.3 47.368v16.707z" fill="#172224"/><path d="M85.281 74.044l17.156-9.882V47.066L85.281 56.95v17.095z" fill="#172224"/><path d="M68.125 46.894l17.113 9.861 17.35-9.883-17.22-9.925-17.243 9.947z" fill="#D2FC1B"/><path d="M85.24 56.949L67.78 46.894l17.59-10.141 17.481 10.076-17.61 10.12zM68.473 46.894L85.24 56.56l17.005-9.689-16.876-9.731-16.896 9.753z" fill="#172224"/><path d="M149.133 61.793l-17.156-9.883V34.816l17.156 9.883v17.095z" fill="#D2FC1B"/><path d="M149.306 62.073l-.216-.15-17.285-9.905V34.449l.259.13 17.286 9.925-.044 17.569zM132.15 51.824l16.811 9.668V44.784l-16.811-9.668v16.708z" fill="#172224"/><path d="M149.133 61.793l17.156-9.883V34.816l-17.156 9.883v17.095z" fill="#172224"/><path d="M131.977 34.643l17.112 9.861 17.351-9.883-17.221-9.925-17.242 9.947z" fill="#D2FC1B"/><path d="M149.087 44.698l-17.458-10.055 17.588-10.141 17.48 10.076-17.61 10.12zM132.32 34.643l16.767 9.667 17.005-9.689-16.875-9.732-16.897 9.754z" fill="#172224"/><path d="M127.547 74.044l-17.156-9.882V47.066l17.156 9.883v17.095z" fill="#D2FC1B"/><path d="M127.719 74.324l-.238-.13-17.286-9.925V46.786l.26.13 17.285 9.925-.021 17.483zm-17.156-10.249l16.918 9.668V57.035l-16.918-9.667v16.707z" fill="#172224"/><path d="M127.547 74.044l17.156-9.882V47.066l-17.156 9.883v17.095z" fill="#172224"/><path d="M110.391 46.894l17.112 9.86 17.351-9.882-17.221-9.925-17.242 9.947z" fill="#D2FC1B"/><path d="M127.482 56.949l-17.459-10.055 17.589-10.141 17.458 10.076-17.588 10.12zm-16.767-10.055l16.767 9.667 17.005-9.689-16.875-9.731-16.897 9.753z" fill="#172224"/><path d="M105.961 86.295l-17.156-9.883V59.317L105.96 69.2v17.095z" fill="#D2FC1B"/><path d="M106.135 86.575l-.26-.13L88.59 76.52V59.037l.26.15 17.285 9.905v17.483zM88.979 76.326l16.896 9.668V69.285l-16.81-9.668-.086 16.708z" fill="#172224"/><path d="M105.961 86.295l17.156-9.883V59.317L105.961 69.2v17.095z" fill="#172224"/><path d="M88.805 59.145l17.112 9.86 17.351-9.882-17.221-9.925-17.242 9.947z" fill="#D2FC1B"/><path d="M105.876 69.2L88.418 59.145l17.588-10.141 17.459 10.055-17.589 10.14zM89.109 59.145l16.767 9.753 17.005-9.689-16.832-9.688-16.94 9.624z" fill="#172224"/></svg>