<svg width="53" height="54" fill="none" xmlns="http://www.w3.org/2000/svg"><path d="M28.133 28.51l2.583-1.5v-1.949l-2.583 1.476v1.972zm1.937-4.563l-10.736-6.191-2.584 1.476 10.735 6.19 2.585-1.475zm4.916-2.817l-3.529-2.034 2.3-9.838.332.208a5.614 5.614 0 01-.051-.708 9.487 9.487 0 011.249-4.329 9.573 9.573 0 013.11-3.278c.3-.164.611-.31.93-.434L38.423.15a2.373 2.373 0 00-2.238.311 8.4 8.4 0 00-2.629 2.81 8.324 8.324 0 00-1.09 3.677c-.003.418.07.833.22 1.224l-2.393 10.25-6.044-3.481-3.624 2.076 10.737 6.19 3.624-2.078z" fill="#B1FE33"/><path d="M35.336 8.745c.017 1.95 1.24 2.867 3.154 1.755a8.389 8.389 0 002.63-2.812 8.313 8.313 0 001.089-3.682c-.021-2.16-1.428-2.754-3.152-1.748a8.453 8.453 0 00-2.624 2.812 8.379 8.379 0 00-1.097 3.675zM4.334 46.671a7.758 7.758 0 013.54-2.94l-.903-.566a2.372 2.372 0 00-2.239.313 8.396 8.396 0 00-2.628 2.81 8.322 8.322 0 00-1.09 3.677 2.25 2.25 0 00.891 2.055l.735.46a5.381 5.381 0 01-.052-.709 9.164 9.164 0 011.746-5.1zM48.2 34.447c.292-.17.6-.312.919-.423l-.893-.578a1.47 1.47 0 00-.725-.166 2.976 2.976 0 00-1.512.492 7.041 7.041 0 00-2.127 2.019l-8.196-4.358-.028-9.186-3.627 2.077v3.059a.638.638 0 01-.32.553l-3.876 2.25a.649.649 0 01-.886-.232.637.637 0 01-.087-.322v-2.346l-3.666 2.1.04 12.973 12.463-7.133-.008-2.181 7.504 3.853-.006.01a7.314 7.314 0 00-.905 3.35 2.252 2.252 0 00.893 2.066l.724.449a11.225 11.225 0 01-.052-.706 9.508 9.508 0 011.254-4.337 9.596 9.596 0 013.117-3.283z" fill="#B1FE33"/><path d="M48.843 35.563a8.5 8.5 0 00-2.616 2.814 8.425 8.425 0 00-1.102 3.669c.019 1.93 1.209 2.888 3.156 1.755a8.388 8.388 0 002.63-2.812A8.314 8.314 0 0052 37.307c-.022-2.122-1.38-2.79-3.156-1.744zM15.46 19.977l-3.67 2.103 10.736 6.19 3.67-2.102-10.736-6.191zm-4.243 3.258l.016.008-.059-.033.014.008-.027-.015-.018-.01.041 12.967 4.967 2.863-6.485 5.883c-1.116-.436-2.628.596-3.515 1.555a8.384 8.384 0 00-2.276 5.3c.021 2.015 1.275 2.847 3.157 1.757a8.389 8.389 0 002.63-2.813 8.314 8.314 0 001.089-3.682 3.33 3.33 0 00-.205-1.17l6.78-6.15 4.593 2.648-.041-12.966-10.661-6.15z" fill="#B1FE33"/></svg>