<svg width="53" height="53" fill="none" xmlns="http://www.w3.org/2000/svg"><path d="M22.004 48.879l4.026 3.47a4.032 4.032 0 004.044.202l8.545-4.979a1.01 1.01 0 00.606-.753v-1.256l-.018.013-8.54 4.975h-.007a5.393 5.393 0 01-4.886.013c-.42-.258-1.608-1.325-2.731-2.29l-1.04.605zM8.06 44.357v4.927a1.252 1.252 0 00.44 1.13l2.2 1.282c-.01-.185 0 1.174-.036-15.061l-.028-12.737a6.213 6.213 0 01.817-2.798 6.185 6.185 0 012.002-2.113L43.678 1.474a3.74 3.74 0 01.206-.11L41.694.086a1.262 1.262 0 00-1.233.18l-30.22 17.505A5.055 5.055 0 008 21.677l.053 22.667c.002.007.006.006.006.013z" fill="#B1FE33"/><path d="M26.338 49.549a4.27 4.27 0 003.755 0l8.538-4.985c1.019-.594.608-1.332-.375-1.684l-3.533-1.375-10.625 6.158c1.998 1.719 2.353 1.98 2.24 1.886zm5.565-16.745a.573.573 0 00.572-.578l-.042-14.628a.578.578 0 00-.984-.409.565.565 0 00-.164.413l.042 14.628a.577.577 0 00.576.574zm2.945-4.234a.571.571 0 00.572-.577l-.026-9.593a.578.578 0 00-.575-.575.575.575 0 00-.573.578l.028 9.594a.575.575 0 00.574.574zm2.872-4.167a.574.574 0 00.574-.577l-.014-4.596a.579.579 0 00-.574-.574.571.571 0 00-.53.357.58.58 0 00-.043.22l.013 4.596a.578.578 0 00.574.574zM23.026 35.757a.572.572 0 00.573-.579l-.029-10.252a.58.58 0 00-.355-.531.57.57 0 00-.22-.043.548.548 0 00-.573.577l.03 10.254a.578.578 0 00.574.574zm2.901-4.522a.574.574 0 00.573-.578l-.014-4.594a.578.578 0 00-.574-.574.573.573 0 00-.572.577l.012 4.594a.578.578 0 00.575.575zm-5.837 3.824a.573.573 0 00.573-.578l-.015-5.463a.578.578 0 00-.575-.574.628.628 0 00-.573.579l.015 5.461a.579.579 0 00.356.532c.07.028.145.043.22.043zm8.855-2.925a.57.57 0 00.529-.357.577.577 0 00.043-.22l-.028-9.86a.576.576 0 00-.573-.574.57.57 0 00-.53.357.577.577 0 00-.042.22l.027 9.86a.577.577 0 00.574.574z" fill="#B1FE33"/><path d="M11.793 23.89l.025 12.764.032 14.837c0 1.184.688 1.546 1.69.96 10.274-5.999 16.483-9.575 30.214-17.507a5.05 5.05 0 002.244-3.904l-.06-27.597c0-1.231-.742-1.517-1.69-.967l-30.21 17.51a5.053 5.053 0 00-2.245 3.905zM30.08 41.356l-1.736 1.006a.572.572 0 01-.825-.184.579.579 0 01.251-.81l1.736-1.006a.572.572 0 01.74.233.579.579 0 01-.166.76zM43.063 5.504a.574.574 0 01.861.497l.06 23.984a.577.577 0 01-.288.5L14.724 47.278a.572.572 0 01-.86-.498l-.06-23.984a.578.578 0 01.286-.501l28.973-16.79z" fill="#B1FE33"/></svg>