<svg width="53" height="53" fill="none" xmlns="http://www.w3.org/2000/svg"><path d="M29.549 23.981v.604a1.77 1.77 0 01-.996 1.5 4.35 4.35 0 01-4.065 0 1.757 1.757 0 01-1.008-1.53v-.552a1.601 1.601 0 00-.851 1.216v.012a1.816 1.816 0 001.035 1.35 6.44 6.44 0 005.753 0 1.806 1.806 0 001.018-1.327v-.01a1.637 1.637 0 00-.886-1.263z" fill="#B1FE33"/><path d="M24.625 24.573c0 .166.166.36.436.514a3.247 3.247 0 002.902 0c.27-.158.43-.346.43-.505v-3.245a4.278 4.278 0 01-3.768 0v3.236zm3.338-8.114c.268-.156.429-.346.43-.508v-3.91a6.886 6.886 0 01-3.768.006v3.908c.008.162.166.349.435.505a3.253 3.253 0 002.903-.001zm4.047 10.918a5.63 5.63 0 00-.43-.221v3.265a2.765 2.765 0 01-1.592 2.323 7.507 7.507 0 01-6.905 0 2.79 2.79 0 01-1.613-2.352v-3.254c-.15.073-.303.148-.442.234a3.524 3.524 0 00-2.087 2.824 3.558 3.558 0 002.128 2.876 12.186 12.186 0 0010.952-.008 3.6 3.6 0 002.096-2.841 3.533 3.533 0 00-2.106-2.846z" fill="#B1FE33"/><path d="M23.657 31.745a6.437 6.437 0 005.752 0 1.7 1.7 0 001.02-1.328v-3.133l-.047.03a4.27 4.27 0 01-.382.26 7.595 7.595 0 01-6.913 0 4.507 4.507 0 01-.343-.222c-.026-.019-.04-.037-.064-.057-.024-.02-.036-.02-.051-.033v3.127a1.735 1.735 0 001.028 1.356zm1.75-20.699A5.579 5.579 0 1027.633.112a5.579 5.579 0 00-2.226 10.934zM20.49 34.073a7.35 7.35 0 01-1.509-1.166c-.014-.016-.033-.028-.047-.043v.102a3.56 3.56 0 002.128 2.876 12.088 12.088 0 0010.952 0 3.527 3.527 0 002.092-2.833v-.098c-.456.443-.96.832-1.503 1.162a13.378 13.378 0 01-12.113 0zm4.135-14.29c.008.162.166.349.435.504a3.248 3.248 0 002.903 0c.268-.157.429-.348.43-.51v-2.265a4.27 4.27 0 01-3.768 0v2.271zm-13.759 9.609a3.887 3.887 0 003.47 0c.722-.42.733-.924-.006-1.349a3.579 3.579 0 00-1.743-.41 3.54 3.54 0 00-1.735.41c-.753.435-.69.944.014 1.349zm1.129 1.527h-.013a4.757 4.757 0 01-1.677-.52v.65c0 .23.202.478.558.684a3.889 3.889 0 003.47 0c.348-.203.547-.448.548-.673v-.651c-.096.054-.203.096-.306.143a4.94 4.94 0 01-2.58.367z" fill="#B1FE33"/><path d="M48.907 31.884l-19.36-9.862v.664c.143.067.292.128.428.203a2.792 2.792 0 011.613 2.349v.647c.343.145.678.308 1.004.49a4.613 4.613 0 012.685 3.842v.018l-.009 2.766a4.606 4.606 0 01-2.666 3.825 13.364 13.364 0 01-12.112.007 4.63 4.63 0 01-2.704-3.872l.009-2.735v-.019a4.586 4.586 0 012.655-3.828 8.39 8.39 0 011.032-.507v-.643a2.782 2.782 0 011.586-2.33c.132-.076.278-.134.42-.2v-3.548a2.171 2.171 0 00-1.166.227L4.14 29.943c-.165.098-.243.206-.245.262a.2.2 0 00.044.098.87.87 0 00.11.1.723.723 0 00.06.052l21.656 14.16a2.29 2.29 0 002.095.042c2.014-1.216-7.623 4.426 21.076-12.254.186-.104.25-.206.25-.252v-.009c-.022-.045-.092-.151-.279-.258zm-32.87-3.161v2.337a1.991 1.991 0 01-1.12 1.666 5.032 5.032 0 01-4.626 0 2.005 2.005 0 01-1.135-1.685V28.68a1.992 1.992 0 011.113-1.64 5.04 5.04 0 014.634 0 2.004 2.004 0 011.134 1.672v.01z" fill="#B1FE33"/><path d="M3.86 38.331c0 .04.034.13.192.23l20.894 13.68v-6.763L3.877 31.699l-.018 6.632zm24.843 13.923l20.183-11.727c.203-.124.25-.232.25-.252l.026-6.675-20.459 11.898v6.756zm-2.605-6.295V52.9c.476.141.983.13 1.453-.03v-6.908a3.375 3.375 0 01-1.453-.005z" fill="#B1FE33"/></svg>