<svg width="53" height="53" fill="none" xmlns="http://www.w3.org/2000/svg"><path d="M15.857 21.639l-5.29-3.436c-.84.744-1.395 1.817-1.551 3.002l5.29 3.432a6.31 6.31 0 011.551-2.998zm.937-.729L44.108 3.282l.098-.057L39.348.067a.891.891 0 00-.493-.053.94.94 0 00-.455.221L11.582 17.523l5.212 3.387zm-2.586 5.006L9 22.538l.019 12.323c.005.021.017.025.017.06l.02 12.956c-.022.184-.001.37.06.542.06.173.157.326.284.445l4.867 3.163v-.089l-.06-26.023zM45.936 5.11c0-1.049-.529-1.325-1.306-.826L17.054 22.077a4.373 4.373 0 00-1.272 1.512 4.931 4.931 0 00-.536 1.987l.06 26.357c0 .975.48 1.36 1.305.826l27.577-17.791a4.36 4.36 0 001.274-1.513 4.923 4.923 0 00.536-1.988L45.936 5.11zM43.77 32.03C23.4 45.173 30.108 40.849 18.044 48.627a.478.478 0 01-.517 0 .553.553 0 01-.19-.212.632.632 0 01-.07-.288l-.058-22.611c0-.102.024-.202.07-.29a.558.558 0 01.189-.214L43.194 8.424a.477.477 0 01.517-.001c.08.05.145.123.19.211.046.088.07.187.07.289l.058 22.612a.63.63 0 01-.07.288.551.551 0 01-.19.211v-.004z" fill="#B1FE33"/><path d="M18.246 25.851L18.3 47.13l1.361-.878 4.604-12.645a.576.576 0 01.162-.24.467.467 0 01.514-.08.528.528 0 01.214.182L28.18 37.8l5.619-15.434a.577.577 0 01.162-.239.493.493 0 01.247-.116.46.46 0 01.267.037.52.52 0 01.212.184l6.886 9.888 1.42-.917-.054-21.277-24.693 15.926zm8.616 4.627a1.485 1.485 0 01-.857.374 1.442 1.442 0 01-.898-.225 1.694 1.694 0 01-.632-.748 1.942 1.942 0 01-.15-1.015c.03-.782.23-1.544.58-2.222a4.696 4.696 0 011.428-1.675c.248-.215.548-.342.86-.366.313-.023.625.057.897.232.272.175.49.436.63.75.138.314.19.668.149 1.015a5.303 5.303 0 01-.58 2.213 4.683 4.683 0 01-1.427 1.667z" fill="#B1FE33"/></svg>