<svg width="156" height="156" fill="none" xmlns="http://www.w3.org/2000/svg"><path d="M93.845 73.278c-2.687-1.545-2.315-5.5-1-8.337.03-.06.05-.123.078-.183-1.96.205-3.848.847-5.527 1.878a31.775 31.775 0 00-14.397 24.888c.025 8.522 5.685 11.802 13.162 7.482a31.73 31.73 0 0014.394-24.888 15.892 15.892 0 00-.213-2.65 5.683 5.683 0 01-6.497 1.81zM58.097 98.616A58.634 58.634 0 0168.5 67.518a210.81 210.81 0 00-30.888 41.748 171.584 171.584 0 00-2.045 3.694c.195.133.213.155.435.3.5.318 1 .63 1.523.938a46.046 46.046 0 0034.178 4.872c-9.587-1.65-13.577-10.649-13.605-20.454z" fill="#172224" fill-opacity=".6"/><path d="M100.408 61.958c-1.233-.705-3.298 1.195-4.158 2.353 0 .014 0 .032-.017.047C95 66.035 93.46 70.02 95.163 71h.077c1.465.698 3.613-1.575 4.538-3.095 0-.017.032-.025.045-.042 1.067-1.77 1.987-5.095.585-5.905z" fill="#172224" fill-opacity=".6"/><path d="M87.348 52.527C72.62 61.026 60.675 81.702 60.725 98.609c.045 16.354 11.214 22.748 25.498 14.514 14.729-8.5 26.674-29.19 26.624-46.112-.055-16.214-11.167-22.761-25.499-14.484zm15.837 21.583a34.629 34.629 0 01-15.71 27.171c-9.249 5.35-17.07.777-17.098-9.75a34.676 34.676 0 0115.706-27.173 14.167 14.167 0 018.5-2.137c1.902-2.28 4.767-3.91 7.137-2.54 2.88 1.653 2.302 6.042.6 9.12.582 1.709.875 3.504.865 5.31z" fill="#172224" fill-opacity=".6"/><path d="M135.165 50.952l-.037-.013a46.595 46.595 0 00-33.108-4.342c9.499 1.75 13.416 10.75 13.444 20.406a58.828 58.828 0 01-10.589 31.39C122.244 81.04 134.873 58.522 138 52.675a36.164 36.164 0 00-2.835-1.722z" fill="#172224" fill-opacity=".6"/><path d="M86.056 50.217a51.408 51.408 0 0136.448-6.645l-4.15-2.425c-7-4.06-25.766-12.076-48.607 1.128C49.266 54.092 29.147 81.807 18 102.62l15.324 8.927c5.332-9.877 26.068-45.917 52.732-61.331z" fill="#172224" fill-opacity=".6"/></svg>