<svg width="156" height="156" fill="none" xmlns="http://www.w3.org/2000/svg"><path d="M107.448 65.488l-23.93-13.906-6.477 3.745 23.929 13.91 6.478-3.749zm-9.698 5.599L73.898 57.224l-6.361 3.67 23.855 13.861 6.358-3.668zm1.7 2.833l-6.364 3.67.043 8.462 6.365-3.674-.044-8.459zm-17.859 6.5l6.592-3.808-23.932-13.906-6.592 3.807L81.59 80.419z" fill="#172224" fill-opacity=".6"/><path d="M102.716 83.296a1.617 1.617 0 01-.802 1.404l-9.563 5.525a1.608 1.608 0 01-2.412-1.385l-.053-9.489-6.675 3.856c0 .309.086 29.056.083 27.347l25.86-14.93-.08-27.35-6.407 3.701.049 11.322z" fill="#172224" fill-opacity=".6"/><path d="M82.47 114.744a1.605 1.605 0 01-1.61 0L53.713 98.969a1.611 1.611 0 01-.802-1.389l-.059-22.328L25.73 90.917l63.4 36.833 45.394-26.187-22.177-12.901.021 7.878a1.605 1.605 0 01-.805 1.401L82.47 114.744z" fill="#172224" fill-opacity=".6"/><path d="M56.144 96.639l23.917 13.897c0-.478-.086-28.77-.083-27.332L56.064 69.322v3.175l.08 24.142zm80.959 16.831l-5.552 3.211a15.29 15.29 0 011.283 6.599l3.785-2.212a3.843 3.843 0 001.361-3.341 12.053 12.053 0 00-.877-4.257zm-47.129 27.218c-1.32.771-2.188-.559-5.535-2.277a17.247 17.247 0 013.613 10.714l3.816-2.209a3.672 3.672 0 001.357-3.341 11.882 11.882 0 00-.895-4.248l-2.356 1.361zm-11.742-3.696c-3.128-1.811-5.028-.512-5.034 2.86a14.773 14.773 0 006.598 11.414c2.382 1.376 4.455 1.113 4.936-1.666v-.034a14.395 14.395 0 00-6.5-12.574zm50.558-18.546c-.019-.043-.046-.095-.062-.142l-7.403 4.276a11.936 11.936 0 003.22 2.863c2.468 1.422 4.603.981 4.992-1.851v-.047a10.983 10.983 0 00-.747-5.099z" fill="#172224" fill-opacity=".6"/><path d="M136.165 110.296l-.021-5.948-46.202 26.65a1.59 1.59 0 01-1.613 0L24.164 93.715l.018 5.954c76.955 44.715-12.386-7.191 65.001 37.767l46.982-27.14zm-103.335 6.78l3.832-2.224a3.763 3.763 0 001.354-3.372v-.04l-8.748-5.087a17.478 17.478 0 013.563 10.723zM62.543 4.124a.617.617 0 00-.401-.123c-.407.04-.799.177-1.141.4L28.795 22.974A7.944 7.944 0 0025.4 28a3.085 3.085 0 00.216 2.283l14.777 19.28c.648.93.973 2.045.925 3.177l.093 25.389 5.676-3.27-.062-27.24a9.23 9.23 0 01.74-3.516L62.45 7.764c.802-2.005.463-3.3.093-3.64zm-18.725 34.86a.987.987 0 01-.34.462l-1.51.864-9.07-11.846a2.322 2.322 0 01.987-1.759l19.404-11.198-9.471 23.476zm-20.783 65.91c-2.974-1.715-5.029-.651-5.035 2.878a14.778 14.778 0 006.599 11.414c2.613 1.512 4.522 1.037 4.982-1.999a14.465 14.465 0 00-6.546-12.293z" fill="#172224" fill-opacity=".6"/></svg>