<svg width="156" height="156" fill="none" xmlns="http://www.w3.org/2000/svg"><path d="M119.984 27.223l-69.42 40.079.045 15.9 69.419-40.08-.044-15.899zm-39.223 32.54L56.778 73.591a1.316 1.316 0 11-1.315-2.282l23.984-13.827a1.316 1.316 0 111.314 2.282zm8.507-2.332c-2.326 1.329-4.389-.008-4.389-2.51-.021-2.097 1.42-4.586 3.275-5.656 2.167-1.282 4.367-.145 4.367 2.49.022 2.117-1.42 4.606-3.253 5.676zm12.221-7.06c-2.344 1.34-4.387-.038-4.387-2.488-.022-2.117 1.419-4.606 3.274-5.675 2.266-1.295 4.366-.077 4.366 2.51.022 2.096-1.419 4.584-3.253 5.654zm12.198-7.058c-2.171 1.286-4.387.11-4.387-2.488 0-2.117 1.441-4.605 3.274-5.675 2.279-1.276 4.387-.078 4.387 2.51.021 2.095-1.419 4.583-3.274 5.653zM106.724 18l-69.42 40.081 11.942 6.94 69.421-40.08L106.724 18zM36 60.369l.2 70.751 11.78 6.863-.052-70.682L36 60.37zm84.037-14.208l-69.421 40.08V138l69.568-40.014-.147-51.825zm-44.883 69.355l-17.206 9.934a1.318 1.318 0 01-1.317-2.282l17.206-9.934a1.315 1.315 0 011.8.483c.363.63.147 1.435-.483 1.799zm0-7.991l-17.206 9.934a1.318 1.318 0 01-1.317-2.281l17.206-9.934a1.317 1.317 0 111.317 2.281zm-.019-8.74l-17.253 9.851c-.947.474-1.975-.162-1.975-1.159l.053-15.145c.026-.448.263-.896.658-1.133l17.174-9.904a1.308 1.308 0 011.317 0c.395.237.658.659.658 1.133l.053 15.224c0 .475-.263.896-.685 1.133zm29.132-7.77l-7.48 5.294-.817 9.087c-.053.606-.5 1.08-1.08 1.186-.079 0-.158.026-.237.026-.5 0-.975-.29-1.185-.737l-6.901-14.145c-.185-.369-.158-.843.052-1.212.21-.395.606-.632 1.054-.658l15.725-1.238c.606-.026 1.159.316 1.343.87.211.552 0 1.184-.474 1.527zm9.965-22.034L79.889 88.809a1.318 1.318 0 01-1.317-2.281l34.343-19.829a1.317 1.317 0 111.317 2.282zm0-7.992l-34.343 19.83a1.318 1.318 0 01-1.317-2.282l34.343-19.83a1.317 1.317 0 111.317 2.282z" fill="#172224" fill-opacity=".6"/></svg>