<svg width="156" height="156" fill="none" xmlns="http://www.w3.org/2000/svg"><path d="M52.314 30.124c-.017.01-.034.017-.05.027C39.348 37.607 28.446 56.032 28.49 71.3c.016 5.665 1.638 11.812 6.547 14.638 4.224 2.428 9.937 1.82 16.083-1.728 13.141-7.588 23.796-26.064 23.753-41.188-.04-14.593-10.014-20.115-22.559-12.898zm-1.356 11.333c3.204-1.852 6.194-.15 6.204 3.546.01 3.145-2.132 6.848-4.873 8.431-3.19 1.842-6.181.146-6.192-3.54-.009-3.154 2.126-6.86 4.86-8.437zM61.227 62.83c0 .47-.235.887-.652 1.121L44.088 73.5c-.887.444-1.957-.083-1.957-1.147v-.966c-.026-5.739 3.887-12.495 8.87-15.365 5.496-3.21 10.226-.343 10.226 5.844v.965z" fill="#172224" fill-opacity=".6"/><path d="M25.87 71.305c-.034-15.969 11.248-35.423 25.09-43.415 3.6-2.08 7.505-3.24 10.157-3.469.043-.003.088-.015.13-.019l-3.35-1.907c-4.243-2.468-9.96-1.864-16.113 1.693C29.084 31.493 17.969 49.885 18 65.336c.03 6.996 2.344 12.19 6.51 14.623l3.572 2.032c-.027-.056-.045-.12-.072-.177-1.479-3.097-2.125-7.115-2.14-10.509zm89.52 6.764c-13.07 7.546-23.816 25.996-23.773 41.149.016 5.704 1.624 11.805 6.547 14.637 4.225 2.429 9.935 1.819 16.083-1.728 13.141-7.587 23.796-26.063 23.753-41.188-.039-14.292-9.72-20.326-22.61-12.87zm-1.311 11.318c3.407-1.903 6.208-.002 6.208 3.522 0 3.157-2.139 6.861-4.878 8.452-3.112 1.792-6.182.212-6.182-3.547 0-3.157 2.113-6.861 4.852-8.427zm10.278 21.366c0 .469-.235.887-.652 1.121l-16.487 9.522c-.42.263-.99.225-1.304 0-.418-.209-.653-.652-.653-1.122v-.965c-.026-5.739 3.861-12.495 8.87-15.391 5.678-3.23 10.226-.154 10.226 5.843v.992z" fill="#172224" fill-opacity=".6"/><path d="M88.998 119.223c-.035-16.083 11.414-35.52 25.089-43.416 3.747-2.164 7.324-3.224 10.158-3.468.043-.004.087-.015.129-.019l-3.35-1.907c-1.718-1-3.677-1.495-5.809-1.495-15.636 0-34.131 24.354-34.088 44.335.03 6.997 2.343 12.191 6.51 14.622l3.572 2.033c-.027-.055-.044-.118-.07-.173-1.44-3.015-2.127-7.132-2.141-10.512zm-3.225-88.314c16.899 3.944 18.351 16.209 18.477 26.258l-4.374-3.715a1.305 1.305 0 00-1.689 1.99l6.595 5.599c.59.5 1.486.38 1.921-.258l4.526-6.622a1.304 1.304 0 00-2.153-1.473l-2.237 3.274c-.253-10.34-2.388-23.372-20.473-27.593a1.304 1.304 0 10-.594 2.54zM70.229 125.41c-16.66-3.89-18.307-15.866-18.471-25.832l3.365 3.476a1.305 1.305 0 001.875-1.814l-5.687-5.875a1.29 1.29 0 00-1.049-.392 1.3 1.3 0 00-.965.563l-4.525 6.621a1.303 1.303 0 102.153 1.473l2.237-3.275c.253 10.34 2.388 23.373 20.473 27.595a1.304 1.304 0 00.594-2.54z" fill="#172224" fill-opacity=".6"/></svg>