<svg width="156" height="156" fill="none" xmlns="http://www.w3.org/2000/svg"><path d="M85.585 18l-53.28 30.762 9.784 5.686 53.28-30.762L85.585 18zM43.406 56.729l.23 81.271 37.347-21.56-.05-17.385c-.002-.472.25-.908.66-1.145l15.271-8.817-.178-63.125-53.28 30.76zm32.74 55.489L51.95 126.189a1.317 1.317 0 01-1.317-2.282l24.198-13.97a1.315 1.315 0 011.798.482c.365.63.149 1.435-.481 1.799zm0-15.332l-24.197 13.97a1.315 1.315 0 01-1.798-.482 1.315 1.315 0 01.48-1.799l24.199-13.97a1.316 1.316 0 011.798.482c.365.63.149 1.435-.481 1.8zm15.036-24.011l-39.233 22.65a1.316 1.316 0 01-1.798-.482 1.316 1.316 0 01.48-1.8l39.234-22.65a1.313 1.313 0 011.798.483c.365.63.149 1.435-.481 1.799zm0-15.331L51.458 80.478a1.316 1.316 0 01-1.798-.483 1.315 1.315 0 01.48-1.8l39.725-22.933a1.314 1.314 0 011.798.483c.365.63.149 1.435-.481 1.799zm0-15.33L51.458 65.146a1.316 1.316 0 01-1.798-.483 1.315 1.315 0 01.48-1.8L89.865 39.93a1.315 1.315 0 011.798.483c.365.63.149 1.435-.481 1.8z" fill="#172224" fill-opacity=".6"/><path d="M83.606 112.332l10.958-18.87L83.57 99.81l.036 12.522zM40.772 56.728L31 51.05l.232 81.26 9.77 5.677-.23-81.259zm67.92-22.521c3.94 2.279 10.592 2.273 14.528-.01 3.508-2.042 3.425-4.884-.049-6.89-4.017-2.32-10.535-2.334-14.528-.015-3.569 2.077-3.376 4.942.049 6.915zm6.965 73.956l2.011-4.5h-3.886l1.875 4.5zm-5.053-54.83a15.631 15.631 0 01-3.362-1.593l-.186 36.138c0 1.623 1.851 2.882 3.468 3.54l.08-38.085zm-3.258-9.381l-.064-.038-.024 4.568c4.887 4.104 12.183 4.1 17.452.014l.022-4.684a6.77 6.77 0 01-.221.131c-4.813 2.789-12.352 2.795-17.165.01z" fill="#172224" fill-opacity=".6"/><path d="M107.375 36.489a11.185 11.185 0 01-1.353-.916l-.008 2.615c-.003 1.457 1.371 2.744 2.652 3.482 2.467 1.425 5.989 1.956 9.243 1.598 2.976-.329 7.882-2.056 7.888-5.023l.011-2.626c-.384.302-.805.588-1.266.854-4.807 2.796-12.35 2.799-17.167.016zm13.844 54.893c1.487-.625 3.308-1.849 3.308-3.44l.169-36.235a17.171 17.171 0 01-3.397 1.592l-.08 38.083zm-2.555-37.401c-2.038.344-3.621.303-5.428.015l-.08 38.148c1.888.326 3.43.346 5.428-.007l.08-38.156zm-8.899 39.989l-.024-.007 2.944 7.066h6.159l3.172-7.1c-.017.007-.038.01-.056.016-4.05 1.601-8.921 1.295-12.195.025z" fill="#172224" fill-opacity=".6"/></svg>