<svg width="168" height="30" viewBox="0 0 168 30" fill="none" xmlns="http://www.w3.org/2000/svg">
<g clip-path="url(#clip0_6412_2308)">
<path d="M13.9314 30C4.97875 30 0 25.0667 0 14.9778C0 4.93334 4.93309 0 13.9314 0H22.381V5.24444H13.9314C7.94775 5.24444 5.38985 8.13333 5.38985 14.9778C5.38985 21.8667 7.99341 24.7556 13.9314 24.7556H31.6339V30H13.9314Z" fill="#172224"/>
<path d="M47.0664 0L57.219 26.2009C58.342 29.0831 60.6332 30 63.598 30C66.7426 30 68.8091 28.9519 69.9324 26.2009L80.6241 0H74.739L65.0806 23.7118C64.7661 24.4105 64.3168 24.7162 63.598 24.7162C62.8794 24.7162 62.3853 24.4105 62.1157 23.7118L52.9063 0H47.0664Z" fill="#172224"/>
<path d="M111.508 6.28822C111.823 5.58952 112.317 5.28385 113.036 5.28385C113.754 5.28385 114.249 5.58952 114.518 6.28822L123.727 30H129.612L119.37 3.79912C118.292 1.04803 116.225 0 113.08 0C109.891 0 107.825 1.04803 106.702 3.79912L96.0547 30H101.895L111.508 6.28822Z" fill="#172224"/>
<path d="M145.043 0V5.133H153.859V30H159.184V5.133H168V0H145.043Z" fill="#172224"/>
</g>
<defs>
<clipPath id="clip0_6412_2308">
<rect width="168" height="30" fill="white"/>
</clipPath>
</defs>
</svg>
