<svg width="1475" height="833" viewBox="0 0 1475 833" fill="none" xmlns="http://www.w3.org/2000/svg">
<path d="M730.43 329.624C731.981 329.367 732.158 321.014 731.276 320.903C728.067 320.572 726.833 330.176 730.43 329.624Z" stroke="#B2B2B2" stroke-miterlimit="10"/>
<path d="M390.153 451.424C392.798 450.394 409.761 454.11 409.761 448.517C409.761 444.837 392.128 440.127 390.153 441.857C390.345 444.259 391.301 446.526 392.868 448.296C392.868 450.1 385.533 448.113 384.898 449.952C385.414 450.868 386.254 451.535 387.237 451.811C388.22 452.086 389.267 451.947 390.153 451.424Z" stroke="#B2B2B2" stroke-miterlimit="10"/>
<path d="M291.693 413.193C290.987 427.36 291.975 461.029 314.932 449.107C322.55 445.206 316.484 433.836 328.756 434.167C336.127 434.388 334.611 446.09 329.85 451.168C328.686 452.419 325.653 464.525 328.333 462.98C332.177 460.441 344.52 460.956 347.623 464.452C350.727 467.947 346.918 469.861 348.047 473.541C352.032 487.045 345.331 488.996 359.966 494.81C355.135 492.896 378.269 495.582 372.768 497.275C376.047 496.392 377.317 491.461 380.456 489.032C381.972 487.892 396.078 477.699 398.088 479.06C395.302 477.073 396.395 500.145 399.181 493.779C400.169 491.572 398.511 480.275 404.542 480.275C408.456 480.275 410.255 487.561 412.935 488.186C419.812 489.805 430.109 485.095 435.434 487.303C432.119 486.052 444.074 496.834 439.983 497.091C449.858 496.429 449.999 505.334 457.616 509.345C465.233 513.356 472.146 512.252 480.539 517.992C489.249 522.96 482.09 541.874 481.667 541.616C481.914 541.616 486.71 535.287 489.461 537.937C492.212 540.586 489.531 547.504 489.002 547.283C491.683 548.461 494.715 540.034 497.713 540.88C497.819 540.88 515.557 549.454 508.786 552.361C514.852 549.749 515.134 550.521 522.187 551.515C529.875 552.656 536.928 562.223 543.981 561.818C564.294 560.714 531.744 598.101 531.532 598.101C528.5 603.105 530.051 618.928 528.5 625.184C525.925 635.34 523.598 643.178 515.346 648.624C508.927 652.855 497.396 651.016 492.212 660.473C489.637 665.183 491.894 671.88 490.06 677.068C488.791 680.675 478.775 689.248 478.775 692.376C480.214 690.372 481.399 688.183 482.302 685.863C482.337 685.385 473.838 701.06 472.146 702.937C465.304 710.444 452.926 704.262 450.246 707.132C450.422 706.948 458.286 717.325 457.863 720.306C455.818 733.773 439.208 726.487 434.658 731.529C433.706 732.706 435.822 738.999 433.988 740.066C434.658 739.661 421.328 744.445 422.95 741.906C417.802 750.038 427.605 749.118 428.84 750.222C428.875 750.222 423.761 755.594 422.245 757.582C418.724 763.437 416.206 769.887 414.804 776.643C414.557 777.71 419.882 777.71 419.6 781.39C419.247 785.989 413.887 789.191 411.701 793.349C410.078 796.44 407.539 797.36 406.093 800.708C405.282 802.843 409.655 809.908 408.809 810.754C407.963 811.6 405.071 808.436 404.436 810.754C403.801 813.072 407.046 812.373 407.963 812.594C409.021 812.851 416.109 823.596 421.822 825.768C417.804 827.184 413.635 828.086 409.408 828.454C408.492 828.196 411.242 832.612 409.655 832.133C406.667 830.247 403.793 828.17 401.051 825.915C400.769 827.223 400.268 828.469 399.569 829.594C399.71 829.668 394.491 823.008 394.491 824.7C394.491 827.791 397.912 818.813 396.395 821.021C397.008 820.859 397.656 820.948 398.207 821.27C398.758 821.591 399.17 822.121 399.358 822.75C399.64 823.081 398.652 818.224 400.486 819.07C400.577 820.486 401.198 821.807 402.214 822.75C401.826 822.971 403.237 816.163 404.295 817.378C403.115 817.437 401.933 817.363 400.768 817.157C400.725 816.276 400.912 815.4 401.31 814.622C401.708 813.844 402.301 813.194 403.025 812.741C402.602 813.992 394.738 818.261 393.398 820.101C392.058 821.941 395.902 821.094 394.244 822.86C393.257 823.854 387.121 819.88 386.803 818.482C387.085 819.733 397.771 815.427 397.136 813.955C394.09 814.5 391.075 815.224 388.108 816.126C388.355 815.795 395.655 810.497 396.043 811.748C394.738 807.295 387.897 814.103 386.803 812.484C383.912 808.215 392.375 810.68 391.599 808.031C390.824 805.382 386.874 807.847 385.146 807.185C384.652 807.001 387.826 804.425 387.579 803.836C386.733 802.033 382.395 804.609 381.972 804.094C379.891 801.371 388.743 794.6 385.71 791.435C384.264 789.927 383.735 795.483 382.713 795.483C377.493 794.6 385.252 785.952 384.299 786.173C383.405 787.078 382.411 787.869 381.337 788.528C374.954 789.559 388.743 778.924 388.39 783.855C388.637 780.58 384.158 784.333 383.912 782.089C383.77 780.764 379.856 772.595 379.539 776.275C379.574 776.127 387.755 763.101 385.075 764.352C388.038 762.991 385.675 771.344 386.803 772.153C388.99 773.736 392.481 745.402 390.33 746.064C388.179 746.726 387.262 759.348 385.075 756.036C380.35 748.897 393.292 711.842 394.773 704.74C398.547 686.856 399.04 668.715 401.015 650.316C402.355 637.437 404.824 630.078 397.03 620.878C388.496 610.759 380.808 609.471 374.813 597.107C371.816 590.594 358.344 571.974 357.18 565.645C356.581 562.37 362.858 551.699 362.435 550.926C356.51 539.629 363.246 537.532 368.536 526.492C373.367 516.189 375.554 499.299 363.493 496.355C360.777 495.693 362.47 502.28 357.075 501.912C351.679 501.544 345.578 494.552 342.052 490.872C339.9 488.665 338.807 484.948 334.998 480.863C329.356 474.865 326.887 477.736 320.892 471.995C318.741 469.677 313.769 469.567 310.701 466.476C303.894 459.521 294.937 462.133 286.473 459.337C279.984 457.203 268.805 452.713 263.939 447.525C256.709 439.576 255.651 428.353 247.54 417.498C242.779 411.132 234.915 404.619 230.578 397.59C229.026 395.051 228.285 381.289 219.822 382.172C219.328 382.246 242.533 426.329 240.487 427.875C241.298 427.249 219.786 403.736 219.786 403.515C220.739 398.694 219.681 396.523 214.92 388.133C211.907 382.063 208.29 376.34 204.129 371.059C197.322 363.479 187.237 356.304 183.428 345.08C177.856 328.742 186.073 311.3 181.065 296.323C180.219 293.674 166.642 273.398 164.102 275.275C176.093 266.444 186.849 296.728 187.237 296.728C197.499 296.728 178.808 280.28 179.302 280.684C173.979 277.261 169.096 273.144 164.772 268.431C163.856 267.253 156.944 260.004 155.956 258.569C154.51 256.582 154.933 246.867 152.43 246.536C149.926 246.205 145.024 251.026 143.895 250.216C143.474 247.503 143.262 244.759 143.261 242.01C146.893 241.679 151.089 236.454 145.729 236.932C142.203 237.226 148.55 241.127 147.246 241.789C151.336 239.729 137.512 240.685 139.558 240.98C140.968 241.164 140.757 227.07 140.263 228.395C140.545 227.659 140.157 237.41 137.935 234.43C138.037 233.293 137.842 232.149 137.371 231.118C135.361 230.345 138.359 238.588 137.089 239.287C137.301 239.177 130.565 229.278 130.565 228.837C130.565 229.241 143.543 227.401 134.691 220.667C134.273 222.464 134.486 224.357 135.291 226.003C135.291 230.676 116.812 213.934 117.658 214.706C115.895 213.087 88.2818 214.375 87.6823 212.388C87.7343 212.064 87.8515 211.756 88.0263 211.483C88.201 211.21 88.4293 210.979 88.696 210.805C88.9627 210.631 89.2617 210.519 89.5733 210.474C89.8849 210.43 90.202 210.455 90.5036 210.548C90.2214 210.548 83.9089 206.574 82.322 206.868C77.4906 207.788 84.3674 214.007 82.322 214.817C80.2766 215.626 66.9815 220.41 66.1704 219.637C63.3845 216.988 75.3394 206.795 75.3394 207.494C76.0447 200.723 56.0493 218.128 56.8251 220.226C58.0223 220.629 59.1352 221.266 60.1048 222.103C60.1048 228.027 24.6278 253.049 21.1013 249.075C24.1694 252.387 43.6711 227.365 45.3286 222.176C46.0339 219.968 34.0084 224.163 36.9707 225.414C33.6557 224.016 27.6606 224.752 25.9326 223.795C23.3935 222.397 26.3911 216.362 23.6404 213.492C24.6983 214.559 15.9173 214.596 13.0608 211.983C12.955 211.873 8.2294 200.944 7.48883 201.68C9.86527 199.94 12.1165 198.022 14.2245 195.94C17.7863 191.082 18.5622 195.277 21.0307 192.848C23.4993 190.42 33.55 183.943 28.9302 179.16C28.8597 179.049 12.3202 182.729 9.2521 181.515C8.58206 181.257 2.0227 170.586 1 173.125C3.99756 165.729 31.0108 167.237 31.0108 166.796C29.177 160.945 5.19659 158.958 7.45357 148.213C8.58206 143.061 31.0814 137.873 34.1142 134.414C37.8876 130.072 46.2102 126.171 49.3489 129.851C51.0769 132.059 79.9592 135.371 84.6142 135.739C87.7528 136.033 135.22 146.888 134.515 147.698C136.313 145.637 130.953 143.172 138.5 140.338C141.568 139.198 139.769 143.098 141.568 142.105C143.366 141.111 158.989 134.119 158.989 136.401C159.024 135.959 140.968 147.698 143.684 147.698C148.629 145.188 153.432 142.387 158.072 139.308C157.331 139.75 168.264 131.065 164.737 131.617C169.921 130.808 169.322 141.957 173.695 142.325C175.916 140.705 177.879 138.731 179.513 136.475C181.594 136.769 180.007 143.135 180.677 143.135C185.226 143.135 187.095 139.455 191.997 140.007C196.053 140.596 199.333 143.172 203.917 144.276C208.502 145.38 221.056 145.748 223.278 151.12C223.877 152.592 215.943 153.181 218.129 155.683C222.608 160.798 236.291 154.321 242.286 156.419C246.694 157.744 245.812 163.006 247.223 163.778C250.467 165.581 251.384 143.724 256.392 149.464C255.193 148.066 247.576 153.512 245.53 152.555C242.709 151.23 251.913 147.146 253.289 147.146C257.168 147.551 257.062 149.906 259.213 150.421C266.584 152.261 270.04 156.676 278.539 155.536C297.159 153.033 281.677 146.851 283.44 144.496C284.272 143.198 285.349 142.09 286.605 141.24C287.861 140.391 289.269 139.818 290.745 139.556C292.221 139.294 293.732 139.349 295.186 139.718C296.641 140.086 298.008 140.761 299.204 141.7C300.932 143.135 295.96 142.841 295.96 143.54C295.96 144.239 305.27 144.239 301.461 147.919C300.967 148.434 291.199 149.979 291.587 150.715C294.222 153.917 297.048 156.94 300.05 159.767C299.416 160.356 306.645 146.263 306.469 145.858C305.793 145.817 305.129 146.051 304.616 146.511C304.103 146.971 303.781 147.621 303.718 148.323C310.313 142.767 296.277 139.455 295.572 136.916C293.703 130.403 298.992 127.754 299.38 126.134C300.685 120.983 300.192 108.14 301.038 104.939C302.519 99.3089 312.323 100.155 319.023 102.363C325.724 104.571 306.433 118.775 305.94 113.402C307.033 124.81 304.141 114.69 308.408 124.81C308.408 124.81 314.791 136.916 315.461 135.849C314.932 136.659 309.995 138.13 312.922 140.817C312.746 140.669 322.021 139.713 320.54 142.62C320.328 143.025 316.872 151.782 319.905 151.194C320.751 150.936 323.255 142.031 324.913 143.576C327.099 145.453 328.792 149.758 330.061 150.936C330.555 151.414 330.837 158.222 334.082 159.804C337.326 161.387 332.53 151.598 335.034 151.598C335.413 152.706 336.042 153.703 336.868 154.505C342.827 150.899 339.865 139.639 342.052 138.903C347.388 138.614 352.623 140.501 356.651 144.165C358.873 147.955 351.82 149.979 351.82 150.568C352.102 155.867 359.226 156.456 354.571 161.902C348.505 168.967 343.885 160.871 342.545 162.233C342.157 162.638 346.707 167.053 345.472 167.053C343.709 167.053 334.998 166.759 335.316 167.053C344.485 175.443 321.421 174.229 321.809 170.733C321.21 175.922 331.754 174.523 333.658 175.922C338.172 179.197 320.116 187.439 321.457 183.281C318.565 192.297 308.02 180.337 306.292 184.643C306.222 184.863 318.635 189.721 318.635 190.42C318.53 189.942 303.365 206.832 302.731 210.511C300.297 224.642 304.635 216.657 308.69 223.832C309.396 225.01 312.57 234.614 310.912 234.871C317.055 233.556 323.447 234.615 328.898 237.852C333.024 239.692 351.608 247.051 353.125 248.891C356.863 253.344 352.384 262.065 358.803 268.063C364.516 273.398 362.294 268.468 367.372 270.97C368.148 271.338 366.631 259.379 366.878 258.127C367.443 254.963 363.74 252.277 364.48 249.664C365.045 247.714 372.732 246.757 374.002 243.372C378.199 232.259 371.322 229.499 369.735 220.851C369.523 219.674 371.674 211.762 371.674 209.812C372.521 198.663 366.984 197.779 380.491 197.375C382.289 197.338 406.164 204.771 406.164 207.641C406.164 214.228 405.212 225.746 414.839 225.746C423.55 225.709 420.729 214.964 425.736 210.254C424.996 210.953 435.293 226.003 436.034 228.432C438.82 237.374 438.855 230.971 434.588 236.711C432.472 239.581 455.571 251.136 455.571 251.136C454.372 253.27 443.581 253.712 444.392 257.833C444.427 257.87 455.183 253.197 456.206 253.933C456.126 255.167 456.221 256.407 456.488 257.612C467.067 258.937 457.369 261.439 460.014 264.015C460.978 264.457 461.895 264.935 462.765 265.45C466.009 274.282 427.429 277.299 424.643 277.961C417.802 279.58 403.343 297.979 400.169 297.979C406.693 297.979 411.454 283.555 420.975 284.843C434.764 286.535 420.411 289.81 421.575 293.895C422.792 293.982 424.01 293.728 425.101 293.159C429.333 296.103 424.149 303.757 435.011 305.854C438.444 304.545 441.452 302.248 443.686 299.23C443.369 301.254 445.555 304.308 445.309 304.308C441.041 307.694 432.401 313.508 426.688 314.391C415.509 316.12 419.953 310.969 429.298 308.099C426.759 308.871 424.714 304.971 425.172 304.014C421.54 311.852 409.691 310.674 404.965 315.826C402.624 319.701 401.108 324.055 400.522 328.595C399.04 329.699 388.461 328.963 388.461 332.643C388.461 332.863 395.161 331.833 394.703 332.863C393.68 335.071 380.597 339.781 380.597 342.431C380.42 345.743 383.03 350.011 379.01 352.918C379.186 352.808 376.224 340.517 377.775 340.517C373.755 340.517 376.118 353.617 376.118 354.574C375.377 363.773 381.09 354.868 375.166 362.78C372.732 366.239 364.586 372.789 361.06 378.088C358.344 382.246 359.014 417.13 358.626 417.13C353.865 415.511 353.019 405.833 350.903 402.153C345.543 392.623 347.165 394.867 340.112 392.623C336.364 390.983 332.36 390.073 328.298 389.936C323.925 390.378 320.751 396.302 324.525 396.781C310.136 395.015 292.962 388.281 291.693 413.193ZM291.693 413.193C291.403 412.981 291.096 412.797 290.776 412.641" stroke="#B2B2B2" stroke-miterlimit="10"/>
<path d="M385.676 441.121C390.367 434.424 337.081 422.464 343.746 432.621C340.572 427.763 364.905 434.24 366.139 434.902C370.265 437.294 379.963 449.253 385.676 441.121Z" stroke="#B2B2B2" stroke-miterlimit="10"/>
<path d="M368.747 450.283C369.488 451.719 376.365 453.779 377.105 451.939C377.846 450.1 368.042 448.48 368.747 450.283Z" stroke="#B2B2B2" stroke-miterlimit="10"/>
<path d="M415.365 450.688C416.988 453.595 421.678 451.866 422.066 450.688C422.807 448.591 413.884 447.744 415.365 450.688Z" stroke="#B2B2B2" stroke-miterlimit="10"/>
<path d="M441.289 808.656C443.476 809.907 448.025 803.688 446.015 803.283C444.004 802.878 439.244 807.478 441.289 808.656Z" stroke="#B2B2B2" stroke-miterlimit="10"/>
<path d="M446.754 809.061C448.2 809.907 454.16 807.074 453.454 805.565C452.008 802.437 445.308 808.362 446.754 809.061Z" stroke="#B2B2B2" stroke-miterlimit="10"/>
<path d="M315.428 537.236C313.629 540.327 317.226 543.381 317.967 541.983C318.707 540.585 317.261 534.108 315.428 537.236Z" stroke="#B2B2B2" stroke-miterlimit="10"/>
<path d="M478.246 140.631C478.669 133.272 467.667 136.952 466.009 136.952C464.352 136.952 477.752 149.684 478.246 140.631Z" stroke="#B2B2B2" stroke-miterlimit="10"/>
<path d="M601.464 135.517C600.124 136.327 583.831 133.714 583.831 134.008C584.289 132.868 589.72 126.354 589.015 126.097C592.542 127.495 602.804 140.154 603.121 128.415C603.403 121.46 594.023 121.424 592.542 115.867C592.083 114.285 605.026 120.209 602.451 111.856C601.005 107.146 588.345 115.242 588.803 110.163C588.803 111.893 593.176 103.908 592.33 104.828C596.386 100.155 614.724 116.161 602.91 100.118C602.416 99.4554 613.489 99.6761 614.124 97.2843C614.759 94.8924 603.015 95.2604 605.66 90.6975C608.975 84.9939 617.298 93.2733 611.938 81.6453C612.114 82.0133 598.501 77.1928 600.582 75.0585C602.663 72.9243 618.673 74.8746 618.215 72.4827C616.663 66.4111 608.764 72.8139 608.129 67.5886C607.776 64.8656 612.925 67.5887 613.666 66.2271C616.593 61.4435 601.182 65.2704 601.746 65.7119C597.585 62.3633 618.779 41.7199 619.379 42.603C615.464 37.1938 611.902 46.2828 609.152 43.3758C606.401 40.4688 624.492 38.1873 625.021 37.8562C626.537 36.8258 615.358 34.3972 614.865 35.2803C616.804 31.7846 642.901 32.2261 642.901 24.7194C642.901 14.6 618.215 24.2778 615.358 25.2346C613.207 25.9337 610.068 22.9899 608.552 23.5787C603.58 25.5657 599.03 33.9924 593.67 34.802C598.889 33.9924 604.814 20.8189 596.315 19.2366C594.975 19.0158 580.551 30.2759 579.67 26.5961C578.929 23.9099 588.345 22.9163 588.133 20.4877C587.675 15.8512 557.453 23.1371 557.417 22.438C556.959 16.0352 599.454 18.7582 603.721 12.613C606.119 9.30121 549.694 -0.22935 544.581 1.13216C543.311 1.46334 535.623 4.33353 534.812 4.44392C533.045 4.23156 531.266 4.13324 529.487 4.14954C519.895 5.29026 510.514 4.62794 500.957 6.54141C499.758 6.7622 505.119 10.5155 505.048 10.8099C504.978 11.1043 496.655 11.7299 497.783 13.3122C501.67 16.0391 505.338 19.0911 508.751 22.438C502.015 23.9099 489.637 7.71892 482.796 13.0178C481.138 14.3057 487.768 18.5374 487.768 19.531C487.768 23.4315 474.191 15.1152 474.579 15.1152C473.556 15.1152 473.944 23.5787 472.04 24.8298C477.894 21.1501 464.81 15.6672 462.765 15.4464C460.543 15.2446 458.315 15.7615 456.385 16.9267C454.454 18.092 452.914 19.8492 451.974 21.9596C448.906 23.0635 444.427 19.1998 440.477 20.8557C437.656 22.07 442.946 27.0009 439.067 29.2823C438.009 29.8711 410.607 30.5702 414.381 39.4753C417.167 46.2092 432.014 39.1441 418.824 50.5145C415.298 53.5687 404.718 52.3176 400.345 55.519C379.362 70.4589 419.741 60.5971 419.353 68.9501C419.353 69.8701 397.912 69.9069 398.194 71.9676C398.758 74.985 413.217 81.9765 417.061 82.3445C424.855 83.1172 432.331 77.0456 442.734 82.3445C447.665 84.7444 452.081 88.1587 455.717 92.3825C459.353 96.6063 462.134 101.553 463.893 106.925C467.067 119.326 459.521 120.908 471.969 120.908C475.068 125.274 478.616 129.272 482.549 132.831C482.126 133.236 468.654 127.311 468.654 130.844C468.654 139.234 487.451 133.125 482.443 147.991C481.667 150.236 475.743 147.108 473.979 151.671C472.612 154.66 471.889 157.926 471.863 161.239C471.546 167.237 480.221 188.064 486.604 197.227C491.718 204.586 494.751 205.69 502.015 209.075C513.371 214.411 510.726 215.073 517.109 205.175C519.613 201.311 515.804 197.521 516.792 194.54C517.321 192.958 522.222 192.995 522.928 189.646C523.88 185.267 523.316 178.092 523.845 176.178C525.208 176.03 526.585 176.219 527.865 176.73C528.429 176.399 535.482 166.501 536.329 166.501C536.852 166.999 537.192 167.674 537.288 168.406C537.385 169.139 537.232 169.884 536.858 170.512C538.198 175.001 554.49 159.951 554.737 159.693C560.909 155.02 560.027 154.689 565.528 152.15C577.765 146.409 591.519 141.662 601.464 135.517Z" stroke="#B2B2B2" stroke-miterlimit="10"/>
<path d="M188.188 83.7802C191.714 81.7563 191.714 83.7802 194.359 80.8732C195.093 82.2781 196.074 83.5263 197.251 84.553C201.447 84.553 203.14 75.1696 205.785 74.6176C208.43 74.0657 206.561 82.9707 212.626 76.8623C214.919 74.544 214.39 72.4098 216.647 69.8339C211.784 69.3116 206.876 69.4477 202.047 70.2387C197.074 72.0786 188.188 83.8906 188.188 83.7802Z" stroke="#B2B2B2" stroke-miterlimit="10"/>
<path d="M215.132 80.027C209.066 80.5421 218.447 84.6635 218.129 83.7067C215.635 83.7267 213.194 84.4652 211.076 85.841C209.983 87.46 217.177 86.8713 216.366 87.1657C213.737 87.2903 211.206 88.2393 209.102 89.8887C212.981 95.7763 219.681 90.1831 222.643 88.1592C221.057 89.2264 232.059 92.023 232.8 90.8454C231.742 92.5381 221.409 94.0101 221.586 95.7764C222.15 101.37 242.251 93.8996 245.213 92.5749C255.193 88.0488 258.12 91.6918 253.43 82.7132C253.818 83.4491 242.674 75.3537 240.911 76.3472C235.692 79.1806 243.979 84.8106 242.851 86.7609C239.888 91.8758 229.802 81.0205 227.44 80.3581C223.42 79.2321 219.202 79.1186 215.132 80.027Z" stroke="#B2B2B2" stroke-miterlimit="10"/>
<path d="M282.982 124.663C290.317 130.403 298.851 108.913 294.267 108.619C293.647 109.155 293.221 109.896 293.061 110.72C292.9 111.543 293.015 112.399 293.385 113.145C293.914 112.004 287.355 109.686 287.496 109.944C286.085 107.625 296.806 105.528 289.859 100.597C284.71 96.9172 285.309 103.725 285.38 103.688C286.297 103.246 269.969 101.738 275.153 106.595C276.901 107.146 278.696 107.516 280.513 107.699C286.65 113.255 269.934 110.275 271.556 109.944C266.619 110.863 281.466 123.485 282.982 124.663Z" stroke="#B2B2B2" stroke-miterlimit="10"/>
<path d="M180.115 120.908C182.179 123.251 184.121 125.708 185.934 128.267C190.342 128.267 194.997 121.57 197.184 119.877C202.897 115.425 210.973 111.046 216.756 106.078C218.907 104.238 190.448 95.7013 186.745 96.9156C174.79 100.816 185.194 98.1667 181.314 105.011C180.115 107.109 173.697 118.148 174.508 119.178C176.241 120.157 178.151 120.746 180.115 120.908Z" stroke="#B2B2B2" stroke-miterlimit="10"/>
<path d="M201.906 86.9066C205.15 87.3114 208.43 83.9996 208.253 82.1229C208.077 80.2462 200.283 86.6858 201.906 86.9066Z" stroke="#B2B2B2" stroke-miterlimit="10"/>
<path d="M394.314 128.378C395.249 128.378 396.146 127.99 396.807 127.3C397.469 126.61 397.84 125.674 397.84 124.698C398.651 127.421 384.192 119.51 382.888 119.068C379.678 117.928 381.653 114.837 376.469 113.622C372.943 112.776 367.477 118.296 367.653 118.332C362.822 116.566 364.832 118.664 359.401 118.664C355.381 118.664 362.187 95.8122 344.73 106.778C334.151 113.365 342.967 116.897 343.426 123.852C343.426 125.029 335.597 121.423 335.914 116.124C336.231 110.826 341.98 106.962 341.98 103.944C341.98 98.3513 323.042 110.752 322.125 114.984C320.856 120.871 329.002 132.647 332.317 128.047C331.471 129.224 323.465 126.943 323.677 129.151C324.841 141.22 366.524 133.677 367.406 136.142C366.851 135.767 366.377 135.275 366.013 134.699C365.648 134.123 365.402 133.474 365.29 132.794C365.854 130.77 379.961 141.92 380.066 142.84C378.464 143.813 377.1 145.161 376.081 146.777C378.762 149.169 381.759 144.422 386.238 149.279C391.281 154.762 391.21 153.621 392.409 161.938C392.656 163.667 407.75 158.589 404.999 165.875C402.248 173.161 398.299 163.998 396.288 164.661C394.278 165.323 389.235 165.507 386.414 166.39C385.956 166.39 387.825 171.799 388.036 171.689C383.804 173.86 376.857 171.946 373.613 174.853C361.587 185.598 386.485 179.085 389.87 180.189C393.256 181.293 414.027 207.824 419.423 200.133C420.763 198.183 410.289 186.334 408.349 186.923C416.284 184.531 427.957 198.257 423.795 184.347C421.926 178.165 407.855 173.308 413.992 165.691C416.566 162.453 427.251 176.105 429.05 176.068C429.05 176.068 439.63 164.55 439.63 164.624C439.63 156.933 410.606 152.775 411.417 145.342C413.188 144.509 415.087 144.01 417.024 143.87C415.74 142.523 414.112 141.591 412.334 141.184C411.805 136.621 416.954 136.842 409.583 136.842C414.944 136.842 402.178 130.77 401.719 130.623C400.132 130.108 394.314 128.378 394.314 128.378Z" stroke="#B2B2B2" stroke-miterlimit="10"/>
<path d="M144.952 254.961C141.602 257.022 149.184 266.7 151.194 265.228C151.829 264.786 149.925 251.981 144.952 254.961Z" stroke="#B2B2B2" stroke-miterlimit="10"/>
<path d="M265.384 91.0278C266.653 89.3719 262.668 85.8394 261.575 88.7464C260.482 91.6534 264.079 92.7205 265.384 91.0278Z" stroke="#B2B2B2" stroke-miterlimit="10"/>
<path d="M363.316 202.268C364.586 202.268 367.125 196.895 363.845 197.079C360.566 197.263 361.342 202.599 363.316 202.268Z" stroke="#B2B2B2" stroke-miterlimit="10"/>
<path d="M381.445 158.074C391.354 156.161 371.888 148.728 375.132 151.598C377.213 153.364 369.525 160.356 381.445 158.074Z" stroke="#B2B2B2" stroke-miterlimit="10"/>
<path d="M347.341 197.704C350.268 199.802 354.606 194.024 354.394 192.516C354.182 191.007 343.85 195.202 347.341 197.704Z" stroke="#B2B2B2" stroke-miterlimit="10"/>
<path d="M312.532 91.47C314.155 96.8425 355.627 98.8296 360.423 95.4074C379.572 80.9091 319.832 88.0479 320.643 83.4482C321.594 82.1555 322.709 81.0042 323.958 80.026C325.44 78.0021 291.444 70.8266 294.018 75.0583C301.036 86.5024 307.736 75.7574 312.532 91.47Z" stroke="#B2B2B2" stroke-miterlimit="10"/>
<path d="M270.816 137.945C271.804 136.621 276.459 140.632 276.635 137.725C276.635 135.701 262.811 125.434 261.577 122.159C260.923 117.728 260.617 113.248 260.66 108.765C262.317 107.219 262.141 105.6 260.096 103.908C258.719 103.407 257.232 103.335 255.817 103.701C254.402 104.067 253.119 104.855 252.126 105.968C254.04 107.373 255.75 109.058 257.204 110.973C257.204 110.016 248.141 106.557 247.224 108.47C245.954 111.12 251.35 120.834 249.622 121.754C249.304 121.938 237.42 107.771 236.715 110.973C237.943 112.094 238.981 113.426 239.783 114.91C239.783 115.425 233.188 114.91 233.576 116.088C228.78 102.914 224.865 118.7 220.493 114.432C220.069 113.99 227.933 107.734 218.659 107.698C215.132 107.698 205.928 113.07 204.553 116.198C199.157 129.592 211.253 119.878 216.296 123.815C216.578 124.073 205.716 127.016 205.716 128.599C205.716 135.59 231.636 127.863 231.636 133.787C231.636 135.259 208.291 133.787 209.137 137.725C211.535 148.764 241.229 146.482 247.224 145.599C250.403 144.798 253.653 144.342 256.922 144.238C258.932 144.238 275.542 150.199 273.532 143.134C271.945 137.614 268.136 144.79 266.831 141.036C267.979 139.774 269.327 138.729 270.816 137.945Z" stroke="#B2B2B2" stroke-miterlimit="10"/>
<path d="M426.795 280.721C427.148 282.376 437.692 287.344 438.045 285.063C438.398 282.781 426.478 279.285 426.795 280.721Z" stroke="#B2B2B2" stroke-miterlimit="10"/>
<path d="M321.774 66.9634C318.529 65.0867 314.403 69.0608 317.789 70.6431C321.174 72.2254 325.053 68.7296 321.774 66.9634Z" stroke="#B2B2B2" stroke-miterlimit="10"/>
<path d="M293.492 64.2774C314.652 64.2774 289.648 51.8766 288.238 54.3052C286.827 56.7339 290.988 64.2774 293.492 64.2774Z" stroke="#B2B2B2" stroke-miterlimit="10"/>
<path d="M295.677 43.7444C295.677 43.7444 312.499 51.8398 311.617 49.1168C312.075 50.5151 303.929 52.5758 304.352 53.0542C306.884 56.2199 310.181 58.6225 313.901 60.0134C317.62 61.4043 321.629 61.733 325.512 60.9656C326.041 60.9656 341.169 46.7249 340.746 49.1168C340.147 52.7965 329.567 38.0775 328.968 37.4887C328.368 36.9 305.939 24.6832 303.753 26.4494C303.952 27.077 304.309 27.6371 304.786 28.0709C305.264 28.5047 305.845 28.7962 306.468 28.9149C306.468 30.2028 300.932 29.1725 300.438 30.2396C301.461 31.0859 302.448 31.9323 303.435 32.8522C302.307 35.0601 295.959 31.7851 296.382 36.164C297.722 37.8485 299.41 39.1947 301.32 40.1014C301.425 42.4196 289.294 40.0646 295.677 43.7444Z" stroke="#B2B2B2" stroke-miterlimit="10"/>
<path d="M358.766 104.129C354.217 115.426 377.28 112.813 377.28 110.348C377.28 106.558 360.071 100.891 358.766 104.129Z" stroke="#B2B2B2" stroke-miterlimit="10"/>
<path d="M308.093 65.3079C307.741 64.0568 293.987 65.9702 296.138 67.8101C299.841 70.9011 308.552 66.559 308.093 65.3079Z" stroke="#B2B2B2" stroke-miterlimit="10"/>
<path d="M224.546 65.0505C225.463 62.585 218.551 62.9898 219.115 63.8362C220.384 65.7128 223.664 67.5895 224.546 65.0505Z" stroke="#B2B2B2" stroke-miterlimit="10"/>
<path d="M304.177 87.7162C301.25 85.214 292.645 91.3959 293.844 92.2791C298.535 96.474 314.862 96.8788 304.177 87.7162Z" stroke="#B2B2B2" stroke-miterlimit="10"/>
<path d="M262.247 71.121C263.693 69.0604 256.464 62.4 256.076 65.5278C255.688 68.6556 260.731 73.3289 262.247 71.121Z" stroke="#B2B2B2" stroke-miterlimit="10"/>
<path d="M278.256 74.6542C273.954 72.7407 280.09 81.4618 279.42 81.2778C277.354 79.5982 274.938 78.4509 272.367 77.9292C270.815 79.2171 274.589 83.1545 273.319 83.8168C271.38 84.7736 266.619 75.243 263.939 75.059C258.12 74.7278 265.949 83.596 266.231 83.78C271.062 86.8342 274.871 84.4792 279.702 85.8407C279.032 85.6567 285.063 101.884 290.74 87.5334C295.043 77.0829 283.123 76.8253 278.256 74.6542Z" stroke="#B2B2B2" stroke-miterlimit="10"/>
<path d="M239.606 64.0565C242.745 63.5045 226.734 59.5304 226.734 65.9332C226.734 76.7517 239.677 64.0565 239.606 64.0565Z" stroke="#B2B2B2" stroke-miterlimit="10"/>
<path d="M230.717 60.1186C232.198 60.781 242.531 60.6706 242.531 58.4628C242.531 50.4409 225.427 59.3459 225.815 59.7139C227.423 60.087 229.073 60.2233 230.717 60.1186Z" stroke="#B2B2B2" stroke-miterlimit="10"/>
<path d="M285.874 43.9275C287.143 41.4252 278.221 39.475 280.443 41.646C281.713 42.9708 284.604 46.4297 285.874 43.9275Z" stroke="#B2B2B2" stroke-miterlimit="10"/>
<path d="M261.013 53.6782C263.94 52.6847 265.738 53.6782 266.479 56.5852C266.091 57.5052 259.743 57.2108 259.919 57.8363C260.096 58.4619 294.832 72.5554 277.164 54.1566C274.826 51.8511 271.941 50.238 268.806 49.4833C253.325 47.7538 262.247 52.7215 261.013 53.6782Z" stroke="#B2B2B2" stroke-miterlimit="10"/>
<path d="M360.425 186.482C360.778 184.311 342.792 171.395 341.734 171.542C340.042 171.763 331.578 183.575 332.671 187.292C333.765 191.008 360.601 185.305 360.425 186.482Z" stroke="#B2B2B2" stroke-miterlimit="10"/>
<path d="M317.611 23.1734C324.135 18.3897 318.74 25.1973 318.81 25.2709C320.109 25.3629 321.396 25.5847 322.654 25.9332C315.601 34.8015 336.161 33.2928 336.055 31.6737C336.972 45.4728 362.539 27.074 365.608 29.3554C371.532 33.7344 350.126 38.0397 350.62 38.7756C350.62 38.7756 357.497 44.8472 356.65 44.9208C352.559 45.2152 331.294 29.429 334.891 43.4857C335.738 46.7607 352.524 53.4579 352.524 56.5857C352.524 56.5857 331.365 50.0357 330.942 59.4927C330.624 65.4907 342.579 58.4256 342.72 58.7935C340.851 54.4882 344.554 72.2614 344.554 68.8393C344.554 72.8502 328.226 58.3888 328.896 66.3371C330.387 67.7914 332.004 69.0973 333.728 70.2376C333.728 71.6359 319.622 72.8134 322.972 76.3092C326.322 79.805 369.416 81.5712 371.567 76.1252C373.719 70.6791 355.592 72.1879 354.711 70.7528C357.285 74.9109 370.897 63.3932 371.814 62.7309C378.585 58.8303 381.406 64.534 385.004 53.4947C386.061 50.1829 373.26 50.0725 373.366 49.8149C380.842 44.2953 390.681 46.5399 397.488 42.9706C401.614 40.8363 426.088 27.626 426.37 25.6757C426.652 23.7254 414.873 25.1605 414.203 24.8661C419.846 27.442 439.912 13.5693 440.159 13.8268C438.572 13.3117 415.473 5.06901 414.979 11.2878C415.917 9.84818 417.225 8.71323 418.753 8.01282C414.168 9.92629 391.422 8.63838 388.318 8.82237C377.739 9.41113 367.759 7.38727 358.59 10.0367C356.721 10.5519 313.979 25.1973 313.168 23.5782C313.867 23.9666 314.658 24.1352 315.447 24.0633C316.236 23.9915 316.988 23.6823 317.611 23.1734Z" stroke="#B2B2B2" stroke-miterlimit="10"/>
<path d="M462.518 271.926C458.668 274.443 455.633 278.11 453.808 282.45C453.384 283.444 445.379 291.797 448.624 293.784C455.959 298.31 462.73 286.939 463.506 296.985C463.223 293.637 474.085 298.236 474.614 297.243C474.402 297.684 471.405 288.559 472.851 289.221C474.297 289.883 458.392 278.182 458.745 280.316C459.296 277.229 460.595 274.341 462.518 271.926Z" stroke="#B2B2B2" stroke-miterlimit="10"/>
<path d="M3.46999 258.716C5.65644 257.686 6.53809 256.435 5.65645 255.037C4.77482 253.638 1.77725 259.526 3.46999 258.716Z" stroke="#B2B2B2" stroke-miterlimit="10"/>
<path d="M18.9143 249.37C16.4104 248.339 13.836 252.571 13.4834 252.497C12.3196 252.313 21.3123 250.4 18.9143 249.37Z" stroke="#B2B2B2" stroke-miterlimit="10"/>
<path d="M61.6901 226.334C57.5288 231.816 54.108 242.341 62.9949 232.994C64.2997 231.596 66.204 220.409 61.6901 226.334Z" stroke="#B2B2B2" stroke-miterlimit="10"/>
<path d="M7.10076 212.754C5.37275 211.687 4.17373 212.166 3.57422 214.19C4.24944 215.05 5.14437 215.693 6.15542 216.045C7.16648 216.396 8.2523 216.442 9.28721 216.177C15.3881 213.822 7.06549 212.239 7.10076 212.754Z" stroke="#B2B2B2" stroke-miterlimit="10"/>
<path d="M706.237 339.449C705.92 337.094 701.794 340.148 702.711 340.847C704.474 342.209 706.59 341.804 706.237 339.449Z" stroke="#B2B2B2" stroke-miterlimit="10"/>
<path d="M798.278 363.11C798.278 361.601 786.535 363.11 786.782 363.11C785.336 362.816 798.631 366.974 798.278 363.11Z" stroke="#B2B2B2" stroke-miterlimit="10"/>
<path d="M828.961 364.692C829.893 363.313 830.893 361.987 831.959 360.718C828.738 361.418 825.62 362.556 822.684 364.104C821.062 367.268 829.314 366.79 828.961 364.692Z" stroke="#B2B2B2" stroke-miterlimit="10"/>
<path d="M629.993 182.545C642.936 181.809 630.769 161.386 624.633 165.139C623.222 165.986 614.054 171.248 612.537 170.733C612.303 170.108 611.91 169.562 611.401 169.153C610.891 168.745 610.284 168.489 609.645 168.414C601.605 178.313 609.963 165.544 598.854 165.544C596.527 165.544 600.053 168.966 599.418 168.893C597.197 168.635 593.776 167.899 593.247 172.315C593 174.228 602.451 173.787 602.134 173.419C601.816 173.051 601.217 177.099 601.499 176.767C601.781 176.436 593.917 177.099 594.446 178.497C594.693 178.975 601.146 179.159 602.275 180.558C604.32 183.023 600.053 186.114 599.595 185.599C607.459 194.467 621.671 183.06 629.993 182.545Z" stroke="#B2B2B2" stroke-miterlimit="10"/>
<path d="M654.009 270.013C664.589 270.013 667.727 261.917 666.669 253.38C666.317 250.436 672.1 249.958 665.611 246.315C662.708 246.434 659.846 247.068 657.148 248.192C656.936 254.227 657.571 248.891 651.399 252.423C651.223 252.718 651.364 270.013 654.009 270.013Z" stroke="#B2B2B2" stroke-miterlimit="10"/>
<path d="M687.019 213.821C688.042 212.644 689.241 208.155 687.689 208.633C686.138 209.111 686.561 214.337 687.019 213.821Z" stroke="#B2B2B2" stroke-miterlimit="10"/>
<path d="M666.317 224.677C665.542 223.794 662.403 228.872 663.602 228.835C664.801 228.799 667.128 225.597 666.317 224.677Z" stroke="#B2B2B2" stroke-miterlimit="10"/>
<path d="M665.293 230.896C669.243 227.216 665.54 244.768 665.54 242.524C665.54 239.396 670.724 244.069 670.16 244.18C671.303 243.255 672.122 241.961 672.487 240.5C674.321 240.794 671.288 247.859 671.359 248.448C671.676 251.282 678.412 246.719 678.659 247.418C682.961 255.256 675.132 258.457 675.449 263.719C674.347 263.98 673.342 264.572 672.559 265.422C671.775 266.272 671.248 267.343 671.041 268.503C674.362 269.339 677.751 269.844 681.162 270.012C681.339 271.3 667.056 274.427 670.583 279.358C670.583 279.174 696.609 273.397 698.16 271.741C699.712 270.085 695.48 271.189 695.621 270.012C696.291 264.529 700.382 267.105 698.16 261.107C696.186 260.159 694.448 258.749 693.082 256.985C690.155 251.834 687.299 240.758 680.21 241.309C680.21 241.309 684.759 233.398 684.266 232.184C682.291 226.885 678.518 232.92 675.696 229.387C674.744 228.173 681.515 223.499 679.54 221.549C677.953 220.151 665.61 230.638 665.293 230.896Z" stroke="#B2B2B2" stroke-miterlimit="10"/>
<path d="M739.423 248.007C738.647 247.786 749.72 244.879 744.466 241.162C739.952 237.998 739 247.896 739.423 248.007Z" stroke="#B2B2B2" stroke-miterlimit="10"/>
<path d="M768.762 228.431C766.434 228.431 765.235 233.656 765.976 234.502C766.716 235.349 771.054 228.357 768.762 228.431Z" stroke="#B2B2B2" stroke-miterlimit="10"/>
<path d="M781.563 226.959C783.182 226.246 784.627 225.164 785.795 223.794C788.757 220.446 777.12 227.327 781.563 226.959Z" stroke="#B2B2B2" stroke-miterlimit="10"/>
<path d="M785.02 220.961C785.513 219.894 781.493 220.372 782.41 221.292C782.591 221.475 782.809 221.613 783.048 221.697C783.287 221.78 783.54 221.807 783.79 221.775C784.04 221.744 784.281 221.654 784.493 221.513C784.706 221.372 784.886 221.184 785.02 220.961Z" stroke="#B2B2B2" stroke-miterlimit="10"/>
<path d="M767.246 40.9102C770.772 44.0012 777.402 40.4686 781.669 43.1916C781.458 43.1916 773.1 46.4298 773.135 46.5402C775.18 52.1702 805.227 49.3 803.146 40.6158C802.899 39.5486 783.609 36.752 784.385 36.4576C783.779 37.0149 783.376 37.7719 783.241 38.6024C783.106 39.4328 783.248 40.2864 783.644 41.0205C782.057 42.2349 774.299 35.6113 772.571 35.8321C771.501 36.8898 770.618 38.1353 769.961 39.5118C768.903 38.7023 767.88 37.856 766.858 37.0096C763.296 37.0832 766.752 40.5054 767.246 40.9102Z" stroke="#B2B2B2" stroke-miterlimit="10"/>
<path d="M742.103 49.3372C736.003 47.8653 745.348 59.2726 746.829 60.1557C749.65 61.8484 751.907 54.6361 753.882 53.7898C755.857 52.9434 753.036 57.7639 755.011 57.4695C756.36 56.6149 757.821 55.9703 759.348 55.556C761.147 58.4262 746.441 63.9827 748.486 64.4979C752.189 65.4546 756.139 62.9891 759.983 63.9459C756.124 64.7753 752.355 66.0081 748.733 67.6256C748.345 71.3054 755.222 71.3054 756.809 71.8574C756.642 72.3034 756.37 72.6987 756.019 73.0072C755.668 73.3157 755.249 73.5276 754.799 73.6237C753.882 74.9484 759.912 75.5739 760.865 74.9852C763.201 71.7476 765.333 68.3551 767.248 64.829C767.953 63.8723 773.807 49.3004 777.439 55.2616C776.452 53.6793 778.921 67.9936 777.616 67.6992C779.132 68.0672 792.991 70.4958 792.427 63.7619C792.709 67.2209 778.074 52.7226 778.321 52.7226C773.772 48.822 766.965 48.1965 763.756 47.3869C765.625 47.8653 760.724 41.021 758.396 40.2114C754.869 39.0707 759.137 52.833 759.383 51.7291C762.487 37.562 749.932 48.6748 750.038 48.6381C748.877 47.361 747.602 46.2027 746.229 45.1791C747.344 44.551 748.528 44.069 749.756 43.744C748.91 44.5904 726.481 45.5471 742.103 49.3372Z" stroke="#B2B2B2" stroke-miterlimit="10"/>
<path d="M738.33 57.6905C739.206 58.5657 740.176 59.3314 741.222 59.9719C739.882 59.9719 738.401 52.6124 735.791 53.5323C735.646 54.4304 735.826 55.3527 736.295 56.1207C736.764 56.8888 737.489 57.4481 738.33 57.6905Z" stroke="#B2B2B2" stroke-miterlimit="10"/>
<path d="M1466.49 189.205C1464.63 189.085 1462.81 189.732 1461.41 191.008C1462.22 192.038 1474 194.908 1474 192.112C1471.91 190.229 1469.25 189.196 1466.49 189.205Z" stroke="#B2B2B2" stroke-miterlimit="10"/>
<path d="M1266.99 319.542C1266.39 315.311 1257.33 333.378 1261.88 330.766C1261.1 331.207 1265.65 328.079 1265.4 328.778C1264.63 327.601 1263.82 326.46 1262.97 325.319C1262.97 326.35 1289.07 326.129 1287.66 314.28C1288.36 320.683 1265.83 310.085 1268.51 308.245C1268.97 308.098 1266.89 318.954 1266.99 319.542Z" stroke="#B2B2B2" stroke-miterlimit="10"/>
<path d="M1218.75 377.83C1220.05 380.553 1221.22 374.15 1221.92 377.315C1221.92 377.793 1220.19 387.545 1223.23 386.845C1225.66 386.293 1230.28 376.984 1226.29 375.291C1225.48 374.849 1215.47 370.912 1218.75 377.83Z" stroke="#B2B2B2" stroke-miterlimit="10"/>
<path d="M1233.14 376.651C1234.02 372.567 1239.41 377.424 1239.41 370.985C1239.41 367.562 1232.89 370.985 1232.68 371.573C1231.83 373.634 1232.25 380.699 1233.14 376.651Z" stroke="#B2B2B2" stroke-miterlimit="10"/>
<path d="M1242.06 362.706C1242.06 362.706 1222.14 363.626 1223.69 370.912C1223.9 371.869 1240.47 369.293 1241.67 368.998C1237.93 369.918 1245.2 371.758 1246.08 371.685C1248.9 371.464 1246.75 367.416 1247.28 367.048C1250.42 365.061 1259.98 368.888 1263.26 364.215C1265.79 360.535 1271.61 335.513 1267.1 332.79C1261.42 329.404 1258.64 348.465 1255.96 352.329C1253.87 355.383 1242.63 356.23 1242.06 362.706Z" stroke="#B2B2B2" stroke-miterlimit="10"/>
<path d="M1139.19 448.592C1140.03 446.81 1140.75 444.965 1141.34 443.072C1140.88 441.159 1130.76 442.594 1132.7 446.752C1132.95 447.194 1138.66 455.584 1139.19 448.592Z" stroke="#B2B2B2" stroke-miterlimit="10"/>
<path d="M1181.62 431.847C1183.59 430.302 1188.28 419.741 1186.69 417.349C1181.47 409.364 1177.14 435.454 1181.62 431.847Z" stroke="#B2B2B2" stroke-miterlimit="10"/>
<path d="M1177.88 460.772C1175.09 470.413 1204.89 483.292 1198.72 490.652C1208.63 478.803 1187.36 473.982 1185.18 468.573C1182.99 463.164 1192.83 455.399 1185.18 450.763C1180.03 447.525 1177.98 460.367 1177.88 460.772Z" stroke="#B2B2B2" stroke-miterlimit="10"/>
<path d="M1172.66 490.945C1170.49 493.166 1168.73 495.786 1167.47 498.672C1166.98 497.642 1178.05 490.393 1175.94 485.83C1175.07 486.385 1174.33 487.13 1173.76 488.013C1173.19 488.896 1172.82 489.896 1172.66 490.945Z" stroke="#B2B2B2" stroke-miterlimit="10"/>
<path d="M1180.17 474.902C1180.52 476.815 1181.37 480.826 1184.05 479.869C1186.73 478.913 1179.92 473.503 1180.17 474.902Z" stroke="#B2B2B2" stroke-miterlimit="10"/>
<path d="M1197.2 491.498C1196.25 490.099 1193.85 492.675 1194.2 493.705C1194.56 494.736 1198.19 492.896 1197.2 491.498Z" stroke="#B2B2B2" stroke-miterlimit="10"/>
<path d="M1201.22 493.853C1201.22 493.853 1183.59 505.775 1186.59 505.481C1189.58 505.186 1190.78 500.844 1193.81 503.089C1196.85 505.334 1195.01 512.509 1200.87 512.509C1196.53 512.509 1205.49 502.795 1205.1 504.487C1205.55 502.513 1205.42 500.444 1204.73 498.547C1204.04 496.651 1202.81 495.015 1201.22 493.853Z" stroke="#B2B2B2" stroke-miterlimit="10"/>
<path d="M1186.69 481.931C1185.94 482.82 1185.54 483.979 1185.59 485.165C1185.64 486.352 1186.12 487.474 1186.94 488.296C1194.52 486.567 1184.26 494.368 1190.08 495.656C1195.16 497.017 1195.51 479.943 1186.69 481.931Z" stroke="#B2B2B2" stroke-miterlimit="10"/>
<path d="M1308.81 561.486C1308.81 566.969 1295.31 563.547 1295.17 565.166C1294.43 573.115 1315.9 565.424 1311.5 559.61C1310.01 559.242 1309.13 559.831 1308.81 561.486Z" stroke="#B2B2B2" stroke-miterlimit="10"/>
<path d="M1314.25 560.935C1317.78 559.868 1311.46 555.047 1310.72 554.863C1311.78 555.121 1313.16 561.303 1314.25 560.935Z" stroke="#B2B2B2" stroke-miterlimit="10"/>
<path d="M1291.05 570.613C1294.32 570.833 1280.47 558.764 1277.47 556.887C1270.41 552.729 1256.77 546.253 1249.71 546.694C1247.67 546.694 1244.81 553.355 1242.31 552.876C1237.27 551.919 1240.16 546.326 1236.56 544.781C1233.49 543.456 1233.49 539.85 1227.96 540.733C1227 540.733 1221.75 545.222 1223.62 545.627C1224.64 545.885 1235.29 552.067 1235.36 550.153C1235.36 551.036 1228.8 550.963 1228.31 551.073C1225.35 551.662 1239.38 558.837 1240.26 559.279C1246.47 562.444 1250.84 561.744 1254.55 568.331C1258.25 574.918 1249.54 574.55 1251.02 577.531C1253.63 582.977 1273.2 578.156 1275.28 578.193C1280.99 578.193 1280.89 578.009 1288.01 581.873C1288.01 581.873 1305.64 591.109 1303.67 587.834C1302.79 586.325 1287.48 570.392 1291.05 570.613Z" stroke="#B2B2B2" stroke-miterlimit="10"/>
<path d="M1019.71 492.454C1017.1 492.785 1017.03 508.755 1020.06 510.043C1028.56 513.612 1026.52 491.607 1019.71 492.454Z" stroke="#B2B2B2" stroke-miterlimit="10"/>
<path d="M891.171 594.566C891.171 594.566 885.493 604.87 884.541 605.9C882.002 608.586 875.266 610.242 873.221 612.671C867.649 619.405 871.422 622.422 870.435 632.321C869.729 639.276 861.865 667.499 879.921 658.337C890.501 653.038 888.208 621.981 892.088 611.751C892.617 610.426 895.403 614.768 895.367 609.138C895.332 603.508 892.334 599.46 891.171 594.566Z" stroke="#B2B2B2" stroke-miterlimit="10"/>
<path d="M908.909 478.985C910.284 480.604 912.929 478.727 913.07 478.102C913.211 477.476 907.392 477.182 908.909 478.985Z" stroke="#B2B2B2" stroke-miterlimit="10"/>
<path d="M1342 583.381C1342.39 585.478 1345.1 586.729 1346.2 585.993C1347.29 585.257 1341.65 581.246 1342 583.381Z" stroke="#B2B2B2" stroke-miterlimit="10"/>
<path d="M1329.13 570.612C1329.13 571.127 1331.95 574.292 1332.66 573.85C1333.36 573.409 1329.31 569.692 1329.13 570.612Z" stroke="#B2B2B2" stroke-miterlimit="10"/>
<path d="M1342.74 578.929C1343.73 578.193 1337.13 574.072 1337.03 575.249C1336.92 576.427 1341.75 579.665 1342.74 578.929Z" stroke="#B2B2B2" stroke-miterlimit="10"/>
<path d="M1321.41 564.799C1321.16 566.05 1324.93 572.637 1326.48 571.606C1329.13 569.656 1321.65 563.584 1321.41 564.799Z" stroke="#B2B2B2" stroke-miterlimit="10"/>
<path d="M1346.27 578.707C1345.39 580.988 1348.98 584.963 1349.55 585.036C1350.11 585.11 1346.97 576.978 1346.27 578.707Z" stroke="#B2B2B2" stroke-miterlimit="10"/>
<path d="M1349.44 587.943C1349.44 588.458 1351.98 590.96 1353.18 590.041C1354.38 589.121 1349.13 587.06 1349.44 587.943Z" stroke="#B2B2B2" stroke-miterlimit="10"/>
<path d="M1219.84 594.604C1220.76 595.414 1225.31 594.383 1225.13 593.132C1224.96 591.881 1218.47 593.353 1219.84 594.604Z" stroke="#B2B2B2" stroke-miterlimit="10"/>
<path d="M1315.97 674.382C1315.8 674.382 1313.79 660.693 1314.92 661.245C1307.19 657.565 1295.94 640.675 1290.23 631.807C1286.03 625.073 1284.76 617.971 1281.38 609.728C1279.65 605.386 1276.09 608.624 1274.86 605.828C1273.06 601.706 1274.86 593.096 1270.94 589.342C1268.01 586.472 1266.46 609.912 1266.43 609.986C1262.3 622.166 1264.73 622.387 1254.26 618.486C1251.23 617.382 1242.16 612.525 1241.32 608.33C1240.65 604.834 1248.58 598.91 1247.52 596.702C1248.3 598.358 1228.48 590.814 1228.06 590.998C1227.56 592.36 1228.06 593.39 1229.61 594.126C1224.14 587.466 1215.19 611.237 1217.87 610.832C1219.14 610.648 1209.79 609.323 1212.36 610.832C1205.63 606.784 1206.65 602.7 1198.61 608.735C1193.39 612.672 1195.08 617.934 1192.16 621.467C1191.35 622.387 1190.78 616.683 1189.55 617.566C1185.21 620.583 1188.6 624.521 1184.65 627.869C1180.8 630.87 1176.56 633.275 1172.06 635.008C1165 638.688 1160.14 639.681 1154.07 645.643C1153.77 645.235 1153.57 644.756 1153.49 644.249C1153.41 643.742 1153.45 643.222 1153.61 642.736C1153.61 644.244 1151.88 648.954 1151.71 651.457C1151.53 653.959 1154 663.673 1153.33 665.145C1152.27 664.687 1151.4 663.836 1150.9 662.754C1151.39 663.825 1151.78 664.947 1152.06 666.102L1149.17 663.6C1148.01 666.617 1156.72 682.624 1157.56 686.194C1157.99 688.07 1157.88 705.365 1157.14 703.746C1162.75 715.705 1170.79 707.426 1180.03 704.703C1187.57 702.385 1192.44 700.692 1199.78 697.858C1205.42 695.614 1217.41 691.198 1223.51 692.228C1227.32 692.891 1246.22 708.309 1241.92 710.333C1243.22 709.744 1250.98 699.662 1251.47 700.14C1253.87 702.495 1247.49 708.898 1247.21 710.406C1246.04 716.184 1253.55 705.844 1251.54 707.499C1254.3 705.255 1252.99 714.565 1252.74 713.829C1252.5 713.093 1261.7 726.156 1262.55 726.929C1267.73 731.565 1280.64 727.26 1280.5 727.149C1280.71 728.193 1280.71 729.271 1280.5 730.314C1279.33 728.805 1284.8 732.227 1286.1 733.515C1283.46 730.866 1301.3 725.052 1300.78 725.641C1303.53 722.476 1305.11 707.647 1307.23 702.863C1309.03 699.22 1314.42 675.89 1315.97 674.382Z" stroke="#B2B2B2" stroke-miterlimit="10"/>
<path d="M1245.51 715.999C1246.54 717.029 1249.89 716.735 1250.42 715.263C1250.95 713.791 1244.63 715.079 1245.51 715.999Z" stroke="#B2B2B2" stroke-miterlimit="10"/>
<path d="M1286.53 744.849C1284.11 744.362 1281.74 743.597 1279.48 742.568C1280.71 742.163 1279.69 762.144 1290.06 756.514C1295.17 753.681 1297.14 743.488 1286.53 744.849Z" stroke="#B2B2B2" stroke-miterlimit="10"/>
<path d="M1374.3 779.695C1374.94 779.916 1377.02 779.291 1375.86 777.635C1374.69 775.979 1372.79 779.217 1374.3 779.695Z" stroke="#B2B2B2" stroke-miterlimit="10"/>
<path d="M1415.42 727.406C1412.99 732.043 1407.67 720.415 1407.17 720.452C1406.94 720.836 1406.81 721.283 1406.81 721.74C1406.81 722.196 1406.94 722.643 1407.17 723.028C1407.6 722.365 1399.1 710.369 1397.37 710.369C1397.16 710.369 1403.43 723.322 1404 725.088C1405.87 730.829 1399.66 730.608 1399.91 733.772C1399.91 733.515 1404.39 747.277 1404.17 746.836C1409.25 756.845 1420.29 717.655 1415.42 727.406Z" stroke="#B2B2B2" stroke-miterlimit="10"/>
<path d="M1400.51 743.929C1395.43 739.771 1364.78 768.326 1374.02 774.839C1383.26 781.353 1404.84 747.535 1400.51 743.929Z" stroke="#B2B2B2" stroke-miterlimit="10"/>
<path d="M1420.64 619.92C1421.63 620.325 1424.91 619.074 1424.91 617.307C1424.91 615.541 1419.13 619.295 1420.64 619.92Z" stroke="#B2B2B2" stroke-miterlimit="10"/>
<path d="M1415.04 625.403C1416.55 627.059 1419.66 626.986 1419.73 623.968C1419.8 620.951 1413.66 623.932 1415.04 625.403Z" stroke="#B2B2B2" stroke-miterlimit="10"/>
<path d="M889.371 36.6051C887.841 36.9488 886.471 37.8325 885.492 39.1073C887.185 42.971 902.878 35.2067 902.948 34.066C903.195 28.9511 890.253 35.1331 889.371 36.6051Z" stroke="#B2B2B2" stroke-miterlimit="10"/>
<path d="M911.976 38.8132C911.976 36.6053 905.664 39.034 906.898 39.5123C908.133 39.9907 911.976 41.021 911.976 38.8132Z" stroke="#B2B2B2" stroke-miterlimit="10"/>
<path d="M883.551 35.612C885.767 34.5701 888.174 34.0428 890.604 34.0665C891.38 31.8218 876.498 34.0665 877.063 35.3176C877.456 35.8053 877.941 36.2025 878.489 36.4839C879.037 36.7654 879.635 36.925 880.245 36.9527C880.855 36.9803 881.464 36.8755 882.033 36.6447C882.602 36.4139 883.119 36.0622 883.551 35.612Z" stroke="#B2B2B2" stroke-miterlimit="10"/>
<path d="M889.722 146.005C893.249 149.685 895.4 144.312 897.234 143.539C899.737 142.509 883.233 139.161 889.722 146.005Z" stroke="#B2B2B2" stroke-miterlimit="10"/>
<path d="M915.714 104.238C910.792 109.271 906.187 114.63 901.926 120.282C901.926 120.687 908.979 126.795 908.485 127.126C907.85 125.802 908.097 124.845 909.155 124.256C908.485 124.072 926.788 140.079 927.458 130.953C927.669 128.525 919.453 123.263 919.135 119.914C918.818 116.565 922.344 112.959 923.72 109.831C925.956 105.684 928.72 101.871 931.937 98.4978C937.332 93.3093 976.336 76.2352 974.608 74.6897C970.482 71.01 935.816 82.8588 929.997 86.5386C926.823 88.5624 915.82 104.275 915.714 104.238Z" stroke="#B2B2B2" stroke-miterlimit="10"/>
<path d="M1297.46 95.5544C1299.15 96.0214 1300.92 96.0614 1302.62 95.671C1304.33 95.2806 1305.92 94.4711 1307.26 93.3098C1308.11 83.7792 1267.8 93.3098 1297.46 95.5544Z" stroke="#B2B2B2" stroke-miterlimit="10"/>
<path d="M1266.5 100.375C1266.5 98.3141 1259.9 101.147 1262.66 102.178C1264.1 102.73 1266.5 102.472 1266.5 100.375Z" stroke="#B2B2B2" stroke-miterlimit="10"/>
<path d="M1094.93 63.3195C1097.33 64.9018 1119.09 61.1116 1119.83 56.6591C1120.57 52.2066 1107.24 50.9187 1107.66 54.4144C1105.09 34.5069 1098.04 65.3433 1094.93 63.3195Z" stroke="#B2B2B2" stroke-miterlimit="10"/>
<path d="M1076.17 43.7814C1074.97 44.9473 1074.02 46.3643 1073.38 47.9396C1079.48 54.048 1094.33 58.7213 1095.6 47.9396C1096.69 38.8138 1076.17 41.3896 1076.17 43.7814Z" stroke="#B2B2B2" stroke-miterlimit="10"/>
<path d="M1069.82 39.9171C1073.74 41.8306 1066.3 42.0514 1065.87 42.2722C1063.76 43.3761 1073.74 42.7873 1075.54 42.0514C1077.34 41.3154 1090.53 37.2309 1088.13 34.0663C1078.25 21.4079 1067.89 38.9972 1069.82 39.9171Z" stroke="#B2B2B2" stroke-miterlimit="10"/>
<path d="M1147.16 97.8735C1144.37 104.276 1152.06 99.787 1152.13 98.7199C1151.89 98.2828 1151.56 97.9071 1151.16 97.6201C1150.77 97.3332 1150.31 97.1422 1149.84 97.0611C1149.36 96.98 1148.87 97.0109 1148.41 97.1515C1147.95 97.292 1147.52 97.5387 1147.16 97.8735Z" stroke="#B2B2B2" stroke-miterlimit="10"/>
<path d="M914.656 33.6988C916.631 35.9434 928.41 36.2011 928.762 32.1901C928.939 30.8286 918.959 28.9887 918.359 29.0991C920.334 28.8047 915.82 34.9131 914.656 33.6988Z" stroke="#B2B2B2" stroke-miterlimit="10"/>
<path d="M1066.61 30.0914C1067.11 28.0308 1059.07 28.9139 1061.18 30.9378C1061.92 31.6369 1066.3 32.1889 1066.61 30.0914Z" stroke="#B2B2B2" stroke-miterlimit="10"/>
<path d="M1428.3 130.256C1428.83 130.697 1439.51 129.924 1437.39 127.312C1432.42 121.093 1421.7 129.961 1422.48 130.403C1424.42 130.292 1426.36 130.256 1428.3 130.256Z" stroke="#B2B2B2" stroke-miterlimit="10"/>
<path d="M1250.91 91.8014C1254.83 94.3843 1259.53 95.367 1264.1 94.5612C1267.24 93.9356 1275.67 88.8208 1272.46 87.6065C1274.01 88.1952 1278.42 98.6457 1281.03 90.5871C1283.18 83.7795 1277.04 85.3986 1271.47 83.4851C1270.98 83.4851 1260.89 83.0803 1260.89 83.0803C1262.55 82.7491 1241.6 86.4657 1250.91 91.8014Z" stroke="#B2B2B2" stroke-miterlimit="10"/>
<path d="M1276.16 109.501C1282.58 107.882 1259.59 99.8597 1264.1 107.293C1265.51 109.685 1274.04 110.053 1276.16 109.501Z" stroke="#B2B2B2" stroke-miterlimit="10"/>
<path d="M805.084 209.407C798.101 211.394 786.005 216.289 779.693 209.665C778.106 208.009 776.836 194.504 778.564 191.082C779.305 189.684 807.376 161.975 784.559 169.813C779.693 171.506 775.426 182.766 772.816 186.446C769.572 191.045 764.634 191.818 763.083 198.405C760.332 209.923 768.831 206.206 768.831 214.044C768.866 220.042 759.874 226.224 759.063 234.099C759.979 234.908 760.72 234.54 761.284 232.995C759.874 233.399 751.057 246.83 746.825 245.175C745.944 244.843 736.951 215.589 735.823 216.325C733.848 217.392 732.12 222.912 728.77 223.685C731.203 223.133 710.467 228.947 715.228 221.403C715.58 220.815 718.402 219.416 717.943 218.092C717.238 216.068 713.464 219.895 713.464 218.092C713.579 216.589 713.815 215.1 714.17 213.639C713.852 213.897 720.835 216.288 719.459 211.247C718.966 209.555 712.83 212.83 714.381 203.005C714.17 204.256 721.011 187.991 723.727 194.21C723.256 194.085 722.819 193.851 722.447 193.527C722.074 193.202 721.777 192.794 721.575 192.333C724.079 188.396 726.583 192.48 727.077 187.218C727.465 184.79 730.286 188.727 730.603 188.469C734.8 184.863 734.835 182.839 739.878 180.779C741.254 180.153 736.986 177.136 737.727 176.768C746.579 172.72 749.4 156.419 758.886 152.408C758.957 152.408 759.45 148.728 759.45 148.728C756.1 145.453 748.871 153.88 745.732 153.696C746.614 153.733 757.899 142.436 757.899 142.436C757.511 143.724 757.193 145.012 756.911 146.299C756.911 145.968 763.964 145.968 763.964 145.968C764.564 142.436 760.579 144.312 760.438 143.319C760.297 142.325 768.725 135.628 769.043 135.628C773.239 133.715 772.604 137.063 775.637 139.124C777.33 140.265 775.849 134.451 775.637 134.451C777.302 135.42 779.116 136.079 780.998 136.401C780.023 135.875 779.224 135.054 778.705 134.046C780.244 133.83 781.807 133.893 783.325 134.23C783.077 133.011 782.488 131.897 781.632 131.028C781.527 129.483 787.698 129.63 787.486 128.747C786.993 126.907 782.056 137.358 785.97 136.107C782.973 137.063 793.129 129.225 791.119 131.028C791.119 131.028 797.572 123.411 798.172 127.349C798.172 127.569 791.965 135.187 794.081 134.708L799.9 128.158C800.923 127.459 799.935 132.648 800.535 132.648C802.122 132.648 804.625 121.719 807.588 127.606C807.729 127.864 805.507 132.537 806.953 132.537C805.154 132.464 819.754 124.736 818.203 133.42C818.026 134.414 810.903 136.438 810.656 135.407C812.031 140.78 816.58 135.886 818.449 138.057C819.225 138.793 826.173 135.334 826.56 138.793C825.669 139.45 824.618 139.833 823.528 139.897C825.961 136.769 854.279 149.28 856.959 154.285C870.889 180.337 825.326 157.744 822.223 159.363C826.666 157.044 837.669 182.251 839.679 183.907C847.79 190.567 846.274 177.283 841.619 180.043C839.644 177.835 840.067 176.069 842.888 174.707L847.543 177.872C848.742 176.915 856.36 181.772 856.677 179.344C858.581 164.993 858.581 173.64 868.174 165.618C868.703 165.213 878.365 165.802 870.043 159.583C873.393 162.086 869.02 147.44 869.196 148.213C868.667 145.453 886.3 150.2 882.773 154.579C881.857 155.756 870.254 155.462 877.942 160.871C885.63 166.281 884.748 158.148 888.91 156.235C892.048 154.873 913.595 147.514 913.595 145.784C913.807 148.507 911.55 149.538 910.281 150.642C909.011 151.745 925.515 148.839 925.515 148.839C935.848 147.882 931.193 148.323 935.672 150.237C947.098 155.057 935.284 132.574 933.203 133.825C941.032 129.115 966.811 152.739 973.159 151.598C982.222 150.053 966.635 139.639 966.635 139.639C967.269 141.479 967.798 127.569 967.587 130.44C968.327 119.952 982.716 103.173 991.285 117.892C991.215 117.708 990.403 136.29 990.721 138.057C991.814 144.202 994.388 148.507 992.872 153.88C990.439 162.417 975.98 164.33 975.98 163.925C974.993 166.869 985.925 167.458 987.159 167.164C991.602 166.133 995.94 159.988 999.149 155.756C1001.86 152.113 994.917 147.771 1002.22 146.483C1007.37 145.527 1006.1 149.022 1009.98 150.789C1004.3 148.25 1017.35 164.11 1015.41 157.56C1011.77 145.012 1000.95 149.354 995.129 141.111C992.943 138.057 996.116 110.863 1001.51 112.777C1006.91 114.69 999.996 123.301 1002.53 126.282C1002.71 126.466 1015.48 129.262 1015.48 129.262C1016.43 128.085 1004.37 123.853 1005.67 121.167C1007.33 117.818 1010.86 121.351 1013.18 120.652C1014.35 120.32 1009.06 116.457 1009.45 116.089C1013.82 111.452 1029.12 125.288 1031.45 121.939C1037.34 113.55 1006.94 111.415 1037.34 104.718C1039.53 104.24 1047.11 104.939 1048.41 103.651C1050.6 101.554 1045.77 98.5362 1045.77 98.5362C1046.8 98.5667 1047.82 98.5051 1048.84 98.3522C1048.8 97.9106 1044.39 95.7764 1044.78 95.298L1048.31 95.5188C1050.28 92.7221 1047.92 92.9429 1052.54 90.6983C1053.95 89.9991 1073.52 83.0444 1073.7 84.5531C1073.19 84.4226 1072.7 84.186 1072.28 83.8573C1071.86 83.5286 1071.5 83.1146 1071.23 82.6396C1075.54 81.3832 1079.94 80.4971 1084.39 79.9902C1084 80.8733 1083.61 81.7565 1083.26 82.6396C1083.86 82.8604 1095.64 80.1374 1095.21 81.6093C1094.26 80.9156 1093.37 80.1269 1092.57 79.2542C1092.88 85.657 1102.76 72.0051 1100.68 73.5874C1104.77 70.4964 1115.91 60.7082 1120.74 68.3989C1122.19 70.57 1115.77 71.7107 1114.85 72.0787C1116.2 71.5635 1126.77 74.5441 1126.77 73.661C1125.62 74.9854 1124.62 76.4566 1123.81 78.0399C1131.29 79.9902 1137.67 73.3666 1146.14 77.5247C1152.77 80.7997 1150.79 83.6331 1151.5 86.9449C1153.96 98.0578 1123.99 100.891 1120 111.599C1120.39 110.532 1138.91 107.441 1138.69 105.417C1137.85 105.197 1137.04 104.976 1136.23 104.681C1134.92 102.952 1149.52 102.768 1150.58 102.952C1152.77 103.357 1151 108.803 1152.48 108.803C1158.09 108.251 1165.11 103.835 1174.07 106.3C1175.19 106.595 1172.55 108.03 1172.87 109.171C1173.43 111.268 1190.75 112.041 1192.54 111.71C1193.78 111.489 1194.34 103.982 1197.87 103.246C1202.45 102.216 1224.07 115.721 1217.9 119.4C1216.38 119.488 1214.86 119.172 1213.49 118.48C1215.96 118.296 1219.7 130.403 1224.53 130.697C1227.81 130.918 1230.31 121.13 1231.76 121.498C1233.21 121.866 1254.86 126.134 1254.86 126.134C1253.99 125.762 1253.2 125.212 1252.53 124.515C1253.8 123.595 1261.59 125.067 1261.59 124.515C1261.84 127.496 1259.23 117.597 1261.42 118.848C1260.92 119.119 1260.36 119.261 1259.8 119.261C1259.23 119.261 1258.67 119.119 1258.17 118.848C1254.79 113.991 1289.07 109.759 1287.9 116.898C1287.73 118.149 1280.14 115.831 1281.48 118.149C1283.08 118.5 1284.63 119.043 1286.1 119.768C1285.08 120.578 1283.99 121.351 1282.89 122.05C1283.04 121.351 1298.94 113.55 1302.82 120.357C1304.58 123.448 1297.95 121.203 1298.55 123.043C1300.56 129.373 1320.45 129.041 1324.54 129.373C1337.84 130.587 1336.89 131.617 1343.94 137.946C1343.87 137.873 1351.98 145.232 1350.25 146.115C1352.26 145.048 1349.65 140.485 1354.59 140.964C1358.36 141.532 1362.17 141.851 1365.98 141.921C1368.27 141.553 1384 137.174 1383.61 140.301C1383.15 144.202 1380.76 140.117 1378.96 141.001C1377.16 141.884 1385.02 149.17 1386.68 148.103C1390.28 145.784 1387.67 139.934 1387.28 139.934C1391.72 137.836 1404.14 137.542 1411.44 139.198C1424.52 142.141 1447.87 155.205 1451.39 167.127C1452.03 169.372 1450.41 157.523 1450.12 162.012C1450.37 157.964 1468.99 169.629 1468.99 169.629C1471.14 170.475 1461.65 173.898 1463.03 173.015C1462.68 173.235 1465.36 174.891 1464.19 174.891L1459.61 173.787C1460.35 174.413 1456.61 180.521 1456.22 180.264C1457.05 180.903 1457.68 181.787 1458.02 182.803C1453.51 187.366 1429.74 169.519 1432.63 167.863C1427.52 170.77 1431.47 173.824 1428.58 175.59C1426.57 176.841 1412.74 182.508 1411.9 179.564C1414.12 187.182 1430.09 186.556 1419.79 196.786C1418.53 198.074 1403.15 202.048 1399.13 204.476C1395.11 206.905 1390.28 213.749 1386.75 214.706C1387.32 214.522 1368.03 208.009 1369.68 215.111C1369.89 214.411 1369.91 213.669 1369.77 212.954C1369.62 212.24 1369.3 211.576 1368.84 211.026C1364.97 212.692 1361.31 214.868 1357.97 217.503C1350.85 226.408 1355.89 225.488 1357.45 230.308C1356.85 228.137 1354.91 243.077 1357.45 240.428C1357.23 240.649 1329.83 273.766 1330.61 274.686C1325.6 268.835 1324.97 247.162 1327.08 240.244C1330.4 229.388 1334.14 230.345 1341.75 223.501C1347.61 218.202 1364.82 203.225 1365.45 196.786C1365.8 192.37 1345.46 211.137 1344.64 209.297C1344.86 209.702 1344.5 200.539 1345.46 201.201C1338.19 195.976 1318.2 212.094 1324.08 218.975C1324.9 219.968 1306.35 222.618 1307.93 221.256C1308.98 221.111 1309.99 220.774 1310.93 220.263C1311.85 218.644 1284.8 217.944 1281.77 218.423C1269.56 220.226 1265.01 226.886 1256.06 235.607C1253.24 238.367 1242.52 245.911 1241.95 249.59C1242.34 247.088 1252.53 254.926 1248.72 255.846C1248.41 255.92 1251.93 252.277 1251.93 252.608C1251.93 252.939 1251.23 258.091 1251.93 258.091C1258 257.686 1259.2 247.971 1265.58 258.569C1268.86 263.978 1265.01 271.559 1263.53 277.814C1261.15 288.928 1256.25 299.286 1249.25 308.025C1245.94 312.367 1241.88 319.248 1236.34 321.714C1230.81 324.179 1230.1 318.144 1225.06 322.302C1220.81 326.355 1217.29 331.164 1214.66 336.506C1210.64 346.736 1211.8 335.586 1213.39 346.92C1214.27 352.292 1221.32 357.334 1217.79 363.332C1217.44 363.847 1206.12 369.845 1205.24 368.41C1203.16 364.914 1207.39 357.223 1206.69 354.905C1205.84 351.961 1201.01 350.894 1201.01 350.894C1202 352.955 1195.4 341.143 1200.27 344.418C1189.76 337.353 1196.74 346.294 1183.69 345.522C1182.74 345.522 1187.4 334.85 1186.97 334.482C1185.17 332.863 1168.56 344.639 1168.56 346.184C1171.23 349.054 1174.04 351.769 1176.99 354.316C1171.95 351.74 1195.22 349.901 1188.81 355.089C1184.68 358.29 1176.57 358.548 1175.58 365.65C1175.37 366.165 1186.58 381.878 1185.95 382.614C1187.08 381.399 1180.03 381.915 1180.03 381.915C1188.31 381.915 1183.76 392.439 1181.79 390.967C1182.81 391.74 1186.2 391.371 1187.33 391.739C1186.16 391.519 1176.15 414.701 1173.96 417.498C1170.43 422.097 1136.3 439.687 1137.04 440.496C1133.23 436.338 1136.23 431.775 1127.62 435.455C1115.24 440.496 1122.47 450.873 1126 458.233C1133.26 472.694 1138.06 475.969 1125.43 488.517C1124.98 488.959 1116.69 497.275 1115.95 496.76C1116.37 497.165 1110.38 486.309 1109.85 485.721C1108.4 484.028 1100.57 473.209 1097.05 474.424C1085.2 478.619 1098.32 501.691 1101.38 505.922C1103.82 509.234 1118.28 529.142 1112.99 531.975C1105.58 535.913 1090.45 503.273 1089.29 498.636C1087.28 490.615 1089.53 480.017 1087.49 470.965C1081.21 443.403 1083.29 468.978 1074.16 461.029C1069.68 457.239 1070.91 433.321 1062.63 428.574C1058.92 426.476 1043.62 441.159 1041.29 443.587C1028.38 456.945 1022.71 460.367 1019.5 478.177C1007.97 541.947 991.532 433.321 988.182 431.555C991.955 433.468 971.043 446.237 974.076 430.708C976.143 430.611 978.129 429.839 979.753 428.5C979.753 432.401 965.577 418.381 966.458 418.822C960.745 415.768 958.7 415.989 951.576 415.768C944.453 415.548 937.047 416.725 929.994 414.37C927.49 413.524 925.127 409.549 924.492 409.549C922.729 409.071 916.875 409.439 915.676 408.85C909.752 406.091 892.542 389.495 889.65 391.114C884.854 393.837 894.129 413.744 897.655 416.615C897.691 416.651 898.96 411.426 900.653 411.978C904.426 413.156 898.114 421.362 904.426 421.95C912.22 422.723 917.157 410.285 921.107 410.653C919.132 410.469 934.543 429.347 935.001 431.812C935.46 434.277 925.304 446.752 924.422 447.745C915.888 456.982 901.323 464.636 888.733 470.339C881.716 473.541 871.735 478.839 867.08 473.541C863.624 469.64 864.153 458.122 861.826 452.934C856.853 441.674 850.365 432.143 845.322 421.325C843.523 417.645 834.954 397.296 832.168 395.566C831.708 397.909 830.86 400.15 829.664 402.19C826.843 402.19 823.916 389.605 822.858 390.01C823.457 389.789 841.795 442.336 843.1 446.016C846.062 454.774 853.151 461.177 858.229 467.616C861.443 472.736 864.172 478.171 866.375 483.844C877.448 491.203 888.204 476.816 897.938 480.495C912.009 485.941 866.728 535.728 862.919 540.034C853.75 550.411 846.909 560.457 849.448 574.403C851.811 587.503 860.309 601.707 852.093 614.549C848.284 620.768 837.916 621.798 834.178 628.679C829.558 637.253 834.883 637.216 833.649 646.158C831.886 658.706 827.971 653.444 821.694 663.085C820.981 668.139 819.872 673.123 818.379 677.988C809.21 696.534 798.877 702.385 780.998 704.666C762.448 707.058 767.456 703.305 761.602 686.047C757.299 673.315 753.385 665.146 750.669 651.751C749.188 644.281 739.42 627.428 740.09 620.253C740.513 609.581 747.354 601.191 748.624 591.44C749.823 582.388 744.216 566.749 739.843 558.837C734.447 549.27 731.097 547.761 730.921 538.231C730.885 537.016 733.46 529.546 732.614 527.191C728.1 516.594 731.52 521.635 722.704 515.821C721.152 514.791 719.036 517.771 717.132 516.888C715.228 516.005 715.792 512.288 714.346 511.552C711.122 509.957 707.979 508.189 704.93 506.254C703.766 504.708 692.623 511.221 691.565 511.516C683.177 514.335 674.378 515.58 665.574 515.195C648.964 513.539 638.702 499.961 630.062 485.242C626.218 478.766 622.656 475.454 622.409 467.248C622.162 459.741 624.455 451.646 624.737 444.066C625.054 435.897 622.938 434.425 626.465 425.078C629.634 416.913 634.132 409.381 639.76 402.816C641.805 400.571 645.437 400.203 647.236 397.369C649.987 393.027 649.528 389.09 651.221 386.073C653.337 382.209 655.171 377.793 657.463 374.113C655.594 377.204 670.758 362.78 665.927 365.429C670.511 362.89 668.43 365.172 673.614 363.737C679.715 362.081 685.076 362.633 691.6 360.682C697.862 358.316 704.319 356.555 710.89 355.42C716.25 354.795 735.012 351.189 737.762 355.236C742.276 361.786 732.19 367.232 738.15 373.635C744.11 380.038 767.174 388.244 772.534 385.999C772.851 385.852 772.005 379.596 775.002 377.94C783.995 373.009 780.433 378.824 787.275 379.78C791.471 380.516 794.822 382.614 799.053 383.46C814.888 386.551 827.195 389.752 833.508 374.077L835.553 375.07M805.084 209.407C805.632 208.393 806.282 207.444 807.023 206.574C806.293 207.452 805.643 208.401 805.084 209.407ZM805.084 209.407C807.932 209.748 810.645 210.864 812.948 212.646C814.464 214.559 793.411 216.951 794.328 216.325C780.786 223.096 793.869 222.838 790.449 226.886C786.393 233.62 785.582 228.505 783.889 229.94C783.325 230.419 773.31 231.228 777.013 239.029C780.539 247.53 773.486 249.59 768.937 251.32C769.325 251.32 757.158 252.534 754.231 252.939C747.883 253.748 751.234 254.668 748.13 250.069C746.825 248.118 739.384 255.404 738.009 254.337C737.744 253.3 737.744 252.209 738.009 251.173C736.281 250.694 730.956 251.173 731.485 246.352C731.485 245.469 736.14 248.891 736.493 246.757C737.198 242.709 734.306 245.359 733.178 243.556C732.649 242.672 738.185 232.921 735.294 229.609C733.354 227.365 730.11 234.982 730.11 234.982C728.029 237.153 725.984 233.252 725.701 242.341C725.701 245.248 731.027 251.872 729.686 254.705C728.629 256.876 716.991 259.121 714.84 260.593C710.924 264.1 707.269 267.914 703.907 272C701.663 274.8 699.171 277.375 696.466 279.691C693.187 281.273 686.31 280.353 685.217 280.979C682.854 282.414 687.439 286.241 685.217 288.117C682.995 289.994 676.683 284.107 675.201 287.014C671.181 294.815 677.212 288.89 680.738 294.815C685.605 302.947 693.187 312.625 681.867 318.623C676.612 321.419 663.74 314.207 659.473 316.636C651.433 321.198 657.71 320.794 655.947 328.595C652.42 344.455 652.808 351.115 665.292 355.347C669.865 357.036 674.853 357.057 679.439 355.406C684.025 353.755 687.939 350.53 690.542 346.258C696.325 338.162 699.781 324.179 708.598 318.402C706.588 319.727 727.006 316.01 725.349 315.936C734.095 316.378 728.628 315.09 736.105 321.162C735.858 320.978 764.987 348.797 756.7 348.797C761.39 348.797 759.768 336.506 760.226 336.212C761.171 336.044 762.141 336.12 763.051 336.434C763.961 336.749 764.784 337.291 765.446 338.015C762.342 337.058 733.389 304.897 747.496 305.412C749.435 305.412 764.599 323.37 769.395 326.24M769.395 326.24C769.464 325.837 769.57 325.443 769.713 325.062M769.395 326.24C764.67 323.333 782.056 353.912 782.056 346.773C782.056 340.48 774.227 362.375 784.489 356.451C784.525 354.846 784.273 353.249 783.748 351.741C784.682 352.016 785.671 352.016 786.605 351.741C788.086 349.79 783.501 350.048 784.418 349.054C785.335 348.061 790.272 350.931 789.602 346.846C788.756 341.879 786.076 346.846 784.418 344.859C784.983 345.522 783.678 334.998 782.867 335.366C784.479 335.859 786.132 336.192 787.804 336.359C790.519 335.108 805.084 335.218 808.61 331.539C807.693 332.495 802.792 323.406 803.109 321.64C805.033 317.545 807.4 313.693 810.162 310.159C811.82 307.694 812.595 301.99 816.051 300.334C818.238 299.267 827.971 299.672 828.5 302.763C826.865 304.192 825.035 305.358 823.069 306.222C822.893 305.155 827.477 312.109 827.372 311.962C827.266 311.815 839.891 308.503 840.067 308.283C840.808 306.958 828.641 307.694 834.495 301.181C835.87 299.672 849.518 294.336 850.47 296.544C850.682 297.022 840.878 306.663 841.196 308.356C842.5 314.759 861.262 318.218 860.627 325.209C859.78 334.63 849.025 331.318 842.712 331.207C839.997 331.207 837.881 328.043 835.271 327.859C826.631 327.307 821.553 329.368 813.442 331.759C802.862 334.777 791.401 340.407 803.497 353.323C809.21 359.358 814.747 356.819 821.13 357.003C823.21 357.003 836.117 354.096 837.845 355.273C839.573 356.451 834.107 372.347 833.437 374.04L835.553 375.07M835.553 375.07C835.553 375.549 835.553 375.99 835.553 376.468C835.553 376.027 835.553 375.549 835.553 375.07Z" stroke="#B2B2B2" stroke-miterlimit="10"/>
<path d="M948.262 34.3967C951.789 28.9507 932.146 31.9681 936.625 36.0526C938.533 36.8706 940.614 37.1484 942.657 36.8576C944.701 36.5668 946.634 35.7179 948.262 34.3967Z" stroke="#B2B2B2" stroke-miterlimit="10"/>
<path d="M927.561 37.0091C925.727 37.8187 923.858 38.5546 921.954 39.1802C919.485 42.0872 934.473 41.6088 935.425 38.2602C936.025 36.2364 927.385 36.4572 927.561 37.0091Z" stroke="#B2B2B2" stroke-miterlimit="10"/>
<path d="M926.962 29.539C929.583 28.8677 932.108 27.8408 934.473 26.4848C932.886 24.2401 921.848 28.6558 921.637 27.8831C922.354 28.5489 923.203 29.0423 924.123 29.3284C925.043 29.6146 926.012 29.6865 926.962 29.539Z" stroke="#B2B2B2" stroke-miterlimit="10"/>
<path d="M1270.62 273.03C1273.2 279.654 1265.51 298.789 1269.53 304.161C1266.82 300.481 1275.63 304.566 1275.7 304.566C1275.77 304.566 1272.18 293.527 1272.39 293.085C1275.56 285.725 1278.81 289.148 1279.86 287.676C1281.77 284.953 1270.48 254.889 1272.07 253.822C1267.63 256.839 1269.25 269.571 1270.62 273.03Z" stroke="#B2B2B2" stroke-miterlimit="10"/>
<path d="M980.424 110.605C982.636 110.805 984.847 110.222 986.702 108.949C989.311 103.724 974.958 109.649 980.424 110.605Z" stroke="#B2B2B2" stroke-miterlimit="10"/>
<path d="M1018.87 111.157C1018.62 108.949 1014.17 111.819 1015.73 112.702C1017.28 113.586 1019.11 113.402 1018.87 111.157Z" stroke="#B2B2B2" stroke-miterlimit="10"/>
<path d="M956.973 33.6987L960.5 31.6748C961.664 27.4431 949.603 32.6683 949.92 33.2939C952.135 34.3674 954.659 34.5123 956.973 33.6987Z" stroke="#B2B2B2" stroke-miterlimit="10"/>
<path d="M1360.2 636.663C1360.45 638.319 1370.78 647.187 1372.05 646.083C1373.32 644.979 1359.95 634.933 1360.2 636.663Z" stroke="#B2B2B2" stroke-miterlimit="10"/>
<path d="M370.686 416.761C368.429 412.308 371.179 425.629 372.237 423.127C371.583 421.044 371.065 418.917 370.686 416.761Z" stroke="#B2B2B2" stroke-miterlimit="10"/>
<path d="M437.551 490.099C440.584 490.798 441.571 489.731 440.478 486.934C438.327 484.874 436.563 489.032 437.551 490.099Z" stroke="#B2B2B2" stroke-miterlimit="10"/>
<path d="M1129.78 551.956C1129.78 550.705 1126.64 551.294 1127.59 553.06C1128.54 554.827 1129.78 553.208 1129.78 551.956Z" stroke="#B2B2B2" stroke-miterlimit="10"/>
<path d="M1154.78 578.672C1156.37 579.06 1158.02 579.06 1159.61 578.672C1161.76 576.832 1148.01 574.366 1148.36 574.55C1148.41 574.051 1148.57 573.568 1148.81 573.133C1149.05 572.697 1149.37 572.318 1149.76 572.018C1150.14 571.718 1150.59 571.504 1151.06 571.389C1151.52 571.274 1152.01 571.26 1152.49 571.349C1148.96 573.851 1117.5 562.849 1119.62 570.576C1120.46 573.851 1153.44 580.843 1154.78 578.672Z" stroke="#B2B2B2" stroke-miterlimit="10"/>
<path d="M1192.02 578.781C1195.12 578.781 1195.55 578.34 1193.36 577.42C1187.86 577.509 1182.39 578.199 1177.03 579.481C1179.15 583.896 1189.3 578.965 1192.02 578.781Z" stroke="#B2B2B2" stroke-miterlimit="10"/>
<path d="M1167.72 577.124C1166.55 580.142 1163.7 576.094 1162.25 578.118C1159.22 582.35 1172.58 582.239 1173.75 579.332C1174.45 577.639 1168.25 575.763 1167.72 577.124Z" stroke="#B2B2B2" stroke-miterlimit="10"/>
<path d="M1132.17 535.359C1141.27 545.111 1136.86 553.5 1151.92 554.31C1164.41 555.009 1165.15 544.595 1173.29 533.961C1172.73 534.66 1167.9 522.738 1167.93 521.597C1168.21 516.519 1174 517.292 1174.99 513.906C1175.97 510.521 1163.35 508.129 1162.68 508.276C1158.59 509.196 1160.67 516.703 1153.65 516.151C1153.44 516.151 1141.41 530.539 1141.34 530.649C1142.26 528.404 1125.83 528.699 1132.17 535.359Z" stroke="#B2B2B2" stroke-miterlimit="10"/>
<path d="M1084.39 531.607C1084.18 533.005 1085.48 537.016 1086.93 535.287C1088.37 533.557 1084.64 530.245 1084.39 531.607Z" stroke="#B2B2B2" stroke-miterlimit="10"/>
<path d="M1090.31 543.418C1090.1 544.08 1091.41 546.877 1092.25 546.03C1093.1 545.184 1090.98 541.32 1090.31 543.418Z" stroke="#B2B2B2" stroke-miterlimit="10"/>
<path d="M1120.43 558.873C1120.08 553.059 1123.22 554.605 1123.18 550.851C1123.18 549.232 1118.1 544.265 1118 547.172C1118.97 548.16 1119.83 549.258 1120.57 550.447C1119.51 553.243 1107.1 533.52 1106.47 532.784C1103.57 529.361 1078.54 509.233 1077.41 511.993C1076.6 513.943 1096.66 544.044 1099.27 547.834C1101.88 551.624 1121.56 577.346 1120.43 558.873Z" stroke="#B2B2B2" stroke-miterlimit="10"/>
<path d="M1181.26 586.251C1181.26 582.571 1174.21 584.521 1173.75 583.895C1173.29 583.27 1181.26 589.71 1181.26 586.251Z" stroke="#B2B2B2" stroke-miterlimit="10"/>
<path d="M1173.15 550.557C1172.55 551.661 1180.77 564.172 1177.38 565.644C1180.56 564.282 1177.74 550.41 1180.91 552.029C1186.87 555.083 1180.28 563.657 1188.25 557.18C1184.01 560.603 1188.46 534.292 1191.77 541.726C1192.2 542.719 1173.72 547.797 1178.34 539.922C1183.38 531.312 1194.59 541.137 1199 531.606C1196.36 537.383 1185.39 530.355 1181.72 532.931C1175.9 536.942 1176.33 544.706 1173.15 550.557Z" stroke="#B2B2B2" stroke-miterlimit="10"/>
<path d="M1211.24 553.759C1214.66 555.121 1218.21 556.144 1221.82 556.814C1226.51 556.814 1209.05 546.253 1211.24 553.759Z" stroke="#B2B2B2" stroke-miterlimit="10"/>
<path d="M1211.84 532.011C1211.84 522.738 1204.47 541.873 1211.24 540.475C1215.86 539.518 1211.84 531.827 1211.84 532.011Z" stroke="#B2B2B2" stroke-miterlimit="10"/>
<path d="M1198.22 583.895C1200.34 581.062 1207.32 580.657 1208.24 577.861C1208.73 576.241 1197.48 581.54 1196.46 581.54C1194.84 581.835 1190.18 585.441 1192.93 587.244C1194.03 587.299 1195.13 587.009 1196.07 586.413C1197.01 585.816 1197.76 584.94 1198.22 583.895Z" stroke="#B2B2B2" stroke-miterlimit="10"/>
<path d="M1202.91 554.017C1203.37 556.225 1206.9 557.476 1207.85 555.563C1208.8 553.649 1202.35 551.478 1202.91 554.017Z" stroke="#B2B2B2" stroke-miterlimit="10"/>
<path d="M726.02 333.231C724.892 335.402 727.431 347.95 732.051 341.731C735.859 336.69 728.912 327.491 726.02 333.231Z" stroke="#B2B2B2" stroke-miterlimit="10"/>
<path d="M752.436 348.097C753.283 347.876 743.126 347.14 744.043 349.974C746.646 352.482 749.655 354.488 752.93 355.898C753.715 353.388 754.645 350.931 755.716 348.539C755.306 348.075 754.753 347.777 754.153 347.696C753.553 347.615 752.945 347.757 752.436 348.097Z" stroke="#B2B2B2" stroke-miterlimit="10"/>
<path d="M1193.64 94.0469C1183.15 94.0469 1173.1 98.3928 1165.68 106.129C1158.27 113.865 1154.11 124.357 1154.11 135.297C1154.11 155.904 1190.57 204.403 1190.57 204.403H1193.64C1193.64 204.403 1233.21 158.112 1233.21 135.297C1233.21 129.877 1232.18 124.51 1230.19 119.503C1228.2 114.496 1225.29 109.947 1221.61 106.116C1217.94 102.285 1213.58 99.2471 1208.78 97.1763C1203.98 95.1054 1198.83 94.0421 1193.64 94.0469ZM1193.64 155.462C1189.82 155.462 1186.08 154.279 1182.9 152.064C1179.72 149.848 1177.25 146.699 1175.78 143.014C1174.32 139.329 1173.94 135.275 1174.68 131.363C1175.43 127.451 1177.27 123.858 1179.97 121.038C1182.68 118.218 1186.12 116.297 1189.87 115.519C1193.62 114.741 1197.5 115.141 1201.03 116.667C1204.56 118.193 1207.58 120.778 1209.71 124.094C1211.83 127.41 1212.96 131.309 1212.96 135.297C1212.97 137.946 1212.47 140.571 1211.5 143.02C1210.53 145.468 1209.11 147.693 1207.31 149.567C1205.52 151.44 1203.39 152.925 1201.04 153.937C1198.69 154.949 1196.18 155.467 1193.64 155.462Z" fill="#D2FC1B" stroke="#263238" stroke-linecap="round" stroke-linejoin="round"/>
<path d="M311.619 426.88C308.74 426.88 305.889 427.473 303.23 428.623C300.57 429.774 298.155 431.46 296.121 433.586C294.087 435.712 292.474 438.236 291.376 441.012C290.277 443.789 289.714 446.764 289.719 449.768C289.719 461.176 309.926 488.075 309.926 488.075H311.619C311.619 488.075 333.554 462.316 333.554 449.768C333.558 446.761 332.994 443.783 331.893 441.004C330.793 438.225 329.177 435.7 327.139 433.573C325.102 431.447 322.682 429.761 320.018 428.613C317.355 427.464 314.5 426.875 311.619 426.88ZM311.619 460.918C309.526 460.918 307.481 460.271 305.741 459.058C304.001 457.845 302.645 456.121 301.844 454.103C301.044 452.086 300.834 449.867 301.242 447.725C301.65 445.584 302.658 443.617 304.138 442.073C305.617 440.529 307.502 439.478 309.555 439.052C311.607 438.626 313.734 438.844 315.667 439.68C317.6 440.515 319.253 441.93 320.415 443.746C321.578 445.561 322.198 447.695 322.198 449.879C322.198 452.807 321.084 455.614 319.1 457.685C317.115 459.755 314.424 460.918 311.619 460.918Z" fill="#D2FC1B" stroke="#263238" stroke-linecap="round" stroke-linejoin="round"/>
<path d="M976.016 114.873C969.646 114.873 963.538 117.513 959.034 122.213C954.53 126.912 952 133.286 952 139.932C952 152.407 974.147 181.845 974.147 181.845H976.016C976.016 181.845 999.996 153.768 999.996 139.932C1000 136.643 999.384 133.385 998.181 130.345C996.978 127.305 995.212 124.543 992.985 122.215C990.758 119.888 988.113 118.041 985.201 116.781C982.289 115.522 979.168 114.873 976.016 114.873ZM976.016 152.149C973.69 152.156 971.415 151.443 969.478 150.099C967.542 148.756 966.031 146.842 965.138 144.602C964.245 142.361 964.009 139.894 964.461 137.514C964.913 135.134 966.032 132.947 967.677 131.231C969.321 129.515 971.417 128.347 973.698 127.876C975.979 127.404 978.344 127.65 980.491 128.582C982.638 129.514 984.472 131.09 985.759 133.111C987.047 135.132 987.731 137.506 987.724 139.932C987.715 143.17 986.478 146.271 984.284 148.56C982.091 150.849 979.118 152.139 976.016 152.149Z" fill="#D2FC1B" stroke="#263238" stroke-linecap="round" stroke-linejoin="round"/>
<path d="M402.106 581.357C399.746 581.357 397.409 581.842 395.229 582.786C393.049 583.729 391.068 585.112 389.401 586.855C387.734 588.599 386.412 590.668 385.512 592.944C384.612 595.221 384.152 597.661 384.156 600.123C384.156 609.433 400.696 631.475 400.696 631.475H402.106C402.106 631.475 420.056 610.464 420.056 600.123C420.061 597.661 419.6 595.221 418.7 592.944C417.8 590.668 416.479 588.599 414.811 586.855C413.144 585.112 411.164 583.729 408.984 582.786C406.804 581.842 404.467 581.357 402.106 581.357ZM402.106 609.249C400.368 609.249 398.669 608.711 397.224 607.702C395.779 606.694 394.654 605.261 393.99 603.584C393.327 601.908 393.155 600.064 393.497 598.285C393.838 596.507 394.678 594.875 395.91 593.595C397.141 592.315 398.709 591.445 400.415 591.096C402.121 590.746 403.887 590.933 405.491 591.632C407.095 592.331 408.464 593.511 409.425 595.023C410.385 596.535 410.894 598.31 410.887 600.123C410.878 602.547 409.949 604.868 408.303 606.579C406.657 608.289 404.429 609.249 402.106 609.249Z" fill="#D2FC1B" stroke="#263238" stroke-linecap="round" stroke-linejoin="round"/>
<path d="M1145.64 322.045C1142.49 322.04 1139.37 322.684 1136.46 323.939C1133.54 325.194 1130.9 327.037 1128.67 329.361C1126.43 331.685 1124.67 334.445 1123.46 337.483C1122.25 340.521 1121.63 343.778 1121.63 347.067C1121.63 359.579 1143.78 389.017 1143.78 389.017H1145.64C1145.64 389.017 1169.63 360.903 1169.63 347.067C1169.63 340.431 1167.1 334.066 1162.6 329.374C1158.1 324.681 1152 322.045 1145.64 322.045ZM1145.64 359.321C1143.32 359.328 1141.05 358.616 1139.11 357.274C1137.17 355.932 1135.66 354.021 1134.77 351.782C1133.88 349.544 1133.64 347.079 1134.09 344.699C1134.54 342.32 1135.65 340.133 1137.29 338.416C1138.93 336.698 1141.03 335.528 1143.31 335.052C1145.58 334.576 1147.95 334.817 1150.1 335.743C1152.24 336.669 1154.08 338.24 1155.37 340.256C1156.66 342.272 1157.35 344.642 1157.35 347.067C1157.37 348.683 1157.07 350.285 1156.49 351.782C1155.91 353.279 1155.05 354.641 1153.96 355.79C1152.88 356.939 1151.58 357.853 1150.15 358.478C1148.72 359.102 1147.19 359.427 1145.64 359.431V359.321Z" fill="#D2FC1B" stroke="#263238" stroke-linecap="round" stroke-linejoin="round"/>
<path d="M1258.25 577.016C1251.88 577.016 1245.77 579.656 1241.26 584.355C1236.76 589.055 1234.23 595.429 1234.23 602.075C1234.23 614.586 1256.38 644.024 1256.38 644.024H1258.25C1258.25 644.024 1282.23 615.911 1282.23 602.075C1282.23 598.786 1281.61 595.528 1280.41 592.488C1279.21 589.448 1277.44 586.685 1275.22 584.358C1272.99 582.03 1270.34 580.184 1267.43 578.924C1264.52 577.664 1261.4 577.016 1258.25 577.016ZM1258.25 614.292C1255.93 614.292 1253.67 613.575 1251.74 612.233C1249.82 610.89 1248.32 608.982 1247.43 606.75C1246.54 604.518 1246.31 602.061 1246.76 599.691C1247.21 597.322 1248.33 595.145 1249.97 593.436C1251.6 591.728 1253.69 590.564 1255.96 590.093C1258.23 589.621 1260.59 589.863 1262.73 590.788C1264.87 591.713 1266.69 593.278 1267.98 595.288C1269.27 597.297 1269.95 599.659 1269.95 602.075C1269.95 605.315 1268.72 608.422 1266.53 610.713C1264.33 613.004 1261.35 614.292 1258.25 614.292Z" fill="#D2FC1B" stroke="#263238" stroke-linecap="round" stroke-linejoin="round"/>
<path d="M302.238 284.437C295.875 284.447 289.776 287.091 285.279 291.789C280.783 296.488 278.258 302.856 278.258 309.496C278.258 321.97 300.404 351.445 300.404 351.445H302.238C302.238 351.445 326.254 323.332 326.254 309.496C326.254 302.85 323.724 296.476 319.22 291.776C314.716 287.077 308.608 284.437 302.238 284.437ZM302.238 321.713C299.924 321.705 297.664 320.983 295.743 319.636C293.822 318.289 292.327 316.379 291.447 314.146C290.566 311.913 290.339 309.458 290.795 307.09C291.25 304.723 292.368 302.549 294.007 300.844C295.646 299.14 297.732 297.98 300.002 297.511C302.273 297.043 304.625 297.287 306.762 298.213C308.899 299.138 310.726 300.704 312.011 302.712C313.296 304.721 313.982 307.081 313.982 309.496C313.982 311.103 313.678 312.695 313.087 314.18C312.496 315.664 311.631 317.013 310.54 318.148C309.449 319.283 308.154 320.182 306.73 320.793C305.305 321.405 303.779 321.718 302.238 321.713Z" fill="#D2FC1B" stroke="#263238" stroke-linecap="round" stroke-linejoin="round"/>
<path d="M775.852 99.7858C769.492 99.7858 763.392 102.422 758.895 107.115C754.398 111.807 751.871 118.172 751.871 124.808C751.871 137.319 774.018 166.757 774.018 166.757H775.852C775.852 166.757 799.867 138.644 799.867 124.808C799.867 121.519 799.246 118.262 798.039 115.224C796.831 112.186 795.062 109.426 792.831 107.102C790.601 104.778 787.953 102.935 785.039 101.68C782.126 100.425 779.004 99.781 775.852 99.7858ZM775.852 137.062C773.529 137.062 771.258 136.343 769.327 134.997C767.396 133.65 765.891 131.736 765.002 129.497C764.113 127.258 763.881 124.795 764.334 122.418C764.787 120.041 765.905 117.857 767.548 116.144C769.19 114.43 771.283 113.263 773.561 112.79C775.839 112.317 778.2 112.56 780.346 113.487C782.491 114.415 784.325 115.985 785.616 118C786.906 120.016 787.595 122.385 787.595 124.808C787.595 128.058 786.358 131.175 784.155 133.473C781.953 135.771 778.966 137.062 775.852 137.062Z" fill="#D2FC1B" stroke="#263238" stroke-linecap="round" stroke-linejoin="round"/>
<path d="M132.715 117.45C126.346 117.45 120.237 120.09 115.733 124.789C111.229 129.489 108.699 135.863 108.699 142.509C108.699 154.983 130.846 184.458 130.846 184.458H132.715C132.715 184.458 156.695 156.345 156.695 142.509C156.7 139.22 156.083 135.962 154.88 132.922C153.677 129.882 151.911 127.119 149.684 124.792C147.457 122.464 144.812 120.618 141.9 119.358C138.988 118.098 135.867 117.45 132.715 117.45ZM132.715 154.726C130.399 154.726 128.136 154.009 126.21 152.667C124.285 151.324 122.784 149.416 121.898 147.184C121.012 144.952 120.78 142.495 121.232 140.125C121.684 137.756 122.799 135.579 124.436 133.87C126.073 132.162 128.16 130.998 130.431 130.527C132.702 130.055 135.056 130.297 137.195 131.222C139.335 132.147 141.163 133.713 142.45 135.722C143.736 137.731 144.423 140.093 144.423 142.509C144.414 145.746 143.177 148.848 140.984 151.137C138.79 153.426 135.817 154.716 132.715 154.726Z" fill="#D2FC1B" stroke="#263238" stroke-linecap="round" stroke-linejoin="round"/>
</svg>
