<svg width="128" height="128" viewBox="0 0 128 128" fill="none" xmlns="http://www.w3.org/2000/svg">
<path d="M43.373 10.5516C68.5082 0.752423 97.0688 9.99029 111.703 32.653C126.337 55.3156 123.004 85.1455 103.729 104.02" stroke="#172224" stroke-width="2" stroke-linecap="round" stroke-linejoin="round"/>
<path d="M74.5427 119.244C51.8513 123.531 28.8235 113.651 16.2969 94.2517C3.77021 74.8528 4.24034 49.8002 17.4859 30.8848" stroke="#172224" stroke-width="2" stroke-linecap="round" stroke-linejoin="round"/>
<path d="M29.1819 25.2172C33.1019 25.2172 36.2797 22.0394 36.2797 18.1193C36.2797 14.1993 33.1019 11.0215 29.1819 11.0215C25.2618 11.0215 22.084 14.1993 22.084 18.1193C22.084 22.0394 25.2618 25.2172 29.1819 25.2172Z" stroke="#172224" stroke-width="2" stroke-linecap="round" stroke-linejoin="round"/>
<path d="M97.643 114.247C97.649 110.327 94.4763 107.144 90.5565 107.138C86.6368 107.132 83.4543 110.305 83.4484 114.225C83.4424 118.145 86.6151 121.327 90.5348 121.333C94.4546 121.339 97.637 118.166 97.643 114.247Z" stroke="#172224" stroke-width="2" stroke-linecap="round" stroke-linejoin="round"/>
<path d="M97.0354 50.3598C100.955 50.3598 104.133 47.182 104.133 43.2619C104.133 39.3419 100.955 36.1641 97.0354 36.1641C93.1153 36.1641 89.9375 39.3419 89.9375 43.2619C89.9375 47.182 93.1153 50.3598 97.0354 50.3598Z" stroke="#172224" stroke-width="2" stroke-linecap="round" stroke-linejoin="round"/>
<path d="M103.783 57.1371C106.834 76.1829 96.0476 94.7424 77.9881 101.521C59.9287 108.3 39.5932 101.422 29.3567 85.0731C19.1204 68.7243 21.8156 47.4283 35.802 34.1445C49.7887 20.8611 71.1967 19.2656 86.998 30.3291" stroke="#172224" stroke-width="2" stroke-linecap="round" stroke-linejoin="round"/>
<path d="M64.2372 62.0906C67.9332 62.0906 70.9295 59.0944 70.9295 55.3983C70.9295 51.7023 67.9332 48.7061 64.2372 48.7061C60.5412 48.7061 57.5449 51.7023 57.5449 55.3983C57.5449 59.0944 60.5412 62.0906 64.2372 62.0906Z" stroke="#172224" stroke-width="2" stroke-linecap="round" stroke-linejoin="round"/>
<path d="M49.0921 81.0287C46.4207 81.1551 46.1324 79.9815 46.0449 78.6986V73.4111C53.5223 64.6407 75.5444 65.7455 81.4207 73.5903V77.9815C81.1809 79.0034 81.286 80.2325 79.9228 80.5805L49.0921 81.0287Z" stroke="#172224" stroke-width="2" stroke-linecap="round" stroke-linejoin="round"/>
</svg>
