<svg width="128" height="128" viewBox="0 0 128 128" fill="none" xmlns="http://www.w3.org/2000/svg">
<path d="M63.9996 68.0013C66.2097 68.0013 68.0013 66.2097 68.0013 63.9996C68.0013 61.7896 66.2097 59.998 63.9996 59.998C61.7896 59.998 59.998 61.7896 59.998 63.9996C59.998 66.2097 61.7896 68.0013 63.9996 68.0013Z" stroke="#172224" stroke-width="2" stroke-linecap="round" stroke-linejoin="round"/>
<path d="M63.9992 86.3783C76.3583 86.3783 86.3774 76.3593 86.3774 64.0002C86.3774 51.6411 76.3583 41.6221 63.9992 41.6221C51.6401 41.6221 41.6211 51.6411 41.6211 64.0002C41.6211 76.3593 51.6401 86.3783 63.9992 86.3783Z" stroke="#172224" stroke-width="2" stroke-linecap="round" stroke-linejoin="round"/>
<path d="M64 101.158C87.7315 101.158 116 79.3421 116 63.9997C116 48.6573 87.7333 26.8418 64 26.8418" stroke="#172224" stroke-width="2" stroke-linecap="round" stroke-linejoin="round"/>
<path d="M64 101.158C40.2685 101.158 12 79.3421 12 63.9997C12 48.6573 40.2667 26.8418 64 26.8418" stroke="#172224" stroke-width="2" stroke-linecap="round" stroke-linejoin="round"/>
</svg>
