<svg width="128" height="128" viewBox="0 0 128 128" fill="none" xmlns="http://www.w3.org/2000/svg">
<path d="M63.9994 121.334C95.6637 121.334 121.333 95.6646 121.333 64.0003C121.333 32.336 95.6637 6.66699 63.9994 6.66699C32.335 6.66699 6.66602 32.336 6.66602 64.0003C6.66602 95.6646 32.335 121.334 63.9994 121.334Z" stroke="#172224" stroke-width="2" stroke-linecap="round" stroke-linejoin="round"/>
<path d="M64.0006 102.666C85.3557 102.666 102.667 85.3547 102.667 63.9997C102.667 42.6447 85.3557 25.333 64.0006 25.333C42.6456 25.333 25.334 42.6447 25.334 63.9997C25.334 85.3547 42.6456 102.666 64.0006 102.666Z" stroke="#172224" stroke-width="2" stroke-linecap="round" stroke-linejoin="round"/>
<path d="M52.666 47.5039L63.9993 41.333V86.6663" stroke="#172224" stroke-width="2" stroke-linecap="round" stroke-linejoin="round"/>
<path d="M56 86.667H72" stroke="#172224" stroke-width="2" stroke-linecap="round" stroke-linejoin="round"/>
</svg>
