<svg width="128" height="128" fill="none" xmlns="http://www.w3.org/2000/svg"><path d="M64 68.001a4.002 4.002 0 100-8.003 4.002 4.002 0 000 8.003z" stroke="#172224" stroke-width="2" stroke-linecap="round" stroke-linejoin="round"/><path d="M64 86.378c12.358 0 22.377-10.019 22.377-22.378S76.358 41.622 64 41.622 41.621 51.642 41.621 64c0 12.36 10.02 22.378 22.378 22.378z" stroke="#172224" stroke-width="2" stroke-linecap="round" stroke-linejoin="round"/><path d="M64 101.158c23.731 0 52-21.816 52-37.158 0-15.343-28.267-37.158-52-37.158m0 74.316c-23.731 0-52-21.816-52-37.158 0-15.343 28.267-37.158 52-37.158" stroke="#172224" stroke-width="2" stroke-linecap="round" stroke-linejoin="round"/></svg>