<svg width="128" height="128" fill="none" xmlns="http://www.w3.org/2000/svg"><path d="M43.373 10.552c25.135-9.8 53.696-.562 68.33 22.101s11.301 52.492-7.974 71.367m-29.186 15.224c-22.692 4.287-45.72-5.593-58.246-24.992C3.77 74.852 4.24 49.8 17.486 30.885m11.696-5.668a7.098 7.098 0 100-14.195 7.098 7.098 0 000 14.195zm68.461 89.03a7.098 7.098 0 10-14.196-.022 7.098 7.098 0 0014.196.022z" stroke="#172224" stroke-width="2" stroke-linecap="round" stroke-linejoin="round"/><path d="M97.035 50.36a7.098 7.098 0 100-14.196 7.098 7.098 0 000 14.196z" stroke="#172224" stroke-width="2" stroke-linecap="round" stroke-linejoin="round"/><path d="M103.783 57.137c3.051 19.046-7.735 37.605-25.795 44.384-18.06 6.779-38.395-.099-48.631-16.448-10.237-16.349-7.541-37.645 6.445-50.928 13.987-13.284 35.395-14.88 51.196-3.816" stroke="#172224" stroke-width="2" stroke-linecap="round" stroke-linejoin="round"/><path d="M64.237 62.09a6.692 6.692 0 100-13.384 6.692 6.692 0 000 13.385zM49.092 81.029c-2.671.126-2.96-1.047-3.047-2.33V73.41c7.477-8.77 29.5-7.665 35.376.18v4.39c-.24 1.022-.135 2.252-1.498 2.6l-30.83.448z" stroke="#172224" stroke-width="2" stroke-linecap="round" stroke-linejoin="round"/></svg>