<svg width="1475" height="833" fill="none" xmlns="http://www.w3.org/2000/svg"><path d="M730.43 329.624c1.551-.257 1.728-8.61.846-8.721-3.209-.331-4.443 9.273-.846 8.721zm-340.277 121.8c2.645-1.03 19.608 2.686 19.608-2.907 0-3.68-17.633-8.39-19.608-6.66a11.045 11.045 0 002.715 6.439c0 1.804-7.335-.183-7.97 1.656a3.907 3.907 0 002.339 1.859c.983.275 2.03.136 2.916-.387z" stroke="#B2B2B2" stroke-miterlimit="10"/><path d="M291.693 413.193c-.706 14.167.282 47.836 23.239 35.914 7.618-3.901 1.552-15.271 13.824-14.94 7.371.221 5.855 11.923 1.094 17.001-1.164 1.251-4.197 13.357-1.517 11.812 3.844-2.539 16.187-2.024 19.29 1.472 3.104 3.495-.705 5.409.424 9.089 3.985 13.504-2.716 15.455 11.919 21.269-4.831-1.914 18.303.772 12.802 2.465 3.279-.883 4.549-5.814 7.688-8.243 1.516-1.14 15.622-11.333 17.632-9.972-2.786-1.987-1.693 21.085 1.093 14.719.988-2.207-.67-13.504 5.361-13.504 3.914 0 5.713 7.286 8.393 7.911 6.877 1.619 17.174-3.091 22.499-.883-3.315-1.251 8.64 9.531 4.549 9.788 9.875-.662 10.016 8.243 17.633 12.254 7.617 4.011 14.53 2.907 22.923 8.647 8.71 4.968 1.551 23.882 1.128 23.624.247 0 5.043-6.329 7.794-3.679 2.751 2.649.07 9.567-.459 9.346 2.681 1.178 5.713-7.249 8.711-6.403.106 0 17.844 8.574 11.073 11.481 6.066-2.612 6.348-1.84 13.401-.846 7.688 1.141 14.741 10.708 21.794 10.303 20.313-1.104-12.237 36.283-12.449 36.283-3.032 5.004-1.481 20.827-3.032 27.083-2.575 10.156-4.902 17.994-13.154 23.44-6.419 4.231-17.95 2.392-23.134 11.849-2.575 4.71-.318 11.407-2.152 16.595-1.269 3.607-11.285 12.18-11.285 15.308a29.525 29.525 0 003.527-6.513c.035-.478-8.464 15.197-10.156 17.074-6.842 7.507-19.22 1.325-21.9 4.195.176-.184 8.04 10.193 7.617 13.174-2.045 13.467-18.655 6.181-23.205 11.223-.952 1.177 1.164 7.47-.67 8.537.67-.405-12.66 4.379-11.038 1.84-5.148 8.132 4.655 7.212 5.89 8.316.035 0-5.079 5.372-6.595 7.36a61.07 61.07 0 00-7.441 19.061c-.247 1.067 5.078 1.067 4.796 4.747-.353 4.599-5.713 7.801-7.899 11.959-1.623 3.091-4.162 4.011-5.608 7.359-.811 2.135 3.562 9.2 2.716 10.046-.846.846-3.738-2.318-4.373 0-.635 2.318 2.61 1.619 3.527 1.84 1.058.257 8.146 11.002 13.859 13.174a50.527 50.527 0 01-12.414 2.686c-.916-.258 1.834 4.158.247 3.679a84.846 84.846 0 01-8.604-6.218 11.606 11.606 0 01-1.482 3.679c.141.074-5.078-6.586-5.078-4.894 0 3.091 3.421-5.887 1.904-3.679a2.377 2.377 0 011.812.249c.551.321.963.851 1.151 1.48.282.331-.706-4.526 1.128-3.68a5.5 5.5 0 001.728 3.68c-.388.221 1.023-6.587 2.081-5.372a15.734 15.734 0 01-3.527-.221 5.032 5.032 0 01.542-2.535 4.783 4.783 0 011.715-1.881c-.423 1.251-8.287 5.52-9.627 7.36-1.34 1.84 2.504.993.846 2.759-.987.994-7.123-2.98-7.441-4.378.282 1.251 10.968-3.055 10.333-4.527a78.682 78.682 0 00-9.028 2.171c.247-.331 7.547-5.629 7.935-4.378-1.305-4.453-8.146 2.355-9.24.736-2.891-4.269 5.572-1.804 4.796-4.453-.775-2.649-4.725-.184-6.453-.846-.494-.184 2.68-2.76 2.433-3.349-.846-1.803-5.184.773-5.607.258-2.081-2.723 6.771-9.494 3.738-12.659-1.446-1.508-1.975 4.048-2.997 4.048-5.22-.883 2.539-9.531 1.586-9.31a15.728 15.728 0 01-2.962 2.355c-6.383 1.031 7.406-9.604 7.053-4.673.247-3.275-4.232.478-4.478-1.766-.142-1.325-4.056-9.494-4.373-5.814.035-.148 8.216-13.174 5.536-11.923 2.963-1.361.6 6.992 1.728 7.801 2.187 1.583 5.678-26.751 3.527-26.089-2.151.662-3.068 13.284-5.255 9.972-4.725-7.139 8.217-44.194 9.698-51.296 3.774-17.884 4.267-36.025 6.242-54.424 1.34-12.879 3.809-20.238-3.985-29.438-8.534-10.119-16.222-11.407-22.217-23.771-2.997-6.513-16.469-25.133-17.633-31.462-.599-3.275 5.678-13.946 5.255-14.719-5.925-11.297.811-13.394 6.101-24.434 4.831-10.303 7.018-27.193-5.043-30.137-2.716-.662-1.023 5.925-6.418 5.557-5.396-.368-11.497-7.36-15.023-11.04-2.152-2.207-3.245-5.924-7.054-10.009-5.642-5.998-8.111-3.127-14.106-8.868-2.151-2.318-7.123-2.428-10.191-5.519-6.807-6.955-15.764-4.343-24.228-7.139-6.489-2.134-17.668-6.624-22.534-11.812-7.23-7.949-8.288-19.172-16.399-30.027-4.761-6.366-12.625-12.879-16.962-19.908-1.552-2.539-2.293-16.301-10.756-15.418-.494.074 22.711 44.157 20.665 45.703.811-.626-20.701-24.139-20.701-24.36.953-4.821-.105-6.992-4.866-15.382a97.957 97.957 0 00-10.791-17.074c-6.807-7.58-16.892-14.755-20.701-25.979-5.572-16.338 2.645-33.78-2.363-48.757-.846-2.649-14.423-22.925-16.963-21.048 11.991-8.831 22.747 21.453 23.135 21.453 10.262 0-8.429-16.448-7.935-16.044a74.174 74.174 0 01-14.53-12.253c-.916-1.178-7.828-8.427-8.816-9.862-1.446-1.987-1.023-11.702-3.526-12.033-2.504-.331-7.406 4.49-8.535 3.68a53.647 53.647 0 01-.634-8.206c3.632-.331 7.828-5.556 2.468-5.078-3.526.294 2.821 4.195 1.517 4.857 4.09-2.06-9.734-1.104-7.688-.809 1.41.184 1.199-13.91.705-12.585.282-.736-.106 9.015-2.328 6.035a6.567 6.567 0 00-.564-3.312c-2.01-.773.988 7.47-.282 8.169.212-.11-6.524-10.009-6.524-10.45 0 .404 12.978-1.436 4.126-8.17a8.03 8.03 0 00.6 5.336c0 4.673-18.479-12.069-17.633-11.297-1.763-1.619-29.376-.331-29.976-2.318.052-.324.17-.632.344-.905.175-.273.403-.504.67-.678a2.14 2.14 0 011.808-.257c-.283 0-6.595-3.974-8.182-3.68-4.831.92 2.045 7.139 0 7.949-2.045.809-15.34 5.593-16.152 4.82-2.785-2.649 9.17-12.842 9.17-12.143.705-6.771-19.29 10.634-18.515 12.732a9.811 9.811 0 013.28 1.877c0 5.924-35.477 30.946-39.004 26.972 3.068 3.312 22.57-21.71 24.228-26.899.705-2.208-11.32 1.987-8.358 3.238-3.315-1.398-9.31-.662-11.038-1.619-2.54-1.398.458-7.433-2.293-10.303 1.058 1.067-7.723 1.104-10.58-1.509-.105-.11-4.83-11.039-5.571-10.303a60.175 60.175 0 006.736-5.74c3.561-4.858 4.337-.663 6.806-3.092 2.468-2.428 12.519-8.905 7.9-13.688-.071-.111-16.61 3.569-19.679 2.355-.67-.258-7.23-10.929-8.252-8.39 2.998-7.396 30.01-5.888 30.01-6.329-1.833-5.851-25.813-7.838-23.556-18.583 1.128-5.152 23.627-10.34 26.66-13.799 3.774-4.342 12.096-8.243 15.235-4.563 1.728 2.208 30.61 5.52 35.265 5.888 3.139.294 50.606 11.149 49.901 11.959 1.798-2.061-3.562-4.526 3.985-7.36 3.068-1.14 1.269 2.76 3.068 1.767 1.798-.994 17.421-7.986 17.421-5.704.035-.442-18.021 11.297-15.305 11.297a143.445 143.445 0 0014.388-8.39c-.741.442 10.192-8.243 6.665-7.691 5.184-.809 4.585 10.34 8.958 10.708a26.403 26.403 0 005.818-5.85c2.081.294.494 6.66 1.164 6.66 4.549 0 6.418-3.68 11.32-3.128 4.056.589 7.336 3.165 11.92 4.269 4.585 1.104 17.139 1.472 19.361 6.844.599 1.472-7.335 2.061-5.149 4.563 4.479 5.115 18.162-1.362 24.157.736 4.408 1.325 3.526 6.587 4.937 7.359 3.244 1.803 4.161-20.054 9.169-14.314-1.199-1.398-8.816 4.048-10.862 3.091-2.821-1.325 6.383-5.409 7.759-5.409 3.879.405 3.773 2.76 5.924 3.275 7.371 1.84 10.827 6.255 19.326 5.115 18.62-2.503 3.138-8.685 4.901-11.04a11.267 11.267 0 013.165-3.256 10.743 10.743 0 014.14-1.684 10.545 10.545 0 014.441.162 10.794 10.794 0 014.018 1.982c1.728 1.435-3.244 1.141-3.244 1.84 0 .699 9.31.699 5.501 4.379-.494.515-10.262 2.06-9.874 2.796a97.748 97.748 0 008.463 9.052c-.634.589 6.595-13.504 6.419-13.909a2.542 2.542 0 00-1.853.653 2.765 2.765 0 00-.898 1.812c6.595-5.556-7.441-8.868-8.146-11.407-1.869-6.513 3.42-9.162 3.808-10.782 1.305-5.151.812-17.994 1.658-21.195 1.481-5.63 11.285-4.784 17.985-2.576 6.701 2.208-12.59 16.412-13.083 11.039 1.093 11.408-1.799 1.288 2.468 11.408 0 0 6.383 12.106 7.053 11.039-.529.81-5.466 2.281-2.539 4.968-.176-.148 9.099-1.104 7.618 1.803-.212.405-3.668 9.162-.635 8.574.846-.258 3.35-9.163 5.008-7.618 2.186 1.877 3.879 6.182 5.148 7.36.494.478.776 7.286 4.021 8.868 3.244 1.583-1.552-8.206.952-8.206a7.376 7.376 0 001.834 2.907c5.959-3.606 2.997-14.866 5.184-15.602 5.336-.289 10.571 1.598 14.599 5.262 2.222 3.79-4.831 5.814-4.831 6.403.282 5.299 7.406 5.888 2.751 11.334-6.066 7.065-10.686-1.031-12.026.331-.388.405 4.162 4.82 2.927 4.82-1.763 0-10.474-.294-10.156 0 9.169 8.39-13.895 7.176-13.507 3.68-.599 5.189 9.945 3.79 11.849 5.189 4.514 3.275-13.542 11.517-12.201 7.359-2.892 9.016-13.437-2.944-15.165 1.362-.07.22 12.343 5.078 12.343 5.777-.105-.478-15.27 16.412-15.904 20.091-2.434 14.131 1.904 6.146 5.959 13.321.706 1.178 3.88 10.782 2.222 11.039 6.143-1.315 12.535-.256 17.986 2.981 4.126 1.84 22.71 9.199 24.227 11.039 3.738 4.453-.741 13.174 5.678 19.172 5.713 5.335 3.491.405 8.569 2.907.776.368-.741-11.591-.494-12.843.565-3.164-3.138-5.85-2.398-8.463.565-1.95 8.252-2.907 9.522-6.292 4.197-11.113-2.68-13.873-4.267-22.521-.212-1.177 1.939-9.089 1.939-11.039.847-11.149-4.69-12.033 8.817-12.437 1.798-.037 25.673 7.396 25.673 10.266 0 6.587-.952 18.105 8.675 18.105 8.711-.037 5.89-10.782 10.897-15.492-.74.699 9.557 15.749 10.298 18.178 2.786 8.942 2.821 2.539-1.446 8.279-2.116 2.87 20.983 14.425 20.983 14.425-1.199 2.134-11.99 2.576-11.179 6.697.035.037 10.791-4.636 11.814-3.9-.08 1.234.015 2.474.282 3.679 10.579 1.325.881 3.827 3.526 6.403.964.442 1.881.92 2.751 1.435 3.244 8.832-35.336 11.849-38.122 12.511-6.841 1.619-21.3 20.018-24.474 20.018 6.524 0 11.285-14.424 20.806-13.136 13.789 1.692-.564 4.967.6 9.052a6.6 6.6 0 003.526-.736c4.232 2.944-.952 10.598 9.91 12.695 3.433-1.309 6.441-3.606 8.675-6.624-.317 2.024 1.869 5.078 1.623 5.078-4.268 3.386-12.908 9.2-18.621 10.083-11.179 1.729-6.735-3.422 2.61-6.292-2.539.772-4.584-3.128-4.126-4.085-3.632 7.838-15.481 6.66-20.207 11.812a32.829 32.829 0 00-4.443 12.769c-1.482 1.104-12.061.368-12.061 4.048 0 .22 6.7-.81 6.242.22-1.023 2.208-14.106 6.918-14.106 9.568-.177 3.312 2.433 7.58-1.587 10.487.176-.11-2.786-12.401-1.235-12.401-4.02 0-1.657 13.1-1.657 14.057-.741 9.199 4.972.294-.952 8.206-2.434 3.459-10.58 10.009-14.106 15.308-2.716 4.158-2.046 39.042-2.434 39.042-4.761-1.619-5.607-11.297-7.723-14.977-5.36-9.53-3.738-7.286-10.791-9.53a32.16 32.16 0 00-11.814-2.687c-4.373.442-7.547 6.366-3.773 6.845-14.389-1.766-31.563-8.5-32.832 16.412zm0 0a6.03 6.03 0 00-.917-.552" stroke="#B2B2B2" stroke-miterlimit="10"/><path d="M385.676 441.121c4.691-6.697-48.595-18.657-41.93-8.5-3.174-4.858 21.159 1.619 22.393 2.281 4.126 2.392 13.824 14.351 19.537 6.219zm-16.929 9.162c.741 1.436 7.618 3.496 8.358 1.656.741-1.839-9.063-3.459-8.358-1.656zm46.618.405c1.623 2.907 6.313 1.178 6.701 0 .741-2.097-8.182-2.944-6.701 0zm25.924 357.968c2.187 1.251 6.736-4.968 4.726-5.373-2.011-.405-6.771 4.195-4.726 5.373zm5.465.405c1.446.846 7.406-1.987 6.7-3.496-1.446-3.128-8.146 2.797-6.7 3.496zM315.428 537.236c-1.799 3.091 1.798 6.145 2.539 4.747.74-1.398-.706-7.875-2.539-4.747zm162.818-396.605c.423-7.359-10.579-3.679-12.237-3.679-1.657 0 11.743 12.732 12.237 3.679z" stroke="#B2B2B2" stroke-miterlimit="10"/><path d="M601.464 135.517c-1.34.81-17.633-1.803-17.633-1.509.458-1.14 5.889-7.654 5.184-7.911 3.527 1.398 13.789 14.057 14.106 2.318.282-6.955-9.098-6.991-10.579-12.548-.459-1.582 12.484 4.342 9.909-4.011-1.446-4.71-14.106 3.386-13.648-1.693 0 1.73 4.373-6.255 3.527-5.335 4.056-4.673 22.394 11.333 10.58-4.71-.494-.663 10.579-.442 11.214-2.834.635-2.392-11.109-2.024-8.464-6.587 3.315-5.703 11.638 2.576 6.278-9.052.176.368-13.437-4.452-11.356-6.587 2.081-2.134 18.091-.183 17.633-2.575-1.552-6.072-9.451.33-10.086-4.894-.353-2.723 4.796 0 5.537-1.362 2.927-4.784-12.484-.957-11.92-.515-4.161-3.349 17.033-23.992 17.633-23.109-3.915-5.41-7.477 3.68-10.227.773-2.751-2.907 15.34-5.189 15.869-5.52 1.516-1.03-9.663-3.459-10.156-2.576 1.939-3.495 28.036-3.054 28.036-10.56 0-10.12-24.686-.442-27.543.515-2.151.699-5.29-2.245-6.806-1.656-4.972 1.987-9.522 10.413-14.882 11.223 5.219-.81 11.144-13.983 2.645-15.565-1.34-.221-15.764 11.039-16.645 7.36-.741-2.687 8.675-3.68 8.463-6.11-.458-4.636-30.68 2.65-30.716 1.951-.458-6.403 42.037-3.68 46.304-9.825 2.398-3.312-54.027-12.842-59.14-11.48-1.27.33-8.958 3.2-9.769 3.31a41.448 41.448 0 00-5.325-.293c-9.592 1.14-18.973.478-28.53 2.391-1.199.221 4.162 3.974 4.091 4.269-.07.294-8.393.92-7.265 2.502a87.17 87.17 0 0110.968 9.126c-6.736 1.472-19.114-14.72-25.955-9.42-1.658 1.288 4.972 5.52 4.972 6.513 0 3.9-13.577-4.416-13.189-4.416-1.023 0-.635 8.464-2.539 9.715 5.854-3.68-7.23-9.163-9.275-9.384a10.493 10.493 0 00-6.38 1.48 11.167 11.167 0 00-4.411 5.034c-3.068 1.104-7.547-2.76-11.497-1.104-2.821 1.214 2.469 6.145-1.41 8.426-1.058.59-28.46 1.288-24.686 10.193 2.786 6.734 17.633-.33 4.443 11.04-3.526 3.054-14.106 1.803-18.479 5.004-20.983 14.94 19.396 5.078 19.008 13.431 0 .92-21.441.957-21.159 3.018.564 3.017 15.023 10.008 18.867 10.376 7.794.773 15.27-5.298 25.673 0 4.931 2.4 9.347 5.815 12.983 10.038a42.605 42.605 0 018.176 14.543c3.174 12.401-4.372 13.983 8.076 13.983a73.268 73.268 0 0010.58 11.923c-.423.405-13.895-5.52-13.895-1.987 0 8.39 18.797 2.281 13.789 17.147-.776 2.245-6.7-.883-8.464 3.68a23.464 23.464 0 00-2.116 9.568c-.317 5.998 8.358 26.825 14.741 35.988 5.114 7.359 8.147 8.463 15.411 11.848 11.356 5.336 8.711 5.998 15.094-3.9 2.504-3.864-1.305-7.654-.317-10.635.529-1.582 5.43-1.545 6.136-4.894.952-4.379.388-11.554.917-13.468a8.388 8.388 0 014.02.552c.564-.331 7.617-10.229 8.464-10.229.523.498.863 1.173.959 1.905a3.282 3.282 0 01-.43 2.106c1.34 4.489 17.632-10.561 17.879-10.819 6.172-4.673 5.29-5.004 10.791-7.543 12.237-5.741 25.991-10.488 35.936-16.633zM188.188 83.78c3.526-2.024 3.526 0 6.171-2.907a12.654 12.654 0 002.892 3.68c4.196 0 5.889-9.383 8.534-9.935 2.645-.552.776 8.353 6.841 2.244 2.293-2.318 1.764-4.452 4.021-7.028a54.373 54.373 0 00-14.6.405c-4.973 1.84-13.859 13.652-13.859 13.541zm26.944-3.753c-6.066.515 3.315 4.636 2.997 3.68a13.13 13.13 0 00-7.053 2.134c-1.093 1.619 6.101 1.03 5.29 1.325a12.746 12.746 0 00-7.264 2.723c3.879 5.887 10.579.294 13.541-1.73-1.586 1.067 9.416 3.864 10.157 2.686-1.058 1.693-11.391 3.165-11.214 4.931.564 5.594 20.665-1.876 23.627-3.201 9.98-4.526 12.907-.883 8.217-9.862.388.736-10.756-7.36-12.519-6.366-5.219 2.834 3.068 8.464 1.94 10.414-2.963 5.115-13.049-5.74-15.411-6.403a25.213 25.213 0 00-12.308-.331zm67.85 44.636c7.335 5.74 15.869-15.75 11.285-16.044a3.709 3.709 0 00-1.206 2.101 3.82 3.82 0 00.324 2.425c.529-1.141-6.03-3.459-5.889-3.201-1.411-2.319 9.31-4.416 2.363-9.347-5.149-3.68-4.55 3.128-4.479 3.091.917-.442-15.411-1.95-10.227 2.907 1.748.551 3.543.921 5.36 1.104 6.137 5.556-10.579 2.576-8.957 2.245-4.937.919 9.91 13.541 11.426 14.719zm-102.867-3.755a88.736 88.736 0 015.819 7.359c4.408 0 9.063-6.697 11.25-8.39 5.713-4.452 13.789-8.831 19.572-13.799 2.151-1.84-26.308-10.377-30.011-9.162-11.955 3.9-1.551 1.25-5.431 8.095-1.199 2.098-7.617 13.137-6.806 14.167a13.68 13.68 0 005.607 1.73zm21.791-34.001c3.244.404 6.524-2.907 6.347-4.784-.176-1.877-7.97 4.563-6.347 4.784zm192.408 41.471c.935 0 1.832-.388 2.493-1.078a3.76 3.76 0 001.033-2.602c.811 2.723-13.648-5.188-14.952-5.63-3.21-1.14-1.235-4.231-6.419-5.446-3.526-.846-8.992 4.674-8.816 4.71-4.831-1.766-2.821.332-8.252.332-4.02 0 2.786-22.852-14.671-11.886-10.579 6.587-1.763 10.119-1.304 17.074 0 1.177-7.829-2.429-7.512-7.728.317-5.298 6.066-9.162 6.066-12.18 0-5.593-18.938 6.808-19.855 11.04-1.269 5.887 6.877 17.663 10.192 13.063-.846 1.177-8.852-1.104-8.64 1.104 1.164 12.069 42.847 4.526 43.729 6.991a4.892 4.892 0 01-1.393-1.443 5.112 5.112 0 01-.723-1.905c.564-2.024 14.671 9.126 14.776 10.046a12.225 12.225 0 00-3.985 3.937c2.681 2.392 5.678-2.355 10.157 2.502 5.043 5.483 4.972 4.342 6.171 12.659.247 1.729 15.341-3.349 12.59 3.937-2.751 7.286-6.7-1.877-8.711-1.214-2.01.662-7.053.846-9.874 1.729-.458 0 1.411 5.409 1.622 5.299-4.232 2.171-11.179.257-14.423 3.164-12.026 10.745 12.872 4.232 16.257 5.336 3.386 1.104 24.157 27.635 29.553 19.944 1.34-1.95-9.134-13.799-11.074-13.21 7.935-2.392 19.608 11.334 15.446-2.576-1.869-6.182-15.94-11.039-9.803-18.656 2.574-3.238 13.259 10.414 15.058 10.377 0 0 10.58-11.518 10.58-11.444 0-7.691-29.024-11.849-28.213-19.282a15.857 15.857 0 015.607-1.472 9.374 9.374 0 00-4.69-2.686c-.529-4.563 4.62-4.342-2.751-4.342 5.361 0-7.405-6.072-7.864-6.219-1.587-.515-7.405-2.245-7.405-2.245zM144.952 254.961c-3.35 2.061 4.232 11.739 6.242 10.267.635-.442-1.269-13.247-6.242-10.267zM265.384 91.028c1.269-1.656-2.716-5.189-3.809-2.282s2.504 3.975 3.809 2.282zm97.932 111.24c1.27 0 3.809-5.373.529-5.189-3.279.184-2.503 5.52-.529 5.189z" stroke="#B2B2B2" stroke-miterlimit="10"/><path d="M381.445 158.074c9.909-1.913-9.557-9.346-6.313-6.476 2.081 1.766-5.607 8.758 6.313 6.476zm-34.104 39.63c2.927 2.098 7.265-3.68 7.053-5.188-.212-1.509-10.544 2.686-7.053 5.188zM312.532 91.47c1.623 5.373 43.095 7.36 47.891 3.937 19.149-14.498-40.591-7.36-39.78-11.959a17.562 17.562 0 013.315-3.422c1.482-2.024-32.514-9.2-29.94-4.968 7.018 11.444 13.718.7 18.514 16.412zm-41.716 46.475c.988-1.324 5.643 2.687 5.819-.22 0-2.024-13.824-12.291-15.058-15.566a86.092 86.092 0 01-.917-13.394c1.657-1.546 1.481-3.165-.564-4.857a7.212 7.212 0 00-4.279-.207 7.455 7.455 0 00-3.691 2.267 24.825 24.825 0 015.078 5.005c0-.957-9.063-4.416-9.98-2.503-1.27 2.65 4.126 12.364 2.398 13.284-.318.184-12.202-13.983-12.907-10.781a14.956 14.956 0 013.068 3.937c0 .515-6.595 0-6.207 1.178-4.796-13.174-8.711 2.612-13.083-1.656-.424-.442 7.44-6.698-1.834-6.734-3.527 0-12.731 5.372-14.106 8.5-5.396 13.394 6.7 3.68 11.743 7.617.282.258-10.58 3.201-10.58 4.784 0 6.991 25.92-.736 25.92 5.188 0 1.472-23.345 0-22.499 3.938 2.398 11.039 32.092 8.757 38.087 7.874a45.622 45.622 0 019.698-1.361c2.01 0 18.62 5.961 16.61-1.104-1.587-5.52-5.396 1.656-6.701-2.098a14.56 14.56 0 013.985-3.091zm155.979 142.776c.353 1.655 10.897 6.623 11.25 4.342.353-2.282-11.567-5.778-11.25-4.342zM321.774 66.963c-3.245-1.876-7.371 2.098-3.985 3.68 3.385 1.582 7.264-1.913 3.985-3.68zm-28.282-2.686c21.16 0-3.844-12.4-5.254-9.972-1.411 2.429 2.75 9.972 5.254 9.972zm2.185-20.533s16.822 8.096 15.94 5.373c.458 1.398-7.688 3.459-7.265 3.937 2.532 3.166 5.829 5.569 9.549 6.96a21.307 21.307 0 0011.611.952c.529 0 15.657-14.241 15.234-11.85-.599 3.68-11.179-11.038-11.778-11.627-.6-.589-23.029-12.806-25.215-11.04a3.702 3.702 0 001.033 1.622 3.47 3.47 0 001.682.844c0 1.288-5.536.258-6.03 1.325a66.599 66.599 0 012.997 2.612c-1.128 2.208-7.476-1.067-7.053 3.312a13.98 13.98 0 004.938 3.937c.105 2.319-12.026-.036-5.643 3.643zm63.089 60.385c-4.549 11.297 18.514 8.684 18.514 6.219 0-3.79-17.209-9.457-18.514-6.219zm-50.673-38.821c-.352-1.251-14.106.662-11.955 2.502 3.703 3.091 12.414-1.251 11.955-2.502zm-83.547-.258c.917-2.465-5.995-2.06-5.431-1.214 1.269 1.877 4.549 3.754 5.431 1.215zm79.631 22.666c-2.927-2.502-11.532 3.68-10.333 4.563 4.691 4.195 21.018 4.6 10.333-4.563zm-41.93-16.595c1.446-2.06-5.783-8.721-6.171-5.593-.388 3.128 4.655 7.8 6.171 5.593zm16.009 3.533c-4.302-1.913 1.834 6.808 1.164 6.624a16.33 16.33 0 00-7.053-3.349c-1.552 1.288 2.222 5.225.952 5.888-1.939.957-6.7-8.574-9.38-8.758-5.819-.331 2.01 8.537 2.292 8.721 4.831 3.054 8.64.7 13.471 2.06-.67-.183 5.361 16.044 11.038 1.693 4.303-10.45-7.617-10.708-12.484-12.879zm-38.65-10.598c3.139-.551-12.872-4.526-12.872 1.877 0 10.819 12.943-1.877 12.872-1.877zm-8.889-3.937c1.481.662 11.814.552 11.814-1.656 0-8.022-17.104.883-16.716 1.25a16.92 16.92 0 004.902.406zm55.157-16.191c1.269-2.503-7.653-4.453-5.431-2.282 1.27 1.325 4.161 4.784 5.431 2.282zm-24.861 9.75c2.927-.993 4.725 0 5.466 2.907-.388.92-6.736.626-6.56 1.251.177.626 34.913 14.72 17.245-3.68a17.867 17.867 0 00-8.358-4.673c-15.481-1.73-6.559 3.239-7.793 4.195zm99.412 132.804c.353-2.171-17.633-15.087-18.691-14.94-1.692.221-10.156 12.033-9.063 15.75 1.094 3.716 27.93-1.987 27.754-.81z" stroke="#B2B2B2" stroke-miterlimit="10"/><path d="M317.611 23.173c6.524-4.783 1.129 2.024 1.199 2.098 1.299.092 2.586.314 3.844.662-7.053 8.868 13.507 7.36 13.401 5.74.917 13.8 26.484-4.599 29.553-2.318 5.924 4.38-15.482 8.685-14.988 9.42 0 0 6.877 6.072 6.03 6.146-4.091.294-25.356-15.492-21.759-1.435.847 3.275 17.633 9.972 17.633 13.1 0 0-21.159-6.55-21.582 2.907-.318 5.998 11.637-1.067 11.778-.7-1.869-4.305 1.834 13.468 1.834 10.046 0 4.011-16.328-10.45-15.658-2.502a32.975 32.975 0 004.832 3.9c0 1.399-14.106 2.576-10.756 6.072 3.35 3.496 46.444 5.262 48.595-.184 2.152-5.446-15.975-3.937-16.856-5.372 2.574 4.158 16.186-7.36 17.103-8.022 6.771-3.9 9.592 1.803 13.19-9.236 1.057-3.312-11.744-3.422-11.638-3.68 7.476-5.52 17.315-3.275 24.122-6.844 4.126-2.135 28.6-15.345 28.882-17.295.282-1.95-11.497-.515-12.167-.81 5.643 2.576 25.709-11.297 25.956-11.04-1.587-.514-24.686-8.757-25.18-2.538a8.984 8.984 0 013.774-3.275c-4.585 1.913-27.331.625-30.435.81-10.579.588-20.559-1.436-29.728 1.214-1.869.515-44.611 15.16-45.422 13.541a3.947 3.947 0 004.443-.405zm144.907 248.753c-3.85 2.517-6.885 6.184-8.71 10.524-.424.994-8.429 9.347-5.184 11.334 7.335 4.526 14.106-6.845 14.882 3.201-.283-3.348 10.579 1.251 11.108.258-.212.441-3.209-8.684-1.763-8.022 1.446.662-14.459-11.039-14.106-8.905a18.76 18.76 0 013.773-8.39zM3.47 258.716c2.186-1.03 3.068-2.281 2.186-3.679-.881-1.399-3.879 4.489-2.186 3.679zm15.444-9.346c-2.504-1.031-5.078 3.201-5.43 3.127-1.164-.184 7.828-2.097 5.43-3.127zm42.776-23.036c-4.161 5.482-7.582 16.007 1.305 6.66 1.305-1.398 3.209-12.585-1.305-6.66zM7.1 212.754c-1.727-1.067-2.926-.588-3.526 1.436a5.649 5.649 0 002.581 1.855 5.428 5.428 0 003.132.132c6.101-2.355-2.222-3.938-2.186-3.423zm699.137 126.695c-.317-2.355-4.443.699-3.526 1.398 1.763 1.362 3.879.957 3.526-1.398zm92.041 23.661c0-1.509-11.743 0-11.496 0-1.446-.294 11.849 3.864 11.496 0zm30.683 1.582a47.719 47.719 0 012.998-3.974 36.505 36.505 0 00-9.275 3.386c-1.622 3.164 6.63 2.686 6.277.588zM629.993 182.545c12.943-.736.776-21.159-5.36-17.406-1.411.847-10.579 6.109-12.096 5.594a3.678 3.678 0 00-1.136-1.58 3.456 3.456 0 00-1.756-.739c-8.04 9.899.318-2.87-10.791-2.87-2.327 0 1.199 3.422.564 3.349-2.221-.258-5.642-.994-6.171 3.422-.247 1.913 9.204 1.472 8.887 1.104-.318-.368-.917 3.68-.635 3.348.282-.331-7.582.332-7.053 1.73.247.478 6.7.662 7.829 2.061 2.045 2.465-2.222 5.556-2.68 5.041 7.864 8.868 22.076-2.539 30.398-3.054zm24.016 87.468c10.58 0 13.718-8.096 12.66-16.633-.352-2.944 5.431-3.422-1.058-7.065a24.617 24.617 0 00-8.463 1.877c-.212 6.035.423.699-5.749 4.231-.176.295-.035 17.59 2.61 17.59zm33.01-56.192c1.023-1.177 2.222-5.666.67-5.188-1.551.478-1.128 5.704-.67 5.188zm-20.702 10.856c-.775-.883-3.914 4.195-2.715 4.158 1.199-.036 3.526-3.238 2.715-4.158z" stroke="#B2B2B2" stroke-miterlimit="10"/><path d="M665.293 230.896c3.95-3.68.247 13.872.247 11.628 0-3.128 5.184 1.545 4.62 1.656a6.87 6.87 0 002.327-3.68c1.834.294-1.199 7.359-1.128 7.948.317 2.834 7.053-1.729 7.3-1.03 4.302 7.838-3.527 11.039-3.21 16.301a5.729 5.729 0 00-2.89 1.703 6.13 6.13 0 00-1.518 3.081 51.915 51.915 0 0010.121 1.509c.177 1.288-14.106 4.415-10.579 9.346 0-.184 26.026-5.961 27.577-7.617 1.552-1.656-2.68-.552-2.539-1.729.67-5.483 4.761-2.907 2.539-8.905a14.215 14.215 0 01-5.078-4.122c-2.927-5.151-5.783-16.227-12.872-15.676 0 0 4.549-7.911 4.056-9.125-1.975-5.299-5.748.736-8.57-2.797-.952-1.214 5.819-5.888 3.844-7.838-1.587-1.398-13.93 9.089-14.247 9.347zm74.13 17.111c-.776-.221 10.297-3.128 5.043-6.845-4.514-3.164-5.466 6.734-5.043 6.845zm29.339-19.576c-2.328 0-3.527 5.225-2.786 6.071.74.847 5.078-6.145 2.786-6.071zm12.801-1.472a11.84 11.84 0 004.232-3.165c2.962-3.348-8.675 3.533-4.232 3.165zm3.457-5.998c.493-1.067-3.527-.589-2.61.331.181.183.399.321.638.405a1.628 1.628 0 001.445-.184c.213-.141.393-.329.527-.552zM767.246 40.91c3.526 3.091 10.156-.441 14.423 2.282-.211 0-8.569 3.238-8.534 3.348 2.045 5.63 32.092 2.76 30.011-5.924-.247-1.067-19.537-3.864-18.761-4.158a3.722 3.722 0 00-1.144 2.144c-.135.83.007 1.684.403 2.419-1.587 1.214-9.345-5.41-11.073-5.189a13.111 13.111 0 00-2.61 3.68 103.211 103.211 0 01-3.103-2.502c-3.562.073-.106 3.495.388 3.9zm-25.143 8.427c-6.1-1.472 3.245 9.936 4.726 10.819 2.821 1.692 5.078-5.52 7.053-6.366 1.975-.847-.846 3.974 1.129 3.68 1.349-.855 2.81-1.5 4.337-1.914 1.799 2.87-12.907 8.427-10.862 8.942 3.703.957 7.653-1.509 11.497-.552a56.918 56.918 0 00-11.25 3.68c-.388 3.68 6.489 3.68 8.076 4.231a2.87 2.87 0 01-.79 1.15c-.351.309-.77.52-1.22.617-.917 1.324 5.113 1.95 6.066 1.361a94.149 94.149 0 006.383-10.156c.705-.957 6.559-15.529 10.191-9.567-.987-1.583 1.482 12.732.177 12.437 1.516.368 15.375 2.797 14.811-3.937.282 3.459-14.353-11.04-14.106-11.04-4.549-3.9-11.356-4.526-14.565-5.335 1.869.478-3.032-6.366-5.36-7.176-3.527-1.14.741 12.622.987 11.518 3.104-14.167-9.451-3.054-9.345-3.09a26.787 26.787 0 00-3.809-3.46 15.008 15.008 0 013.527-1.435c-.846.846-23.275 1.803-7.653 5.593zm-3.773 8.353a15.665 15.665 0 002.892 2.282c-1.34 0-2.821-7.36-5.431-6.44-.145.898.035 1.82.504 2.589a3.542 3.542 0 002.035 1.57zm728.16 131.515a6.867 6.867 0 00-5.08 1.803c.81 1.03 12.59 3.9 12.59 1.104-2.09-1.883-4.75-2.916-7.51-2.907zm-199.5 130.337c-.6-4.231-9.66 13.836-5.11 11.224-.78.441 3.77-2.687 3.52-1.988a69.153 69.153 0 00-2.43-3.459c0 1.031 26.1.81 24.69-11.039.7 6.403-21.83-4.195-19.15-6.035.46-.147-1.62 10.709-1.52 11.297zm-48.24 58.288c1.3 2.723 2.47-3.68 3.17-.515 0 .478-1.73 10.23 1.31 9.53 2.43-.552 7.05-9.861 3.06-11.554-.81-.442-10.82-4.379-7.54 2.539zm14.39-1.179c.88-4.084 6.27.773 6.27-5.666 0-3.423-6.52 0-6.73.588-.85 2.061-.43 9.126.46 5.078z" stroke="#B2B2B2" stroke-miterlimit="10"/><path d="M1242.06 362.706s-19.92.92-18.37 8.206c.21.957 16.78-1.619 17.98-1.914-3.74.92 3.53 2.76 4.41 2.687 2.82-.221.67-4.269 1.2-4.637 3.14-1.987 12.7 1.84 15.98-2.833 2.53-3.68 8.35-28.702 3.84-31.425-5.68-3.386-8.46 15.675-11.14 19.539-2.09 3.054-13.33 3.901-13.9 10.377zm-102.87 85.886a42.862 42.862 0 002.15-5.52c-.46-1.913-10.58-.478-8.64 3.68.25.442 5.96 8.832 6.49 1.84zm42.43-16.745c1.97-1.545 6.66-12.106 5.07-14.498-5.22-7.985-9.55 18.105-5.07 14.498zm-3.74 28.925c-2.79 9.641 27.01 22.52 20.84 29.88 9.91-11.849-11.36-16.67-13.54-22.079-2.19-5.409 7.65-13.174 0-17.81-5.15-3.238-7.2 9.604-7.3 10.009zm-5.22 30.173a25.855 25.855 0 00-5.19 7.727c-.49-1.03 10.58-8.279 8.47-12.842-.87.555-1.61 1.3-2.18 2.183a7.475 7.475 0 00-1.1 2.932zm7.51-16.043c.35 1.913 1.2 5.924 3.88 4.967 2.68-.956-4.13-6.366-3.88-4.967zm17.03 16.596c-.95-1.399-3.35 1.177-3 2.207.36 1.031 3.99-.809 3-2.207zm4.02 2.355s-17.63 11.922-14.63 11.628c2.99-.295 4.19-4.637 7.22-2.392 3.04 2.245 1.2 9.42 7.06 9.42-4.34 0 4.62-9.714 4.23-8.022.45-1.974.32-4.043-.37-5.94a10.086 10.086 0 00-3.51-4.694z" stroke="#B2B2B2" stroke-miterlimit="10"/><path d="M1186.69 481.931a4.72 4.72 0 00-1.1 3.234 4.71 4.71 0 001.35 3.131c7.58-1.729-2.68 6.072 3.14 7.36 5.08 1.361 5.43-15.713-3.39-13.725zm122.12 79.555c0 5.483-13.5 2.061-13.64 3.68-.74 7.949 20.73.258 16.33-5.556-1.49-.368-2.37.221-2.69 1.876zm5.44-.551c3.53-1.067-2.79-5.888-3.53-6.072 1.06.258 2.44 6.44 3.53 6.072zm-23.2 9.678c3.27.22-10.58-11.849-13.58-13.726-7.06-4.158-20.7-10.634-27.76-10.193-2.04 0-4.9 6.661-7.4 6.182-5.04-.957-2.15-6.55-5.75-8.095-3.07-1.325-3.07-4.931-8.6-4.048-.96 0-6.21 4.489-4.34 4.894 1.02.258 11.67 6.44 11.74 4.526 0 .883-6.56.81-7.05.92-2.96.589 11.07 7.764 11.95 8.206 6.21 3.165 10.58 2.465 14.29 9.052 3.7 6.587-5.01 6.219-3.53 9.2 2.61 5.446 22.18.625 24.26.662 5.71 0 5.61-.184 12.73 3.68 0 0 17.63 9.236 15.66 5.961-.88-1.509-16.19-17.442-12.62-17.221zm-271.34-78.159c-2.61.331-2.68 16.301.35 17.589 8.5 3.569 6.46-18.436-.35-17.589zM891.171 594.566s-5.678 10.304-6.63 11.334c-2.539 2.686-9.275 4.342-11.32 6.771-5.572 6.734-1.799 9.751-2.786 19.65-.706 6.955-8.57 35.178 9.486 26.016 10.58-5.299 8.287-36.356 12.167-46.586.529-1.325 3.315 3.017 3.279-2.613-.035-5.63-3.033-9.678-4.196-14.572zm17.738-115.581c1.375 1.619 4.02-.258 4.161-.883.141-.626-5.678-.92-4.161.883zM1342 583.381c.39 2.097 3.1 3.348 4.2 2.612 1.09-.736-4.55-4.747-4.2-2.612zm-12.87-12.769c0 .515 2.82 3.68 3.53 3.238.7-.441-3.35-4.158-3.53-3.238zm13.61 8.317c.99-.736-5.61-4.857-5.71-3.68-.11 1.178 4.72 4.416 5.71 3.68zm-21.33-14.13c-.25 1.251 3.52 7.838 5.07 6.807 2.65-1.95-4.83-8.022-5.07-6.807zm24.86 13.908c-.88 2.281 2.71 6.256 3.28 6.329.56.074-2.58-8.058-3.28-6.329zm3.17 9.236c0 .515 2.54 3.017 3.74 2.098 1.2-.92-4.05-2.981-3.74-2.098zm-129.6 6.661c.92.81 5.47-.221 5.29-1.472-.17-1.251-6.66.221-5.29 1.472z" stroke="#B2B2B2" stroke-miterlimit="10"/><path d="M1315.97 674.382c-.17 0-2.18-13.689-1.05-13.137-7.73-3.68-18.98-20.57-24.69-29.438-4.2-6.734-5.47-13.836-8.85-22.079-1.73-4.342-5.29-1.104-6.52-3.9-1.8-4.122 0-12.732-3.92-16.486-2.93-2.87-4.48 20.57-4.51 20.644-4.13 12.18-1.7 12.401-12.17 8.5-3.03-1.104-12.1-5.961-12.94-10.156-.67-3.496 7.26-9.42 6.2-11.628.78 1.656-19.04-5.888-19.46-5.704-.5 1.362 0 2.392 1.55 3.128-5.47-6.66-14.42 17.111-11.74 16.706 1.27-.184-8.08-1.509-5.51 0-6.73-4.048-5.71-8.132-13.75-2.097-5.22 3.937-3.53 9.199-6.45 12.732-.81.92-1.38-4.784-2.61-3.901-4.34 3.017-.95 6.955-4.9 10.303a49.313 49.313 0 01-12.59 7.139c-7.06 3.68-11.92 4.673-17.99 10.635a3.232 3.232 0 01-.46-2.907c0 1.508-1.73 6.218-1.9 8.721-.18 2.502 2.29 12.216 1.62 13.688a4.782 4.782 0 01-2.43-2.391c.49 1.071.88 2.193 1.16 3.348l-2.89-2.502c-1.16 3.017 7.55 19.024 8.39 22.594.43 1.876.32 19.171-.42 17.552 5.61 11.959 13.65 3.68 22.89.957 7.54-2.318 12.41-4.011 19.75-6.845 5.64-2.244 17.63-6.66 23.73-5.63 3.81.663 22.71 16.081 18.41 18.105 1.3-.589 9.06-10.671 9.55-10.193 2.4 2.355-3.98 8.758-4.26 10.266-1.17 5.778 6.34-4.562 4.33-2.907 2.76-2.244 1.45 7.066 1.2 6.33-.24-.736 8.96 12.327 9.81 13.1 5.18 4.636 18.09.331 17.95.22a8.029 8.029 0 010 3.165c-1.17-1.509 4.3 1.913 5.6 3.201-2.64-2.649 15.2-8.463 14.68-7.874 2.75-3.165 4.33-17.994 6.45-22.778 1.8-3.643 7.19-26.973 8.74-28.481z" stroke="#B2B2B2" stroke-miterlimit="10"/><path d="M1245.51 715.999c1.03 1.03 4.38.736 4.91-.736.53-1.472-5.79-.184-4.91.736zm41.02 28.85a32.502 32.502 0 01-7.05-2.281c1.23-.405.21 19.576 10.58 13.946 5.11-2.833 7.08-13.026-3.53-11.665zm87.77 34.846c.64.221 2.72-.404 1.56-2.06-1.17-1.656-3.07 1.582-1.56 2.06zm41.12-52.289c-2.43 4.637-7.75-6.991-8.25-6.954-.23.384-.36.831-.36 1.288 0 .456.13.903.36 1.288.43-.663-8.07-12.659-9.8-12.659-.21 0 6.06 12.953 6.63 14.719 1.87 5.741-4.34 5.52-4.09 8.684 0-.257 4.48 13.505 4.26 13.064 5.08 10.009 16.12-29.181 11.25-19.43zm-14.91 16.523c-5.08-4.158-35.73 24.397-26.49 30.91 9.24 6.514 30.82-27.304 26.49-30.91zm20.13-124.009c.99.405 4.27-.846 4.27-2.613 0-1.766-5.78 1.988-4.27 2.613zm-5.6 5.483c1.51 1.656 4.62 1.583 4.69-1.435.07-3.017-6.07-.036-4.69 1.435zM889.371 36.605a6.772 6.772 0 00-3.879 2.502c1.693 3.864 17.386-3.9 17.456-5.041.247-5.115-12.695 1.067-13.577 2.54zm22.605 2.208c0-2.208-6.312.221-5.078.7 1.235.478 5.078 1.508 5.078-.7zm-28.425-3.201a16.195 16.195 0 017.053-1.546c.776-2.244-14.106 0-13.541 1.252.393.487.878.885 1.426 1.166a4.243 4.243 0 003.544.16 4.396 4.396 0 001.518-1.032zm6.171 110.393c3.527 3.68 5.678-1.693 7.512-2.466 2.503-1.03-14.001-4.378-7.512 2.466zm25.992-41.767a165.045 165.045 0 00-13.788 16.044c0 .405 7.053 6.513 6.559 6.844-.635-1.324-.388-2.281.67-2.87-.67-.184 17.633 15.823 18.303 6.697.211-2.428-8.005-7.69-8.323-11.039-.317-3.349 3.209-6.955 4.585-10.083a52.55 52.55 0 018.217-11.333c5.395-5.189 44.399-22.263 42.671-23.808-4.126-3.68-38.792 8.169-44.611 11.849-3.174 2.023-14.177 17.736-14.283 17.699zm381.746-8.684c1.69.467 3.46.507 5.16.117 1.71-.39 3.3-1.2 4.64-2.361.85-9.53-39.46 0-9.8 2.244zm-30.96 4.821c0-2.06-6.6.772-3.84 1.803 1.44.552 3.84.294 3.84-1.803zM1094.93 63.32c2.4 1.582 24.16-2.208 24.9-6.66.74-4.453-12.59-5.741-12.17-2.246-2.57-19.907-9.62 10.93-12.73 8.905zm-18.76-19.539a12.188 12.188 0 00-2.79 4.159c6.1 6.108 20.95 10.781 22.22 0 1.09-9.126-19.43-6.55-19.43-4.159zm-6.35-3.864c3.92 1.914-3.52 2.134-3.95 2.355-2.11 1.104 7.87.515 9.67-.22 1.8-.737 14.99-4.821 12.59-7.986-9.88-12.658-20.24 4.931-18.31 5.851zm77.34 57.957c-2.79 6.402 4.9 1.913 4.97.846a3.31 3.31 0 00-.97-1.1 3.117 3.117 0 00-2.75-.469 3.24 3.24 0 00-1.25.722zM914.656 33.699c1.975 2.244 13.754 2.502 14.106-1.509.177-1.361-9.803-3.201-10.403-3.09 1.975-.295-2.539 5.813-3.703 4.599zm151.954-3.608c.5-2.06-7.54-1.177-5.43.847.74.699 5.12 1.25 5.43-.847zm361.69 100.165c.53.441 11.21-.332 9.09-2.944-4.97-6.219-15.69 2.649-14.91 3.091 1.94-.111 3.88-.147 5.82-.147zm-177.39-38.455c3.92 2.583 8.62 3.566 13.19 2.76 3.14-.625 11.57-5.74 8.36-6.955 1.55.59 5.96 11.04 8.57 2.981 2.15-6.808-3.99-5.188-9.56-7.102-.49 0-10.58-.405-10.58-.405 1.66-.33-19.29 3.386-9.98 8.721zm25.25 17.7c6.42-1.619-16.57-9.641-12.06-2.208 1.41 2.392 9.94 2.76 12.06 2.208z" stroke="#B2B2B2" stroke-miterlimit="10"/><path d="M805.084 209.407c-6.983 1.987-19.079 6.882-25.391.258-1.587-1.656-2.857-15.161-1.129-18.583.741-1.398 28.812-29.107 5.995-21.269-4.866 1.693-9.133 12.953-11.743 16.633-3.244 4.599-8.182 5.372-9.733 11.959-2.751 11.518 5.748 7.801 5.748 15.639.035 5.998-8.957 12.18-9.768 20.055.916.809 1.657.441 2.221-1.104-1.41.404-10.227 13.835-14.459 12.18-.881-.332-9.874-29.586-11.002-28.85-1.975 1.067-3.703 6.587-7.053 7.36 2.433-.552-18.303 5.262-13.542-2.282.352-.588 3.174-1.987 2.715-3.311-.705-2.024-4.479 1.803-4.479 0a27.86 27.86 0 01.706-4.453c-.318.258 6.665 2.649 5.289-2.392-.493-1.692-6.629 1.583-5.078-8.242-.211 1.251 6.63-15.014 9.346-8.795a3.2 3.2 0 01-1.28-.683 3.379 3.379 0 01-.872-1.194c2.504-3.937 5.008.147 5.502-5.115.388-2.428 3.209 1.509 3.526 1.251 4.197-3.606 4.232-5.63 9.275-7.69 1.376-.626-2.892-3.643-2.151-4.011 8.852-4.048 11.673-20.349 21.159-24.36.071 0 .564-3.68.564-3.68-3.35-3.275-10.579 5.152-13.718 4.968.882.037 12.167-11.26 12.167-11.26a51.749 51.749 0 00-.988 3.863c0-.331 7.053-.331 7.053-.331.6-3.532-3.385-1.656-3.526-2.649-.141-.994 8.287-7.691 8.605-7.691 4.196-1.913 3.561 1.435 6.594 3.496 1.693 1.141.212-4.673 0-4.673a16.029 16.029 0 005.361 1.95 5.556 5.556 0 01-2.293-2.355 12.98 12.98 0 014.62.184 6.369 6.369 0 00-1.693-3.202c-.105-1.545 6.066-1.398 5.854-2.281-.493-1.84-5.43 8.611-1.516 7.36-2.997.956 7.159-6.882 5.149-5.079 0 0 6.453-7.617 7.053-3.679 0 .22-6.207 7.838-4.091 7.359l5.819-6.55c1.023-.699.035 4.49.635 4.49 1.587 0 4.09-10.929 7.053-5.042.141.258-2.081 4.931-.635 4.931-1.799-.073 12.801-7.801 11.25.883-.177.994-7.3 3.018-7.547 1.987 1.375 5.373 5.924.479 7.793 2.65.776.736 7.724-2.723 8.111.736a5.668 5.668 0 01-3.032 1.104c2.433-3.128 30.751 9.383 33.431 14.388 13.93 26.052-31.633 3.459-34.736 5.078 4.443-2.319 15.446 22.888 17.456 24.544 8.111 6.66 6.595-6.624 1.94-3.864-1.975-2.208-1.552-3.974 1.269-5.336l4.655 3.165c1.199-.957 8.817 3.9 9.134 1.472 1.904-14.351 1.904-5.704 11.497-13.726.529-.405 10.191.184 1.869-6.035 3.35 2.503-1.023-12.143-.847-11.37-.529-2.76 17.104 1.987 13.577 6.366-.916 1.177-12.519.883-4.831 6.292 7.688 5.41 6.806-2.723 10.968-4.636 3.138-1.362 24.685-8.721 24.685-10.451.212 2.723-2.045 3.754-3.314 4.858-1.27 1.103 15.234-1.803 15.234-1.803 10.333-.957 5.678-.516 10.157 1.398 11.426 4.82-.388-17.663-2.469-16.412 7.829-4.71 33.608 18.914 39.956 17.773 9.063-1.545-6.524-11.959-6.524-11.959.634 1.84 1.163-12.07.952-9.199.74-10.488 15.129-27.267 23.698-12.548-.07-.184-.882 18.398-.564 20.165 1.093 6.145 3.667 10.45 2.151 15.823-2.433 8.537-16.892 10.45-16.892 10.045-.987 2.944 9.945 3.533 11.179 3.239 4.443-1.031 8.781-7.176 11.99-11.408 2.711-3.643-4.232-7.985 3.071-9.273 5.15-.956 3.88 2.539 7.76 4.306-5.68-2.539 7.37 13.321 5.43 6.771-3.64-12.548-14.46-8.206-20.281-16.449-2.186-3.054.987-30.248 6.381-28.334 5.4 1.913-1.514 10.524 1.02 13.505.18.184 12.95 2.98 12.95 2.98.95-1.177-11.11-5.409-9.81-8.095 1.66-3.349 5.19.184 7.51-.515 1.17-.332-4.12-4.195-3.73-4.563 4.37-4.637 19.67 9.199 22 5.85 5.89-8.389-24.51-10.524 5.89-17.221 2.19-.478 9.77.221 11.07-1.067 2.19-2.097-2.64-5.115-2.64-5.115a17.2 17.2 0 003.07-.184c-.04-.441-4.45-2.576-4.06-3.054l3.53.22c1.97-2.796-.39-2.575 4.23-4.82 1.41-.699 20.98-7.654 21.16-6.145-.51-.13-1-.367-1.42-.696a4.16 4.16 0 01-1.05-1.217 78.933 78.933 0 0113.16-2.65c-.39.883-.78 1.767-1.13 2.65.6.22 12.38-2.503 11.95-1.03a17.917 17.917 0 01-2.64-2.356c.31 6.403 10.19-7.249 8.11-5.667 4.09-3.09 15.23-12.879 20.06-5.188 1.45 2.171-4.97 3.312-5.89 3.68 1.35-.515 11.92 2.465 11.92 1.582a21.905 21.905 0 00-2.96 4.379c7.48 1.95 13.86-4.673 22.33-.515 6.63 3.275 4.65 6.108 5.36 9.42 2.46 11.113-27.51 13.946-31.5 24.654.39-1.067 18.91-4.158 18.69-6.182-.84-.22-1.65-.441-2.46-.736-1.31-1.729 13.29-1.913 14.35-1.729 2.19.405.42 5.851 1.9 5.851 5.61-.552 12.63-4.968 21.59-2.503 1.12.295-1.52 1.73-1.2 2.871.56 2.097 17.88 2.87 19.67 2.539 1.24-.221 1.8-7.728 5.33-8.464 4.58-1.03 26.2 12.475 20.03 16.154a8.667 8.667 0 01-4.41-.92c2.47-.184 6.21 11.923 11.04 12.217 3.28.221 5.78-9.567 7.23-9.199 1.45.368 23.1 4.636 23.1 4.636a7.114 7.114 0 01-2.33-1.619c1.27-.92 9.06.552 9.06 0 .25 2.981-2.36-6.918-.17-5.667a3.41 3.41 0 01-3.25 0c-3.38-4.857 30.9-9.089 29.73-1.95-.17 1.251-7.76-1.067-6.42 1.251 1.6.351 3.15.894 4.62 1.619-1.02.81-2.11 1.583-3.21 2.282.15-.699 16.05-8.5 19.93-1.693 1.76 3.091-4.87.846-4.27 2.686 2.01 6.33 21.9 5.998 25.99 6.33 13.3 1.214 12.35 2.244 19.4 8.573-.07-.073 8.04 7.286 6.31 8.169 2.01-1.067-.6-5.63 4.34-5.151 3.77.568 7.58.887 11.39.957 2.29-.368 18.02-4.747 17.63-1.62-.46 3.901-2.85-.184-4.65.7-1.8.883 6.06 8.169 7.72 7.102 3.6-2.319.99-8.169.6-8.169 4.44-2.098 16.86-2.392 24.16-.736 13.08 2.943 36.43 16.007 39.95 27.929.64 2.245-.98-9.604-1.27-5.115.25-4.048 18.87 7.617 18.87 7.617 2.15.846-7.34 4.269-5.96 3.386-.35.22 2.33 1.876 1.16 1.876l-4.58-1.104c.74.626-3 6.734-3.39 6.477a5.342 5.342 0 011.8 2.539c-4.51 4.563-28.28-13.284-25.39-14.94-5.11 2.907-1.16 5.961-4.05 7.727-2.01 1.251-15.84 6.918-16.68 3.974 2.22 7.618 18.19 6.992 7.89 17.222-1.26 1.288-16.64 5.262-20.66 7.69-4.02 2.429-8.85 9.273-12.38 10.23.57-.184-18.72-6.697-17.07.405a4.5 4.5 0 00.09-2.157 4.424 4.424 0 00-.93-1.928 48.56 48.56 0 00-10.87 6.477c-7.12 8.905-2.08 7.985-.52 12.805-.6-2.171-2.54 12.769 0 10.12-.22.221-27.62 33.338-26.84 34.258-5.01-5.851-5.64-27.524-3.53-34.442 3.32-10.856 7.06-9.899 14.67-16.743 5.86-5.299 23.07-20.276 23.7-26.715.35-4.416-19.99 14.351-20.81 12.511.22.405-.14-8.758.82-8.096-7.27-5.225-27.26 10.893-21.38 17.774.82.993-17.73 3.643-16.15 2.281a8.785 8.785 0 003-.993c.92-1.619-26.13-2.319-29.16-1.84-12.21 1.803-16.76 8.463-25.71 17.184-2.82 2.76-13.54 10.304-14.11 13.983.39-2.502 10.58 5.336 6.77 6.256-.31.074 3.21-3.569 3.21-3.238 0 .331-.7 5.483 0 5.483 6.07-.405 7.27-10.12 13.65.478 3.28 5.409-.57 12.99-2.05 19.245-2.38 11.114-7.28 21.472-14.28 30.211-3.31 4.342-7.37 11.223-12.91 13.689-5.53 2.465-6.24-3.57-11.28.588a50.327 50.327 0 00-10.4 14.204c-4.02 10.23-2.86-.92-1.27 10.414.88 5.372 7.93 10.414 4.4 16.412-.35.515-11.67 6.513-12.55 5.078-2.08-3.496 2.15-11.187 1.45-13.505-.85-2.944-5.68-4.011-5.68-4.011.99 2.061-5.61-9.751-.74-6.476-10.51-7.065-3.53 1.876-16.58 1.104-.95 0 3.71-10.672 3.28-11.04-1.8-1.619-18.41 10.157-18.41 11.702 2.67 2.87 5.48 5.585 8.43 8.132-5.04-2.576 18.23-4.415 11.82.773-4.13 3.201-12.24 3.459-13.23 10.561-.21.515 11 16.228 10.37 16.964 1.13-1.215-5.92-.699-5.92-.699 8.28 0 3.73 10.524 1.76 9.052 1.02.773 4.41.404 5.54.772-1.17-.22-11.18 22.962-13.37 25.759-3.53 4.599-37.66 22.189-36.92 22.998-3.81-4.158-.81-8.721-9.42-5.041-12.38 5.041-5.15 15.418-1.62 22.778 7.26 14.461 12.06 17.736-.57 30.284-.45.442-8.74 8.758-9.48 8.243.42.405-5.57-10.451-6.1-11.039-1.45-1.693-9.28-12.512-12.8-11.297-11.85 4.195 1.27 27.267 4.33 31.498 2.44 3.312 16.9 23.22 11.61 26.053-7.41 3.938-22.54-28.702-23.7-33.339-2.01-8.021.24-18.619-1.8-27.671-6.28-27.562-4.2-1.987-13.33-9.936-4.48-3.79-3.25-27.708-11.53-32.455-3.71-2.098-19.01 12.585-21.34 15.013-12.91 13.358-18.58 16.78-21.79 34.59-11.53 63.77-27.968-44.856-31.318-46.622 3.773 1.913-17.139 14.682-14.106-.847a9.63 9.63 0 005.677-2.208c0 3.901-14.176-10.119-13.295-9.678-5.713-3.054-7.758-2.833-14.882-3.054-7.123-.22-14.529.957-21.582-1.398-2.504-.846-4.867-4.821-5.502-4.821-1.763-.478-7.617-.11-8.816-.699-5.924-2.759-23.134-19.355-26.026-17.736-4.796 2.723 4.479 22.63 8.005 25.501.036.036 1.305-5.189 2.998-4.637 3.773 1.178-2.539 9.384 3.773 9.972 7.794.773 12.731-11.665 16.681-11.297-1.975-.184 13.436 18.694 13.894 21.159.459 2.465-9.697 14.94-10.579 15.933-8.534 9.237-23.099 16.891-35.689 22.594-7.017 3.202-16.998 8.5-21.653 3.202-3.456-3.901-2.927-15.419-5.254-20.607-4.973-11.26-11.461-20.791-16.504-31.609-1.799-3.68-10.368-24.029-13.154-25.759a21.16 21.16 0 01-2.504 6.624c-2.821 0-5.748-12.585-6.806-12.18.599-.221 18.937 52.326 20.242 56.006 2.962 8.758 10.051 15.161 15.129 21.6a95.646 95.646 0 018.146 16.228c11.073 7.359 21.829-7.028 31.563-3.349 14.071 5.446-31.21 55.233-35.019 59.539-9.169 10.377-16.01 20.423-13.471 34.369 2.363 13.1 10.861 27.304 2.645 40.146-3.809 6.219-14.177 7.249-17.915 14.13-4.62 8.574.705 8.537-.529 17.479-1.763 12.548-5.678 7.286-11.955 16.927a96.977 96.977 0 01-3.315 14.903c-9.169 18.546-19.502 24.397-37.381 26.678-18.55 2.392-13.542-1.361-19.396-18.619-4.303-12.732-8.217-20.901-10.933-34.296-1.481-7.47-11.249-24.323-10.579-31.498.423-10.672 7.264-19.062 8.534-28.813 1.199-9.052-4.408-24.691-8.781-32.603-5.396-9.567-8.746-11.076-8.922-20.606-.036-1.215 2.539-8.685 1.693-11.04-4.514-10.597-1.094-5.556-9.91-11.37-1.552-1.03-3.668 1.95-5.572 1.067s-1.34-4.6-2.786-5.336a101.895 101.895 0 01-9.416-5.298c-1.164-1.546-12.307 4.967-13.365 5.262a71.702 71.702 0 01-25.991 3.679c-16.61-1.656-26.872-15.234-35.512-29.953-3.844-6.476-7.406-9.788-7.653-17.994-.247-7.507 2.046-15.602 2.328-23.182.317-8.169-1.799-9.641 1.728-18.988 3.169-8.165 7.667-15.697 13.295-22.262 2.045-2.245 5.677-2.613 7.476-5.447 2.751-4.342 2.292-8.279 3.985-11.296 2.116-3.864 3.95-8.28 6.242-11.96-1.869 3.091 13.295-11.333 8.464-8.684 4.584-2.539 2.503-.257 7.687-1.692 6.101-1.656 11.462-1.104 17.986-3.055a105.26 105.26 0 0119.29-5.262c5.36-.625 24.122-4.231 26.872-.184 4.514 6.55-5.572 11.996.388 18.399 5.96 6.403 29.024 14.609 34.384 12.364.317-.147-.529-6.403 2.468-8.059 8.993-4.931 5.431.884 12.273 1.84 4.196.736 7.547 2.834 11.778 3.68 15.835 3.091 28.142 6.292 34.455-9.383l2.045.993m-30.469-165.663a16.373 16.373 0 011.939-2.833c-.73.878-1.38 1.827-1.939 2.833zm0 0a15.945 15.945 0 017.864 3.239c1.516 1.913-19.537 4.305-18.62 3.679-13.542 6.771-.459 6.513-3.879 10.561-4.056 6.734-4.867 1.619-6.56 3.054-.564.479-10.579 1.288-6.876 9.089 3.526 8.501-3.527 10.561-8.076 12.291.388 0-11.779 1.214-14.706 1.619-6.348.809-2.997 1.729-6.101-2.87-1.305-1.951-8.746 5.335-10.121 4.268a6.396 6.396 0 010-3.164c-1.728-.479-7.053 0-6.524-4.821 0-.883 4.655 2.539 5.008.405.705-4.048-2.187-1.398-3.315-3.201-.529-.884 5.007-10.635 2.116-13.947-1.94-2.244-5.184 5.373-5.184 5.373-2.081 2.171-4.126-1.73-4.409 7.359 0 2.907 5.326 9.531 3.985 12.364-1.057 2.171-12.695 4.416-14.846 5.888A104.093 104.093 0 00703.907 272a57.283 57.283 0 01-7.441 7.691c-3.279 1.582-10.156.662-11.249 1.288-2.363 1.435 2.222 5.262 0 7.138-2.222 1.877-8.534-4.01-10.016-1.103-4.02 7.801 2.011 1.876 5.537 7.801 4.867 8.132 12.449 17.81 1.129 23.808-5.255 2.796-18.127-4.416-22.394-1.987-8.04 4.562-1.763 4.158-3.526 11.959-3.527 15.86-3.139 22.52 9.345 26.752a20.6 20.6 0 0014.147.059c4.586-1.651 8.5-4.876 11.103-9.148 5.783-8.096 9.239-22.079 18.056-27.856-2.01 1.325 18.408-2.392 16.751-2.466 8.746.442 3.279-.846 10.756 5.226-.247-.184 28.882 27.635 20.595 27.635 4.69 0 3.068-12.291 3.526-12.585a5.63 5.63 0 012.825.222c.91.315 1.733.857 2.395 1.581-3.104-.957-32.057-33.118-17.95-32.603 1.939 0 17.103 17.958 21.899 20.828m0 0c.069-.403.175-.797.318-1.178m-.318 1.178c-4.725-2.907 12.661 27.672 12.661 20.533 0-6.293-7.829 15.602 2.433 9.678a13.418 13.418 0 00-.741-4.71 5.05 5.05 0 002.857 0c1.481-1.951-3.104-1.693-2.187-2.687.917-.993 5.854 1.877 5.184-2.208-.846-4.967-3.526 0-5.184-1.987.565.663-.74-9.861-1.551-9.493 1.612.493 3.265.826 4.937.993 2.715-1.251 17.28-1.141 20.806-4.82-.917.956-5.818-8.133-5.501-9.899a60.247 60.247 0 017.053-11.481c1.658-2.465 2.433-8.169 5.889-9.825 2.187-1.067 11.92-.662 12.449 2.429a21.242 21.242 0 01-5.431 3.459c-.176-1.067 4.408 5.887 4.303 5.74-.106-.147 12.519-3.459 12.695-3.679.741-1.325-11.426-.589-5.572-7.102 1.375-1.509 15.023-6.845 15.975-4.637.212.478-9.592 10.119-9.274 11.812 1.304 6.403 20.066 9.862 19.431 16.853-.847 9.421-11.602 6.109-17.915 5.998-2.715 0-4.831-3.164-7.441-3.348-8.64-.552-13.718 1.509-21.829 3.9-10.58 3.018-22.041 8.648-9.945 21.564 5.713 6.035 11.25 3.496 17.633 3.68 2.08 0 14.987-2.907 16.715-1.73 1.728 1.178-3.738 17.074-4.408 18.767l2.116 1.03m0 0v0zM948.262 34.397c3.527-5.446-16.116-2.429-11.637 1.656a11.262 11.262 0 006.032.805 11.454 11.454 0 005.605-2.461zm-20.701 2.613a61.25 61.25 0 01-5.607 2.17c-2.469 2.907 12.519 2.429 13.471-.92.6-2.024-8.04-1.803-7.864-1.25zm-.599-7.471a30.128 30.128 0 007.511-3.054c-1.587-2.245-12.625 2.17-12.836 1.398a6.486 6.486 0 002.486 1.445c.92.287 1.889.358 2.839.211z" stroke="#B2B2B2" stroke-miterlimit="10"/><path d="M1270.62 273.03c2.58 6.624-5.11 25.759-1.09 31.131-2.71-3.68 6.1.405 6.17.405.07 0-3.52-11.039-3.31-11.481 3.17-7.36 6.42-3.937 7.47-5.409 1.91-2.723-9.38-32.787-7.79-33.854-4.44 3.017-2.82 15.749-1.45 19.208zM980.424 110.605a9.557 9.557 0 006.278-1.656c2.609-5.225-11.744.7-6.278 1.656zm38.446.552c-.25-2.208-4.7.662-3.14 1.545 1.55.884 3.38.7 3.14-1.545zm-61.897-77.458l3.527-2.024c1.164-4.232-10.897.993-10.58 1.619a9.158 9.158 0 007.053.405zM1360.2 636.663c.25 1.656 10.58 10.524 11.85 9.42 1.27-1.104-12.1-11.15-11.85-9.42zM370.686 416.761c-2.257-4.453.493 8.868 1.551 6.366a50.36 50.36 0 01-1.551-6.366zm66.865 73.338c3.033.699 4.02-.368 2.927-3.165-2.151-2.06-3.915 2.098-2.927 3.165zm692.229 61.857c0-1.251-3.14-.662-2.19 1.104.95 1.767 2.19.148 2.19-1.104zm25 26.716c1.59.388 3.24.388 4.83 0 2.15-1.84-11.6-4.306-11.25-4.122.05-.499.21-.982.45-1.417.24-.436.56-.815.95-1.115a3.418 3.418 0 012.73-.669c-3.53 2.502-34.99-8.5-32.87-.773.84 3.275 33.82 10.267 35.16 8.096zm37.24.109c3.1 0 3.53-.441 1.34-1.361-5.5.089-10.97.779-16.33 2.061 2.12 4.415 12.27-.516 14.99-.7zm-24.3-1.657c-1.17 3.018-4.02-1.03-5.47.994-3.03 4.232 10.33 4.121 11.5 1.214.7-1.693-5.5-3.569-6.03-2.208zm-35.55-41.765c9.1 9.752 4.69 18.141 19.75 18.951 12.49.699 13.23-9.715 21.37-20.349-.56.699-5.39-11.223-5.36-12.364.28-5.078 6.07-4.305 7.06-7.691.98-3.385-11.64-5.777-12.31-5.63-4.09.92-2.01 8.427-9.03 7.875-.21 0-12.24 14.388-12.31 14.498.92-2.245-15.51-1.95-9.17 4.71zm-47.78-3.752c-.21 1.398 1.09 5.409 2.54 3.68 1.44-1.73-2.29-5.042-2.54-3.68zm5.92 11.811c-.21.662 1.1 3.459 1.94 2.612.85-.846-1.27-4.71-1.94-2.612z" stroke="#B2B2B2" stroke-miterlimit="10"/><path d="M1120.43 558.873c-.35-5.814 2.79-4.268 2.75-8.022 0-1.619-5.08-6.586-5.18-3.679.97.988 1.83 2.086 2.57 3.275-1.06 2.796-13.47-16.927-14.1-17.663-2.9-3.423-27.93-23.551-29.06-20.791-.81 1.95 19.25 32.051 21.86 35.841 2.61 3.79 22.29 29.512 21.16 11.039zm60.83 27.378c0-3.68-7.05-1.73-7.51-2.356-.46-.625 7.51 5.815 7.51 2.356zm-8.11-35.694c-.6 1.104 7.62 13.615 4.23 15.087 3.18-1.362.36-15.234 3.53-13.615 5.96 3.054-.63 11.628 7.34 5.151-4.24 3.423.21-22.888 3.52-15.454.43.993-18.05 6.071-13.43-1.804 5.04-8.61 16.25 1.215 20.66-8.316-2.64 5.777-13.61-1.251-17.28 1.325-5.82 4.011-5.39 11.775-8.57 17.626zm38.09 3.202a56.47 56.47 0 0010.58 3.055c4.69 0-12.77-10.561-10.58-3.055zm.6-21.748c0-9.273-7.37 9.862-.6 8.464 4.62-.957.6-8.648.6-8.464zm-13.62 51.884c2.12-2.833 9.1-3.238 10.02-6.034.49-1.62-10.76 3.679-11.78 3.679-1.62.295-6.28 3.901-3.53 5.704 1.1.055 2.2-.235 3.14-.831a5.694 5.694 0 002.15-2.518zm4.69-29.878c.46 2.208 3.99 3.459 4.94 1.546.95-1.914-5.5-4.085-4.94-1.546zM726.02 333.231c-1.128 2.171 1.411 14.719 6.031 8.5 3.808-5.041-3.139-14.24-6.031-8.5zm26.416 14.866c.847-.221-9.31-.957-8.393 1.877a29.8 29.8 0 008.887 5.924 66.796 66.796 0 012.786-7.359 2.54 2.54 0 00-1.563-.843 2.487 2.487 0 00-1.717.401z" stroke="#B2B2B2" stroke-miterlimit="10"/><path d="M1193.64 94.047c-10.49 0-20.54 4.346-27.96 12.082-7.41 7.736-11.57 18.228-11.57 29.168 0 20.607 36.46 69.106 36.46 69.106h3.07s39.57-46.291 39.57-69.106c0-5.42-1.03-10.787-3.02-15.794s-4.9-9.556-8.58-13.387a39.387 39.387 0 00-12.83-8.94 38.125 38.125 0 00-15.14-3.13zm0 61.415c-3.82 0-7.56-1.183-10.74-3.398-3.18-2.216-5.65-5.365-7.12-9.05a21.057 21.057 0 01-1.1-11.651c.75-3.912 2.59-7.505 5.29-10.325 2.71-2.82 6.15-4.741 9.9-5.519 3.75-.778 7.63-.378 11.16 1.148 3.53 1.526 6.55 4.111 8.68 7.427 2.12 3.316 3.25 7.215 3.25 11.203.01 2.649-.49 5.274-1.46 7.723a20.159 20.159 0 01-4.19 6.547 19.158 19.158 0 01-6.27 4.37 18.59 18.59 0 01-7.4 1.525zM311.619 426.88c-2.879 0-5.73.593-8.389 1.743a21.858 21.858 0 00-7.109 4.963 22.946 22.946 0 00-4.745 7.426 23.7 23.7 0 00-1.657 8.756c0 11.408 20.207 38.307 20.207 38.307h1.693s21.935-25.759 21.935-38.307a23.721 23.721 0 00-1.661-8.764 22.938 22.938 0 00-4.754-7.431 21.842 21.842 0 00-7.121-4.96 21.098 21.098 0 00-8.399-1.733zm0 34.038c-2.093 0-4.138-.647-5.878-1.86a10.95 10.95 0 01-3.897-4.955 11.493 11.493 0 01-.602-6.378 11.193 11.193 0 012.896-5.652 10.445 10.445 0 015.417-3.021 10.165 10.165 0 016.112.628 10.682 10.682 0 014.748 4.066 11.376 11.376 0 011.783 6.133c0 2.928-1.114 5.735-3.098 7.806-1.985 2.07-4.676 3.233-7.481 3.233zm664.397-346.045c-6.37 0-12.478 2.64-16.982 7.34-4.504 4.699-7.034 11.073-7.034 17.719 0 12.475 22.147 41.913 22.147 41.913h1.869s23.98-28.077 23.98-41.913a25.985 25.985 0 00-1.815-9.587 25.133 25.133 0 00-5.196-8.13 23.946 23.946 0 00-7.784-5.434 23.131 23.131 0 00-9.185-1.908zm0 37.276a11.398 11.398 0 01-6.538-2.05 12.154 12.154 0 01-4.34-5.497 12.752 12.752 0 01-.677-7.088 12.426 12.426 0 013.216-6.283 11.593 11.593 0 016.021-3.355 11.289 11.289 0 016.793.706 11.863 11.863 0 015.268 4.529 12.636 12.636 0 011.965 6.821c-.009 3.238-1.246 6.339-3.44 8.628-2.193 2.289-5.166 3.579-8.268 3.589zm-573.91 429.208c-2.36 0-4.697.485-6.877 1.429a17.912 17.912 0 00-5.828 4.069 18.829 18.829 0 00-3.889 6.089 19.457 19.457 0 00-1.356 7.179c0 9.31 16.54 31.352 16.54 31.352h1.41s17.95-21.011 17.95-31.352a19.437 19.437 0 00-1.356-7.179 18.812 18.812 0 00-3.889-6.089 17.908 17.908 0 00-5.827-4.069 17.296 17.296 0 00-6.878-1.429zm0 27.892a8.52 8.52 0 01-4.882-1.547 9.087 9.087 0 01-3.234-4.118 9.535 9.535 0 01-.493-5.299 9.281 9.281 0 012.413-4.69 8.665 8.665 0 014.505-2.499 8.438 8.438 0 015.076.536 8.876 8.876 0 013.934 3.391 9.456 9.456 0 011.462 5.1c-.009 2.424-.938 4.745-2.584 6.456-1.646 1.71-3.874 2.67-6.197 2.67zm743.534-287.204c-3.15-.005-6.27.639-9.18 1.894a23.853 23.853 0 00-7.79 5.422c-2.24 2.324-4 5.084-5.21 8.122a25.915 25.915 0 00-1.83 9.584c0 12.512 22.15 41.95 22.15 41.95h1.86s23.99-28.114 23.99-41.95c0-6.636-2.53-13.001-7.03-17.693-4.5-4.693-10.6-7.329-16.96-7.329zm0 37.276c-2.32.007-4.59-.705-6.53-2.047a12.094 12.094 0 01-4.34-5.492 12.778 12.778 0 01-.68-7.083c.45-2.379 1.56-4.566 3.2-6.283a11.614 11.614 0 016.02-3.364 11.3 11.3 0 016.79.691 11.88 11.88 0 015.27 4.513 12.65 12.65 0 011.98 6.811c.02 1.616-.28 3.218-.86 4.715a12.252 12.252 0 01-2.53 4.008 11.623 11.623 0 01-3.81 2.688c-1.43.624-2.96.949-4.51.953v-.11zm112.61 217.695c-6.37 0-12.48 2.64-16.99 7.339-4.5 4.7-7.03 11.074-7.03 17.72 0 12.511 22.15 41.949 22.15 41.949h1.87s23.98-28.113 23.98-41.949c0-3.289-.62-6.547-1.82-9.587a25.173 25.173 0 00-5.19-8.13 24.008 24.008 0 00-7.79-5.434 23.09 23.09 0 00-9.18-1.908zm0 37.276c-2.32 0-4.58-.717-6.51-2.059-1.92-1.343-3.42-3.251-4.31-5.483a12.694 12.694 0 01-.67-7.059 12.37 12.37 0 013.21-6.255 11.528 11.528 0 015.99-3.343c2.27-.472 4.63-.23 6.77.695 2.14.925 3.96 2.49 5.25 4.5a12.564 12.564 0 011.97 6.787c0 3.24-1.23 6.347-3.42 8.638-2.2 2.291-5.18 3.579-8.28 3.579zM302.238 284.437c-6.363.01-12.462 2.654-16.959 7.352-4.496 4.699-7.021 11.067-7.021 17.707 0 12.474 22.146 41.949 22.146 41.949h1.834s24.016-28.113 24.016-41.949c0-6.646-2.53-13.02-7.034-17.72-4.504-4.699-10.612-7.339-16.982-7.339zm0 37.276a11.372 11.372 0 01-6.495-2.077 12.115 12.115 0 01-4.296-5.49 12.708 12.708 0 01-.652-7.056 12.383 12.383 0 013.212-6.246 11.575 11.575 0 015.995-3.333 11.257 11.257 0 016.76.702 11.83 11.83 0 015.249 4.499 12.6 12.6 0 011.971 6.784c0 1.607-.304 3.199-.895 4.684a12.277 12.277 0 01-2.547 3.968 11.675 11.675 0 01-3.81 2.645 11.282 11.282 0 01-4.492.92zM775.852 99.786c-6.36 0-12.46 2.636-16.957 7.329-4.497 4.692-7.024 11.057-7.024 17.693 0 12.511 22.147 41.949 22.147 41.949h1.834s24.015-28.113 24.015-41.949c0-3.289-.621-6.546-1.828-9.584a25.126 25.126 0 00-5.208-8.122 23.924 23.924 0 00-7.792-5.422 23.116 23.116 0 00-9.187-1.894zm0 37.276c-2.323 0-4.594-.719-6.525-2.065a12.164 12.164 0 01-4.325-5.5 12.745 12.745 0 01-.668-7.079 12.418 12.418 0 013.214-6.274 11.6 11.6 0 016.013-3.354 11.292 11.292 0 016.785.697 11.877 11.877 0 015.27 4.513 12.643 12.643 0 011.979 6.808c0 3.25-1.237 6.367-3.44 8.665-2.202 2.298-5.189 3.589-8.303 3.589zM132.715 117.45c-6.369 0-12.478 2.64-16.982 7.339-4.504 4.7-7.034 11.074-7.034 17.72 0 12.474 22.147 41.949 22.147 41.949h1.869s23.98-28.113 23.98-41.949a25.964 25.964 0 00-1.815-9.587 25.123 25.123 0 00-5.196-8.13 23.931 23.931 0 00-7.784-5.434 23.114 23.114 0 00-9.185-1.908zm0 37.276c-2.316 0-4.579-.717-6.505-2.059a12.127 12.127 0 01-4.312-5.483 12.711 12.711 0 01-.666-7.059 12.399 12.399 0 013.204-6.255 11.566 11.566 0 015.995-3.343 11.246 11.246 0 016.764.695 11.835 11.835 0 015.255 4.5 12.601 12.601 0 011.973 6.787c-.009 3.237-1.246 6.339-3.439 8.628-2.194 2.289-5.167 3.579-8.269 3.589z" fill="#D2FC1B" stroke="#263238" stroke-linecap="round" stroke-linejoin="round"/></svg>