<svg width="64" height="64" viewBox="0 0 64 64" fill="none" xmlns="http://www.w3.org/2000/svg">
<path d="M25.6776 39.8776C25.8035 40.4057 25.9347 40.922 26.0766 41.4137C27.8187 47.3518 30.6368 50.441 34.6728 50.8505L34.6237 34.7094L25.6776 39.8776Z" fill="#B1FE33"/>
<path d="M34.5831 21.542C31.2402 23.5807 27.8096 26.1784 24.3223 29.3209C24.4895 32.8922 24.8629 36.071 25.4353 38.8121L34.6195 33.5062L34.5831 21.542Z" fill="#B1FE33"/>
<path d="M49.7935 11.7362C49.7517 11.6996 49.7005 11.6804 49.6488 11.6619C49.6237 11.6524 49.5984 11.6432 49.569 11.638C49.5096 11.6277 49.4465 11.6233 49.3751 11.6311C49.3699 11.6316 49.3653 11.6306 49.3599 11.6312C39.6779 12.8972 30.678 19.0947 23.4721 25.5681C22.8046 26.1684 22.1359 26.7825 21.4652 27.4193C20.8876 27.9656 20.4564 28.7817 20.305 29.5301C20.1276 30.4317 20.0627 49.5347 28.3868 54.5879C30.26 55.719 32.471 56.1804 34.9929 55.9367C44.3348 46.3833 50.1008 29.7764 50.0519 12.5356C50.0534 12.1718 49.9596 11.8819 49.7935 11.7362ZM45.8042 28.044C45.8011 28.0591 45.7998 28.0737 45.7954 28.0884C45.6407 28.9211 45.4898 29.7552 45.306 30.5794C43.3616 39.2202 40.015 46.5423 35.6268 51.7554C35.5239 51.8782 35.3761 51.9414 35.2273 51.9414C35.2243 51.9414 35.2207 51.9414 35.2176 51.9414C35.2116 51.9414 35.2059 51.9412 35.1999 51.9409L35.1978 51.9414H35.1962L35.1916 51.9404C30.4159 51.7526 27.0118 48.3095 25.0742 41.7052C24.0944 38.3081 23.487 34.0754 23.2689 29.1217C23.2623 28.9662 23.325 28.8164 23.4402 28.712C27.3483 25.1712 31.1943 22.2918 34.8712 20.1532C38.8272 17.8644 42.6855 16.376 46.4025 15.6871C46.7396 15.6288 47.0259 15.8889 47.0196 16.2104C46.9435 20.1917 46.5236 24.1577 45.8042 28.044Z" fill="#B1FE33"/>
<path d="M20.7498 26.6575C21.2485 26.1847 21.7457 25.7282 22.2427 25.2751C29.4326 18.7141 38.2176 12.5617 47.7547 10.8323C47.8778 10.81 48.0021 10.7806 48.1249 10.7599L43.4891 8.05778C43.3902 8.00631 43.27 7.98797 43.1319 8.00784C32.6408 9.3764 22.8649 16.5533 15.2254 23.7949C14.4866 24.4976 13.9821 25.6078 14.0005 26.4944C14.207 34.4259 15.3955 47.0572 22.2978 51.068L24.4639 52.3248C19.7425 45.9274 17.5725 29.6417 20.7498 26.6575Z" fill="#B1FE33"/>
<path d="M35.6617 32.9043L44.8302 27.6075C45.4723 24.0679 45.8593 20.4609 45.9609 16.8381C42.6082 17.5408 39.1352 18.9147 35.6252 20.9211L35.6617 32.9043Z" fill="#B1FE33"/>
<path d="M35.7133 49.9457C39.555 44.95 42.5153 38.2267 44.2877 30.3512C44.3897 29.8935 44.468 29.4288 44.5609 28.9683L35.665 34.1075L35.7133 49.9457Z" fill="#B1FE33"/>
</svg>
