<svg width="64" height="64" viewBox="0 0 64 64" fill="none" xmlns="http://www.w3.org/2000/svg">
<path d="M27.0042 54.8785L31.0301 58.3494C31.6271 58.737 32.3154 58.9597 33.0255 58.995C33.7357 59.0303 34.4425 58.8769 35.0747 58.5504L43.6194 53.5721C43.775 53.5072 43.912 53.4044 44.0179 53.2728C44.1238 53.1413 44.1952 52.9852 44.2256 52.8189V51.5633L44.2069 51.5754L35.6666 56.5504H35.66C34.9039 56.9371 34.0677 57.1398 33.219 57.1421C32.3704 57.1445 31.5331 56.9463 30.7749 56.5637C30.3545 56.3053 29.1663 55.2385 28.0429 54.2744L27.0042 54.8785Z" fill="#B1FE33"/>
<path d="M13.0594 50.3574V55.2838C13.031 55.4941 13.0565 55.7082 13.1335 55.9059C13.2105 56.1036 13.3365 56.2783 13.4995 56.4135L15.7001 57.6956C15.6891 57.5112 15.7 58.8695 15.6637 42.6348L15.6362 29.8975C15.683 28.9129 15.9631 27.9537 16.4534 27.0996C16.9436 26.2454 17.6299 25.5211 18.4551 24.9866L48.6784 7.4742C48.7466 7.43444 48.816 7.398 48.8842 7.36376L46.6946 6.08606C46.491 6.00678 46.2705 5.98169 46.0543 6.01323C45.8382 6.04477 45.6339 6.13187 45.4612 6.26606L15.2413 23.7707C14.5925 24.2038 14.0524 24.7819 13.6636 25.4596C13.2747 26.1372 13.0476 26.8962 13 27.6767L13.0528 50.3441C13.055 50.3508 13.0594 50.3497 13.0594 50.3574Z" fill="#B1FE33"/>
<path d="M31.3371 55.5488C31.9219 55.8351 32.564 55.9838 33.2147 55.9838C33.8654 55.9838 34.5075 55.8351 35.0923 55.5488L43.6304 50.5639C44.6492 49.9697 44.2377 49.232 43.2552 48.8798L39.7222 47.5049L29.0969 53.6626C31.095 55.382 31.4504 55.6427 31.3371 55.5488Z" fill="#B1FE33"/>
<path d="M36.9033 38.8039C37.0555 38.8034 37.2012 38.7422 37.3084 38.6339C37.4157 38.5256 37.4758 38.3791 37.4755 38.2264L37.4337 23.5985C37.4334 23.446 37.3729 23.2998 37.2655 23.192C37.158 23.0841 37.0124 23.0234 36.8604 23.0231C36.7844 23.0216 36.7089 23.0356 36.6384 23.0641C36.5679 23.0927 36.5038 23.1353 36.4502 23.1894C36.3965 23.2435 36.3543 23.3079 36.3261 23.3787C36.2979 23.4496 36.2843 23.5255 36.2861 23.6018L36.3279 38.2297C36.3285 38.3824 36.3894 38.5286 36.4973 38.6363C36.6052 38.7439 36.7512 38.8042 36.9033 38.8039Z" fill="#B1FE33"/>
<path d="M39.8466 34.571C39.9219 34.5709 39.9965 34.5558 40.0661 34.5267C40.1357 34.4976 40.1988 34.455 40.252 34.4013C40.3051 34.3477 40.3472 34.2841 40.3758 34.2141C40.4044 34.1441 40.419 34.0691 40.4187 33.9935L40.3923 24.4002C40.392 24.2475 40.3314 24.1011 40.2237 23.9933C40.116 23.8854 39.9701 23.8248 39.818 23.8248C39.6655 23.8254 39.5196 23.8867 39.4121 23.9952C39.3046 24.1037 39.2444 24.2505 39.2447 24.4035L39.2722 33.9968C39.2724 34.0723 39.2874 34.1471 39.3163 34.2169C39.3452 34.2866 39.3876 34.35 39.4409 34.4033C39.4942 34.4566 39.5575 34.4989 39.6271 34.5277C39.6967 34.5564 39.7713 34.5712 39.8466 34.571Z" fill="#B1FE33"/>
<path d="M42.7194 30.4033C42.7948 30.4032 42.8694 30.3882 42.9391 30.359C43.0087 30.3299 43.0719 30.2874 43.1252 30.2337C43.1784 30.1801 43.2206 30.1165 43.2493 30.0465C43.278 29.9765 43.2928 29.9015 43.2926 29.8258L43.2794 25.2307C43.2785 25.0783 43.2177 24.9324 43.1101 24.8248C43.0025 24.7172 42.8569 24.6567 42.7051 24.6564C42.6297 24.6566 42.555 24.6716 42.4854 24.7007C42.4157 24.7298 42.3525 24.7724 42.2993 24.8261C42.246 24.8797 42.2038 24.9433 42.1751 25.0133C42.1464 25.0833 42.1317 25.1583 42.1318 25.234L42.145 29.8291C42.1456 29.9816 42.2064 30.1277 42.314 30.2353C42.4217 30.3429 42.5674 30.4033 42.7194 30.4033Z" fill="#B1FE33"/>
<path d="M28.0264 41.7569C28.1018 41.7566 28.1764 41.7414 28.246 41.7122C28.3156 41.6829 28.3787 41.6402 28.4319 41.5865C28.485 41.5327 28.527 41.469 28.5556 41.399C28.5842 41.3289 28.5988 41.2539 28.5985 41.1782L28.5699 30.9257C28.5698 30.8501 28.5548 30.7753 28.5259 30.7056C28.4969 30.6358 28.4546 30.5725 28.4012 30.5191C28.3479 30.4658 28.2846 30.4236 28.215 30.3948C28.1454 30.366 28.0708 30.3513 27.9956 30.3514C27.9192 30.3481 27.843 30.3608 27.7718 30.3887C27.7007 30.4166 27.636 30.459 27.5821 30.5134C27.5282 30.5677 27.4861 30.6327 27.4586 30.7043C27.4311 30.7758 27.4187 30.8524 27.4223 30.929L27.4509 41.1826C27.4515 41.3353 27.5124 41.4816 27.6203 41.5892C27.7282 41.6969 27.8742 41.7572 28.0264 41.7569Z" fill="#B1FE33"/>
<path d="M30.9289 37.2347C31.081 37.2341 31.2267 37.173 31.334 37.0647C31.4412 36.9564 31.5013 36.8098 31.501 36.6571L31.4878 32.0631C31.4872 31.9106 31.4265 31.7646 31.3188 31.6569C31.2112 31.5493 31.0654 31.4889 30.9135 31.4889C30.7613 31.4895 30.6157 31.5506 30.5084 31.6589C30.4011 31.7672 30.3411 31.9138 30.3413 32.0664L30.3535 36.6604C30.354 36.8131 30.4149 36.9594 30.5228 37.067C30.6307 37.1747 30.7768 37.235 30.9289 37.2347Z" fill="#B1FE33"/>
<path d="M25.0909 41.059C25.243 41.0584 25.3887 40.9972 25.4959 40.8889C25.6032 40.7807 25.6633 40.6341 25.663 40.4814L25.6476 35.0183C25.647 34.8658 25.5862 34.7197 25.4786 34.6121C25.3709 34.5045 25.2252 34.444 25.0732 34.444C24.9249 34.4567 24.7858 34.5218 24.6808 34.6278C24.5758 34.7337 24.5117 34.8737 24.5 35.0227L24.5154 40.4847C24.5156 40.5603 24.5306 40.6352 24.5596 40.705C24.5886 40.7749 24.631 40.8383 24.6845 40.8916C24.7379 40.9449 24.8013 40.9872 24.8711 41.0159C24.9408 41.0446 25.0155 41.0592 25.0909 41.059Z" fill="#B1FE33"/>
<path d="M33.9458 38.1336C34.0212 38.1335 34.0958 38.1184 34.1654 38.0893C34.2349 38.0602 34.2981 38.0176 34.3512 37.9639C34.4044 37.9103 34.4465 37.8466 34.4751 37.7766C34.5037 37.7067 34.5183 37.6317 34.518 37.556L34.4905 27.6966C34.4902 27.5442 34.4296 27.3982 34.3222 27.2905C34.2147 27.1828 34.0691 27.1224 33.9172 27.1224C33.8419 27.1225 33.7672 27.1376 33.6977 27.1667C33.6281 27.1958 33.565 27.2384 33.5118 27.2921C33.4587 27.3457 33.4166 27.4093 33.388 27.4793C33.3594 27.5493 33.3448 27.6243 33.3451 27.6999L33.3726 37.5594C33.3729 37.7118 33.4334 37.8578 33.5409 37.9655C33.6483 38.0731 33.794 38.1336 33.9458 38.1336Z" fill="#B1FE33"/>
<path d="M16.7948 29.8909L16.8201 42.6547L16.852 57.4913C16.852 58.6752 17.5397 59.0374 18.5421 58.4521C28.8164 52.4523 35.0252 48.8765 48.7554 40.9441C49.4049 40.5119 49.9456 39.9345 50.335 39.2571C50.7245 38.5797 50.9521 37.8209 51 37.0403L50.9395 9.44322C50.9395 8.21189 50.1979 7.92587 49.2506 8.47583L19.0394 25.986C18.3899 26.4184 17.8492 26.9961 17.4598 27.6737C17.0703 28.3512 16.8427 29.1102 16.7948 29.8909ZM35.0813 47.3547L33.3462 48.3608C33.281 48.4063 33.2071 48.4378 33.1292 48.4533C33.0513 48.4687 32.971 48.4678 32.8935 48.4505C32.8159 48.4332 32.7428 48.4 32.6787 48.3529C32.6146 48.3058 32.5609 48.2459 32.5211 48.177C32.4812 48.108 32.4561 48.0315 32.4472 47.9523C32.4383 47.8731 32.4459 47.7929 32.4694 47.7167C32.493 47.6406 32.532 47.5702 32.5841 47.51C32.6361 47.4498 32.7001 47.401 32.7718 47.3669L34.508 46.3608C34.6381 46.2999 34.7863 46.2902 34.9232 46.3334C35.0601 46.3767 35.1759 46.4698 35.2479 46.5945C35.3198 46.7192 35.3426 46.8664 35.3117 47.0071C35.2809 47.1478 35.1987 47.2718 35.0813 47.3547ZM48.0645 11.5039C48.1517 11.4537 48.2504 11.4274 48.3509 11.4275C48.4514 11.4275 48.5501 11.454 48.6373 11.5043C48.7244 11.5545 48.7969 11.6268 48.8476 11.7139C48.8982 11.8011 48.9253 11.9 48.926 12.0008L48.9854 35.9857C48.9857 36.0871 48.9593 36.1867 48.9089 36.2746C48.8584 36.3624 48.7858 36.4354 48.6982 36.486L19.7259 53.2772C19.6387 53.3275 19.5399 53.3539 19.4394 53.3538C19.3388 53.3537 19.24 53.3272 19.1529 53.2767C19.0658 53.2263 18.9934 53.1538 18.943 53.0665C18.8926 52.9792 18.8658 52.8801 18.8655 52.7792L18.805 28.7954C18.8046 28.6939 18.831 28.594 18.8814 28.506C18.9319 28.4179 19.0046 28.3448 19.0922 28.2941L48.0645 11.5039Z" fill="#B1FE33"/>
</svg>
