<svg width="64" height="64" viewBox="0 0 64 64" fill="none" xmlns="http://www.w3.org/2000/svg">
<path d="M33.5359 33.9254L35.9671 32.5096V30.6686L33.5359 32.0624V33.9254Z" fill="#B1FE33"/>
<path d="M35.3616 29.6163L25.2577 23.7693L22.8253 25.1631L32.9293 31.01L35.3616 29.6163Z" fill="#B1FE33"/>
<path d="M39.9884 26.9564L36.667 25.0353L38.8323 15.7434L39.1437 15.9397C39.1138 15.7183 39.0978 15.4952 39.0959 15.2718C39.1545 13.8352 39.5575 12.4333 40.2713 11.1834C40.9851 9.93347 41.9889 8.87171 43.1988 8.08681C43.4815 7.93185 43.7737 7.79491 44.0738 7.67681L43.2233 7.14253C42.8756 7.01167 42.5003 6.96999 42.1322 7.02134C41.764 7.07269 41.4147 7.21541 41.1164 7.43638C40.0969 8.1186 39.2502 9.02699 38.643 10.0901C38.0357 11.1532 37.6844 12.3421 37.6166 13.5633C37.6133 13.9579 37.6833 14.3497 37.8231 14.7189L35.5716 24.4L29.8832 21.1118L26.4721 23.0724L36.5772 28.9193L39.9884 26.9564Z" fill="#B1FE33"/>
<path d="M40.315 15.259C40.3313 17.1 41.4816 17.9665 43.284 16.9165C44.3048 16.2342 45.1523 15.325 45.7597 14.2607C46.3671 13.1964 46.7177 12.0061 46.7838 10.7838C46.764 8.74307 45.4399 8.18208 43.8171 9.13218C42.7999 9.81701 41.9549 10.7259 41.3475 11.7885C40.7402 12.851 40.3869 14.0386 40.315 15.259Z" fill="#B1FE33"/>
<path d="M11.1383 51.0783C11.9407 49.838 13.1026 48.8696 14.4701 48.3012L13.6196 47.7669C13.2718 47.6362 12.8965 47.5947 12.5283 47.6463C12.1601 47.6978 11.8109 47.8408 11.5128 48.0619C10.4931 48.744 9.64632 49.6524 9.03903 50.7155C8.43174 51.7787 8.0805 52.9676 8.01295 54.1888C7.97219 54.5569 8.02803 54.9292 8.17505 55.2694C8.32207 55.6096 8.55523 55.906 8.85173 56.1296L9.54351 56.564C9.51251 56.3423 9.49615 56.1189 9.49452 55.895C9.54817 54.1623 10.1206 52.485 11.1383 51.0783Z" fill="#B1FE33"/>
<path d="M52.4255 39.5331C52.7 39.3723 52.9895 39.2385 53.29 39.1335L52.4501 38.5876C52.24 38.4775 52.0048 38.4235 51.7676 38.4308C51.2594 38.4534 50.7672 38.6141 50.3443 38.8954C49.5499 39.3841 48.8678 40.0339 48.3424 40.8026L40.6288 36.6862L40.602 28.011L37.1886 29.9728V32.8614C37.1885 32.9671 37.1607 33.071 37.1079 33.1626C37.0551 33.2543 36.9791 33.3307 36.8875 33.3841L33.2396 35.5085C33.1472 35.5626 33.0421 35.5913 32.9349 35.5919C32.8277 35.5925 32.7223 35.5648 32.6293 35.5118C32.5364 35.4587 32.4591 35.3821 32.4054 35.2897C32.3518 35.1974 32.3236 35.0925 32.3238 34.9858V32.7697L28.873 34.7535L28.9115 47.0061L40.6405 40.2694L40.6335 38.209L47.6961 41.8479L47.6903 41.8584C47.1574 42.83 46.8655 43.9144 46.8387 45.0211C46.7963 45.391 46.8514 45.7655 46.9987 46.1077C47.146 46.4498 47.3804 46.7479 47.6786 46.9724L48.3599 47.3964C48.3354 47.1908 48.3238 46.9608 48.3109 46.7297C48.3707 45.2904 48.7754 43.8862 49.4911 42.6343C50.2069 41.3824 51.213 40.319 52.4255 39.5331Z" fill="#B1FE33"/>
<path d="M53.0298 40.5877C52.016 41.2747 51.1735 42.1836 50.5669 43.2448C49.9603 44.306 49.6056 45.4913 49.53 46.7099C49.5475 48.5323 50.6674 49.4371 52.5002 48.3674C53.521 47.6851 54.3685 46.7759 54.9758 45.7116C55.5832 44.6473 55.9338 43.457 56 42.2347C55.979 40.23 54.7004 39.5993 53.0298 40.5877Z" fill="#B1FE33"/>
<path d="M21.6097 25.8669L18.1542 27.8531L28.2593 33.7001L31.7136 31.7139L21.6097 25.8669Z" fill="#B1FE33"/>
<path d="M17.6164 28.9437L17.6316 28.9519L17.5767 28.9205L17.5896 28.9275L17.5639 28.9135L17.5476 28.9042L17.5861 41.151L22.2606 43.855L16.157 49.4116C15.107 48.9992 13.6838 49.9737 12.8485 50.8797C11.5653 52.2455 10.8069 54.0181 10.7066 55.8857C10.7264 57.7882 11.907 58.5746 13.6779 57.5443C14.6989 56.8619 15.5465 55.9526 16.1539 54.888C16.7613 53.8235 17.1118 52.633 17.1777 51.4105C17.1799 51.0335 17.1147 50.6591 16.9852 50.3047L23.3666 44.4973L27.6888 46.998L27.6503 34.7524L17.6164 28.9437Z" fill="#B1FE33"/>
</svg>
