<svg width="64" height="64" viewBox="0 0 64 64" fill="none" xmlns="http://www.w3.org/2000/svg">
<path d="M8.01599 39.397L23.81 48.516L23.823 43.847L8.03101 34.729L8.01599 39.397Z" fill="#B1FE33"/>
<path d="M24.885 38.101L24.872 42.639L34.872 36.827L34.841 32.319L24.885 38.101Z" fill="#B1FE33"/>
<path d="M22.197 32.426C22.9169 32.1114 23.6939 31.9491 24.4795 31.9491C25.2651 31.9491 26.0422 32.1114 26.762 32.426L31.419 29.734L21.408 23.953L16.687 26.688C17.021 27.0177 17.2129 27.4648 17.222 27.934C17.2184 28.1745 17.1674 28.412 17.072 28.6328C16.9766 28.8537 16.8387 29.0535 16.666 29.221L22.197 32.426ZM21.758 27.308C22.2892 27.0311 22.8795 26.8865 23.4785 26.8865C24.0776 26.8865 24.6678 27.0311 25.199 27.308C25.4469 27.4092 25.6593 27.5817 25.8091 27.8037C25.9589 28.0257 26.0394 28.2872 26.0403 28.555C26.0413 28.8228 25.9627 29.0849 25.8145 29.3079C25.6663 29.531 25.4552 29.7051 25.208 29.808C24.6768 30.0849 24.0866 30.2295 23.4875 30.2295C22.8884 30.2295 22.2982 30.0849 21.767 29.808C21.5198 29.7061 21.3083 29.5333 21.1591 29.3114C21.01 29.0895 20.9299 28.8284 20.9289 28.561C20.9279 28.2936 21.0061 28.0319 21.1537 27.8089C21.3012 27.586 21.5115 27.4117 21.758 27.308Z" fill="#B1FE33"/>
<path d="M34.168 31.318L32.468 30.336L27.041 33.473C26.9614 33.5187 26.8712 33.5428 26.7795 33.5428C26.6877 33.5428 26.5976 33.5187 26.518 33.473C25.8854 33.1598 25.1889 32.9968 24.483 32.9968C23.777 32.9968 23.0806 33.1598 22.448 33.473C22.3688 33.5187 22.279 33.5428 22.1875 33.5428C22.096 33.5428 22.0062 33.5187 21.927 33.473L15.478 29.737C15.3996 29.6909 15.3346 29.6252 15.2894 29.5462C15.2443 29.4673 15.2205 29.378 15.2205 29.287C15.2205 29.1961 15.2443 29.1067 15.2894 29.0278C15.3346 28.9489 15.3996 28.8831 15.478 28.837C15.928 28.575 16.186 28.249 16.185 27.937C16.184 27.625 15.935 27.326 15.502 27.077C15.4236 27.0309 15.3586 26.9652 15.3135 26.8862C15.2683 26.8073 15.2446 26.7179 15.2446 26.627C15.2446 26.5361 15.2683 26.4467 15.3135 26.3678C15.3586 26.2889 15.4236 26.2231 15.502 26.177L20.374 23.355L18.54 22.296L8.57697 28.085L8.65399 28.129L8.745 28.182L8.755 28.188L8.82098 28.226L24.371 37.201L34.331 31.411L34.168 31.318Z" fill="#B1FE33"/>
<path d="M8 45.147L23.793 54.266C23.793 54.566 23.806 49.826 23.807 49.719L8.01202 40.601L8 45.147Z" fill="#B1FE33"/>
<path d="M8.64099 28.123L8.66101 28.134L8.646 28.125L8.64099 28.123Z" fill="#B1FE33"/>
<path d="M8.29199 29.134H8.28699L8.04401 28.993L8.03101 33.53L23.826 42.65L23.838 38.107L8.29199 29.134Z" fill="#B1FE33"/>
<path d="M41.851 14.762C41.1316 15.0802 40.3537 15.2446 39.567 15.2446C38.7804 15.2446 38.0024 15.0802 37.283 14.762L32.56 17.5L42.568 23.284L47.362 20.507C47.1915 20.3426 47.0563 20.1451 46.9646 19.9267C46.8729 19.7083 46.8265 19.4736 46.8284 19.2367C46.8302 18.9999 46.8803 18.7659 46.9755 18.549C47.0706 18.332 47.209 18.1368 47.382 17.975L41.851 14.762ZM42.287 19.889C41.7553 20.1633 41.1658 20.3064 40.5675 20.3064C39.9693 20.3064 39.3797 20.1633 38.848 19.889C38.5993 19.7886 38.3861 19.6164 38.2357 19.3943C38.0852 19.1722 38.0043 18.9103 38.0034 18.642C38.0024 18.3738 38.0814 18.1113 38.2302 17.8882C38.3791 17.665 38.591 17.4912 38.839 17.389C39.369 17.1145 39.9572 16.9712 40.554 16.9712C41.1509 16.9712 41.739 17.1145 42.269 17.389C42.5166 17.49 42.7288 17.662 42.8787 17.8834C43.0287 18.1048 43.1097 18.3656 43.1116 18.633C43.1136 18.9004 43.0363 19.1624 42.8895 19.3859C42.7428 19.6094 42.5331 19.7845 42.287 19.889Z" fill="#B1FE33"/>
<path d="M24.854 48.508L34.913 42.666L34.881 38.029L24.868 43.848L24.854 48.508Z" fill="#B1FE33"/>
<path d="M39.683 10L29.655 15.822L31.517 16.898L37.01 13.714C37.0898 13.6673 37.1806 13.6427 37.273 13.6427C37.3654 13.6427 37.4562 13.6673 37.536 13.714C38.1665 14.0313 38.8626 14.1966 39.5685 14.1966C40.2744 14.1966 40.9705 14.0313 41.601 13.714C41.6804 13.6673 41.7708 13.6427 41.863 13.6427C41.9551 13.6427 42.0456 13.6673 42.125 13.714L48.574 17.46C48.6529 17.5057 48.7184 17.5713 48.7639 17.6503C48.8094 17.7293 48.8334 17.8188 48.8334 17.91C48.8334 18.0012 48.8094 18.0907 48.7639 18.1697C48.7184 18.2487 48.6529 18.3143 48.574 18.36C47.653 18.897 47.638 19.59 48.552 20.119C48.6306 20.1649 48.6959 20.2306 48.7412 20.3095C48.7866 20.3885 48.8104 20.478 48.8104 20.569C48.8104 20.66 48.7866 20.7495 48.7412 20.8285C48.6959 20.9074 48.6306 20.9731 48.552 21.019L43.61 23.881L45.443 24.94L55.482 19.108L39.683 10Z" fill="#B1FE33"/>
<path d="M45.957 36.244L55.968 30.436L55.982 25.761L45.96 31.591L45.957 36.244Z" fill="#B1FE33"/>
<path d="M45.964 25.849V30.383L55.989 24.551L56.003 20.018L45.964 25.849Z" fill="#B1FE33"/>
<path d="M45.953 41.996L55.953 36.185L55.967 31.645L45.959 37.451L45.953 41.996Z" fill="#B1FE33"/>
<path d="M24.851 49.716C24.851 49.53 24.841 53.028 24.837 54.265L34.952 48.385L34.921 43.867L24.851 49.716Z" fill="#B1FE33"/>
<path d="M19.561 21.678L35.623 30.952C35.7024 30.9977 35.7683 31.0636 35.8141 31.143C35.86 31.2223 35.8841 31.3124 35.884 31.404V31.41C35.935 39.141 35.96 42.867 35.993 47.803L44.906 42.624L44.917 25.849C44.032 25.349 28.708 16.483 28.609 16.426L19.561 21.678Z" fill="#B1FE33"/>
</svg>
