<svg width="64" height="64" viewBox="0 0 64 64" fill="none" xmlns="http://www.w3.org/2000/svg">
<path d="M45.36 14.537L40.571 17.301C40.491 17.3471 40.4003 17.3713 40.308 17.3713C40.2157 17.3713 40.125 17.3471 40.045 17.301C39.965 17.2549 39.8985 17.1886 39.8522 17.1088C39.8058 17.0289 39.7813 16.9383 39.781 16.846L39.765 11.206L22.993 20.889L23.093 56L45.44 43.1L45.36 14.537ZM25.386 23.053L37.06 16.314C37.1809 16.2442 37.3246 16.2254 37.4595 16.2616C37.5943 16.2978 37.7092 16.3861 37.779 16.507C37.8487 16.6279 37.8676 16.7716 37.8314 16.9065C37.7952 17.0413 37.7069 17.1562 37.586 17.226L25.912 23.966C25.7912 24.0317 25.6494 24.0476 25.5171 24.0102C25.3847 23.9729 25.2722 23.8853 25.2036 23.7661C25.1349 23.6469 25.1156 23.5057 25.1497 23.3724C25.1837 23.2392 25.2685 23.1246 25.386 23.053ZM43.136 40.953L25.912 50.896C25.7904 50.9657 25.646 50.9843 25.5107 50.9477C25.3754 50.911 25.2602 50.8221 25.1905 50.7005C25.1207 50.5789 25.1021 50.4346 25.1388 50.2993C25.1755 50.1639 25.2644 50.0488 25.386 49.979L42.61 40.036C42.7308 39.9703 42.8725 39.9544 43.0049 39.9918C43.1372 40.0291 43.2498 40.1167 43.3184 40.2359C43.3871 40.3551 43.4064 40.4963 43.3723 40.6296C43.3382 40.7628 43.2534 40.8774 43.136 40.949V40.953ZM43.136 35.567L25.912 45.511C25.791 45.5808 25.6474 45.5996 25.5125 45.5634C25.3777 45.5272 25.2627 45.4389 25.193 45.318C25.1232 45.1971 25.1044 45.0534 25.1406 44.9185C25.1768 44.7837 25.265 44.6688 25.386 44.599L42.61 34.655C42.6699 34.6205 42.736 34.5981 42.8045 34.5891C42.873 34.5801 42.9427 34.5847 43.0095 34.6026C43.0762 34.6205 43.1388 34.6514 43.1936 34.6935C43.2484 34.7356 43.2944 34.7881 43.329 34.848C43.3635 34.9079 43.3859 34.974 43.3949 35.0425C43.4039 35.1111 43.3993 35.1807 43.3814 35.2475C43.3635 35.3142 43.3326 35.3768 43.2905 35.4316C43.2484 35.4865 43.1959 35.5325 43.136 35.567ZM43.136 30.182L25.912 40.126C25.7912 40.1917 25.6494 40.2076 25.5171 40.1702C25.3847 40.1329 25.2722 40.0453 25.2036 39.9261C25.1349 39.807 25.1156 39.6657 25.1497 39.5324C25.1837 39.3992 25.2685 39.2846 25.386 39.213L42.61 29.269C42.7308 29.2033 42.8725 29.1874 43.0049 29.2248C43.1372 29.2621 43.2498 29.3497 43.3184 29.4689C43.3871 29.5881 43.4064 29.7293 43.3723 29.8626C43.3382 29.9958 43.2534 30.1104 43.136 30.182ZM43.136 24.796L25.912 34.74C25.8521 34.7745 25.786 34.7969 25.7175 34.8059C25.6489 34.8149 25.5793 34.8103 25.5125 34.7924C25.4457 34.7745 25.3832 34.7436 25.3284 34.7015C25.2735 34.6594 25.2275 34.6069 25.193 34.547C25.1585 34.4871 25.1361 34.421 25.1271 34.3525C25.1181 34.2839 25.1226 34.2143 25.1406 34.1475C25.1585 34.0808 25.1894 34.0182 25.2315 33.9634C25.2736 33.9085 25.3261 33.8625 25.386 33.828L42.61 23.884C42.7309 23.8143 42.8746 23.7954 43.0095 23.8316C43.1443 23.8678 43.2592 23.9561 43.329 24.077C43.3987 24.1979 43.4176 24.3416 43.3814 24.4765C43.3452 24.6113 43.2569 24.7263 43.136 24.796ZM43.136 19.412L25.912 29.355C25.7912 29.4207 25.6494 29.4366 25.5171 29.3992C25.3847 29.3619 25.2722 29.2743 25.2036 29.1551C25.1349 29.036 25.1156 28.8947 25.1497 28.7614C25.1837 28.6282 25.2685 28.5136 25.386 28.442L42.61 18.499C42.7308 18.4333 42.8725 18.4174 43.0049 18.4548C43.1372 18.4921 43.2498 18.5797 43.3184 18.6989C43.3871 18.818 43.4064 18.9593 43.3723 19.0926C43.3382 19.2258 43.2534 19.3404 43.136 19.412Z" fill="#B1FE33"/>
<path d="M35.294 8L18.522 17.684L22.466 19.976L39.239 10.293L35.294 8Z" fill="#B1FE33"/>
<path d="M40.833 15.925L44.847 13.608L40.82 11.22V12.508L40.833 15.925Z" fill="#B1FE33"/>
<path d="M21.94 20.889L18 18.599L18.1 53.705L22.039 55.995L21.94 20.889Z" fill="#B1FE33"/>
</svg>
