<svg width="64" height="64" viewBox="0 0 64 64" fill="none" xmlns="http://www.w3.org/2000/svg">
<path d="M36.0065 46.2811L36.0307 43.1736C35.9775 43.1917 35.9225 43.2036 35.8691 43.2209C33.0924 44.1154 30.0806 44.1247 27.2854 43.2387C27.2074 43.2138 27.1273 43.196 27.0499 43.1697L27.0255 46.2615C27.0165 46.846 27.4495 47.4215 28.2439 47.8852C31.16 49.5575 35.9748 48.3232 36.0065 46.2811Z" fill="#B1FE33"/>
<path d="M37.9553 43.2296C37.6633 43.062 37.3652 42.9114 37.0692 42.7805L37.0655 42.7819L37.038 46.2927C36.9999 48.8931 33.1944 49.9435 30.5057 49.6375C29.4956 49.5229 28.5278 49.2363 27.7277 48.7774C25.0873 47.2366 26.3003 45.4304 26.0209 42.8832C25.7672 43.0005 25.5527 43.1123 25.3614 43.2261C20.3018 46.1619 23.6652 50.6377 30.003 51.3474C30.0839 51.3564 30.1669 51.3532 30.2482 51.361C38.3665 52.1358 43.8865 46.6691 37.9553 43.2296Z" fill="#B1FE33"/>
<path d="M40.038 49.6785C38.0156 51.6958 34.5383 52.4587 31.7045 52.4587C28.6099 52.4587 24.7403 51.5351 22.8324 49.1172L22.7588 51.264C22.7428 55.6226 32.8847 57.4991 37.8349 54.6252C39.4067 53.7109 40.2737 52.5297 40.2777 51.2988L40.3452 49.3639C40.3111 49.4025 40.2635 49.4365 40.228 49.4747C40.1646 49.5426 40.1061 49.612 40.038 49.6785Z" fill="#B1FE33"/>
<path d="M29.0724 22.5912C33.3779 23.0709 38.5644 22.3344 42.0135 19.7722C42.0669 19.7324 42.1174 19.6916 42.1692 19.6512C37.1893 15.7963 27.7459 15.5392 22.1744 18.7759C21.7089 19.0475 21.2994 19.3202 20.9357 19.6016C21.0392 19.6594 23.6733 21.9899 29.0724 22.5912Z" fill="#B1FE33"/>
<path d="M50.1948 12.3913C50.1928 12.1169 50.0457 11.8636 49.8081 11.7262C49.5704 11.5893 49.2784 11.5873 49.0388 11.7237L44.4714 14.321C43.335 9.95425 36.394 8 31.5038 8C26.4423 8 18.4452 10.2994 18.4719 15.3583C18.4787 16.7261 19.1809 17.9479 20.155 18.9233C20.5965 18.5662 21.0794 18.2208 21.6558 17.8847C27.5019 14.4898 37.5878 14.6637 42.9481 18.9692C43.7307 18.1904 44.3189 17.3077 44.5393 16.2211C44.5532 16.1531 44.5673 16.0853 44.5777 16.0171C44.5781 16.0148 44.5779 16.0125 44.5783 16.0102C44.6191 15.9955 44.6617 15.9922 44.7009 15.97L48.6561 13.721L48.6581 14.1409C48.6672 17.0822 46.6871 20.7192 44.6263 23.2172V18.5829C42.0731 22.3211 36.1484 23.7445 31.5999 23.7464C31.5971 23.7464 31.5942 23.7466 31.5914 23.7466C26.9021 23.7466 20.9957 22.2375 18.4719 18.5267V25.0017L14.3867 27.3606C14.147 27.4991 13.999 27.7553 14 28.0322L14.005 29.7728C14.0163 33.7135 16.215 35.6271 18.7477 35.6271C19.0926 35.6271 19.45 35.5803 19.8125 35.5112C20.4406 36.7971 21.2665 37.9913 22.3104 39.0306C24.8535 41.5841 28.1745 42.8707 31.5562 42.8707C33.0905 42.8707 34.915 42.5515 36.5414 41.8772C36.6131 41.8478 36.6856 41.819 36.7556 41.7853C41.3844 39.7687 44.6314 35.1516 44.6314 29.7858V25.2993C44.7874 25.2693 44.9382 25.2067 45.0543 25.0814C47.626 22.3113 50.2159 17.8525 50.2048 14.1339L50.1948 12.3913ZM17.2665 33.7034C16.166 33.07 15.5568 31.6724 15.5517 29.7687L15.5477 28.4758L18.4719 26.7874V29.7858C18.4719 31.264 18.736 32.6961 19.2056 34.0516C18.4781 34.1362 17.8202 34.0217 17.2665 33.7034Z" fill="#B1FE33"/>
</svg>
