<svg width="64" height="64" viewBox="0 0 64 64" fill="none" xmlns="http://www.w3.org/2000/svg">
<path d="M19.8576 27.639L14.5666 24.2031C13.7269 24.9471 13.1724 26.0205 13.0158 27.205L18.3058 30.6365C18.5537 29.4911 19.0926 28.4502 19.8576 27.639Z" fill="#B1FE33"/>
<path d="M20.7955 26.9101L48.1092 9.28216L48.208 9.22473L43.35 6.06713C43.1921 6.00264 43.0222 5.98421 42.8561 6.01359C42.6901 6.04296 42.5335 6.11918 42.4011 6.23501L15.5837 23.5228L20.7955 26.9101Z" fill="#B1FE33"/>
<path d="M18.2079 31.9154L13 28.538L13.0188 40.8613C13.0237 40.8823 13.0356 40.8856 13.0356 40.921L13.0553 53.8771C13.0343 54.0607 13.0549 54.2471 13.1152 54.4195C13.1754 54.5918 13.2734 54.7444 13.4003 54.8634L18.2672 58.0265C18.2672 57.9978 18.2672 57.968 18.2672 57.9381L18.2079 31.9154Z" fill="#B1FE33"/>
<path d="M49.9377 11.11C49.9377 10.0608 49.409 9.78466 48.6321 10.2839L21.0555 28.0764C20.5326 28.4638 20.0973 28.9813 19.7837 29.5884C19.47 30.1955 19.2865 30.8756 19.2477 31.5752L19.307 57.9326C19.307 58.9078 19.7884 59.2922 20.6127 58.7587L48.1893 40.9673C48.7132 40.5805 49.1496 40.0628 49.4638 39.4552C49.7781 38.8476 49.9616 38.1667 50 37.4663L49.9377 11.11ZM47.7712 38.0295C27.4021 51.1723 34.1094 46.8485 22.0459 54.627C21.9672 54.6774 21.878 54.7039 21.7873 54.7038C21.6965 54.7036 21.6074 54.6769 21.5288 54.6263C21.4502 54.5757 21.3849 54.5029 21.3393 54.4152C21.2937 54.3276 21.2694 54.2281 21.269 54.1267L21.2107 31.5156C21.2108 31.4137 21.2348 31.3136 21.2802 31.2253C21.3256 31.1369 21.3909 31.0634 21.4696 31.0119L47.1959 14.4233C47.2745 14.3726 47.3637 14.3459 47.4544 14.3458C47.5452 14.3457 47.6344 14.3722 47.7131 14.4228C47.7918 14.4734 47.8572 14.5461 47.9028 14.6338C47.9484 14.7215 47.9725 14.8211 47.9728 14.9225L48.0301 37.5348C48.0298 37.636 48.0058 37.7354 47.9603 37.823C47.9149 37.9106 47.8497 37.9833 47.7712 38.034V38.0295Z" fill="#B1FE33"/>
<path d="M22.2476 31.8513L22.3019 53.1294L23.6629 52.2514L28.2669 39.6056C28.3008 39.511 28.3564 39.428 28.4282 39.3652C28.5001 39.3023 28.5855 39.2619 28.6758 39.2479C28.7662 39.2338 28.8582 39.2468 28.9427 39.2853C29.0271 39.3239 29.1009 39.3868 29.1565 39.4675L32.181 43.7991L37.8001 28.3646C37.8346 28.2707 37.8905 28.1885 37.9623 28.1263C38.0341 28.064 38.1193 28.024 38.2093 28.0101C38.2996 27.9955 38.3917 28.0084 38.476 28.0472C38.5604 28.0861 38.6338 28.1496 38.6887 28.231L45.5749 38.119L46.9953 37.2023L46.9409 15.9254L22.2476 31.8513ZM30.8635 36.4778C30.6174 36.6952 30.3189 36.8256 30.0061 36.8521C29.6933 36.8787 29.3806 36.8002 29.108 36.6269C28.8354 36.4535 28.6153 36.1931 28.476 35.879C28.3367 35.565 28.2846 35.2116 28.3262 34.8642C28.3574 34.0824 28.5561 33.3203 28.9056 32.6421C29.2551 31.9639 29.7452 31.3893 30.3347 30.9667C30.5826 30.7523 30.8821 30.6251 31.1949 30.6013C31.5077 30.5775 31.8198 30.6582 32.0915 30.833C32.3632 31.0078 32.5823 31.2689 32.7209 31.5832C32.8595 31.8975 32.9114 32.2507 32.8699 32.5979C32.8379 33.3769 32.6389 34.1359 32.2897 34.811C31.9406 35.4862 31.4515 36.0578 30.8635 36.4778Z" fill="#B1FE33"/>
</svg>
