<svg width="128" height="128" fill="none" xmlns="http://www.w3.org/2000/svg"><path d="M77.742 97.52L91.89 83.375 77.742 69.23" stroke="#000" stroke-linecap="round" stroke-linejoin="round"/><path d="M22.878 53.016h82.247a8.192 8.192 0 018.209 8.175v44.333a8.193 8.193 0 01-8.175 8.21H22.878a8.193 8.193 0 01-8.21-8.176V61.225a8.193 8.193 0 018.175-8.21h.035zm90.457-2.139V42.39a8.193 8.193 0 00-8.178-8.208H22.88a8.193 8.193 0 00-8.212 8.173v8.522m98.667-19.113v-8.698a8 8 0 00-8.004-8H22.88a8.193 8.193 0 00-8.212 8.173v8.525" stroke="#000" stroke-linecap="round" stroke-linejoin="round"/></svg>