<svg width="648" height="267" viewBox="0 0 648 267" fill="none" xmlns="http://www.w3.org/2000/svg">
<path d="M136.745 57.2207H94.5547V1H127.705L136.745 9.83115V57.2207Z" stroke="#263238" stroke-linecap="round" stroke-linejoin="round"/>
<path d="M128.848 8.90723V11.2063L136.748 9.84191L128.848 8.90723Z" fill="#263238" stroke="#263238" stroke-linecap="round" stroke-linejoin="round"/>
<path d="M127.707 1V9.8419H136.747L127.707 1Z" stroke="#263238" stroke-linecap="round" stroke-linejoin="round"/>
<path d="M99.9219 13.2153H132.395" stroke="#263238" stroke-linecap="round" stroke-linejoin="round"/>
<path d="M99.9219 21.2515H132.395" stroke="#263238" stroke-linecap="round" stroke-linejoin="round"/>
<path d="M99.9219 29.2769H132.395" stroke="#263238" stroke-linecap="round" stroke-linejoin="round"/>
<path d="M99.9219 37.313H132.395" stroke="#263238" stroke-linecap="round" stroke-linejoin="round"/>
<path d="M99.9219 45.3384H132.395" stroke="#263238" stroke-linecap="round" stroke-linejoin="round"/>
<path d="M17.6016 125.163H32.715" stroke="#263238" stroke-linecap="round" stroke-linejoin="round"/>
<path d="M0.898438 125.163H14.8724" stroke="#263238" stroke-linecap="round" stroke-linejoin="round"/>
<path d="M26.8672 129.933H32.7148" stroke="#263238" stroke-linecap="round" stroke-linejoin="round"/>
<path d="M0.898438 129.933H24.1383" stroke="#263238" stroke-linecap="round" stroke-linejoin="round"/>
<path d="M30.4141 134.703H32.7144" stroke="#263238" stroke-linecap="round" stroke-linejoin="round"/>
<path d="M17.8711 134.703H26.5995" stroke="#263238" stroke-linecap="round" stroke-linejoin="round"/>
<path d="M0.898438 134.703H15.4207" stroke="#263238" stroke-linecap="round" stroke-linejoin="round"/>
<path d="M0.898438 139.473H32.7162" stroke="#263238" stroke-linecap="round" stroke-linejoin="round"/>
<path d="M27.418 144.243H32.7173" stroke="#263238" stroke-linecap="round" stroke-linejoin="round"/>
<path d="M9.15234 144.243H21.9654" stroke="#263238" stroke-linecap="round" stroke-linejoin="round"/>
<path d="M0.898438 144.243H5.33788" stroke="#263238" stroke-linecap="round" stroke-linejoin="round"/>
<path d="M15.4219 149.013H32.7174" stroke="#263238" stroke-linecap="round" stroke-linejoin="round"/>
<path d="M0.898438 149.013H12.4216" stroke="#263238" stroke-linecap="round" stroke-linejoin="round"/>
<path d="M24.1406 153.783H32.7185" stroke="#263238" stroke-linecap="round" stroke-linejoin="round"/>
<path d="M15.6875 153.783H21.6856" stroke="#263238" stroke-linecap="round" stroke-linejoin="round"/>
<path d="M0.898438 153.783H12.4216" stroke="#263238" stroke-linecap="round" stroke-linejoin="round"/>
<path d="M114.487 189.28H79.6914V142.911H107.027L114.487 150.184V189.28Z" stroke="#263238" stroke-linecap="round" stroke-linejoin="round"/>
<path d="M107.961 149.432V151.323L114.486 150.195L107.961 149.432Z" fill="#263238" stroke="#263238" stroke-linecap="round" stroke-linejoin="round"/>
<path d="M107.027 142.911V150.195H114.487L107.027 142.911Z" stroke="#263238" stroke-linecap="round" stroke-linejoin="round"/>
<path d="M84.1094 152.978H110.896" stroke="#263238" stroke-linecap="round" stroke-linejoin="round"/>
<path d="M84.1094 159.606H110.896" stroke="#263238" stroke-linecap="round" stroke-linejoin="round"/>
<path d="M84.1094 166.235H110.896" stroke="#263238" stroke-linecap="round" stroke-linejoin="round"/>
<path d="M84.1094 172.853H110.896" stroke="#263238" stroke-linecap="round" stroke-linejoin="round"/>
<path d="M84.1094 179.481H110.896" stroke="#263238" stroke-linecap="round" stroke-linejoin="round"/>
<path d="M77.9056 62.4204H35.7148V6.19971H68.8655L77.9056 15.0201V62.4204Z" stroke="#263238" stroke-linecap="round" stroke-linejoin="round"/>
<path d="M69.9961 14.1069V16.406L77.9075 15.0309L69.9961 14.1069Z" fill="#263238" stroke="#263238" stroke-linecap="round" stroke-linejoin="round"/>
<path d="M68.8672 6.19971V15.0309H77.9073L68.8672 6.19971Z" stroke="#263238" stroke-linecap="round" stroke-linejoin="round"/>
<path d="M41.0664 18.415H73.5506" stroke="#263238" stroke-linecap="round" stroke-linejoin="round"/>
<path d="M41.0664 26.4404H73.5506" stroke="#263238" stroke-linecap="round" stroke-linejoin="round"/>
<path d="M41.0664 34.4766H73.5506" stroke="#263238" stroke-linecap="round" stroke-linejoin="round"/>
<path d="M41.0664 42.5127H73.5506" stroke="#263238" stroke-linecap="round" stroke-linejoin="round"/>
<path d="M41.0664 50.5381H73.5506" stroke="#263238" stroke-linecap="round" stroke-linejoin="round"/>
<path d="M168.265 88.1406H126.074V31.9092H159.225L168.265 40.7403V88.1406Z" stroke="#263238" stroke-linecap="round" stroke-linejoin="round"/>
<path d="M160.363 39.8159V42.1258L168.264 40.7506L160.363 39.8159Z" fill="#263238" stroke="#263238" stroke-linecap="round" stroke-linejoin="round"/>
<path d="M159.223 31.9092V40.7511H168.263L159.223 31.9092Z" stroke="#263238" stroke-linecap="round" stroke-linejoin="round"/>
<path d="M131.438 44.1353H163.911" stroke="#263238" stroke-linecap="round" stroke-linejoin="round"/>
<path d="M131.438 52.1606H163.911" stroke="#263238" stroke-linecap="round" stroke-linejoin="round"/>
<path d="M131.438 60.1968H163.911" stroke="#263238" stroke-linecap="round" stroke-linejoin="round"/>
<path d="M131.438 68.2222H163.911" stroke="#263238" stroke-linecap="round" stroke-linejoin="round"/>
<path d="M131.438 76.2583H163.911" stroke="#263238" stroke-linecap="round" stroke-linejoin="round"/>
<path d="M224.87 150.453H182.68V94.2212H215.83L224.87 103.052V150.453Z" stroke="#263238" stroke-linecap="round" stroke-linejoin="round"/>
<path d="M216.957 102.128V104.438L224.868 103.063L216.957 102.128Z" fill="#263238" stroke="#263238" stroke-linecap="round" stroke-linejoin="round"/>
<path d="M215.828 94.2212V103.063H224.868L215.828 94.2212Z" stroke="#263238" stroke-linecap="round" stroke-linejoin="round"/>
<path d="M188.031 106.447H220.515" stroke="#263238" stroke-linecap="round" stroke-linejoin="round"/>
<path d="M188.031 114.473H220.515" stroke="#263238" stroke-linecap="round" stroke-linejoin="round"/>
<path d="M188.031 122.509H220.515" stroke="#263238" stroke-linecap="round" stroke-linejoin="round"/>
<path d="M188.031 130.534H220.515" stroke="#263238" stroke-linecap="round" stroke-linejoin="round"/>
<path d="M188.031 138.57H220.515" stroke="#263238" stroke-linecap="round" stroke-linejoin="round"/>
<path d="M107.134 47.917H60.7082C55.5968 47.917 51.4531 52.0584 51.4531 57.1671V112.324C51.4531 117.433 55.5968 121.574 60.7082 121.574H107.134C112.246 121.574 116.389 117.433 116.389 112.324V57.1671C116.389 52.0584 112.246 47.917 107.134 47.917Z" stroke="#263238" stroke-linecap="round" stroke-linejoin="round"/>
<path d="M109.164 47.917H58.6424C56.7295 47.917 54.8949 48.6765 53.5423 50.0284C52.1896 51.3804 51.4297 53.214 51.4297 55.1259V56.6837H116.355V55.1366C116.358 53.2266 115.602 51.3934 114.254 50.0398C112.906 48.6862 111.075 47.9227 109.164 47.917Z" fill="#263238" stroke="#263238" stroke-linecap="round" stroke-linejoin="round"/>
<path d="M60.7188 69.5542H107.102" stroke="#263238" stroke-linecap="round" stroke-linejoin="round"/>
<path d="M60.7188 80.8779H107.102" stroke="#263238" stroke-linecap="round" stroke-linejoin="round"/>
<path d="M60.7188 92.2124H107.102" stroke="#263238" stroke-linecap="round" stroke-linejoin="round"/>
<path d="M60.7188 103.546H107.102" stroke="#263238" stroke-linecap="round" stroke-linejoin="round"/>
<path d="M62.6328 108.231H36.1145C31.003 108.231 26.8594 112.372 26.8594 117.481V150.055C26.8594 155.164 31.003 159.306 36.1145 159.306H62.6328C67.7443 159.306 71.8879 155.164 71.8879 150.055V117.481C71.8879 112.372 67.7443 108.231 62.6328 108.231Z" stroke="#263238" stroke-linecap="round" stroke-linejoin="round"/>
<path d="M66.8788 108.252H31.8578C30.5321 108.252 29.2608 108.779 28.3234 109.716C27.386 110.653 26.8594 111.923 26.8594 113.248V114.323H71.8557V113.248C71.8557 111.927 71.332 110.659 70.3993 109.723C69.4666 108.787 68.2007 108.258 66.8788 108.252Z" fill="#263238" stroke="#263238" stroke-linecap="round" stroke-linejoin="round"/>
<path d="M33.2852 123.229H65.4469" stroke="#263238" stroke-linecap="round" stroke-linejoin="round"/>
<path d="M33.2852 131.082H65.4469" stroke="#263238" stroke-linecap="round" stroke-linejoin="round"/>
<path d="M33.2852 138.946H65.4469" stroke="#263238" stroke-linecap="round" stroke-linejoin="round"/>
<path d="M33.2852 146.8H65.4469" stroke="#263238" stroke-linecap="round" stroke-linejoin="round"/>
<path d="M49.1289 174.679H64.2423" stroke="#263238" stroke-linecap="round" stroke-linejoin="round"/>
<path d="M32.4141 174.679H46.3988" stroke="#263238" stroke-linecap="round" stroke-linejoin="round"/>
<path d="M58.3984 179.449H64.246" stroke="#263238" stroke-linecap="round" stroke-linejoin="round"/>
<path d="M32.4141 179.45H55.6647" stroke="#263238" stroke-linecap="round" stroke-linejoin="round"/>
<path d="M61.9336 184.22H64.2447" stroke="#263238" stroke-linecap="round" stroke-linejoin="round"/>
<path d="M49.3984 184.22H58.1161" stroke="#263238" stroke-linecap="round" stroke-linejoin="round"/>
<path d="M32.4141 184.22H46.947" stroke="#263238" stroke-linecap="round" stroke-linejoin="round"/>
<path d="M32.4141 188.99H64.2425" stroke="#263238" stroke-linecap="round" stroke-linejoin="round"/>
<path d="M58.9453 193.76H64.2447" stroke="#263238" stroke-linecap="round" stroke-linejoin="round"/>
<path d="M40.6797 193.76H53.482" stroke="#263238" stroke-linecap="round" stroke-linejoin="round"/>
<path d="M32.4141 193.76H36.8642" stroke="#263238" stroke-linecap="round" stroke-linejoin="round"/>
<path d="M46.9492 198.53H64.2447" stroke="#263238" stroke-linecap="round" stroke-linejoin="round"/>
<path d="M32.4141 198.53H43.948" stroke="#263238" stroke-linecap="round" stroke-linejoin="round"/>
<path d="M55.6641 203.3H64.2419" stroke="#263238" stroke-linecap="round" stroke-linejoin="round"/>
<path d="M47.2188 203.3H53.2168" stroke="#263238" stroke-linecap="round" stroke-linejoin="round"/>
<path d="M32.4141 203.3H43.948" stroke="#263238" stroke-linecap="round" stroke-linejoin="round"/>
<path d="M155.965 168.266H171.089" stroke="#263238" stroke-linecap="round" stroke-linejoin="round"/>
<path d="M139.262 168.266H153.246" stroke="#263238" stroke-linecap="round" stroke-linejoin="round"/>
<path d="M165.234 173.046H171.093" stroke="#263238" stroke-linecap="round" stroke-linejoin="round"/>
<path d="M139.262 173.046H162.512" stroke="#263238" stroke-linecap="round" stroke-linejoin="round"/>
<path d="M168.781 177.816H171.092" stroke="#263238" stroke-linecap="round" stroke-linejoin="round"/>
<path d="M156.246 177.816H164.964" stroke="#263238" stroke-linecap="round" stroke-linejoin="round"/>
<path d="M139.262 177.816H153.795" stroke="#263238" stroke-linecap="round" stroke-linejoin="round"/>
<path d="M139.262 182.586H171.09" stroke="#263238" stroke-linecap="round" stroke-linejoin="round"/>
<path d="M165.781 187.356H171.091" stroke="#263238" stroke-linecap="round" stroke-linejoin="round"/>
<path d="M147.52 187.356H160.333" stroke="#263238" stroke-linecap="round" stroke-linejoin="round"/>
<path d="M139.262 187.356H143.701" stroke="#263238" stroke-linecap="round" stroke-linejoin="round"/>
<path d="M153.797 192.126H171.092" stroke="#263238" stroke-linecap="round" stroke-linejoin="round"/>
<path d="M139.262 192.126H150.796" stroke="#263238" stroke-linecap="round" stroke-linejoin="round"/>
<path d="M162.512 196.897H171.09" stroke="#263238" stroke-linecap="round" stroke-linejoin="round"/>
<path d="M154.066 196.897H160.064" stroke="#263238" stroke-linecap="round" stroke-linejoin="round"/>
<path d="M139.262 196.897H150.796" stroke="#263238" stroke-linecap="round" stroke-linejoin="round"/>
<path d="M191.332 60.0571H206.445" stroke="#263238" stroke-linecap="round" stroke-linejoin="round"/>
<path d="M174.617 60.0571H188.602" stroke="#263238" stroke-linecap="round" stroke-linejoin="round"/>
<path d="M200.598 64.8271H206.445" stroke="#263238" stroke-linecap="round" stroke-linejoin="round"/>
<path d="M174.617 64.8271H197.868" stroke="#263238" stroke-linecap="round" stroke-linejoin="round"/>
<path d="M204.133 69.5972H206.444" stroke="#263238" stroke-linecap="round" stroke-linejoin="round"/>
<path d="M191.602 69.5972H200.319" stroke="#263238" stroke-linecap="round" stroke-linejoin="round"/>
<path d="M174.617 69.5972H189.15" stroke="#263238" stroke-linecap="round" stroke-linejoin="round"/>
<path d="M174.617 74.3672H206.446" stroke="#263238" stroke-linecap="round" stroke-linejoin="round"/>
<path d="M201.145 79.1372H206.444" stroke="#263238" stroke-linecap="round" stroke-linejoin="round"/>
<path d="M182.883 79.1372H195.685" stroke="#263238" stroke-linecap="round" stroke-linejoin="round"/>
<path d="M174.617 79.1372H179.067" stroke="#263238" stroke-linecap="round" stroke-linejoin="round"/>
<path d="M189.148 83.9077H206.444" stroke="#263238" stroke-linecap="round" stroke-linejoin="round"/>
<path d="M174.617 83.9072H186.151" stroke="#263238" stroke-linecap="round" stroke-linejoin="round"/>
<path d="M197.867 88.6777H206.445" stroke="#263238" stroke-linecap="round" stroke-linejoin="round"/>
<path d="M189.418 88.6777H195.416" stroke="#263238" stroke-linecap="round" stroke-linejoin="round"/>
<path d="M174.617 88.6777H186.151" stroke="#263238" stroke-linecap="round" stroke-linejoin="round"/>
<path d="M25.5156 70.8325H40.629" stroke="#263238" stroke-linecap="round" stroke-linejoin="round"/>
<path d="M8.79688 70.8325H22.7816" stroke="#263238" stroke-linecap="round" stroke-linejoin="round"/>
<path d="M34.7812 75.6025H40.6288" stroke="#263238" stroke-linecap="round" stroke-linejoin="round"/>
<path d="M8.79688 75.6025H32.0475" stroke="#263238" stroke-linecap="round" stroke-linejoin="round"/>
<path d="M38.3281 80.373H40.6285" stroke="#263238" stroke-linecap="round" stroke-linejoin="round"/>
<path d="M25.7852 80.373H34.5135" stroke="#263238" stroke-linecap="round" stroke-linejoin="round"/>
<path d="M8.79688 80.373H23.3298" stroke="#263238" stroke-linecap="round" stroke-linejoin="round"/>
<path d="M8.79688 85.1431H40.6254" stroke="#263238" stroke-linecap="round" stroke-linejoin="round"/>
<path d="M35.3281 89.9131H40.6275" stroke="#263238" stroke-linecap="round" stroke-linejoin="round"/>
<path d="M17.0664 89.9131H29.8795" stroke="#263238" stroke-linecap="round" stroke-linejoin="round"/>
<path d="M8.79688 89.9131H13.2471" stroke="#263238" stroke-linecap="round" stroke-linejoin="round"/>
<path d="M23.332 94.6831H40.6275" stroke="#263238" stroke-linecap="round" stroke-linejoin="round"/>
<path d="M8.79688 94.6831H20.3308" stroke="#263238" stroke-linecap="round" stroke-linejoin="round"/>
<path d="M32.0508 99.4531H40.6287" stroke="#263238" stroke-linecap="round" stroke-linejoin="round"/>
<path d="M23.6016 99.4536H29.5996" stroke="#263238" stroke-linecap="round" stroke-linejoin="round"/>
<path d="M8.79688 99.4531H20.3308" stroke="#263238" stroke-linecap="round" stroke-linejoin="round"/>
<path d="M120.031 108.629V156.029H162.222V99.8081H129.082L120.031 108.629Z" stroke="#263238" stroke-linecap="round" stroke-linejoin="round"/>
<path d="M127.943 107.715V110.014L120.031 108.65L127.943 107.715Z" fill="#263238" stroke="#263238" stroke-linecap="round" stroke-linejoin="round"/>
<path d="M129.071 99.8081V108.65H120.031L129.071 99.8081Z" stroke="#263238" stroke-linecap="round" stroke-linejoin="round"/>
<path d="M156.871 112.023H124.387" stroke="#263238" stroke-linecap="round" stroke-linejoin="round"/>
<path d="M156.871 120.049H124.387" stroke="#263238" stroke-linecap="round" stroke-linejoin="round"/>
<path d="M156.871 128.085H124.387" stroke="#263238" stroke-linecap="round" stroke-linejoin="round"/>
<path d="M156.871 136.121H124.387" stroke="#263238" stroke-linecap="round" stroke-linejoin="round"/>
<path d="M162.222 142.911H120.031V156.039H162.222V142.911Z" fill="#263238" stroke="#263238" stroke-linecap="round" stroke-linejoin="round"/>
<path d="M168.738 112.313H139.543V126.366H168.738V112.313Z" fill="#263238" stroke="#263238" stroke-linecap="round" stroke-linejoin="round"/>
<path opacity="0.2" d="M623.366 183.855L615.927 183.672L615.82 187.905C613.99 188.096 612.187 188.493 610.445 189.087L608.349 185.251L601.782 188.818L603.802 192.525C602.305 193.622 600.932 194.879 599.707 196.274L595.977 193.986L592.107 200.335L595.708 202.484C594.959 204.182 594.4 205.959 594.042 207.78L589.667 207.662L589.484 215.107L593.72 215.215C593.911 217.044 594.308 218.846 594.902 220.587L591.032 222.767L594.59 229.31L598.31 227.29C599.401 228.786 600.656 230.155 602.05 231.373L599.771 235.112L606.124 238.99L608.328 235.391C610.024 236.139 611.798 236.697 613.616 237.056L613.509 241.429L620.958 241.612L621.13 237.357C622.96 237.166 624.763 236.769 626.505 236.175L628.59 240.011L635.136 236.455L633.105 232.737C634.604 231.646 635.978 230.392 637.2 228.999L640.93 231.276L644.821 224.927L641.21 222.724C641.964 221.028 642.523 219.251 642.876 217.428L647.251 217.546L647.444 210.101L643.209 209.993C643.012 208.165 642.616 206.364 642.027 204.622L645.853 202.537L642.295 195.995L638.576 198.025C637.491 196.522 636.235 195.148 634.835 193.932L637.125 190.193L630.804 186.293L628.601 189.903C626.908 189.144 625.133 188.582 623.312 188.227L623.366 183.855ZM617.991 230.557C614.446 230.468 611.007 229.331 608.108 227.29C605.21 225.248 602.982 222.393 601.707 219.086C600.432 215.778 600.167 212.167 600.945 208.71C601.723 205.252 603.51 202.102 606.079 199.659C608.648 197.216 611.884 195.589 615.378 194.985C618.872 194.38 622.468 194.824 625.709 196.262C628.95 197.699 631.693 200.065 633.589 203.06C635.485 206.055 636.45 209.544 636.362 213.088C636.241 217.838 634.238 222.346 630.793 225.621C627.349 228.897 622.744 230.672 617.991 230.557Z" stroke="#172224" stroke-opacity="0.74" stroke-linecap="round" stroke-linejoin="round"/>
<path opacity="0.2" d="M602.331 128.246L594.892 128.063L594.785 132.286C592.955 132.485 591.153 132.885 589.41 133.478L587.26 129.643L580.725 133.199L582.746 136.916C581.249 138.01 579.875 139.263 578.65 140.655L574.91 138.377L571.029 144.727L574.63 146.929C573.881 148.624 573.322 150.397 572.964 152.215L568.589 152.107L568.406 159.553L572.631 159.649C572.827 161.496 573.227 163.316 573.824 165.075L569.986 167.159L573.544 173.691L577.264 171.671C578.355 173.17 579.61 174.543 581.004 175.765L578.725 179.493L585.078 183.382L587.228 179.772C588.922 180.526 590.696 181.084 592.517 181.437L592.409 185.81L599.859 186.003L599.966 181.77C601.797 181.575 603.599 181.175 605.341 180.578L607.426 184.413L613.962 180.857L612.059 177.193C613.558 176.103 614.932 174.849 616.154 173.455L619.884 175.732L623.776 169.383L620.164 167.181C620.92 165.488 621.479 163.715 621.83 161.895L626.205 162.002L626.398 154.568L622.163 154.46C621.97 152.63 621.57 150.828 620.97 149.088L624.807 146.994L621.249 140.461L617.53 142.481C616.439 140.982 615.184 139.61 613.789 138.388L616.068 134.66L609.716 130.782L607.566 134.381C605.871 133.63 604.097 133.071 602.277 132.715L602.331 128.246ZM596.956 174.937C593.411 174.849 589.971 173.712 587.072 171.67C584.174 169.627 581.946 166.772 580.671 163.464C579.396 160.156 579.132 156.544 579.911 153.086C580.69 149.628 582.478 146.479 585.048 144.036C587.618 141.594 590.855 139.968 594.35 139.364C597.845 138.761 601.44 139.207 604.682 140.646C607.923 142.085 610.664 144.452 612.559 147.449C614.454 150.445 615.417 153.936 615.327 157.479C615.206 162.229 613.202 166.736 609.758 170.009C606.313 173.283 601.708 175.056 596.956 174.937Z" stroke="#172224" stroke-opacity="0.74" stroke-linecap="round" stroke-linejoin="round"/>
<path opacity="0.2" d="M240.004 59.0153V51.4948H235.769C235.53 49.6606 235.086 47.8588 234.446 46.1231L238.23 43.9744L234.5 37.5283L230.835 39.677C229.705 38.2093 228.418 36.8692 226.997 35.6804L229.147 31.8987L222.698 28.1707L220.548 31.8342C218.818 31.127 217.015 30.6118 215.173 30.2979V25.8716H207.724V30.1045C205.889 30.3433 204.086 30.7866 202.349 31.426L200.199 27.6443L193.75 31.3722L195.9 35.0358C194.434 36.168 193.093 37.4538 191.901 38.8712L188.117 36.7225L184.398 43.1686L188.053 45.3173C187.345 47.0463 186.83 48.8476 186.516 50.6891H182.141V58.1343H186.376C186.615 59.9685 187.058 61.7703 187.698 63.506L183.914 65.6547L187.644 72.1008L191.31 69.9521C192.443 71.4174 193.729 72.7572 195.147 73.9487L192.997 77.7304L199.447 81.4477L201.597 77.7949C203.327 78.5021 205.129 79.0173 206.971 79.3312V83.7253H214.421V79.4279C216.256 79.1891 218.059 78.7458 219.795 78.1065L221.945 81.8882L228.395 78.1602L226.245 74.4966C227.713 73.3672 229.054 72.0812 230.243 70.6612L234.027 72.8099L237.757 66.3638L234.092 64.2151C234.799 62.4862 235.315 60.6848 235.629 58.8434L240.004 59.0153ZM193.159 54.8145C193.159 51.2703 194.21 47.8056 196.18 44.8587C198.15 41.9117 200.951 39.6148 204.227 38.2585C207.503 36.9022 211.108 36.5473 214.586 37.2387C218.064 37.9302 221.259 39.6369 223.767 42.1431C226.274 44.6493 227.982 47.8423 228.674 51.3185C229.365 54.7947 229.01 58.3978 227.653 61.6723C226.296 64.9468 223.998 67.7455 221.05 69.7146C218.101 71.6837 214.635 72.7347 211.088 72.7347C208.73 72.7347 206.395 72.2698 204.217 71.3665C202.039 70.4632 200.06 69.1394 198.395 67.4708C196.729 65.8022 195.41 63.8217 194.511 61.6425C193.613 59.4634 193.153 57.1285 193.159 54.7716V54.8145Z" stroke="#172224" stroke-opacity="0.74" stroke-linecap="round" stroke-linejoin="round"/>
<path opacity="0.2" d="M295.094 36.5504V29.1052H290.869C290.63 27.2709 290.187 25.4691 289.547 23.7334L293.32 21.5847L289.601 15.1386L285.935 17.2873C284.807 15.8145 283.516 14.4738 282.087 13.2907L284.237 9.4983L277.787 5.78104L275.637 9.43383C273.91 8.72229 272.107 8.21044 270.263 7.90826V3.46045H262.824V7.69339C260.989 7.92917 259.186 8.37248 257.45 9.01483L255.3 5.23313L248.85 8.95038L251 12.6139C249.545 13.7444 248.222 15.0345 247.055 16.4601L243.272 14.3114L239.542 20.7575L243.207 22.9062C242.487 24.6307 241.971 26.4335 241.67 28.2779H237.273V35.7232H241.509C241.75 37.5569 242.194 39.3584 242.831 41.0949L239.047 43.2436L242.766 49.6897L246.443 47.541C247.569 48.9986 248.857 50.3248 250.28 51.4946L248.13 55.2763L254.58 59.0043L256.73 55.3408C258.455 56.0593 260.259 56.5749 262.104 56.8771V61.2497H269.553V57.0168C271.39 56.783 273.193 56.3396 274.928 55.6953L277.078 59.477L283.527 55.7598L281.378 52.0962C282.849 50.9659 284.19 49.676 285.376 48.2501L289.171 50.3988L292.89 43.9527L289.235 41.804C289.947 40.0774 290.459 38.2751 290.762 36.4322L295.094 36.5504ZM248.259 32.3497C248.259 28.8054 249.311 25.3408 251.281 22.3938C253.251 19.4468 256.051 17.15 259.327 15.7936C262.604 14.4373 266.209 14.0824 269.687 14.7739C273.165 15.4653 276.36 17.1721 278.867 19.6782C281.375 22.1844 283.082 25.3775 283.774 28.8537C284.466 32.3298 284.111 35.933 282.754 39.2074C281.397 42.4819 279.099 45.2807 276.15 47.2498C273.202 49.2189 269.735 50.2699 266.189 50.2699C263.834 50.2713 261.502 49.8087 259.326 48.9086C257.15 48.0086 255.173 46.6886 253.508 45.0243C251.842 43.36 250.522 41.3839 249.621 39.2091C248.721 37.0343 248.258 34.7034 248.259 32.3497Z" stroke="#172224" stroke-opacity="0.74" stroke-linecap="round" stroke-linejoin="round"/>
<g opacity="0.2">
<path d="M353.151 246.382C363.659 246.382 372.177 237.868 372.177 227.366C372.177 216.863 363.659 208.35 353.151 208.35C342.643 208.35 334.125 216.863 334.125 227.366C334.125 237.868 342.643 246.382 353.151 246.382Z" stroke="#172224" stroke-opacity="0.74" stroke-linecap="round" stroke-linejoin="round"/>
<path d="M367.431 230.036C368.914 222.152 363.722 214.559 355.834 213.077C347.946 211.594 340.349 216.784 338.866 224.667C337.382 232.551 342.574 240.144 350.462 241.627C358.35 243.109 365.947 237.92 367.431 230.036Z" stroke="#172224" stroke-opacity="0.74" stroke-linecap="round" stroke-linejoin="round"/>
<path d="M381.014 240.408L370.748 234.843L369.039 237.991L379.315 243.545C379.09 243.963 379.039 244.453 379.174 244.908C379.309 245.363 379.619 245.746 380.036 245.973L399.61 256.566C400.028 256.792 400.518 256.843 400.973 256.708C401.429 256.573 401.812 256.263 402.039 255.846L403.748 252.698C403.97 252.279 404.018 251.789 403.881 251.335C403.744 250.88 403.434 250.498 403.017 250.27L383.443 239.677C383.023 239.455 382.533 239.408 382.078 239.544C381.624 239.681 381.241 239.991 381.014 240.408Z" stroke="#172224" stroke-opacity="0.74" stroke-miterlimit="10"/>
</g>
<path opacity="0.2" d="M393.246 37.5279C393.248 41.6379 392.031 45.6561 389.748 49.0744C387.465 52.4928 384.219 55.1576 380.42 56.7319C376.622 58.3062 372.441 58.7191 368.408 57.9186C364.374 57.1181 360.669 55.1401 357.761 52.2347C354.852 49.3292 352.871 45.627 352.068 41.5962C351.265 37.5654 351.676 33.3871 353.249 29.5898C354.823 25.7925 357.487 22.5468 360.906 20.2632C364.325 17.9796 368.345 16.7607 372.457 16.7607" stroke="#172224" stroke-opacity="0.74" stroke-linecap="round" stroke-linejoin="round"/>
<path opacity="0.2" d="M393.246 37.5279H372.457V16.7607C377.969 16.7607 383.255 18.9484 387.153 22.8427C391.052 26.7369 393.243 32.0191 393.246 37.5279Z" stroke="#172224" stroke-opacity="0.74" stroke-linecap="round" stroke-linejoin="round"/>
<path opacity="0.2" d="M391.094 23.2071L401.843 14.6123H416.892" stroke="#172224" stroke-opacity="0.74" stroke-linecap="round" stroke-linejoin="round"/>
<path opacity="0.2" d="M425.492 14.6123H445.55" stroke="#172224" stroke-opacity="0.74" stroke-linecap="round" stroke-linejoin="round"/>
<path opacity="0.2" d="M425.492 21.0581H445.55" stroke="#172224" stroke-opacity="0.74" stroke-linecap="round" stroke-linejoin="round"/>
<path opacity="0.2" d="M425.492 27.5044H445.55" stroke="#172224" stroke-opacity="0.74" stroke-linecap="round" stroke-linejoin="round"/>
<path opacity="0.2" d="M425.492 33.9507H445.55" stroke="#172224" stroke-opacity="0.74" stroke-linecap="round" stroke-linejoin="round"/>
<g opacity="0.2">
<path d="M175.445 206.76L174.671 202.978H161.062L161.836 206.76L162.535 210.133L167.157 232.695H203.49L198.18 206.76H175.445Z" stroke="#172224" stroke-opacity="0.74" stroke-linecap="round" stroke-linejoin="round"/>
<path d="M203.489 232.694L210.186 208.511H198.738" stroke="#172224" stroke-opacity="0.74" stroke-linecap="round" stroke-linejoin="round"/>
</g>
<path d="M487.731 216.611H468.5L458.891 233.263L468.5 249.905H487.731L497.351 233.263L487.731 216.611Z" stroke="#263238" stroke-linecap="round" stroke-linejoin="round"/>
<path d="M487.667 183.145H468.437L458.816 199.787L468.437 216.428H487.667L497.277 199.787L487.667 183.145Z" stroke="#263238" stroke-linecap="round" stroke-linejoin="round"/>
<path d="M545.153 183.145H525.922L516.312 199.787L525.922 216.428H545.153L554.773 199.787L545.153 183.145Z" stroke="#263238" stroke-linecap="round" stroke-linejoin="round"/>
<path d="M516.657 232.995H497.426L487.816 249.647L497.426 266.289H516.657L526.277 249.647L516.657 232.995Z" stroke="#263238" stroke-linecap="round" stroke-linejoin="round"/>
<path d="M516.581 199.969H497.351L487.73 216.611L497.351 233.263H516.581L526.191 216.611L516.581 199.969Z" stroke="#263238" stroke-linecap="round" stroke-linejoin="round"/>
<path d="M515.778 166.45H496.547L486.938 183.091L496.547 199.744H515.778L525.398 183.091L515.778 166.45Z" fill="#263238"/>
<path d="M545.507 216.353H526.277L516.656 232.995L526.277 249.647H545.507L555.117 232.995L545.507 216.353Z" stroke="#263238" stroke-linecap="round" stroke-linejoin="round"/>
<path d="M585.367 16.041H496.794C495.41 16.041 494.289 17.1618 494.289 18.5443V84.0258C494.289 85.4083 495.41 86.5291 496.794 86.5291H585.367C586.751 86.5291 587.872 85.4083 587.872 84.0258V18.5443C587.872 17.1618 586.751 16.041 585.367 16.041Z" stroke="#263238" stroke-linecap="round" stroke-linejoin="round"/>
<path d="M498.633 79.9434H586.497" stroke="#263238" stroke-width="0.5" stroke-miterlimit="10"/>
<path d="M498.633 79.9434V81.2326" stroke="#263238" stroke-width="0.5" stroke-miterlimit="10"/>
<path d="M504.492 79.9434V81.2326" stroke="#263238" stroke-width="0.5" stroke-miterlimit="10"/>
<path d="M510.348 79.9434V81.2326" stroke="#263238" stroke-width="0.5" stroke-miterlimit="10"/>
<path d="M516.207 79.9434V81.2326" stroke="#263238" stroke-width="0.5" stroke-miterlimit="10"/>
<path d="M522.066 79.9434V81.2326" stroke="#263238" stroke-width="0.5" stroke-miterlimit="10"/>
<path d="M527.922 79.9434V81.2326" stroke="#263238" stroke-width="0.5" stroke-miterlimit="10"/>
<path d="M533.781 79.9434V81.2326" stroke="#263238" stroke-width="0.5" stroke-miterlimit="10"/>
<path d="M539.641 79.9434V81.2326" stroke="#263238" stroke-width="0.5" stroke-miterlimit="10"/>
<path d="M545.496 79.9434V81.2326" stroke="#263238" stroke-width="0.5" stroke-miterlimit="10"/>
<path d="M551.344 79.9434V81.2326" stroke="#263238" stroke-width="0.5" stroke-miterlimit="10"/>
<path d="M557.203 79.9434V81.2326" stroke="#263238" stroke-width="0.5" stroke-miterlimit="10"/>
<path d="M563.062 79.9434V81.2326" stroke="#263238" stroke-width="0.5" stroke-miterlimit="10"/>
<path d="M568.922 79.9434V81.2326" stroke="#263238" stroke-width="0.5" stroke-miterlimit="10"/>
<path d="M574.781 79.9434V81.2326" stroke="#263238" stroke-width="0.5" stroke-miterlimit="10"/>
<path d="M580.637 79.9434V81.2326" stroke="#263238" stroke-width="0.5" stroke-miterlimit="10"/>
<path d="M586.496 79.9434V81.2326" stroke="#263238" stroke-width="0.5" stroke-miterlimit="10"/>
<path d="M501.566 78.88H583.562V67.5563L577.768 56.3401C577.727 56.2634 577.701 56.1795 577.693 56.093L572.587 22.8419C572.587 22.6766 572.521 22.5181 572.404 22.4013C572.287 22.2844 572.129 22.2188 571.963 22.2188C571.798 22.2188 571.639 22.2844 571.522 22.4013C571.405 22.5181 571.34 22.6766 571.34 22.8419L566.094 63.4308C566.067 63.6282 565.968 63.8084 565.815 63.9358L560.762 67.8464C560.691 67.903 560.607 67.942 560.518 67.9603C560.429 67.9786 560.336 67.9755 560.248 67.9515C560.16 67.9274 560.079 67.883 560.012 67.8218C559.944 67.7606 559.892 67.6844 559.86 67.5993L554.764 57.0922C554.728 56.9927 554.664 56.9053 554.581 56.8394C554.498 56.7735 554.398 56.7316 554.293 56.7183C554.188 56.705 554.081 56.7208 553.984 56.764C553.887 56.8072 553.804 56.8761 553.743 56.9632L548.476 63.7531L542.618 71.2735L536.759 63.7531L531.6 57.1029C531.531 57.009 531.436 56.9372 531.327 56.8962C531.218 56.8551 531.099 56.8466 530.985 56.8716C530.872 56.8966 530.767 56.9541 530.686 57.0371C530.604 57.1202 530.548 57.2251 530.525 57.3392L525.032 74.3247L519.174 44.0388L513.326 77.3436L507.468 72.8099L502.824 59.6491C502.566 58.9078 501.609 59.1227 501.609 59.9284L501.566 78.88Z" stroke="#263238" stroke-miterlimit="10"/>
<path d="M583.562 78.9015H501.566V69.1571L507.36 59.4879C507.398 59.4203 507.427 59.3481 507.446 59.2731L512.595 30.7599C512.622 30.6144 512.699 30.483 512.813 30.3885C512.927 30.2939 513.071 30.2422 513.219 30.2422C513.367 30.2422 513.51 30.2939 513.624 30.3885C513.738 30.483 513.815 30.6144 513.842 30.7599L519.098 65.6655C519.108 65.7527 519.137 65.8368 519.183 65.9112C519.23 65.9857 519.293 66.0486 519.367 66.0952L524.43 69.4364C524.503 69.4824 524.584 69.5131 524.669 69.5267C524.754 69.5402 524.841 69.5364 524.925 69.5153C525.008 69.4941 525.086 69.4563 525.155 69.4039C525.223 69.3516 525.28 69.2859 525.322 69.2108L530.417 60.1863C530.464 60.0882 530.534 60.0036 530.623 59.9406C530.711 59.8776 530.814 59.8383 530.922 59.8264C531.03 59.8145 531.139 59.8305 531.239 59.8729C531.338 59.9152 531.426 59.9824 531.492 60.0681L536.759 65.9126L542.618 72.3587L548.476 65.9126L553.636 60.1863C553.71 60.106 553.803 60.0458 553.907 60.0116C554.011 59.9773 554.122 59.9701 554.23 59.9905C554.337 60.0109 554.438 60.0583 554.522 60.1283C554.606 60.1982 554.671 60.2884 554.711 60.3904L560.204 75.0016H566.062L571.92 77.6015L577.768 73.7016L582.411 62.3887C582.469 62.2569 582.57 62.1487 582.698 62.082C582.825 62.0152 582.972 61.9938 583.113 62.0213C583.255 62.0488 583.382 62.1236 583.476 62.2333C583.569 62.343 583.622 62.4812 583.626 62.6251L583.562 78.9015Z" fill="#263238"/>
<path d="M545.973 25.4521H564.117" stroke="#263238" stroke-linecap="round" stroke-linejoin="round"/>
<path d="M545.973 29.6958H564.117" stroke="#263238" stroke-linecap="round" stroke-linejoin="round"/>
<path d="M545.973 33.9395H564.117" stroke="#263238" stroke-linecap="round" stroke-linejoin="round"/>
<path d="M545.973 38.1836H564.117" stroke="#263238" stroke-linecap="round" stroke-linejoin="round"/>
<path d="M545.973 42.438H564.117" stroke="#263238" stroke-linecap="round" stroke-linejoin="round"/>
<path d="M545.973 46.6816H564.117" stroke="#263238" stroke-linecap="round" stroke-linejoin="round"/>
<path d="M541.844 25.4521H544.112" stroke="#263238" stroke-linecap="round" stroke-linejoin="round"/>
<path d="M541.844 29.6958H544.112" stroke="#263238" stroke-linecap="round" stroke-linejoin="round"/>
<path d="M541.844 33.9395H544.112" stroke="#263238" stroke-linecap="round" stroke-linejoin="round"/>
<path d="M541.844 38.1836H544.112" stroke="#263238" stroke-linecap="round" stroke-linejoin="round"/>
<path d="M541.844 42.438H544.112" stroke="#263238" stroke-linecap="round" stroke-linejoin="round"/>
<path d="M541.844 46.6816H544.112" stroke="#263238" stroke-linecap="round" stroke-linejoin="round"/>
<path d="M528.383 134.134V127.333" stroke="#263238" stroke-linecap="round" stroke-linejoin="round"/>
<path d="M510.945 169.49H520.996C522.953 169.487 524.83 168.709 526.214 167.325C527.599 165.942 528.378 164.066 528.381 162.109V138.377" stroke="#263238" stroke-linecap="round" stroke-linejoin="round"/>
<path d="M485.438 169.49H489.683" stroke="#263238" stroke-linecap="round" stroke-linejoin="round"/>
<path d="M433.035 149.851V162.109C433.038 164.066 433.817 165.942 435.201 167.325C436.586 168.709 438.462 169.487 440.42 169.49H478.655" stroke="#263238" stroke-linecap="round" stroke-linejoin="round"/>
<path d="M433.016 134.552V145.607" stroke="#263238" stroke-linecap="round" stroke-linejoin="round"/>
<path d="M455.245 96.6172H440.4C438.443 96.62 436.566 97.3986 435.182 98.7821C433.797 100.166 433.018 102.041 433.016 103.998V128.214" stroke="#263238" stroke-linecap="round" stroke-linejoin="round"/>
<path d="M478.204 96.6172H470.551" stroke="#263238" stroke-linecap="round" stroke-linejoin="round"/>
<path d="M528.383 120.532V103.998C528.38 102.041 527.601 100.166 526.217 98.7821C524.833 97.3986 522.956 96.62 520.998 96.6172H481.613" stroke="#263238" stroke-linecap="round" stroke-linejoin="round"/>
<path d="M520.989 99.8403H440.402C438.105 99.8403 436.242 101.702 436.242 103.998V162.11C436.242 164.406 438.105 166.267 440.402 166.267H520.989C523.287 166.267 525.149 164.406 525.149 162.11V103.998C525.149 101.702 523.287 99.8403 520.989 99.8403Z" stroke="#263238" stroke-linecap="round" stroke-linejoin="round"/>
<path d="M516.106 109.08H445.301V157.017H516.106V109.08Z" stroke="#263238" stroke-linecap="round" stroke-linejoin="round"/>
<path d="M516.095 133.199L506.69 135.047L510.989 157.017H504.744L500.681 136.218L466.316 142.932L467.928 151.205L485.589 147.767L489.502 146.993L490.19 150.496L491.469 157.017H487.395L486.266 151.269L468.616 154.707L469.067 157.017H463.51L460.962 143.985L455.609 145.017L457.953 157.017H452.965L450.804 145.962L445.301 147.036V140.644L459.758 137.829L456.996 123.659L445.301 125.947V121.746L447.117 121.392L445.301 112.12V109.08H448.59L450.847 120.661L456.211 119.608L454.137 109.08H459.694L465.101 136.776L472.873 135.261L471.303 127.268L470.314 122.165L472.26 119.264L479.118 109.08H484.912L475.27 123.411L477.409 134.381L516.095 126.817V133.199Z" stroke="#263238" stroke-linecap="round" stroke-linejoin="round"/>
<path d="M499.845 118.469C499.168 117.793 498.365 117.256 497.48 116.89C496.596 116.523 495.648 116.335 494.691 116.335C493.733 116.335 492.785 116.523 491.901 116.89C491.017 117.256 490.213 117.793 489.536 118.469C488.172 119.835 487.406 121.686 487.406 123.615C487.406 125.545 488.172 127.396 489.536 128.762L494.685 133.908L499.845 128.762C501.209 127.396 501.975 125.545 501.975 123.615C501.975 121.686 501.209 119.835 499.845 118.469ZM496.814 125.732C496.394 126.152 495.86 126.438 495.278 126.555C494.696 126.671 494.093 126.612 493.544 126.386C492.996 126.159 492.527 125.775 492.197 125.282C491.867 124.788 491.691 124.209 491.691 123.615C491.691 123.022 491.867 122.442 492.197 121.949C492.527 121.456 492.996 121.072 493.544 120.845C494.093 120.619 494.696 120.56 495.278 120.676C495.86 120.793 496.394 121.079 496.814 121.499C497.092 121.776 497.314 122.106 497.465 122.469C497.616 122.833 497.693 123.222 497.693 123.615C497.693 124.009 497.616 124.398 497.465 124.761C497.314 125.125 497.092 125.454 496.814 125.732Z" fill="#263238"/>
<path d="M417.785 107.64H429.179C431.137 107.637 433.014 106.859 434.398 105.475C435.782 104.092 436.561 102.216 436.564 100.259V79.2559" stroke="#263238" stroke-linecap="round" stroke-linejoin="round"/>
<path d="M404.18 107.64H411.403" stroke="#263238" stroke-linecap="round" stroke-linejoin="round"/>
<path d="M357.785 75.0015V100.259C357.788 102.216 358.567 104.092 359.951 105.475C361.336 106.859 363.212 107.637 365.17 107.64H400.352" stroke="#263238" stroke-linecap="round" stroke-linejoin="round"/>
<path d="M374.832 47.1973H365.158C363.2 47.2001 361.324 47.9786 359.94 49.3622C358.555 50.7457 357.776 52.6214 357.773 54.578V69.0603" stroke="#263238" stroke-linecap="round" stroke-linejoin="round"/>
<path d="M387.59 47.1973H382.914" stroke="#263238" stroke-linecap="round" stroke-linejoin="round"/>
<path d="M436.511 64.3761V54.578C436.509 52.6307 435.737 50.7631 434.364 49.381C432.992 47.999 431.129 47.2142 429.18 47.1973H390.988" stroke="#263238" stroke-linecap="round" stroke-linejoin="round"/>
<path d="M429.126 50.4204H365.168C362.87 50.4204 361.008 52.2819 361.008 54.5781V100.259C361.008 102.556 362.87 104.417 365.168 104.417H429.126C431.423 104.417 433.286 102.556 433.286 100.259V54.5781C433.286 52.2819 431.423 50.4204 429.126 50.4204Z" stroke="#263238" stroke-linecap="round" stroke-linejoin="round"/>
<path d="M426.171 58.8218H368.125V96.0158H426.171V58.8218Z" stroke="#263238" stroke-linecap="round" stroke-linejoin="round"/>
<path d="M426.171 58.8218H368.125V63.839H426.171V58.8218Z" stroke="#263238" stroke-linecap="round" stroke-linejoin="round"/>
<path d="M393.235 67.5669H387.184V71.6494H393.235V67.5669Z" fill="#263238"/>
<path d="M400.169 67.5669H394.117V71.6494H400.169V67.5669Z" fill="#263238"/>
<path d="M407.114 67.5669H401.062V71.6494H407.114V67.5669Z" fill="#263238"/>
<path d="M414.044 67.5669H407.992V71.6494H414.044V67.5669Z" fill="#263238"/>
<path d="M420.989 67.5669H414.938V71.6494H420.989V67.5669Z" fill="#263238"/>
<path d="M379.349 72.4229H373.297V76.5054H379.349V72.4229Z" fill="#263238"/>
<path d="M386.294 72.4229H380.242V76.5054H386.294V72.4229Z" fill="#263238"/>
<path d="M393.235 72.4229H387.184V76.5054H393.235V72.4229Z" fill="#263238"/>
<path d="M400.169 72.4229H394.117V76.5054H400.169V72.4229Z" fill="#263238"/>
<path d="M407.114 72.4229H401.062V76.5054H407.114V72.4229Z" fill="#263238"/>
<path d="M414.044 72.4229H407.992V76.5054H414.044V72.4229Z" fill="#263238"/>
<path d="M420.989 72.4229H414.938V76.5054H420.989V72.4229Z" fill="#263238"/>
<path d="M379.349 77.2681H373.297V81.3506H379.349V77.2681Z" fill="#263238"/>
<path d="M386.294 77.2686H380.242V81.3511H386.294V77.2686Z" fill="#263238"/>
<path d="M393.235 77.2681H387.184V81.3506H393.235V77.2681Z" fill="#263238"/>
<path d="M400.169 77.2681H394.117V81.3506H400.169V77.2681Z" fill="#263238"/>
<path d="M407.114 77.2686H401.062V81.3511H407.114V77.2686Z" stroke="#263238" stroke-linecap="round" stroke-linejoin="round"/>
<path d="M414.044 77.2686H407.992V81.3511H414.044V77.2686Z" fill="#263238"/>
<path d="M420.989 77.2681H414.938V81.3506H420.989V77.2681Z" fill="#263238"/>
<path d="M379.349 82.1245H373.297V86.207H379.349V82.1245Z" fill="#263238"/>
<path d="M386.294 82.1245H380.242V86.207H386.294V82.1245Z" stroke="#263238" stroke-linecap="round" stroke-linejoin="round"/>
<path d="M393.235 82.1245H387.184V86.207H393.235V82.1245Z" fill="#263238"/>
<path d="M400.169 82.1245H394.117V86.207H400.169V82.1245Z" fill="#263238"/>
<path d="M407.114 82.1245H401.062V86.207H407.114V82.1245Z" fill="#263238"/>
<path d="M414.044 82.1245H407.992V86.207H414.044V82.1245Z" fill="#263238"/>
<path d="M420.989 82.1245H414.938V86.207H420.989V82.1245Z" fill="#263238"/>
<path d="M379.349 86.9697H373.297V91.0523H379.349V86.9697Z" fill="#263238"/>
<path d="M386.294 86.9697H380.242V91.0523H386.294V86.9697Z" fill="#263238"/>
<path d="M393.235 86.9697H387.184V91.0523H393.235V86.9697Z" fill="#263238"/>
<path d="M400.169 86.9697H394.117V91.0523H400.169V86.9697Z" fill="#263238"/>
<path d="M317.293 52.5688H246.918C244.62 52.5688 242.758 54.4303 242.758 56.7266V107.2C242.758 109.496 244.62 111.357 246.918 111.357H317.293C319.59 111.357 321.453 109.496 321.453 107.2V56.7266C321.453 54.4303 319.59 52.5688 317.293 52.5688Z" stroke="#263238" stroke-linecap="round" stroke-linejoin="round"/>
<path d="M305.329 92.2231H258.871C256.431 92.2231 254.453 94.2001 254.453 96.6387V97.8313C254.453 100.27 256.431 102.247 258.871 102.247H305.329C307.769 102.247 309.747 100.27 309.747 97.8313V96.6387C309.747 94.2001 307.769 92.2231 305.329 92.2231Z" stroke="#263238" stroke-linecap="round" stroke-linejoin="round"/>
<path d="M290.31 95.124H286.086V99.3462H290.31V95.124Z" fill="#263238"/>
<path d="M277.947 95.1235H276.625V99.3457H277.947V95.1235Z" fill="#263238"/>
<path d="M275.381 95.1235H274.059V99.3457H275.381V95.1235Z" fill="#263238"/>
<path d="M301.556 95.1235V97.1755L297.891 95.1235V99.3457L301.556 97.2937V99.3457H302.889V95.1235H301.556Z" fill="#263238"/>
<path d="M262.642 99.3462V97.2942L266.319 99.3462V95.124L262.642 97.176V95.124H261.32V99.3462H262.642Z" fill="#263238"/>
<path d="M275.8 61.6792H255.742C255 61.6792 254.398 62.2805 254.398 63.0221V83.0695C254.398 83.8112 255 84.4124 255.742 84.4124H275.8C276.542 84.4124 277.144 83.8112 277.144 83.0695V63.0221C277.144 62.2805 276.542 61.6792 275.8 61.6792Z" stroke="#263238" stroke-linecap="round" stroke-linejoin="round"/>
<path d="M260.234 78.9979C260.234 80.4375 262.019 81.5978 264.212 81.5978C266.404 81.5978 268.189 80.4375 268.189 78.9979C268.189 77.5582 266.415 76.3872 264.212 76.3872C262.008 76.3872 260.234 77.5582 260.234 78.9979Z" fill="#263238"/>
<path d="M264.695 65.1279L267.426 78.9978H268.189L266.189 68.8667L265.673 66.2238C265.298 65.914 264.969 65.5522 264.695 65.1494V65.1279Z" fill="#263238"/>
<path d="M264.695 65.1279L265.373 68.4799C265.629 68.6362 265.904 68.7624 266.189 68.8559C267.039 69.1461 267.939 69.2559 268.834 69.1782C269.444 69.1269 270.056 69.2502 270.598 69.5337C271.141 69.8171 271.591 70.2491 271.897 70.779C271.897 70.6178 271.08 67.6634 268.318 67.3626C267.355 67.2486 266.449 66.8481 265.716 66.213C265.325 65.9031 264.981 65.5375 264.695 65.1279Z" fill="#263238"/>
<path d="M284.936 73.0459H282.883V84.4125H284.936V73.0459Z" fill="#263238"/>
<path d="M289.077 73.0459H287.023V84.4125H289.077V73.0459Z" fill="#263238"/>
<path d="M293.225 69.3931H291.172V84.4125H293.225V69.3931Z" fill="#263238"/>
<path d="M297.373 66.9541H295.32V84.4123H297.373V66.9541Z" fill="#263238"/>
<path d="M301.51 69.3931H299.457V84.4125H301.51V69.3931Z" fill="#263238"/>
<path d="M305.662 66.9541H303.609V84.4123H305.662V66.9541Z" fill="#263238"/>
<path d="M309.811 73.0459H307.758V84.4125H309.811V73.0459Z" fill="#263238"/>
<path d="M291.246 114.58H317.345C319.303 114.577 321.18 113.799 322.564 112.415C323.948 111.032 324.727 109.156 324.73 107.199V82.4893" stroke="#263238" stroke-linecap="round" stroke-linejoin="round"/>
<path d="M282.258 114.58H287.783" stroke="#263238" stroke-linecap="round" stroke-linejoin="round"/>
<path d="M239.531 84.187V107.2C239.534 109.156 240.313 111.032 241.697 112.415C243.082 113.799 244.958 114.578 246.916 114.58H271.639" stroke="#263238" stroke-linecap="round" stroke-linejoin="round"/>
<path d="M258.02 49.3457H246.916C244.958 49.3485 243.082 50.1271 241.697 51.5106C240.313 52.8942 239.534 54.7698 239.531 56.7265V75.3127" stroke="#263238" stroke-linecap="round" stroke-linejoin="round"/>
<path d="M266.954 49.3457H261.848" stroke="#263238" stroke-linecap="round" stroke-linejoin="round"/>
<path d="M324.677 63.785V56.7265C324.674 54.7698 323.895 52.8942 322.511 51.5106C321.127 50.1271 319.25 49.3485 317.292 49.3457H273.758" stroke="#263238" stroke-linecap="round" stroke-linejoin="round"/>
<path d="M324.676 80.7921V76.1187" stroke="#263238" stroke-linecap="round" stroke-linejoin="round"/>
<path d="M310.334 103.063H298.51C296.552 103.066 294.675 103.844 293.291 105.228C291.907 106.611 291.128 108.487 291.125 110.444V122.777" stroke="#263238" stroke-miterlimit="10"/>
<path d="M331.165 103.063H323.082" stroke="#263238" stroke-miterlimit="10"/>
<path d="M406.271 122.777V110.444C406.268 108.487 405.489 106.611 404.105 105.228C402.72 103.844 400.844 103.066 398.886 103.063H334.562" stroke="#263238" stroke-miterlimit="10"/>
<path d="M368.164 190.73H398.885C400.843 190.727 402.72 189.949 404.104 188.565C405.488 187.181 406.267 185.306 406.27 183.349V155.094" stroke="#263238" stroke-miterlimit="10"/>
<path d="M341.367 190.708H351.579" stroke="#263238" stroke-miterlimit="10"/>
<path d="M291.137 139.354V183.328C291.14 185.284 291.919 187.16 293.303 188.543C294.687 189.927 296.564 190.706 298.521 190.708H335.843" stroke="#263238" stroke-miterlimit="10"/>
<path d="M406.27 147.423V139.354" stroke="#263238" stroke-miterlimit="10"/>
<path d="M398.885 106.286H298.519C296.222 106.286 294.359 108.148 294.359 110.444V183.328C294.359 185.624 296.222 187.485 298.519 187.485H398.885C401.182 187.485 403.045 185.624 403.045 183.328V110.444C403.045 108.148 401.182 106.286 398.885 106.286Z" stroke="#263238" stroke-linecap="round" stroke-linejoin="round"/>
<path d="M388.763 141.594C390.571 133.9 385.795 126.198 378.096 124.392C370.398 122.586 362.692 127.359 360.885 135.054C359.078 142.748 363.854 150.449 371.552 152.256C379.251 154.062 386.956 149.288 388.763 141.594Z" stroke="#263238" stroke-linecap="round" stroke-linejoin="round"/>
<path d="M381.807 130.566L381.42 130.18C381.221 129.995 380.96 129.893 380.689 129.893C380.418 129.893 380.157 129.995 379.958 130.18L376.873 133.263C376.688 133.462 376.586 133.723 376.586 133.994C376.586 134.265 376.688 134.526 376.873 134.724L377.948 135.799C378.058 135.907 378.145 136.035 378.204 136.177C378.264 136.319 378.295 136.472 378.295 136.626C378.295 136.78 378.264 136.932 378.204 137.074C378.145 137.216 378.058 137.345 377.948 137.453L373.949 141.45C373.73 141.665 373.434 141.786 373.127 141.786C372.819 141.786 372.524 141.665 372.304 141.45L371.229 140.375C371.031 140.191 370.77 140.089 370.498 140.089C370.227 140.089 369.966 140.191 369.767 140.375L366.639 143.459C366.452 143.658 366.348 143.921 366.348 144.195C366.348 144.468 366.452 144.731 366.639 144.93L367.037 145.317C367.497 145.777 368.044 146.142 368.645 146.391C369.246 146.64 369.891 146.768 370.541 146.768C371.192 146.768 371.837 146.64 372.438 146.391C373.039 146.142 373.586 145.777 374.046 145.317L381.785 137.571C382.247 137.113 382.614 136.568 382.864 135.968C383.115 135.367 383.246 134.724 383.248 134.073C383.25 133.423 383.123 132.778 382.876 132.177C382.629 131.575 382.265 131.028 381.807 130.566Z" fill="#263238"/>
<path d="M344.346 120.521H307.982C307.008 120.521 306.219 121.31 306.219 122.283V158.628C306.219 159.601 307.008 160.39 307.982 160.39H344.346C345.32 160.39 346.109 159.601 346.109 158.628V122.283C346.109 121.31 345.32 120.521 344.346 120.521Z" stroke="#263238" stroke-linecap="round" stroke-linejoin="round"/>
<path d="M338.897 128.17C338.897 128.17 340.95 126.355 342.541 132.317C344.131 138.28 343.067 144.941 340.079 151.505C337.091 158.069 343.648 157.618 343.755 160.39H310.508C310.508 160.39 306.122 155.147 310.508 151.505C314.893 147.863 314.56 149.066 313.561 144.748C312.561 140.429 311.013 129.041 321.16 123.884C336.628 116.041 338.897 128.17 338.897 128.17Z" fill="#263238"/>
<path d="M332.486 152.29C332.486 152.29 330.874 156.727 331.766 159.95H318.996C320.508 157.196 320.93 153.975 320.179 150.925C318.996 145.521 332.486 152.29 332.486 152.29Z" stroke="#263238" stroke-width="0.5" stroke-linecap="round" stroke-linejoin="round"/>
<path d="M317.845 138.409C317.845 138.409 316.942 137.012 316.125 137.334C315.308 137.657 315.308 141.406 315.373 142.395C315.437 143.383 317.426 145.618 318.264 144.984" stroke="#263238" stroke-width="0.5" stroke-linecap="round" stroke-linejoin="round"/>
<path d="M337.874 141.31C337.874 141.31 339.153 140.236 339.851 140.74C340.55 141.245 339.454 144.877 339.11 145.801C338.766 146.725 336.218 148.272 335.605 147.455" stroke="#263238" stroke-width="0.5" stroke-linecap="round" stroke-linejoin="round"/>
<path d="M325.511 155.878C322.158 155.395 318.825 149.711 318.428 148.111C317.976 146.327 316.998 137.55 318.911 132.737C321.061 127.365 325.565 125.055 329.951 125.7C334.337 126.344 338.002 129.825 338.496 135.627C338.948 140.783 335.476 148.906 334.53 150.485C333.692 151.892 329.016 156.404 325.511 155.878Z" stroke="#263238" stroke-width="0.5" stroke-linecap="round" stroke-linejoin="round"/>
<path d="M333.1 141.804C333.014 142.427 332.66 142.878 332.316 142.878C331.972 142.878 331.778 142.287 331.864 141.664C331.95 141.041 332.305 140.59 332.649 140.59C332.993 140.59 333.197 141.181 333.1 141.804Z" fill="#263238"/>
<path d="M322.16 140.235C322.074 140.859 322.279 141.396 322.622 141.449C322.966 141.503 323.31 141.041 323.407 140.375C323.504 139.709 323.289 139.204 322.945 139.161C322.601 139.118 322.257 139.569 322.16 140.235Z" fill="#263238"/>
<path d="M326.761 141.503C326.857 143.652 325.019 144.007 325.363 144.726C325.616 145.193 326.04 145.543 326.546 145.704" stroke="#263238" stroke-width="0.5" stroke-linecap="round" stroke-linejoin="round"/>
<path d="M323.008 147.477C325.231 148.473 327.684 148.845 330.102 148.551" stroke="#263238" stroke-width="0.5" stroke-linecap="round" stroke-linejoin="round"/>
<path d="M323.5 147.681C323.5 147.681 323.5 150.904 325.65 151.441C327.8 151.978 329.595 148.594 329.595 148.594" stroke="#263238" stroke-width="0.5" stroke-linecap="round" stroke-linejoin="round"/>
<path d="M320.18 137.367C320.79 136.642 321.588 136.098 322.487 135.795C323.385 135.492 324.349 135.441 325.275 135.648" stroke="#263238" stroke-width="0.5" stroke-linecap="round" stroke-linejoin="round"/>
<path d="M335.519 139.634C335.146 138.76 334.539 138.006 333.765 137.455C332.992 136.903 332.081 136.575 331.133 136.507" stroke="#263238" stroke-width="0.5" stroke-linecap="round" stroke-linejoin="round"/>
<path d="M333.242 130.33C331.504 132.263 329.14 133.522 326.566 133.886C320.837 134.885 317.677 139.827 317.752 141.901C316.627 139.003 316.289 135.86 316.774 132.79C317.913 125.195 325.008 123.014 330.156 123.551C335.305 124.088 337.799 129.245 337.799 129.245C337.799 129.245 341.68 132.253 341.11 136.056C340.573 139.688 339.691 139.795 339.229 140.611C338.584 141.75 339.422 142.223 337.165 144.103C337.165 144.103 338.057 139.021 336.95 135.24C336.708 134.208 336.253 133.239 335.615 132.393C334.976 131.548 334.168 130.845 333.242 130.33Z" fill="#263238"/>
<path d="M334.661 129.041C334.661 129.041 332.64 136.744 321.16 137.958C321.16 137.958 328.9 136.55 332.468 129.492L334.661 129.041Z" fill="#263238"/>
<path d="M346.109 168.716H306.219V172.38H346.109V168.716Z" fill="#263238"/>
<path d="M367.756 166.89H358.426V172.702H367.756V166.89Z" stroke="#263238" stroke-linecap="round" stroke-linejoin="round"/>
<path d="M367.746 168.835L370.745 167.674V171.918L367.746 170.672V168.835Z" stroke="#263238" stroke-linecap="round" stroke-linejoin="round"/>
<path d="M391.202 171.564H387.547L386.128 173.25L384.967 171.564H381.055V166.342H391.202V171.564Z" stroke="#263238" stroke-linecap="round" stroke-linejoin="round"/>
</svg>
