<svg width="156" height="156" viewBox="0 0 156 156" fill="none" xmlns="http://www.w3.org/2000/svg">
<path d="M119.984 27.223C104.066 36.4134 67.0879 57.7621 50.5642 67.3018L50.6092 83.2019L120.028 43.1219L119.984 27.223ZM80.7613 59.7635L56.7775 73.5907C56.1483 73.9541 55.3414 73.7371 54.9795 73.1071C54.6155 72.4782 54.8329 71.6717 55.4631 71.3091L79.4469 57.4819C80.0784 57.1179 80.8822 57.3339 81.2449 57.9654C81.6089 58.5944 81.3915 59.4008 80.7613 59.7635ZM89.2678 57.4309C86.9423 58.7596 84.8795 57.423 84.8795 54.9202C84.8576 52.8241 86.2986 50.3353 88.1543 49.2654C90.3213 47.9832 92.5207 49.1204 92.5207 51.7544C92.5426 53.8722 91.1018 56.361 89.2678 57.4309ZM101.489 50.3718C99.1454 51.7115 97.1018 50.333 97.1018 47.8834C97.0799 45.7658 98.5207 43.2773 100.376 42.2077C102.642 40.9134 104.742 42.1306 104.742 44.7181C104.764 46.8137 103.323 49.3022 101.489 50.3718ZM113.687 43.3129C111.516 44.5993 109.3 43.4229 109.3 40.8248C109.3 38.7079 110.741 36.2198 112.574 35.1504C114.853 33.8744 116.961 35.0717 116.961 37.6603C116.982 39.7554 115.542 42.2434 113.687 43.3129Z" fill="#172224" fill-opacity="0.6"/>
<path d="M106.724 18L37.3042 58.081L49.2464 65.0205L118.667 24.9413L106.724 18Z" fill="#172224" fill-opacity="0.6"/>
<path d="M36 60.3689C36.0171 66.3884 35.9323 36.4904 36.2007 131.12L47.9804 137.983L47.9276 67.3012L36 60.3689Z" fill="#172224" fill-opacity="0.6"/>
<path d="M120.037 46.161L50.6157 86.2414V138L120.184 97.9859L120.037 46.161ZM75.1538 115.516L57.9479 125.45C57.3199 125.813 56.5129 125.598 56.1486 124.968C55.7846 124.337 56.0007 123.532 56.6309 123.168L73.8368 113.234C74.4657 112.869 75.2708 113.085 75.6361 113.717C76 114.347 75.784 115.152 75.1538 115.516ZM75.1538 107.525L57.9479 117.459C57.3199 117.822 56.5129 117.608 56.1486 116.977C55.7846 116.347 56.0007 115.542 56.6309 115.178L73.8368 105.244C74.4657 104.88 75.2708 105.093 75.6361 105.726C76 106.356 75.784 107.161 75.1538 107.525ZM75.1351 98.7852L57.8823 108.636C56.935 109.11 55.9068 108.474 55.9068 107.477L55.9595 92.3319C55.9859 91.884 56.2229 91.4362 56.618 91.1993L73.7918 81.2954C74.1868 81.0583 74.7136 81.0583 75.1088 81.2954C75.5038 81.5324 75.7673 81.9539 75.7673 82.428L75.8198 97.6524C75.8198 98.1267 75.5565 98.5481 75.1351 98.7852ZM104.267 91.0149L96.7865 96.3092L95.97 105.396C95.9173 106.002 95.4695 106.476 94.8901 106.582C94.811 106.582 94.7319 106.608 94.653 106.608C94.1525 106.608 93.6784 106.318 93.4677 105.871L86.5666 91.7259C86.3822 91.3573 86.4086 90.8832 86.6193 90.5144C86.8299 90.1192 87.2251 89.8823 87.6728 89.8559L103.398 88.6178C104.004 88.5915 104.557 88.9339 104.741 89.4871C104.952 90.0403 104.741 90.6724 104.267 91.0149ZM114.232 68.981L79.8893 88.8093C79.2613 89.1721 78.4543 88.9578 78.09 88.327C77.726 87.6968 77.9421 86.8917 78.5723 86.5277L112.915 66.6994C113.54 66.3367 114.349 66.5489 114.714 67.1817C115.078 67.8119 114.862 68.617 114.232 68.981ZM114.232 60.989L79.8893 80.8186C79.2613 81.1814 78.4543 80.967 78.09 80.3363C77.726 79.7061 77.9421 78.901 78.5723 78.537L112.915 58.7074C113.54 58.3434 114.349 58.5569 114.714 59.1897C115.078 59.8199 114.862 60.625 114.232 60.989Z" fill="#172224" fill-opacity="0.6"/>
</svg>
