<svg width="156" height="156" viewBox="0 0 156 156" fill="none" xmlns="http://www.w3.org/2000/svg">
<path d="M107.448 65.4882L83.5188 51.5817L77.0406 55.3266L100.97 69.2364L107.448 65.4882Z" fill="#172224" fill-opacity="0.6"/>
<path d="M97.75 71.087L73.8979 57.2236L67.5369 60.8946L91.392 74.755L97.75 71.087Z" fill="#172224" fill-opacity="0.6"/>
<path d="M99.4504 73.9191L93.0864 77.5901L93.1295 86.0518L99.4937 82.3776L99.4504 73.9191Z" fill="#172224" fill-opacity="0.6"/>
<path d="M81.591 80.4191L88.1832 76.6123L64.251 62.7058L57.6588 66.5126L81.591 80.4191Z" fill="#172224" fill-opacity="0.6"/>
<path d="M102.716 83.2965C102.718 83.5804 102.644 83.8595 102.504 84.106C102.363 84.3524 102.159 84.5575 101.914 84.7002L92.3511 90.225C92.1072 90.3662 91.8304 90.4409 91.5486 90.4414C91.2668 90.4419 90.9899 90.3682 90.7456 90.2279C90.5012 90.0876 90.298 89.8855 90.1564 89.6419C90.0148 89.3983 89.9396 89.1218 89.9386 88.84L89.8862 79.351L83.2106 83.2071C83.2106 83.5156 83.2969 112.263 83.2938 110.554L109.154 95.6235L109.074 68.2733L102.667 71.9752L102.716 83.2965Z" fill="#172224" fill-opacity="0.6"/>
<path d="M82.4701 114.744C82.2254 114.886 81.9476 114.961 81.6648 114.961C81.3821 114.961 81.1044 114.886 80.8597 114.744L53.7131 98.9685C53.4698 98.8273 53.2677 98.6248 53.1269 98.3812C52.9862 98.1377 52.9118 97.8615 52.911 97.5803L52.8524 75.252L25.7304 90.9169L89.1303 127.75L134.524 101.563L112.347 88.662L112.368 96.5405C112.369 96.8242 112.296 97.1033 112.154 97.3492C112.013 97.5952 111.809 97.7994 111.563 97.9412L82.4701 114.744Z" fill="#172224" fill-opacity="0.6"/>
<path d="M56.1444 96.6389L80.0612 110.536C80.0612 110.058 79.9747 81.7667 79.9778 83.2042L56.0641 69.3224V72.472V72.4969L56.1444 96.6389Z" fill="#172224" fill-opacity="0.6"/>
<path d="M137.103 113.47L131.551 116.681C132.463 118.758 132.901 121.012 132.834 123.28L136.619 121.068C137.103 120.666 137.48 120.15 137.717 119.567C137.954 118.985 138.044 118.353 137.98 117.727C137.948 116.267 137.651 114.824 137.103 113.47Z" fill="#172224" fill-opacity="0.6"/>
<path d="M89.9735 140.688C88.6532 141.459 87.7864 140.129 84.4393 138.411C86.813 141.475 88.0854 145.249 88.0515 149.125L91.8675 146.916C92.3619 146.523 92.7465 146.009 92.9842 145.424C93.222 144.838 93.3049 144.202 93.2248 143.575C93.19 142.116 92.8868 140.676 92.3303 139.327L89.9735 140.688Z" fill="#172224" fill-opacity="0.6"/>
<path d="M78.2322 136.992C75.1042 135.181 73.2039 136.48 73.1977 139.852C73.3384 142.135 74.0077 144.355 75.1528 146.336C76.2979 148.317 77.8876 150.004 79.7963 151.266C82.1778 152.642 84.2508 152.379 84.732 149.6V149.566C84.8235 147.088 84.2732 144.628 83.1344 142.425C81.9956 140.222 80.307 138.351 78.2322 136.992Z" fill="#172224" fill-opacity="0.6"/>
<path d="M128.79 118.446C128.771 118.403 128.744 118.351 128.728 118.304L121.325 122.58C122.216 123.722 123.307 124.692 124.545 125.443C127.013 126.865 129.148 126.424 129.537 123.592V123.545C129.696 121.811 129.44 120.063 128.79 118.446Z" fill="#172224" fill-opacity="0.6"/>
<path d="M136.165 110.296L136.144 104.348L89.942 130.998C89.6973 131.142 89.4187 131.217 89.1352 131.217C88.8517 131.217 88.5733 131.142 88.3286 130.998L24.1637 93.7148L24.1821 99.6686C101.137 144.384 11.7964 92.4777 89.183 137.436L136.165 110.296Z" fill="#172224" fill-opacity="0.6"/>
<path d="M32.8306 117.076L36.662 114.852C37.1538 114.45 37.5359 113.93 37.7727 113.34C38.0095 112.751 38.0933 112.111 38.0163 111.48V111.44L29.2677 106.353C31.61 109.435 32.8631 113.206 32.8306 117.076Z" fill="#172224" fill-opacity="0.6"/>
<path d="M62.543 4.12424C62.4279 4.03752 62.286 3.99374 62.142 4.00072C61.7349 4.04083 61.3434 4.1784 61.0006 4.40177L28.7947 22.9727C27.043 24.1339 25.8229 25.942 25.4015 28.001C25.1775 28.7614 25.2548 29.5788 25.6174 30.2838L40.3938 49.5641C41.0417 50.4934 41.3668 51.6095 41.3192 52.7414L41.4119 78.1299L47.0879 74.86L47.0261 47.6206C47.0401 46.4112 47.2918 45.2163 47.7667 44.1038L62.4504 7.76434C63.2525 5.75919 62.9132 4.46357 62.543 4.12424ZM43.818 38.9831C43.7532 39.1675 43.6351 39.3284 43.4787 39.4457L41.9671 40.3095L32.8976 28.4636C32.9193 28.1151 33.0191 27.776 33.19 27.4715C33.361 27.1671 33.5986 26.9051 33.8848 26.7052L53.2885 15.5074L43.818 38.9831Z" fill="#172224" fill-opacity="0.6"/>
<path d="M23.0345 104.894C20.0607 103.179 18.0062 104.243 18 107.772C18.1412 110.056 18.8107 112.275 19.9557 114.256C21.1008 116.237 22.6902 117.924 24.5986 119.186C27.2115 120.698 29.121 120.223 29.5806 117.187C29.6122 114.753 29.0289 112.35 27.8846 110.201C26.7403 108.052 25.072 106.227 23.0345 104.894Z" fill="#172224" fill-opacity="0.6"/>
</svg>
