<svg width="156" height="156" viewBox="0 0 156 156" fill="none" xmlns="http://www.w3.org/2000/svg">
<path d="M52.314 30.1241C52.297 30.134 52.2804 30.1408 52.2634 30.1507C39.3488 37.6066 28.4472 56.0323 28.4896 71.3C28.5061 76.9648 30.1278 83.1123 35.0368 85.9382C39.2607 88.366 44.9736 87.7572 51.1195 84.2097C64.2611 76.6218 74.9162 58.1457 74.8729 43.0222C74.8329 28.4292 64.8592 22.9072 52.314 30.1241ZM50.9577 41.4567C54.1616 39.6047 57.1516 41.3076 57.1623 45.0029C57.1712 48.1478 55.03 51.8507 52.2888 53.434C49.0991 55.2763 46.1078 53.5798 46.097 49.8942C46.0881 46.7403 48.223 43.0349 50.9577 41.4567ZM61.2268 62.8308C61.2268 63.3004 60.9919 63.7178 60.5746 63.9525L44.0876 73.5004C43.2006 73.9436 42.1311 73.4166 42.1311 72.3526V71.3874C42.105 65.6482 46.018 58.8917 51.0006 56.0222C56.4969 52.8113 61.2268 55.6794 61.2268 61.8656V62.8308Z" fill="#172224" fill-opacity="0.6"/>
<path d="M25.8707 71.3052C25.8364 55.3363 37.1181 35.8822 50.9603 27.8898C54.5607 25.8105 58.4654 24.6501 61.1167 24.4213C61.1596 24.4177 61.2046 24.4055 61.2473 24.4022L57.8973 22.4954C53.6543 20.0268 47.9376 20.6306 41.784 24.1882C29.0849 31.4925 17.9686 49.8851 18.0001 65.3362C18.0306 72.3318 20.3438 77.5263 24.5103 79.9592L28.082 81.9909C28.0546 81.9351 28.0366 81.8702 28.0097 81.814C26.5314 78.7173 25.8852 74.6989 25.8707 71.3052Z" fill="#172224" fill-opacity="0.6"/>
<path d="M115.39 78.0689C102.32 85.6147 91.5745 104.065 91.6166 119.218C91.6332 124.922 93.2415 131.023 98.1638 133.855C102.389 136.284 108.099 135.674 114.247 132.127C127.388 124.54 138.043 106.064 138 90.9391C137.961 76.6467 128.28 70.6132 115.39 78.0689ZM114.079 89.3874C117.486 87.4835 120.287 89.3845 120.287 92.9092C120.287 96.0656 118.148 99.7701 115.409 101.361C112.297 103.153 109.227 101.573 109.227 97.8135C109.227 94.657 111.34 90.9527 114.079 89.3874ZM124.357 110.753C124.357 111.222 124.122 111.64 123.705 111.874L107.218 121.396C106.798 121.659 106.228 121.621 105.914 121.396C105.496 121.187 105.261 120.744 105.261 120.274V119.309C105.235 113.57 109.122 106.814 114.131 103.918C119.809 100.688 124.357 103.764 124.357 109.761V110.753Z" fill="#172224" fill-opacity="0.6"/>
<path d="M88.9978 119.223C88.963 103.14 100.412 83.7034 114.087 75.8065C117.834 73.6433 121.411 72.5828 124.245 72.3392C124.288 72.3355 124.332 72.3236 124.374 72.3202L121.024 70.4134C119.306 69.4135 117.347 68.918 115.215 68.918C99.579 68.918 81.084 93.2725 81.1271 113.253C81.1564 120.25 83.4696 125.444 87.6374 127.875L91.209 129.908C91.1823 129.853 91.1646 129.79 91.1383 129.735C89.6999 126.72 89.0122 122.603 88.9978 119.223Z" fill="#172224" fill-opacity="0.6"/>
<path d="M85.7726 30.9086C102.672 34.8532 104.124 47.1179 104.25 57.1665L99.8758 53.4519C99.3281 52.9882 98.5053 53.0532 98.0365 53.6022C97.5703 54.1512 97.6378 54.9753 98.1868 55.4415L104.782 61.041C105.372 61.5415 106.268 61.4202 106.703 60.7825L111.229 54.1614C111.637 53.5665 111.484 52.7551 110.889 52.3488C110.294 51.9425 109.483 52.094 109.076 52.6889L106.839 55.962C106.586 45.6228 104.451 32.5898 86.3662 28.3687C85.6554 28.2044 84.9625 28.6413 84.7994 29.3419C84.6351 30.0437 85.072 30.7456 85.7726 30.9086Z" fill="#172224" fill-opacity="0.6"/>
<path d="M70.2287 125.41C53.5686 121.52 51.9216 109.544 51.7578 99.5781L55.123 103.054C55.6248 103.575 56.4502 103.585 56.9674 103.085C57.4858 102.583 57.4986 101.757 56.998 101.24L51.3106 95.3654C51.038 95.0852 50.652 94.9336 50.2622 94.9731C49.8725 95.0062 49.5171 95.2126 49.2967 95.5361L44.7723 102.157C44.3647 102.752 44.5175 103.563 45.1124 103.97C45.708 104.377 46.5194 104.224 46.9249 103.63L49.1623 100.355C49.415 110.695 51.5502 123.728 69.6351 127.95C70.3552 128.114 71.0416 127.664 71.2018 126.977C71.3661 126.275 70.9305 125.573 70.2287 125.41Z" fill="#172224" fill-opacity="0.6"/>
</svg>
