<svg width="156" height="156" viewBox="0 0 156 156" fill="none" xmlns="http://www.w3.org/2000/svg">
<path d="M85.5845 18L32.3042 48.7622L42.0885 54.4479L95.3689 23.6856L85.5845 18Z" fill="#172224" fill-opacity="0.6"/>
<path d="M43.4062 56.7289C43.4239 62.9498 43.6066 127.446 43.6365 138L80.9826 116.44L80.9337 99.0547C80.9311 98.5827 81.1832 98.1467 81.5922 97.91L96.864 89.0931L96.6865 25.9677C84.1093 33.2291 55.9231 49.5024 43.4062 56.7289ZM76.1466 112.218L51.9489 126.189C51.3159 126.552 50.5097 126.334 50.1508 125.706C49.7856 125.076 50.0017 124.271 50.6319 123.907L74.8296 109.937C75.4572 109.573 76.265 109.788 76.6276 110.419C76.9929 111.049 76.7768 111.854 76.1466 112.218ZM76.1466 96.8862L51.9489 110.856C51.3159 111.22 50.5097 111.002 50.1508 110.374C49.7856 109.744 50.0017 108.939 50.6319 108.575L74.8296 94.6046C75.4572 94.2432 76.265 94.4541 76.6276 95.0869C76.9929 95.7171 76.7768 96.5223 76.1466 96.8862ZM91.1818 72.875L51.9489 95.5255C51.3159 95.8889 50.5097 95.6712 50.1508 95.0432C49.7856 94.413 50.0017 93.6078 50.6319 93.2438L89.8648 70.5934C90.4924 70.2307 91.3001 70.4416 91.6628 71.0757C92.0281 71.7059 91.812 72.511 91.1818 72.875ZM91.1818 57.544L51.4576 80.4775C50.8246 80.8409 50.0184 80.6232 49.6595 79.9952C49.2943 79.3649 49.5103 78.5598 50.1406 78.1958L89.8648 55.2624C90.4924 54.8997 91.3001 55.1119 91.6628 55.7447C92.0281 56.3749 91.812 57.1801 91.1818 57.544ZM91.1818 42.2131L51.4576 65.1465C50.8246 65.5099 50.0184 65.2923 49.6595 64.6642C49.2943 64.034 49.5103 63.2288 50.1406 62.8649L89.8648 39.9314C90.4924 39.5687 91.3001 39.781 91.6628 40.4137C92.0281 41.044 91.812 41.8491 91.1818 42.2131Z" fill="#172224" fill-opacity="0.6"/>
<path d="M83.6063 112.332L94.5642 93.4629L83.5703 99.8097L83.6063 112.332Z" fill="#172224" fill-opacity="0.6"/>
<path d="M40.7717 56.7283L31 51.0503L31.2315 132.31L41.0011 137.987C40.945 118.118 40.8253 75.7188 40.7717 56.7283Z" fill="#172224" fill-opacity="0.6"/>
<path d="M108.692 34.2066C112.632 36.4857 119.284 36.4805 123.22 34.1963C126.728 32.1547 126.645 29.3131 123.171 27.3077C119.154 24.9866 112.636 24.973 108.643 27.2923C105.074 29.3687 105.267 32.2337 108.692 34.2066Z" fill="#172224" fill-opacity="0.6"/>
<path d="M115.657 108.163L117.668 103.663H113.782L115.657 108.163Z" fill="#172224" fill-opacity="0.6"/>
<path d="M110.604 53.3329C109.431 52.9359 108.304 52.4117 107.242 51.7395L107.056 87.8782C107.056 89.5005 108.907 90.7599 110.524 91.4172L110.604 53.3329Z" fill="#172224" fill-opacity="0.6"/>
<path d="M107.346 43.9522C107.326 43.9393 107.302 43.9265 107.282 43.9136L107.258 48.4824C112.145 52.5858 119.441 52.5818 124.71 48.496L124.732 43.812C124.66 43.857 124.586 43.8995 124.511 43.9432C119.698 46.7316 112.159 46.738 107.346 43.9522Z" fill="#172224" fill-opacity="0.6"/>
<path d="M107.375 36.4886C106.881 36.2031 106.431 35.897 106.022 35.5729L106.014 38.1876C106.011 39.6452 107.385 40.932 108.666 41.6705C111.133 43.0953 114.655 43.6265 117.909 43.2681C120.885 42.939 125.791 41.2118 125.797 38.2455L125.808 35.6192C125.424 35.9214 125.003 36.207 124.542 36.4732C119.735 39.2693 112.192 39.2719 107.375 36.4886Z" fill="#172224" fill-opacity="0.6"/>
<path d="M121.219 91.3824C122.706 90.7575 124.527 89.5333 124.527 87.9424L124.696 51.7069C123.607 52.3673 122.473 52.9016 121.299 53.2992L121.219 91.3824Z" fill="#172224" fill-opacity="0.6"/>
<path d="M118.664 53.9813C116.626 54.3251 115.043 54.2844 113.236 53.9961L113.156 92.1441C115.044 92.4704 116.586 92.4901 118.584 92.1367L118.664 53.9813Z" fill="#172224" fill-opacity="0.6"/>
<path d="M109.765 93.9696C109.757 93.9667 109.749 93.9659 109.741 93.963L112.685 101.029H118.844L122.016 93.9296C121.999 93.9365 121.978 93.9384 121.96 93.9453C117.91 95.5463 113.039 95.2395 109.765 93.9696Z" fill="#172224" fill-opacity="0.6"/>
</svg>
