<svg width="156" height="156" viewBox="0 0 156 156" fill="none" xmlns="http://www.w3.org/2000/svg">
<path d="M93.8453 73.2777C91.158 71.7328 91.5304 67.7781 92.8454 64.9408C92.8754 64.8808 92.8953 64.8183 92.9228 64.7583C90.9633 64.9633 89.0746 65.6048 87.3956 66.6357C83.2084 69.3605 79.7227 73.034 77.2213 77.3584C74.7199 81.6827 73.2733 86.536 72.999 91.5242C73.024 100.046 78.6837 103.326 86.1607 99.0062C90.35 96.2839 93.8372 92.6107 96.3385 88.2858C98.8398 83.9609 100.284 79.1065 100.555 74.1177C100.558 73.23 100.487 72.3436 100.342 71.4679C99.5944 72.4235 98.5603 73.1148 97.3912 73.4405C96.2222 73.7661 94.9796 73.7091 93.8453 73.2777Z" fill="#172224" fill-opacity="0.6"/>
<path d="M58.0975 98.6163C58.5366 87.4719 62.145 76.684 68.4994 67.5182C56.5222 80.1078 46.1475 94.13 37.6113 109.266C36.9489 110.433 36.2889 111.613 35.5664 112.96C35.7614 113.093 35.7789 113.115 36.0014 113.26C36.5014 113.578 37.0014 113.89 37.5238 114.198C47.8535 120.193 60.1083 121.94 71.7017 119.07C62.1148 117.42 58.125 108.421 58.0975 98.6163Z" fill="#172224" fill-opacity="0.6"/>
<path d="M100.408 61.9582C99.1751 61.2533 97.1103 63.1531 96.2503 64.3105C96.2503 64.3255 96.2503 64.3431 96.2328 64.3581C95.0003 66.0355 93.4605 70.0203 95.1629 71.0002C95.1829 71.0002 95.2178 71.0002 95.2403 71.0002C96.7052 71.6977 98.8526 69.4253 99.7776 67.9054C99.7776 67.8879 99.8101 67.8804 99.8226 67.8629C100.89 66.093 101.81 62.7682 100.408 61.9582Z" fill="#172224" fill-opacity="0.6"/>
<path d="M87.3482 52.5266C72.6191 61.026 60.6748 81.7022 60.7248 98.6087C60.7698 114.963 71.9391 121.357 86.2232 113.123C100.952 104.623 112.897 83.9321 112.847 67.0107C112.792 50.7967 101.68 44.2496 87.3482 52.5266ZM103.185 74.1102C102.891 79.5562 101.315 84.8558 98.5849 89.5774C95.8551 94.299 92.0487 98.309 87.4756 101.281C78.2262 106.631 70.4042 102.058 70.3767 91.5316C70.6735 86.0863 72.2505 80.7877 74.9795 76.0662C77.7086 71.3447 81.5128 67.3335 86.0832 64.3583C88.6192 62.7654 91.5948 62.0171 94.5827 62.2209C96.4851 59.9411 99.3499 58.3112 101.72 59.6811C104.6 61.3335 104.022 65.7233 102.32 68.8006C102.902 70.5098 103.195 72.3045 103.185 74.1102Z" fill="#172224" fill-opacity="0.6"/>
<path d="M135.165 50.9516L135.128 50.9391C125.007 45.4512 113.213 43.9043 102.02 46.5968C111.519 48.3467 115.436 57.3462 115.464 67.0031C115.014 78.2651 111.339 89.1607 104.875 98.3936C122.244 81.0397 134.873 58.5211 138 52.674C137.335 52.2265 136.388 51.6215 135.165 50.9516Z" fill="#172224" fill-opacity="0.6"/>
<path d="M86.0558 50.2167C96.9569 43.5487 109.951 41.1799 122.504 43.5721L118.354 41.1473C111.354 37.0875 92.5879 29.0705 69.7468 42.2747C49.2655 54.0915 29.1468 81.8072 18 102.621L33.324 111.548C38.6562 101.671 59.3924 65.6307 86.0558 50.2167Z" fill="#172224" fill-opacity="0.6"/>
</svg>
