<svg width="51" height="48" viewBox="0 0 51 48" fill="none" xmlns="http://www.w3.org/2000/svg">
<g clip-path="url(#clip0_6741_1826)">
<path d="M15.8797 23.2687V26.6853C15.8797 27.3039 15.4707 27.9199 14.6528 28.3936C13.0196 29.3357 10.3718 29.3357 8.73857 28.3936C7.92067 27.9199 7.51172 27.3039 7.51172 26.6853V23.2687C7.51172 23.8848 7.92067 24.5034 8.73857 24.9744C10.3718 25.9166 13.0196 25.9166 14.6528 24.9744C15.4707 24.5034 15.8797 23.8848 15.8797 23.2687Z" fill="white"/>
<path d="M15.881 19.8472V23.2689C15.881 23.8849 15.472 24.5035 14.6541 24.9746C13.0209 25.9167 10.3731 25.9167 8.73984 24.9746C7.92194 24.5035 7.50781 23.8849 7.50781 23.2689V19.8472C7.50781 20.4658 7.91676 21.0844 8.73467 21.5554C10.3679 22.5002 13.0157 22.5002 14.6489 21.5554C15.472 21.0844 15.881 20.4658 15.881 19.8472Z" fill="#5F646B"/>
<path d="M15.881 16.4279V19.847C15.881 20.4656 15.472 21.0842 14.6541 21.5553C13.0209 22.5 10.3731 22.5 8.73984 21.5553C7.92194 21.0842 7.50781 20.4656 7.50781 19.847V16.4279C7.50781 17.0465 7.91676 17.6651 8.73467 18.1361C10.3679 19.0809 13.0157 19.0809 14.6489 18.1361C15.472 17.6651 15.881 17.0465 15.881 16.4279Z" fill="#5F646B"/>
<path d="M15.881 13.0114V16.4279C15.881 17.0465 15.472 17.6651 14.6541 18.1362C13.0209 19.0809 10.3731 19.0809 8.73984 18.1362C7.92194 17.6651 7.50781 17.0465 7.50781 16.4279V13.0114C7.50781 13.6274 7.91676 14.246 8.73467 14.717C10.3679 15.6618 13.0157 15.6618 14.6489 14.717C15.472 14.2356 15.881 13.6274 15.881 13.0114Z" fill="#5F646B"/>
<path d="M15.881 9.58972V13.0115C15.881 13.6275 15.472 14.2461 14.6541 14.7171C13.0209 15.6619 10.3731 15.6619 8.73984 14.7171C7.92194 14.2357 7.50781 13.6275 7.50781 13.0115V9.58972C7.50781 10.2109 7.91676 10.8269 8.73467 11.298C10.3679 12.2427 13.0157 12.2427 14.6489 11.298C15.472 10.8269 15.881 10.2109 15.881 9.58972Z" fill="#5F646B"/>
<path d="M15.881 6.1731V9.58965C15.881 10.2108 15.472 10.8269 14.6541 11.2979C13.0209 12.2427 10.3731 12.2427 8.73984 11.2979C7.92194 10.8269 7.50781 10.2108 7.50781 9.58965V6.1731C7.50781 6.78911 7.91676 7.40771 8.73467 7.87878C10.3679 8.82351 13.0157 8.82351 14.6489 7.87878C15.472 7.40771 15.881 6.78911 15.881 6.1731Z" fill="#5F646B"/>
<path d="M15.881 3.88249V6.17831C15.881 6.79433 15.472 7.41293 14.6541 7.884C13.0209 8.82873 10.3731 8.82873 8.73984 7.884C7.92194 7.40776 7.50781 6.78915 7.50781 6.17314V2.80835C7.50781 3.42695 7.91676 4.04297 8.73467 4.51663C10.3679 5.45877 13.0157 5.45877 14.6489 4.51663C15.4668 4.04297 15.8758 3.42695 15.8758 2.80835L15.881 3.88249Z" fill="#5F646B"/>
<path d="M14.6541 1.09491C15.472 1.56598 15.881 2.18458 15.881 2.80319C15.881 3.42179 15.472 4.03781 14.6541 4.51147C13.0209 5.45361 10.3731 5.45361 8.73984 4.51147C7.92194 4.03781 7.50781 3.42179 7.50781 2.80319C7.50781 2.18458 7.91676 1.56598 8.73467 1.09491C10.3731 0.15277 13.0209 0.15277 14.6541 1.09491Z" fill="white"/>
<path d="M15.881 2.80319C15.881 3.42179 15.472 4.03781 14.6541 4.51147C13.0209 5.45361 10.3731 5.45361 8.73984 4.51147C7.92194 4.03781 7.50781 3.42179 7.50781 2.80319C7.50781 2.18458 7.91676 1.56598 8.73467 1.09491C10.3731 0.15277 13.0209 0.15277 14.6541 1.09491C15.472 1.56598 15.881 2.18458 15.881 2.80319Z" stroke="#172224" stroke-width="0.77649" stroke-linecap="round" stroke-linejoin="round"/>
<path d="M7.51172 26.6853V2.8031" stroke="#172224" stroke-width="0.77649" stroke-linecap="round" stroke-linejoin="round"/>
<path d="M15.8797 26.6854C15.8797 27.304 15.4707 27.92 14.6528 28.3937C13.0196 29.3358 10.3718 29.3358 8.73857 28.3937C7.92067 27.92 7.51172 27.304 7.51172 26.6854" stroke="#172224" stroke-width="0.77649" stroke-linecap="round" stroke-linejoin="round"/>
<path d="M15.881 6.1731C15.881 6.78911 15.472 7.40771 14.6541 7.87878C13.0209 8.82351 10.3731 8.82351 8.73984 7.87878C7.92194 7.40771 7.50781 6.78911 7.50781 6.1731" stroke="#172224" stroke-width="0.77649" stroke-linecap="round" stroke-linejoin="round"/>
<path d="M15.881 9.58972C15.881 10.2109 15.472 10.8269 14.6541 11.298C13.0209 12.2427 10.3731 12.2427 8.73984 11.298C7.92194 10.8269 7.50781 10.2109 7.50781 9.58972" stroke="#172224" stroke-width="0.77649" stroke-linecap="round" stroke-linejoin="round"/>
<path d="M15.881 13.0114C15.881 13.6274 15.472 14.246 14.6541 14.717C13.0209 15.6618 10.3731 15.6618 8.73984 14.717C7.92194 14.2356 7.50781 13.6274 7.50781 13.0114" stroke="#172224" stroke-width="0.77649" stroke-linecap="round" stroke-linejoin="round"/>
<path d="M15.881 16.4279C15.881 17.0465 15.472 17.6651 14.6541 18.1361C13.0209 19.0809 10.3731 19.0809 8.73984 18.1361C7.92194 17.6651 7.50781 17.0465 7.50781 16.4279" stroke="#172224" stroke-width="0.77649" stroke-linecap="round" stroke-linejoin="round"/>
<path d="M15.881 19.8472C15.881 20.4658 15.472 21.0844 14.6541 21.5554C13.0209 22.5002 10.3731 22.5002 8.73984 21.5554C7.92194 21.0844 7.50781 20.4658 7.50781 19.8472" stroke="#172224" stroke-width="0.77649" stroke-linecap="round" stroke-linejoin="round"/>
<path d="M15.881 23.2688C15.881 23.8848 15.472 24.5034 14.6541 24.9745C13.0209 25.9166 10.3731 25.9166 8.73984 24.9745C7.92194 24.5034 7.50781 23.8848 7.50781 23.2688" stroke="#172224" stroke-width="0.77649" stroke-linecap="round" stroke-linejoin="round"/>
<path d="M15.8828 2.8031V26.6853" stroke="#172224" stroke-width="0.77649" stroke-linecap="round" stroke-linejoin="round"/>
<path d="M0.390625 34.0517V37.4501L17.9936 47.6144V44.2134L0.390625 34.0517Z" fill="white"/>
<path d="M0.390625 30.7542V34.0516L17.9936 44.2133V40.9184L0.390625 30.7542Z" fill="white"/>
<path d="M0.390625 27.3324V30.7541L17.9936 40.9184V37.4966L0.390625 27.3324Z" fill="white"/>
<path d="M0.390625 27.3324L17.9911 37.4967L50.5777 18.6875L32.9773 8.52069L0.390625 27.3324ZM21.2834 25.4326C18.9539 24.0971 18.9539 21.9229 21.2834 20.5848C23.6128 19.2466 27.3633 19.2466 29.6824 20.5848C32.0015 21.9229 32.0119 24.0971 29.6824 25.4326C27.3529 26.7682 23.6025 26.776 21.2834 25.4326Z" fill="white"/>
<path d="M17.9922 44.2133V47.6144L50.5763 28.8052V25.4042L17.9922 44.2133Z" fill="#C2C7CC"/>
<path d="M17.9922 40.9184V44.2133L50.5763 25.4042V22.1093L17.9922 40.9184Z" fill="#C2C7CC"/>
<path d="M17.9922 37.4967V40.9184L50.5763 22.1092V18.6875L17.9922 37.4967Z" fill="#C2C7CC"/>
<path d="M21.2823 20.5847C18.9528 21.9229 18.9528 24.0971 21.2823 25.4326C23.6117 26.7682 27.3622 26.7759 29.6813 25.4326C32.0004 24.0893 32.0108 21.9229 29.6813 20.5847C27.3518 19.2466 23.6014 19.2466 21.2823 20.5847Z" fill="#D2FC1B"/>
<path d="M36.6948 13.9458L32.9702 11.7923L29.1758 13.9846" stroke="#172224" stroke-width="0.77649" stroke-linecap="round" stroke-linejoin="round"/>
<path d="M41.1871 16.5341L44.9116 18.6875L41.1172 20.8798" stroke="#172224" stroke-width="0.77649" stroke-linecap="round" stroke-linejoin="round"/>
<path d="M9.83102 25.1531L6.05469 27.3325L9.77925 29.4834" stroke="#172224" stroke-width="0.77649" stroke-linecap="round" stroke-linejoin="round"/>
<path d="M21.773 32.0457L17.9941 34.225L14.2695 32.0767" stroke="#172224" stroke-width="0.77649" stroke-linecap="round" stroke-linejoin="round"/>
<path d="M21.2823 25.4326C18.9528 24.0971 18.9528 21.9229 21.2823 20.5847C23.6117 19.2466 27.3622 19.2466 29.6813 20.5847C32.0004 21.9229 32.0108 24.0971 29.6813 25.4326C27.3518 26.7682 23.6014 26.7759 21.2823 25.4326Z" stroke="#172224" stroke-width="0.77649" stroke-linecap="round" stroke-linejoin="round"/>
<path d="M17.9936 37.4967L50.5777 18.6875L32.9721 8.52069L0.390625 27.3324L17.9936 37.4967Z" stroke="#172224" stroke-width="0.77649" stroke-linecap="round" stroke-linejoin="round"/>
<path d="M50.5777 18.6875V28.8052L17.9936 47.6143L0.390625 37.4501V27.3324" stroke="#172224" stroke-width="0.77649" stroke-linecap="round" stroke-linejoin="round"/>
<path d="M50.5777 25.4042L17.9936 44.2133L0.390625 34.0517" stroke="#172224" stroke-width="0.77649" stroke-linecap="round" stroke-linejoin="round"/>
<path d="M50.5777 22.1093L17.9936 40.9184L0.390625 30.7542" stroke="#172224" stroke-width="0.77649" stroke-linecap="round" stroke-linejoin="round"/>
<path d="M17.9922 37.4967V47.6118" stroke="#172224" stroke-width="0.77649" stroke-linecap="round" stroke-linejoin="round"/>
<path d="M47.325 31.8361V35.2526C47.325 35.8738 46.916 36.4924 46.0981 36.9609C44.4649 37.9056 41.8171 37.9056 40.1839 36.9609C39.366 36.4924 38.957 35.8738 38.957 35.2526V31.8361C38.957 32.4547 39.366 33.0733 40.1839 33.5443C41.8171 34.4865 44.4649 34.4865 46.0981 33.5443C46.916 33.0629 47.325 32.4443 47.325 31.8361Z" fill="white"/>
<path d="M47.325 28.4066V31.8361C47.325 32.4547 46.916 33.0733 46.0981 33.5444C44.4649 34.4865 41.8171 34.4865 40.1839 33.5444C39.366 33.0733 38.957 32.4547 38.957 31.8361V28.4066C38.957 29.0278 39.366 29.6438 40.1839 30.1149C41.8171 31.0596 44.4649 31.0596 46.0981 30.1149C46.916 29.6438 47.325 29.0278 47.325 28.4066Z" fill="white"/>
<path d="M47.325 24.9875V28.4066C47.325 29.0278 46.916 29.6438 46.0981 30.1149C44.4649 31.0596 41.8171 31.0596 40.1839 30.1149C39.366 29.6438 38.957 29.0278 38.957 28.4066V24.9875C38.957 25.6061 39.366 26.2247 40.1839 26.6958C41.8171 27.6379 44.4649 27.6379 46.0981 26.6958C46.916 26.2247 47.325 25.6061 47.325 24.9875Z" fill="white"/>
<path d="M47.325 22.6916V24.9875C47.325 25.6061 46.916 26.2247 46.0981 26.6957C44.4649 27.6379 41.8171 27.6379 40.1839 26.6957C39.366 26.2247 38.957 25.6061 38.957 24.9875V21.6227C38.957 22.2413 39.366 22.8573 40.1839 23.3284C41.8171 24.2731 44.4649 24.2731 46.0981 23.3284C46.916 22.8573 47.325 22.2413 47.325 21.6227V22.6916Z" fill="white"/>
<path d="M46.0981 19.9118C46.916 20.3829 47.325 21.0015 47.325 21.6201C47.325 22.2387 46.916 22.8547 46.0981 23.3258C44.4649 24.2705 41.8171 24.2705 40.1839 23.3258C39.366 22.8547 38.957 22.2387 38.957 21.6201C38.957 21.0015 39.366 20.3829 40.1839 19.9118C41.8171 18.9697 44.4649 18.9697 46.0981 19.9118Z" fill="white"/>
<path d="M47.325 21.6201C47.325 22.2387 46.916 22.8547 46.0981 23.3258C44.4649 24.2705 41.8171 24.2705 40.1839 23.3258C39.366 22.8547 38.957 22.2387 38.957 21.6201C38.957 21.0015 39.366 20.3829 40.1839 19.9118C41.8171 18.9697 44.4649 18.9697 46.0981 19.9118C46.916 20.3829 47.325 21.0015 47.325 21.6201Z" stroke="#172224" stroke-width="0.77649" stroke-linecap="round" stroke-linejoin="round"/>
<path d="M47.325 24.9875C47.325 25.6061 46.916 26.2247 46.0981 26.6958C44.4649 27.6379 41.8171 27.6379 40.1839 26.6958C39.366 26.2247 38.957 25.6061 38.957 24.9875" stroke="#172224" stroke-width="0.77649" stroke-linecap="round" stroke-linejoin="round"/>
<path d="M47.325 28.4066C47.325 29.0278 46.916 29.6438 46.0981 30.1149C44.4649 31.0596 41.8171 31.0596 40.1839 30.1149C39.366 29.6438 38.957 29.0278 38.957 28.4066" stroke="#172224" stroke-width="0.77649" stroke-linecap="round" stroke-linejoin="round"/>
<path d="M47.325 31.8361C47.325 32.4547 46.916 33.0733 46.0981 33.5443C44.4649 34.4865 41.8171 34.4865 40.1839 33.5443C39.366 33.0733 38.957 32.4547 38.957 31.8361" stroke="#172224" stroke-width="0.77649" stroke-linecap="round" stroke-linejoin="round"/>
<path d="M47.325 21.6201V35.2423C47.325 35.8635 46.916 36.4821 46.0981 36.9505C44.4649 37.8953 41.8171 37.8953 40.1839 36.9505C39.366 36.4821 38.957 35.8635 38.957 35.2423V21.6201" stroke="#172224" stroke-width="0.77649" stroke-linecap="round" stroke-linejoin="round"/>
</g>
<defs>
<clipPath id="clip0_6741_1826">
<rect width="50.9636" height="48" fill="white"/>
</clipPath>
</defs>
</svg>
