<svg width="47" height="48" viewBox="0 0 47 48" fill="none" xmlns="http://www.w3.org/2000/svg">
<g clip-path="url(#clip0_6741_1881)">
<path d="M45.6933 15.3853V30.9992L16.7773 47.6937V31.4138C16.7773 31.4138 21.4176 28.9038 28.5435 24.962C26.928 27.1657 25.868 29.9209 25.868 32.3493C25.868 36.2502 28.6068 37.831 31.9849 35.8805C35.363 33.9301 38.1018 29.1856 38.1018 25.2847C38.1018 22.9543 37.1235 21.4511 35.6163 21.0365C39.1618 19.0575 42.1764 17.3786 45.6933 15.3853Z" fill="#5F646B"/>
<path d="M45.6933 9.43372V15.3852C42.1764 17.3786 39.1618 19.0574 35.6163 21.0344C34.6012 20.7546 33.3451 20.9691 31.9849 21.7533C30.7084 22.4886 29.5238 23.6242 28.5435 24.9619C21.4176 28.9037 16.7773 31.4138 16.7773 31.4138V26.1281L45.6933 9.43372Z" fill="#444444"/>
<path d="M45.693 9.43379L16.7769 26.1282L0.964844 17.0008L29.8829 0.306396L45.693 9.43379ZM31.1553 9.87903C31.7619 9.65437 32.0723 8.98038 31.8456 8.3738L30.6345 5.11007C30.4037 4.48715 29.9544 4.02761 29.3682 3.81725C28.7187 3.58237 27.9651 3.68041 27.2462 4.09501L18.464 9.16624C17.4285 9.76261 16.5462 10.9778 16.2112 12.2625L15.0001 16.9232C14.8387 17.5502 15.2125 18.1936 15.8395 18.3529C15.9396 18.3774 16.0376 18.3896 16.1356 18.3896C16.6564 18.3896 17.1323 18.0404 17.2692 17.5134L18.4803 12.8507C18.6539 12.1767 19.14 11.4803 19.6363 11.1943L28.4185 6.12309C28.4471 6.10675 28.4737 6.0945 28.4961 6.08225L29.6501 9.1887C29.8747 9.79529 30.5487 10.1057 31.1553 9.87903Z" fill="#F8F8F8"/>
<path d="M38.101 25.2847C38.101 29.1856 35.3622 33.93 31.9841 35.8805C28.606 37.831 25.8672 36.2502 25.8672 32.3492C25.8672 29.9209 26.9272 27.1657 28.5427 24.962C29.523 23.6242 30.7076 22.4886 31.9841 21.7534C33.3443 20.9691 34.6004 20.7547 35.6155 21.0365C37.1227 21.4511 38.101 22.9543 38.101 25.2847ZM35.1825 28.193V25.7462L33.0441 26.9798V24.5106L30.9241 25.734V28.2053L28.7837 29.4409V31.8877L30.9241 30.652V33.1233L33.0441 31.8999V29.4286L35.1825 28.193Z" fill="#F8F8F8"/>
<path d="M35.1839 25.7463V28.193L33.0456 29.4287V31.8999L30.9256 33.1233V30.6521L28.7852 31.8877V29.4409L30.9256 28.2053V25.734L33.0456 24.5106V26.9799L35.1839 25.7463Z" fill="#D2FC1B"/>
<path d="M31.844 8.37369C32.0707 8.98028 31.7603 9.65427 31.1537 9.87893C30.5471 10.1056 29.8731 9.79519 29.6484 9.1886L28.4945 6.08215C28.472 6.0944 28.4455 6.10665 28.4169 6.12299L19.6347 11.1942C19.1384 11.4802 18.6523 12.1766 18.4787 12.8506L17.2675 17.5133C17.1307 18.0403 16.6548 18.3895 16.134 18.3895C16.036 18.3895 15.9379 18.3773 15.8379 18.3528C15.2109 18.1935 14.8371 17.5501 14.9985 16.9231L16.2096 12.2624C16.5445 10.9777 17.4268 9.76251 18.4623 9.16614L27.2446 4.09491C27.9635 3.68031 28.7171 3.58227 29.3666 3.81715C29.9528 4.02751 30.4021 4.48705 30.6329 5.10997L31.844 8.37369Z" fill="#172224"/>
<path d="M16.7769 31.4139V47.6937L0.964844 38.5642V22.2844L16.7769 31.4139Z" fill="#F8F8F8"/>
<path d="M16.7769 26.1281V31.4138L0.964844 22.2844V17.0007L16.7769 26.1281Z" fill="#F8F8F8"/>
<path d="M0.964844 17.0008L29.8829 0.306396L45.693 9.43379L16.7769 26.1282L0.964844 17.0008Z" stroke="#172224" stroke-width="0.612714" stroke-linecap="round" stroke-linejoin="round"/>
<path d="M16.7773 26.1282V47.6937" stroke="#172224" stroke-width="0.612714" stroke-linecap="round" stroke-linejoin="round"/>
<path d="M0.964844 17.0007V38.5642L16.7769 47.6936L45.693 30.9992V9.43372" stroke="#172224" stroke-width="0.612714" stroke-linecap="round" stroke-linejoin="round"/>
<path d="M45.6943 15.3853C42.1773 17.3786 39.1628 19.0575 35.6172 21.0345" stroke="#172224" stroke-width="0.612714" stroke-linecap="round" stroke-linejoin="round"/>
<path d="M28.5431 24.962C21.4172 28.9038 16.7769 31.4139 16.7769 31.4139L0.964844 22.2844" stroke="#172224" stroke-width="0.612714" stroke-linecap="round" stroke-linejoin="round"/>
<path d="M16.134 18.3895C16.036 18.3895 15.9379 18.3773 15.8379 18.3528C15.2109 18.1935 14.8371 17.5501 14.9985 16.9231L16.2096 12.2624C16.5445 10.9777 17.4268 9.76251 18.4623 9.16614L27.2446 4.09491C27.9635 3.68031 28.7171 3.58227 29.3666 3.81715C29.9528 4.02751 30.4021 4.48705 30.6329 5.10997L31.844 8.37369C32.0707 8.98028 31.7603 9.65427 31.1537 9.87893C30.5471 10.1056 29.8731 9.79519 29.6484 9.1886L28.4945 6.08215C28.472 6.0944 28.4455 6.10665 28.4169 6.12299L19.6347 11.1942C19.1384 11.4802 18.6523 12.1766 18.4787 12.8506L17.2675 17.5133C17.1307 18.0403 16.6548 18.3895 16.134 18.3895Z" stroke="#172224" stroke-width="0.612714" stroke-linecap="round" stroke-linejoin="round"/>
<path d="M35.1839 25.7463L33.0456 26.9799V24.5106L30.9256 25.734V28.2053L28.7852 29.4409V31.8877L30.9256 30.6521V33.1233L33.0456 31.8999V29.4287L35.1839 28.193V25.7463Z" stroke="#172224" stroke-width="0.612714" stroke-linecap="round" stroke-linejoin="round"/>
<path d="M28.5427 24.9619C26.9272 27.1657 25.8672 29.9208 25.8672 32.3492C25.8672 36.2502 28.606 37.831 31.9841 35.8805C35.3622 33.93 38.101 29.1856 38.101 25.2846C38.101 22.9543 37.1227 21.4531 35.6155 21.0365C34.6004 20.7567 33.3443 20.9691 31.9841 21.7533C30.7076 22.4886 29.523 23.6242 28.5427 24.9619Z" stroke="#172224" stroke-width="0.612714" stroke-linecap="round" stroke-linejoin="round"/>
</g>
<defs>
<clipPath id="clip0_6741_1881">
<rect width="46" height="48" fill="white" transform="translate(0.5)"/>
</clipPath>
</defs>
</svg>
