<svg width="75" height="48" viewBox="0 0 75 48" fill="none" xmlns="http://www.w3.org/2000/svg">
<g clip-path="url(#clip0_6741_1908)">
<path d="M2.733 30.9582C5.30042 34.0235 8.84916 36.451 12.9902 37.9744C15.4764 38.9115 18.1473 39.477 20.8767 39.6443C21.6773 39.6847 22.4708 39.5002 23.126 39.1213C23.7812 38.7424 24.2588 38.1919 24.48 37.5606C24.48 37.5189 24.5054 37.4773 24.52 37.4386C24.5678 37.2757 24.5694 37.1061 24.5247 36.9427C24.4799 36.7793 24.39 36.6265 24.2619 36.496C24.1337 36.3655 23.9707 36.2607 23.7854 36.1899C23.6 36.119 23.3973 36.0838 23.1928 36.0871C22.7283 36.0986 22.2633 36.0876 21.8002 36.0544C20.1277 35.9323 18.0042 35.3519 15.7972 34.4946C11.5176 32.8395 6.95441 30.1455 4.7728 27.7344C4.1683 27.1115 3.75329 26.38 3.56201 25.6001C6.3926 22.758 9.95294 20.4611 13.9901 18.8726C17.9243 22.3256 22.2875 25.0672 27.6797 26.4752C28.7896 26.7665 29.9833 26.7651 31.0923 26.4714C32.2013 26.1777 33.1696 25.6063 33.8609 24.838C35.1044 23.4538 37.4351 20.9027 39.224 18.9411C39.5461 18.5852 39.7758 18.1791 39.8989 17.7478C40.022 17.3165 40.036 16.8692 39.9399 16.4333C39.8439 15.9974 39.6398 15.5822 39.3404 15.2134C39.0409 14.8445 38.6523 14.5297 38.1986 14.2884C34.7953 12.4547 29.4213 9.91261 24.6691 9.2101C30.2258 5.4369 36.6789 2.64938 43.6199 1.02405C47.2796 0.149227 51.1877 0.273571 54.7534 1.37828L63.6325 4.4354C66.6176 5.3587 69.1202 7.09941 70.7155 9.36191L70.9627 9.71019C72.5883 12.0156 73.5555 14.5924 73.7916 17.2473L74.4097 24.2724C74.4097 24.2724 74.4097 24.2575 74.4097 24.2278C74.4005 23.6342 74.1943 23.0539 73.8134 22.5489C73.1843 21.3374 71.9699 19.9978 69.7156 20.3669C69.2498 20.4465 68.7987 20.5756 68.3739 20.7509C65.5414 21.8821 62.8144 24.0075 62.7781 29.9104C62.7781 30.3182 62.7781 30.7439 62.8108 31.1904L42.9909 40.5433C42.9909 40.5433 43.7181 31.4315 35.3844 35.4263C35.3044 35.462 35.2244 35.5037 35.1444 35.5454C29.1813 38.5578 28.5669 43.1212 28.6759 45.3091C28.69 45.7205 28.7423 46.1305 28.8323 46.5355C24.0764 48.5716 15.819 45.958 10.954 42.6836C6.41628 39.6265 -1.84473 35.5394 1.27133 28.8239C1.6869 29.5666 2.17574 30.2804 2.733 30.9582ZM38.0968 27.1896L68.4866 12.8268C68.4866 12.8268 68.2612 4.49196 56.1751 10.3115C44.089 16.131 38.0968 27.2015 38.0968 27.2015V27.1896Z" fill="white"/>
<path d="M74.4039 24.2278C74.4164 25.1865 74.2003 26.138 73.7676 27.0289C72.444 29.8241 69.5098 31.9524 67.2227 31.7917C66.861 31.7676 66.5105 31.677 66.1974 31.5268C64.743 30.8064 64.3794 28.7584 65.4702 26.4306C66.7937 23.6384 69.7279 21.51 72.015 21.6678C72.3659 21.6906 72.7062 21.777 73.0113 21.9208C73.331 22.0746 73.6034 22.2864 73.8076 22.54C74.0831 23.0794 74.2832 23.6426 74.4039 24.2188V24.2278Z" fill="#5F646B"/>
<path d="M73.8008 22.54C74.1817 23.045 74.3879 23.6253 74.3971 24.2189C74.2764 23.6426 74.0764 23.0794 73.8008 22.54Z" fill="white"/>
<path d="M73.8009 22.5399C73.5977 22.2858 73.3251 22.0738 73.0046 21.9207L69.7031 20.3609C71.9575 19.9888 73.1719 21.3284 73.8009 22.5399Z" fill="white"/>
<path d="M73.0046 21.9178C72.6998 21.7735 72.3594 21.6871 72.0084 21.6647C69.7177 21.498 66.7834 23.6264 65.4635 26.4275C64.3727 28.7553 64.7363 30.8063 66.1907 31.5237L62.7656 29.9073C62.802 24.0044 65.529 21.8701 68.3614 20.7479C68.7863 20.5725 69.2374 20.4434 69.7031 20.3639L73.0046 21.9178Z" fill="#172224"/>
<path d="M68.4874 12.8387L38.0977 27.2015C38.0977 27.2015 44.0898 16.1429 56.1759 10.3234C68.262 4.50383 68.4874 12.8387 68.4874 12.8387Z" fill="#5F646B"/>
<path d="M39.6795 37.6826C41.1703 38.3911 41.5484 40.448 40.4394 42.7907C39.1159 45.5829 36.1853 47.7113 33.8946 47.5535C33.5332 47.528 33.1831 47.4376 32.8693 47.2886C31.4149 46.5682 31.0513 44.5172 32.1421 42.1924C33.4692 39.4002 36.3998 37.2689 38.6869 37.4296C39.0366 37.4524 39.3758 37.5388 39.6795 37.6826Z" fill="#5F646B"/>
<path d="M39.9276 16.4346C40.0216 16.8709 40.0056 17.3183 39.8805 17.7494C39.7555 18.1804 39.524 18.586 39.2004 18.941C37.4115 20.9027 35.0808 23.4538 33.8373 24.838C33.146 25.6063 32.1776 26.1776 31.0686 26.4713C29.9597 26.7651 28.766 26.7664 27.656 26.4752C22.2857 25.0672 17.9224 22.3256 13.9883 18.8726L14.301 18.7565C15.3918 17.6164 18.4715 13.4341 24.6672 9.2041C29.4195 9.90661 34.7935 12.4488 38.1968 14.2884C38.6485 14.5309 39.0349 14.8464 39.3325 15.2154C39.6301 15.5844 39.8326 15.9993 39.9276 16.4346Z" fill="#5F646B"/>
<path d="M39.6796 37.6797C39.3761 37.5355 39.0369 37.4491 38.687 37.4267C36.3927 37.257 33.4621 39.3884 32.1422 42.1895C31.0514 44.5143 31.415 46.5683 32.8694 47.2857L28.6989 45.3151C28.5898 43.1271 29.157 38.5013 35.1674 35.5513L39.6796 37.6797Z" fill="#172224"/>
<path d="M23.1909 36.0901C23.3954 36.0869 23.5981 36.122 23.7835 36.1929C23.9688 36.2638 24.1318 36.3685 24.26 36.499C24.3881 36.6295 24.478 36.7823 24.5228 36.9457C24.5675 37.1091 24.5659 37.2788 24.5181 37.4416C24.5181 37.4803 24.489 37.5219 24.4781 37.5636C24.2569 38.1949 23.7793 38.7454 23.1241 39.1243C22.4689 39.5032 21.6754 39.6877 20.8748 39.6473C18.1454 39.48 15.4745 38.9145 12.9883 37.9774C13.7183 36.7156 14.6634 35.5449 15.7953 34.5005C18.0023 35.3579 20.1258 35.9383 21.7983 36.0604C22.2614 36.0926 22.7264 36.1026 23.1909 36.0901Z" fill="white"/>
<path d="M15.7986 34.4975C14.6667 35.5419 13.7216 36.7125 12.9916 37.9744C8.85053 36.451 5.30179 34.0235 2.73438 30.9582C3.33547 29.8514 4.01661 28.7748 4.77418 27.7344C6.95578 30.1455 11.519 32.8395 15.7986 34.4975Z" fill="#969A9E"/>
<path d="M3.56076 25.6C3.75204 26.38 4.16704 27.1115 4.77155 27.7344C4.01399 28.7748 3.33285 29.8513 2.73175 30.9582C2.1763 30.2764 1.68988 29.5586 1.27734 28.8119C1.51839 28.2993 1.80519 27.8018 2.13544 27.3236C2.5542 26.7191 3.03079 26.1428 3.56076 25.6Z" fill="white"/>
<path d="M74.4006 24.2188C74.2806 23.6425 74.0805 23.0792 73.8043 22.54C73.1753 21.3254 71.9609 19.9919 69.7065 20.358C69.2408 20.4375 68.7897 20.5666 68.3648 20.742C65.5324 21.8732 62.8127 23.9986 62.769 29.9014C62.769 30.3093 62.769 30.7349 62.8017 31.1814L42.9928 40.5433C42.9928 40.5433 43.72 31.4315 35.3862 35.4263C35.3062 35.462 35.2262 35.5037 35.1462 35.5454C29.1832 38.5578 28.5687 43.1182 28.6778 45.3091C28.6919 45.7205 28.7442 46.1305 28.8341 46.5355C24.0782 48.5716 15.8209 45.958 10.9559 42.6836C6.41813 39.6265 -1.82471 35.5394 1.27317 28.8239C1.51422 28.3112 1.80102 27.8137 2.13127 27.3355C2.5517 26.7268 3.03074 26.1464 3.56386 25.6001C6.4105 22.7714 9.96694 20.477 13.9919 18.8726L14.3046 18.7565C15.3954 17.6164 18.4751 13.4341 24.6709 9.20414C30.2283 5.43307 36.6814 2.6476 43.6218 1.02405C47.2815 0.149227 51.1895 0.273571 54.7553 1.37828L63.6344 4.4354C66.6194 5.3587 69.1221 7.09941 70.7173 9.36191L70.9646 9.71019C72.5902 12.0156 73.5573 14.5924 73.7934 17.2473L74.4115 24.2724C74.4115 24.2724 74.4115 24.2575 74.4115 24.2278L74.4006 24.2188Z" stroke="#172224" stroke-width="1.09091" stroke-linecap="round" stroke-linejoin="round"/>
<path d="M39.6795 37.6826C41.1703 38.3911 41.5484 40.448 40.4394 42.7907C39.1159 45.5829 36.1853 47.7113 33.8946 47.5535C33.5332 47.528 33.1831 47.4376 32.8693 47.2886C31.4149 46.5682 31.0513 44.5172 32.1421 42.1924C33.4692 39.4002 36.3998 37.2689 38.6869 37.4296C39.0366 37.4524 39.3758 37.5388 39.6795 37.6826Z" stroke="#172224" stroke-width="1.09091" stroke-linecap="round" stroke-linejoin="round"/>
<path d="M39.6638 37.6797L35.1443 35.5454L35.1406 35.5394" stroke="#172224" stroke-width="1.09091" stroke-linecap="round" stroke-linejoin="round"/>
<path d="M28.6758 45.309L32.8754 47.2945" stroke="#172224" stroke-width="1.09091" stroke-linecap="round" stroke-linejoin="round"/>
<path d="M74.4039 24.2278C74.4164 25.1865 74.2003 26.138 73.7676 27.0289C72.444 29.8241 69.5098 31.9524 67.2227 31.7917C66.861 31.7676 66.5105 31.677 66.1974 31.5268C64.743 30.8064 64.3794 28.7584 65.4702 26.4306C66.7937 23.6384 69.7279 21.51 72.015 21.6678C72.3659 21.6906 72.7062 21.777 73.0113 21.9208C73.331 22.0746 73.6034 22.2864 73.8076 22.54C74.1885 23.045 74.3946 23.6253 74.4039 24.2188V24.2278Z" stroke="#172224" stroke-width="1.09091" stroke-linecap="round" stroke-linejoin="round"/>
<path d="M73.0046 21.9178L69.7031 20.358" stroke="#172224" stroke-width="1.09091" stroke-linecap="round" stroke-linejoin="round"/>
<path d="M62.7656 29.9014L66.2198 31.5327" stroke="#172224" stroke-width="1.09091" stroke-linecap="round" stroke-linejoin="round"/>
<path d="M38.0977 27.2015L68.4874 12.8387C68.4874 12.8387 68.262 4.50383 56.1759 10.3234C44.0898 16.1429 38.0977 27.2015 38.0977 27.2015Z" stroke="#172224" stroke-width="1.09091" stroke-linecap="round" stroke-linejoin="round"/>
<path d="M13.9883 18.8725C17.9224 22.3256 22.2857 25.0671 27.6779 26.4751C28.7878 26.7664 29.9815 26.765 31.0905 26.4713C32.1994 26.1776 33.1678 25.6063 33.8591 24.8379C35.1026 23.4537 37.4333 20.9027 39.2222 18.941C39.5443 18.5851 39.774 18.179 39.8971 17.7477C40.0202 17.3164 40.0342 16.8691 39.9381 16.4332C39.8421 15.9973 39.638 15.5821 39.3385 15.2133C39.0391 14.8444 38.6505 14.5296 38.1968 14.2883C34.7935 12.4547 29.4195 9.91253 24.6672 9.21002" stroke="#172224" stroke-width="1.09091" stroke-linecap="round" stroke-linejoin="round"/>
<path d="M1.26953 28.8239C1.68285 29.5702 2.16924 30.2879 2.72394 30.9701C5.29811 34.0298 8.84851 36.4525 12.9884 37.9744C15.4752 38.9101 18.1458 39.4755 20.8749 39.6443C21.6755 39.6847 22.469 39.5002 23.1242 39.1213C23.7794 38.7424 24.257 38.1918 24.4782 37.5606C24.4782 37.5189 24.5036 37.4772 24.5182 37.4385C24.566 37.2757 24.5676 37.1061 24.5229 36.9427C24.4781 36.7793 24.3882 36.6265 24.2601 36.496C24.1319 36.3654 23.9689 36.2607 23.7836 36.1899C23.5983 36.119 23.3955 36.0838 23.191 36.0871C22.7265 36.0986 22.2615 36.0876 21.7984 36.0544C20.1259 35.9323 18.0025 35.3489 15.7954 34.4945C11.5158 32.8365 6.95262 30.1425 4.77101 27.7344C4.16709 27.1112 3.75216 26.3798 3.56022 25.6" stroke="#172224" stroke-width="1.09091" stroke-linecap="round" stroke-linejoin="round"/>
<path d="M15.7953 34.4975C14.6634 35.5419 13.7183 36.7125 12.9883 37.9743" stroke="#172224" stroke-width="1.09091" stroke-linecap="round" stroke-linejoin="round"/>
<path d="M2.73438 30.9731C3.33482 29.8612 4.01597 28.7797 4.77418 27.7344" stroke="#172224" stroke-width="1.09091" stroke-linecap="round" stroke-linejoin="round"/>
<path d="M51.4189 24.1801L48.8555 30.9254L51.8843 29.4936L49.8917 34.7952L58.5818 24.5225L53.6405 26.8562L56.0839 21.9774L51.4189 24.1801Z" fill="#D2FC1B"/>
</g>
<defs>
<clipPath id="clip0_6741_1908">
<rect width="74.9091" height="48" fill="white" transform="translate(0.046875)"/>
</clipPath>
</defs>
</svg>
