<svg width="42" height="48" viewBox="0 0 42 48" fill="none" xmlns="http://www.w3.org/2000/svg">
<g clip-path="url(#clip0_6741_1942)">
<path d="M37.3628 12.0474V25.552C37.3628 27.4202 36.2312 29.574 34.8327 30.3827L5.54964 47.2955C4.91444 47.6611 4.33529 47.6851 3.89226 47.4262C3.35848 47.1166 3.01953 46.4014 3.01953 45.3819V31.88L37.3628 12.0474ZM14.8454 34.733V32.6673C14.8454 31.5997 14.1942 31.106 13.3908 31.5704L8.14914 34.6022C7.34847 35.0613 6.69726 36.3076 6.69726 37.3725V39.4383C6.69726 40.5058 7.34847 40.9942 8.14914 40.5325L13.3962 37.5033C14.1995 37.0362 14.8507 35.7979 14.8507 34.7277L14.8454 34.733Z" fill="#DAE0E5"/>
<path d="M37.3682 7.27539V12.0474L3.01953 31.8799V27.1079L37.3682 7.27539Z" fill="#172224"/>
<path d="M37.3628 4.12881V7.27543L3.01953 27.108V23.9613C3.01953 22.0931 4.15114 19.9367 5.54964 19.128L34.838 2.21789C35.4546 1.86292 36.0204 1.8309 36.4607 2.06576C37.0132 2.36734 37.3628 3.09328 37.3628 4.12881Z" fill="white"/>
<path d="M33.8717 0.571166L36.4605 2.06574C36.0201 1.83088 35.4543 1.86291 34.8378 2.21787L5.5494 19.128C4.1509 19.9286 3.01929 22.0984 3.01929 23.9613V45.3712C3.01929 46.3907 3.35824 47.1059 3.89202 47.4155L1.27383 45.9049C0.740056 45.598 0.398438 44.8801 0.398438 43.8632V22.4454C0.398437 20.5878 1.53005 18.4154 2.93388 17.6147L32.217 0.70461C32.8521 0.338972 33.4313 0.314952 33.8717 0.571166Z" fill="#444444"/>
<path d="M14.8488 32.6673V34.7276C14.8488 35.7952 14.1976 37.0362 13.3942 37.5033L8.14719 40.5325C7.34652 40.9942 6.69531 40.5058 6.69531 39.4382V37.3645C6.69531 36.297 7.34652 35.0533 8.14719 34.5942L13.3942 31.5704C14.1976 31.106 14.8488 31.5997 14.8488 32.6673Z" fill="#D2FC1B"/>
<path d="M37.3628 12.0474V25.552C37.3628 27.4202 36.2312 29.574 34.8327 30.3827L5.54964 47.2955C4.91444 47.6611 4.33529 47.6851 3.89226 47.4262C3.35848 47.1166 3.01953 46.4014 3.01953 45.3819V23.9613C3.01953 22.0931 4.15114 19.9367 5.54964 19.128L34.838 2.21789C35.4546 1.86292 36.0204 1.8309 36.4607 2.06576C37.0132 2.36468 37.3682 3.09328 37.3682 4.12881L37.3628 12.0474Z" stroke="#172224" stroke-width="0.800667" stroke-linecap="round" stroke-linejoin="round"/>
<path d="M3.01953 27.1079L37.3682 7.27539" stroke="#172224" stroke-width="0.800667" stroke-linecap="round" stroke-linejoin="round"/>
<path d="M3.01953 31.88L37.3682 12.0474" stroke="#172224" stroke-width="0.800667" stroke-linecap="round" stroke-linejoin="round"/>
<path d="M13.3942 37.5033L8.14719 40.5325C7.34652 40.9942 6.69531 40.5058 6.69531 39.4382V37.3645C6.69531 36.297 7.34652 35.0533 8.14719 34.5942L13.3942 31.5704C14.1949 31.106 14.8488 31.5997 14.8488 32.6673V34.7276C14.8488 35.7979 14.1976 37.0362 13.3942 37.5033Z" stroke="#172224" stroke-width="0.800667" stroke-linecap="round" stroke-linejoin="round"/>
<path d="M36.4925 2.08442L33.8717 0.571159C33.4313 0.30427 32.8521 0.338965 32.217 0.704603L2.93388 17.6147C1.53005 18.4154 0.398438 20.5878 0.398438 22.4454V43.8712C0.398438 44.8881 0.737387 45.606 1.27383 45.9129L3.89202 47.4262" stroke="#172224" stroke-width="0.800667" stroke-linecap="round" stroke-linejoin="round"/>
<path d="M41.007 39.3982V43.9353C41.007 44.7547 40.4732 45.574 39.3843 46.1959C37.2199 47.4476 33.7129 47.4476 31.5485 46.1959C30.4809 45.574 29.9258 44.7547 29.9258 43.9353V39.3982C29.9258 40.2149 30.4596 41.0342 31.5485 41.6614C33.7129 42.9078 37.2199 42.9078 39.3843 41.6614C40.4679 41.0342 41.007 40.2149 41.007 39.3982Z" fill="white"/>
<path d="M41.007 34.8691V39.4062C41.007 40.2229 40.4732 41.0422 39.3843 41.6694C37.2199 42.9158 33.7129 42.9158 31.5485 41.6694C30.4809 41.0422 29.9258 40.2229 29.9258 39.4062V34.8691C29.9258 35.6911 30.4596 36.5078 31.5485 37.1323C33.7129 38.3813 37.2199 38.3813 39.3843 37.1323C40.4679 36.5078 41.007 35.6911 41.007 34.8691Z" fill="white"/>
<path d="M41.007 30.34V34.8771C41.007 35.6991 40.4732 36.5158 39.3843 37.1403C37.2199 38.3893 33.7129 38.3893 31.5485 37.1403C30.4809 36.5158 29.9258 35.6991 29.9258 34.8771V30.34C29.9258 31.1593 30.4596 31.9787 31.5485 32.6032C33.7129 33.8496 37.2199 33.8496 39.3843 32.6032C40.4679 31.9787 41.007 31.1593 41.007 30.34Z" fill="#DAE0E5"/>
<path d="M41.007 27.3001V30.34C41.007 31.1593 40.4732 31.9787 39.3843 32.6032C37.2199 33.8495 33.7129 33.8495 31.5485 32.6032C30.4809 31.9787 29.9258 31.1593 29.9258 30.34V25.8882C29.9258 26.7076 30.4596 27.5243 31.5485 28.1515C33.7129 29.3978 37.2199 29.3978 39.3843 28.1515C40.4679 27.5243 41.007 26.7076 41.007 25.8882V27.3001Z" fill="white"/>
<path d="M39.3843 23.617C40.4679 24.2415 41.007 25.0609 41.007 25.8776C41.007 26.6942 40.4732 27.5136 39.3843 28.1408C37.2199 29.3872 33.7129 29.3872 31.5485 28.1408C30.4809 27.5136 29.9258 26.6969 29.9258 25.8776C29.9258 25.0582 30.4596 24.2415 31.5485 23.617C33.7129 22.368 37.2199 22.368 39.3843 23.617Z" fill="white"/>
<path d="M41.007 25.8882C41.007 26.7076 40.4732 27.5243 39.3843 28.1515C37.2199 29.3978 33.7129 29.3978 31.5485 28.1515C30.4809 27.5243 29.9258 26.7076 29.9258 25.8882C29.9258 25.0689 30.4596 24.2522 31.5485 23.6277C33.7129 22.3787 37.2199 22.3787 39.3843 23.6277C40.4679 24.2415 41.007 25.0609 41.007 25.8882Z" stroke="#172224" stroke-width="0.800667" stroke-linecap="round" stroke-linejoin="round"/>
<path d="M41.007 30.34C41.007 31.1593 40.4732 31.9787 39.3843 32.6032C37.2199 33.8496 33.7129 33.8496 31.5485 32.6032C30.4809 31.9787 29.9258 31.1593 29.9258 30.34" stroke="#172224" stroke-width="0.800667" stroke-linecap="round" stroke-linejoin="round"/>
<path d="M41.007 34.8691C41.007 35.6911 40.4732 36.5078 39.3843 37.1323C37.2199 38.3813 33.7129 38.3813 31.5485 37.1323C30.4809 36.5078 29.9258 35.6911 29.9258 34.8691" stroke="#172224" stroke-width="0.800667" stroke-linecap="round" stroke-linejoin="round"/>
<path d="M41.007 39.3982C41.007 40.2149 40.4732 41.0342 39.3843 41.6614C37.2199 42.9078 33.7129 42.9078 31.5485 41.6614C30.4809 41.0342 29.9258 40.2149 29.9258 39.3982" stroke="#172224" stroke-width="0.800667" stroke-linecap="round" stroke-linejoin="round"/>
<path d="M41.007 25.8882V43.9353C41.007 44.7546 40.4732 45.574 39.3843 46.1958C37.2199 47.4475 33.7129 47.4475 31.5485 46.1958C30.4809 45.574 29.9258 44.7546 29.9258 43.9353V25.8882" stroke="#172224" stroke-width="0.800667" stroke-linecap="round" stroke-linejoin="round"/>
</g>
<defs>
<clipPath id="clip0_6741_1942">
<rect width="41.4105" height="48" fill="white"/>
</clipPath>
</defs>
</svg>
