<svg width="42" height="50" viewBox="0 0 42 50" fill="none" xmlns="http://www.w3.org/2000/svg">
<path d="M18.0657 17.5383L18.1366 17.5795C19.5577 18.3942 20.4388 20.1471 20.4388 22.6438C20.4388 27.6234 16.9421 33.6808 12.6307 36.1683C10.4796 37.4109 8.53212 37.5414 7.12246 36.7244C5.71279 35.9075 4.82031 34.1591 4.82031 31.6624C4.82031 26.6828 8.31472 20.6254 12.6307 18.1333C14.7429 16.9044 16.6606 16.7786 18.0657 17.5383ZM12.6307 32.3673C15.1228 30.9256 17.1343 27.4312 17.1343 24.5455C17.1343 21.6598 15.1228 20.4973 12.6307 21.939C10.1386 23.3807 8.11334 26.8796 8.11334 29.7585C8.11334 32.6373 10.134 33.8067 12.6307 32.3673Z" fill="#D2FC1B"/>
<path d="M10.8099 5.07794L11.5926 6.03908C11.9349 6.47551 12.3633 6.83693 12.8512 7.1009C12.804 7.57004 12.7819 8.04136 12.7848 8.51286V14.9204C11.6406 14.8014 10.3065 15.1058 8.89453 15.9182V10.966C8.89453 8.36182 9.59936 6.36174 10.8099 5.07794Z" fill="#172224"/>
<path d="M27.4298 48.4846L23.6105 46.3037C22.1665 45.4891 21.2969 43.7361 21.2969 41.2372C21.2969 36.2576 24.7936 30.2024 29.1072 27.7104C30.067 27.1234 31.1477 26.7627 32.2675 26.6554V30.3031C28.2628 33.0035 25.1162 38.6948 25.1162 43.4203C25.1162 45.917 25.995 47.6722 27.4298 48.4846Z" fill="#969A9E"/>
<path d="M19.4229 4.89256C16.4479 3.17854 13.7751 3.0481 11.8711 4.22663L15.695 1.80091C17.6104 0.592627 20.3108 0.709337 23.3132 2.43938L25.6474 3.78268C31.4599 7.13979 36.1741 15.3003 36.1741 22.0145V33.4428C35.5063 33.5163 34.8627 33.735 34.2884 34.0836C33.5384 34.5324 32.8622 35.0943 32.2838 35.7496V24.4677C32.2838 21.8612 31.5721 19.0373 30.3638 16.3598C28.4598 12.1423 25.3155 8.28857 21.7593 6.23815L19.4229 4.89256Z" fill="white"/>
<path d="M11.5912 6.03903L10.8086 5.07789C11.1028 4.76229 11.4366 4.48614 11.8018 4.25635L11.8475 4.2266C13.7629 3.04807 16.445 3.17393 19.4199 4.89253L21.7518 6.23812C25.308 8.29769 28.4523 12.1422 30.3562 16.3598L29.5713 16.4147C28.7338 16.4765 27.6834 15.7602 26.9648 14.6069C25.5757 12.3848 23.7496 10.4671 21.7518 9.31146L19.4199 7.96358C17.4221 6.81938 15.596 6.62257 14.2069 7.24273C13.827 7.41436 13.3464 7.35487 12.859 7.10085C12.3679 6.83791 11.9363 6.47643 11.5912 6.03903Z" fill="#5F646B"/>
<path d="M7.12151 36.7244L3.30215 34.5435C1.88104 33.7312 1 31.9782 1 29.4907C1 24.5088 4.50357 18.4697 8.81037 15.9639L8.88817 15.9204C10.2978 15.1035 11.6343 14.8037 12.7785 14.9227C13.3196 14.9741 13.8436 15.1395 14.3163 15.4078L18.0647 17.5498C16.6596 16.79 14.7419 16.925 12.6297 18.1448C8.31378 20.6368 4.81937 26.6943 4.81937 31.6739C4.81937 34.1591 5.69125 35.912 7.12151 36.7244Z" fill="#969A9E"/>
<path d="M36.1602 28.834V28.0376L38.4486 29.3374L38.3753 29.2985C37.6953 28.9386 36.9275 28.7776 36.1602 28.834Z" fill="white"/>
<path d="M17.1317 24.5455C17.1317 27.4266 15.111 30.9256 12.6189 32.3673C10.1268 33.809 8.10156 32.6396 8.10156 29.7585C8.10156 26.8774 10.1314 23.3784 12.628 21.939C15.1247 20.4996 17.1317 21.6644 17.1317 24.5455Z" fill="#172224"/>
<path d="M32.464 46.3678C33.1505 46.75 34.0338 46.7775 35.0247 46.393C34.3833 46.9758 33.6831 47.4904 32.9354 47.9285C30.7843 49.1712 28.8368 49.3016 27.4271 48.4823C26.0175 47.6631 25.125 45.917 25.125 43.4204C25.125 38.6948 28.2716 33.0035 32.2763 30.3032V33.8388C29.9558 35.5482 28.1686 38.8733 28.1686 41.6629C28.1686 43.1984 28.7132 44.2739 29.592 44.7637L32.464 46.3678Z" fill="#D2FC1B"/>
<path d="M40.4746 36.8137C40.5294 37.128 40.5562 37.4466 40.5547 37.7656C40.5547 40.8047 38.4219 44.5005 35.7879 46.02C35.5379 46.165 35.277 46.2904 35.0076 46.3953C34.0167 46.7797 33.1334 46.7523 32.4468 46.3701C31.5681 45.8781 31.0234 44.8025 31.0234 43.267C31.0234 40.2303 33.1562 36.5322 35.7879 35.0127C37.074 34.2689 38.2342 34.1957 39.097 34.6442L39.1313 34.6626C39.8247 35.0424 40.303 35.7793 40.4746 36.8137ZM35.7879 42.1434C36.1978 41.8759 36.539 41.5157 36.7839 41.0919C37.0288 40.6681 37.1705 40.1926 37.1976 39.7039C37.1976 38.8023 36.566 38.4384 35.7879 38.8893C35.3782 39.1569 35.0371 39.5171 34.7922 39.9409C34.5473 40.3646 34.4055 40.84 34.3783 41.3287C34.3874 42.2258 35.0213 42.5919 35.7971 42.1411L35.7879 42.1434Z" fill="white"/>
<path d="M31.0321 43.2647C31.0321 44.8003 31.5768 45.8758 32.4555 46.3678L29.5836 44.7659C28.7048 44.2762 28.1602 43.2007 28.1602 41.6651C28.1602 38.8824 29.9474 35.5505 32.2679 33.841V35.7519C32.8463 35.0966 33.5225 34.5347 34.2725 34.0859C34.8468 33.7373 35.4904 33.5186 36.1582 33.4451V33.0035C36.1948 33.0195 38.783 34.4612 39.1057 34.6443C38.2498 34.1866 37.0827 34.269 35.7966 35.0127C33.1649 36.5299 31.0321 40.228 31.0321 43.2647Z" fill="#172224"/>
<path d="M37.206 39.7016C37.179 40.1903 37.0372 40.6658 36.7923 41.0896C36.5475 41.5134 36.2063 41.8736 35.7964 42.1411C35.0206 42.5988 34.3867 42.2258 34.3867 41.3264C34.414 40.8378 34.5558 40.3624 34.8007 39.9386C35.0455 39.5148 35.3866 39.1546 35.7964 38.887C36.5836 38.4361 37.206 38.8 37.206 39.7016Z" fill="#172224"/>
<path d="M36.1602 33.0012V28.834C36.9231 28.7777 37.6865 28.9362 38.3639 29.2917L38.4371 29.3306C39.8674 30.1292 40.7255 31.8982 40.7255 34.3948C40.722 35.2074 40.6385 36.0176 40.4761 36.8137C40.2953 35.7816 39.817 35.0448 39.1328 34.6626C39.142 34.6603 36.1968 33.0172 36.1602 33.0012Z" fill="#D2FC1B"/>
<path d="M30.3497 16.3598L29.5647 16.4148C28.7272 16.4765 27.6768 15.7603 26.9582 14.6069C25.5692 12.3849 23.743 10.4672 21.7452 9.31151L19.4225 7.96364C17.4247 6.81943 15.5985 6.62262 14.2095 7.24278C13.8296 7.41442 13.3513 7.35263 12.8616 7.1009C12.3737 6.83693 11.9453 6.47551 11.603 6.03908L10.8203 5.07794" stroke="#172224" stroke-width="0.686525" stroke-linecap="round" stroke-linejoin="round"/>
<path d="M18.0657 17.5384C16.6606 16.7786 14.7429 16.9136 12.6307 18.1334C8.31472 20.6255 4.82031 26.6829 4.82031 31.6625C4.82031 34.1591 5.69906 35.9121 7.12246 36.7245C8.54585 37.5368 10.4796 37.411 12.6307 36.1684C16.9421 33.6809 20.4388 27.6234 20.4388 22.6438C20.4388 20.1472 19.5577 18.3942 18.1366 17.5796" stroke="#172224" stroke-width="0.686525" stroke-linecap="round" stroke-linejoin="round"/>
<path d="M17.1342 24.5455C17.1342 21.6643 15.1227 20.4973 12.6306 21.939C10.1385 23.3807 8.11328 26.8796 8.11328 29.7585C8.11328 32.6373 10.134 33.8067 12.6306 32.3673C15.1273 30.9279 17.1342 27.4312 17.1342 24.5455Z" stroke="#172224" stroke-width="0.686525" stroke-linecap="round" stroke-linejoin="round"/>
<path d="M7.12151 36.7245L3.30215 34.5436C1.88104 33.7312 1 31.9783 1 29.4908C1 24.5089 4.50357 18.4698 8.81036 15.9639L8.88817 15.9205C10.2978 15.1035 11.6343 14.8014 12.7785 14.9227C13.3196 14.9738 13.8438 15.1392 14.3163 15.4079L18.1357 17.591" stroke="#172224" stroke-width="0.686525" stroke-linecap="round" stroke-linejoin="round"/>
<path d="M40.4738 36.8137C40.6364 36.0206 40.7207 35.2135 40.7255 34.404C40.7255 31.9073 39.856 30.1384 38.4371 29.3397L38.3639 29.3008C37.6865 28.9454 36.9231 28.7868 36.1602 28.8431" stroke="#172224" stroke-width="0.686525" stroke-linecap="round" stroke-linejoin="round"/>
<path d="M32.2685 30.3032C28.2638 33.0035 25.1172 38.6948 25.1172 43.4204C25.1172 45.917 25.9959 47.67 27.4193 48.4823C28.8427 49.2947 30.7764 49.1689 32.9276 47.9285C33.6753 47.4904 34.3755 46.9758 35.0169 46.393" stroke="#172224" stroke-width="0.686525" stroke-linecap="round" stroke-linejoin="round"/>
<path d="M39.1009 34.642C38.245 34.1843 37.0779 34.2667 35.7918 35.0104C33.1601 36.5299 31.0273 40.228 31.0273 43.2647C31.0273 44.8002 31.572 45.8758 32.4507 46.3678C33.1373 46.75 34.0206 46.7774 35.0115 46.393C35.2809 46.2881 35.5418 46.1627 35.7918 46.0177C38.4258 44.4982 40.5586 40.8024 40.5586 37.7634C40.5585 37.4449 40.5301 37.1271 40.4739 36.8137C40.2909 35.7816 39.8149 35.0447 39.1306 34.6626" stroke="#172224" stroke-width="0.686525" stroke-linecap="round" stroke-linejoin="round"/>
<path d="M12.7852 14.9113V8.50369C12.7845 8.03207 12.8089 7.56075 12.8584 7.09174" stroke="#172224" stroke-width="0.686525" stroke-linecap="round" stroke-linejoin="round"/>
<path d="M37.206 39.7016C37.206 38.8 36.5744 38.4361 35.7964 38.887C35.3866 39.1546 35.0455 39.5148 34.8007 39.9386C34.5558 40.3624 34.414 40.8378 34.3867 41.3264C34.3867 42.2258 35.0206 42.5919 35.7964 42.1411C36.2063 41.8736 36.5475 41.5134 36.7923 41.0896C37.0372 40.6658 37.179 40.1903 37.206 39.7016Z" stroke="#172224" stroke-width="0.686525" stroke-linecap="round" stroke-linejoin="round"/>
<path d="M27.4298 48.4846L23.6105 46.3037C22.1665 45.4891 21.2969 43.7361 21.2969 41.2372C21.2969 36.2576 24.7936 30.2024 29.1072 27.7104C30.067 27.1234 31.1477 26.7627 32.2675 26.6554" stroke="#172224" stroke-width="0.686525" stroke-linecap="round" stroke-linejoin="round"/>
<path d="M36.1602 28.0376L38.4371 29.3374" stroke="#172224" stroke-width="0.686525" stroke-linecap="round" stroke-linejoin="round"/>
<path d="M39.1429 34.6603C39.1429 34.6603 36.1977 33.0172 36.168 33.0012" stroke="#172224" stroke-width="0.686525" stroke-linecap="round" stroke-linejoin="round"/>
<path d="M32.2679 33.8387C29.9474 35.5482 28.1602 38.8733 28.1602 41.6628C28.1602 43.1984 28.7048 44.2739 29.5836 44.7636L32.4555 46.3655" stroke="#172224" stroke-width="0.686525" stroke-linecap="round" stroke-linejoin="round"/>
<path d="M11.8031 4.25641C11.4379 4.4862 11.1041 4.76235 10.8099 5.07795C9.60165 6.36404 8.89453 8.36183 8.89453 10.966V15.909" stroke="#172224" stroke-width="0.686525" stroke-linecap="round" stroke-linejoin="round"/>
<path d="M11.8477 4.22663L15.6922 1.80091C17.6076 0.592627 20.3079 0.709337 23.3103 2.43938L25.6445 3.78268C31.4571 7.13979 36.1712 15.3003 36.1712 22.0145V33.4428C35.5035 33.5163 34.8599 33.735 34.2856 34.0836C33.5356 34.5324 32.8594 35.0943 32.2809 35.7496V24.4677C32.2809 21.8612 31.5692 19.0373 30.3609 16.3598C28.457 12.1446 25.3127 8.28857 21.7565 6.23815L19.42 4.89256C16.4451 3.17396 13.7631 3.0481 11.8477 4.22663Z" stroke="#172224" stroke-width="0.686525" stroke-linecap="round" stroke-linejoin="round"/>
<path d="M11.8505 4.22662L11.8047 4.25637" stroke="#172224" stroke-width="0.686525" stroke-linecap="round" stroke-linejoin="round"/>
</svg>
