<svg width="42" height="48" viewBox="0 0 42 48" fill="none" xmlns="http://www.w3.org/2000/svg">
<g clip-path="url(#clip0_6741_2007)">
<path d="M40.9546 8.98782C41.1946 9.12904 41.3439 9.43167 41.3439 9.86139C41.3182 10.3297 41.1828 10.7855 40.9487 11.192C40.7147 11.5985 40.3884 11.9443 39.9962 12.2017C39.623 12.4155 39.2821 12.4377 39.0359 12.2925H39.0178C38.7878 12.1452 38.6445 11.8506 38.6445 11.429C38.6665 10.9005 38.8348 10.3885 39.1307 9.95016C39.3457 9.5982 39.6383 9.30008 39.9862 9.07861C40.3594 8.86475 40.7003 8.84458 40.9546 8.98782Z" fill="#D2FC1B"/>
<path d="M26.2101 0.403548L40.9378 8.99803C40.6937 8.85479 40.3527 8.87497 39.9795 9.09084C39.6293 9.30765 39.3332 9.60161 39.114 9.95029C38.818 10.3887 38.6497 10.9006 38.6278 11.4291C38.6278 11.8508 38.771 12.1453 39.001 12.2926L24.2935 3.70012L24.227 3.65573C24.1127 3.55138 24.024 3.42214 23.9676 3.278C23.9113 3.13387 23.8889 2.97871 23.9021 2.82453C23.9272 2.35555 24.0627 1.89914 24.2976 1.49246C24.5325 1.08577 24.8602 0.740324 25.2539 0.484247C25.619 0.270394 25.966 0.252236 26.2101 0.403548Z" fill="#5F646B"/>
<path d="M36.9442 16.5333L34.4082 34.9368L17.6026 44.6409L15.3672 32.1244L36.9442 16.5333Z" fill="#DAE0E5"/>
<path d="M36.9444 16.5434L15.3674 32.1244L0.300781 23.536L21.8879 7.95093L36.9444 16.5434ZM22.5799 25.1681L34.3196 16.6947L21.9686 9.63956L2.92553 23.4028L15.2766 30.4418L22.5799 25.1681Z" fill="white"/>
<path d="M34.8269 36.4458C35.1941 36.6476 35.4201 37.1096 35.4201 37.7572C35.4201 39.0504 34.5142 40.62 33.4026 41.2676C32.8457 41.5925 32.3353 41.6227 31.9702 41.4109L31.9439 41.3947C31.5909 41.1748 31.375 40.729 31.375 40.0975C31.375 38.8043 32.2849 37.2327 33.4026 36.5871C33.9533 36.2643 34.4597 36.234 34.8269 36.4458Z" fill="#5F646B"/>
<path d="M34.8283 36.4458C34.4591 36.234 33.9528 36.2643 33.3939 36.5871C32.2762 37.2327 31.3663 38.8063 31.3663 40.0975C31.3663 40.729 31.5822 41.1748 31.9353 41.3947L30.0388 40.2992C29.6717 40.0874 29.4336 39.6335 29.4336 38.9879C29.4429 38.5265 29.538 38.0708 29.714 37.6442L33.3011 35.5703L34.8283 36.4458Z" fill="#172224"/>
<path d="M34.3185 16.6765L22.5788 25.158L21.9453 9.65567L21.9675 9.63953L34.3185 16.6765Z" fill="#D2FC1B"/>
<path d="M24.3463 42.5991C24.7135 42.8009 24.9415 43.2629 24.9415 43.9085C24.9415 45.2017 24.0336 46.7733 22.924 47.4189C22.3631 47.7437 21.8547 47.776 21.4896 47.5621L21.4654 47.546C21.1103 47.3301 20.8984 46.8802 20.8984 46.2488C20.8984 44.9556 21.8043 43.386 22.9159 42.7383C23.4727 42.4176 23.9791 42.3893 24.3463 42.5991Z" fill="#5F646B"/>
<path d="M22.7433 41.6711L24.3452 42.5992C23.978 42.3974 23.4716 42.4176 22.9128 42.7384C21.7931 43.386 20.8953 44.9576 20.8953 46.2488C20.8953 46.8803 21.0971 47.3302 21.4622 47.5461L21.4864 47.5622L19.5638 46.4526C19.1986 46.2407 18.9727 45.7848 18.9727 45.1392C18.9831 44.6302 19.0964 44.1286 19.3055 43.6644L22.7433 41.6711Z" fill="#172224"/>
<path d="M21.9466 9.65564L22.5801 25.158L15.2768 30.4357L2.92578 23.3967L21.9466 9.65564Z" fill="#172224"/>
<path d="M15.3674 32.1244L17.6027 44.6409L2.53615 36.0545L0.300781 23.536L15.3674 32.1244Z" fill="white"/>
<path d="M22.7431 41.6711L34.4082 34.9368L36.9442 16.5333L15.3672 32.1244L17.6026 44.6409L22.7431 41.6711Z" stroke="#172224" stroke-width="0.605245" stroke-linecap="round" stroke-linejoin="round"/>
<path d="M0.300781 23.536L15.3674 32.1244" stroke="#172224" stroke-width="0.605245" stroke-linecap="round" stroke-linejoin="round"/>
<path d="M24.2293 3.65564L21.8789 7.95086" stroke="#172224" stroke-width="0.605245" stroke-linecap="round" stroke-linejoin="round"/>
<path d="M21.9453 9.65564L22.5788 25.158" stroke="#172224" stroke-width="0.605245" stroke-linecap="round" stroke-linejoin="round"/>
<path d="M39.0062 12.2825L36.9444 16.5333L21.8778 7.95093L0.300781 23.536L2.53615 36.0545L17.6027 44.6409" stroke="#172224" stroke-width="0.605245" stroke-linecap="round" stroke-linejoin="round"/>
<path d="M39.006 12.2825C38.7761 12.1352 38.6328 11.8406 38.6328 11.419C38.6548 10.8905 38.8231 10.3785 39.119 9.94017C39.338 9.59076 39.6341 9.29609 39.9845 9.0787C40.3578 8.86283 40.6987 8.84266 40.9428 8.9859C41.1869 9.12914 41.3322 9.42975 41.3322 9.85947C41.3065 10.3278 41.1711 10.7836 40.937 11.1901C40.7029 11.5966 40.3767 11.9424 39.9845 12.1998C39.6113 12.4136 39.2703 12.4358 39.0242 12.2905" stroke="#172224" stroke-width="0.605245" stroke-linecap="round" stroke-linejoin="round"/>
<path d="M24.3463 42.5992C24.7135 42.8009 24.9415 43.263 24.9415 43.9085C24.9415 45.2018 24.0336 46.7734 22.924 47.419C22.3631 47.7438 21.8547 47.7761 21.4896 47.5622L21.4654 47.5461C21.1103 47.3302 20.8984 46.8803 20.8984 46.2488C20.8984 44.9556 21.8043 43.386 22.9159 42.7384C23.4727 42.4176 23.9791 42.3874 24.3463 42.5992Z" stroke="#172224" stroke-width="0.605245" stroke-linecap="round" stroke-linejoin="round"/>
<path d="M21.4786 47.5622L19.556 46.4526C19.1908 46.2408 18.9648 45.7848 18.9648 45.1392C18.9753 44.6302 19.0886 44.1286 19.2977 43.6644" stroke="#172224" stroke-width="0.605245" stroke-linecap="round" stroke-linejoin="round"/>
<path d="M22.7422 41.6711L24.3441 42.5992" stroke="#172224" stroke-width="0.605245" stroke-linecap="round" stroke-linejoin="round"/>
<path d="M31.9361 41.3947C31.5831 41.1748 31.3672 40.729 31.3672 40.0975C31.3672 38.8043 32.2771 37.2327 33.3948 36.5871C33.9536 36.2643 34.46 36.234 34.8272 36.4458C35.1944 36.6577 35.4203 37.1096 35.4203 37.7572C35.4203 39.0504 34.5145 40.62 33.4028 41.2676C32.846 41.5925 32.3356 41.6227 31.9704 41.4109" stroke="#172224" stroke-width="0.605245" stroke-linecap="round" stroke-linejoin="round"/>
<path d="M31.9615 41.4109L30.0388 40.2992C29.6717 40.0874 29.4336 39.6335 29.4336 38.9879C29.4429 38.5265 29.538 38.0708 29.714 37.6442" stroke="#172224" stroke-width="0.605245" stroke-linecap="round" stroke-linejoin="round"/>
<path d="M33.3125 35.5723L34.8276 36.4458" stroke="#172224" stroke-width="0.605245" stroke-linecap="round" stroke-linejoin="round"/>
<path d="M40.9517 8.98784L26.21 0.403442C25.9659 0.262218 25.6269 0.280376 25.2537 0.496246C24.86 0.752324 24.5324 1.09777 24.2975 1.50446C24.0626 1.91114 23.9271 2.36755 23.902 2.83653C23.8891 2.99038 23.9116 3.14515 23.9679 3.28891C24.0242 3.43266 24.1128 3.56158 24.2268 3.66572L24.2934 3.7101L39.021 12.3026" stroke="#172224" stroke-width="0.605245" stroke-linecap="round" stroke-linejoin="round"/>
<path d="M22.5801 25.158L15.2768 30.4358L2.92578 23.3968L21.9688 9.63953L34.3199 16.6765L22.5801 25.158Z" stroke="#172224" stroke-width="0.605245" stroke-linecap="round" stroke-linejoin="round"/>
</g>
<defs>
<clipPath id="clip0_6741_2007">
<rect width="41.6369" height="48" fill="white"/>
</clipPath>
</defs>
</svg>
