<svg width="28" height="48" viewBox="0 0 28 48" fill="none" xmlns="http://www.w3.org/2000/svg">
<g clip-path="url(#clip0_6741_2042)">
<path opacity="0.08" d="M14.0022 48.002C20.1541 48.002 25.1411 45.1551 25.1411 41.6433C25.1411 38.1314 20.1541 35.2845 14.0022 35.2845C7.85035 35.2845 2.86328 38.1314 2.86328 41.6433C2.86328 45.1551 7.85035 48.002 14.0022 48.002Z" fill="#172224"/>
<path d="M16.2034 34.1633C15.8525 34.0791 15.4956 34.0065 15.1367 33.9477L16.2034 34.1633Z" fill="#969A9E"/>
<path d="M17.7994 34.3045C26.8941 36.3136 28.7976 27.4714 27.5742 24.6606C20.5633 25.4544 18.2059 30.9997 17.5337 33.246L17.5416 33.2734C17.1134 33.5067 16.6256 33.838 16.124 34.3045L15.1009 34.1398C15.1921 31.427 14.9165 28.8415 14.4565 26.4992L14.1928 25.1232C14.8769 26.2012 15.4975 26.8559 15.8861 26.8226C16.6455 26.7579 16.235 24.098 14.9681 20.8834C14.9681 20.8794 14.9641 20.8755 14.9621 20.8716C14.9641 20.8755 14.9681 20.8794 14.9701 20.8814C17.1629 23.5727 19.2964 25.2564 19.7345 24.6429C20.1727 24.0294 18.7511 21.3518 16.5582 18.6606C16.5542 18.6566 16.5503 18.6508 16.5463 18.6468C16.5503 18.6488 16.5542 18.6527 16.5602 18.6547C19.0921 20.0993 21.1462 20.4639 21.1462 19.4662C21.1462 18.4685 19.0941 16.4887 16.5602 15.0441C16.5562 15.0421 16.5542 15.0402 16.5503 15.0382C18.7531 14.85 20.1747 13.7955 19.7365 12.6821C19.2983 11.5688 17.1649 10.8161 14.972 11.0042C14.9443 11.0062 14.9205 11.0101 14.8927 11.014C16.1518 9.24403 16.5602 7.06043 15.8008 6.13132C15.0573 5.21985 13.4711 5.85102 12.2161 7.53282C12.2061 4.67885 11.5003 1.97582 10.6299 1.4799C9.75351 0.978102 9.0437 2.90688 9.0437 5.78634C9.0437 5.8079 9.0437 5.82946 9.0437 5.85102C9.03775 5.83534 9.0318 5.81966 9.02585 5.80398C7.76088 2.58738 6.11918 0.0352731 5.3598 0.0999578C4.61231 0.164643 4.99895 2.73831 6.21634 5.88238C4.07103 3.30283 2.0209 1.7112 1.59065 2.30904C1.17427 2.88924 2.42735 5.31394 4.42594 7.85233C4.37835 7.91505 4.33275 7.9817 4.28715 8.04638C1.94159 6.78797 0.0976562 6.50963 0.0976562 7.45442C0.0976562 8.24827 1.39634 9.66154 3.2026 10.9337C3.15105 11.3257 3.13122 11.7354 3.1451 12.1627C1.93167 12.6037 1.27539 13.3799 1.59263 14.1875C1.86624 14.8834 2.79614 15.44 3.98974 15.7145C4.13844 16.0555 4.30698 16.4025 4.4993 16.7533C4.73723 17.1885 4.98903 17.5864 5.24877 17.9549C4.87007 19.129 4.87998 20.2248 5.36178 20.8167C5.90703 21.4871 6.90831 21.3205 7.89768 20.5207C8.31009 20.7775 8.72646 20.9872 9.14085 21.148C9.36292 23.2767 9.94584 25.0389 10.6319 25.4309C11.419 25.8798 12.0693 24.3724 12.1962 21.9752L12.7534 23.6119C13.5921 26.5697 14.2345 30.147 14.1195 33.983L14.0699 33.9752C13.5544 33.0853 12.9318 32.3286 12.4976 31.8445C13.6278 26.1267 7.84217 24.8664 5.96651 25.6406C6.44237 30.1764 10.0132 31.8092 11.5935 32.313C11.8849 32.6246 12.335 33.1401 12.7712 33.7654C11.0185 33.7909 9.2499 34.1869 7.60821 35.1101C6.69219 35.6256 2.87743 37.9562 3.08958 41.1336C3.23631 43.3407 5.17144 44.9128 6.29961 45.5577C10.5803 48.002 17.5218 48.002 21.8025 45.5577C23.9439 44.3365 25.0125 42.735 25.0125 41.1336C25.0125 39.05 22.9921 37.5779 21.8025 36.7096C20.6268 35.853 19.1298 35.065 17.4703 34.5181L17.4068 34.5083C17.5377 34.4123 17.6666 34.328 17.7895 34.2535L17.8014 34.3025L17.7994 34.3045Z" fill="#969A9E"/>
<path d="M17.5352 33.246C18.2073 31.0016 20.5648 25.4564 27.5757 24.6606C28.799 27.4734 26.8956 36.3156 17.8008 34.3045L17.5352 33.244V33.246Z" fill="#D2FC1B"/>
<path d="M11.5918 32.313C10.0116 31.8092 6.43871 30.1764 5.96484 25.6406C7.84248 24.8664 13.6261 26.1267 12.4959 31.8445L11.5918 32.313Z" fill="#D2FC1B"/>
<path d="M12.7556 23.6119C13.6002 26.5893 14.2466 30.194 14.1197 34.0575C13.2493 32.5247 12.0378 31.3584 11.9645 31.2878C11.7682 31.1016 11.4569 31.1075 11.2665 31.3015C11.0782 31.4956 11.0841 31.8033 11.2784 31.9915C11.3022 32.0131 13.5665 34.1967 13.9551 36.3254C13.7608 38.0523 13.3999 39.8144 12.823 41.5825C12.7397 41.8393 12.8825 42.1137 13.1402 42.196C13.1898 42.2117 13.2413 42.2195 13.2929 42.2195C13.5011 42.2195 13.6954 42.0882 13.7628 41.8824C14.1692 40.6377 14.4726 39.3969 14.6887 38.1679C14.7204 38.1307 14.7482 38.0895 14.768 38.0405C16.4375 34.1418 19.0348 33.7145 19.1498 33.6988C19.4175 33.6615 19.6059 33.4165 19.5702 33.1499C19.5345 32.8834 19.2847 32.6952 19.015 32.7324C18.9079 32.7461 16.8221 33.0578 15.0218 35.5707C15.2855 32.3384 14.998 29.2512 14.4587 26.4992L12.7556 23.6119Z" fill="#969A9E"/>
<path d="M6.27768 6.03723C7.54464 9.25187 9.18633 11.8059 9.94572 11.7413C10.7051 11.6766 10.2947 9.01665 9.02772 5.80202C7.76274 2.58738 6.12105 0.0352731 5.36166 0.0999578C4.60228 0.164643 5.0127 2.82456 6.27966 6.03919L6.27768 6.03723Z" fill="#444444"/>
<path d="M12.1312 7.64849C10.8643 9.42046 10.4538 11.6119 11.2132 12.5449C11.9726 13.478 13.6183 12.7978 14.8852 11.0258C16.1522 9.25384 16.5626 7.0624 15.8032 6.12937C15.0419 5.19635 13.3982 5.87652 12.1312 7.64849Z" fill="#444444"/>
<path d="M16.5626 15.0441C14.0307 13.5995 11.9766 13.2349 11.9766 14.2326C11.9766 15.2303 14.0307 17.2101 16.5626 18.6547C19.0945 20.0993 21.1486 20.4639 21.1486 19.4662C21.1486 18.4685 19.0945 16.4887 16.5626 15.0441Z" fill="#444444"/>
<path d="M14.9672 20.8834C13.7002 17.6687 12.0585 15.1147 11.2992 15.1793C10.5398 15.244 10.9502 17.9039 12.2172 21.1186C13.4841 24.3332 15.1258 26.8873 15.8852 26.8226C16.6446 26.7579 16.2342 24.098 14.9672 20.8834Z" fill="#444444"/>
<path d="M9.02978 19.2996C10.2948 17.5296 10.7052 15.3401 9.94579 14.407C9.18641 13.474 7.54274 14.1542 6.27776 15.9242C5.01278 17.6942 4.60236 19.8837 5.36174 20.8167C6.12112 21.7497 7.7648 21.0696 9.02978 19.2996Z" fill="#444444"/>
<path d="M4.68369 11.8765C7.21563 13.3211 9.26973 13.6857 9.26973 12.688C9.26973 11.6903 7.21563 9.71055 4.68369 8.26593C2.14977 6.8213 0.0976562 6.45868 0.0976562 7.45443C0.0976562 8.45214 2.15176 10.4319 4.68369 11.8765Z" fill="#444444"/>
<path d="M9.04688 5.78437C9.04688 8.66382 9.75669 11.4041 10.6331 11.9039C11.5094 12.4057 12.2192 10.477 12.2192 7.5975C12.2192 4.71805 11.5094 1.97777 10.6331 1.47794C9.75669 0.97614 9.04688 2.90492 9.04688 5.78437Z" fill="#444444"/>
<path d="M14.9744 11.0062C12.7815 11.1924 11.3599 12.247 11.7981 13.3623C12.2362 14.4776 14.3696 15.2283 16.5625 15.0402C18.7554 14.854 20.177 13.7994 19.7389 12.6841C19.3007 11.5707 17.1673 10.818 14.9744 11.0062Z" fill="#444444"/>
<path d="M16.5625 18.6625C14.3696 15.9712 12.2362 14.2875 11.7981 14.901C11.3599 15.5145 12.7815 18.1921 14.9744 20.8834C17.1673 23.5746 19.3007 25.2584 19.7389 24.6449C20.177 24.0314 18.7554 21.3538 16.5625 18.6625Z" fill="#444444"/>
<path d="M12.2192 21.1245C12.2192 18.245 11.5094 15.5047 10.6331 15.0049C9.75669 14.5031 9.04688 16.4319 9.04688 19.3113C9.04688 22.1908 9.75669 24.9311 10.6331 25.4309C11.5094 25.9327 12.2192 24.0039 12.2192 21.1245Z" fill="#444444"/>
<path d="M6.37374 15.8772C8.57456 15.689 10.0021 14.6285 9.56195 13.5073C9.12179 12.3861 6.98045 11.6315 4.77963 11.8197C2.5788 12.0078 1.15124 13.0683 1.59141 14.1895C2.03157 15.3107 4.17291 16.0653 6.37374 15.8772Z" fill="#444444"/>
<path d="M4.77963 8.29335C6.98045 10.9846 9.12179 12.6684 9.56195 12.0549C10.0021 11.4413 8.57456 8.76379 6.37374 6.07251C4.17291 3.38123 2.03157 1.69747 1.59141 2.30903C1.15124 2.92256 2.5788 5.60011 4.77963 8.29139V8.29335Z" fill="#444444"/>
<path d="M16.5619 16.8514C16.5619 13.1232 13.903 8.58347 10.6216 6.71154C9.30114 5.95884 8.08177 5.75303 7.09635 6.01765C7.00713 6.02549 6.92187 6.03921 6.84257 6.06469C3.97951 6.9938 1.5031 11.2748 4.49701 16.7534C7.49092 22.232 12.4219 22.2378 14.3789 20.8461C14.3888 20.8383 14.3987 20.8305 14.4086 20.8226C15.7232 20.3345 16.5619 18.9428 16.5619 16.8514Z" fill="white"/>
<path d="M11.5471 12.9409C11.5312 12.5841 11.2893 12.0353 10.9919 11.8628C10.6608 11.6707 10.4685 12.0627 10.411 12.2666C10.3178 12.5959 10.3694 13.1702 10.6033 13.4191C10.9087 13.7445 11.5749 13.5701 11.5471 12.9409Z" fill="#172224"/>
<path d="M12.5824 15.3812C12.7053 15.8556 13.0821 16.5358 13.4727 16.671C13.8732 16.8102 14.0417 16.2908 14.0397 15.8928C14.0377 15.2538 13.5996 14.3228 13.207 14.1326C12.7767 13.9249 12.3782 14.5874 12.5824 15.3832V15.3812Z" fill="#172224"/>
<path d="M10.3783 15.4028C10.4179 15.7537 10.6439 16.3005 10.9532 16.477C11.2705 16.6573 11.4787 16.3378 11.5302 16.0634C11.6115 15.6243 11.3676 14.8932 11.0643 14.6775C10.7332 14.4443 10.3108 14.8128 10.3783 15.4028Z" fill="#172224"/>
<path d="M16.1819 34.2574C15.8269 34.1731 15.472 34.1006 15.1211 34.0438L15.1528 33.8497C15.5077 33.9085 15.8686 33.981 16.2275 34.0653L16.1819 34.2555V34.2574Z" fill="#172224"/>
<path d="M14.0527 47.4864C11.2273 47.4864 8.40195 46.8729 6.25268 45.6458C5.73915 45.3518 3.16756 43.7563 2.99308 41.1434C2.78291 37.9719 6.43707 35.6609 7.56127 35.0278C9.11374 34.1535 10.8665 33.6968 12.7719 33.6694L12.7758 33.8654C10.9041 33.8928 9.18314 34.3417 7.66041 35.1983C6.56 35.8177 2.98713 38.0719 3.19135 41.1297C3.3579 43.6445 5.85415 45.1911 6.35181 45.4753C10.5988 47.9 17.5086 47.9 21.7556 45.4753C23.7938 44.311 24.916 42.7703 24.916 41.1356C24.916 39.1009 22.9313 37.6543 21.7457 36.7919C20.5005 35.8843 19.0115 35.1316 17.4392 34.6142L17.5026 34.4279C19.0928 34.9513 20.6016 35.7138 21.8626 36.6331C23.0781 37.5191 25.1143 39.0029 25.1143 41.1356C25.1143 42.8428 23.9564 44.4443 21.8547 45.6439C19.7035 46.8709 16.8781 47.4845 14.0547 47.4845L14.0527 47.4864Z" fill="#172224"/>
<path d="M20.3282 34.6985C19.559 34.6985 18.7123 34.6083 17.7785 34.4025L17.8221 34.2104C22.1801 35.1728 24.6089 33.5694 25.8799 32.0542C27.8864 29.6628 28.1144 26.2679 27.5136 24.7684C20.6514 25.5838 18.3178 30.984 17.6317 33.2754L17.4414 33.2205C18.1413 30.884 20.5285 25.3642 27.5652 24.5665C27.6088 24.5606 27.6504 24.5861 27.6683 24.6253C28.3246 26.1346 28.1203 29.6942 26.0345 32.1816C25.0015 33.4126 23.229 34.7004 20.3302 34.7004L20.3282 34.6985Z" fill="#172224"/>
<path d="M11.562 32.407C10.0095 31.9111 6.34942 30.2607 5.86762 25.6524C5.86365 25.6093 5.88744 25.5681 5.9271 25.5524C6.9601 25.1271 9.29376 25.2662 10.991 26.6344C12.0279 27.4714 13.1482 29.0572 12.593 31.866L12.3987 31.8288C12.934 29.116 11.8614 27.589 10.8661 26.7873C9.28781 25.5152 7.06915 25.3446 6.07184 25.7073C6.57347 30.145 10.1166 31.7406 11.6235 32.2228L11.562 32.409V32.407Z" fill="#172224"/>
<path d="M13.2936 42.3175C13.2321 42.3175 13.1707 42.3077 13.1112 42.2881C12.9605 42.2391 12.8376 42.1372 12.7662 41.998C12.6948 41.8589 12.6809 41.7001 12.7305 41.5511C13.2757 39.885 13.6544 38.1287 13.8567 36.3273C13.4661 34.23 11.2335 32.0836 11.2117 32.0621C11.0987 31.9543 11.0333 31.8072 11.0313 31.6504C11.0293 31.4936 11.0868 31.3466 11.1978 31.2329C11.4239 31.0016 11.8006 30.9938 12.0346 31.2172C12.0841 31.2643 13.1667 32.3012 14.0312 33.7105C14.0986 30.4685 13.6386 27.0813 12.6611 23.6374L12.8514 23.5844C13.8686 27.1695 14.3286 30.6939 14.2195 34.0614C14.2195 34.1045 14.1878 34.1437 14.1442 34.1535C14.1006 34.1633 14.055 34.1437 14.0331 34.1065C13.1627 32.5717 11.9473 31.4093 11.8958 31.3603C11.7391 31.2114 11.4893 31.2153 11.3386 31.3701C11.2653 31.4446 11.2256 31.5426 11.2276 31.6485C11.2276 31.7524 11.2712 31.8504 11.3485 31.9209C11.3723 31.9425 13.6584 34.1398 14.055 36.3077C14.055 36.3175 14.055 36.3273 14.055 36.3352C13.8507 38.1542 13.4681 39.9281 12.9169 41.6119C12.8851 41.7099 12.8931 41.8157 12.9407 41.9098C12.9882 42.002 13.0695 42.0706 13.1707 42.1039C13.3788 42.1705 13.6009 42.0529 13.6663 41.853C14.0569 40.6593 14.3662 39.4146 14.5883 38.1522C14.5903 38.1346 14.5982 38.1189 14.6101 38.1052C14.6359 38.0738 14.6577 38.0405 14.6736 38.0033C16.3648 34.0536 19.0197 33.6184 19.1307 33.6027C19.3449 33.5733 19.4955 33.3754 19.4678 33.1637C19.4539 33.0598 19.4004 32.9696 19.3151 32.9069C19.2318 32.8442 19.1268 32.8167 19.0237 32.8304C18.9364 32.8422 16.8803 33.1421 15.0979 35.6276C15.0721 35.6628 15.0245 35.6785 14.9829 35.6628C14.9412 35.6472 14.9135 35.606 14.9174 35.5629C15.1554 32.6677 14.965 29.6256 14.3563 26.5188L14.5506 26.4815C15.1395 29.4845 15.3378 32.4286 15.1415 35.2395C16.922 32.9363 18.9087 32.6481 18.9959 32.6364C19.1525 32.6148 19.3072 32.656 19.4341 32.7501C19.561 32.8442 19.6403 32.9833 19.6621 33.1382C19.7057 33.4557 19.4797 33.7517 19.1585 33.7968C19.0514 33.8125 16.5036 34.2319 14.854 38.0797C14.8342 38.1267 14.8084 38.1699 14.7767 38.211C14.5546 39.4734 14.2433 40.7181 13.8527 41.9137C13.7734 42.1568 13.5474 42.3195 13.2896 42.3195L13.2936 42.3175Z" fill="#172224"/>
<path d="M9.05038 6.13132C9.01271 6.03331 8.97503 5.93531 8.93736 5.8373C7.58118 2.39725 5.995 0.143081 5.36846 0.197965C5.30105 0.203846 5.2495 0.239128 5.20588 0.305773C4.86485 0.831092 5.21778 2.84024 6.06638 5.19241L5.88 5.2571C4.9858 2.77359 4.65667 0.787969 5.04131 0.197965C5.11864 0.0783966 5.22571 0.0117518 5.35458 -9.09969e-06C6.26267 -0.0842953 7.98367 2.8716 9.12374 5.76477C9.16339 5.86474 9.20106 5.96275 9.23874 6.06076L9.05236 6.12936L9.05038 6.13132Z" fill="#172224"/>
<path d="M14.9374 11.1277L14.7768 11.0121L14.8065 10.9709C16.0477 9.23618 16.4621 7.09178 15.7285 6.19207C15.5223 5.93921 15.2447 5.80984 14.9017 5.80984C14.8957 5.80984 14.8878 5.80984 14.8818 5.80984C14.1205 5.82161 13.1529 6.47433 12.3578 7.51321L12.1992 7.3956C13.0439 6.29204 14.0451 5.62755 14.8799 5.61383C14.8878 5.61383 14.8957 5.61383 14.9037 5.61383C15.3022 5.61383 15.6412 5.77064 15.8851 6.06858C16.6703 7.03101 16.2598 9.28126 14.9711 11.0846L14.9393 11.1277H14.9374Z" fill="#172224"/>
<path d="M20.3404 20.1268C19.6008 20.1268 18.4647 19.7641 17.1621 19.0938L17.2533 18.9193C18.9227 19.7798 20.3384 20.1346 20.8579 19.8229C20.9868 19.7465 21.0482 19.6289 21.0482 19.4662C21.0482 18.5665 19.2281 16.7631 16.9023 15.3597L17.0054 15.1931C19.4224 16.6534 21.2445 18.49 21.2445 19.4681C21.2445 19.6994 21.1454 19.8798 20.959 19.9915C20.8063 20.0817 20.5962 20.1268 20.3384 20.1268H20.3404Z" fill="#172224"/>
<path d="M15.8623 26.9206C14.9998 26.9206 13.4731 24.3665 12.3945 21.8085L12.5769 21.7341C13.9014 24.8781 15.323 26.7756 15.8802 26.7265C15.9496 26.7207 16.0011 26.6854 16.0467 26.6129C16.3758 26.0915 16.0784 23.9686 14.8789 20.9206L15.0633 20.85C16.1617 23.6374 16.6356 26.0503 16.2152 26.7167C16.1379 26.8402 16.0269 26.9108 15.898 26.9226C15.8861 26.9226 15.8742 26.9226 15.8623 26.9226V26.9206Z" fill="#172224"/>
<path d="M6.26657 21.3303C5.87201 21.3303 5.53098 21.1793 5.28513 20.8775C4.80729 20.2914 4.75177 19.2055 5.13642 17.9745L5.32478 18.0333C4.95798 19.2016 5.0016 20.2189 5.4378 20.7559C5.88787 21.3087 6.69484 21.2617 7.595 20.6305L7.71 20.7912C7.19647 21.1519 6.69682 21.3322 6.26459 21.3322L6.26657 21.3303Z" fill="#172224"/>
<path d="M3.1327 11.0062C1.22929 9.66153 0 8.26787 0 7.45441C0 7.22115 0.101119 7.04082 0.29146 6.92713C0.912052 6.56058 2.45461 6.95261 4.3144 7.94836L4.21923 8.12086C2.47444 7.18783 0.935845 6.7762 0.392579 7.0957C0.261719 7.17215 0.198272 7.28976 0.198272 7.45441C0.198272 8.18358 1.45135 9.57724 3.2477 10.8455L3.1327 11.0042V11.0062Z" fill="#172224"/>
<path d="M12.3179 7.91309L12.1196 7.90917C12.1196 7.80725 12.1216 7.70336 12.1216 7.59947C12.1216 4.7553 11.4316 2.04835 10.585 1.56419C10.4363 1.4799 10.2995 1.47598 10.1626 1.55439C9.56386 1.89545 9.14749 3.63606 9.14749 5.78634H8.94922C8.94922 3.49885 9.3874 1.77196 10.0635 1.38582C10.2618 1.27409 10.4759 1.27605 10.6841 1.39562C11.6021 1.92094 12.3198 4.64554 12.3198 7.60143C12.3198 7.70728 12.3198 7.81117 12.3179 7.91506V7.91309Z" fill="#172224"/>
<path d="M16.434 15.148L16.4202 14.952C16.4658 14.9481 16.5114 14.9461 16.555 14.9422C17.9746 14.8206 19.1226 14.3228 19.5489 13.6446C19.7373 13.3447 19.771 13.035 19.648 12.7213C19.2436 11.6962 17.3084 10.9788 15.2365 11.0885L15.2266 10.8925C17.3778 10.7808 19.4002 11.5511 19.8324 12.6508C19.9772 13.0193 19.9375 13.3995 19.7174 13.7484C19.2574 14.4796 18.0519 15.0127 16.5708 15.1382C16.5252 15.1421 16.4777 15.146 16.4321 15.148H16.434Z" fill="#172224"/>
<path d="M19.4647 24.8683C18.6577 24.8683 16.786 23.261 14.8965 20.9441L14.7656 20.7834L14.9203 20.6619L15.0492 20.8206C17.1152 23.3551 18.8262 24.6723 19.4607 24.6723C19.4647 24.6723 19.4706 24.6723 19.4746 24.6723C19.5598 24.6704 19.6173 24.6429 19.657 24.588C20.0198 24.0804 18.8302 21.6047 16.4846 18.7252C16.4252 18.6527 16.3657 18.5802 16.3062 18.5096L16.4589 18.3861C16.5184 18.4587 16.5778 18.5312 16.6373 18.6037C18.6121 21.0265 20.341 23.9706 19.8176 24.7037C19.7423 24.8076 19.6253 24.8664 19.4805 24.8703C19.4746 24.8703 19.4686 24.8703 19.4627 24.8703L19.4647 24.8683Z" fill="#172224"/>
<path d="M10.9082 25.6073C10.8012 25.6073 10.6921 25.5759 10.5851 25.5152C9.91886 25.1349 9.32801 23.5276 9.07422 21.4224L9.27051 21.3989C9.5124 23.4139 10.0795 24.9997 10.6822 25.3447C10.8269 25.427 10.9618 25.4329 11.0946 25.3603C11.6339 25.0663 12.0305 23.6628 12.1058 21.7811L12.3041 21.7889C12.2248 23.7667 11.7985 25.1996 11.1898 25.5309C11.0986 25.5818 11.0034 25.6053 10.9063 25.6053L10.9082 25.6073Z" fill="#172224"/>
<path d="M3.63656 15.7262C2.52822 15.4087 1.75099 14.8618 1.49919 14.2228C1.20376 13.4721 1.68953 12.6998 2.76615 12.2078L2.84942 12.3861C1.86203 12.837 1.42583 13.4956 1.68358 14.1522C1.91159 14.7324 2.64322 15.2381 3.6901 15.538L3.63458 15.7262H3.63656Z" fill="#172224"/>
<path d="M4.34894 7.91311C2.55458 5.63542 1.00409 2.95983 1.51166 2.25221C1.58701 2.14833 1.70399 2.08952 1.85071 2.0856C1.85666 2.0856 1.86261 2.0856 1.86855 2.0856C2.6775 2.0856 4.55514 3.69292 6.45062 6.00981L6.29597 6.1333C4.22204 3.59883 2.50699 2.28162 1.86855 2.28162C1.86459 2.28162 1.85864 2.28162 1.85467 2.28162C1.76942 2.28358 1.71192 2.31102 1.67226 2.3659C1.34115 2.82654 2.33053 5.0317 4.50557 7.79158L4.34894 7.91115V7.91311Z" fill="#172224"/>
<path d="M11.6055 21.7203C11.1435 21.7203 10.6459 21.6694 10.1224 21.5498C8.50256 21.1813 6.19467 20.0581 4.41418 16.7984C2.95887 14.1346 2.64956 11.4453 3.54575 9.22443C4.18221 7.64455 5.40554 6.4273 6.81724 5.97059C6.89655 5.94511 6.98776 5.92747 7.09284 5.91767C8.1298 5.63737 9.37495 5.88042 10.6776 6.62528C13.9808 8.51094 16.6674 13.0977 16.6674 16.8494C16.6674 18.9017 15.8644 20.3796 14.4646 20.9069L14.4428 20.9226C13.84 21.3518 12.8467 21.7184 11.6075 21.7184L11.6055 21.7203ZM7.9692 6.00391C7.67576 6.00391 7.39421 6.0392 7.12655 6.11172C7.01948 6.12348 6.94414 6.1372 6.87871 6.15876C5.52253 6.5998 4.34479 7.77392 3.73014 9.29891C2.85775 11.4649 3.16309 14.0954 4.58866 16.7063C6.33544 19.9013 8.58583 21.001 10.168 21.3597C12.0259 21.7811 13.5347 21.3303 14.3258 20.7658L14.3556 20.7422C14.3556 20.7422 14.3714 20.7324 14.3793 20.7285C15.7058 20.2365 16.4672 18.8233 16.4672 16.8494C16.4672 13.1584 13.8242 8.64815 10.5765 6.79385C9.6565 6.26853 8.77022 6.00195 7.9692 6.00195V6.00391Z" fill="#172224"/>
</g>
<defs>
<clipPath id="clip0_6741_2042">
<rect width="28" height="48" fill="white"/>
</clipPath>
</defs>
</svg>
