<svg width="58" height="48" viewBox="0 0 58 48" fill="none" xmlns="http://www.w3.org/2000/svg">
<g clip-path="url(#clip0_6741_2103)">
<path d="M49.9599 27.7611L56.7414 38.3205L43.2031 44.4847L44.7049 29.5929L44.7565 29.64L46.8935 27.9968L49.1361 29.0429L49.9599 27.7611Z" fill="#D2FC1B"/>
<path d="M45.578 20.9325L49.962 27.7611L49.1382 29.0429L46.8957 27.9968L44.7587 29.64L44.707 29.5929L45.578 20.9325Z" fill="#C2C7CC"/>
<path d="M45.5753 20.9325L44.7043 29.5929L43.5617 28.5962L41.6222 29.741L40.2305 27.3773L45.5753 20.9325Z" fill="white"/>
<path d="M44.7052 29.5928L43.2035 44.4847L32.5273 36.6661L40.2314 27.3773L41.6232 29.741L43.5627 28.5962L44.7052 29.5928Z" fill="white"/>
<path d="M27.8577 14.6494L38.3296 29.6737L32.5269 36.6661L14.4609 42.1501L17.8663 18.7484L17.8932 18.7933L23.3637 15.563L26.0507 17.0042L27.8577 14.6494Z" fill="#D2FC1B"/>
<path d="M27.8587 14.6494L26.0516 17.0042L23.3646 15.563L17.8941 18.7932L17.8672 18.7484L20.0873 3.4996L27.8587 14.6494Z" fill="#C2C7CC"/>
<path d="M20.0893 3.4996L17.8693 18.7484L15.9051 15.2622L12.823 15.8593L11.75 13.2666L20.0893 3.4996Z" fill="white"/>
<path d="M17.8676 18.7484L14.4623 42.1501L0.335938 26.632L11.7484 13.2666L12.8214 15.8593L15.9034 15.2622L17.8676 18.7484Z" fill="white"/>
<path d="M32.5282 36.6661L43.2044 44.4847L56.7426 38.3205L45.5771 20.9325L32.5282 36.6661ZM32.5282 36.6661L14.4623 42.1501L0.335938 26.632L20.0877 3.4996L38.331 29.6737" stroke="#172224" stroke-width="0.673432" stroke-linecap="round" stroke-linejoin="round"/>
<path d="M43.2031 44.4824L45.5758 20.9325" stroke="#172224" stroke-width="0.673432" stroke-linecap="round" stroke-linejoin="round"/>
<path d="M20.0863 3.4996L14.4609 42.1501" stroke="#172224" stroke-width="0.673432" stroke-linecap="round" stroke-linejoin="round"/>
<path d="M11.75 13.2666L12.823 15.8593L15.9051 15.2622L17.8962 18.7933L23.3667 15.563L26.0537 17.0042L27.8607 14.6494" stroke="#172224" stroke-width="0.673432" stroke-linecap="round" stroke-linejoin="round"/>
<path d="M40.2305 27.3773L41.6222 29.741L43.5617 28.5962L44.7559 29.64L46.893 27.9968L49.1355 29.0429L49.9593 27.7611" stroke="#172224" stroke-width="0.673432" stroke-linecap="round" stroke-linejoin="round"/>
</g>
<defs>
<clipPath id="clip0_6741_2103">
<rect width="57.0801" height="48" fill="white"/>
</clipPath>
</defs>
</svg>
