<svg width="51" height="48" fill="none" xmlns="http://www.w3.org/2000/svg"><g clip-path="url(#clip0_6741_1826)"><path d="M15.88 23.269v3.416c0 .619-.41 1.235-1.227 1.709-1.633.942-4.281.942-5.914 0-.818-.474-1.227-1.09-1.227-1.709V23.27c0 .616.409 1.234 1.227 1.705 1.633.943 4.28.943 5.914 0 .818-.47 1.227-1.09 1.227-1.705z" fill="#fff"/><path d="M15.881 19.847v3.422c0 .616-.409 1.235-1.227 1.706-1.633.942-4.28.942-5.914 0-.818-.472-1.232-1.09-1.232-1.706v-3.422c0 .619.409 1.237 1.227 1.708 1.633.945 4.28.945 5.914 0 .823-.47 1.232-1.09 1.232-1.708z" fill="#5F646B"/><path d="M15.881 16.428v3.419c0 .619-.409 1.237-1.227 1.708-1.633.945-4.28.945-5.914 0-.818-.47-1.232-1.09-1.232-1.708v-3.42c0 .62.409 1.238 1.227 1.71 1.633.944 4.28.944 5.914 0 .823-.472 1.232-1.09 1.232-1.71z" fill="#5F646B"/><path d="M15.881 13.011v3.417c0 .619-.409 1.237-1.227 1.708-1.633.945-4.28.945-5.914 0-.818-.47-1.232-1.09-1.232-1.708V13.01c0 .616.409 1.235 1.227 1.706 1.633.945 4.28.945 5.914 0 .823-.481 1.232-1.09 1.232-1.706z" fill="#5F646B"/><path d="M15.881 9.59v3.421c0 .617-.409 1.235-1.227 1.706-1.633.945-4.28.945-5.914 0-.818-.481-1.232-1.09-1.232-1.706V9.59c0 .62.409 1.237 1.227 1.708 1.633.945 4.28.945 5.914 0 .823-.471 1.232-1.087 1.232-1.708z" fill="#5F646B"/><path d="M15.881 6.173V9.59c0 .62-.409 1.237-1.227 1.708-1.633.945-4.28.945-5.914 0-.818-.471-1.232-1.087-1.232-1.708V6.173c0 .616.409 1.235 1.227 1.706 1.633.945 4.28.945 5.914 0 .823-.471 1.232-1.09 1.232-1.706z" fill="#5F646B"/><path d="M15.881 3.882v2.296c0 .616-.409 1.235-1.227 1.706-1.633.945-4.28.945-5.914 0-.818-.476-1.232-1.095-1.232-1.71V2.807c0 .619.409 1.235 1.227 1.709 1.633.942 4.28.942 5.914 0 .818-.474 1.227-1.09 1.227-1.709l.005 1.074z" fill="#5F646B"/><path d="M14.654 1.095c.818.471 1.227 1.09 1.227 1.708 0 .619-.409 1.235-1.227 1.708-1.633.943-4.28.943-5.914 0-.818-.473-1.232-1.09-1.232-1.708 0-.618.409-1.237 1.227-1.708 1.638-.942 4.286-.942 5.92 0z" fill="#fff"/><path d="M15.881 2.803c0 .619-.409 1.235-1.227 1.708-1.633.943-4.28.943-5.914 0-.818-.473-1.232-1.09-1.232-1.708 0-.618.409-1.237 1.227-1.708 1.638-.942 4.286-.942 5.92 0 .817.471 1.226 1.09 1.226 1.708zM7.512 26.685V2.803m8.368 23.882c0 .619-.41 1.235-1.227 1.709-1.633.942-4.281.942-5.914 0-.818-.474-1.227-1.09-1.227-1.709m8.369-20.512c0 .616-.409 1.235-1.227 1.706-1.633.945-4.28.945-5.914 0-.818-.471-1.232-1.09-1.232-1.706m8.373 3.417c0 .62-.409 1.237-1.227 1.708-1.633.945-4.28.945-5.914 0-.818-.471-1.232-1.087-1.232-1.708m8.373 3.421c0 .616-.409 1.235-1.227 1.706-1.633.945-4.28.945-5.914 0-.818-.481-1.232-1.09-1.232-1.706m8.373 3.417c0 .619-.409 1.237-1.227 1.708-1.633.945-4.28.945-5.914 0-.818-.47-1.232-1.09-1.232-1.708m8.373 3.419c0 .619-.409 1.237-1.227 1.708-1.633.945-4.28.945-5.914 0-.818-.47-1.232-1.09-1.232-1.708m8.373 3.422c0 .616-.409 1.234-1.227 1.706-1.633.942-4.28.942-5.914 0-.818-.472-1.232-1.09-1.232-1.706m8.375-20.466v23.882" stroke="#172224" stroke-width=".776" stroke-linecap="round" stroke-linejoin="round"/><path d="M.39 34.052v3.398l17.604 10.164v-3.4L.39 34.051z" fill="#fff"/><path d="M.39 30.754v3.298l17.604 10.161v-3.295L.39 30.754z" fill="#fff"/><path d="M.39 27.332v3.422l17.604 10.164v-3.421L.39 27.332z" fill="#fff"/><path d="M.39 27.332l17.601 10.165 32.587-18.81-17.6-10.166L.39 27.332zm20.893-1.9c-2.33-1.335-2.33-3.51 0-4.847 2.33-1.338 6.08-1.338 8.4 0 2.319 1.338 2.329 3.512 0 4.848-2.33 1.335-6.08 1.343-8.4 0z" fill="#fff"/><path d="M17.992 44.213v3.401l32.584-18.809v-3.4L17.992 44.212z" fill="#C2C7CC"/><path d="M17.992 40.918v3.295l32.584-18.809V22.11L17.992 40.92z" fill="#C2C7CC"/><path d="M17.992 37.497v3.421L50.576 22.11v-3.422l-32.584 18.81z" fill="#C2C7CC"/><path d="M21.282 20.585c-2.33 1.338-2.33 3.512 0 4.848 2.33 1.335 6.08 1.343 8.4 0 2.318-1.344 2.329-3.51 0-4.848-2.33-1.338-6.08-1.338-8.4 0z" fill="#D2FC1B"/><path d="M36.695 13.946l-3.725-2.154-3.794 2.193m12.011 2.549l3.725 2.154-3.795 2.192M9.831 25.153l-3.776 2.18 3.724 2.15m11.994 2.563l-3.779 2.179-3.724-2.148m7.012-6.644c-2.33-1.336-2.33-3.51 0-4.848s6.08-1.338 8.4 0c2.318 1.338 2.329 3.512 0 4.848-2.33 1.335-6.08 1.343-8.4 0z" stroke="#172224" stroke-width=".776" stroke-linecap="round" stroke-linejoin="round"/><path d="M17.994 37.497l32.584-18.81L32.972 8.521.391 27.332l17.603 10.165z" stroke="#172224" stroke-width=".776" stroke-linecap="round" stroke-linejoin="round"/><path d="M50.578 18.688v10.117l-32.584 18.81L.39 37.45V27.332" stroke="#172224" stroke-width=".776" stroke-linecap="round" stroke-linejoin="round"/><path d="M50.578 25.404l-32.584 18.81L.39 34.051" stroke="#172224" stroke-width=".776" stroke-linecap="round" stroke-linejoin="round"/><path d="M50.578 22.11L17.994 40.917.39 30.754m17.602 6.743v10.115" stroke="#172224" stroke-width=".776" stroke-linecap="round" stroke-linejoin="round"/><path d="M47.325 31.836v3.417c0 .62-.409 1.24-1.227 1.708-1.633.945-4.28.945-5.914 0-.818-.469-1.227-1.087-1.227-1.708v-3.417c0 .619.409 1.237 1.227 1.708 1.633.943 4.28.943 5.914 0 .818-.481 1.227-1.1 1.227-1.708z" fill="#fff"/><path d="M47.325 28.407v3.43c0 .618-.409 1.236-1.227 1.707-1.633.943-4.28.943-5.914 0-.818-.47-1.227-1.09-1.227-1.708v-3.43c0 .622.409 1.238 1.227 1.709 1.633.945 4.28.945 5.914 0 .818-.471 1.227-1.087 1.227-1.708z" fill="#fff"/><path d="M47.325 24.988v3.419c0 .62-.409 1.237-1.227 1.708-1.633.945-4.28.945-5.914 0-.818-.471-1.227-1.087-1.227-1.708v-3.42c0 .62.409 1.238 1.227 1.709 1.633.942 4.28.942 5.914 0 .818-.471 1.227-1.09 1.227-1.709z" fill="#fff"/><path d="M47.325 22.692v2.296c0 .618-.409 1.237-1.227 1.708-1.633.942-4.28.942-5.914 0-.818-.471-1.227-1.09-1.227-1.709v-3.364c0 .618.409 1.234 1.227 1.705 1.633.945 4.28.945 5.914 0 .818-.47 1.227-1.087 1.227-1.705v1.069z" fill="#fff"/><path d="M46.098 19.912c.818.47 1.227 1.09 1.227 1.708 0 .619-.409 1.235-1.227 1.706-1.633.944-4.28.944-5.914 0-.818-.471-1.227-1.087-1.227-1.706s.409-1.237 1.227-1.708c1.633-.942 4.28-.942 5.914 0z" fill="#fff"/><path d="M47.325 21.62c0 .619-.409 1.235-1.227 1.706-1.633.944-4.28.944-5.914 0-.818-.471-1.227-1.087-1.227-1.706s.409-1.237 1.227-1.708c1.633-.942 4.28-.942 5.914 0 .818.47 1.227 1.09 1.227 1.708zm0 3.368c0 .618-.409 1.237-1.227 1.708-1.633.942-4.28.942-5.914 0-.818-.471-1.227-1.09-1.227-1.709m8.368 3.42c0 .62-.409 1.237-1.227 1.708-1.633.945-4.28.945-5.914 0-.818-.471-1.227-1.087-1.227-1.708m8.368 3.429c0 .619-.409 1.237-1.227 1.708-1.633.943-4.28.943-5.914 0-.818-.47-1.227-1.09-1.227-1.708" stroke="#172224" stroke-width=".776" stroke-linecap="round" stroke-linejoin="round"/><path d="M47.325 21.62v13.622c0 .622-.409 1.24-1.227 1.709-1.633.944-4.28.944-5.914 0-.818-.469-1.227-1.087-1.227-1.709V21.62" stroke="#172224" stroke-width=".776" stroke-linecap="round" stroke-linejoin="round"/></g><defs><clipPath id="clip0_6741_1826"><path fill="#fff" d="M0 0h50.964v48H0z"/></clipPath></defs></svg>