<svg width="47" height="48" fill="none" xmlns="http://www.w3.org/2000/svg"><g clip-path="url(#clip0_6741_1881)"><path d="M45.693 15.385V31L16.777 47.694v-16.28s4.64-2.51 11.767-6.452c-1.616 2.204-2.676 4.959-2.676 7.387 0 3.901 2.739 5.482 6.117 3.532 3.378-1.95 6.117-6.695 6.117-10.596 0-2.33-.978-3.834-2.486-4.248 3.546-1.98 6.56-3.658 10.077-5.652z" fill="#5F646B"/><path d="M45.693 9.434v5.951c-3.517 1.994-6.531 3.672-10.077 5.65-1.015-.28-2.27-.066-3.631.718-1.277.736-2.461 1.871-3.441 3.209-7.126 3.942-11.767 6.452-11.767 6.452v-5.286L45.693 9.434z" fill="#444"/><path d="M45.693 9.434L16.777 26.128.965 17.001 29.883.306l15.81 9.128zm-14.538.445a1.17 1.17 0 00.69-1.505l-1.21-3.264c-.231-.623-.68-1.082-1.267-1.293-.65-.235-1.403-.137-2.122.278l-8.782 5.071c-1.035.597-1.918 1.812-2.253 3.096l-1.21 4.661a1.171 1.171 0 102.268.59l1.211-4.662c.174-.674.66-1.37 1.156-1.657l8.783-5.07c.028-.017.055-.03.077-.042L29.65 9.19a1.17 1.17 0 001.505.69zm6.946 15.406c0 3.9-2.739 8.645-6.117 10.595-3.378 1.951-6.117.37-6.117-3.53 0-2.43 1.06-5.184 2.676-7.388.98-1.338 2.165-2.473 3.441-3.209 1.36-.784 2.616-.998 3.631-.716 1.508.414 2.486 1.917 2.486 4.248zm-2.919 2.908v-2.447l-2.138 1.234v-2.47l-2.12 1.224v2.471l-2.14 1.236v2.447l2.14-1.236v2.471l2.12-1.223v-2.471l2.139-1.236z" fill="#F8F8F8"/><path d="M35.184 25.746v2.447l-2.138 1.236v2.47l-2.12 1.224v-2.47l-2.14 1.235V29.44l2.14-1.236v-2.471l2.12-1.223v2.469l2.138-1.234z" fill="#D2FC1B"/><path d="M31.844 8.374a1.17 1.17 0 01-.69 1.505 1.17 1.17 0 01-1.506-.69l-1.154-3.107-.077.041-8.782 5.071c-.497.286-.983.983-1.156 1.657l-1.212 4.662a1.172 1.172 0 01-1.43.84c-.626-.16-1-.803-.838-1.43l1.21-4.66c.335-1.285 1.218-2.5 2.253-3.097l8.783-5.071c.718-.415 1.472-.513 2.122-.278.586.21 1.035.67 1.266 1.293l1.211 3.264z" fill="#172224"/><path d="M16.777 31.414v16.28L.965 38.564v-16.28l15.812 9.13z" fill="#F8F8F8"/><path d="M16.777 26.128v5.286L.965 22.284v-5.283l15.812 9.127z" fill="#F8F8F8"/><path d="M.965 17L29.883.307l15.81 9.128-28.916 16.694L.965 17.001zm15.812 9.128v21.566" stroke="#172224" stroke-width=".613" stroke-linecap="round" stroke-linejoin="round"/><path d="M.965 17v21.564l15.812 9.13 28.916-16.695V9.434m.001 5.951c-3.517 1.994-6.531 3.673-10.077 5.65" stroke="#172224" stroke-width=".613" stroke-linecap="round" stroke-linejoin="round"/><path d="M28.543 24.962c-7.126 3.942-11.766 6.452-11.766 6.452L.965 22.284m15.169-3.894a1.171 1.171 0 01-1.136-1.466l1.212-4.662c.334-1.284 1.217-2.5 2.252-3.096l8.783-5.071c.718-.415 1.472-.513 2.122-.278.586.21 1.035.67 1.266 1.293l1.211 3.264a1.17 1.17 0 01-.69 1.505 1.17 1.17 0 01-1.506-.69l-1.154-3.107-.077.041-8.782 5.071c-.497.286-.983.983-1.156 1.657l-1.212 4.662a1.172 1.172 0 01-1.133.877zm19.05 7.356l-2.138 1.234v-2.47l-2.12 1.224v2.471l-2.14 1.236v2.447l2.14-1.236v2.471l2.12-1.223v-2.471l2.138-1.236v-2.447z" stroke="#172224" stroke-width=".613" stroke-linecap="round" stroke-linejoin="round"/><path d="M28.543 24.962c-1.616 2.204-2.676 4.959-2.676 7.387 0 3.901 2.739 5.482 6.117 3.532 3.378-1.951 6.117-6.695 6.117-10.596 0-2.33-.978-3.832-2.486-4.248-1.015-.28-2.27-.068-3.63.716-1.277.736-2.462 1.871-3.442 3.209z" stroke="#172224" stroke-width=".613" stroke-linecap="round" stroke-linejoin="round"/></g><defs><clipPath id="clip0_6741_1881"><path fill="#fff" transform="translate(.5)" d="M0 0h46v48H0z"/></clipPath></defs></svg>