<svg width="75" height="48" fill="none" xmlns="http://www.w3.org/2000/svg"><g clip-path="url(#clip0_6741_1908)"><path d="M2.733 30.958c2.567 3.066 6.116 5.493 10.257 7.016a27.11 27.11 0 007.887 1.67 4.11 4.11 0 002.249-.523c.655-.379 1.133-.93 1.354-1.56 0-.042.025-.084.04-.122a.904.904 0 00.005-.496 1.028 1.028 0 00-.263-.447 1.333 1.333 0 00-.477-.306 1.593 1.593 0 00-.592-.103c-.465.012-.93 0-1.393-.033-1.672-.122-3.796-.702-6.003-1.56-4.28-1.654-8.843-4.349-11.024-6.76-.605-.623-1.02-1.354-1.211-2.134 2.83-2.842 6.39-5.139 10.428-6.727 3.934 3.453 8.298 6.194 13.69 7.602 1.11.291 2.303.29 3.412-.004 1.11-.293 2.078-.865 2.769-1.633 1.243-1.384 3.574-3.935 5.363-5.897.322-.356.552-.762.675-1.193a2.67 2.67 0 00.04-1.315 2.942 2.942 0 00-.599-1.22 3.704 3.704 0 00-1.141-.925c-3.404-1.833-8.778-4.375-13.53-5.078 5.557-3.773 12.01-6.56 18.95-8.186 3.66-.875 7.569-.75 11.134.354l8.88 3.057c2.985.924 5.487 2.664 7.083 4.927l.247.348c1.625 2.306 2.593 4.882 2.829 7.537l.618 7.025v-.044a2.856 2.856 0 00-.597-1.68c-.629-1.21-1.843-2.55-4.097-2.181-.466.08-.917.209-1.342.384-2.833 1.131-5.56 3.256-5.596 9.16 0 .407 0 .833.033 1.28l-19.82 9.352s.727-9.111-7.607-5.117c-.08.036-.16.078-.24.12-5.963 3.012-6.577 7.575-6.468 9.763a6.7 6.7 0 00.156 1.227c-4.756 2.036-13.013-.578-17.878-3.852-4.538-3.057-12.799-7.145-9.683-13.86a14.6 14.6 0 001.462 2.134zm35.364-3.768l30.39-14.363s-.226-8.335-12.312-2.515c-12.086 5.819-18.078 16.89-18.078 16.89v-.012z" fill="#fff"/><path d="M74.404 24.228a6.207 6.207 0 01-.636 2.8c-1.324 2.796-4.258 4.924-6.545 4.764a2.81 2.81 0 01-1.026-.265c-1.454-.72-1.818-2.769-.727-5.096 1.324-2.793 4.258-4.921 6.545-4.763.35.023.691.109.996.253.32.154.592.365.797.619.275.54.475 1.103.596 1.679v.009z" fill="#5F646B"/><path d="M73.8 22.54c.382.505.588 1.085.597 1.679a6.713 6.713 0 00-.596-1.679zm0 0a2.263 2.263 0 00-.795-.62l-3.302-1.56c2.254-.371 3.469.968 4.098 2.18z" fill="#fff"/><path d="M73.005 21.918a2.743 2.743 0 00-.997-.253c-2.29-.167-5.225 1.961-6.544 4.762-1.091 2.328-.728 4.38.727 5.097l-3.425-1.617c.036-5.903 2.763-8.037 5.595-9.16a6.296 6.296 0 011.342-.383l3.302 1.554z" fill="#172224"/><path d="M68.487 12.839L38.097 27.2s5.993-11.058 18.079-16.878 12.311 2.516 12.311 2.516zM39.68 37.683c1.49.708 1.868 2.765.76 5.108-1.324 2.792-4.255 4.92-6.545 4.763a2.867 2.867 0 01-1.026-.265c-1.454-.72-1.818-2.772-.727-5.097C33.47 39.4 36.4 37.27 38.687 37.43c.35.022.689.109.992.253zm.248-21.248c.094.436.078.883-.047 1.314a3.024 3.024 0 01-.68 1.192c-1.79 1.962-4.12 4.513-5.364 5.897-.691.768-1.66 1.34-2.768 1.633a6.745 6.745 0 01-3.413.004c-5.37-1.408-9.734-4.15-13.668-7.602l.313-.117c1.09-1.14 4.17-5.322 10.366-9.552 4.752.703 10.127 3.245 13.53 5.084a3.7 3.7 0 011.136.927c.297.37.5.784.595 1.22z" fill="#5F646B"/><path d="M39.68 37.68a2.725 2.725 0 00-.993-.253c-2.294-.17-5.225 1.961-6.545 4.763-1.09 2.324-.727 4.378.727 5.096l-4.17-1.97c-.11-2.189.458-6.815 6.468-9.765l4.513 2.129z" fill="#172224"/><path d="M23.19 36.09c.205-.003.408.032.593.103.186.07.349.175.477.306.128.13.218.283.263.447a.904.904 0 01-.005.496c0 .038-.029.08-.04.122-.221.63-.699 1.181-1.354 1.56a4.11 4.11 0 01-2.25.523 27.11 27.11 0 01-7.886-1.67 14.896 14.896 0 012.807-3.476c2.207.857 4.33 1.437 6.003 1.56.463.032.928.042 1.393.03z" fill="#fff"/><path d="M15.799 34.498a14.894 14.894 0 00-2.807 3.476c-4.141-1.523-7.69-3.95-10.258-7.016a28.952 28.952 0 012.04-3.224c2.182 2.411 6.745 5.105 11.025 6.764z" fill="#969A9E"/><path d="M3.56 25.6c.192.78.607 1.511 1.212 2.134a28.946 28.946 0 00-2.04 3.224 14.51 14.51 0 01-1.455-2.146c.241-.513.528-1.01.858-1.488A13.36 13.36 0 013.561 25.6z" fill="#fff"/><path d="M74.4 24.219a6.658 6.658 0 00-.596-1.679c-.629-1.215-1.843-2.548-4.097-2.182-.466.08-.917.209-1.342.384-2.833 1.131-5.552 3.257-5.596 9.16 0 .407 0 .833.033 1.28l-19.81 9.361s.728-9.111-7.606-5.117c-.08.036-.16.078-.24.12-5.963 3.012-6.577 7.572-6.468 9.763a6.7 6.7 0 00.156 1.227c-4.756 2.036-13.013-.578-17.878-3.852-4.538-3.057-12.78-7.145-9.683-13.86.241-.513.528-1.01.858-1.489.42-.608.9-1.189 1.433-1.735 2.846-2.829 6.403-5.123 10.428-6.727l.313-.117c1.09-1.14 4.17-5.322 10.366-9.552 5.557-3.77 12.01-6.556 18.95-8.18 3.66-.875 7.569-.75 11.134.354l8.88 3.057c2.984.924 5.487 2.664 7.082 4.927l.248.348c1.625 2.306 2.592 4.882 2.828 7.537l.618 7.025v-.044l-.01-.01z" stroke="#172224" stroke-width="1.091" stroke-linecap="round" stroke-linejoin="round"/><path d="M39.68 37.683c1.49.708 1.868 2.765.76 5.108-1.324 2.792-4.255 4.92-6.545 4.763a2.867 2.867 0 01-1.026-.265c-1.454-.72-1.818-2.772-.727-5.097C33.47 39.4 36.4 37.27 38.687 37.43c.35.022.689.109.992.253z" stroke="#172224" stroke-width="1.091" stroke-linecap="round" stroke-linejoin="round"/><path d="M39.664 37.68l-4.52-2.135-.003-.006m-6.465 9.77l4.2 1.986m41.528-23.067a6.207 6.207 0 01-.636 2.8c-1.324 2.796-4.258 4.924-6.545 4.764a2.81 2.81 0 01-1.026-.265c-1.454-.72-1.818-2.769-.727-5.096 1.324-2.793 4.258-4.921 6.545-4.763.35.023.691.109.996.253.32.154.592.365.797.619a2.86 2.86 0 01.596 1.679v.009zm-1.399-2.31l-3.302-1.56m-6.937 9.543l3.454 1.632m-28.122-4.332l30.39-14.362s-.226-8.335-12.312-2.516c-12.086 5.82-18.078 16.878-18.078 16.878zm-24.11-8.329c3.934 3.454 8.298 6.195 13.69 7.603 1.11.291 2.303.29 3.412-.004 1.11-.293 2.078-.865 2.77-1.633 1.243-1.384 3.573-3.935 5.362-5.897.322-.356.552-.762.675-1.193a2.67 2.67 0 00.041-1.315 2.941 2.941 0 00-.6-1.22 3.702 3.702 0 00-1.141-.925c-3.404-1.833-8.778-4.375-13.53-5.078M1.27 28.824c.413.746.9 1.464 1.454 2.146 2.574 3.06 6.125 5.483 10.264 7.004a27.21 27.21 0 007.887 1.67 4.11 4.11 0 002.25-.523c.654-.379 1.132-.93 1.353-1.56 0-.042.026-.084.04-.123a.903.903 0 00.005-.495 1.028 1.028 0 00-.263-.447 1.332 1.332 0 00-.476-.306 1.593 1.593 0 00-.593-.103c-.464.012-.93 0-1.393-.033-1.672-.122-3.795-.705-6.003-1.56-4.28-1.657-8.842-4.352-11.024-6.76-.604-.623-1.019-1.354-1.21-2.134m12.234 8.898a14.896 14.896 0 00-2.807 3.476M2.734 30.973a28.928 28.928 0 012.04-3.239" stroke="#172224" stroke-width="1.091" stroke-linecap="round" stroke-linejoin="round"/><path d="M51.419 24.18l-2.563 6.745 3.028-1.431-1.992 5.301 8.69-10.273-4.941 2.334 2.443-4.879-4.665 2.203z" fill="#D2FC1B"/></g><defs><clipPath id="clip0_6741_1908"><path fill="#fff" transform="translate(.047)" d="M0 0h74.909v48H0z"/></clipPath></defs></svg>