<svg width="42" height="48" fill="none" xmlns="http://www.w3.org/2000/svg"><g clip-path="url(#clip0_6741_1942)"><path d="M37.363 12.047v13.505c0 1.868-1.132 4.022-2.53 4.83L5.55 47.296c-.636.366-1.215.39-1.658.131-.534-.31-.872-1.025-.872-2.044V31.88l34.343-19.833zM14.845 34.733v-2.066c0-1.067-.65-1.561-1.454-1.097l-5.242 3.032c-.8.46-1.452 1.706-1.452 2.77v2.066c0 1.068.651 1.556 1.452 1.094l5.247-3.029c.803-.467 1.455-1.705 1.455-2.775l-.006.005z" fill="#DAE0E5"/><path d="M37.368 7.275v4.772L3.02 31.88v-4.772L37.368 7.275z" fill="#172224"/><path d="M37.363 4.129v3.146L3.02 27.108v-3.147c0-1.868 1.131-4.024 2.53-4.833l29.288-16.91c.617-.355 1.182-.387 1.623-.152.552.301.902 1.027.902 2.063z" fill="#fff"/><path d="M33.872.571l2.589 1.495c-.44-.235-1.007-.203-1.623.152L5.549 19.128c-1.398.8-2.53 2.97-2.53 4.833v21.41c0 1.02.34 1.735.873 2.044l-2.618-1.51C.74 45.598.398 44.88.398 43.863V22.445c0-1.857 1.132-4.03 2.536-4.83L32.217.705c.635-.366 1.214-.39 1.655-.134z" fill="#444"/><path d="M14.849 32.667v2.06c0 1.068-.651 2.31-1.455 2.776l-5.247 3.03c-.8.461-1.452-.027-1.452-1.095v-2.074c0-1.067.652-2.31 1.452-2.77l5.247-3.024c.804-.464 1.455.03 1.455 1.097z" fill="#D2FC1B"/><path d="M37.363 12.047v13.505c0 1.868-1.132 4.022-2.53 4.83L5.55 47.296c-.636.366-1.215.39-1.658.131-.534-.31-.872-1.025-.872-2.044v-21.42c0-1.869 1.131-4.025 2.53-4.834l29.288-16.91c.617-.355 1.182-.387 1.623-.152.552.299.907 1.027.907 2.063l-.005 7.918zM3.02 27.108L37.368 7.275M3.02 31.88l34.348-19.833" stroke="#172224" stroke-width=".801" stroke-linecap="round" stroke-linejoin="round"/><path d="M13.394 37.503l-5.247 3.03c-.8.461-1.452-.027-1.452-1.095v-2.074c0-1.067.652-2.31 1.452-2.77l5.247-3.024c.8-.464 1.455.03 1.455 1.097v2.06c0 1.07-.651 2.31-1.455 2.776z" stroke="#172224" stroke-width=".801" stroke-linecap="round" stroke-linejoin="round"/><path d="M36.492 2.084L33.873.571c-.44-.267-1.02-.232-1.655.134L2.934 17.615c-1.404.8-2.536 2.973-2.536 4.83v21.426c0 1.017.34 1.735.876 2.042l2.618 1.513" stroke="#172224" stroke-width=".801" stroke-linecap="round" stroke-linejoin="round"/><path d="M41.007 39.398v4.537c0 .82-.534 1.639-1.623 2.26-2.164 1.253-5.671 1.253-7.835 0-1.068-.621-1.623-1.44-1.623-2.26v-4.537c0 .817.534 1.636 1.623 2.263 2.164 1.247 5.67 1.247 7.835 0 1.084-.627 1.623-1.446 1.623-2.263z" fill="#fff"/><path d="M41.007 34.87v4.536c0 .817-.534 1.636-1.623 2.263-2.164 1.247-5.671 1.247-7.835 0-1.068-.627-1.623-1.446-1.623-2.263V34.87c0 .822.534 1.639 1.623 2.263 2.164 1.25 5.67 1.25 7.835 0 1.084-.624 1.623-1.44 1.623-2.263z" fill="#fff"/><path d="M41.007 30.34v4.537c0 .822-.534 1.639-1.623 2.263-2.164 1.25-5.671 1.25-7.835 0-1.068-.624-1.623-1.44-1.623-2.263V30.34c0 .82.534 1.639 1.623 2.263 2.164 1.247 5.67 1.247 7.835 0 1.084-.624 1.623-1.444 1.623-2.263z" fill="#DAE0E5"/><path d="M41.007 27.3v3.04c0 .82-.534 1.639-1.623 2.263-2.164 1.246-5.671 1.246-7.835 0-1.068-.624-1.623-1.444-1.623-2.263v-4.452c0 .82.534 1.636 1.623 2.263 2.164 1.247 5.67 1.247 7.835 0 1.084-.627 1.623-1.443 1.623-2.263V27.3z" fill="#fff"/><path d="M39.384 23.617c1.084.624 1.623 1.444 1.623 2.26 0 .817-.534 1.637-1.623 2.264-2.164 1.246-5.671 1.246-7.835 0-1.068-.627-1.623-1.444-1.623-2.263 0-.82.534-1.637 1.623-2.261 2.164-1.249 5.67-1.249 7.835 0z" fill="#fff"/><path d="M41.007 25.888c0 .82-.534 1.636-1.623 2.263-2.164 1.247-5.671 1.247-7.835 0-1.068-.627-1.623-1.443-1.623-2.263 0-.82.534-1.636 1.623-2.26 2.164-1.25 5.67-1.25 7.835 0 1.084.613 1.623 1.433 1.623 2.26zm0 4.452c0 .82-.534 1.639-1.623 2.263-2.164 1.247-5.671 1.247-7.835 0-1.068-.624-1.623-1.444-1.623-2.263m11.081 4.53c0 .821-.534 1.638-1.623 2.262-2.164 1.25-5.671 1.25-7.835 0-1.068-.624-1.623-1.44-1.623-2.263m11.081 4.529c0 .817-.534 1.636-1.623 2.263-2.164 1.247-5.671 1.247-7.835 0-1.068-.627-1.623-1.446-1.623-2.263" stroke="#172224" stroke-width=".801" stroke-linecap="round" stroke-linejoin="round"/><path d="M41.007 25.888v18.047c0 .82-.534 1.639-1.623 2.26-2.164 1.252-5.671 1.252-7.835 0-1.068-.621-1.623-1.44-1.623-2.26V25.888" stroke="#172224" stroke-width=".801" stroke-linecap="round" stroke-linejoin="round"/></g><defs><clipPath id="clip0_6741_1942"><path fill="#fff" d="M0 0h41.41v48H0z"/></clipPath></defs></svg>