<svg width="42" height="50" fill="none" xmlns="http://www.w3.org/2000/svg"><path d="M18.066 17.538l.07.041c1.422.815 2.303 2.568 2.303 5.065 0 4.98-3.497 11.037-7.808 13.524-2.151 1.243-4.099 1.373-5.509.556-1.41-.816-2.302-2.565-2.302-5.062 0-4.98 3.495-11.037 7.81-13.529 2.113-1.229 4.03-1.354 5.436-.595zm-5.435 14.83c2.492-1.442 4.503-4.937 4.503-7.823 0-2.885-2.011-4.048-4.503-2.606-2.492 1.442-4.518 4.94-4.518 7.82 0 2.878 2.021 4.048 4.518 2.608z" fill="#D2FC1B"/><path d="M10.81 5.078l.783.961c.342.437.77.798 1.258 1.062-.047.469-.07.94-.066 1.412v6.407c-1.144-.119-2.479.186-3.89.998v-4.952c0-2.604.704-4.604 1.915-5.888z" fill="#172224"/><path d="M27.43 48.485l-3.82-2.181c-1.444-.815-2.313-2.568-2.313-5.067 0-4.98 3.497-11.035 7.81-13.527a7.412 7.412 0 013.16-1.055v3.648c-4.004 2.7-7.15 8.392-7.15 13.117 0 2.497.878 4.252 2.313 5.065z" fill="#969A9E"/><path d="M19.423 4.893c-2.975-1.714-5.648-1.845-7.552-.666L15.695 1.8c1.915-1.208 4.616-1.092 7.618.638l2.334 1.344C31.46 7.14 36.174 15.3 36.174 22.015v11.428a4.605 4.605 0 00-1.886.64 8.485 8.485 0 00-2.004 1.667V24.468c0-2.607-.712-5.43-1.92-8.108-1.904-4.218-5.049-8.071-8.605-10.122l-2.336-1.345z" fill="#fff"/><path d="M11.591 6.039l-.782-.961c.294-.316.628-.592.993-.822l.046-.03c1.915-1.178 4.597-1.052 7.572.667l2.332 1.345c3.556 2.06 6.7 5.904 8.604 10.122l-.785.055c-.837.062-1.888-.655-2.606-1.808-1.39-2.222-3.215-4.14-5.213-5.296L19.42 7.964c-1.998-1.145-3.824-1.341-5.213-.721-.38.171-.86.112-1.348-.142a4.05 4.05 0 01-1.268-1.062z" fill="#5F646B"/><path d="M7.122 36.724l-3.82-2.18C1.881 33.73 1 31.978 1 29.49c0-4.982 3.504-11.021 7.81-13.527l.078-.044c1.41-.816 2.746-1.116 3.89-.997a3.854 3.854 0 011.538.485l3.749 2.142c-1.405-.76-3.323-.625-5.435.595-4.316 2.492-7.81 8.55-7.81 13.529 0 2.485.871 4.238 2.302 5.05z" fill="#969A9E"/><path d="M36.16 28.834v-.796l2.289 1.3-.074-.04a4.094 4.094 0 00-2.215-.464z" fill="#fff"/><path d="M17.132 24.546c0 2.88-2.021 6.38-4.513 7.821-2.492 1.442-4.517.273-4.517-2.608 0-2.882 2.03-6.38 4.526-7.82 2.497-1.44 4.504-.275 4.504 2.607z" fill="#172224"/><path d="M32.464 46.368c.687.382 1.57.41 2.56.025a12.515 12.515 0 01-2.089 1.535c-2.15 1.243-4.098 1.374-5.508.554-1.41-.819-2.302-2.565-2.302-5.062 0-4.725 3.147-10.416 7.151-13.117v3.536c-2.32 1.71-4.107 5.034-4.107 7.824 0 1.535.544 2.61 1.423 3.1l2.872 1.605z" fill="#D2FC1B"/><path d="M40.475 36.814c.054.314.081.633.08.952 0 3.039-2.133 6.735-4.767 8.254-.25.145-.511.27-.78.375-.991.385-1.875.357-2.561-.025-.879-.492-1.424-1.567-1.424-3.103 0-3.037 2.133-6.735 4.765-8.254 1.286-.744 2.446-.817 3.309-.369l.034.019c.694.38 1.172 1.116 1.344 2.15zm-4.687 5.33a3.12 3.12 0 001.41-2.44c0-.902-.632-1.266-1.41-.815a3.121 3.121 0 00-1.41 2.44c.01.897.643 1.263 1.42.812l-.01.002z" fill="#fff"/><path d="M31.032 43.265c0 1.535.545 2.61 1.424 3.103l-2.872-1.602c-.88-.49-1.424-1.565-1.424-3.1 0-2.784 1.787-6.115 4.108-7.825v1.91a8.485 8.485 0 012.005-1.665 4.605 4.605 0 011.885-.64v-.442c.037.016 2.625 1.457 2.948 1.64-.856-.457-2.023-.375-3.31.369-2.631 1.517-4.764 5.215-4.764 8.252z" fill="#172224"/><path d="M37.206 39.702a3.118 3.118 0 01-1.41 2.44c-.775.457-1.41.084-1.41-.816a3.122 3.122 0 011.41-2.439c.788-.45 1.41-.087 1.41.815z" fill="#172224"/><path d="M36.16 33.001v-4.167a4.094 4.094 0 012.204.458l.073.039c1.43.798 2.288 2.567 2.288 5.064a12.368 12.368 0 01-.249 2.419c-.18-1.032-.659-1.77-1.343-2.151.009-.003-2.936-1.646-2.973-1.662z" fill="#D2FC1B"/><path d="M30.35 16.36l-.785.055c-.838.062-1.888-.655-2.607-1.808-1.389-2.222-3.215-4.14-5.213-5.295l-2.323-1.348c-1.997-1.145-3.824-1.341-5.213-.721-.38.171-.858.11-1.347-.142a4.047 4.047 0 01-1.259-1.062l-.783-.961m7.246 12.46c-1.405-.76-3.323-.624-5.435.595-4.316 2.492-7.81 8.55-7.81 13.53 0 2.496.878 4.25 2.301 5.061 1.424.813 3.358.687 5.509-.556 4.311-2.487 7.808-8.545 7.808-13.524 0-2.497-.881-4.25-2.302-5.064" stroke="#172224" stroke-width=".687" stroke-linecap="round" stroke-linejoin="round"/><path d="M17.134 24.546c0-2.882-2.011-4.049-4.503-2.607-2.492 1.442-4.518 4.94-4.518 7.82 0 2.878 2.021 4.048 4.518 2.608 2.496-1.44 4.503-4.936 4.503-7.821z" stroke="#172224" stroke-width=".687" stroke-linecap="round" stroke-linejoin="round"/><path d="M7.122 36.724l-3.82-2.18C1.881 33.73 1 31.978 1 29.49c0-4.982 3.504-11.021 7.81-13.527l.078-.043c1.41-.817 2.746-1.12 3.89-.998a3.842 3.842 0 011.538.485l3.82 2.183m22.338 19.224c.162-.793.247-1.6.252-2.41 0-2.497-.87-4.266-2.289-5.064l-.073-.04a4.095 4.095 0 00-2.204-.457m-3.891 1.46c-4.005 2.7-7.152 8.392-7.152 13.117 0 2.497.879 4.25 2.302 5.062 1.424.813 3.357.687 5.509-.553a12.515 12.515 0 002.089-1.536" stroke="#172224" stroke-width=".687" stroke-linecap="round" stroke-linejoin="round"/><path d="M39.1 34.642c-.855-.458-2.022-.375-3.308.368-2.632 1.52-4.765 5.218-4.765 8.255 0 1.535.545 2.61 1.424 3.103.686.382 1.57.41 2.56.025.27-.105.53-.23.78-.375 2.635-1.52 4.768-5.216 4.768-8.255a5.39 5.39 0 00-.085-.95c-.183-1.031-.66-1.768-1.343-2.15M12.785 14.911V8.504c0-.472.024-.943.073-1.412" stroke="#172224" stroke-width=".687" stroke-linecap="round" stroke-linejoin="round"/><path d="M37.206 39.702c0-.902-.632-1.266-1.41-.815a3.12 3.12 0 00-1.41 2.44c0 .899.635 1.265 1.41.814a3.118 3.118 0 001.41-2.44zm-9.776 8.783l-3.82-2.181c-1.444-.815-2.313-2.568-2.313-5.067 0-4.98 3.497-11.035 7.81-13.527a7.412 7.412 0 013.16-1.055m3.893 1.383l2.277 1.3m.706 5.322l-2.975-1.659" stroke="#172224" stroke-width=".687" stroke-linecap="round" stroke-linejoin="round"/><path d="M32.268 33.839c-2.32 1.71-4.108 5.034-4.108 7.824 0 1.535.545 2.61 1.424 3.1l2.872 1.602M11.803 4.256c-.365.23-.699.506-.993.822-1.208 1.286-1.915 3.284-1.915 5.888v4.943" stroke="#172224" stroke-width=".687" stroke-linecap="round" stroke-linejoin="round"/><path d="M11.848 4.227L15.692 1.8c1.916-1.208 4.616-1.092 7.618.638l2.335 1.344C31.457 7.14 36.17 15.3 36.17 22.015v11.428a4.605 4.605 0 00-1.885.64 8.488 8.488 0 00-2.005 1.667V24.468c0-2.607-.712-5.43-1.92-8.108-1.904-4.215-5.048-8.071-8.605-10.122L19.42 4.893c-2.975-1.719-5.657-1.845-7.572-.666zm.002 0l-.045.03" stroke="#172224" stroke-width=".687" stroke-linecap="round" stroke-linejoin="round"/></svg>