<svg width="42" height="48" fill="none" xmlns="http://www.w3.org/2000/svg"><g clip-path="url(#clip0_6741_2007)"><path d="M40.955 8.988c.24.141.389.444.389.873a2.995 2.995 0 01-1.348 2.34c-.373.214-.714.237-.96.091h-.018c-.23-.147-.373-.441-.373-.863.021-.529.19-1.04.486-1.479.215-.352.507-.65.855-.871.373-.214.714-.234.969-.091z" fill="#D2FC1B"/><path d="M26.21.404l14.728 8.594c-.244-.143-.585-.123-.959.093-.35.217-.646.51-.865.86-.296.438-.464.95-.486 1.478 0 .422.143.716.373.864L24.294 3.7l-.067-.044a1.01 1.01 0 01-.325-.831 2.982 2.982 0 011.352-2.34c.365-.215.712-.233.956-.081z" fill="#5F646B"/><path d="M36.944 16.533l-2.536 18.404-16.805 9.704-2.236-12.517 21.577-15.59z" fill="#DAE0E5"/><path d="M36.944 16.543L15.367 32.124.301 23.536 21.888 7.951l15.056 8.592zM22.58 25.168l11.74-8.473L21.969 9.64 2.926 23.403l12.35 7.039 7.304-5.274z" fill="#fff"/><path d="M34.827 36.446c.367.202.593.664.593 1.311 0 1.293-.906 2.863-2.017 3.51-.557.325-1.068.356-1.433.144l-.026-.016c-.353-.22-.569-.666-.569-1.298 0-1.293.91-2.864 2.028-3.51.55-.323 1.057-.353 1.424-.141z" fill="#5F646B"/><path d="M34.828 36.446c-.369-.212-.875-.182-1.434.141-1.118.646-2.028 2.22-2.028 3.51 0 .632.216 1.078.57 1.298l-1.897-1.096c-.367-.212-.605-.666-.605-1.311a3.72 3.72 0 01.28-1.344l3.587-2.074 1.527.876z" fill="#172224"/><path d="M34.319 16.677l-11.74 8.481-.634-15.502.023-.016 12.35 7.037z" fill="#D2FC1B"/><path d="M24.346 42.6c.367.2.596.663.596 1.308 0 1.294-.908 2.865-2.018 3.51-.56.326-1.07.358-1.434.144l-.025-.016c-.355-.216-.567-.666-.567-1.297 0-1.293.906-2.863 2.018-3.51.557-.321 1.063-.35 1.43-.14z" fill="#5F646B"/><path d="M22.743 41.671l1.602.928c-.367-.202-.873-.181-1.432.14-1.12.647-2.018 2.219-2.018 3.51 0 .631.202 1.081.567 1.297l.024.016-1.922-1.11c-.365-.211-.591-.667-.591-1.313.01-.509.123-1.01.332-1.475l3.438-1.993zm-.796-32.015l.633 15.502-7.303 5.278-12.351-7.04 19.02-13.74z" fill="#172224"/><path d="M15.367 32.124l2.236 12.517-15.067-8.587L.301 23.536l15.066 8.588z" fill="#fff"/><path d="M22.743 41.671l11.665-6.734 2.536-18.404-21.577 15.591 2.236 12.517 5.14-2.97zM.3 23.536l15.067 8.588M24.23 3.656L21.878 7.95m.067 1.706l.634 15.502" stroke="#172224" stroke-width=".605" stroke-linecap="round" stroke-linejoin="round"/><path d="M39.006 12.283l-2.062 4.25-15.066-8.582L.3 23.536l2.235 12.518 15.067 8.587m21.404-32.358c-.23-.148-.373-.442-.373-.864.022-.529.19-1.04.486-1.479.219-.35.515-.644.865-.861.374-.216.715-.236.959-.093s.39.444.39.873a2.995 2.995 0 01-1.349 2.34c-.373.215-.714.237-.96.091M24.346 42.6c.367.2.596.663.596 1.308 0 1.294-.908 2.865-2.018 3.511-.56.325-1.07.357-1.434.143l-.025-.016c-.355-.216-.567-.666-.567-1.297 0-1.293.906-2.863 2.018-3.51.557-.321 1.063-.352 1.43-.14z" stroke="#172224" stroke-width=".605" stroke-linecap="round" stroke-linejoin="round"/><path d="M21.479 47.562l-1.923-1.11c-.365-.211-.591-.667-.591-1.313a3.78 3.78 0 01.333-1.475m3.444-1.993l1.602.928m7.592-1.204c-.353-.22-.569-.666-.569-1.298 0-1.293.91-2.864 2.028-3.51.559-.323 1.065-.353 1.432-.141s.593.664.593 1.311c0 1.293-.906 2.863-2.017 3.51-.557.325-1.067.356-1.433.144" stroke="#172224" stroke-width=".605" stroke-linecap="round" stroke-linejoin="round"/><path d="M31.962 41.41l-1.923-1.11c-.367-.213-.605-.666-.605-1.312a3.72 3.72 0 01.28-1.344m3.599-2.072l1.515.874m6.124-27.458L26.21.403c-.244-.14-.583-.123-.956.093a2.982 2.982 0 00-1.352 2.34 1.01 1.01 0 00.325.83l.066.044 14.728 8.593M22.58 25.158l-7.303 5.278-12.351-7.04L21.969 9.64l12.35 7.037-11.739 8.481z" stroke="#172224" stroke-width=".605" stroke-linecap="round" stroke-linejoin="round"/></g><defs><clipPath id="clip0_6741_2007"><path fill="#fff" d="M0 0h41.637v48H0z"/></clipPath></defs></svg>