<svg width="28" height="48" fill="none" xmlns="http://www.w3.org/2000/svg"><g clip-path="url(#clip0_6741_2042)"><path opacity=".08" d="M14.002 48.002c6.152 0 11.14-2.847 11.14-6.359s-4.988-6.358-11.14-6.358S2.863 38.13 2.863 41.642s4.987 6.359 11.14 6.359z" fill="#172224"/><path d="M16.203 34.163c-.35-.084-.707-.156-1.066-.215l1.066.215z" fill="#969A9E"/><path d="M17.8 34.304c9.094 2.01 10.998-6.833 9.774-9.643-7.01.793-9.368 6.339-10.04 8.585l.008.027a7.022 7.022 0 00-1.418 1.031l-1.023-.164c.091-2.713-.185-5.299-.645-7.64l-.263-1.377c.684 1.078 1.305 1.733 1.693 1.7.76-.065.349-2.725-.918-5.94 0-.004-.004-.008-.006-.011l.008.01c2.193 2.69 4.326 4.374 4.764 3.76.439-.613-.983-3.29-3.176-5.981l-.012-.014c.004.002.008.006.014.008 2.532 1.444 4.586 1.809 4.586.811 0-.998-2.052-2.977-4.586-4.422l-.01-.006c2.203-.188 3.625-1.242 3.186-2.356-.438-1.113-2.571-1.866-4.764-1.678-.028.002-.051.006-.08.01 1.26-1.77 1.668-3.954.909-4.883-.744-.911-2.33-.28-3.585 1.402-.01-2.854-.716-5.557-1.586-6.053-.876-.502-1.586 1.427-1.586 4.306v.065l-.018-.047C7.76 2.587 6.119.035 5.36.1c-.748.065-.361 2.638.856 5.782-2.145-2.58-4.195-4.17-4.625-3.573-.417.58.836 3.005 2.835 5.543-.048.063-.093.13-.139.194C1.942 6.788.097 6.51.097 7.454c0 .794 1.3 2.208 3.106 3.48a7.54 7.54 0 00-.058 1.229c-1.213.44-1.87 1.217-1.552 2.024.273.696 1.203 1.253 2.397 1.527a12.809 12.809 0 001.259 2.24c-.379 1.175-.369 2.27.113 2.863.545.67 1.546.503 2.536-.296a7.51 7.51 0 001.243.627c.222 2.129.805 3.89 1.49 4.283.788.449 1.438-1.059 1.565-3.456l.557 1.637c.84 2.958 1.482 6.535 1.367 10.371l-.05-.008a13.2 13.2 0 00-1.572-2.13c1.13-5.718-4.656-6.979-6.531-6.204.475 4.535 4.046 6.168 5.627 6.672.29.312.741.827 1.177 1.452-1.753.026-3.521.422-5.163 1.345-.916.516-4.73 2.846-4.518 6.024.146 2.207 2.081 3.779 3.21 4.424 4.28 2.444 11.222 2.444 15.502 0 2.142-1.221 3.21-2.823 3.21-4.424 0-2.084-2.02-3.556-3.21-4.424-1.175-.857-2.672-1.645-4.332-2.192l-.063-.01c.13-.096.26-.18.383-.255l.011.05-.002.002z" fill="#969A9E"/><path d="M17.535 33.246c.672-2.244 3.03-7.79 10.04-8.585 1.224 2.812-.68 11.655-9.774 9.643l-.266-1.06v.002zm-5.943-.933c-1.58-.504-5.153-2.137-5.627-6.672 1.877-.775 7.661.486 6.53 6.204l-.903.468z" fill="#D2FC1B"/><path d="M12.756 23.612c.844 2.977 1.49 6.582 1.364 10.445-.87-1.532-2.082-2.699-2.155-2.77a.499.499 0 00-.698.015.487.487 0 00.011.69c.024.021 2.288 2.205 2.677 4.333a26.445 26.445 0 01-1.132 5.258.487.487 0 00.47.636.494.494 0 00.47-.337 27.04 27.04 0 00.926-3.714.462.462 0 00.079-.127c1.67-3.9 4.267-4.326 4.382-4.342a.49.49 0 00.42-.55.491.491 0 00-.555-.417c-.107.014-2.193.326-3.993 2.839.264-3.233-.024-6.32-.563-9.072l-1.703-2.887z" fill="#969A9E"/><path d="M6.278 6.037c1.267 3.215 2.908 5.769 3.668 5.704.76-.064.349-2.724-.918-5.939C7.763 2.587 6.12.035 5.362.1c-.76.065-.35 2.725.918 5.94l-.002-.003zm5.853 1.611c-1.267 1.772-1.677 3.964-.918 4.897.76.933 2.405.253 3.672-1.52 1.267-1.771 1.678-3.963.918-4.896-.761-.933-2.405-.252-3.672 1.52zm4.432 7.396c-2.532-1.444-4.586-1.81-4.586-.811 0 .997 2.054 2.977 4.586 4.422 2.532 1.444 4.586 1.809 4.586.811 0-.998-2.055-2.977-4.586-4.422zm-1.596 5.839C13.7 17.67 12.058 15.115 11.3 15.18c-.76.065-.349 2.725.918 5.94 1.267 3.214 2.909 5.768 3.668 5.704.76-.065.35-2.725-.918-5.94zM9.03 19.3c1.265-1.77 1.675-3.96.916-4.893-.76-.933-2.403-.253-3.668 1.517-1.265 1.77-1.676 3.96-.916 4.893.76.933 2.403.253 3.668-1.517zm-4.346-7.423c2.532 1.444 4.586 1.809 4.586.811 0-.998-2.054-2.977-4.586-4.422C2.15 6.82.098 6.459.098 7.454c0 .998 2.054 2.978 4.586 4.423z" fill="#444"/><path d="M9.047 5.784c0 2.88.71 5.62 1.586 6.12.876.502 1.586-1.427 1.586-4.306 0-2.88-.71-5.62-1.586-6.12-.876-.502-1.586 1.427-1.586 4.306zm5.927 5.222c-2.193.186-3.614 1.241-3.176 2.356.438 1.116 2.572 1.866 4.764 1.678 2.193-.186 3.615-1.24 3.177-2.356-.438-1.113-2.572-1.866-4.765-1.678zm1.589 7.657c-2.193-2.692-4.327-4.376-4.765-3.762-.438.614.983 3.291 3.176 5.982 2.193 2.692 4.327 4.375 4.765 3.762.438-.614-.984-3.291-3.177-5.982zm-4.343 2.462c0-2.88-.71-5.62-1.587-6.12-.876-.502-1.586 1.427-1.586 4.306 0 2.88.71 5.62 1.586 6.12.876.502 1.586-1.427 1.586-4.306zm-5.846-5.248c2.2-.188 3.628-1.248 3.188-2.37-.44-1.12-2.582-1.875-4.782-1.687-2.201.188-3.629 1.248-3.189 2.37.44 1.12 2.582 1.875 4.783 1.687zM4.78 8.293c2.2 2.692 4.342 4.375 4.782 3.762.44-.614-.987-3.291-3.188-5.982C4.173 3.38 2.032 1.697 1.59 2.309c-.44.614.988 3.291 3.189 5.982v.002z" fill="#444"/><path d="M16.562 16.851c0-3.728-2.659-8.268-5.94-10.14-1.32-.752-2.54-.958-3.526-.693a1.08 1.08 0 00-.253.047c-2.863.929-5.34 5.21-2.346 10.688 2.994 5.479 7.925 5.485 9.882 4.093l.03-.023c1.314-.489 2.153-1.88 2.153-3.972z" fill="#fff"/><path d="M11.547 12.94c-.016-.356-.258-.905-.555-1.077-.331-.192-.524.2-.581.404-.093.329-.042.903.192 1.152.306.325.972.151.944-.478zm1.035 2.441c.123.475.5 1.155.89 1.29.401.14.57-.38.568-.778-.002-.64-.44-1.57-.833-1.76-.43-.208-.829.454-.625 1.25v-.002zm-2.204.022c.04.35.266.897.575 1.074.318.18.526-.14.577-.414.082-.439-.162-1.17-.466-1.385-.33-.234-.753.135-.686.725zm5.804 18.854a14.93 14.93 0 00-1.06-.213l.03-.194c.356.058.717.131 1.075.215l-.045.19v.002z" fill="#172224"/><path d="M14.053 47.486c-2.826 0-5.651-.613-7.8-1.84-.514-.294-3.085-1.89-3.26-4.503-.21-3.171 3.444-5.482 4.568-6.115 1.553-.874 3.306-1.331 5.21-1.359l.005.196c-1.872.028-3.593.477-5.116 1.333-1.1.62-4.673 2.874-4.469 5.932.167 2.514 2.663 4.061 3.16 4.345 4.248 2.425 11.158 2.425 15.405 0 2.038-1.164 3.16-2.705 3.16-4.34 0-2.034-1.985-3.48-3.17-4.343-1.245-.908-2.734-1.66-4.307-2.178l.064-.186c1.59.523 3.099 1.286 4.36 2.205 1.215.886 3.251 2.37 3.251 4.503 0 1.707-1.158 3.308-3.26 4.508-2.15 1.227-4.976 1.84-7.8 1.84l-.001.002zm6.275-12.787c-.769 0-1.616-.09-2.55-.296l.044-.193c4.358.963 6.787-.64 8.058-2.156 2.006-2.391 2.234-5.786 1.634-7.286-6.863.816-9.196 6.216-9.882 8.507l-.19-.054c.7-2.337 3.087-7.857 10.123-8.654a.1.1 0 01.103.058c.657 1.51.452 5.07-1.633 7.557C25 33.412 23.229 34.7 20.33 34.7l-.002-.002zm-8.766-2.292c-1.553-.496-5.213-2.146-5.694-6.755a.097.097 0 01.06-.1c1.032-.425 3.366-.286 5.063 1.082 1.037.837 2.157 2.423 1.602 5.232l-.194-.037c.535-2.713-.538-4.24-1.533-5.042-1.578-1.272-3.797-1.442-4.794-1.08.501 4.438 4.045 6.034 5.551 6.516l-.061.186v-.002z" fill="#172224"/><path d="M13.294 42.318a.587.587 0 01-.563-.766 26.238 26.238 0 001.126-5.225c-.39-2.097-2.623-4.243-2.645-4.265a.58.58 0 01-.014-.83.599.599 0 01.837-.015c.05.047 1.132 1.084 1.996 2.494.068-3.242-.392-6.63-1.37-10.074l.19-.053c1.018 3.585 1.478 7.11 1.368 10.477a.096.096 0 01-.075.093.103.103 0 01-.11-.048c-.871-1.534-2.087-2.697-2.138-2.746a.398.398 0 00-.557.01.382.382 0 00-.111.278.37.37 0 00.12.273c.024.021 2.31 2.219 2.707 4.387v.027a26.49 26.49 0 01-1.138 5.277.39.39 0 00.254.492.397.397 0 00.495-.251c.39-1.194.7-2.438.922-3.7a.086.086 0 01.022-.048.421.421 0 00.064-.102c1.69-3.95 4.346-4.385 4.457-4.4a.394.394 0 00.337-.44.398.398 0 00-.444-.333c-.088.012-2.144.312-3.926 2.798a.1.1 0 01-.115.035.1.1 0 01-.066-.1c.238-2.895.048-5.937-.56-9.044l.194-.037c.588 3.003.787 5.947.59 8.758 1.781-2.304 3.768-2.592 3.855-2.604a.594.594 0 01.438.114.579.579 0 01.228.388.589.589 0 01-.503.659c-.108.016-2.655.435-4.305 4.283a.587.587 0 01-.077.131 27.054 27.054 0 01-.924 3.703.589.589 0 01-.563.405l.004-.002zM9.05 6.131l-.113-.294C7.581 2.397 5.995.143 5.368.198c-.067.006-.119.041-.162.108-.341.525.012 2.534.86 4.886l-.186.065C4.986 2.774 4.657.788 5.041.198A.408.408 0 015.355 0c.908-.084 2.629 2.872 3.769 5.765.04.1.077.198.115.296l-.187.068-.002.002zm5.887 4.997l-.16-.116.03-.041c1.24-1.735 1.655-3.88.921-4.779a1.018 1.018 0 00-.826-.382h-.02c-.761.012-1.73.664-2.524 1.703l-.159-.117c.845-1.104 1.846-1.768 2.68-1.782h.025c.398 0 .737.157.981.455.785.962.375 3.212-.914 5.016l-.032.043h-.002zm5.403 8.999c-.74 0-1.875-.363-3.178-1.033l.091-.175c1.67.86 3.085 1.216 3.605.904.129-.076.19-.194.19-.357 0-.9-1.82-2.703-4.146-4.106l.103-.167c2.417 1.46 4.24 3.297 4.24 4.275 0 .231-.1.412-.286.523-.153.09-.363.136-.62.136h.001z" fill="#172224"/><path d="M15.862 26.92c-.862 0-2.389-2.554-3.467-5.112l.182-.074c1.324 3.144 2.746 5.042 3.303 4.992.07-.005.121-.04.167-.113.329-.521.031-2.644-1.168-5.692l.184-.071c1.099 2.787 1.573 5.2 1.152 5.867a.414.414 0 01-.317.206h-.036v-.002zm-9.595-5.59a1.22 1.22 0 01-.982-.452c-.478-.587-.533-1.672-.149-2.904l.189.06c-.367 1.168-.323 2.185.113 2.722.45.553 1.257.506 2.157-.125l.115.16c-.514.36-1.013.541-1.445.541l.002-.002zM3.133 11.006C1.229 9.662 0 8.268 0 7.454c0-.233.101-.413.291-.527.621-.366 2.164.026 4.023 1.021l-.095.173C2.474 7.188.936 6.776.393 7.096c-.131.076-.195.194-.195.358 0 .73 1.253 2.123 3.05 3.391l-.115.16v.001zm9.185-3.093l-.198-.004.002-.31c0-2.844-.69-5.55-1.537-6.035-.149-.084-.286-.088-.422-.01-.6.341-1.016 2.082-1.016 4.232H8.95c0-2.287.438-4.014 1.114-4.4a.599.599 0 01.621.01c.918.525 1.636 3.25 1.636 6.205 0 .106 0 .21-.002.314v-.002zm4.116 7.235l-.014-.196.135-.01c1.42-.121 2.568-.62 2.994-1.297.188-.3.222-.61.099-.924-.404-1.025-2.34-1.742-4.412-1.633l-.01-.195c2.152-.112 4.174.658 4.606 1.758a1.18 1.18 0 01-.115 1.097c-.46.732-1.665 1.265-3.146 1.39a3.4 3.4 0 01-.139.01h.002z" fill="#172224"/><path d="M19.465 24.868c-.807 0-2.679-1.607-4.569-3.924l-.13-.16.154-.122.13.159c2.065 2.534 3.776 3.851 4.41 3.851h.015c.085-.002.142-.03.182-.084.363-.508-.827-2.983-3.172-5.863l-.179-.215.153-.124.178.218c1.975 2.422 3.704 5.367 3.18 6.1a.413.413 0 01-.337.166h-.017l.002-.002zm-8.557.739a.655.655 0 01-.323-.092c-.666-.38-1.257-1.987-1.51-4.093l.196-.023c.241 2.015.808 3.6 1.411 3.946.145.082.28.088.413.015.539-.294.935-1.697 1.01-3.579l.2.008c-.08 1.978-.506 3.41-1.115 3.742a.574.574 0 01-.284.074l.002.002zm-7.271-9.881c-1.109-.317-1.886-.864-2.138-1.503-.295-.75.19-1.523 1.267-2.015l.083.178c-.987.451-1.423 1.11-1.165 1.766.228.58.96 1.086 2.006 1.386l-.055.188h.002zm.712-7.813C2.555 5.635 1.004 2.96 1.512 2.253a.415.415 0 01.339-.167h.018c.809 0 2.686 1.607 4.582 3.924l-.155.123C4.222 3.6 2.507 2.282 1.869 2.282h-.014c-.086.002-.143.029-.183.084-.33.46.659 2.666 2.834 5.426l-.157.12v.001z" fill="#172224"/><path d="M11.605 21.72c-.462 0-.96-.05-1.483-.17-1.62-.369-3.927-1.492-5.708-4.752-1.455-2.663-1.764-5.353-.868-7.574.636-1.58 1.86-2.797 3.271-3.253.08-.026.17-.044.276-.053 1.037-.28 2.282-.038 3.585.707 3.303 1.886 5.99 6.473 5.99 10.224 0 2.053-.804 3.53-2.203 4.058l-.022.016c-.603.429-1.596.795-2.835.795l-.003.002zM7.97 6.004c-.293 0-.575.035-.842.108a1.206 1.206 0 00-.248.047c-1.356.44-2.534 1.615-3.149 3.14-.872 2.166-.567 4.796.859 7.407 1.746 3.195 3.997 4.295 5.579 4.654 1.858.421 3.367-.03 4.158-.594l.03-.024.023-.014c1.327-.492 2.088-1.905 2.088-3.879 0-3.69-2.643-8.2-5.89-10.055-.92-.525-1.807-.792-2.608-.792v.002z" fill="#172224"/></g><defs><clipPath id="clip0_6741_2042"><path fill="#fff" d="M0 0h28v48H0z"/></clipPath></defs></svg>