<svg width="58" height="48" fill="none" xmlns="http://www.w3.org/2000/svg"><g clip-path="url(#clip0_6741_2103)"><path d="M49.96 27.761l6.781 10.56-13.538 6.164 1.502-14.892.052.047 2.137-1.643 2.242 1.046.824-1.282z" fill="#D2FC1B"/><path d="M45.578 20.933l4.384 6.828-.824 1.282-2.242-1.046-2.137 1.643-.052-.047.871-8.66z" fill="#C2C7CC"/><path d="M45.575 20.933l-.87 8.66-1.143-.997-1.94 1.145-1.392-2.364 5.345-6.444z" fill="#fff"/><path d="M44.705 29.593l-1.502 14.892-10.676-7.819 7.704-9.289 1.392 2.364 1.94-1.145 1.142.997z" fill="#fff"/><path d="M27.858 14.65L38.33 29.673l-5.803 6.992L14.46 42.15l3.405-23.402.027.045 5.47-3.23 2.688 1.441 1.807-2.355z" fill="#D2FC1B"/><path d="M27.859 14.65l-1.807 2.354-2.687-1.441-5.47 3.23-.028-.045L20.087 3.5l7.772 11.15z" fill="#C2C7CC"/><path d="M20.09 3.5l-2.22 15.248-1.965-3.486-3.082.597-1.073-2.592L20.09 3.5z" fill="#fff"/><path d="M17.868 18.748L14.462 42.15.336 26.632l11.412-13.365 1.073 2.592 3.082-.597 1.965 3.486z" fill="#fff"/><path d="M32.528 36.666l10.676 7.819 13.539-6.164-11.166-17.388-13.049 15.733zm0 0L14.462 42.15.336 26.632 20.088 3.5 38.33 29.674m4.873 14.808l2.373-23.55M20.086 3.5l-5.625 38.65" stroke="#172224" stroke-width=".673" stroke-linecap="round" stroke-linejoin="round"/><path d="M11.75 13.267l1.073 2.592 3.082-.597 1.991 3.531 5.47-3.23 2.688 1.441 1.807-2.355M40.23 27.377l1.392 2.364 1.94-1.145 1.194 1.044 2.137-1.643 2.242 1.046.824-1.282" stroke="#172224" stroke-width=".673" stroke-linecap="round" stroke-linejoin="round"/></g><defs><clipPath id="clip0_6741_2103"><path fill="#fff" d="M0 0h57.08v48H0z"/></clipPath></defs></svg>