<svg width="168" height="30" fill="none" xmlns="http://www.w3.org/2000/svg"><g clip-path="url(#clip0_6412_2308)" fill="#172224"><path d="M13.931 30C4.98 30 0 25.067 0 14.978 0 4.933 4.933 0 13.931 0h8.45v5.244h-8.45c-5.983 0-8.541 2.89-8.541 9.734 0 6.889 2.603 9.778 8.541 9.778h17.703V30H13.93zM47.066 0L57.22 26.2c1.123 2.883 3.414 3.8 6.379 3.8 3.145 0 5.211-1.048 6.334-3.8L80.624 0H74.74l-9.658 23.712c-.315.698-.764 1.004-1.483 1.004-.719 0-1.213-.306-1.482-1.004L52.906 0h-5.84zm64.442 6.288c.315-.698.809-1.004 1.528-1.004.718 0 1.213.306 1.482 1.004L123.727 30h5.885L119.37 3.8c-1.078-2.752-3.145-3.8-6.29-3.8-3.189 0-5.255 1.048-6.378 3.8L96.055 30h5.84l9.613-23.712zM145.043 0v5.133h8.816V30h5.325V5.133H168V0h-22.957z"/></g><defs><clipPath id="clip0_6412_2308"><path fill="#fff" d="M0 0h168v30H0z"/></clipPath></defs></svg>