<svg width="263" height="253" viewBox="0 0 263 253" fill="none" xmlns="http://www.w3.org/2000/svg">
<path d="M130.23 251.357L259.307 176.474V161.555L130.23 236.411V251.357Z" fill="#172224"/>
<path d="M0.785156 176.265L130.308 251.357V236.412L0.785156 161.424V176.265Z" fill="#C2C7CB"/>
<path d="M130.571 251.852L130.151 251.618L0.523438 176.448V161.059H0.943029L130.571 236.255V251.852ZM1.07415 176.109L130.02 250.861V236.698L1.07415 161.92V176.109Z" fill="#172224"/>
<path d="M0.785156 161.424L130.308 236.411L259.306 161.555L129.652 86.4633L0.785156 161.424Z" fill="#D2FC1B"/>
<path d="M130.308 236.698H130.15L0.234375 161.424L0.653967 161.059L129.652 86.1504H129.81L259.857 161.555L259.437 161.79L130.308 236.698ZM1.36203 161.424L130.308 236.099L258.808 161.555L129.652 86.7764L1.36203 161.424Z" fill="#172224"/>
<path d="M130.203 224.413L237.592 162.128V126.291L130.203 188.602V224.413Z" fill="#172224"/>
<path d="M22.5 161.946L130.256 224.414V188.602L22.5 126.187V161.946Z" fill="#C2C7CB"/>
<path d="M130.544 224.909L130.098 224.674L22.2109 162.103V125.587L22.6305 125.848L130.544 188.446V224.909ZM22.7879 161.79L129.967 223.944V188.759L22.7879 126.682V161.79Z" fill="#172224"/>
<path d="M22.3672 126.213L130.255 188.707L237.723 126.343L129.73 63.7716L22.3672 126.213Z" fill="#DBE0E6"/>
<path d="M130.259 189.046L21.8203 126.239L22.2399 125.978L129.76 63.3802L238.277 126.343L237.858 126.578L130.259 189.046ZM22.948 126.239L130.259 188.394L237.15 126.343L129.629 64.1106L22.948 126.239Z" fill="#172224"/>
<g opacity="0.5">
<mask id="mask0_6741_1637" style="mask-type:luminance" maskUnits="userSpaceOnUse" x="22" y="63" width="216" height="126">
<path d="M130.178 188.707L22.4219 126.239L129.732 63.7977L237.672 126.317L130.178 188.707Z" fill="white"/>
</mask>
<g mask="url(#mask0_6741_1637)">
<path d="M106.21 68.3884C106.052 68.2874 105.876 68.2192 105.691 68.1878C105.506 68.1564 105.317 68.1625 105.135 68.2058C105.004 68.2058 105.004 68.3884 105.135 68.5188L81.3753 81.8991L61.5758 70.5793L65.6406 71.3096L70.2299 73.9178C69.8889 74.3352 70.3872 75.0916 71.4624 75.6914C71.9511 76.0248 72.5055 76.2507 73.0889 76.3541C73.6722 76.4576 74.271 76.4362 74.8454 76.2913C75.501 75.9262 75.0289 75.0655 73.7964 74.3612C72.8631 73.7898 71.7656 73.5421 70.6757 73.657L65.7979 70.8401L60.2646 69.7707L50.0632 63.9804L48.4898 61.0853L57.7208 55.8688L55.7277 52.2433L33.804 39.7759L33.1484 39.9585L54.7836 52.3215L56.5407 55.5036L49.801 59.3377L48.6996 57.3294L54.6001 53.9908L47.6506 49.9741C47.5633 49.8064 47.4259 49.6697 47.2572 49.5829C47.0969 49.4767 46.9169 49.4036 46.7277 49.3678C46.5386 49.3319 46.3441 49.3341 46.1558 49.3742C45.9198 49.5046 46.1558 49.7915 46.4705 50.0002C46.69 50.121 46.93 50.2006 47.1785 50.235L53.2364 53.7039L47.6244 56.8599L49.1454 59.6507L47.2834 60.694L49.1454 64.0326L81.7162 82.6555L105.974 69.0404C106.16 69.1082 106.365 69.1082 106.551 69.0404C106.761 68.91 106.603 68.6231 106.21 68.3884ZM72.5114 75.248L72.9834 74.9872L71.5673 74.1787C72.1657 74.1676 72.7556 74.3211 73.2719 74.6221C74.0062 75.0394 74.2947 75.561 73.9013 75.7958C73.5533 75.8767 73.1924 75.8861 72.8406 75.8233C72.4889 75.7605 72.1537 75.6269 71.8558 75.4306C71.3051 75.0916 70.9904 74.7003 71.0953 74.4395L72.5114 75.248Z" fill="#172224"/>
<path d="M132.224 70.0317C116.327 66.6314 101.052 60.8164 86.9344 52.7912C77.3104 47.5431 68.6119 40.7683 61.1819 32.7338L60.5525 32.8903C64.7424 37.5735 69.4487 41.7731 74.5826 45.4098L67.9478 49.1136L59.1102 46.1141L49.1711 40.4281C49.1711 40.2977 48.9875 40.1673 48.7777 40.0369C48.6181 39.9293 48.438 39.8554 48.2487 39.8195C48.0593 39.7836 47.8645 39.7866 47.6763 39.8282C47.4665 39.8282 47.6763 40.2455 48.0172 40.4542C48.2257 40.5785 48.4579 40.6584 48.699 40.6889L58.743 46.4271L68.551 49.7917L75.3431 45.9837L77.7558 47.6529L69.8884 52.1391L60.9721 49.0353L41.3562 37.8459L40.7268 38.0024L56.1468 46.8183L52.6852 46.2967L45.657 42.4104C45.5576 42.2427 45.412 42.1069 45.2374 42.0191C45.0778 41.9116 44.8977 41.8376 44.7084 41.8018C44.519 41.7659 44.3242 41.7688 44.136 41.8105C43.9262 41.9409 44.136 42.2278 44.4769 42.4364C44.6949 42.5608 44.9356 42.6406 45.185 42.6712L52.5016 46.8705L57.3007 47.4704L60.5525 49.3744L70.308 52.7912L78.5163 48.2007C80.4045 49.4526 82.3713 50.6785 84.443 51.9044L73.3501 58.1903C73.1634 58.1246 72.9598 58.1246 72.7731 58.1903C72.5633 58.1903 72.7731 58.5815 73.1141 58.8162C73.2737 58.9238 73.4537 58.9977 73.6431 59.0336C73.8325 59.0695 74.0273 59.0665 74.2155 59.0249C74.3466 59.0249 74.2155 58.8162 74.2155 58.6858L85.3347 52.426L86.4361 53.052L88.0096 53.9388L73.1665 62.2852C72.987 62.2308 72.7953 62.2308 72.6158 62.2852C72.406 62.2852 72.6158 62.7025 72.9567 62.9112C73.1163 63.0187 73.2964 63.0927 73.4858 63.1286C73.6752 63.1644 73.8699 63.1615 74.0581 63.1198C74.0581 63.1198 74.0581 62.9373 74.0581 62.7808L88.9012 54.4344C91.0516 55.6081 93.2545 56.7557 95.4835 57.8251L92.3366 59.5987C91.8736 59.3188 91.3593 59.1332 90.8236 59.0526C90.2879 58.972 89.7414 58.9981 89.2159 59.1292C88.5603 59.4944 89.0323 60.3812 90.2386 61.0593C90.7314 61.3947 91.2894 61.6237 91.8766 61.7315C92.4637 61.8393 93.0671 61.8236 93.6478 61.6853C94.1723 61.3723 93.9625 60.7463 93.1758 60.1464L96.4801 58.2946L99.1025 59.5465L92.5988 63.2763L81.7944 61.3202L72.5371 66.5367C72.3486 66.483 72.1487 66.483 71.9602 66.5367C71.7766 66.6671 71.9602 66.954 72.3011 67.1626C72.466 67.2695 72.6505 67.343 72.844 67.3788C73.0375 67.4146 73.2362 67.4121 73.4287 67.3713C73.4287 67.3713 73.4287 67.1887 73.4287 67.0322L82.4762 61.9461L93.2807 63.8762L100.178 60.016L102.958 61.2158L94.0674 66.2237L83.8136 64.3979L72.6158 70.7098C72.4273 70.6562 72.2274 70.6562 72.0388 70.7098C71.829 70.8403 72.0388 71.1272 72.3798 71.3358C72.5394 71.4433 72.7194 71.5173 72.9088 71.5532C73.0982 71.5891 73.293 71.5861 73.4812 71.5445C73.6123 71.5445 73.4812 71.3619 73.4812 71.2315L84.4955 65.0239L94.723 66.8496L103.98 61.6331C112.82 65.3631 121.984 68.2792 131.359 70.3447L126.114 73.2659L119.925 72.2226L115.099 74.8309C114.632 74.5383 114.109 74.3454 113.562 74.2646C113.016 74.1838 112.459 74.2168 111.926 74.3614C111.271 74.7005 111.743 75.5873 112.975 76.2915C113.472 76.6181 114.031 76.8398 114.617 76.943C115.204 77.0462 115.805 77.0286 116.384 76.8914C116.909 76.5784 116.673 75.9785 115.939 75.3786L120.607 72.7704L125.432 73.5789L113.001 80.6473L106.393 79.5779L101.909 82.1861C101.01 81.6757 99.9464 81.5352 98.9452 81.7949C98.3158 82.1601 98.7616 83.0208 99.9941 83.725C100.487 84.0604 101.045 84.2894 101.632 84.3972C102.219 84.505 102.823 84.4893 103.403 84.351C103.954 84.0119 103.666 83.3338 102.8 82.6817L107.153 80.2039L112.398 81.0385L88.5865 94.4449H88.3505L44.0311 69.0927C44.3458 68.6493 43.8475 67.919 42.7723 67.3191C42.2849 66.9829 41.7314 66.7533 41.1483 66.6454C40.5652 66.5375 39.9657 66.5537 39.3894 66.6931C38.7337 67.0583 39.2058 67.9451 40.4383 68.6233C41.3636 69.2153 42.4654 69.4731 43.559 69.3536L87.8784 94.6796C87.9694 94.8538 88.1174 94.9919 88.298 95.0709C88.4577 95.1784 88.6377 95.2524 88.8271 95.2882C89.0165 95.3241 89.2113 95.3212 89.3995 95.2795C89.3995 95.2795 89.3995 95.097 89.3995 94.9666L133.325 70.2664L132.224 70.0317ZM92.8873 61.1637C92.5393 61.2446 92.1784 61.254 91.8266 61.1912C91.4749 61.1284 91.1397 60.9948 90.8418 60.7985C90.1075 60.3812 89.8453 59.8595 90.2124 59.6509C90.512 59.5586 90.8277 59.5295 91.1393 59.5654C91.4509 59.6014 91.7515 59.7015 92.0219 59.8595L91.3401 60.2508L92.2055 60.7724L92.8349 60.4334C92.9922 60.7203 93.0447 61.0072 92.7824 61.1637H92.8873ZM115.624 76.4741C115.277 76.5687 114.914 76.585 114.56 76.5218C114.206 76.4586 113.87 76.3175 113.578 76.1089C112.844 75.6916 112.556 75.17 112.949 74.9613C113.561 74.8216 114.203 74.9049 114.759 75.196L114.077 75.5873L114.942 76.1089L115.624 75.7698C115.755 76.0568 115.808 76.3437 115.624 76.4741ZM102.512 83.7511C102.164 83.8321 101.803 83.8414 101.451 83.7786C101.099 83.7158 100.764 83.5822 100.466 83.3859C99.7319 82.9686 99.4697 82.447 99.8368 82.2383C100.351 82.0389 100.922 82.0389 101.436 82.2383L100.519 82.76L101.41 83.2555L102.302 82.76C102.748 83.2294 102.853 83.5946 102.512 83.7511ZM42.3527 68.1016C42.2618 67.9274 42.1137 67.7894 41.9331 67.7104C41.7735 67.6028 41.5935 67.5289 41.4041 67.493C41.2147 67.4571 41.0199 67.4601 40.8317 67.5017C40.6219 67.5017 40.8317 67.8929 41.1726 68.1277C41.3922 68.2485 41.6322 68.328 41.8807 68.3624L42.5625 68.7537C41.9626 68.7779 41.3691 68.6235 40.8579 68.3103C40.1236 67.8929 39.8352 67.3713 40.2285 67.1626C40.5765 67.0817 40.9375 67.0723 41.2892 67.1351C41.641 67.1979 41.9761 67.3315 42.274 67.5278C42.851 67.8408 43.1395 68.232 43.0346 68.4928L42.3527 68.1016Z" fill="#172224"/>
<path d="M146.544 19.2751C118.222 3.104 83.6056 -3.93826 65.4845 2.2172L65.9303 2.86926C83.5794 -3.41662 118.012 3.52132 146.072 19.562C176.283 36.8286 187.848 58.2163 171.799 67.1626C155.749 76.1088 118.117 69.4578 87.8802 52.1912C78.3663 47.04 69.8075 40.3095 62.5736 32.2903L61.918 32.4468C69.2208 40.4959 77.8389 47.2596 87.4082 52.452C118.248 70.0838 156.405 76.9174 172.69 67.7624L173.477 67.2669L177.883 75.9002L150.137 91.5497L128.738 79.2127L102.513 93.9232C102.422 93.8844 102.324 93.8645 102.225 93.8645C102.126 93.8645 102.028 93.8844 101.937 93.9232C101.727 93.9232 101.937 94.3144 102.277 94.5491C102.435 94.66 102.616 94.734 102.807 94.7656C102.998 94.7973 103.193 94.7857 103.379 94.7317C103.379 94.7317 103.379 94.5492 103.379 94.4187L129.053 79.969L150.583 92.28L179.01 76.3175L174.159 66.8496C188.241 57.2251 176.309 36.307 146.544 19.2751Z" fill="#172224"/>
<path d="M117.144 70.2924C116.986 70.1815 116.805 70.1075 116.614 70.0759C116.424 70.0443 116.228 70.0559 116.043 70.1098C116.043 70.1098 116.043 70.2924 116.043 70.4228L84.5209 88.0285L50.0619 68.4145C49.9724 68.233 49.8248 68.0862 49.6423 67.9972C49.4814 67.8926 49.3005 67.8225 49.1109 67.791C48.9213 67.7596 48.7272 67.7676 48.5409 67.8146C48.3311 67.945 48.5409 68.2058 48.8818 68.4406C49.0998 68.5649 49.3405 68.6447 49.5899 68.6753L84.993 88.9153L116.961 70.9184C117.147 70.9862 117.351 70.9862 117.538 70.9184C117.695 70.788 117.538 70.5272 117.144 70.2924Z" fill="#172224"/>
<path d="M111.746 69.3013C111.588 69.1904 111.407 69.1164 111.217 69.0848C111.026 69.0532 110.83 69.0648 110.645 69.1187C110.645 69.1187 110.645 69.3013 110.645 69.4317L82.8731 85.0812L45.7655 63.85C46.0802 63.4327 45.6081 62.6763 44.5067 62.0764C44.0193 61.7402 43.4658 61.5106 42.8827 61.4027C42.2996 61.2948 41.7001 61.3111 41.1237 61.4505C40.4681 61.8156 40.9402 62.7024 42.1727 63.3806C43.0989 63.9706 44.1999 64.2283 45.2934 64.1109L83.2927 85.8115L111.51 69.9273C111.697 69.9951 111.901 69.9951 112.087 69.9273C112.323 69.7708 112.166 69.536 111.746 69.3013ZM44.1395 62.9111C44.0486 62.7369 43.9006 62.5989 43.72 62.5198C43.5603 62.4123 43.3803 62.3384 43.1909 62.3025C43.0015 62.2666 42.8067 62.2696 42.6185 62.3112C42.4087 62.3112 42.6185 62.7285 42.9594 62.9372C43.1774 63.0615 43.4181 63.1413 43.6675 63.1719L44.3493 63.5631C43.7494 63.5874 43.1559 63.433 42.6448 63.1197C41.9105 62.7024 41.622 62.1808 42.0154 61.9721C42.3633 61.8911 42.7243 61.8818 43.076 61.9446C43.4278 62.0074 43.7629 62.141 44.0609 62.3373C44.6378 62.6503 44.9263 63.0415 44.8214 63.3023L44.1395 62.9111Z" fill="#172224"/>
<path d="M68.7879 92.9061C69.1288 92.4888 68.6306 91.7585 67.5554 91.1325C67.0613 90.8001 66.5024 90.5749 65.915 90.4715C65.3276 90.3682 64.7249 90.389 64.1462 90.5326C63.5168 90.8978 63.9888 91.7585 65.1952 92.4627C66.1497 93.0807 67.2874 93.3567 68.4208 93.2452L76.2881 97.7575L79.3564 103.678L47.6772 121.388L23.6556 107.669L20.5611 101.957L43.4551 89.072L-14.4486 55.9734L-16.2319 52.6609L-16.9924 52.8695L-15.2878 56.0255L42.1963 88.8373L19.4859 101.539L22.3968 106.939L12.3266 101.2L8.86497 95.5405L26.0682 85.89L23.4458 79.4998L-19.746 54.7997L-20.3491 53.7303L-21.1096 53.9128L-20.5851 54.8518L22.5541 79.5258L24.993 85.4205L22.0821 87.0637L20.902 84.8467C20.902 84.7163 20.902 84.4815 20.5086 84.2989C20.349 84.1914 20.169 84.1174 19.9796 84.0816C19.7902 84.0457 19.5954 84.0486 19.4072 84.0903C19.1974 84.0903 19.4072 84.5076 19.7481 84.7162C19.8352 84.7835 19.9326 84.8364 20.0366 84.8727L21.4265 87.481L16.3914 90.324L15.29 88.3156C15.4998 88.3156 15.29 87.9244 14.949 87.6897C14.7911 87.5788 14.61 87.5048 14.4193 87.4732C14.2286 87.4415 14.0332 87.4531 13.8476 87.5071C13.6116 87.5071 13.8476 87.8983 14.1885 88.1331L15.5522 90.7413L10.7269 93.506L9.67792 91.5499C9.88772 91.5499 9.67792 91.1586 9.337 90.9239C9.18657 90.8063 9.01374 90.7203 8.82894 90.6709C8.64414 90.6216 8.45121 90.6101 8.2618 90.637C8.052 90.7674 8.2618 91.0543 8.60272 91.2629L9.96639 93.8712L7.71109 95.1492L10.9105 100.366L2.0466 95.1492L-0.942997 89.698L14.2934 81.1169L12.379 77.5957L-20.454 58.7903C-20.1393 58.373 -20.6114 57.6166 -21.6866 57.0167C-22.1793 56.6813 -22.7373 56.4523 -23.3245 56.3445C-23.9117 56.2367 -24.5151 56.2524 -25.0958 56.3907C-25.7514 56.7558 -25.2793 57.6426 -24.0468 58.3469C-23.1215 58.9145 -22.0336 59.1621 -20.9523 59.0511L2.64976 72.5357L-4.32595 70.2144L-12.3506 65.5978C-12.0097 65.1805 -12.508 64.4502 -13.5832 63.8242C-14.0753 63.4983 -14.6298 63.2768 -15.2118 63.1736C-15.7939 63.0704 -16.3911 63.0876 -16.9662 63.2243C-17.6218 63.5894 -17.1497 64.4762 -15.9434 65.1544C-15.0302 65.7292 -13.951 65.986 -12.8751 65.8847L-4.61443 70.5796L4.66905 73.6834L9.91395 76.7089L-6.31902 71.4924L-12.744 67.8148C-12.744 67.8148 -12.9276 67.554 -13.1374 67.4236C-13.2835 67.3084 -13.4527 67.2256 -13.6336 67.1806C-13.8145 67.1356 -14.0029 67.1295 -14.1864 67.1627C-14.3962 67.2932 -14.1864 67.554 -13.8717 67.7887C-13.6521 67.9095 -13.4121 67.9891 -13.1636 68.0235L-6.50259 71.8315L11.5923 77.5957L13.3494 80.7256L-2.0182 89.3068L0.866494 94.6537L-5.00779 91.289L-8.60054 85.577L3.1218 78.9781L-5.79452 73.892C-5.45361 73.4747 -5.95187 72.7183 -7.02708 72.1184C-7.51986 71.783 -8.07782 71.5541 -8.665 71.4463C-9.25218 71.3384 -9.85556 71.3542 -10.4363 71.4924C-11.0656 71.8576 -10.6198 72.7444 -9.38728 73.4225C-8.45949 74.0087 -7.35982 74.2661 -6.26657 74.1528L1.75813 78.7434L-9.70198 85.1857L-6.34524 90.637L-28.9508 77.5957L-24.886 78.326L-23.6796 79.0042C-24.0205 79.4215 -23.5223 80.1779 -22.4471 80.7778C-21.9584 81.1111 -21.404 81.337 -20.8206 81.4405C-20.2373 81.5439 -19.6385 81.5225 -19.0641 81.3777C-18.4085 81.0386 -18.8805 80.1518 -20.1131 79.4476C-21.0376 78.8781 -22.1261 78.6304 -23.2076 78.7434L-24.7811 77.8566L-30.2095 76.8915L-39.7815 71.4142L-35.1135 72.4836L-34.2219 72.9791C-34.5628 73.3965 -34.0645 74.1528 -33.0155 74.7527C-32.5221 75.0866 -31.9641 75.3147 -31.3772 75.4225C-30.7902 75.5303 -30.1872 75.5154 -29.6064 75.3787C-28.9508 74.9875 -29.4228 74.1268 -30.6553 73.4225C-31.6091 72.8299 -32.7386 72.5813 -33.8547 72.7183L-35.0611 72.0402L-41.2763 70.6317L-44.161 68.9885L-47.4915 62.807L-50.1139 61.3464L-50.7695 61.5289L-48.4355 62.8591L-45.105 69.0407L48.0968 122.171L80.4578 103.913L77.0224 97.5749L68.7879 92.9061ZM67.162 91.9933C67.0844 91.8124 66.9451 91.6646 66.7686 91.5759C66.6077 91.4714 66.4268 91.4012 66.2372 91.3698C66.0476 91.3384 65.8535 91.3464 65.6672 91.3934C65.4574 91.3934 65.6672 91.7846 66.0081 92.0193C66.2166 92.1437 66.4488 92.2236 66.69 92.2541L67.398 92.6453C66.8354 92.6365 66.2845 92.4838 65.7983 92.2019C65.0641 91.7846 64.7756 91.2629 65.1689 91.0282C65.5169 90.9472 65.8779 90.9379 66.2296 91.0007C66.5814 91.0635 66.9165 91.1971 67.2145 91.3934C67.7914 91.7324 68.0799 92.1237 68.0012 92.3845L67.162 91.9933ZM-21.3981 58.2686L-22.6569 57.5383L-23.1289 57.7991L-21.8701 58.5294C-22.471 58.5326 -23.0611 58.3701 -23.5747 58.06C-24.309 57.6426 -24.5975 57.121 -24.2041 56.9123C-23.8561 56.8314 -23.4952 56.822 -23.1434 56.8848C-22.7917 56.9476 -22.4566 57.0812 -22.1586 57.2775C-21.5817 57.6166 -21.2932 58.0078 -21.3981 58.2686ZM-13.9766 64.6849C-13.9766 64.5458 -14.1077 64.4154 -14.3699 64.2937C-14.5297 64.1762 -14.7143 64.0964 -14.9096 64.0602C-15.105 64.0241 -15.306 64.0325 -15.4976 64.085C-15.7074 64.085 -15.4976 64.4763 -15.1567 64.711C-14.9406 64.8395 -14.699 64.9196 -14.4486 64.9457L-13.7668 65.337C-14.3747 65.3587 -14.9759 65.2046 -15.4976 64.8936C-16.2319 64.4763 -16.5203 63.9546 -16.127 63.7459C-15.779 63.665 -15.4181 63.6556 -15.0663 63.7184C-14.7145 63.7812 -14.3794 63.9148 -14.0815 64.1111C-13.5045 64.4241 -13.2161 64.8153 -13.2947 65.0761L-13.9766 64.6849ZM-7.42044 72.9531C-7.50772 72.7853 -7.64515 72.6486 -7.81381 72.5618C-7.97599 72.4601 -8.15692 72.3916 -8.34604 72.3602C-8.53516 72.3289 -8.72866 72.3353 -8.91524 72.3792C-9.12504 72.3792 -8.91524 72.7966 -8.57432 73.0052C-8.36582 73.1295 -8.13365 73.2095 -7.89249 73.24L-7.18442 73.6312C-7.79299 73.6591 -8.39596 73.5046 -8.91524 73.1878C-9.64953 72.7705 -9.93799 72.2488 -9.54463 72.0402C-9.19665 71.9592 -8.83571 71.9498 -8.48395 72.0126C-8.1322 72.0754 -7.79707 72.209 -7.49912 72.4053C-6.92218 72.7444 -6.63371 73.1095 -6.71238 73.3704L-7.42044 72.9531ZM-22.0537 79.9432C-22.0537 79.9432 -21.8964 80.204 -21.6603 80.3344C-21.5007 80.4419 -21.3207 80.5159 -21.1313 80.5518C-20.9419 80.5876 -20.7471 80.5847 -20.5589 80.5431C-20.3491 80.4126 -20.5589 80.1257 -20.8998 79.9171C-21.1159 79.7885 -21.3575 79.7084 -21.6079 79.6823L-22.2897 79.265C-21.6796 79.2541 -21.079 79.417 -20.5589 79.7345C-19.8246 80.1518 -19.5624 80.6735 -19.9558 80.8821C-20.2997 80.9594 -20.6558 80.9669 -21.0028 80.9042C-21.3498 80.8414 -21.6804 80.7097 -21.975 80.517C-22.552 80.1779 -22.8404 79.7867 -22.7618 79.5519L-22.0537 79.9432ZM-32.5435 73.9181C-32.4442 74.0858 -32.2985 74.2215 -32.1239 74.3093C-31.9643 74.4169 -31.7842 74.4908 -31.5949 74.5267C-31.4055 74.5626 -31.2107 74.5596 -31.0225 74.518C-30.8127 74.3876 -31.0225 74.1007 -31.3634 73.892C-31.5814 73.7677 -31.8221 73.6879 -32.0715 73.6573L-32.7533 73.24C-32.1524 73.2368 -31.5624 73.3993 -31.0487 73.7094C-30.3144 74.1268 -30.026 74.6484 -30.4193 74.8571C-30.7633 74.9344 -31.1194 74.9419 -31.4664 74.8791C-31.8133 74.8164 -32.144 74.6847 -32.4386 74.4919C-33.0418 74.1529 -33.3302 73.7616 -33.2253 73.5008L-32.5435 73.9181Z" fill="#172224"/>
<path d="M190.051 98.0703L148.092 74.1005C148.005 73.9328 147.867 73.7961 147.699 73.7093C147.536 73.5967 147.352 73.5199 147.157 73.4839C146.963 73.4479 146.763 73.4536 146.571 73.5006C146.361 73.6311 146.571 73.8919 146.912 74.1266C147.131 74.2474 147.371 74.327 147.62 74.3614L189.789 98.4616L198.784 101.461L205.34 105.217L166.003 127.283L160.575 126.318L120.871 148.67L122.523 151.748L103.877 162.181L87.2773 159.234L98.921 180.778C98.7112 180.778 98.921 181.169 99.2619 181.404C99.4216 181.511 99.6016 181.585 99.791 181.621C99.9804 181.657 100.175 181.654 100.363 181.613C100.573 181.613 100.363 181.195 100.022 180.96L88.6672 159.938L104.69 162.807L123.729 152.113L122.077 149.009L161.414 126.865L166.842 127.83L206.756 105.4L199.046 101.07L190.051 98.0703Z" fill="#172224"/>
<path d="M126.351 170.788L136.028 165.337C136.465 165.587 136.947 165.747 137.447 165.81C137.947 165.873 138.454 165.836 138.939 165.702C139.595 165.337 139.123 164.476 137.916 163.772C137.422 163.44 136.863 163.214 136.276 163.111C135.689 163.008 135.086 163.029 134.507 163.172C133.93 163.485 134.219 164.189 135.137 164.842L125.25 170.371L135.399 189.15L170.933 209.625L171.405 209.364L136.238 189.098L126.351 170.788ZM135.399 163.668C135.743 163.591 136.099 163.583 136.446 163.646C136.793 163.708 137.124 163.84 137.418 164.033C138.179 164.45 138.441 164.972 138.048 165.207C137.533 165.351 136.983 165.305 136.5 165.076L136.867 164.868C137.053 164.938 137.259 164.938 137.444 164.868C137.444 164.868 137.444 164.685 137.444 164.555L136.605 163.981C136.419 163.913 136.215 163.913 136.028 163.981C135.897 163.981 136.028 164.163 136.028 164.294L135.661 164.502C135.189 164.216 135.084 163.85 135.399 163.668Z" fill="#172224"/>
<path d="M243.232 104.852V97.0271L249.736 93.2451L249.369 92.5931L242.446 96.5054V100.496L237.201 99.4528L229.36 103.678L230.802 110.929L213.835 120.449L215.277 127.804L208.118 131.847C208.027 131.808 207.928 131.788 207.829 131.788C207.73 131.788 207.632 131.808 207.541 131.847L198.441 130.23L205.469 126.266L204.027 119.015L221.151 109.39L222.882 108.425L221.414 101.2L245.802 87.4809L245.304 86.7506L220.391 100.757L221.833 108.008L220.26 108.895L217.637 107.356L219.525 106.312L165.451 75.5351C165.451 75.4047 165.267 75.2743 165.057 75.1439C164.897 75.0364 164.717 74.9624 164.528 74.9265C164.339 74.8907 164.144 74.8936 163.956 74.9352C163.746 74.9352 163.956 75.3526 164.297 75.5612C164.505 75.6855 164.737 75.7655 164.978 75.796L218.109 106.078L216.693 106.886L158.999 73.8659C159.314 73.4485 158.842 72.7182 157.767 72.0922C157.27 71.7657 156.711 71.5439 156.125 71.4407C155.538 71.3375 154.937 71.3551 154.358 71.4923C153.728 71.8575 154.174 72.7182 155.407 73.4225C156.334 74.0086 157.434 74.266 158.527 74.1528L216.221 107.147L174.996 130.334L173.947 132.943L171.325 132.473L170.092 133.151C169.804 132.634 169.365 132.216 168.833 131.952C168.339 131.619 167.78 131.394 167.193 131.291C166.606 131.187 166.003 131.208 165.424 131.352C164.769 131.717 165.241 132.578 166.473 133.282C167.126 133.663 167.848 133.911 168.597 134.012L167.26 134.742C166.981 134.219 166.539 133.798 166.001 133.543C165.507 133.21 164.948 132.985 164.361 132.882C163.773 132.778 163.171 132.799 162.592 132.943C161.963 133.308 162.435 134.169 163.641 134.873C164.3 135.238 165.019 135.486 165.765 135.603L164.454 136.333C164.155 135.815 163.708 135.397 163.169 135.134C162.68 134.802 162.125 134.577 161.542 134.473C160.959 134.37 160.361 134.391 159.786 134.534C159.13 134.899 159.602 135.76 160.809 136.464C161.47 136.826 162.188 137.073 162.933 137.194L161.622 137.924C161.334 137.407 160.895 136.989 160.363 136.725C159.869 136.392 159.31 136.167 158.723 136.064C158.135 135.96 157.533 135.981 156.954 136.125C156.298 136.49 156.77 137.351 158.003 138.055C158.653 138.42 159.363 138.667 160.101 138.785L158.789 139.515C158.502 138.998 158.063 138.58 157.531 138.316C157.037 137.983 156.478 137.758 155.89 137.655C155.303 137.551 154.7 137.572 154.122 137.716C153.466 138.081 153.938 138.942 155.171 139.646C155.828 140.016 156.548 140.263 157.295 140.376L155.957 141.106C155.678 140.583 155.237 140.162 154.698 139.907C154.204 139.574 153.645 139.349 153.058 139.246C152.471 139.142 151.868 139.163 151.289 139.307C150.66 139.672 151.106 140.533 152.338 141.237C152.998 141.603 153.717 141.85 154.462 141.967L141.848 148.983C141.579 148.452 141.135 148.029 140.59 147.784C140.102 147.449 139.548 147.22 138.965 147.112C138.382 147.004 137.783 147.02 137.207 147.158C136.551 147.523 137.023 148.41 138.229 149.088C138.884 149.465 139.605 149.713 140.354 149.818L139.042 150.574C138.75 150.051 138.301 149.631 137.757 149.375C137.27 149.038 136.717 148.809 136.133 148.701C135.55 148.593 134.951 148.609 134.374 148.749C133.719 149.114 134.191 150.001 135.423 150.679C136.068 151.056 136.781 151.304 137.521 151.409L136.21 152.165C135.94 151.634 135.496 151.211 134.951 150.966C134.459 150.63 133.901 150.401 133.314 150.293C132.726 150.186 132.123 150.201 131.542 150.34C130.887 150.705 131.359 151.566 132.591 152.27C133.244 152.651 133.966 152.899 134.715 153L131.778 154.643H131.595L112.739 165.259L114.339 168.18L98.0273 165.259L108.858 185.342L103.875 184.534L104.164 185.082L109.12 185.968L109.828 187.246L110.772 187.429L110.091 186.151L122.993 188.446L165.451 212.729L165.923 212.468L123.098 188.003L109.802 185.629L99.3123 166.093L114.654 168.702L124.567 186.959L167.339 211.66L167.784 211.399L125.353 187.142L115.467 168.884L118.561 167.137L124.698 178.509C124.488 178.509 124.698 178.926 125.039 179.135C125.194 179.24 125.371 179.311 125.556 179.342C125.742 179.374 125.932 179.365 126.114 179.317C126.324 179.187 126.114 178.926 125.773 178.691L119.348 166.798L132.775 159.234C133.214 159.49 133.701 159.654 134.206 159.717C134.711 159.78 135.223 159.739 135.712 159.599C136.368 159.234 135.896 158.373 134.663 157.669L133.85 157.304L132.853 155.4L138.098 156.313L174 136.125L175.022 133.516L177.645 133.986L184.804 129.761C184.981 129.832 185.178 129.832 185.355 129.761C185.355 129.761 185.355 129.578 185.355 129.448L190.416 126.605C190.602 126.672 190.807 126.672 190.993 126.605C190.993 126.605 190.993 126.422 190.993 126.292L203.109 119.484L204.368 125.822L176.281 141.68H168.965L147.985 153.417L151.316 159.599L128.736 172.405L137.207 188.055L144.654 192.359L153.649 195.358L174.629 207.539L175.101 207.278L154.017 194.967L145.022 191.967L138.203 188.081L129.89 172.797L152.496 160.095L149.165 153.913L169.751 142.358H177.068L182.68 139.202L190.993 140.689C191.291 141.008 191.636 141.281 192.016 141.498C192.51 141.83 193.069 142.055 193.656 142.159C194.244 142.262 194.846 142.241 195.425 142.098C196.054 141.732 195.609 140.872 194.376 140.168C193.887 139.836 193.332 139.611 192.749 139.507C192.166 139.404 191.568 139.424 190.993 139.568C190.881 139.609 190.789 139.691 190.735 139.798C190.681 139.904 190.671 140.027 190.705 140.141L183.336 138.837L190.206 134.977L198.52 136.438C198.813 136.779 199.169 137.062 199.569 137.272C200.06 137.6 200.614 137.822 201.197 137.925C201.779 138.029 202.377 138.01 202.952 137.872C203.607 137.507 203.135 136.646 201.903 135.942C201.415 135.606 200.862 135.376 200.279 135.268C199.695 135.16 199.096 135.177 198.52 135.316C198.412 135.371 198.325 135.459 198.273 135.568C198.221 135.676 198.206 135.798 198.231 135.916L190.888 134.586L197.733 130.726L207.829 132.525C207.987 132.636 208.168 132.71 208.359 132.742C208.55 132.773 208.745 132.762 208.931 132.708C209.062 132.708 209.062 132.525 208.931 132.395L212.183 130.569L216.667 133.177C216.326 133.595 216.824 134.351 217.899 134.951C218.387 135.287 218.94 135.517 219.523 135.625C220.107 135.733 220.706 135.716 221.282 135.577C221.938 135.212 221.466 134.325 220.233 133.647C219.315 133.061 218.224 132.803 217.139 132.917L212.628 130.308L216.247 128.274L214.805 121.049L216.51 120.084L224.823 121.571C225.121 121.89 225.466 122.162 225.846 122.379C226.34 122.712 226.898 122.937 227.486 123.04C228.073 123.144 228.676 123.123 229.255 122.979C229.91 122.614 229.438 121.753 228.206 121.049C227.716 120.717 227.162 120.492 226.579 120.389C225.996 120.285 225.397 120.306 224.823 120.449C224.717 120.499 224.632 120.583 224.579 120.687C224.527 120.791 224.511 120.909 224.534 121.023L217.165 119.693L224.036 115.833L232.375 117.319C232.661 117.652 233.008 117.926 233.398 118.128C233.891 118.463 234.449 118.692 235.036 118.8C235.623 118.908 236.227 118.892 236.807 118.754C237.437 118.363 236.965 117.502 235.758 116.798C235.262 116.471 234.703 116.249 234.116 116.146C233.53 116.043 232.928 116.06 232.349 116.198C232.244 116.248 232.158 116.331 232.106 116.435C232.054 116.539 232.038 116.658 232.061 116.772L224.718 115.467L231.825 111.503L230.382 104.278L237.751 100.131L242.262 101.044V104.852L267.306 119.145L266.703 118.284L243.232 104.852ZM157.295 72.953C157.295 72.8226 157.111 72.6921 156.901 72.5617C156.74 72.4476 156.555 72.3698 156.361 72.3337C156.166 72.2977 155.966 72.3043 155.774 72.3531C155.564 72.3531 155.774 72.7443 156.115 72.979C156.334 73.0998 156.574 73.1794 156.823 73.2138L157.531 73.605C156.922 73.6329 156.319 73.4785 155.8 73.1616C155.066 72.7443 154.777 72.2227 155.171 72.014C155.518 71.933 155.879 71.9237 156.231 71.9865C156.583 72.0492 156.918 72.1829 157.216 72.3792C157.793 72.6921 158.081 73.0834 158.003 73.3442L157.295 72.953ZM131.804 158.66L118.246 166.276L115.126 168.024L113.893 165.702L132.067 155.478L132.801 156.86C132.299 156.695 131.756 156.695 131.254 156.86C130.598 157.304 130.887 158.008 131.804 158.66ZM134.112 158.66C134.243 158.66 134.112 158.477 134.112 158.347L133.902 157.982C134.611 158.399 134.899 158.895 134.506 159.129C134.007 159.316 133.457 159.316 132.958 159.129L133.326 158.921C133.468 158.949 133.616 158.94 133.754 158.894C133.891 158.848 134.015 158.768 134.112 158.66ZM133.011 157.46L133.221 157.825C133.044 157.754 132.847 157.754 132.67 157.825C132.67 157.825 132.67 158.008 132.67 158.138L132.303 158.347C131.883 158.008 131.778 157.643 132.093 157.46C132.392 157.369 132.712 157.369 133.011 157.46ZM166.945 132.943C166.211 132.525 165.923 132.004 166.316 131.769C166.664 131.688 167.025 131.679 167.377 131.741C167.728 131.804 168.063 131.938 168.361 132.134C169.096 132.551 169.384 133.073 168.991 133.308C168.643 133.389 168.282 133.398 167.93 133.335C167.578 133.273 167.243 133.139 166.945 132.943ZM164.113 134.534C163.379 134.116 163.09 133.595 163.484 133.36C163.832 133.279 164.193 133.27 164.544 133.332C164.896 133.395 165.231 133.529 165.529 133.725C166.263 134.142 166.552 134.664 166.159 134.899C165.811 134.98 165.45 134.989 165.098 134.926C164.746 134.864 164.411 134.73 164.113 134.534ZM161.281 136.125C160.547 135.707 160.284 135.186 160.651 134.951C160.999 134.87 161.36 134.861 161.712 134.923C162.064 134.986 162.399 135.12 162.697 135.316C163.431 135.733 163.72 136.255 163.326 136.49C162.978 136.571 162.617 136.58 162.266 136.517C161.914 136.455 161.579 136.321 161.281 136.125ZM158.475 137.716C157.741 137.298 157.452 136.777 157.845 136.542C158.193 136.461 158.554 136.452 158.906 136.514C159.258 136.577 159.593 136.711 159.891 136.907C160.599 137.325 160.887 137.846 160.494 138.081C160.15 138.158 159.794 138.166 159.447 138.103C159.1 138.04 158.769 137.909 158.475 137.716ZM155.643 139.307C154.908 138.889 154.62 138.368 155.013 138.133C155.361 138.052 155.722 138.043 156.074 138.106C156.426 138.168 156.761 138.302 157.059 138.498C157.793 138.916 158.055 139.437 157.688 139.672C157.34 139.753 156.979 139.762 156.627 139.699C156.276 139.637 155.94 139.503 155.643 139.307ZM152.81 140.898C152.076 140.48 151.788 139.933 152.181 139.724C152.529 139.643 152.89 139.634 153.242 139.697C153.593 139.759 153.928 139.893 154.226 140.089C154.961 140.507 155.249 141.028 154.856 141.263C154.508 141.344 154.147 141.353 153.795 141.291C153.443 141.228 153.108 141.094 152.81 140.898ZM138.675 148.723C137.941 148.305 137.653 147.784 138.046 147.575C138.394 147.494 138.755 147.485 139.107 147.547C139.458 147.61 139.793 147.744 140.091 147.94C140.826 148.357 141.114 148.879 140.721 149.088C140.38 149.184 140.023 149.21 139.671 149.166C139.32 149.121 138.981 149.006 138.675 148.827V148.723ZM135.843 150.314C135.109 149.896 134.847 149.375 135.24 149.166C135.583 149.079 135.941 149.067 136.29 149.13C136.638 149.193 136.969 149.33 137.259 149.531C137.993 149.948 138.282 150.47 137.889 150.679C137.548 150.775 137.191 150.802 136.839 150.757C136.487 150.712 136.149 150.597 135.843 150.418V150.314ZM133.037 151.905C132.303 151.487 132.014 150.966 132.408 150.757C132.754 150.662 133.118 150.646 133.472 150.709C133.826 150.772 134.161 150.914 134.453 151.122C135.161 151.539 135.45 152.061 135.056 152.27C134.72 152.372 134.367 152.401 134.018 152.356C133.67 152.311 133.336 152.193 133.037 152.009V151.905ZM172.872 135.447L137.207 155.504L133.116 154.774L172.033 132.917L173.764 133.23L172.872 135.447ZM176.753 133.256L174.996 132.943L175.914 130.726L179.559 128.665L183.624 129.395L176.753 133.256ZM184.621 128.9C184.434 128.832 184.23 128.832 184.044 128.9L180.372 128.248L185.355 125.431L189.446 126.161L184.621 128.9ZM202.978 118.467L190.154 125.666C189.968 125.595 189.763 125.595 189.577 125.666L185.906 125.014L217.113 107.434L219.735 108.973L202.978 118.467ZM191.859 139.828C192.205 139.744 192.565 139.73 192.916 139.788C193.268 139.847 193.604 139.976 193.904 140.168C194.638 140.611 194.927 141.106 194.533 141.341C194.185 141.422 193.825 141.432 193.473 141.369C193.121 141.306 192.786 141.172 192.488 140.976C191.675 140.715 191.465 140.194 191.859 139.985V139.828ZM199.542 135.733C199.89 135.653 200.251 135.643 200.603 135.706C200.955 135.769 201.29 135.902 201.588 136.099C202.296 136.516 202.584 137.038 202.191 137.246C201.848 137.333 201.49 137.346 201.141 137.283C200.793 137.22 200.462 137.083 200.172 136.881C199.987 136.787 199.818 136.664 199.673 136.516L200.408 136.672C200.564 136.786 200.744 136.864 200.935 136.9C201.125 136.936 201.322 136.929 201.509 136.881C201.719 136.751 201.509 136.49 201.168 136.255C201.009 136.148 200.829 136.074 200.639 136.038C200.45 136.002 200.255 136.005 200.067 136.046L199.306 135.89C199.331 135.847 199.365 135.811 199.406 135.784C199.447 135.757 199.493 135.739 199.542 135.733ZM218.476 134.012C218.567 134.186 218.715 134.324 218.896 134.403C219.056 134.511 219.236 134.585 219.425 134.621C219.614 134.657 219.809 134.654 219.997 134.612C220.207 134.612 219.997 134.195 219.657 133.986C219.437 133.865 219.197 133.786 218.948 133.751L218.267 133.36C218.867 133.336 219.46 133.49 219.971 133.803C220.732 134.221 220.994 134.742 220.601 134.951C220.257 135.038 219.899 135.05 219.551 134.987C219.202 134.924 218.872 134.787 218.581 134.586C217.978 134.273 217.716 133.882 217.795 133.621L218.476 134.012ZM225.924 120.971C226.268 120.894 226.624 120.886 226.971 120.949C227.318 121.011 227.649 121.143 227.943 121.336C228.678 121.753 228.966 122.275 228.573 122.51C228.229 122.587 227.873 122.594 227.526 122.532C227.179 122.469 226.848 122.337 226.554 122.145C225.767 121.623 225.373 121.127 225.767 120.893L225.924 120.971ZM233.319 116.719C233.667 116.638 234.028 116.629 234.38 116.692C234.732 116.755 235.067 116.888 235.365 117.085C236.099 117.502 236.362 118.023 235.968 118.232C235.624 118.309 235.268 118.317 234.921 118.254C234.574 118.191 234.243 118.06 233.949 117.867C233.215 117.398 232.926 116.876 233.319 116.719Z" fill="#172224"/>
<path d="M259.023 131.404L258.813 135.551L227.973 152.896C227.538 152.64 227.056 152.476 226.555 152.414C226.055 152.351 225.547 152.391 225.062 152.53C224.406 152.896 224.878 153.756 226.085 154.461C226.579 154.793 227.138 155.018 227.725 155.122C228.312 155.225 228.915 155.204 229.494 155.06C230.071 154.747 229.782 154.043 228.865 153.391L259.862 135.994L260.072 131.847L271.584 125.379L271.112 124.648L259.023 131.404ZM228.602 154.565C228.254 154.646 227.893 154.655 227.542 154.592C227.19 154.53 226.855 154.396 226.557 154.2C225.822 153.756 225.56 153.261 225.927 153.026C226.435 152.84 226.993 152.84 227.501 153.026L227.107 153.235C226.928 153.182 226.736 153.182 226.557 153.235C226.347 153.365 226.557 153.652 226.898 153.887C227.059 153.991 227.24 154.061 227.429 154.093C227.619 154.124 227.813 154.116 227.999 154.069C227.999 154.069 227.999 153.887 227.999 153.756L228.366 153.548C228.786 154.017 228.917 154.382 228.602 154.565Z" fill="#172224"/>
<path d="M201.747 103.678C201.254 103.343 200.696 103.114 200.109 103.006C199.522 102.898 198.918 102.914 198.337 103.052C197.97 103.261 197.997 103.652 198.337 104.069H192.935L164.665 120.032L159.997 119.328C159.838 119.22 159.658 119.146 159.468 119.11C159.279 119.074 159.084 119.077 158.896 119.119C158.896 119.119 158.896 119.301 158.896 119.458L154.7 121.805C154.259 121.555 153.772 121.394 153.268 121.331C152.764 121.269 152.252 121.306 151.763 121.44C151.107 121.805 151.579 122.666 152.812 123.37C153.256 123.629 153.732 123.831 154.228 123.97L155.119 125.587L144.472 131.43L143.318 129.291C143.641 129.317 143.966 129.263 144.263 129.135C144.892 128.769 144.446 127.909 143.214 127.204C142.719 126.872 142.161 126.647 141.573 126.543C140.986 126.44 140.383 126.461 139.804 126.605C139.175 126.944 139.621 127.83 140.853 128.535C141.336 128.79 141.846 128.992 142.374 129.135L143.817 131.743L138.834 134.56L137.575 132.369C137.907 132.407 138.243 132.352 138.546 132.212C139.201 131.847 138.729 130.986 137.497 130.282C137.002 129.962 136.445 129.75 135.861 129.66C135.278 129.57 134.683 129.604 134.114 129.761C133.458 130.126 133.93 130.986 135.163 131.691C135.613 131.975 136.098 132.203 136.605 132.369L138.047 134.977L136.369 135.942L131.649 134.977L129.21 130.465C129.515 130.475 129.818 130.422 130.101 130.308C130.757 129.943 130.285 129.082 129.052 128.378C128.567 128.039 128.012 127.809 127.428 127.705C126.843 127.602 126.243 127.626 125.669 127.778C125.014 128.143 125.486 129.004 126.692 129.682C127.178 129.957 127.698 130.168 128.239 130.308L130.678 134.977L125.433 134.064L108.283 143.715L109.882 146.636L101.779 145.201C101.502 144.877 101.163 144.611 100.782 144.419C100.288 144.086 99.7294 143.861 99.142 143.758C98.5546 143.654 97.9519 143.675 97.3732 143.819C96.7438 144.184 97.1896 145.045 98.4221 145.749C98.9189 146.076 99.4778 146.297 100.064 146.401C100.651 146.504 101.252 146.486 101.831 146.349C101.937 146.294 102.021 146.204 102.069 146.095C102.116 145.986 102.125 145.864 102.094 145.749L110.171 147.184L111.613 149.792L102.408 155.008L86.0966 152.087L82.4514 154.122L68.4213 146.01L66.5332 147.079L63.9107 145.54L69.5752 142.384L65.117 139.776L57.5906 144.028L54.9682 142.515L60.554 139.385L56.122 136.777L52.3457 138.915L49.7233 137.377L51.6114 136.333L25.9639 121.936L15.1069 120.006L1.52264 112.181L3.88284 110.851C4.32408 111.101 4.81072 111.262 5.31477 111.325C5.81883 111.388 6.33037 111.35 6.81999 111.216C7.4756 110.851 7.00356 109.99 5.77101 109.286C5.28236 108.952 4.72789 108.727 4.14455 108.623C3.56122 108.52 2.96241 108.541 2.38805 108.686C1.81111 108.999 2.09958 109.703 3.01744 110.329L0.631008 111.503L-5.58419 107.929L-5.08593 107.669C-4.64469 107.919 -4.15806 108.08 -3.654 108.143C-3.14994 108.205 -2.63841 108.168 -2.14879 108.034C-1.5194 107.669 -1.99144 106.808 -3.19777 106.104C-3.69183 105.771 -4.25074 105.546 -4.83813 105.443C-5.42551 105.339 -6.02819 105.36 -6.60695 105.504C-7.18389 105.817 -6.86919 106.521 -5.97756 107.147L-6.47583 107.434L-12.7173 103.861L-17.7786 94.497L-30.1041 87.4547C-29.7632 87.0374 -30.1041 86.281 -31.3104 85.655C-31.8072 85.3284 -32.3661 85.1067 -32.9525 85.0035C-33.5389 84.9003 -34.1403 84.9179 -34.7196 85.0551C-35.3752 85.4203 -34.9032 86.281 -33.6706 86.9852C-32.7529 87.5493 -31.6774 87.8053 -30.6024 87.7156L-18.6178 94.5492L-13.976 103.156L-16.4411 101.748L-19.8503 95.5142L-44.58 81.3775L-45.5503 79.6039C-45.2015 79.6435 -44.8483 79.5894 -44.5276 79.4474C-43.8719 79.0823 -44.344 78.2215 -45.5765 77.5173C-46.068 77.19 -46.6224 76.9676 -47.2047 76.8644C-47.787 76.7611 -48.3846 76.7792 -48.9595 76.9174C-49.6151 77.2826 -49.1431 78.1433 -47.9367 78.8475C-47.49 79.1021 -47.0147 79.3034 -46.5206 79.4474L-45.8388 80.6733L-51.6606 77.3347L-55.3058 70.9706L-65.3236 65.3368L-65.9792 65.4933L-60.0787 68.8579L-64.3795 68.1015L-67.9985 66.0149L-68.6541 66.1975L-64.4844 68.571L-58.8199 69.5882L-56.1975 71.1532L-54.6764 73.7614L-59.5017 72.9529L-69.2573 67.3712C-69.2573 67.3712 -69.4146 67.1104 -69.6506 66.98C-69.8103 66.8725 -69.9903 66.7985 -70.1797 66.7626C-70.3691 66.7267 -70.5638 66.7297 -70.752 66.7713C-70.9618 66.9017 -70.7521 67.1626 -70.4111 67.3973C-70.2026 67.5216 -69.9705 67.6016 -69.7293 67.6321L-59.6066 73.4224L-54.3617 74.3092L-52.5523 77.4651L-20.7157 95.7229L-17.6999 101.07L-45.5503 85.1595L-48.9595 87.0896L-50.0609 85.0551C-49.8511 84.9247 -50.0609 84.6378 -50.4018 84.4031C-50.5628 84.2986 -50.7437 84.2284 -50.9333 84.1969C-51.1229 84.1655 -51.317 84.1735 -51.5033 84.2205C-51.7131 84.2205 -51.5033 84.6117 -51.1624 84.8465L-49.7725 87.4547L-52.8932 89.2023L-55.673 83.9858C-55.4632 83.8554 -55.673 83.5684 -56.0139 83.3598C-56.1705 83.2462 -56.3506 83.1685 -56.541 83.1325C-56.7315 83.0964 -56.9276 83.1027 -57.1153 83.1511C-57.3251 83.2815 -57.1153 83.5424 -56.7744 83.7771L-53.6799 89.5152L-56.7744 91.2628L-59.6066 86.0463C-59.3968 85.9159 -59.6066 85.629 -59.9476 85.4203C-60.1042 85.3067 -60.2843 85.2291 -60.4747 85.193C-60.6652 85.1569 -60.8613 85.1633 -61.049 85.2116C-61.2588 85.3421 -61.049 85.6029 -60.7081 85.8376L-57.5874 91.6018L-58.4265 92.0713L-57.5349 92.593L-45.5241 85.8376L15.002 120.345L25.859 122.275L50.0642 136.125L48.2022 137.194L52.6342 139.802L56.4367 137.585L59.0592 139.098L53.4209 142.28L57.8528 144.888L65.3793 140.637L68.0017 142.15L62.4159 145.41L66.8741 148.018L68.736 146.949L82.0581 154.565L78.4391 156.599L83.5528 165.754L73.0631 163.876L62.783 158.008L60.1606 153.287C60.5095 153.326 60.8626 153.272 61.1834 153.13C61.839 152.765 61.3669 151.878 60.1344 151.2C59.645 150.869 59.0905 150.644 58.5075 150.54C57.9244 150.437 57.3259 150.457 56.7514 150.6C56.0958 150.966 56.5678 151.826 57.7742 152.531C58.2268 152.766 58.701 152.958 59.1903 153.104L61.4718 157.304L52.0572 151.931L51.1918 150.287C51.5322 150.327 51.877 150.273 52.1884 150.131C52.844 149.766 52.3719 148.905 51.1656 148.201C50.6715 147.868 50.1126 147.643 49.5252 147.54C48.9379 147.436 48.3352 147.457 47.7564 147.601C47.1008 147.966 47.5729 148.827 48.8054 149.505C49.2499 149.764 49.7257 149.966 50.2215 150.105L50.7985 151.2L30.9203 139.594L27.5636 133.412L-2.38481 116.276C-2.04389 115.859 -2.54215 115.102 -3.61736 114.502C-4.11142 114.17 -4.67034 113.945 -5.25772 113.841C-5.84511 113.738 -6.44779 113.759 -7.02654 113.902C-7.65593 114.268 -7.18389 115.128 -5.97756 115.832C-5.04273 116.4 -3.94653 116.648 -2.85685 116.537L26.7244 133.464L30.0811 139.646L73.0631 164.215L83.8675 166.146L89.9254 176.97L90.8957 177.152L79.5143 156.834L86.7785 152.713L103.09 155.634L112.714 150.209L109.384 144.028L126.115 134.612L136.972 136.542L156.011 125.848L155.015 123.97C155.364 124.023 155.72 123.968 156.037 123.814C156.588 123.501 156.3 122.796 155.408 122.171L159.604 119.797C159.792 119.851 159.992 119.851 160.181 119.797L165.216 120.71L193.512 104.8H198.757L199.282 105.139C199.776 105.471 200.334 105.696 200.922 105.8C201.509 105.903 202.112 105.882 202.691 105.739C203.451 105.269 202.979 104.382 201.747 103.678ZM153.52 122.77L153.73 123.188L153.1 122.901C152.366 122.483 152.077 121.962 152.471 121.753C152.724 121.668 152.992 121.635 153.258 121.658C153.524 121.68 153.783 121.757 154.018 121.884L153.651 122.092C153.56 122.054 153.462 122.034 153.362 122.034C153.263 122.034 153.165 122.054 153.074 122.092C152.969 122.275 153.126 122.536 153.52 122.77ZM141.247 128.248C140.512 127.83 140.224 127.309 140.617 127.1C140.965 127.019 141.326 127.01 141.678 127.073C142.03 127.135 142.365 127.269 142.663 127.465C143.397 127.883 143.686 128.404 143.292 128.613C142.945 128.707 142.582 128.724 142.228 128.661C141.874 128.597 141.539 128.456 141.247 128.248ZM135.635 131.43C134.9 131.012 134.612 130.491 135.005 130.256C135.353 130.175 135.714 130.166 136.066 130.229C136.418 130.291 136.753 130.425 137.051 130.621C137.785 131.039 138.047 131.56 137.654 131.795C137.31 131.872 136.954 131.88 136.607 131.817C136.26 131.754 135.929 131.623 135.635 131.43ZM128.738 129.526C128.895 129.526 128.738 129.135 128.371 128.926C128.211 128.818 128.031 128.744 127.841 128.708C127.652 128.673 127.457 128.676 127.269 128.717C127.059 128.717 127.269 129.135 127.61 129.343H127.846L128.056 129.734C127.78 129.655 127.516 129.541 127.269 129.395C126.561 128.978 126.273 128.456 126.666 128.248C127.01 128.17 127.366 128.163 127.713 128.226C128.06 128.288 128.391 128.42 128.685 128.613C129.419 129.03 129.708 129.552 129.315 129.761C129.202 129.779 129.087 129.779 128.974 129.761L128.738 129.526ZM101.018 145.749C100.672 145.844 100.308 145.86 99.954 145.797C99.6001 145.734 99.2649 145.593 98.9729 145.384C98.2386 144.967 97.9501 144.445 98.3435 144.236C98.6914 144.155 99.0524 144.146 99.4041 144.209C99.7559 144.272 100.091 144.405 100.389 144.601C100.555 144.702 100.713 144.815 100.861 144.941L99.5498 144.706L99.8645 145.253L101.176 145.488C101.177 145.542 101.162 145.595 101.135 145.641C101.107 145.687 101.067 145.725 101.018 145.749ZM3.27968 109.103C3.62366 109.026 3.97978 109.018 4.32673 109.081C4.67369 109.144 5.00436 109.276 5.29897 109.468C6.03325 109.886 6.32172 110.407 5.92836 110.616C5.41511 110.774 4.86036 110.727 4.38111 110.486L4.74826 110.277C4.93491 110.343 5.13854 110.343 5.32519 110.277C5.53499 110.277 5.32519 109.886 4.98427 109.651C4.82632 109.54 4.64525 109.466 4.45454 109.434C4.26384 109.403 4.06842 109.414 3.88284 109.468C3.88284 109.468 3.88284 109.651 3.88284 109.781L3.48948 109.99C3.06989 109.625 2.86009 109.286 3.27968 109.103ZM-31.022 87.0374L-31.7038 86.6462C-31.7038 86.6462 -31.8611 86.3593 -32.1234 86.2289C-32.28 86.1152 -32.4601 86.0376 -32.6505 86.0015C-32.841 85.9654 -33.0371 85.9718 -33.2248 86.0202C-33.4346 86.1506 -33.2248 86.4114 -32.8839 86.6462C-32.6846 86.7699 -32.4611 86.8499 -32.2283 86.8809L-31.5202 87.2982C-32.1117 87.2927 -32.691 87.1307 -33.1986 86.8288C-33.9329 86.4114 -34.2213 85.8898 -33.828 85.6811C-33.48 85.6002 -33.119 85.5908 -32.7673 85.6536C-32.4155 85.7164 -32.0804 85.85 -31.7825 86.0463C-31.2317 86.3853 -30.9171 86.7766 -31.022 87.0374ZM-45.865 79.2127L-46.0748 78.7953C-45.865 78.7953 -46.0748 78.4041 -46.4157 78.1694C-46.5766 78.0649 -46.7576 77.9947 -46.9472 77.9632C-47.1368 77.9318 -47.3308 77.9398 -47.5172 77.9868C-47.7269 77.9868 -47.5172 78.378 -47.1762 78.6128L-46.9402 79.0562L-47.5958 78.7693C-48.3301 78.3519 -48.5924 77.8303 -48.2252 77.5956C-47.8772 77.5146 -47.5163 77.5052 -47.1645 77.568C-46.8128 77.6308 -46.4777 77.7644 -46.1797 77.9607C-45.4454 78.4041 -45.1569 78.9258 -45.5503 79.1344C-45.6546 79.1502 -45.7607 79.1502 -45.865 79.1344V79.2127ZM-5.71532 106.104C-5.36734 106.023 -5.00639 106.013 -4.65464 106.076C-4.30289 106.139 -3.96775 106.273 -3.66981 106.469C-2.93552 106.886 -2.67328 107.408 -3.04042 107.616C-3.29805 107.701 -3.57016 107.733 -3.8405 107.711C-4.11084 107.688 -4.37387 107.612 -4.61389 107.486L-4.22052 107.277C-4.04294 107.343 -3.84738 107.343 -3.66981 107.277C-3.46001 107.147 -3.6698 106.886 -4.01072 106.651C-4.30539 106.461 -4.66056 106.387 -5.00726 106.443C-5.00726 106.443 -5.00726 106.651 -5.00726 106.782L-5.3744 106.991C-5.89889 106.625 -6.03001 106.286 -5.71532 106.104ZM59.8459 152.139C60.0557 152.139 59.8459 151.748 59.505 151.513C59.3453 151.406 59.1653 151.332 58.9759 151.296C58.7865 151.26 58.5918 151.263 58.4036 151.305C58.1938 151.305 58.4036 151.722 58.7445 151.931L58.9805 152.348C58.7589 152.28 58.5472 152.184 58.3511 152.061C57.5906 151.644 57.3284 151.122 57.7217 150.913C58.0657 150.836 58.4218 150.829 58.7688 150.891C59.1157 150.954 59.4464 151.086 59.741 151.279C60.4753 151.696 60.7638 152.218 60.3704 152.426C60.2251 152.47 60.0698 152.47 59.9246 152.426L59.8459 152.139ZM-4.01072 115.363C-4.10027 115.182 -4.24785 115.035 -4.43031 114.946C-4.58827 114.835 -4.76934 114.761 -4.96005 114.729C-5.15075 114.698 -5.34617 114.709 -5.53174 114.763C-5.74154 114.763 -5.53175 115.154 -5.19083 115.389C-4.97478 115.518 -4.73314 115.598 -4.48276 115.624L-3.80093 116.015C-4.40771 116.027 -5.0062 115.874 -5.53174 115.572C-6.26603 115.128 -6.52828 114.633 -6.13491 114.398C-5.79093 114.321 -5.43482 114.313 -5.08786 114.376C-4.7409 114.439 -4.41023 114.57 -4.11562 114.763C-3.53868 115.102 -3.25022 115.493 -3.32889 115.754L-4.01072 115.363ZM50.7985 149.114C51.0083 148.983 50.7985 148.722 50.4575 148.488C50.2979 148.38 50.1179 148.306 49.9285 148.27C49.7391 148.234 49.5443 148.237 49.3561 148.279C49.1463 148.279 49.3561 148.696 49.697 148.905L49.9331 149.322C49.7097 149.26 49.4974 149.163 49.3037 149.035C48.5694 148.618 48.2809 148.096 48.6743 147.888C49.0222 147.807 49.3832 147.797 49.7349 147.86C50.0867 147.923 50.4218 148.057 50.7198 148.253C51.4541 148.67 51.7163 149.192 51.323 149.401C51.1863 149.443 51.04 149.443 50.9034 149.401L50.7985 149.114ZM155.251 123.318C155.104 123.35 154.952 123.35 154.805 123.318L154.569 122.901C154.569 122.901 154.569 122.692 154.569 122.562L154.936 122.353C155.434 122.77 155.565 123.136 155.251 123.318ZM201.904 105.06C201.556 105.141 201.195 105.151 200.843 105.088C200.492 105.025 200.156 104.892 199.858 104.695C199.124 104.278 198.862 103.756 199.229 103.548C199.577 103.467 199.938 103.457 200.29 103.52C200.642 103.583 200.977 103.716 201.275 103.913C202.009 104.382 202.297 104.904 201.904 105.113V105.06Z" fill="#172224"/>
<path d="M165.241 88.0285C165.021 87.9078 164.781 87.8282 164.533 87.7938L158.16 84.1423L156.508 81.0645L151.263 78.1433C151.604 77.726 151.132 76.9957 150.057 76.3697C149.563 76.0372 149.004 75.812 148.416 75.7087C147.829 75.6053 147.226 75.6261 146.647 75.7698C145.992 76.1349 146.464 76.9957 147.696 77.6999C148.622 78.2675 149.71 78.5151 150.791 78.4041L155.538 81.0124L157.216 84.0901L164.061 88.0285L134.506 104.773L120.711 96.9487L120.266 97.2096L134.899 105.582L165.005 88.6545C165.193 88.7082 165.393 88.7082 165.582 88.6545C165.791 88.498 165.634 88.2372 165.241 88.0285ZM149.716 77.1782C149.616 77.0106 149.471 76.8748 149.296 76.787C149.136 76.6795 148.956 76.6055 148.767 76.5696C148.578 76.5337 148.383 76.5367 148.195 76.5783C147.985 76.7087 148.195 76.9957 148.536 77.2304C148.755 77.3512 148.995 77.4307 149.244 77.4651L149.926 77.8564C149.323 77.8697 148.73 77.7064 148.221 77.3869C147.487 76.9696 147.198 76.474 147.592 76.2393C147.94 76.1583 148.3 76.1489 148.652 76.2117C149.004 76.2745 149.339 76.4081 149.637 76.6044C150.188 76.9435 150.502 77.3347 150.398 77.5956L149.716 77.1782Z" fill="#172224"/>
<path d="M154.439 190.95L140.199 182.812L135.348 173.788L161.572 158.947L158.373 152.765L168.443 147.105C168.877 147.361 169.36 147.525 169.86 147.587C170.361 147.65 170.869 147.61 171.354 147.471C172.009 147.105 171.537 146.245 170.305 145.54C169.816 145.207 169.262 144.981 168.678 144.878C168.095 144.774 167.496 144.796 166.922 144.941C166.345 145.254 166.633 145.958 167.551 146.61L157.297 152.374L160.628 158.451L134.246 173.37L139.491 182.864L153.678 191.002L155.357 194.08L176.861 206.365L177.333 206.104L156.196 194.028L154.439 190.95ZM167.813 145.41C168.163 145.333 168.525 145.328 168.877 145.395C169.229 145.462 169.563 145.601 169.859 145.801C170.593 146.219 170.855 146.714 170.488 146.949C169.965 147.093 169.407 147.047 168.915 146.818L169.282 146.61C169.471 146.663 169.67 146.663 169.859 146.61C170.069 146.61 169.859 146.192 169.518 145.958C169.357 145.853 169.176 145.783 168.987 145.752C168.797 145.72 168.603 145.728 168.417 145.775C168.417 145.775 168.417 145.958 168.417 146.088L168.049 146.297C167.604 145.984 167.499 145.619 167.813 145.41Z" fill="#172224"/>
<path d="M167.917 162.494L163.826 164.789L170.933 168.884L169.517 169.693L165.951 167.658L163.617 168.884L170.697 173.005L169.281 173.814L158.634 167.711L156.3 169.041L163.381 173.11L161.964 173.892L158.424 171.858L154.176 174.257L165.452 180.752H172.769L175.863 182.525L178.565 187.142C178.218 187.095 177.865 187.14 177.542 187.272C176.886 187.664 177.358 188.524 178.591 189.202C179.078 189.539 179.632 189.768 180.215 189.876C180.798 189.984 181.397 189.968 181.974 189.828C182.629 189.463 182.157 188.603 180.925 187.898C180.48 187.639 180.004 187.438 179.509 187.298L177.253 183.125L186.301 188.342C186.38 188.515 186.519 188.655 186.694 188.733C186.852 188.844 187.033 188.918 187.224 188.949C187.415 188.981 187.61 188.97 187.796 188.916C188.005 188.916 187.796 188.524 187.455 188.29C187.237 188.165 186.996 188.085 186.747 188.055L172.795 180.074H165.479L155.539 174.388L158.844 172.536L162.384 174.57L164.744 173.24L157.585 169.275L158.975 168.493L169.648 174.57L171.982 173.24L164.902 169.197L166.291 168.389L169.858 170.423L172.218 169.119L165.19 165.05L168.625 163.12L179.115 164.972L214.466 185.186L214.938 184.899L179.194 164.502L167.917 162.494ZM179.063 188.159C178.853 188.159 179.063 188.576 179.404 188.785C179.56 188.899 179.74 188.976 179.931 189.012C180.121 189.049 180.317 189.042 180.505 188.994C180.715 188.863 180.505 188.603 180.164 188.368L179.928 187.951C180.156 188.024 180.376 188.12 180.584 188.237C181.318 188.655 181.58 189.176 181.187 189.385C180.839 189.466 180.478 189.475 180.126 189.413C179.775 189.35 179.439 189.216 179.141 189.02C178.407 188.603 178.145 188.081 178.538 187.872H178.958L179.063 188.159Z" fill="#172224"/>
<path d="M190.367 162.337L172.718 152.244L172.246 152.504L190.105 162.729L199.1 165.728L223.856 179.865L224.328 179.604L199.362 165.337L190.367 162.337Z" fill="#172224"/>
<path d="M172.611 171.962L176.152 173.97L165.977 179.708H174.762L191.677 189.281C191.677 189.281 191.86 189.542 192.07 189.672C192.234 189.78 192.419 189.854 192.612 189.89C192.806 189.926 193.005 189.923 193.198 189.881C193.381 189.881 193.198 189.463 192.857 189.255C192.637 189.134 192.397 189.054 192.149 189.02L183.127 183.803L185.042 184.142C185.34 184.462 185.685 184.734 186.065 184.951C186.559 185.283 187.118 185.509 187.705 185.612C188.292 185.715 188.895 185.695 189.474 185.551C190.103 185.186 189.657 184.325 188.425 183.621C187.931 183.288 187.372 183.063 186.784 182.96C186.197 182.856 185.594 182.877 185.016 183.021C184.912 183.071 184.829 183.156 184.781 183.261C184.733 183.366 184.723 183.484 184.753 183.595L181.869 183.073L174.657 178.978H168.835L177.489 174.127L173.923 172.092L181.003 168.128L212.473 186.125L212.945 185.864L180.531 167.345L172.611 171.962ZM185.933 183.569C186.281 183.488 186.642 183.478 186.994 183.541C187.346 183.604 187.681 183.738 187.979 183.934C188.713 184.351 189.002 184.873 188.608 185.108C188.26 185.188 187.899 185.198 187.548 185.135C187.196 185.072 186.861 184.939 186.563 184.742C186.383 184.641 186.216 184.518 186.065 184.377L186.825 184.508C186.983 184.618 187.164 184.692 187.355 184.724C187.545 184.756 187.741 184.744 187.926 184.69C188.162 184.69 187.926 184.299 187.612 184.064C187.451 183.96 187.27 183.889 187.08 183.858C186.891 183.827 186.697 183.835 186.51 183.882L185.776 183.751C185.789 183.712 185.809 183.676 185.836 183.644C185.863 183.613 185.896 183.587 185.933 183.569Z" fill="#172224"/>
<path d="M197.313 102.165C197.147 102.06 196.962 101.99 196.768 101.958C196.574 101.927 196.376 101.935 196.185 101.983H189.367L180.005 107.199L169.515 105.321L158.605 99.0875L139.619 109.781L134.584 108.868L120.318 101.07L109.067 99.0614L61.8633 125.666L65.3249 132.056L96.7943 150.105C96.8283 150.197 96.8806 150.282 96.9482 150.353C97.0158 150.425 97.0972 150.482 97.1877 150.522C97.3486 150.627 97.5296 150.697 97.7191 150.728C97.9087 150.76 98.1028 150.752 98.2891 150.705C98.4989 150.705 98.2891 150.313 97.9482 150.079C97.7397 149.954 97.5075 149.874 97.2663 149.844L90.8938 146.219L90.0022 144.575C90.351 144.615 90.7041 144.561 91.0249 144.419C91.6805 144.054 91.2085 143.193 89.9759 142.489C89.4866 142.157 88.9321 141.932 88.349 141.829C87.766 141.725 87.1675 141.746 86.593 141.889C85.9374 142.254 86.4094 143.115 87.6157 143.819C88.0653 144.061 88.5402 144.253 89.0319 144.393L89.635 145.488L80.2466 140.115L79.355 138.472C79.6903 138.559 80.0425 138.559 80.3778 138.472C81.0072 138.081 80.5351 137.22 79.3288 136.516C78.832 136.189 78.2731 135.967 77.6867 135.864C77.1003 135.761 76.4989 135.779 75.9196 135.916C75.2902 136.281 75.736 137.142 76.9686 137.846C77.4131 138.105 77.8889 138.307 78.3847 138.446L78.9879 139.541L73.1398 136.203L69.9142 130.23L77.2571 126.109L93.5687 129.03L119.951 114.189L124.986 115.076L142.163 124.909C141.822 125.326 142.32 126.057 143.395 126.683C143.885 127.015 144.439 127.24 145.022 127.343C145.605 127.446 146.204 127.426 146.778 127.283C147.434 126.917 146.962 126.057 145.755 125.353C144.852 124.729 143.756 124.443 142.661 124.544L125.117 114.372L119.269 113.329L93.0442 128.169L76.7326 125.248L68.9963 129.604L72.0384 135.238L66.0592 131.899L62.8336 125.952L109.749 99.557L120.239 101.435L134.453 109.547L140.301 110.59L158.999 100.157L169.489 106.104L180.765 108.112L190.232 102.896H196.71C196.862 102.996 197.036 103.062 197.217 103.089C197.398 103.116 197.583 103.103 197.759 103.052C197.863 102.687 197.706 102.4 197.313 102.165ZM89.399 143.141L88.4287 142.958L88.8483 143.741L88.1927 143.454C87.4584 143.01 87.1961 142.515 87.5895 142.28C87.9335 142.203 88.2896 142.195 88.6366 142.258C88.9835 142.321 89.3142 142.452 89.6088 142.645C90.3431 143.063 90.6315 143.584 90.2382 143.793C90.0929 143.837 89.9376 143.837 89.7924 143.793L89.399 143.141ZM78.647 137.037L77.7029 136.881L78.1225 137.637C77.893 137.569 77.6728 137.472 77.4669 137.35C76.7326 136.933 76.4441 136.412 76.8375 136.203C77.1842 136.108 77.5479 136.092 77.9018 136.155C78.2557 136.218 78.5909 136.359 78.883 136.568C79.6173 136.985 79.9057 137.507 79.5124 137.716C79.3656 137.748 79.2133 137.748 79.0665 137.716L78.647 137.037ZM143.264 125.013C143.612 124.932 143.973 124.923 144.325 124.986C144.677 125.049 145.012 125.182 145.31 125.379C146.044 125.796 146.332 126.318 145.939 126.526C145.593 126.611 145.233 126.625 144.881 126.566C144.529 126.508 144.193 126.379 143.893 126.187C143.159 125.744 142.871 125.248 143.264 125.013Z" fill="#172224"/>
<path d="M223.487 164.189L191.676 146.062L193.224 145.201L206.991 147.653C207.284 147.978 207.629 148.252 208.014 148.461C208.506 148.787 209.061 149.009 209.643 149.112C210.225 149.215 210.822 149.198 211.397 149.061C212.053 148.696 211.581 147.835 210.374 147.131C209.88 146.799 209.321 146.574 208.734 146.47C208.147 146.367 207.544 146.388 206.965 146.531C206.861 146.582 206.778 146.667 206.73 146.771C206.683 146.876 206.673 146.994 206.703 147.105L192.542 144.497L190.313 145.749L207.437 155.53L200.094 154.226C199.803 153.899 199.457 153.625 199.072 153.417C198.579 153.082 198.021 152.853 197.434 152.745C196.846 152.637 196.243 152.653 195.662 152.791C195.007 153.182 195.479 154.043 196.711 154.721C197.199 155.056 197.753 155.285 198.336 155.393C198.919 155.5 199.518 155.485 200.094 155.347C200.2 155.297 200.285 155.214 200.338 155.11C200.39 155.006 200.406 154.887 200.383 154.773L208.696 156.26L218.111 161.633L210.741 160.303C210.443 159.984 210.099 159.711 209.719 159.494C209.225 159.162 208.666 158.937 208.078 158.833C207.491 158.73 206.888 158.751 206.31 158.894C205.68 159.26 206.126 160.12 207.359 160.825C207.853 161.157 208.411 161.382 208.999 161.486C209.586 161.589 210.189 161.568 210.768 161.424C210.872 161.374 210.955 161.289 211.002 161.184C211.05 161.08 211.06 160.962 211.03 160.851L219.369 162.337L222.542 164.163L225.768 170.188L218.556 174.231L198.232 162.572L199.596 161.816C199.782 161.883 199.987 161.883 200.173 161.816C200.383 161.816 200.173 161.424 199.832 161.19C199.667 161.084 199.481 161.014 199.287 160.983C199.093 160.951 198.895 160.96 198.704 161.007C198.704 161.007 198.704 161.19 198.704 161.32L197.341 162.076L191.126 158.451L192.489 157.695C192.678 157.748 192.878 157.748 193.066 157.695C193.276 157.695 193.066 157.277 192.725 157.069C192.566 156.961 192.386 156.887 192.196 156.851C192.007 156.815 191.812 156.818 191.624 156.86C191.624 156.86 191.624 157.043 191.624 157.199L190.26 157.955L184.045 154.408L185.409 153.626C185.595 153.691 185.799 153.691 185.986 153.626C186.195 153.626 185.986 153.235 185.645 153C185.487 152.889 185.306 152.815 185.115 152.783C184.924 152.752 184.729 152.763 184.543 152.817C184.543 152.817 184.543 153 184.543 153.13L183.18 153.887L178.721 151.278C178.984 150.913 178.721 150.313 177.908 149.766L189.841 143.062L199.911 144.862C200.076 144.967 200.262 145.038 200.456 145.069C200.65 145.101 200.848 145.092 201.038 145.045C201.248 145.045 201.038 144.653 200.698 144.419C200.54 144.308 200.358 144.234 200.168 144.202C199.977 144.171 199.782 144.182 199.596 144.236L189.106 142.358L176.991 149.192C176.552 148.936 176.065 148.772 175.56 148.709C175.055 148.646 174.542 148.686 174.053 148.827C173.398 149.192 173.87 150.052 175.102 150.757C176.028 151.324 177.116 151.572 178.197 151.461L225.768 178.821L226.24 178.561L219.579 174.753L226.974 170.579L223.487 164.189ZM207.962 147.027C208.31 146.946 208.671 146.937 209.022 146.999C209.374 147.062 209.709 147.196 210.007 147.392C210.741 147.809 211.004 148.331 210.61 148.54C210.269 148.632 209.912 148.65 209.563 148.591C209.215 148.533 208.883 148.399 208.591 148.201C207.857 147.757 207.568 147.262 207.962 147.027ZM199.334 154.852C198.986 154.933 198.625 154.942 198.273 154.879C197.921 154.816 197.586 154.683 197.288 154.486C196.554 154.069 196.266 153.548 196.659 153.339C197.007 153.258 197.368 153.249 197.72 153.311C198.071 153.374 198.406 153.508 198.704 153.704C198.885 153.804 199.053 153.927 199.203 154.069L198.442 153.939C198.283 153.831 198.103 153.757 197.913 153.721C197.724 153.686 197.529 153.688 197.341 153.73C197.131 153.861 197.341 154.147 197.682 154.356C197.841 154.464 198.021 154.538 198.211 154.573C198.4 154.609 198.595 154.606 198.783 154.565H199.544C199.555 154.601 199.559 154.639 199.555 154.677C199.55 154.714 199.538 154.75 199.518 154.783C199.498 154.815 199.471 154.842 199.439 154.863C199.407 154.884 199.371 154.898 199.334 154.904V154.852ZM210.033 161.059C209.685 161.14 209.325 161.15 208.973 161.087C208.621 161.024 208.286 160.89 207.988 160.694C207.254 160.277 206.965 159.755 207.359 159.52C207.707 159.439 208.067 159.43 208.419 159.493C208.771 159.556 209.106 159.689 209.404 159.886C210.033 160.251 210.374 160.772 210.033 161.059ZM175.548 150.626C174.788 150.209 174.525 149.687 174.919 149.479C175.415 149.28 175.97 149.28 176.466 149.479L176.099 149.687C175.913 149.62 175.708 149.62 175.522 149.687C175.312 149.687 175.522 150.079 175.863 150.313C176.081 150.438 176.322 150.517 176.571 150.548L177.253 150.939C176.666 151.003 176.073 150.894 175.548 150.626ZM177.043 150.418L177.41 150.209C177.699 150.47 177.856 150.705 177.777 150.913L177.043 150.418Z" fill="#172224"/>
<path d="M169.438 109.781C168.941 109.455 168.383 109.233 167.796 109.13C167.21 109.027 166.608 109.044 166.029 109.181C165.478 109.52 165.767 110.225 166.658 110.851L148.091 121.284H141.116L128.266 114.111L138.179 115.885L147.593 110.668L158.45 112.598L162.122 110.538C162.561 110.794 163.047 110.958 163.552 111.021C164.057 111.083 164.57 111.043 165.059 110.903C165.688 110.538 165.216 109.677 164.01 108.973C163.513 108.646 162.954 108.424 162.368 108.321C161.781 108.218 161.18 108.236 160.601 108.373C160.024 108.686 160.312 109.39 161.23 110.042L157.768 111.972L146.911 110.042L137.471 115.259L126.981 113.407L121.133 110.042L123.047 110.407C123.609 110.991 124.309 111.425 125.083 111.671C125.857 111.917 126.681 111.967 127.479 111.816C128.135 111.451 127.663 110.59 126.43 109.886C125.941 109.554 125.386 109.329 124.803 109.225C124.22 109.122 123.622 109.143 123.047 109.286C122.935 109.327 122.843 109.409 122.789 109.516C122.735 109.623 122.725 109.745 122.759 109.86L119.874 109.338L116.334 107.303L110.512 106.286L102.776 110.538L104.454 113.615L87.6703 123.057L76.8133 121.101L65.3008 127.57L66.848 130.439C66.6382 130.439 66.848 130.83 67.1889 131.065C67.3499 131.169 67.5308 131.239 67.7204 131.271C67.91 131.302 68.1041 131.294 68.2904 131.247C68.5002 131.247 68.2904 130.856 67.9495 130.621L66.5333 128.013L77.6263 121.779L88.5095 123.709L105.529 114.111L103.877 111.007L111.194 106.886L116.229 107.773L141.194 121.936H148.852L167.55 111.503C168.446 111.995 169.497 112.126 170.487 111.868C171.143 111.503 170.697 110.486 169.438 109.781ZM161.571 108.712C161.919 108.631 162.28 108.622 162.632 108.684C162.983 108.747 163.318 108.881 163.616 109.077C164.351 109.52 164.613 110.016 164.246 110.251C163.898 110.332 163.537 110.341 163.185 110.278C162.833 110.216 162.498 110.082 162.2 109.886C161.387 109.468 161.099 108.895 161.492 108.712H161.571ZM124.044 109.703C124.388 109.626 124.744 109.618 125.091 109.681C125.438 109.744 125.768 109.875 126.063 110.068C126.797 110.486 127.086 111.007 126.692 111.216C126.346 111.31 125.982 111.327 125.628 111.264C125.274 111.2 124.939 111.059 124.647 110.851C124.466 110.75 124.299 110.628 124.149 110.486L124.909 110.642C125.069 110.75 125.249 110.824 125.438 110.859C125.628 110.895 125.822 110.892 126.01 110.851C126.22 110.851 126.01 110.459 125.67 110.225C125.51 110.117 125.33 110.043 125.14 110.007C124.951 109.971 124.756 109.974 124.568 110.016L123.808 109.886C123.817 109.845 123.836 109.807 123.864 109.775C123.891 109.743 123.926 109.719 123.965 109.703H124.044ZM169.674 111.216C169.326 111.297 168.965 111.306 168.614 111.243C168.262 111.181 167.927 111.047 167.629 110.851C166.894 110.433 166.606 109.912 166.999 109.703C167.347 109.622 167.708 109.613 168.06 109.676C168.412 109.738 168.747 109.872 169.045 110.068C169.7 110.486 169.989 111.007 169.596 111.216H169.674Z" fill="#172224"/>
<path d="M152.838 85.4202C153.179 85.0029 152.681 84.2725 151.605 83.6466C151.109 83.32 150.55 83.0982 149.963 82.995C149.377 82.8919 148.775 82.9094 148.196 83.0467C147.541 83.4118 148.013 84.2725 149.245 84.9768C150.173 85.563 151.273 85.8203 152.366 85.7071L156.85 88.3153L147.96 93.2449C147.774 93.1771 147.569 93.1771 147.383 93.2449L142.348 92.3581L133.065 97.5746L130.259 95.8532L131.885 91.7843C132.571 92.0292 133.322 92.0292 134.009 91.7843C134.664 91.4191 134.192 90.5323 132.96 89.8542C132.472 89.518 131.919 89.2883 131.336 89.1804C130.753 89.0725 130.153 89.0888 129.577 89.2282C128.921 89.5934 129.393 90.4802 130.626 91.1583L130.888 91.3148L129.131 95.8532L132.566 97.8093L130.18 99.1396C129.743 98.89 129.261 98.7292 128.761 98.6665C128.262 98.6038 127.754 98.6405 127.269 98.7744C126.613 99.1396 127.085 100 128.292 100.705C128.786 101.037 129.345 101.262 129.932 101.366C130.52 101.469 131.122 101.448 131.701 101.304C132.278 100.991 131.989 100.287 131.072 99.6612L143.004 92.9319L147.645 93.7666C147.803 93.8774 147.984 93.9515 148.175 93.9831C148.366 94.0147 148.561 94.0031 148.747 93.9491C148.747 93.9491 148.747 93.7666 148.747 93.6362L158.109 88.4197L152.838 85.4202ZM151.763 85.0811C151.409 85.1509 151.045 85.1475 150.694 85.0712C150.342 84.9949 150.009 84.8474 149.717 84.6377C148.983 84.2204 148.694 83.6987 149.088 83.4901C149.436 83.4091 149.797 83.3997 150.148 83.4625C150.5 83.5253 150.835 83.659 151.133 83.8552C151.868 84.2725 152.156 84.7942 151.763 85.0029V85.0811ZM130.468 90.0107C130.811 89.922 131.17 89.9087 131.519 89.9717C131.867 90.0348 132.198 90.1727 132.488 90.3758C133.248 90.7932 133.51 91.3148 133.143 91.5235C132.795 91.6447 132.416 91.6447 132.068 91.5235V91.1844C132.171 91.2121 132.28 91.2121 132.383 91.1844C132.593 91.054 132.383 90.7932 132.042 90.5584C131.882 90.4509 131.702 90.3769 131.513 90.3411C131.323 90.3052 131.129 90.3081 130.94 90.3498C130.783 90.3498 130.94 90.6367 130.94 90.8192V91.1583C130.364 90.6367 130.075 90.1411 130.468 89.9324V90.0107ZM130.809 100.887C130.465 100.964 130.109 100.972 129.762 100.909C129.415 100.846 129.085 100.715 128.79 100.522C128.03 100.105 127.767 99.583 128.161 99.3743C128.504 99.2873 128.862 99.2749 129.21 99.3379C129.559 99.4009 129.889 99.5379 130.18 99.7395C130.94 100.079 131.203 100.6 130.809 100.809V100.887Z" fill="#172224"/>
<path d="M266.125 135.473L265.889 139.62L233.817 157.643L237.173 163.824L228.388 168.884L225.346 163.25L221.806 161.059L220.521 158.451C220.731 158.451 220.521 158.034 220.18 157.825C220.023 157.712 219.843 157.634 219.653 157.598C219.462 157.562 219.266 157.568 219.079 157.617C218.869 157.617 219.079 158.008 219.419 158.243L220.573 160.329L211.159 154.956L209.743 152.348C209.952 152.348 209.743 151.957 209.402 151.722C209.244 151.611 209.063 151.537 208.872 151.505C208.681 151.474 208.486 151.485 208.3 151.539C208.09 151.539 208.3 151.931 208.641 152.165L209.769 154.252L197.706 147.366L201.377 148.018C201.537 148.126 201.717 148.2 201.906 148.236C202.096 148.271 202.29 148.269 202.478 148.227C202.688 148.096 202.478 147.81 202.138 147.601C201.978 147.493 201.798 147.419 201.608 147.384C201.419 147.348 201.224 147.351 201.036 147.392L195.109 146.323L224.402 163.068L229.28 172.118L223.484 175.379L227.497 177.648L227.969 177.387L224.848 175.613L230.381 172.51L228.703 169.432L238.118 164.215L234.787 158.06L266.781 140.063L266.991 135.916L275.592 131.195L275.12 130.465L266.125 135.473Z" fill="#172224"/>
<path d="M274.833 146.662L263.95 144.732L239.273 158.608L242.603 164.789L233.031 170.162L237.044 172.458L237.516 172.197L234.421 170.423L243.678 165.207L240.348 159.025L264.658 145.358L275.515 147.288L283.435 142.854L282.936 142.098L274.833 146.662Z" fill="#172224"/>
<path d="M123.493 115.546C123.004 115.214 122.449 114.989 121.866 114.885C121.283 114.782 120.684 114.803 120.11 114.946C119.533 115.259 119.821 115.963 120.713 116.589L105.608 125.092L116.543 131.326L118.091 134.195L106.159 140.898C105.717 140.647 105.231 140.486 104.727 140.424C104.223 140.361 103.711 140.398 103.221 140.533C102.566 140.898 103.038 141.759 104.27 142.463C104.756 142.802 105.311 143.032 105.895 143.136C106.479 143.239 107.08 143.214 107.653 143.063C108.23 142.75 107.942 142.045 107.024 141.419L119.166 134.586L117.383 131.273L106.893 125.327L121.526 117.111C121.967 117.361 122.454 117.522 122.958 117.585C123.462 117.647 123.974 117.61 124.463 117.476C125.119 117.111 124.647 116.25 123.493 115.546ZM106.683 142.567C106.339 142.644 105.983 142.652 105.636 142.589C105.289 142.526 104.958 142.395 104.664 142.202C103.929 141.785 103.641 141.263 104.034 141.054C104.548 140.897 105.102 140.943 105.582 141.185L105.214 141.393C105.028 141.328 104.824 141.328 104.638 141.393C104.428 141.393 104.638 141.785 104.978 142.019C105.138 142.127 105.318 142.201 105.507 142.237C105.697 142.273 105.892 142.27 106.08 142.228C106.08 142.228 106.08 142.019 106.08 141.889L106.447 141.68C106.893 142.045 106.998 142.385 106.683 142.567ZM123.493 116.954C123.145 117.035 122.784 117.044 122.432 116.982C122.08 116.919 121.745 116.785 121.447 116.589C120.713 116.172 120.451 115.65 120.844 115.441C121.188 115.364 121.544 115.357 121.891 115.419C122.238 115.482 122.569 115.614 122.864 115.806C123.676 116.224 123.965 116.719 123.493 116.954Z" fill="#172224"/>
<path d="M143.529 146.088C143.368 145.984 143.187 145.913 142.998 145.882C142.808 145.851 142.614 145.859 142.428 145.906C142.218 146.036 142.428 146.297 142.769 146.532C142.929 146.638 143.109 146.711 143.298 146.747C143.487 146.782 143.682 146.78 143.87 146.74C144.08 146.61 143.922 146.323 143.529 146.088Z" fill="#172224"/>
<path d="M145.416 145.045C145.256 144.937 145.076 144.863 144.887 144.827C144.697 144.792 144.503 144.795 144.314 144.836C144.105 144.836 144.314 145.254 144.655 145.462C144.815 145.57 144.995 145.644 145.184 145.68C145.374 145.715 145.569 145.712 145.757 145.671C145.967 145.54 145.809 145.41 145.416 145.045Z" fill="#172224"/>
<path d="M147.306 143.975C147.145 143.871 146.965 143.801 146.775 143.769C146.585 143.738 146.391 143.746 146.205 143.793C145.995 143.793 146.205 144.184 146.546 144.419C146.707 144.523 146.888 144.594 147.077 144.625C147.267 144.656 147.461 144.648 147.647 144.601C147.857 144.497 147.7 144.21 147.306 143.975Z" fill="#172224"/>
<path d="M149.193 142.932C149.036 142.819 148.856 142.741 148.666 142.705C148.476 142.669 148.279 142.675 148.092 142.723C147.882 142.854 148.092 143.115 148.433 143.349C148.592 143.457 148.772 143.531 148.962 143.567C149.151 143.603 149.346 143.6 149.534 143.558C149.718 143.428 149.718 143.141 149.193 142.932Z" fill="#172224"/>
<path d="M151.005 141.915C150.84 141.807 150.656 141.732 150.462 141.697C150.268 141.661 150.069 141.664 149.877 141.706C149.667 141.837 149.877 142.124 150.218 142.332C150.383 142.439 150.567 142.513 150.761 142.548C150.954 142.584 151.153 142.582 151.345 142.541C151.555 142.41 151.398 142.15 151.005 141.915Z" fill="#172224"/>
<path d="M-10.5694 53.8866L-11.802 51.5131L-12.5625 51.6956L-11.4086 53.9126L55.6212 92.2539L31.8356 105.634C31.6489 105.569 31.4453 105.569 31.2586 105.634C31.0488 105.765 31.2586 106.025 31.5995 106.26C31.7592 106.368 31.9392 106.442 32.1286 106.478C32.318 106.513 32.5128 106.51 32.701 106.469C32.701 106.469 32.701 106.26 32.701 106.13L56.9586 92.4886L-10.5694 53.8866Z" fill="#172224"/>
<path d="M59.1912 87.4808L-6.23892 50.1046L-6.89453 50.2611L58.352 87.533L61.4203 93.245L31.7079 110.016C31.5194 109.962 31.3195 109.962 31.131 110.016C30.9212 110.146 31.131 110.433 31.4719 110.642C31.6286 110.756 31.8086 110.833 31.9991 110.869C32.1895 110.905 32.3856 110.899 32.5733 110.851C32.5733 110.851 32.5733 110.668 32.5733 110.538L62.5741 93.6623L59.1912 87.4808Z" fill="#172224"/>
<path d="M40.7266 114.398L43.6113 116.067L44.1095 115.806L41.1986 114.137L40.7266 114.398Z" fill="#172224"/>
<path d="M43.457 112.859L46.368 114.528L46.84 114.241L43.9553 112.598L43.457 112.859Z" fill="#172224"/>
<path d="M46.2109 111.32L49.0956 112.989L49.5677 112.729L46.683 111.059L46.2109 111.32Z" fill="#172224"/>
<path d="M48.9375 109.807L51.8222 111.451L52.2942 111.19L49.4095 109.521L48.9375 109.807Z" fill="#172224"/>
<path d="M51.6641 108.269L54.5488 109.912L55.0208 109.651L52.1361 108.008L51.6641 108.269Z" fill="#172224"/>
<path d="M54.3906 106.73L57.2753 108.373L57.7474 108.112L54.8627 106.469L54.3906 106.73Z" fill="#172224"/>
<path d="M57.1172 105.191L60.0019 106.834L60.4739 106.573L57.5892 104.93L57.1172 105.191Z" fill="#172224"/>
<path d="M59.8438 103.652L62.7284 105.295L63.2005 105.034L60.3158 103.391L59.8438 103.652Z" fill="#172224"/>
<path d="M62.5742 102.113L65.4851 103.756L65.9572 103.495L63.0463 101.852L62.5742 102.113Z" fill="#172224"/>
<path d="M65.3281 100.574L68.2128 102.243L68.6849 101.983L65.8002 100.313L65.3281 100.574Z" fill="#172224"/>
<path d="M68.0547 99.0354L70.9394 100.705L71.4114 100.444L68.5267 98.7745L68.0547 99.0354Z" fill="#172224"/>
<path d="M70.7812 97.5225L73.6659 99.1657L74.138 98.9049L71.2533 97.2356L70.7812 97.5225Z" fill="#172224"/>
<path d="M250.285 111.007C250.495 110.564 249.997 109.912 249.027 109.338C248.533 109.006 247.974 108.78 247.386 108.677C246.799 108.574 246.196 108.595 245.617 108.738C244.962 109.103 245.434 109.964 246.666 110.668C247.63 111.284 248.79 111.516 249.918 111.32L265.286 120.11L266.728 123.031L255.452 129.369L255.242 133.517L228.204 148.723C227.74 148.446 227.225 148.264 226.689 148.188C226.153 148.112 225.607 148.143 225.084 148.279C224.454 148.644 224.926 149.505 226.133 150.209C226.627 150.542 227.186 150.767 227.773 150.87C228.36 150.974 228.963 150.953 229.542 150.809C230.066 150.522 229.83 149.87 229.044 149.27L256.238 133.96L256.448 129.761L267.725 123.449L266.073 120.058L250.285 111.007ZM248.187 109.808L247.715 110.068L249.027 110.825C248.368 110.906 247.701 110.759 247.138 110.407C246.404 109.99 246.116 109.468 246.509 109.234C246.857 109.153 247.218 109.143 247.57 109.206C247.922 109.269 248.257 109.403 248.555 109.599C249.027 109.886 249.315 110.199 249.341 110.46L248.187 109.808ZM228.65 150.314C228.302 150.395 227.941 150.404 227.59 150.341C227.238 150.278 226.903 150.145 226.605 149.948C225.87 149.531 225.608 149.01 225.975 148.775C226.569 148.623 227.2 148.707 227.732 149.01L227.391 149.192C227.268 149.136 227.134 149.107 226.998 149.107C226.862 149.107 226.728 149.136 226.605 149.192C226.395 149.192 226.605 149.583 226.919 149.818C227.082 149.929 227.268 150.004 227.463 150.035C227.658 150.067 227.857 150.055 228.047 150.001C228.061 149.977 228.068 149.95 228.068 149.922C228.068 149.895 228.061 149.868 228.047 149.844L228.467 149.609C228.86 149.844 228.912 150.157 228.65 150.314Z" fill="#172224"/>
<path d="M189.316 167.085C188.4 166.467 187.298 166.182 186.195 166.276L181.711 163.668L184.097 162.338C184.534 162.587 185.016 162.748 185.516 162.811C186.016 162.873 186.523 162.837 187.008 162.703C187.664 162.338 187.192 161.477 185.985 160.773C185.491 160.44 184.932 160.215 184.345 160.112C183.758 160.008 183.155 160.029 182.576 160.173C181.999 160.486 182.314 161.19 183.206 161.842L180.819 163.172L174.604 159.755L175.102 159.468C175.543 159.719 176.03 159.88 176.534 159.943C177.038 160.005 177.55 159.968 178.039 159.834C178.695 159.468 178.223 158.608 176.99 157.903C176.496 157.571 175.937 157.346 175.35 157.242C174.763 157.139 174.16 157.16 173.581 157.304C173.03 157.617 173.319 158.321 174.211 158.973L173.712 159.234L170.172 157.199L143.449 172.223L146.911 178.639L161.125 186.751L164.455 192.932L182.576 203.104L183.022 202.791L172.716 197.053L179.665 193.141C179.852 193.207 180.056 193.207 180.242 193.141C180.452 193.141 180.242 192.75 179.901 192.515C179.742 192.407 179.562 192.333 179.372 192.298C179.183 192.262 178.988 192.265 178.8 192.306C178.8 192.306 178.8 192.515 178.8 192.645L171.85 196.558L165.294 192.88L161.964 186.699L158.659 184.821L161.046 183.49C161.941 183.983 162.993 184.113 163.983 183.856C164.639 183.49 164.167 182.63 162.934 181.925C162.439 181.596 161.881 181.37 161.294 181.263C160.708 181.155 160.106 181.168 159.525 181.299C158.974 181.639 159.263 182.343 160.154 182.969L157.768 184.325L147.75 178.587L144.472 172.64L170.696 157.982L185.828 166.641C185.487 167.058 185.985 167.789 187.061 168.415C187.555 168.747 188.114 168.972 188.701 169.076C189.288 169.179 189.891 169.158 190.47 169.015C190.994 168.649 190.522 167.789 189.316 167.085ZM183.468 160.799C183.816 160.718 184.177 160.708 184.528 160.771C184.88 160.834 185.215 160.968 185.513 161.164C186.248 161.581 186.536 162.103 186.116 162.338C185.6 162.484 185.046 162.428 184.569 162.181L184.936 161.972C185.027 162.013 185.125 162.033 185.225 162.033C185.324 162.033 185.423 162.013 185.513 161.972C185.723 161.972 185.513 161.581 185.172 161.346C185.023 161.218 184.846 161.125 184.655 161.075C184.464 161.025 184.264 161.02 184.071 161.059C184.071 161.059 184.071 161.242 184.071 161.372L183.678 161.581C183.284 161.346 183.153 161.059 183.468 160.799ZM160.416 181.925C160.764 181.844 161.125 181.835 161.477 181.898C161.829 181.961 162.164 182.094 162.462 182.291C163.196 182.708 163.485 183.23 163.091 183.438C162.595 183.637 162.041 183.637 161.544 183.438L162.2 183.073L161.308 182.551L160.652 182.943C160.207 182.343 160.207 181.925 160.416 181.925ZM174.473 157.903C174.821 157.823 175.182 157.813 175.533 157.876C175.885 157.939 176.22 158.072 176.518 158.269C177.253 158.686 177.541 159.208 177.148 159.442C176.631 159.589 176.077 159.533 175.6 159.286L176.256 158.921L175.364 158.451L174.709 158.816C174.289 158.451 174.184 157.982 174.473 157.799V157.903ZM189.473 168.623C189.125 168.704 188.764 168.714 188.413 168.651C188.061 168.588 187.726 168.455 187.428 168.258C186.851 167.919 186.562 167.528 186.641 167.267L187.349 167.658C187.427 167.839 187.566 167.987 187.742 168.076C187.903 168.18 188.084 168.25 188.274 168.282C188.463 168.313 188.657 168.305 188.844 168.258C189.08 168.258 188.844 167.867 188.529 167.632C188.31 167.511 188.07 167.432 187.821 167.398L187.113 167.006C187.722 166.978 188.325 167.133 188.844 167.45C189.578 167.763 189.867 168.284 189.473 168.519V168.623Z" fill="#172224"/>
<path d="M127.714 182.395C127.924 182.395 127.714 182.004 127.373 181.769C127.212 181.664 127.031 181.594 126.841 181.563C126.652 181.531 126.458 181.539 126.271 181.586C126.062 181.586 126.271 181.978 126.612 182.212L129.812 188.185L169.148 210.616L169.62 210.329L130.782 188.133L127.714 182.395Z" fill="#172224"/>
<path d="M-12.2176 91.3409L-34.9805 78.2996C-34.6396 77.8823 -35.1378 77.1259 -36.2131 76.526C-36.7058 76.1906 -37.2638 75.9617 -37.851 75.8539C-38.4382 75.746 -39.0415 75.7618 -39.6222 75.9C-40.2516 76.2652 -39.8058 77.152 -38.5733 77.8301C-37.6455 78.4163 -36.5458 78.6737 -35.4525 78.5604L-13.5813 91.054L-15.6006 92.2016L30.9479 118.884L29.4793 119.693L15.3443 117.084C15.0805 116.775 14.7601 116.518 14.4002 116.328C13.9034 116.001 13.3446 115.78 12.7582 115.676C12.1718 115.573 11.5703 115.591 10.991 115.728C10.3616 116.093 10.8075 116.954 12.04 117.658C12.5341 117.991 13.093 118.216 13.6804 118.319C14.2678 118.422 14.8704 118.402 15.4492 118.258C15.5607 118.202 15.6485 118.108 15.6965 117.993C15.7446 117.878 15.7499 117.75 15.7114 117.632L30.1874 120.24L32.3115 119.04L-14.2632 92.5146L-12.2176 91.3409ZM-36.4753 77.4128C-36.4753 77.4128 -36.6589 77.152 -36.8687 77.0216C-37.0329 76.9133 -37.2174 76.8391 -37.4112 76.8032C-37.6049 76.7674 -37.8039 76.7707 -37.9963 76.8129C-38.2061 76.9433 -37.9963 77.2302 -37.6554 77.4389C-37.4359 77.5597 -37.1958 77.6392 -36.9473 77.6736L-36.2393 78.0649C-36.8478 78.0928 -37.4508 77.9383 -37.9701 77.6215C-38.7044 77.2042 -38.9929 76.6825 -38.5995 76.4738C-38.2515 76.3929 -37.8906 76.3835 -37.5388 76.4463C-37.1871 76.5091 -36.8519 76.6427 -36.554 76.839C-35.977 77.1781 -35.6886 77.5432 -35.7672 77.8041L-36.4753 77.4128ZM14.5576 117.867C14.2096 117.948 13.8486 117.957 13.4969 117.894C13.1451 117.831 12.81 117.698 12.5121 117.502C11.7778 117.084 11.4893 116.563 11.8827 116.354C12.2294 116.259 12.5931 116.243 12.947 116.306C13.3009 116.369 13.6361 116.51 13.9282 116.719C14.0819 116.793 14.2234 116.89 14.3478 117.006L13.5348 116.85C13.3799 116.754 13.207 116.69 13.0266 116.663C12.8462 116.637 12.6622 116.647 12.4858 116.693C12.3023 116.823 12.4858 117.084 12.8267 117.319C12.991 117.427 13.1755 117.502 13.3692 117.537C13.563 117.573 13.762 117.57 13.9544 117.528L14.6625 117.658C14.6606 117.698 14.6504 117.738 14.6323 117.773C14.6142 117.809 14.5888 117.841 14.5576 117.867Z" fill="#172224"/>
<path d="M175.022 90.6368C174.53 90.3014 173.972 90.0725 173.384 89.9646C172.797 89.8568 172.194 89.8726 171.613 90.0108C171.508 90.0686 171.424 90.1575 171.373 90.265C171.321 90.3725 171.304 90.4933 171.325 90.6107L168.073 89.9326L136.158 107.877L122.206 99.8961L118.849 99.2962L116.542 95.0447L139.226 82.2904C139.317 82.3291 139.415 82.3491 139.514 82.3491C139.614 82.3491 139.712 82.3291 139.803 82.2904C140.013 82.2904 139.803 81.8992 139.462 81.6644C139.301 81.5599 139.12 81.4897 138.93 81.4583C138.741 81.4269 138.547 81.4349 138.361 81.4818C138.361 81.4818 138.361 81.6644 138.361 81.7948L115.519 94.6535L117.932 99.1397L114.339 98.4615L112.057 94.2101L141.848 77.5956C142.037 77.6492 142.237 77.6492 142.425 77.5956C142.635 77.4651 142.425 77.1782 142.084 76.9696C141.928 76.856 141.748 76.7783 141.557 76.7423C141.367 76.7062 141.171 76.7125 140.983 76.7609C140.983 76.7609 140.983 76.9435 140.983 77.0739L110.956 93.8449L113.369 98.4615L105.501 97.0531L94.146 103.443L84.9937 104.591L48.8563 124.753L73.6647 138.942L72.2486 139.75L-8.49662 93.5841L-6.60846 92.5147L-39.1006 73.8918L-49.9575 71.9357L-62.7026 64.5543L-63.332 64.7369L-50.1673 72.3791L-39.3104 74.3092L-7.84101 92.2278L-9.72917 93.2711L72.8517 140.48L75.212 139.15L50.3511 124.935L85.8853 104.956L95.0377 103.808L106.34 97.4704L122.232 100.313L136.603 108.634L168.755 90.6368L171.639 91.1324C171.917 91.4724 172.266 91.7483 172.662 91.9409C173.155 92.2763 173.713 92.5053 174.3 92.6131C174.887 92.7209 175.491 92.7052 176.071 92.5669C176.701 92.1235 176.229 91.2367 175.022 90.6368ZM175.18 92.0453C174.832 92.1262 174.471 92.1356 174.119 92.0728C173.767 92.01 173.432 91.8764 173.134 91.6801C172.949 91.5865 172.781 91.4631 172.636 91.3149L173.37 91.4454C173.53 91.5529 173.71 91.6268 173.899 91.6627C174.089 91.6986 174.283 91.6956 174.472 91.654C174.681 91.5236 174.472 91.2628 174.157 91.028C173.992 90.9211 173.808 90.8477 173.614 90.8119C173.421 90.776 173.222 90.7786 173.029 90.8194L172.321 90.6368C172.349 90.5376 172.415 90.4532 172.505 90.4021C172.853 90.3211 173.214 90.3117 173.565 90.3745C173.917 90.4373 174.252 90.5709 174.55 90.7672C175.285 91.2367 175.547 91.7583 175.18 91.967V92.0453Z" fill="#172224"/>
<path d="M161.883 100.418L162.25 100.679L163.246 100.444L162.879 100.183L161.883 100.418Z" fill="#172224"/>
<path d="M159.707 98.9049L160.074 99.1657L161.071 98.9049L160.704 98.644L159.707 98.9049Z" fill="#172224"/>
<path d="M152.789 95.0969L153.235 95.3055L153.681 94.7317L153.235 94.5231L152.789 95.0969Z" fill="#172224"/>
<path d="M150.086 93.845L150.558 94.0536L151.004 93.5059L150.558 93.2972L150.086 93.845Z" fill="#172224"/>
</g>
</g>
<g style="mix-blend-mode:multiply">
<path style="mix-blend-mode:multiply" d="M229.359 122.509L215.486 114.424C215.326 114.322 215.139 114.267 214.948 114.267C214.758 114.267 214.571 114.322 214.411 114.424L151.498 150.626C151.335 150.72 151.199 150.855 151.105 151.018C151.011 151.18 150.961 151.365 150.961 151.552C150.961 151.74 151.011 151.924 151.105 152.087C151.199 152.249 151.335 152.384 151.498 152.478L165.109 160.485C165.269 160.588 165.456 160.642 165.646 160.642C165.837 160.642 166.023 160.588 166.184 160.485L229.333 124.361C229.497 124.27 229.635 124.137 229.731 123.975C229.828 123.814 229.88 123.63 229.883 123.443C229.886 123.255 229.839 123.07 229.747 122.906C229.655 122.742 229.521 122.606 229.359 122.509Z" fill="url(#paint0_linear_6741_1637)"/>
</g>
<g style="mix-blend-mode:multiply">
<path style="mix-blend-mode:multiply" d="M206.567 109.938L192.72 101.852C192.56 101.75 192.373 101.695 192.183 101.695C191.992 101.695 191.806 101.75 191.645 101.852L128.733 138.107C128.569 138.201 128.434 138.336 128.339 138.498C128.245 138.661 128.195 138.845 128.195 139.033C128.195 139.22 128.245 139.405 128.339 139.567C128.434 139.73 128.569 139.865 128.733 139.959L142.343 148.018C142.508 148.107 142.693 148.154 142.881 148.154C143.068 148.154 143.253 148.107 143.418 148.018L206.567 111.789C206.73 111.696 206.866 111.561 206.96 111.398C207.055 111.236 207.104 111.051 207.104 110.864C207.104 110.676 207.055 110.492 206.96 110.329C206.866 110.166 206.73 110.031 206.567 109.938Z" fill="url(#paint1_linear_6741_1637)"/>
</g>
<g style="mix-blend-mode:multiply">
<path style="mix-blend-mode:multiply" d="M148.691 76.1086L134.844 67.997C134.679 67.908 134.494 67.8613 134.307 67.8613C134.119 67.8613 133.934 67.908 133.769 67.997L70.8302 104.278C70.6662 104.368 70.5296 104.5 70.4344 104.661C70.3393 104.821 70.2891 105.004 70.2891 105.191C70.2891 105.377 70.3393 105.56 70.4344 105.72C70.5296 105.881 70.6662 106.013 70.8302 106.103L84.4669 114.111C84.632 114.2 84.8168 114.246 85.0045 114.246C85.1923 114.246 85.3771 114.2 85.5421 114.111L148.691 77.9344C148.855 77.8442 148.991 77.7119 149.086 77.5514C149.182 77.3909 149.232 77.2079 149.232 77.0215C149.232 76.8352 149.182 76.6522 149.086 76.4917C148.991 76.3311 148.855 76.1989 148.691 76.1086Z" fill="url(#paint2_linear_6741_1637)"/>
</g>
<path d="M150.868 143.662L143.604 147.757L134.818 134.455L128.446 114.267L99.2317 97.5223L93.2263 110.564L85.9621 114.659L77.5703 101.617L98.7597 49.4523L106.024 45.2531L121.601 54.1211L150.868 143.662ZM123.699 99.322L113.629 66.5885L103.769 87.8718L123.699 99.322Z" fill="#172224"/>
<path d="M158.237 148.018L150.973 79.3429L158.237 75.2479L172.975 83.7247V156.364L165.973 160.459L158.237 148.018Z" fill="#172224"/>
<path d="M143.604 147.757L127.554 138.55L121.182 118.362L92.0202 101.617L85.9886 114.659L70.2539 105.66L98.7599 49.348L114.495 58.3204L143.604 147.757ZM116.461 103.417L106.391 70.6835L96.5308 91.9668L116.461 103.417Z" fill="#D2FC1B"/>
<path d="M144.233 148.514L127.266 138.785L120.867 118.623L92.0202 102.113L85.9885 115.154L69.7031 105.816L98.6025 48.9045L114.652 58.1377V58.2681L144.233 148.514ZM127.869 138.289L142.974 146.975L114.049 58.5551L98.9172 49.8696L70.7783 105.53L85.805 114.111L91.8366 101.069L121.47 118.101L127.869 138.289ZM117.065 104.173L96.085 92.1232L106.575 69.6923L117.065 104.173ZM96.9766 91.8363L115.832 102.661L106.313 71.6745L96.9766 91.8363Z" fill="#172224"/>
<path d="M150.973 151.982V79.3427L165.711 87.8195V160.459L150.973 151.982Z" fill="#D2FC1B"/>
<path d="M166.078 161.059L150.605 152.191V78.7169L166.078 87.611V161.059ZM151.34 151.774L165.449 159.833V88.0284L151.418 79.9689L151.34 151.774Z" fill="#172224"/>
<defs>
<linearGradient id="paint0_linear_6741_1637" x1="172.294" y1="166.902" x2="206.846" y2="110.292" gradientUnits="userSpaceOnUse">
<stop stop-color="#CBCDD1"/>
<stop offset="1" stop-color="#AFAFB5" stop-opacity="0"/>
</linearGradient>
<linearGradient id="paint1_linear_6741_1637" x1="149.529" y1="154.33" x2="184.081" y2="97.7202" gradientUnits="userSpaceOnUse">
<stop stop-color="#CBCDD1"/>
<stop offset="1" stop-color="#AFAFB5" stop-opacity="0"/>
</linearGradient>
<linearGradient id="paint2_linear_6741_1637" x1="91.6262" y1="120.501" x2="126.178" y2="63.8913" gradientUnits="userSpaceOnUse">
<stop stop-color="#CBCDD1"/>
<stop offset="1" stop-color="#AFAFB5" stop-opacity="0"/>
</linearGradient>
</defs>
</svg>
