<svg width="287" height="257" viewBox="0 0 287 257" fill="none" xmlns="http://www.w3.org/2000/svg">
<g opacity="0.5">
<path d="M173.847 220.848L118.441 190.647L150.162 173.355L205.568 203.557L173.847 220.848Z" fill="#C2C7CC"/>
</g>
<path d="M173.843 204.984L118.438 174.782L150.158 157.49L205.564 187.692L173.843 204.984Z" fill="white"/>
<path d="M205.564 187.693V197.462L173.844 214.753V204.984L205.564 187.693Z" fill="#C2C7CC"/>
<path d="M173.843 214.753V204.984L118.438 174.782V184.551L173.843 214.753Z" fill="white"/>
<g opacity="0.5">
<path d="M141.086 162.299L182.288 185.202L183.029 199.601L205.564 187.692L149.817 157.712L141.086 162.299Z" fill="#C2C7CC"/>
</g>
<path d="M129.688 177.502L121.688 173.141L123.615 172.09L131.615 176.452L129.688 177.502Z" fill="#D2FC1B"/>
<path d="M134.009 175.128L126.008 170.767L127.935 169.717L135.936 174.078L134.009 175.128Z" fill="#D2FC1B"/>
<path d="M138.255 172.722L130.254 168.361L132.181 167.311L140.181 171.672L138.255 172.722Z" fill="#D2FC1B"/>
<path d="M129.69 177.766C129.642 177.766 129.593 177.754 129.55 177.731L121.549 173.369C121.463 173.321 121.41 173.235 121.41 173.141C121.41 173.046 121.463 172.959 121.549 172.912L123.476 171.862C123.563 171.815 123.67 171.815 123.756 171.862L131.757 176.223C131.843 176.27 131.896 176.357 131.896 176.452C131.896 176.545 131.843 176.633 131.757 176.68L129.83 177.731C129.786 177.754 129.738 177.766 129.69 177.766ZM122.247 173.141L129.689 177.198L131.058 176.452L123.616 172.395L122.247 173.141Z" fill="#172224"/>
<path d="M134.006 175.392C133.958 175.392 133.91 175.38 133.867 175.357L125.866 170.996C125.78 170.948 125.727 170.861 125.727 170.767C125.727 170.672 125.78 170.585 125.866 170.538L127.793 169.488C127.88 169.441 127.986 169.441 128.073 169.488L136.073 173.85C136.16 173.897 136.212 173.983 136.212 174.078C136.212 174.172 136.16 174.259 136.073 174.307L134.147 175.357C134.103 175.38 134.054 175.392 134.006 175.392ZM126.564 170.767L134.006 174.824L135.374 174.078L127.932 170.021L126.564 170.767Z" fill="#172224"/>
<path d="M138.256 172.986C138.208 172.986 138.16 172.974 138.117 172.951L130.116 168.59C130.029 168.543 129.977 168.456 129.977 168.361C129.977 168.267 130.029 168.18 130.116 168.133L132.043 167.082C132.129 167.035 132.236 167.035 132.322 167.082L140.323 171.443C140.409 171.491 140.462 171.578 140.462 171.672C140.462 171.767 140.409 171.854 140.323 171.901L138.396 172.951C138.352 172.974 138.305 172.986 138.256 172.986ZM130.814 168.361L138.256 172.418L139.623 171.672L132.182 167.615L130.814 168.361Z" fill="#172224"/>
<path d="M173.845 205.247C173.796 205.247 173.748 205.236 173.706 205.212L118.3 175.009C118.214 174.962 118.16 174.876 118.16 174.781C118.16 174.687 118.214 174.6 118.3 174.552L150.021 157.261C150.107 157.214 150.213 157.214 150.3 157.261L205.706 187.463C205.792 187.51 205.845 187.597 205.845 187.692C205.845 187.786 205.792 187.874 205.706 187.921L173.985 205.212C173.942 205.236 173.893 205.247 173.845 205.247ZM118.998 174.782L173.845 204.679L205.006 187.692L150.16 157.795L118.998 174.782Z" fill="#172224"/>
<path d="M173.845 215.017C173.797 215.017 173.749 215.005 173.706 214.981C173.62 214.934 173.566 214.847 173.566 214.753V204.984C173.566 204.89 173.62 204.803 173.706 204.756L205.427 187.464C205.513 187.417 205.62 187.417 205.706 187.464C205.792 187.511 205.845 187.598 205.845 187.692V197.461C205.845 197.555 205.792 197.642 205.706 197.689L173.986 214.981C173.942 215.005 173.894 215.017 173.845 215.017ZM174.125 205.137V214.296L205.286 197.309V188.15L174.125 205.137Z" fill="#172224"/>
<path d="M173.845 215.016C173.796 215.016 173.748 215.005 173.706 214.981L118.3 184.779C118.214 184.732 118.16 184.645 118.16 184.55V174.782C118.16 174.688 118.214 174.6 118.3 174.553C118.386 174.506 118.493 174.506 118.579 174.553L173.985 204.756C174.071 204.803 174.124 204.889 174.124 204.984V214.753C174.124 214.847 174.071 214.934 173.985 214.981C173.942 215.004 173.893 215.016 173.845 215.016ZM118.719 184.398L173.566 214.295V205.136L118.719 175.238V184.398Z" fill="#172224"/>
<path d="M172.946 190.415L146.184 175.826V148.336L172.946 162.924V190.415Z" fill="white"/>
<path d="M172.945 190.415L182.289 185.202V157.712L172.945 162.924V190.415Z" fill="#C2C7CC"/>
<g opacity="0.5">
<path d="M146.317 153.714L146.234 155.584L172.804 175.923L172.947 168.16L146.317 153.714Z" fill="#C2C7CC"/>
</g>
<path d="M172.948 190.679C172.9 190.679 172.852 190.667 172.809 190.644L146.046 176.055C145.96 176.008 145.906 175.921 145.906 175.826V148.335C145.906 148.241 145.96 148.153 146.046 148.106C146.132 148.059 146.239 148.059 146.325 148.106L173.088 162.695C173.175 162.742 173.228 162.829 173.228 162.924V168.423H172.669V163.076L146.465 148.792V175.674L172.669 189.958V185.223H173.228V190.415C173.228 190.509 173.175 190.596 173.088 190.644C173.045 190.667 172.996 190.679 172.948 190.679Z" fill="#172224"/>
<path d="M172.947 190.679C172.899 190.679 172.851 190.667 172.809 190.644C172.722 190.597 172.668 190.51 172.668 190.415V183.99H173.227V189.952L182.012 185.051V158.174L173.227 163.075V178.069H172.668V162.925C172.668 162.831 172.721 162.745 172.806 162.697L182.149 157.484C182.236 157.436 182.343 157.436 182.43 157.483C182.517 157.53 182.571 157.617 182.571 157.712V185.203C182.571 185.295 182.518 185.382 182.433 185.43L173.09 190.643C173.045 190.666 172.996 190.679 172.947 190.679Z" fill="#172224"/>
<path d="M243.428 207.21L88.1211 122.551V5.9043L243.428 90.563V207.21Z" fill="#D2FC1B"/>
<path d="M97.8633 117.24V21.8385L233.682 95.8741V191.276L97.8633 117.24Z" fill="#C2C7CC"/>
<path d="M233.684 191.54C233.636 191.54 233.588 191.528 233.545 191.505L97.7257 117.469C97.6393 117.421 97.5859 117.334 97.5859 117.24V21.8385C97.5859 21.7445 97.6388 21.6572 97.7257 21.6102C97.812 21.5632 97.9187 21.5632 98.0051 21.6102L165.967 58.6561L165.687 59.1132L165.445 58.9813L98.1448 22.2962V117.088L233.404 190.819V96.0262L212.577 84.6726L212.856 84.2155L233.824 95.6454C233.91 95.6928 233.964 95.7797 233.964 95.8742V191.276C233.964 191.37 233.91 191.458 233.824 191.505C233.78 191.528 233.732 191.54 233.684 191.54Z" fill="#172224"/>
<path d="M243.426 207.21L253.926 201.569V84.9225L243.426 90.5631V207.21Z" fill="#C2C7CC"/>
<path d="M253.928 84.9223L243.428 90.5629L88.1211 5.90426L98.6216 0.263672L253.928 84.9223Z" fill="#D2FC1B"/>
<path d="M163.211 159.57C163.163 159.57 163.115 159.558 163.071 159.535L98.0421 124.087C97.9557 124.04 97.9023 123.953 97.9023 123.859V121.318C97.9023 121.224 97.9552 121.137 98.0421 121.09C98.1284 121.043 98.2351 121.043 98.3215 121.09L106.051 125.303L105.771 125.76L98.4612 121.776V123.707L162.932 158.85V156.919L141.517 145.246L141.796 144.789L163.351 156.538C163.437 156.585 163.49 156.672 163.49 156.767V159.308C163.49 159.402 163.437 159.489 163.351 159.536C163.308 159.558 163.259 159.57 163.211 159.57Z" fill="#172224"/>
<path d="M103.68 116.295V30.598L226.731 97.6744V183.372L103.68 116.295Z" fill="#D2FC1B"/>
<path d="M226.734 183.635C226.685 183.635 226.637 183.624 226.594 183.6L103.542 116.523C103.456 116.476 103.402 116.389 103.402 116.295V30.5979C103.402 30.5034 103.456 30.4166 103.542 30.3691C103.628 30.3221 103.736 30.3221 103.822 30.3691L226.874 97.4455C226.96 97.4925 227.013 97.5798 227.013 97.6743V183.372C227.013 183.466 226.96 183.553 226.874 183.6C226.831 183.623 226.782 183.635 226.734 183.635ZM103.961 116.143L226.454 182.914V97.8269L103.961 31.0551V116.143Z" fill="#172224"/>
<path d="M243.426 207.474C243.377 207.474 243.329 207.462 243.286 207.438L87.9796 122.78C87.8932 122.733 87.8398 122.646 87.8398 122.551V5.90432C87.8398 5.80982 87.8932 5.723 87.9796 5.67552C88.0659 5.62851 88.1726 5.62851 88.259 5.67552L243.565 90.3342C243.651 90.3812 243.705 90.4685 243.705 90.563V207.21C243.705 207.304 243.651 207.391 243.565 207.438C243.522 207.462 243.474 207.474 243.426 207.474ZM88.3987 122.399L243.146 206.753V90.7151L88.3987 6.36146V122.399Z" fill="#172224"/>
<path d="M243.427 207.474C243.379 207.474 243.33 207.462 243.287 207.438C243.201 207.391 243.148 207.304 243.148 207.21V90.5631C243.148 90.4681 243.202 90.3808 243.29 90.3338L244.458 89.7059L244.734 90.1645L243.707 90.7161V206.756L253.648 201.415V85.3753L250.199 87.2283L249.922 86.7698L253.79 84.6923C253.876 84.6457 253.983 84.6462 254.068 84.6937C254.154 84.7407 254.207 84.8275 254.207 84.9215V201.568C254.207 201.663 254.153 201.751 254.066 201.798L243.566 207.439C243.522 207.463 243.475 207.474 243.427 207.474Z" fill="#172224"/>
<path d="M243.426 90.827C243.377 90.827 243.329 90.815 243.286 90.7915L87.9796 6.1328C87.8927 6.08531 87.8398 5.99801 87.8398 5.90351C87.8398 5.80902 87.8942 5.72171 87.9811 5.67519L98.4811 0.0345976C98.5664 -0.0119316 98.6726 -0.0114488 98.7585 0.0355601L254.064 84.6942C254.151 84.7417 254.205 84.829 254.204 84.9235C254.204 85.018 254.15 85.1048 254.063 85.1519L248.505 88.1379L248.229 87.6793L253.363 84.9211L98.6183 0.568004L88.6812 5.90591L243.427 90.259L245.595 89.0948L245.871 89.5534L243.564 90.7924C243.521 90.815 243.473 90.827 243.426 90.827Z" fill="#172224"/>
<path d="M114.691 191.198L149.174 211.495L149.648 202.393L145.577 184.035L135.02 178.553L116.47 180.048L114.691 191.198Z" fill="#C2C7CC"/>
<path d="M149.358 211.828L149.067 211.658L114.473 191.294L116.293 179.871L116.452 179.859L135.063 178.359L135.117 178.387L145.755 183.911L145.774 183.997L149.851 202.378L149.358 211.828ZM114.911 191.103L148.989 211.162L149.445 202.408L145.398 184.159L134.976 178.747L116.645 180.225L114.911 191.103Z" fill="#172224"/>
<path d="M74.8443 256.512C74.8443 256.512 103.574 248.823 109.682 212.086C115.79 175.349 139.77 182.825 139.77 182.825L66.9755 142.733C60.8483 139.358 53.1492 139.788 47.5413 143.889C44.5356 146.086 41.4207 149.354 38.6493 154.204C29.3742 170.437 42.7213 189.873 0.417969 215.29L74.8443 256.512Z" fill="white"/>
<path d="M67.0839 142.559C60.8195 139.105 53.0971 139.566 47.4068 143.729C43.9673 146.242 40.9545 149.735 38.4599 154.104C35.6859 158.954 34.9188 164.096 34.1059 169.541C32.1651 182.55 29.9703 197.291 0.299752 215.116L0 215.298L11.1722 221.486L11.5481 221.217L0.833221 215.283C30.3818 197.439 32.5919 182.65 34.5377 169.599C35.3455 164.192 36.1076 159.084 38.841 154.301C41.3101 149.979 44.2823 146.53 47.671 144.05C53.2241 139.992 60.7586 139.546 66.8654 142.909L138.41 182.315C135.824 181.864 130.108 181.432 124.372 184.737C116.767 189.121 111.752 198.312 109.466 212.055C106.326 230.959 97.0643 241.987 89.8448 247.906C82.4932 253.94 75.7158 256.047 74.8724 256.291L18.9709 225.327L18.6101 225.605L74.7352 256.689L74.8114 256.732L74.9029 256.708C74.974 256.689 82.224 254.698 90.1141 248.227C97.3895 242.264 106.733 231.155 109.898 212.117C112.159 198.503 117.102 189.409 124.591 185.091C132.125 180.741 139.629 182.995 139.7 183.019L141.657 183.624L67.0839 142.559Z" fill="#172224"/>
<path d="M139.77 182.825C142.937 185.744 144.408 188.769 143.616 197.971C142.824 207.174 148.367 217.212 160.696 209.737C173.025 202.261 174.721 192.436 174.721 171.398C174.721 150.36 174.382 173.204 174.382 161.67C174.382 150.136 180.942 119.702 210.351 104.324L135.246 63.42C135.246 63.42 118.14 69.2343 106.812 91.5155C101.605 101.755 99.0504 113.016 99.0504 124.375V131.35C99.0504 149.291 96.5676 155.644 93.7656 157.487L139.77 182.825Z" fill="white"/>
<path d="M135.351 63.2445L135.264 63.1965L135.173 63.2301C135 63.2877 117.853 69.3269 106.615 91.4258C101.524 101.442 98.8317 112.834 98.8317 124.375V131.35C98.8317 133.211 98.8063 134.977 98.7504 136.641L99.1822 136.818C99.2381 135.101 99.2635 133.278 99.2635 131.35V124.375C99.2635 112.896 101.941 101.566 107.006 91.6033C117.731 70.5069 133.852 64.1559 135.224 63.6474L209.908 104.32C199.64 109.759 191.344 117.415 185.161 127.133L185.547 127.325C191.755 117.573 200.108 109.913 210.457 104.502L210.792 104.329L135.351 63.2445ZM180.563 135.572C175.858 145.765 174.161 155.665 174.161 161.671C174.161 166.578 174.227 169.595 174.293 173.082C174.394 177.869 174.501 159.316 174.501 171.399C174.501 191.603 173.129 201.954 160.575 209.567C156.023 212.325 152.01 212.876 148.976 211.159C144.841 208.813 143.413 202.856 143.83 197.987C144.622 188.767 143.2 185.703 139.918 182.681L94.1519 157.468C96.1181 155.967 97.5051 152.532 98.3333 147.073L97.9014 146.934C97.058 152.532 95.6304 156.01 93.6388 157.319L93.3594 157.502L139.638 182.992C142.804 185.918 144.175 188.917 143.398 197.958C142.971 202.947 144.46 209.077 148.753 211.509C149.764 212.08 151.115 212.545 152.853 212.545C154.936 212.545 157.567 211.874 160.809 209.912C173.541 202.189 174.938 191.756 174.938 171.398C174.938 159.31 174.826 177.864 174.73 173.077C174.659 169.59 174.598 166.577 174.598 161.67C174.598 155.688 176.295 145.827 180.999 135.662L180.563 135.572Z" fill="#172224"/>
<path d="M44.4727 155.483L56.4059 161.988L63.9287 153.079L51.9955 146.574L44.4727 155.483Z" fill="white"/>
<path d="M64.1805 152.974L52.2463 146.469C52.1802 146.43 52.0685 146.416 51.9516 146.43C51.8398 146.445 51.7433 146.483 51.7027 146.536L44.1783 155.444C44.1326 155.496 44.1479 155.55 44.219 155.588L56.1532 162.092C56.1888 162.112 56.2345 162.126 56.2853 162.131C56.3362 162.14 56.392 162.14 56.4479 162.131C56.5597 162.116 56.6562 162.078 56.6969 162.025L64.2212 153.118C64.2669 153.064 64.2517 153.012 64.1805 152.974ZM44.8388 155.439L52.0786 146.862L63.5658 153.122L56.3209 161.699L44.8388 155.439Z" fill="#172224"/>
<path d="M113.188 180.258C113.101 180.316 113.015 180.373 112.934 180.436C112.319 180.882 111.704 181.376 111.084 181.923L63.957 156.231L65.5777 154.307L113.188 180.258Z" fill="#C2C7CC"/>
<path d="M61.1445 159.564L91.124 175.906L92.7462 173.986L62.7668 157.644L61.1445 159.564Z" fill="#C2C7CC"/>
<path d="M106.823 186.528C106.341 187.16 105.863 187.837 105.396 188.552L58.3242 162.898L59.95 160.98L106.823 186.528Z" fill="#C2C7CC"/>
<path d="M39.3789 177.335L51.3122 183.84L53.3302 171.93L41.3969 165.425L39.3789 177.335Z" fill="#D2FC1B"/>
<path d="M53.4802 171.768L41.5465 165.264C41.4789 165.225 41.3844 165.22 41.3062 165.254C41.2218 165.282 41.1649 165.345 41.1542 165.418L39.1347 177.324C39.124 177.396 39.1586 177.458 39.2297 177.496L51.1599 184.001C51.195 184.02 51.2346 184.031 51.2788 184.034C51.3225 184.037 51.3642 184.027 51.4033 184.01C51.4876 183.982 51.5415 183.92 51.5547 183.853L53.5712 171.941C53.5849 171.874 53.5478 171.807 53.4802 171.768ZM39.6397 177.232L41.5841 165.772L53.0702 172.031L51.1254 183.492L39.6397 177.232Z" fill="#172224"/>
<path d="M102.523 199.074C102.453 199.952 102.364 200.842 102.264 201.742L54.6875 175.805L55.1199 173.233L102.523 199.074Z" fill="#172224"/>
<path d="M53.9297 180.262L83.9086 196.605L84.344 194.037L54.3646 177.695L53.9297 180.262Z" fill="#172224"/>
<path d="M101.271 208.135C101.11 208.966 100.932 209.802 100.74 210.647L53.1758 184.721L53.6107 182.155L101.271 208.135Z" fill="#172224"/>
<path d="M50.3987 172.345L45.3085 176.254L43.5485 171.907C43.4286 171.609 43.0161 171.465 42.6295 171.585C42.2423 171.704 42.0259 172.042 42.1468 172.34L44.585 178.363L51.3767 173.145C51.68 172.913 51.7059 172.545 51.4351 172.323C51.1648 172.103 50.7 172.112 50.3987 172.345Z" fill="white"/>
<path d="M31.0547 197.854L42.9879 204.36L47.1637 193.626L35.2304 187.121L31.0547 197.854Z" fill="white"/>
<path d="M47.3524 193.488L35.4232 186.983C35.352 186.944 35.2504 186.935 35.159 186.959C35.0625 186.983 34.9913 187.036 34.9659 187.098L30.7948 197.833C30.7694 197.896 30.7948 197.958 30.8659 197.996L42.8002 204.501C42.8357 204.52 42.8764 204.53 42.9221 204.535C42.9678 204.54 43.0135 204.535 43.0593 204.52C43.1558 204.496 43.2269 204.444 43.2523 204.381L47.4286 193.646C47.4489 193.584 47.4235 193.526 47.3524 193.488ZM31.3587 197.776L35.3774 187.443L46.8595 193.704L42.8408 204.036L31.3587 197.776Z" fill="#172224"/>
<path d="M96.3061 220.743C96.0165 221.501 95.6964 222.259 95.3458 223.027L48 197.215L48.8993 194.903L96.3061 220.743Z" fill="#C2C7CC"/>
<path d="M46.4336 201.235L76.4125 217.577L77.3128 215.263L47.3339 198.921L46.4336 201.235Z" fill="#C2C7CC"/>
<path d="M92.4252 228.37C91.9934 229.046 91.5311 229.727 91.0332 230.419L44.8711 205.254L45.7703 202.938L92.4252 228.37Z" fill="#C2C7CC"/>
<path d="M14.4023 211.832L26.3356 218.337L35.8627 210.521L23.9289 204.016L14.4023 211.832Z" fill="#D2FC1B"/>
<path d="M36.1516 210.435L24.2173 203.93C24.1513 203.891 24.0293 203.872 23.9074 203.882C23.7804 203.887 23.6686 203.92 23.6127 203.968L14.0866 211.782C14.0308 211.831 14.0409 211.878 14.112 211.917L26.0412 218.421C26.0768 218.44 26.1225 218.455 26.1784 218.464C26.2343 218.474 26.2953 218.474 26.3562 218.469C26.4832 218.464 26.5899 218.431 26.6458 218.388L36.1719 210.569C36.2278 210.525 36.2176 210.473 36.1516 210.435ZM14.803 211.806L23.9734 204.285L35.4606 210.545L26.2902 218.067L14.803 211.806Z" fill="#172224"/>
<path d="M84.8644 237.561C84.2649 238.15 83.6349 238.746 82.9846 239.345L35.4102 213.409L37.4627 211.72L84.8644 237.561Z" fill="#172224"/>
<path d="M31.8438 216.335L61.8227 232.677L63.8768 230.991L33.8973 214.649L31.8438 216.335Z" fill="#172224"/>
<path d="M77.9907 243.557C77.2998 244.099 76.5834 244.641 75.8417 245.188L28.2773 219.26L30.3299 217.577L77.9907 243.557Z" fill="#172224"/>
<path d="M31.7681 210.302L22.8207 212.109L23.0158 208.827C23.0295 208.603 22.5708 208.434 21.9936 208.449C21.4149 208.465 20.9353 208.659 20.9226 208.884L20.6523 213.43L32.5922 211.019C33.1246 210.912 33.371 210.665 33.1429 210.466C32.9153 210.267 32.2985 210.194 31.7681 210.302Z" fill="white"/>
<path d="M112.598 96.1195L124.531 102.624L128.293 91.6651L116.359 85.1602L112.598 96.1195Z" fill="white"/>
<path d="M128.474 91.5205L116.545 85.016C116.474 84.9777 116.377 84.9681 116.286 84.9968C116.194 85.0208 116.123 85.0784 116.103 85.1407L112.338 96.1015C112.318 96.1638 112.348 96.2262 112.42 96.2646L124.349 102.769C124.384 102.788 124.425 102.798 124.471 102.803C124.516 102.807 124.562 102.803 124.608 102.788C124.699 102.764 124.77 102.707 124.791 102.644L128.55 91.6836C128.576 91.6213 128.545 91.5594 128.474 91.5205ZM112.892 96.0348L116.514 85.4866L128.002 91.7465L124.379 102.299L112.892 96.0348Z" fill="#172224"/>
<path d="M180.69 120.557C180.228 121.219 179.77 121.905 179.314 122.61L129.234 95.311L130.042 92.9462L180.69 120.557Z" fill="#C2C7CC"/>
<path d="M127.82 99.4131L157.799 115.755L158.611 113.392L128.631 97.0502L127.82 99.4131Z" fill="#C2C7CC"/>
<path d="M176.231 127.867C176.048 128.222 175.86 128.586 175.672 128.951C175.484 129.32 175.301 129.694 175.118 130.069L126.41 103.518L127.223 101.153L176.231 127.867Z" fill="#C2C7CC"/>
<path d="M106.297 136.712L118.23 143.217V130.207L106.297 123.702V136.712Z" fill="white"/>
<path d="M118.344 130.025L106.41 123.52C106.338 123.482 106.252 123.482 106.186 123.52C106.115 123.559 106.074 123.626 106.074 123.703V136.712C106.074 136.788 106.115 136.856 106.186 136.894L118.12 143.399C118.151 143.418 118.191 143.428 118.227 143.428C118.268 143.428 118.308 143.418 118.344 143.399C118.41 143.361 118.456 143.293 118.456 143.217V130.208C118.456 130.131 118.41 130.064 118.344 130.025ZM118.003 142.852L106.521 136.592V124.067L118.003 130.327V142.852Z" fill="#172224"/>
<path d="M168.026 157.684C167.97 158.6 167.939 159.516 167.919 160.432L120.07 134.347V131.541L168.026 157.684Z" fill="#C2C7CC"/>
<path d="M120.074 139.216L150.054 155.559V152.754L120.074 136.411V139.216Z" fill="#C2C7CC"/>
<path d="M167.913 167.359V168.788C167.913 169.254 167.913 169.709 167.908 170.16L120.074 144.089V141.283L167.913 167.359Z" fill="#C2C7CC"/>
<path d="M104.023 155.799L115.957 162.305L117.409 150.086L105.476 143.582L104.023 155.799Z" fill="#D2FC1B"/>
<path d="M117.55 149.918L105.616 143.413C105.545 143.375 105.453 143.375 105.377 143.403C105.301 143.437 105.245 143.504 105.24 143.571L103.787 155.794C103.777 155.861 103.817 155.928 103.883 155.966L115.817 162.471C115.853 162.49 115.894 162.5 115.934 162.504C115.975 162.504 116.016 162.494 116.056 162.48C116.133 162.447 116.183 162.384 116.193 162.312L117.647 150.094C117.657 150.023 117.616 149.956 117.55 149.918ZM104.274 155.693L105.672 143.931L117.159 150.191L115.762 161.953L104.274 155.693Z" fill="#172224"/>
<path d="M167.656 177.802C167.595 178.747 167.528 179.649 167.452 180.498L118.902 154.034L119.217 151.401L167.656 177.802Z" fill="#172224"/>
<path d="M118.355 158.608L148.335 174.95L148.648 172.316L118.668 155.974L118.355 158.608Z" fill="#172224"/>
<path d="M166.534 186.935C166.341 187.846 166.138 188.667 165.919 189.401L117.816 163.181L118.131 160.548L166.534 186.935Z" fill="#172224"/>
<path d="M114.57 150.548L109.77 154.616L107.863 150.189C107.733 149.886 107.324 149.743 106.952 149.871C106.579 149.999 106.382 150.348 106.513 150.651L109.156 156.785L115.56 151.355C115.846 151.114 115.855 150.737 115.581 150.514C115.307 150.291 114.854 150.306 114.57 150.548Z" fill="white"/>
<path d="M106.539 114.435L118.472 120.94L120.466 109.017L108.533 102.512L106.539 114.435Z" fill="#D2FC1B"/>
<path d="M120.62 108.855L108.685 102.35C108.614 102.312 108.521 102.311 108.441 102.338C108.362 102.37 108.302 102.434 108.294 102.5L106.299 114.427C106.286 114.493 106.325 114.558 106.391 114.597L118.325 121.101C118.361 121.121 118.402 121.131 118.443 121.136C118.485 121.136 118.526 121.127 118.569 121.114C118.648 121.082 118.703 121.022 118.716 120.952L120.711 109.03C120.724 108.959 120.686 108.893 120.62 108.855ZM106.802 114.335L108.721 102.858L120.208 109.117L118.29 120.595L106.802 114.335Z" fill="#172224"/>
<path d="M170.702 136.726C170.6 137.649 170.495 138.53 170.382 139.358L121.832 112.894L122.264 110.325L170.702 136.726Z" fill="#172224"/>
<path d="M121.082 117.359L151.061 133.701L151.492 131.13L121.512 114.788L121.082 117.359Z" fill="#172224"/>
<path d="M169.174 145.638C168.939 146.527 168.697 147.326 168.443 148.04L120.34 121.821L120.772 119.251L169.174 145.638Z" fill="#172224"/>
<path d="M117.543 109.434L112.466 113.351L110.699 109C110.579 108.702 110.166 108.558 109.781 108.678C109.394 108.798 109.178 109.137 109.299 109.435L111.746 115.462L118.522 110.235C118.824 110.002 118.849 109.634 118.579 109.413C118.308 109.192 117.844 109.201 117.543 109.434Z" fill="white"/>
<path d="M192.364 151.845C187.276 146.907 183.024 139.088 180.696 130.398C178.368 121.707 178.171 112.92 180.156 106.292C181.606 101.452 184.055 99.4026 184.732 99.2405L184.668 99.0016C186.425 99.9331 188.227 101.276 189.998 102.998C195.335 108.177 199.748 116.206 202.112 125.029C204.475 133.852 204.636 142.897 202.549 149.848C201.801 152.358 200.79 154.486 199.596 156.159L199.548 155.98C199.051 156.098 196.378 155.744 192.364 151.845Z" fill="#D2FC1B"/>
<path d="M196.574 161.167C195.952 160.821 195.333 160.443 194.713 160.028C196.445 159.487 198.04 158.25 199.399 156.438C199.321 156.44 199.229 156.435 199.131 156.427C199.268 156.289 199.394 156.141 199.508 155.986C199.521 155.983 199.54 155.982 199.551 155.979L199.598 156.159C200.793 154.486 201.803 152.358 202.552 149.848C204.638 142.897 204.478 133.852 202.114 125.029C199.751 116.206 195.337 108.177 190.001 102.998C188.229 101.276 186.428 99.9328 184.67 99.0013L184.676 99.0215C184.587 98.9744 184.496 98.9313 184.405 98.891C184.414 98.8867 184.425 98.8804 184.435 98.8761C182.137 97.7018 179.928 97.2361 177.978 97.5608C178.317 96.9084 178.679 96.2868 179.056 95.7025L175.498 91.3369L175.492 91.3293L188.868 88.1351L188.87 88.1437C194.819 86.6097 201.794 88.8531 208.35 95.219C221.276 107.773 227.662 131.607 222.612 148.458C220.048 157.011 215.027 162.116 209.014 163.428L209.012 163.438L195.637 166.633L195.639 166.623L196.574 161.167Z" fill="#C2C7CC"/>
<path d="M181.727 154.821C176.391 149.643 171.977 141.613 169.614 132.79C167.25 123.967 167.09 114.922 169.176 107.971C170.886 102.271 173.913 98.509 177.493 97.6542C177.651 97.6163 177.815 97.5823 177.978 97.5616C179.927 97.2369 182.136 97.7022 184.434 98.8769C183.332 99.335 181.043 101.727 179.713 106.172C177.704 112.874 177.898 121.738 180.246 130.506C182.594 139.269 186.888 147.159 192.03 152.153C195.761 155.77 198.396 156.464 199.398 156.438C198.039 158.251 196.445 159.488 194.712 160.029C194.558 160.084 194.397 160.127 194.238 160.165C190.664 161.018 186.102 159.069 181.727 154.821Z" fill="#C2C7CC"/>
<path d="M199.325 156.276L199.473 156.831L199.842 156.314C201.08 154.581 202.087 152.431 202.836 149.924C204.934 142.93 204.776 133.831 202.399 124.961C200.023 116.091 195.581 108.015 190.212 102.804C188.432 101.075 186.617 99.7139 184.814 98.7583L184.216 98.4408L184.387 99.0802C183.416 99.5872 181.227 101.699 179.874 106.215C177.875 112.889 178.071 121.728 180.412 130.465C182.753 139.206 187.033 147.069 192.155 152.039C195.744 155.527 198.332 156.264 199.325 156.276ZM199.477 155.71C199.043 155.814 196.453 155.417 192.577 151.651C187.526 146.749 183.3 138.978 180.983 130.33C178.667 121.684 178.469 112.951 180.441 106.368C181.868 101.605 184.257 99.6419 184.805 99.511L184.948 99.4769C186.562 100.39 188.188 101.638 189.788 103.193C195.087 108.336 199.475 116.32 201.826 125.098C204.178 133.877 204.338 142.87 202.267 149.773C201.58 152.072 200.675 154.06 199.572 155.688L199.477 155.71Z" fill="#172224"/>
<path d="M196.251 161.309L195.258 167.011L209.268 163.658C215.572 162.198 220.407 156.836 222.896 148.535C225.429 140.081 225.088 129.852 222.492 120.163C219.897 110.474 215.047 101.324 208.561 95.0254C202.207 88.8557 195.272 86.3038 189.008 87.8215L188.796 87.8657L174.957 91.1707L175.268 91.5117L178.698 95.7224C178.348 96.2759 178.018 96.8525 177.713 97.4387L177.458 97.9308L178.029 97.8359C179.729 97.5524 181.696 97.9049 183.749 98.8561L183.718 98.8691L184.28 99.144C184.366 99.1818 184.449 99.2221 184.532 99.2653L185.13 99.5805V99.58C186.685 100.483 188.249 101.696 189.79 103.192C195.088 108.336 199.476 116.32 201.828 125.098C204.179 133.877 204.34 142.87 202.268 149.773C201.581 152.072 200.676 154.06 199.573 155.687L199.359 155.731L199.265 155.828C199.156 155.975 199.038 156.112 198.914 156.237L198.497 156.656L198.841 156.684C197.575 158.249 196.157 159.285 194.619 159.765L194.066 159.937L194.542 160.256C195.098 160.628 195.673 160.981 196.251 161.309ZM196 166.259L196.898 161.023L196.724 160.927C196.26 160.669 195.798 160.392 195.344 160.102C196.852 159.504 198.237 158.402 199.471 156.82L199.474 156.831L199.981 156.143L199.964 156.143C201.147 154.44 202.113 152.349 202.837 149.924C204.935 142.93 204.776 133.831 202.4 124.96C200.024 116.091 195.582 108.015 190.213 102.804C188.433 101.075 186.617 99.7138 184.815 98.7583L184.576 98.6312C184.574 98.6307 184.573 98.6297 184.57 98.6293L184.216 98.4407L184.219 98.4547C182.199 97.4833 180.239 97.0593 178.493 97.2147C178.75 96.7475 179.023 96.2898 179.308 95.8476L179.413 95.6845L176.001 91.4959L188.656 88.4739L188.657 88.4792L188.949 88.4125C195.053 86.8387 201.868 89.3249 208.14 95.4135C220.978 107.883 227.344 131.645 222.33 148.383C219.877 156.561 215.126 161.809 208.949 163.158L208.762 163.198L208.76 163.212L196 166.259Z" fill="#172224"/>
<path d="M213.705 142.436C213.788 140.115 215.633 137.202 217.824 135.929C218.779 135.376 219.641 135.225 220.304 135.422L238.342 144.901L232.542 154.218C232.542 154.218 219.179 147.549 215.046 144.843C214.455 144.456 213.658 143.748 213.705 142.436Z" fill="#172224"/>
<path d="M231.511 151.924C231.593 149.603 233.439 146.69 235.631 145.418C237.822 144.145 239.533 144.996 239.45 147.317C239.367 149.638 237.523 152.551 235.33 153.823C233.137 155.096 231.428 154.245 231.511 151.924Z" fill="#172224"/>
<path d="M228.499 142.862L273.406 167.005L273.22 182L228.312 157.856L228.499 142.862Z" fill="#8D8D8D"/>
<path d="M228.516 142.873L241.756 135.618L286.682 159.799L273.407 167.004L228.516 142.873Z" fill="#8D8D8D"/>
<path d="M286.68 159.799L286.495 174.795L273.219 182.002L273.404 167.007L286.68 159.799Z" fill="#C2C7CC"/>
<path d="M228.165 158.098C228.072 158.048 228.015 157.954 228.016 157.853L228.202 142.858C228.203 142.76 228.259 142.669 228.349 142.62C228.44 142.571 228.551 142.571 228.642 142.619L259.524 159.083L259.234 159.568L228.786 143.336L228.607 157.696L272.928 181.524L273.106 167.164L262.979 161.62L263.274 161.139L273.551 166.764C273.597 166.789 273.634 166.825 273.659 166.866C273.685 166.908 273.699 166.957 273.698 167.008L273.512 182.003C273.512 182.102 273.455 182.192 273.364 182.241C273.273 182.29 273.162 182.291 273.072 182.241L228.165 158.098Z" fill="#172224"/>
<path d="M273.257 167.245L261.565 160.848L261.86 160.367L273.405 166.683L286.086 159.8L241.755 135.939L229.107 142.871L259.802 159.24L260.058 159.378L259.768 159.862L228.368 143.117C228.277 143.068 228.219 142.976 228.219 142.876C228.218 142.776 228.274 142.684 228.365 142.633L241.606 135.378C241.697 135.328 241.808 135.328 241.9 135.377L286.827 159.558C286.873 159.583 286.91 159.619 286.936 159.661C286.961 159.702 286.975 159.75 286.975 159.799C286.975 159.899 286.919 159.992 286.827 160.042L273.551 167.247C273.46 167.295 273.347 167.295 273.257 167.245Z" fill="#172224"/>
<path d="M273.364 182.244L286.64 175.036C286.73 174.987 286.786 174.896 286.788 174.798L286.973 159.803C286.974 159.752 286.961 159.703 286.935 159.661C286.909 159.619 286.873 159.584 286.828 159.559C286.736 159.509 286.624 159.508 286.531 159.558L273.255 166.765C273.165 166.815 273.109 166.905 273.108 167.004L272.922 181.999C272.921 182.1 272.976 182.193 273.067 182.243C273.159 182.294 273.271 182.294 273.364 182.244ZM273.517 181.517L273.696 167.169L286.378 160.283L286.2 174.632L273.517 181.517Z" fill="#172224"/>
<path d="M195.636 166.623C195.742 166.607 195.846 166.582 195.95 166.557C201.836 165.152 206.747 160.065 209.27 151.645C214.324 134.792 207.939 110.958 195.007 98.4056C188.542 92.1271 181.665 89.8558 175.774 91.2622C175.679 91.2847 175.588 91.3063 175.496 91.338C169.73 92.8327 164.935 97.8866 162.454 106.176C157.4 123.028 163.785 146.862 176.718 159.419C183.066 165.584 189.811 167.882 195.636 166.623ZM194.237 160.164C190.662 161.018 186.1 159.069 181.725 154.821C176.39 149.642 171.976 141.613 169.612 132.79C167.249 123.967 167.088 114.922 169.174 107.971C170.884 102.27 173.911 98.5088 177.491 97.654C177.65 97.6161 177.813 97.582 177.976 97.5614C179.921 97.2371 182.125 97.7005 184.417 98.8695C184.894 99.0071 185.339 99.246 185.704 99.5996C187.129 100.477 188.573 101.613 189.998 102.998C195.335 108.177 199.748 116.206 202.112 125.029C204.476 133.852 204.637 142.897 202.549 149.848C201.857 152.171 200.937 154.162 199.857 155.773C199.716 156.075 199.518 156.345 199.284 156.58C197.95 158.312 196.396 159.502 194.711 160.028C194.557 160.083 194.395 160.126 194.237 160.164Z" fill="white"/>
<path d="M194.312 160.434C194.48 160.394 194.65 160.349 194.811 160.291C196.543 159.749 198.128 158.555 199.525 156.744C199.767 156.504 199.979 156.207 200.128 155.886C201.229 154.251 202.147 152.232 202.836 149.924C204.934 142.93 204.776 133.832 202.4 124.961C200.024 116.091 195.581 108.015 190.212 102.804C188.8 101.433 187.347 100.282 185.894 99.3831C185.513 99.0214 185.047 98.7586 184.506 98.6032C182.198 97.4203 179.903 96.9583 177.927 97.2874C177.766 97.3075 177.591 97.3445 177.422 97.3848C173.742 98.2635 170.634 102.095 168.893 107.896C166.795 114.891 166.953 123.99 169.329 132.859C171.705 141.729 176.148 149.804 181.517 155.016C185.97 159.338 190.633 161.313 194.312 160.434ZM194.168 159.894C190.698 160.723 186.241 158.803 181.939 154.628C176.641 149.484 172.253 141.5 169.901 132.722C167.55 123.945 167.389 114.951 169.461 108.047C171.143 102.443 174.097 98.7533 177.566 97.9244C177.714 97.8889 177.867 97.8568 178.018 97.8371C179.874 97.5277 182.036 97.9705 184.281 99.114C184.789 99.2666 185.18 99.4882 185.495 99.7937L185.546 99.8326C186.973 100.711 188.4 101.841 189.791 103.192C195.089 108.335 199.477 116.319 201.829 125.097C204.18 133.876 204.34 142.87 202.269 149.772C201.596 152.029 200.701 153.998 199.611 155.624C199.468 155.923 199.293 156.167 199.072 156.389C197.725 158.134 196.235 159.26 194.62 159.765L194.609 159.768C194.466 159.819 194.316 159.859 194.168 159.894Z" fill="#172224"/>
<path d="M195.694 166.897C195.806 166.88 195.915 166.854 196.024 166.828C202.279 165.334 207.084 159.969 209.555 151.721C212.09 143.267 211.75 133.037 209.155 123.349C206.56 113.658 201.709 104.51 195.22 98.2113C188.889 92.0627 181.957 89.4988 175.704 90.9926C175.599 91.0175 175.5 91.0415 175.399 91.0755C169.304 92.6547 164.598 97.9926 162.171 106.099C157.101 123.008 163.532 147.014 176.507 159.613C182.714 165.64 189.527 168.226 195.694 166.897ZM195.879 166.287C195.784 166.31 195.689 166.333 195.592 166.348L195.573 166.351C189.612 167.641 182.99 165.109 176.931 159.224C170.508 152.988 165.706 143.929 163.136 134.337C160.567 124.745 160.229 114.62 162.739 106.251C165.108 98.3389 169.667 93.1377 175.576 91.6061C175.681 91.572 175.763 91.5528 175.849 91.5322C181.89 90.0898 188.62 92.5995 194.798 98.5994C207.641 111.068 214.008 134.83 208.988 151.569C206.577 159.618 201.921 164.845 195.879 166.287Z" fill="#172224"/>
</svg>
