<svg width="111" height="242" viewBox="0 0 111 242" fill="none" xmlns="http://www.w3.org/2000/svg">
<g clip-path="url(#clip0_6741_1730)">
<path d="M11.5703 159.603L11.8065 214.417C11.8065 220.972 16.2465 227.503 25.032 232.414C42.3433 242.07 69.9044 241.812 86.8378 231.803C95.1037 226.869 99.2131 220.525 99.1895 214.182L98.9533 159.368L11.5703 159.603Z" fill="#C2C7CB"/>
<path d="M55.2638 239.65C44.684 239.866 34.2184 237.442 24.8214 232.602C16.2248 227.903 11.4778 221.348 11.4542 214.393L11.3125 159.367H11.5723L99.1914 159.109V159.367L99.3331 214.182C99.3331 220.878 94.9167 227.221 86.8397 232.014C77.1649 237.258 66.2787 239.891 55.2638 239.65ZM11.8085 159.767L11.9502 214.323C11.9502 221.089 16.6736 227.386 25.0576 232.108C42.2508 241.694 69.9299 241.506 86.5799 231.474C94.4916 226.775 98.8372 220.596 98.8372 214.088L98.6719 159.532L11.8085 159.767Z" fill="#172224"/>
<path d="M96.2614 159.367H90.3572C89.9995 159.37 89.6461 159.444 89.3175 159.585C88.9889 159.725 88.6917 159.929 88.4433 160.185C88.1948 160.441 88.0001 160.744 87.8705 161.075C87.7409 161.407 87.679 161.761 87.6884 162.116V225.835C87.6865 226.345 87.8309 226.845 88.1047 227.276C88.3786 227.707 88.7705 228.052 89.2344 228.269C89.6982 228.486 90.2148 228.567 90.7233 228.502C91.2318 228.437 91.7111 228.229 92.1048 227.903C94.2108 226.265 95.9348 224.192 97.1579 221.827C98.3811 219.462 99.0743 216.862 99.1899 214.205L98.9538 162.116C98.9632 161.759 98.9006 161.403 98.7695 161.07C98.6384 160.737 98.4416 160.433 98.1907 160.177C97.9397 159.92 97.6397 159.717 97.3084 159.578C96.977 159.439 96.621 159.367 96.2614 159.367Z" fill="#C2C7CB"/>
<path d="M90.4058 228.796C89.9906 228.794 89.5803 228.706 89.2013 228.537C88.6626 228.318 88.2018 227.943 87.8779 227.462C87.554 226.981 87.3816 226.414 87.3828 225.835V162.116C87.3828 161.342 87.6906 160.598 88.2391 160.048C88.7876 159.498 89.5325 159.186 90.3113 159.18H96.2156C97.0007 159.18 97.7541 159.488 98.3114 160.038C98.8688 160.588 99.1851 161.335 99.1913 162.116L99.333 214.252C99.218 216.936 98.5261 219.564 97.3039 221.959C96.0817 224.355 94.3577 226.461 92.2479 228.138C91.7299 228.564 91.0782 228.797 90.4058 228.796ZM96.2628 159.626H90.3586C89.7322 159.626 89.1315 159.874 88.6886 160.314C88.2457 160.755 87.9969 161.352 87.9969 161.975V225.835C87.985 226.311 88.1186 226.779 88.3801 227.178C88.6415 227.576 89.0185 227.887 89.4611 228.067C89.8801 228.262 90.3473 228.331 90.805 228.264C91.2626 228.197 91.6904 227.998 92.0354 227.691C94.0843 226.057 95.7593 224.006 96.9485 221.677C98.1377 219.347 98.8137 216.792 98.9315 214.182L98.719 162.116C98.721 161.796 98.6571 161.479 98.5311 161.184C98.4052 160.889 98.22 160.622 97.9869 160.401C97.7626 160.174 97.4941 159.994 97.1977 159.873C96.9013 159.751 96.5832 159.691 96.2628 159.696V159.626Z" fill="#172224"/>
<path d="M85.7309 141.37C68.4196 131.714 40.8586 131.972 23.9252 142.005C6.99177 152.037 7.39326 167.849 24.799 177.6C42.2047 187.35 69.6713 186.998 86.6047 176.989C103.538 166.98 103.019 151.05 85.7309 141.37Z" fill="#172224"/>
<path d="M84.5024 141.088C67.9705 131.831 41.3305 132.09 25.1765 141.699C9.02243 151.309 9.44754 166.604 25.9795 175.885C42.5114 185.165 69.1514 184.883 85.3054 175.274C101.459 165.664 101.129 150.369 84.5024 141.088Z" fill="#C2C7CB"/>
<path d="M55.122 182.91C44.9989 183.124 34.982 180.823 25.9786 176.213C17.7127 171.514 13.1546 165.382 13.0601 158.757C12.9657 152.131 17.2167 146.14 25.034 141.464C41.2352 131.855 67.9697 131.573 84.6433 140.971C92.8148 145.552 97.3729 151.708 97.4674 158.31C97.5618 164.912 93.3108 170.951 85.4699 175.603C76.1684 180.632 65.7057 183.151 55.122 182.91ZM55.4055 134.58C44.9036 134.358 34.5274 136.885 25.3174 141.911C17.6418 146.469 13.5089 152.436 13.5089 158.757C13.5089 165.077 18.0669 171.186 26.0967 175.65C42.6286 184.883 69.1269 184.625 85.1393 175.062C92.8148 170.504 96.9478 164.536 96.9478 158.216C96.9478 151.896 92.3897 145.787 84.3599 141.323C75.424 136.711 65.4709 134.393 55.4055 134.58Z" fill="#172224"/>
<path d="M67.4947 151.215C63.6315 149.306 59.3693 148.331 55.0557 148.372C50.7421 148.413 46.4993 149.468 42.6732 151.45C35.9188 155.468 36.0605 161.882 43.0275 165.758C46.8891 167.673 51.152 168.65 55.4666 168.61C59.7812 168.569 64.0247 167.511 67.849 165.523C74.6035 161.506 74.4618 155.068 67.4947 151.215Z" fill="#C2C7CB"/>
<path d="M55.1934 168.86C50.924 168.934 46.7032 167.949 42.9126 165.993C41.4194 165.36 40.125 164.339 39.1651 163.037C38.2052 161.734 37.6152 160.199 37.457 158.592C37.569 157.031 38.096 155.527 38.9841 154.235C39.8721 152.943 41.0893 151.909 42.5111 151.238C46.3783 149.241 50.6636 148.177 55.0207 148.132C59.3778 148.087 63.6844 149.063 67.5924 150.98C69.0826 151.617 70.3744 152.64 71.3337 153.941C72.293 155.242 72.8848 156.775 73.0479 158.381C72.9361 159.945 72.4065 161.452 71.5139 162.744C70.6213 164.037 69.3979 165.07 67.9702 165.735C64.0569 167.864 59.653 168.941 55.1934 168.86ZM55.3115 148.63C50.942 148.538 46.6249 149.591 42.7945 151.685C41.447 152.309 40.2895 153.277 39.4392 154.49C38.589 155.703 38.0762 157.118 37.953 158.592C38.1115 160.12 38.6764 161.579 39.5896 162.818C40.5028 164.057 41.7313 165.031 43.1487 165.641C46.9784 167.524 51.2006 168.483 55.4725 168.438C59.7443 168.393 63.9453 167.346 67.7341 165.382C69.0815 164.758 70.239 163.79 71.0893 162.577C71.9395 161.364 72.4523 159.949 72.5755 158.475C72.417 156.947 71.8521 155.488 70.9389 154.249C70.0257 153.01 68.7972 152.036 67.3798 151.426C63.6516 149.515 59.5049 148.554 55.3115 148.63Z" fill="#172224"/>
<path d="M19.5547 178.986V223.345C28.7653 230.84 42.1326 234.153 54.0119 234.764V190.311C48.0521 190.017 42.1471 189.031 36.4172 187.374C30.3015 185.696 24.5736 182.847 19.5547 178.986Z" fill="#C2C7CB"/>
<path d="M54.32 234.951H54.0366C40.1498 234.317 27.4911 230.252 19.4141 223.533V178.563L19.8156 178.892C24.7869 182.783 30.487 185.65 36.5836 187.327C42.2866 188.996 48.1695 189.982 54.1075 190.264H54.32V234.951ZM19.8156 223.204C27.7745 229.642 40.1262 233.73 53.7532 234.482V190.64C47.8565 190.335 42.0154 189.349 36.3475 187.703C30.3648 186.035 24.7548 183.253 19.8156 179.503V223.204Z" fill="#172224"/>
<path d="M93.7116 178.07C93.5258 178.21 93.3755 178.391 93.273 178.599C93.1704 178.807 93.1184 179.036 93.1212 179.268V214.84C93.1246 215.149 93.2224 215.45 93.4018 215.703C93.5811 215.956 93.8335 216.149 94.1255 216.256C94.4175 216.363 94.7353 216.379 95.0367 216.303C95.3382 216.226 95.6091 216.06 95.8135 215.826C97.5564 213.886 98.7253 211.503 99.1908 208.942L99.0727 169.705C99.1908 172.196 95.908 176.378 93.7116 178.07Z" fill="#172224"/>
<path d="M29.0945 216.531C27.4789 215.833 25.9022 215.048 24.3711 214.182C24.2202 214.092 24.0486 214.043 23.873 214.039C23.6973 214.035 23.5237 214.077 23.369 214.16C23.2143 214.243 23.0839 214.364 22.9905 214.512C22.897 214.66 22.8438 214.83 22.836 215.004V220.15C22.8349 220.301 22.8709 220.451 22.9408 220.586C23.0107 220.721 23.1125 220.838 23.2374 220.925C24.7995 222.035 26.4595 223.002 28.197 223.815C28.3465 223.895 28.5142 223.936 28.6842 223.934C28.8542 223.931 29.0207 223.885 29.1677 223.801C29.3147 223.716 29.4373 223.595 29.5237 223.449C29.6102 223.303 29.6575 223.138 29.6613 222.969V217.377C29.6613 217.196 29.6075 217.019 29.5066 216.869C29.4057 216.718 29.2623 216.601 29.0945 216.531Z" fill="#D2FC1B"/>
<path d="M28.6453 224.097C28.4478 224.095 28.2536 224.046 28.0784 223.956C26.3358 223.13 24.6685 222.155 23.0953 221.042C22.9348 220.932 22.8037 220.784 22.7132 220.613C22.6227 220.441 22.5755 220.25 22.5757 220.055V214.91C22.5646 214.687 22.6163 214.466 22.7247 214.271C22.8332 214.076 22.9942 213.915 23.1897 213.806C23.3864 213.69 23.6107 213.629 23.8392 213.629C24.0677 213.629 24.292 213.69 24.4887 213.806C26.0193 214.673 27.5961 215.458 29.2121 216.155C29.4259 216.246 29.6088 216.396 29.7387 216.588C29.8687 216.78 29.94 217.005 29.9442 217.236V222.734C29.941 222.936 29.8875 223.134 29.7886 223.31C29.6897 223.486 29.5484 223.636 29.3774 223.744C29.1796 223.939 28.9219 224.064 28.6453 224.097ZM23.9219 214.182C23.7978 214.151 23.668 214.151 23.544 214.182C23.4327 214.24 23.3403 214.328 23.2776 214.436C23.2149 214.544 23.1844 214.668 23.1897 214.793V219.938C23.1835 220.048 23.2063 220.159 23.256 220.257C23.3057 220.356 23.3806 220.441 23.4731 220.502C25.0102 221.627 26.6373 222.625 28.3382 223.486C28.4581 223.55 28.592 223.583 28.7279 223.583C28.8639 223.583 28.9977 223.55 29.1176 223.486C29.2205 223.424 29.3067 223.339 29.3685 223.236C29.4302 223.134 29.4657 223.018 29.4718 222.898V217.377C29.4647 217.24 29.4188 217.108 29.3394 216.995C29.26 216.883 29.1504 216.796 29.0231 216.743C27.4102 216.039 25.8337 215.254 24.2997 214.393C24.1701 214.273 24.004 214.198 23.8274 214.182H23.9219Z" fill="#172224"/>
<path d="M41.7774 220.619C40.3131 220.314 38.8725 219.962 37.4791 219.562C36.0857 219.163 35.1174 218.81 33.8657 218.411C33.7178 218.354 33.5584 218.334 33.401 218.352C33.2435 218.369 33.0926 218.424 32.9608 218.511C32.829 218.599 32.7202 218.716 32.6434 218.854C32.5666 218.992 32.5241 219.146 32.5195 219.304V224.825C32.5224 225.027 32.5874 225.223 32.7056 225.386C32.8238 225.55 32.9897 225.674 33.1808 225.741C35.8557 226.634 38.5851 227.356 41.3523 227.903C41.4979 227.93 41.6476 227.926 41.7914 227.89C41.9352 227.855 42.0697 227.79 42.186 227.698C42.3023 227.607 42.3976 227.492 42.4657 227.361C42.5337 227.231 42.5728 227.087 42.5804 226.94V221.559C42.5738 221.335 42.4906 221.12 42.3447 220.949C42.1987 220.778 41.9987 220.662 41.7774 220.619Z" fill="white"/>
<path d="M41.5672 228.161H41.3074C38.512 227.626 35.7578 226.895 33.0651 225.976C32.8179 225.901 32.6018 225.748 32.4487 225.541C32.2955 225.333 32.2136 225.082 32.2149 224.825V219.304C32.2147 219.11 32.2619 218.918 32.3524 218.747C32.4429 218.575 32.574 218.427 32.7344 218.317C32.9058 218.202 33.1023 218.129 33.3077 218.104C33.5131 218.08 33.7214 218.104 33.9153 218.176C35.1434 218.599 36.277 218.975 37.5051 219.304C38.7332 219.633 40.2683 220.056 41.7798 220.384C42.0571 220.434 42.3082 220.579 42.4895 220.793C42.6707 221.008 42.7706 221.279 42.7717 221.559V226.94C42.7727 227.12 42.7329 227.298 42.6552 227.46C42.5775 227.623 42.4639 227.766 42.3229 227.879C42.1084 228.052 41.8432 228.151 41.5672 228.161ZM33.5138 218.505C33.3536 218.508 33.1978 218.557 33.0651 218.646C32.9771 218.711 32.9057 218.797 32.8565 218.894C32.8073 218.992 32.7817 219.1 32.7817 219.21V224.731C32.781 224.879 32.8291 225.024 32.9186 225.143C33.0082 225.262 33.1342 225.348 33.2776 225.389C35.9314 226.298 38.6462 227.02 41.4019 227.55C41.5174 227.577 41.6374 227.575 41.7522 227.547C41.8671 227.518 41.9736 227.463 42.0632 227.386C42.1464 227.323 42.2133 227.241 42.2585 227.147C42.3036 227.053 42.3257 226.95 42.3229 226.846V221.559C42.3154 221.396 42.2532 221.241 42.1461 221.117C42.0391 220.993 41.8934 220.909 41.7325 220.878C40.1974 220.549 38.7568 220.173 37.4106 219.797C36.0644 219.421 35.0489 219.092 33.7972 218.646L33.5138 218.505Z" fill="#172224"/>
<path d="M52.9266 222.264C50.7066 222.1 48.4866 221.818 46.2902 221.489C46.1486 221.457 46.0015 221.457 45.86 221.49C45.7185 221.522 45.5862 221.586 45.4728 221.676C45.3594 221.767 45.2678 221.881 45.2049 222.011C45.142 222.141 45.1094 222.284 45.1094 222.429V227.715C45.1182 227.952 45.2105 228.178 45.3703 228.355C45.5301 228.531 45.747 228.645 45.9832 228.678C48.1796 228.984 50.4468 229.242 52.7613 229.407C52.8973 229.42 53.0345 229.404 53.1644 229.362C53.2943 229.32 53.4139 229.251 53.5159 229.161C53.6179 229.07 53.7 228.96 53.7571 228.837C53.8142 228.713 53.845 228.579 53.8477 228.443V223.204C53.842 222.96 53.7438 222.728 53.5729 222.554C53.402 222.379 53.1711 222.276 52.9266 222.264Z" fill="#D2FC1B"/>
<path d="M52.8333 229.665C50.4716 229.477 48.1099 229.242 46.0316 228.937C45.7374 228.892 45.4688 228.745 45.274 228.521C45.0792 228.297 44.971 228.011 44.9688 227.715V222.429C44.9668 222.254 45.0039 222.081 45.0774 221.923C45.151 221.764 45.2591 221.624 45.3939 221.512C45.5383 221.397 45.7051 221.312 45.8839 221.263C46.0627 221.215 46.2497 221.204 46.4331 221.23C48.6058 221.583 50.8258 221.841 53.0458 222.006C53.3571 222.029 53.6484 222.167 53.8625 222.393C54.0766 222.62 54.1981 222.917 54.2031 223.228V228.443C54.2032 228.61 54.1699 228.775 54.105 228.928C54.0401 229.081 53.945 229.22 53.8252 229.336C53.55 229.57 53.1943 229.688 52.8333 229.665ZM46.1261 221.724C45.9433 221.725 45.7671 221.792 45.6301 221.912C45.5487 221.971 45.4828 222.049 45.4376 222.139C45.3924 222.229 45.3694 222.328 45.3703 222.429V227.715C45.3745 227.889 45.4411 228.056 45.558 228.185C45.675 228.314 45.8346 228.398 46.008 228.42C48.1571 228.725 50.448 228.984 52.7861 229.172C53.002 229.174 53.2117 229.099 53.3765 228.96C53.4497 228.895 53.5085 228.816 53.5492 228.727C53.5899 228.638 53.6115 228.541 53.6127 228.443V223.204C53.6067 223.019 53.5302 222.843 53.3986 222.712C53.267 222.581 53.0902 222.505 52.9041 222.499C50.6841 222.311 48.4641 222.053 46.2678 221.7L46.1261 221.724Z" fill="#172224"/>
<path d="M29.0946 206.593C27.4791 205.894 25.9023 205.11 24.3712 204.243C24.2204 204.154 24.0488 204.104 23.8731 204.101C23.6975 204.097 23.5239 204.138 23.3692 204.221C23.2145 204.304 23.0841 204.425 22.9906 204.573C22.8972 204.721 22.844 204.891 22.8361 205.066V210.211C22.833 210.363 22.8681 210.514 22.9382 210.649C23.0083 210.785 23.1112 210.9 23.2376 210.986C24.8024 212.072 26.4623 213.016 28.1972 213.806C28.3466 213.886 28.5144 213.927 28.6844 213.925C28.8544 213.922 29.0208 213.876 29.1678 213.791C29.3149 213.707 29.4375 213.585 29.5239 213.44C29.6103 213.294 29.6577 213.129 29.6614 212.96V207.462C29.663 207.278 29.6101 207.097 29.5093 206.943C29.4086 206.788 29.2644 206.666 29.0946 206.593Z" fill="white"/>
<path d="M28.6477 214.158C28.4502 214.156 28.256 214.108 28.0809 214.017C26.3383 213.191 24.6709 212.217 23.0977 211.104C22.9373 210.993 22.8061 210.846 22.7156 210.674C22.6251 210.502 22.5779 210.311 22.5781 210.117V204.972C22.5783 204.757 22.6351 204.547 22.7429 204.361C22.8506 204.176 23.0056 204.021 23.1922 203.914C23.387 203.794 23.612 203.729 23.8416 203.729C24.0712 203.729 24.2962 203.794 24.4911 203.914C26.0217 204.782 27.5985 205.566 29.2145 206.264C29.432 206.356 29.6174 206.51 29.7476 206.706C29.8778 206.903 29.947 207.133 29.9466 207.368V212.842C29.9456 213.045 29.893 213.244 29.7939 213.42C29.6948 213.597 29.5524 213.746 29.3798 213.853C29.1756 214.031 28.9186 214.138 28.6477 214.158ZM23.9243 204.267C23.8004 204.235 23.6703 204.235 23.5464 204.267C23.4352 204.325 23.3428 204.413 23.2801 204.521C23.2173 204.629 23.1868 204.753 23.1922 204.878V210.023C23.1884 210.136 23.2122 210.249 23.2616 210.351C23.3109 210.454 23.3843 210.542 23.4756 210.61C25.0101 211.732 26.6376 212.723 28.3407 213.571C28.4606 213.635 28.5944 213.668 28.7304 213.668C28.8663 213.668 29.0001 213.635 29.12 213.571C29.223 213.509 29.3091 213.424 29.3709 213.321C29.4327 213.219 29.4682 213.103 29.4743 212.983V207.462C29.4701 207.324 29.4253 207.191 29.3455 207.078C29.2658 206.965 29.1545 206.878 29.0256 206.828C27.4083 206.133 25.8314 205.348 24.3022 204.478C24.1736 204.356 24.0069 204.282 23.8298 204.267H23.9243Z" fill="#172224"/>
<path d="M41.7774 210.704C40.3131 210.376 38.8725 210.023 37.4791 209.624C36.0857 209.224 35.1174 208.895 33.8657 208.472C33.7159 208.415 33.5545 208.395 33.3952 208.414C33.236 208.433 33.0837 208.49 32.9513 208.58C32.819 208.67 32.7106 208.79 32.6354 208.931C32.5602 209.072 32.5204 209.229 32.5195 209.389V214.887C32.5224 215.088 32.5874 215.284 32.7056 215.448C32.8238 215.612 32.9897 215.736 33.1808 215.803C35.8525 216.706 38.5825 217.428 41.3523 217.964C41.4964 217.995 41.6456 217.995 41.7894 217.962C41.9333 217.93 42.0683 217.867 42.1852 217.778C42.302 217.688 42.3979 217.574 42.4662 217.444C42.5344 217.314 42.5734 217.171 42.5804 217.025V211.621C42.5773 211.398 42.4949 211.184 42.3479 211.016C42.2008 210.848 41.9987 210.738 41.7774 210.704Z" fill="#D2FC1B"/>
<path d="M41.5673 218.246H41.3075C38.5168 217.73 35.7634 217.032 33.0651 216.155C32.818 216.08 32.6018 215.927 32.4487 215.72C32.2956 215.512 32.2136 215.261 32.2149 215.004V209.389C32.2127 209.194 32.259 209.002 32.3497 208.83C32.4403 208.658 32.5726 208.511 32.7345 208.402C32.9011 208.277 33.0969 208.196 33.3035 208.168C33.5101 208.139 33.7207 208.163 33.9153 208.237C35.167 208.684 36.277 209.06 37.5051 209.389C38.7332 209.718 40.2683 210.117 41.7798 210.446C42.0572 210.495 42.3083 210.64 42.4895 210.855C42.6708 211.069 42.7706 211.34 42.7717 211.621V217.025C42.7692 217.201 42.7277 217.374 42.6502 217.533C42.5726 217.691 42.4609 217.83 42.323 217.941C42.1106 218.121 41.8456 218.228 41.5673 218.246ZM33.5139 208.66C33.3537 208.663 33.1978 208.712 33.0651 208.801C32.9739 208.869 32.9005 208.958 32.8511 209.06C32.8018 209.163 32.778 209.275 32.7817 209.389V214.887C32.7834 215.037 32.832 215.184 32.9208 215.306C33.0097 215.428 33.1343 215.519 33.2777 215.568C35.9354 216.458 38.6494 217.172 41.4019 217.706C41.5159 217.73 41.6338 217.73 41.7477 217.706C41.8617 217.682 41.9692 217.634 42.0632 217.565C42.1438 217.499 42.2088 217.417 42.2537 217.324C42.2986 217.23 42.3223 217.128 42.323 217.025V211.621C42.3155 211.458 42.2532 211.302 42.1462 211.179C42.0391 211.055 41.8935 210.971 41.7326 210.939C40.1975 210.61 38.7568 210.258 37.4107 209.859C36.0645 209.459 35.049 209.154 33.7973 208.707L33.5139 208.66Z" fill="#172224"/>
<path d="M52.9266 212.326C50.7066 212.161 48.4866 211.903 46.2902 211.55C46.149 211.523 46.0035 211.526 45.8638 211.561C45.7241 211.595 45.5936 211.659 45.4812 211.748C45.3689 211.838 45.2774 211.95 45.2132 212.078C45.149 212.207 45.1136 212.347 45.1094 212.49V217.8C45.119 218.034 45.2122 218.258 45.3723 218.43C45.5324 218.602 45.749 218.712 45.9832 218.74C48.1796 219.069 50.4468 219.304 52.7613 219.492C52.8993 219.505 53.0385 219.489 53.1699 219.445C53.3014 219.402 53.4222 219.331 53.5246 219.238C53.6269 219.145 53.7086 219.032 53.7642 218.905C53.8199 218.779 53.8483 218.643 53.8477 218.505V213.289C53.8424 213.043 53.7451 212.808 53.5747 212.63C53.4043 212.452 53.1732 212.343 52.9266 212.326Z" fill="white"/>
<path d="M52.8306 219.75C50.4689 219.562 48.1072 219.304 46.0289 218.998C45.7197 218.981 45.4286 218.847 45.214 218.625C44.9994 218.403 44.8771 218.108 44.8717 217.8V212.49C44.8661 212.318 44.9017 212.148 44.9757 211.993C45.0496 211.837 45.1597 211.702 45.2968 211.597C45.4368 211.474 45.6025 211.382 45.7821 211.329C45.9617 211.277 46.1508 211.264 46.3359 211.292C48.5087 211.644 50.7287 211.903 52.9487 212.091C53.2599 212.103 53.5542 212.234 53.77 212.458C53.9858 212.681 54.1062 212.979 54.1059 213.289V218.505C54.104 218.67 54.0673 218.832 53.9982 218.982C53.929 219.132 53.8289 219.265 53.7044 219.374C53.5921 219.493 53.4567 219.587 53.3064 219.652C53.1562 219.716 52.9943 219.75 52.8306 219.75ZM46.1234 211.785C45.9406 211.786 45.7644 211.853 45.6274 211.973C45.5487 212.035 45.4846 212.114 45.4397 212.203C45.3948 212.292 45.3702 212.39 45.3676 212.49V217.8C45.3805 217.971 45.4501 218.133 45.5655 218.261C45.6809 218.388 45.8356 218.474 46.0053 218.505C48.1544 218.787 50.4453 219.045 52.7834 219.233C52.891 219.239 52.9988 219.224 53.1002 219.187C53.2016 219.151 53.2947 219.095 53.3738 219.022C53.4464 218.961 53.5051 218.886 53.5458 218.801C53.5866 218.716 53.6084 218.623 53.61 218.528V213.289C53.604 213.104 53.5275 212.928 53.3959 212.797C53.2643 212.666 53.0875 212.59 52.9014 212.584C50.6814 212.42 48.4614 212.138 46.2651 211.809L46.1234 211.785Z" fill="#172224"/>
<path d="M29.0944 196.654C27.4745 195.965 25.8973 195.18 24.371 194.305C24.2202 194.215 24.0486 194.166 23.8729 194.162C23.6973 194.158 23.5237 194.2 23.369 194.283C23.2143 194.365 23.0839 194.487 22.9905 194.635C22.897 194.783 22.8438 194.952 22.8359 195.127V200.296C22.8387 200.447 22.8763 200.596 22.9459 200.73C23.0155 200.865 23.1153 200.981 23.2374 201.071C24.8051 202.173 26.4643 203.14 28.197 203.961C28.349 204.036 28.5174 204.071 28.6868 204.065C28.8562 204.058 29.0212 204.009 29.1668 203.923C29.3124 203.836 29.4339 203.715 29.5203 203.57C29.6066 203.425 29.6551 203.26 29.6613 203.092V197.524C29.6628 197.339 29.6099 197.159 29.5092 197.004C29.4084 196.85 29.2642 196.728 29.0944 196.654Z" fill="#D2FC1B"/>
<path d="M28.6477 204.22C28.4502 204.218 28.256 204.17 28.0809 204.079C26.3335 203.262 24.6654 202.287 23.0977 201.165C22.9376 201.06 22.8063 200.917 22.7156 200.749C22.625 200.581 22.5777 200.393 22.5781 200.202V195.01C22.5828 194.796 22.6416 194.588 22.7489 194.403C22.8562 194.218 23.0087 194.063 23.1922 193.952C23.3911 193.843 23.6145 193.786 23.8416 193.786C24.0688 193.786 24.2922 193.843 24.4911 193.952C26.0168 194.829 27.5941 195.614 29.2145 196.302C29.4302 196.397 29.614 196.551 29.7438 196.747C29.8736 196.943 29.944 197.172 29.9466 197.406V202.998C29.9478 203.201 29.8962 203.4 29.7969 203.577C29.6976 203.754 29.5539 203.903 29.3798 204.008C29.1638 204.153 28.9079 204.227 28.6477 204.22ZM23.9243 194.328C23.8004 194.297 23.6704 194.297 23.5464 194.328C23.437 194.388 23.3461 194.477 23.2837 194.585C23.2212 194.692 23.1896 194.815 23.1922 194.939V200.108C23.1922 200.218 23.2178 200.326 23.267 200.423C23.3162 200.521 23.3876 200.606 23.4756 200.672C25.0135 201.789 26.6406 202.779 28.3407 203.632C28.4606 203.696 28.5944 203.73 28.7304 203.73C28.8663 203.73 29.0002 203.696 29.12 203.632C29.223 203.571 29.3091 203.485 29.3709 203.383C29.4327 203.28 29.4682 203.164 29.4743 203.045V197.524C29.4672 197.387 29.4213 197.254 29.3419 197.142C29.2625 197.03 29.1528 196.942 29.0256 196.889C27.4083 196.194 25.8314 195.41 24.3022 194.54C24.1736 194.418 24.0069 194.343 23.8298 194.328H23.9243Z" fill="#172224"/>
<path d="M41.7774 200.766C40.3132 200.437 38.8725 200.085 37.4791 199.685C36.0857 199.286 35.1174 198.957 33.8657 198.534C33.7159 198.477 33.5545 198.457 33.3952 198.476C33.236 198.494 33.0837 198.551 32.9513 198.641C32.819 198.731 32.7106 198.852 32.6354 198.993C32.5602 199.134 32.5204 199.291 32.5195 199.45V204.948C32.519 205.151 32.5825 205.348 32.7013 205.513C32.82 205.677 32.9878 205.8 33.1808 205.864C35.8525 206.768 38.5825 207.49 41.3523 208.026C41.4964 208.057 41.6456 208.056 41.7894 208.024C41.9333 207.992 42.0683 207.929 42.1852 207.839C42.302 207.75 42.3979 207.636 42.4662 207.506C42.5344 207.376 42.5734 207.233 42.5804 207.086V201.706C42.5782 201.48 42.4966 201.263 42.3499 201.091C42.2032 200.92 42.0006 200.804 41.7774 200.766Z" fill="white"/>
<path d="M41.5672 208.308H41.3074C38.514 207.753 35.7606 207.016 33.0651 206.099C32.8179 206.024 32.6018 205.871 32.4487 205.664C32.2955 205.456 32.2136 205.205 32.2149 204.948V199.45C32.2147 199.256 32.2619 199.065 32.3524 198.893C32.4429 198.721 32.574 198.574 32.7344 198.464C32.9038 198.344 33.0993 198.267 33.3048 198.239C33.5102 198.21 33.7196 198.231 33.9153 198.299C35.167 198.745 36.277 199.121 37.5051 199.45C38.7332 199.779 40.2919 200.179 41.7798 200.508C42.059 200.562 42.3107 200.711 42.4916 200.93C42.6725 201.148 42.7715 201.423 42.7717 201.706V207.086C42.7694 207.266 42.7282 207.443 42.6507 207.605C42.5732 207.767 42.4614 207.911 42.3229 208.026C42.1084 208.199 41.8432 208.298 41.5672 208.308ZM33.5138 198.722C33.3518 198.734 33.1964 198.791 33.0651 198.886C32.9725 198.948 32.8977 199.032 32.848 199.131C32.7983 199.23 32.7754 199.34 32.7817 199.45V204.948C32.7797 205.1 32.8269 205.248 32.9163 205.371C33.0056 205.493 33.1323 205.584 33.2776 205.63C35.9347 206.528 38.6488 207.25 41.4019 207.791C41.5175 207.812 41.6363 207.808 41.7504 207.78C41.8644 207.751 41.971 207.699 42.0632 207.627C42.1437 207.561 42.2087 207.479 42.2536 207.385C42.2985 207.292 42.3222 207.19 42.3229 207.086V201.706C42.3127 201.541 42.25 201.384 42.1438 201.257C42.0376 201.13 41.8935 201.041 41.7325 201.001C40.221 200.672 38.7568 200.32 37.4106 199.944C36.0644 199.568 35.0489 199.215 33.7972 198.769L33.5138 198.722Z" fill="#172224"/>
<path d="M52.9266 202.411C50.7066 202.223 48.4866 201.964 46.2902 201.612C46.149 201.585 46.0035 201.588 45.8638 201.622C45.7241 201.657 45.5936 201.721 45.4812 201.81C45.3689 201.899 45.2774 202.012 45.2132 202.14C45.149 202.268 45.1136 202.409 45.1094 202.552V207.862C45.1226 208.097 45.2165 208.321 45.3755 208.497C45.5344 208.672 45.7489 208.788 45.9832 208.825C48.1796 209.13 50.4468 209.365 52.7613 209.553C52.8973 209.566 53.0345 209.551 53.1644 209.509C53.2943 209.467 53.4139 209.398 53.5159 209.308C53.6179 209.217 53.7 209.107 53.7571 208.983C53.8142 208.86 53.845 208.726 53.8477 208.59V203.351C53.842 203.107 53.7438 202.875 53.5729 202.7C53.402 202.526 53.1711 202.423 52.9266 202.411Z" fill="#D2FC1B"/>
<path d="M52.8332 209.812C50.4715 209.624 48.1098 209.365 46.0315 209.06C45.7393 209.02 45.471 208.878 45.2759 208.658C45.0808 208.438 44.9717 208.155 44.9688 207.862V202.552C44.9686 202.381 45.0066 202.212 45.0801 202.058C45.1537 201.903 45.2608 201.767 45.3939 201.659C45.5322 201.533 45.6986 201.442 45.8792 201.393C46.0599 201.344 46.2497 201.339 46.433 201.377C48.6294 201.706 50.8494 201.988 53.0458 202.152C53.357 202.164 53.6513 202.296 53.8671 202.519C54.0828 202.743 54.2032 203.041 54.203 203.351V208.59C54.2027 208.753 54.169 208.914 54.1041 209.063C54.0391 209.213 53.9442 209.348 53.8251 209.459C53.6937 209.584 53.5375 209.679 53.3667 209.74C53.1959 209.801 53.0141 209.825 52.8332 209.812ZM46.126 201.847C45.9433 201.848 45.7671 201.915 45.63 202.035C45.5513 202.097 45.4872 202.175 45.4423 202.265C45.3974 202.354 45.3728 202.452 45.3702 202.552V207.862C45.3744 208.036 45.441 208.202 45.558 208.331C45.6749 208.461 45.8345 208.544 46.0079 208.566C48.157 208.872 50.4479 209.107 52.786 209.295C52.8921 209.305 52.9992 209.294 53.1008 209.262C53.2023 209.229 53.2962 209.177 53.3764 209.107C53.52 208.972 53.6048 208.786 53.6126 208.59V203.351C53.6014 203.167 53.5231 202.994 53.3926 202.865C53.2621 202.735 53.0883 202.657 52.9041 202.646C50.7077 202.481 48.4641 202.223 46.2677 201.87L46.126 201.847Z" fill="#172224"/>
<path d="M29.0945 186.716C27.4745 186.027 25.8973 185.242 24.3711 184.366C24.2202 184.277 24.0486 184.228 23.873 184.224C23.6973 184.22 23.5237 184.261 23.369 184.344C23.2143 184.427 23.0839 184.548 22.9905 184.696C22.897 184.844 22.8438 185.014 22.836 185.189V190.311C22.8349 190.463 22.8709 190.612 22.9408 190.747C23.0107 190.882 23.1125 190.999 23.2374 191.086C24.7995 192.196 26.4595 193.164 28.197 193.976C28.3491 194.05 28.5174 194.086 28.6868 194.079C28.8562 194.073 29.0213 194.024 29.1668 193.937C29.3124 193.851 29.4339 193.73 29.5203 193.585C29.6067 193.439 29.6551 193.275 29.6613 193.107V187.585C29.6628 187.401 29.61 187.22 29.5092 187.066C29.4084 186.911 29.2642 186.79 29.0945 186.716Z" fill="#D2FC1B"/>
<path d="M28.6477 194.281C28.4602 194.314 28.2684 194.314 28.0809 194.281C26.3388 193.409 24.6721 192.396 23.0977 191.251C22.9449 191.144 22.8187 191.003 22.7287 190.84C22.6387 190.678 22.5872 190.496 22.5781 190.311V185.142C22.58 184.931 22.6378 184.724 22.7456 184.543C22.8534 184.361 23.0074 184.211 23.1922 184.108C23.3888 183.992 23.6131 183.931 23.8416 183.931C24.0701 183.931 24.2944 183.992 24.4911 184.108C26.0218 184.975 27.5986 185.76 29.2145 186.458C29.4302 186.546 29.6148 186.695 29.745 186.888C29.8753 187.08 29.9455 187.306 29.9466 187.538V193.013C29.9474 193.219 29.8958 193.421 29.7967 193.602C29.6976 193.783 29.5542 193.936 29.3798 194.046C29.1617 194.189 28.9086 194.271 28.6477 194.281ZM23.9243 184.39C23.7993 184.368 23.6715 184.368 23.5464 184.39C23.4386 184.452 23.3492 184.541 23.287 184.648C23.2248 184.755 23.1921 184.877 23.1922 185.001V190.311C23.1922 190.42 23.2178 190.528 23.267 190.626C23.3162 190.724 23.3876 190.809 23.4756 190.875C25.0152 191.948 26.6426 192.891 28.3407 193.694C28.4592 193.762 28.5936 193.798 28.7304 193.798C28.8672 193.798 29.0016 193.762 29.12 193.694C29.2276 193.638 29.3176 193.553 29.3801 193.45C29.4426 193.346 29.4752 193.227 29.4743 193.107V187.585C29.4672 187.448 29.4213 187.316 29.3419 187.204C29.2625 187.091 29.1528 187.004 29.0256 186.951C27.4103 186.252 25.8336 185.467 24.3022 184.601C24.1725 184.481 24.0064 184.407 23.8298 184.39H23.9243Z" fill="#172224"/>
<path d="M41.7774 190.828C40.3131 190.522 38.8725 190.146 37.4791 189.77C36.0857 189.394 35.1174 189.018 33.8657 188.619C33.7178 188.563 33.5584 188.542 33.401 188.56C33.2435 188.577 33.0926 188.632 32.9608 188.72C32.829 188.807 32.7202 188.925 32.6434 189.062C32.5666 189.2 32.5241 189.354 32.5195 189.512V195.01C32.5203 195.209 32.5848 195.403 32.7037 195.564C32.8226 195.724 32.9896 195.843 33.1808 195.903C35.8519 196.814 38.582 197.544 41.3523 198.088C41.4979 198.115 41.6476 198.11 41.7914 198.075C41.9352 198.04 42.0697 197.974 42.186 197.883C42.3023 197.792 42.3976 197.677 42.4657 197.546C42.5337 197.415 42.5728 197.271 42.5804 197.124V191.767C42.5782 191.542 42.4966 191.325 42.3499 191.153C42.2032 190.981 42.0006 190.866 41.7774 190.828Z" fill="#D2FC1B"/>
<path d="M41.5672 198.37H41.3074C38.5146 197.823 35.7611 197.093 33.0651 196.185C32.8198 196.106 32.6058 195.952 32.4532 195.745C32.3006 195.539 32.2172 195.29 32.2148 195.033V189.512C32.2147 189.318 32.2619 189.127 32.3524 188.955C32.4429 188.783 32.574 188.635 32.7344 188.525C32.9061 188.411 33.1014 188.337 33.3059 188.308C33.5104 188.28 33.7187 188.298 33.9153 188.361C35.1434 188.807 36.277 189.183 37.5051 189.512C38.7331 189.841 40.2919 190.264 41.7797 190.593C42.0571 190.642 42.3082 190.787 42.4895 191.001C42.6707 191.216 42.7706 191.487 42.7717 191.767V197.148C42.7727 197.328 42.7329 197.506 42.6552 197.669C42.5775 197.831 42.4639 197.975 42.3229 198.088C42.1083 198.261 41.8431 198.359 41.5672 198.37ZM33.5138 188.807C33.3536 188.81 33.1977 188.859 33.0651 188.948C32.9757 189.012 32.9032 189.097 32.8539 189.195C32.8045 189.294 32.7797 189.402 32.7817 189.512V195.01C32.783 195.154 32.8291 195.295 32.9136 195.413C32.9981 195.53 33.1169 195.619 33.254 195.668C35.9167 196.574 38.6391 197.296 41.4019 197.829C41.5173 197.855 41.6373 197.854 41.7522 197.825C41.8671 197.797 41.9736 197.742 42.0631 197.665C42.1437 197.599 42.2087 197.517 42.2536 197.423C42.2985 197.33 42.3222 197.228 42.3229 197.124V191.767C42.3154 191.604 42.2531 191.449 42.1461 191.325C42.039 191.202 41.8934 191.117 41.7325 191.086C40.221 190.757 38.7804 190.381 37.4106 190.005C36.0408 189.629 35.0489 189.277 33.7972 188.854C33.708 188.815 33.6107 188.799 33.5138 188.807Z" fill="#172224"/>
<path d="M52.9266 192.472C50.7066 192.284 48.4866 192.026 46.2902 191.673C46.1476 191.65 46.0016 191.657 45.8619 191.694C45.7223 191.731 45.5922 191.798 45.4804 191.889C45.3686 191.98 45.2777 192.094 45.2137 192.223C45.1497 192.352 45.1142 192.493 45.1094 192.637V197.923C45.1182 198.16 45.2105 198.387 45.3703 198.563C45.5301 198.739 45.747 198.854 45.9832 198.886C48.1796 199.192 50.4468 199.45 52.7613 199.615C52.8973 199.628 53.0345 199.613 53.1644 199.57C53.2943 199.528 53.4139 199.46 53.5159 199.369C53.6179 199.279 53.7 199.168 53.7571 199.045C53.8142 198.921 53.845 198.787 53.8477 198.652V193.436C53.848 193.188 53.7525 192.95 53.581 192.771C53.4095 192.591 53.1751 192.484 52.9266 192.472Z" fill="#D2FC1B"/>
<path d="M52.8333 199.873C50.4716 199.685 48.1099 199.45 46.0316 199.121C45.7373 199.087 45.4662 198.945 45.2701 198.724C45.074 198.503 44.9668 198.218 44.9688 197.923V192.66C44.9668 192.486 45.0039 192.313 45.0774 192.154C45.151 191.996 45.2591 191.855 45.3939 191.744C45.536 191.624 45.7026 191.537 45.8821 191.488C46.0616 191.44 46.2497 191.431 46.4331 191.462C48.6058 191.791 50.8258 192.073 53.0458 192.237C53.3591 192.255 53.6536 192.392 53.8688 192.619C54.084 192.846 54.2036 193.147 54.2031 193.459V198.675C54.2046 198.844 54.1695 199.011 54.1002 199.165C54.0309 199.319 53.9291 199.456 53.8016 199.568C53.6691 199.681 53.5151 199.766 53.3487 199.818C53.1823 199.871 53.007 199.89 52.8333 199.873ZM46.1261 191.932C45.946 191.924 45.7694 191.983 45.6301 192.096C45.5496 192.162 45.4845 192.244 45.4396 192.338C45.3947 192.431 45.3711 192.533 45.3703 192.637V197.923C45.3745 198.097 45.4411 198.264 45.558 198.393C45.675 198.522 45.8346 198.605 46.008 198.628C48.1807 198.933 50.448 199.192 52.7861 199.38C53.002 199.382 53.2117 199.307 53.3765 199.168C53.5201 199.033 53.6049 198.848 53.6127 198.651V193.435C53.6067 193.25 53.5302 193.074 53.3986 192.944C53.267 192.813 53.0902 192.736 52.9041 192.731C50.6841 192.543 48.4641 192.284 46.2678 191.932H46.1261Z" fill="#172224"/>
<path d="M21.7747 180.56C21.0189 180.043 20.2632 179.55 19.5547 178.986V223.345C28.7653 230.84 42.1326 234.153 54.0119 234.764V232.179C42.6994 231.31 30.3949 229.125 21.7747 222.076V180.56Z" fill="#172224"/>
<path d="M21.4922 143.861C22.0923 148.301 23.6208 152.567 25.9794 156.384C30.9723 162.639 38.0825 166.873 45.983 168.296C61.523 171.679 88.7062 165.946 89.3203 142.451C72.8356 157.159 35.4262 155.937 21.4922 143.861Z" fill="#172224"/>
<path d="M78.2427 122.715C71.9134 119.684 48.2255 114.821 32.1659 123.185C27.0646 125.816 18.8459 131.032 21.7744 145.317C23.1442 152.107 30.8198 158.804 38.7315 162.821C46.1472 166.58 58.121 165.923 62.6555 165.171C67.2483 164.542 71.7028 163.152 75.8338 161.059C80.8633 158.74 85.0052 154.867 87.6423 150.016C92.3421 140.336 86.8157 126.874 78.2427 122.715Z" fill="#172224"/>
<path d="M17.4062 136.695C18.1015 141.204 19.8397 145.491 22.4839 149.218C28.1048 155.984 36.6541 159.532 44.9437 161.13C62.3731 164.513 92.839 158.78 93.5239 135.285C74.9845 150.016 33.0643 148.771 17.4062 136.695Z" fill="#C2C7CB"/>
<path d="M17.4062 135.426C18.0984 139.957 19.8364 144.268 22.4839 148.019C28.1048 154.762 36.6541 158.334 44.9437 159.931C62.3731 163.315 92.839 157.582 93.5239 134.087C74.9845 148.724 33.0643 147.502 17.4062 135.426Z" fill="#172224"/>
<path d="M81.0298 114.28C73.9447 111.249 47.3756 106.386 29.3558 114.75C23.6168 117.476 14.4298 122.598 17.689 136.883C19.2477 143.673 27.8443 150.369 36.7243 154.387C45.0375 158.146 58.4519 157.488 63.5532 156.736C68.6575 156.15 73.6425 154.795 78.3375 152.718C83.5096 150.369 88.7762 146.986 91.6339 141.676C96.8296 131.902 90.642 118.369 81.0298 114.28Z" fill="#172224"/>
<path d="M15.4688 127.579C16.2085 132.12 18.0396 136.416 20.8062 140.102C26.7105 146.845 35.7322 150.416 44.4232 152.014C62.7264 155.397 94.7747 149.664 95.4832 126.169C75.9756 140.971 31.9062 139.655 15.4688 127.579Z" fill="#C2C7CB"/>
<path d="M15.4688 126.404C16.2031 130.954 18.0345 135.258 20.8062 138.95C26.7105 145.693 35.7322 149.265 44.4232 150.862C62.7264 154.246 94.7747 148.513 95.4832 125.018C75.9756 139.726 31.9062 138.621 15.4688 126.404Z" fill="#172224"/>
<path d="M82.353 105.282C74.89 102.251 46.9275 97.3873 28.0339 105.728C22.0351 108.383 12.3522 113.599 15.7766 127.884C17.4062 134.674 26.4515 141.37 35.7802 145.388C44.5185 149.147 58.6179 148.489 63.979 147.737C69.332 147.124 74.5667 145.739 79.519 143.626C84.9509 141.276 90.5009 137.893 93.5002 132.56C98.9558 122.903 92.4611 109.37 82.353 105.282Z" fill="#172224"/>
<path d="M91.1139 111.954C84.6192 104.553 71.0394 99.455 55.3341 99.455C39.6288 99.455 26.5686 104.365 19.9086 111.531C18.4915 113.074 17.3494 114.846 16.5313 116.771C15.848 118.377 15.4946 120.102 15.4922 121.846C15.4915 122.444 15.5389 123.041 15.6339 123.631C15.8959 125.474 16.522 127.247 17.476 128.847C22.719 137.776 37.6922 144.237 55.3813 144.237C72.669 144.237 87.3824 138.081 92.9324 129.435C93.9202 127.929 94.6244 126.257 95.0107 124.501C95.193 123.628 95.2801 122.738 95.2705 121.846C95.2788 120.239 94.9823 118.645 94.3967 117.147C93.632 115.23 92.5192 113.47 91.1139 111.954Z" fill="#C2C7CB"/>
<path d="M91.1139 110.192C84.6192 102.791 71.0394 97.7163 55.3341 97.7163C39.6288 97.7163 26.5686 102.603 19.9086 109.793C18.4754 111.359 17.332 113.164 16.5313 115.126C15.8455 116.739 15.4921 118.473 15.4922 120.225C15.4924 120.815 15.5398 121.404 15.6339 121.987C15.8959 123.829 16.5219 125.602 17.476 127.203C22.719 136.131 37.6922 142.592 55.3813 142.592C72.669 142.592 87.3824 136.436 92.9324 127.814C93.9164 126.297 94.6202 124.619 95.0107 122.856C95.1918 121.991 95.2789 121.109 95.2705 120.225C95.2754 118.618 94.9791 117.024 94.3967 115.526C93.6417 113.562 92.5288 111.754 91.1139 110.192Z" fill="#172224"/>
<path d="M55.335 100.63C33.3003 100.63 17.9492 110.897 17.9492 120.107C17.9492 129.317 33.3003 139.585 55.335 139.585C77.3696 139.585 92.7207 129.223 92.7207 120.107C92.7207 110.991 77.3696 100.63 55.335 100.63Z" fill="#C2C7CB"/>
<path d="M55.3357 140.196C32.9468 140.196 17.3359 129.599 17.3359 120.107C17.3359 110.615 33.0649 99.9954 55.3357 99.9954C77.6066 99.9954 93.3591 110.592 93.3591 120.107C93.3591 129.623 77.7483 140.196 55.3357 140.196ZM55.3357 101.241C33.6789 101.241 18.5876 111.179 18.5876 120.037C18.5876 128.894 33.6789 138.833 55.3357 138.833C76.9925 138.833 92.1074 129.012 92.1074 120.107C92.1074 111.203 76.9925 101.241 55.3357 101.241Z" fill="#172224"/>
<g opacity="0.5">
<path d="M57.9572 0.30542H55.3358C45.5228 0.309034 35.889 2.92089 27.4309 7.8708C18.9729 12.8207 11.9978 19.9289 7.22734 28.46C2.45682 36.9911 0.0641132 46.6353 0.29673 56.3949C0.529346 66.1545 3.37884 75.675 8.55044 83.9716C14.6973 94.1659 17.9612 105.823 17.9972 117.711C17.9972 123.115 21.7287 128.495 28.8611 132.607C43.4328 141.041 67.593 141.112 82.2592 132.607C89.4624 128.471 92.5798 124.454 92.8632 117.593C93.1386 105.524 96.4864 93.722 102.593 83.2903C108.317 73.8999 111.05 63.0064 110.434 52.0417C108.876 24.1765 85.2821 0.30542 57.9572 0.30542Z" fill="#D2FC1B"/>
<path d="M55.547 139.256C46.1737 139.442 36.91 137.225 28.6472 132.818C21.5621 128.8 17.7834 123.42 17.6417 117.711C17.6512 105.88 14.4353 94.2688 8.33659 84.1126C3.1275 75.7765 0.253601 66.2064 0.0126066 56.3937C-0.228388 46.5811 2.17229 36.8827 6.96594 28.3035C11.7596 19.7242 18.7718 12.5761 27.2763 7.59965C35.7807 2.62317 45.4679 -0.000652526 55.3345 1.21725e-07H56.6806H57.9796C64.722 0.0942669 71.3787 1.51742 77.5647 4.18717C83.7508 6.85691 89.3434 10.7203 94.0191 15.5538C103.879 25.2813 109.768 38.2965 110.551 52.0887C111.157 63.1106 108.408 74.0581 102.663 83.5017C96.5619 93.8907 93.2289 105.658 92.98 117.687C92.7438 124.524 89.7445 128.565 82.2815 132.889C74.0639 137.25 64.8592 139.443 55.547 139.256ZM55.3345 0.634369C45.5816 0.652286 36.0099 3.25745 27.6062 8.1813C19.2025 13.1052 12.2707 20.1696 7.52552 28.6463C2.78031 37.123 0.39332 46.7053 0.610611 56.4055C0.827901 66.1056 3.64161 75.5727 8.76169 83.8307C14.9379 94.0554 18.2033 105.758 18.2085 117.687C18.2085 123.232 22.1525 128.448 28.9542 132.395C43.5968 140.853 67.4264 140.877 82.0925 132.395C89.4611 128.166 92.2951 124.148 92.5549 117.593C92.8206 105.48 96.1857 93.6331 102.332 83.1728C108.026 73.8148 110.742 62.9631 110.126 52.0417C108.638 24.1765 84.7377 0.563884 57.956 0.563884H55.3345V0.634369Z" fill="#172224"/>
</g>
<g style="mix-blend-mode:screen" opacity="0.55">
<path d="M73.851 7.26001C72.6701 10.5728 71.4893 13.9091 70.332 17.2454C75.9662 19.7964 80.9778 23.5317 85.0218 28.1942L92.7918 21.4276C87.5705 15.4106 81.1113 10.5791 73.851 7.26001Z" fill="url(#paint0_linear_6741_1730)"/>
<path d="M69.6478 19.219C68.4906 22.5553 67.2861 25.8446 66.1289 29.2044C69.757 30.9036 72.9779 33.3549 75.5757 36.3939L83.3221 29.6273C79.5609 25.2289 74.8989 21.6803 69.6478 19.219Z" fill="url(#paint1_linear_6741_1730)"/>
<path d="M87.2188 31.225C90.8122 36.2114 93.285 41.9087 94.4692 47.93L105.144 46.9902C103.576 39.2061 100.355 31.8447 95.6973 25.3982L87.2188 31.225Z" fill="url(#paint2_linear_6741_1730)"/>
<path d="M77.1094 38.2969C79.4376 41.5422 81.0475 45.2419 81.8328 49.1517L92.4132 48.1414C91.2803 42.4615 88.9279 37.0919 85.517 32.3997L77.1094 38.2969Z" fill="url(#paint3_linear_6741_1730)"/>
</g>
<path style="mix-blend-mode:screen" opacity="0.5" d="M56.3504 7.84741C38.3306 7.84741 23.6172 15.7183 23.6172 25.4453C23.6172 35.1723 38.2361 43.0666 56.2559 43.0666C74.2757 43.0666 88.9891 35.2428 88.9891 25.4453C88.9891 15.6478 74.3702 7.84741 56.3504 7.84741Z" fill="url(#paint4_radial_6741_1730)"/>
<path style="mix-blend-mode:screen" opacity="0.5" d="M56.3513 12.053C42.5118 12.053 31.1992 16.8695 31.1992 22.8138C31.1992 28.758 42.5118 33.5745 56.3513 33.5745C70.1909 33.5745 81.5035 28.8755 81.5035 22.8138C81.5035 16.752 70.2382 12.053 56.3513 12.053Z" fill="url(#paint5_radial_6741_1730)"/>
<path d="M83.1793 70.7204C82.3763 69.5221 80.8176 63.6718 78.2669 62.1211C75.7163 60.5705 71.725 59.0198 71.0165 57.9155C67.4987 55.3171 63.5499 53.3529 59.3497 52.1122C55.5237 51.1019 42.1329 50.7025 39.6059 53.2165C37.0789 55.7305 34.6935 53.7099 33.985 56.9052C33.2765 60.1006 31.458 70.4854 48.8165 79.3196C57.866 83.998 67.152 88.2092 76.6374 91.9365C77.255 92.3274 77.9718 92.535 78.7039 92.535C79.4359 92.535 80.1527 92.3274 80.7703 91.9365C82.1874 91.1142 85.1867 90.4328 85.0923 86.932C84.9978 83.4312 86.344 81.7631 86.4148 78.1213C86.2271 75.3568 85.0839 72.742 83.1793 70.7204Z" fill="#D2FC1B"/>
<path d="M78.9501 92.7353C78.1252 92.6836 77.3204 92.4595 76.5884 92.0775C76.1397 91.866 75.4548 91.5841 74.5101 91.2082C70.6605 89.681 62.7016 86.5091 48.744 79.4606C40.5961 75.3254 31.3854 68.0419 33.8416 56.9052C33.9003 56.2653 34.1965 55.6701 34.6725 55.2357C35.1484 54.8013 35.77 54.5589 36.4159 54.5557C37.5879 54.4153 38.678 53.8855 39.5097 53.052C42.0603 50.5381 55.4512 50.8905 59.3716 51.9243C63.628 53.167 67.627 55.1562 71.1801 57.7981C72.3173 58.7965 73.6197 59.5915 75.0297 60.1476C76.1774 60.6856 77.2967 61.2816 78.3833 61.9332C80.2727 63.0845 81.5952 66.4208 82.4691 68.6293C82.7165 69.2979 83.0084 69.9494 83.3429 70.5794L83.8625 71.2608C85.555 73.1746 86.5165 75.62 86.5784 78.1683C86.5417 79.6484 86.3115 81.1175 85.8935 82.5384C85.4613 83.9636 85.2386 85.4434 85.2323 86.932C85.2385 87.9995 84.8899 89.039 84.2406 89.8889C83.5914 90.7388 82.6779 91.3513 81.6425 91.6311L80.8395 92.0305C80.2823 92.4254 79.6309 92.6684 78.9501 92.7353ZM50.2318 51.4544C45.6974 51.4544 41.0684 51.9478 39.7223 53.3105C38.8301 54.1602 37.688 54.7036 36.4631 54.8612C35.3295 55.0961 34.4793 55.2606 34.1014 56.9287C31.7397 67.9245 40.785 75.0905 48.862 79.2021C62.7252 86.2507 70.7314 89.4225 74.581 90.9497C75.5493 91.3256 76.2342 91.5841 76.6829 91.7955C77.2768 92.1798 77.9701 92.3843 78.6785 92.3843C79.387 92.3843 80.0802 92.1798 80.6742 91.7955L81.5008 91.3961C82.4772 91.1409 83.3458 90.5811 83.9791 89.7988C84.6124 89.0166 84.9771 88.053 85.0197 87.0495C85.0022 85.5224 85.2172 84.0015 85.6574 82.5384C86.0737 81.1412 86.304 79.6957 86.3423 78.2388C86.2729 75.7498 85.3286 73.3637 83.6735 71.4957C83.461 71.2373 83.272 71.0023 83.1303 70.7909C82.7831 70.1476 82.4832 69.4802 82.2329 68.7938C81.3827 66.6322 80.0837 63.3429 78.2416 62.2386C77.2497 61.6278 76.0688 61.0169 74.9352 60.453C73.4262 59.9004 72.0388 59.0627 70.8495 57.986C67.3462 55.4172 63.4232 53.4698 59.2535 52.2297C56.281 51.6639 53.2578 51.4041 50.2318 51.4544Z" fill="#172224"/>
<path d="M80.6778 80.3299C80.8195 79.2726 83.9133 75.3255 82.5672 74.6206C81.221 73.9158 79.4733 78.9907 78.5523 78.2389C77.6312 77.487 76.1906 80.5884 76.1906 79.1317C76.1906 77.675 77.0172 75.2315 75.9544 74.1742C74.8916 73.1169 74.3248 67.6425 73.5927 66.7732C72.8606 65.9039 70.5461 68.3239 68.8693 68.3239C67.1925 68.3239 64.8072 66.8202 64.6419 65.1756C64.6076 63.5481 63.9681 61.9911 62.847 60.8055C61.9259 60.3591 59.9657 58.268 60.4853 57.2107C60.7729 56.5492 60.9331 55.8399 60.9576 55.1196C60.9576 55.1196 58.3833 56.1534 58.9974 57.4691C59.3954 58.4397 59.696 59.4471 59.8948 60.4765C59.8948 60.4765 59.4461 61.0639 57.3206 60.3121C55.778 59.592 54.4331 58.5119 53.4002 57.1637C52.1876 57.0895 50.9808 56.9404 49.7867 56.7173C48.417 56.4119 48.1099 54.3678 45.394 54.6027C42.678 54.8377 41.7806 54.6027 39.0646 54.8377C36.3487 55.0726 32.5699 55.895 32.877 61.2989C33.184 66.7027 41.261 82.4445 54.8408 88.8352C68.4206 95.2259 76.8046 93.6517 79.3553 91.8425C80.2253 91.0375 80.8239 89.9845 81.0692 88.8279C81.3144 87.6712 81.1942 86.4674 80.725 85.3814C79.8028 83.9598 79.0124 82.4577 78.3633 80.8938C78.3633 80.8938 80.5125 81.3872 80.6778 80.3299Z" fill="#172224"/>
<path d="M71.0147 57.9155C69.9 57.6236 68.7622 57.4271 67.6138 57.3281C66.1968 57.3281 60.8594 53.24 60.8594 53.24C60.8594 53.24 66.126 59.5132 66.7872 58.7379C67.4485 57.9625 70.07 59.6542 70.4715 61.0874C70.873 62.5206 66.9762 65.528 66.9762 65.528C66.9762 65.528 73.9196 64.8701 72.6207 63.1784C71.3217 61.4868 72.6206 59.9126 73.1402 59.2782C72.3482 58.968 71.6258 58.5049 71.0147 57.9155Z" fill="#172224"/>
<path d="M82.1857 68.4649C81.7842 68.7233 80.3672 67.5251 79.6823 67.4546C78.9974 67.3841 77.5568 63.155 76.0925 62.5676C74.6283 61.9802 78.1472 67.2666 77.8402 68.4179C77.6981 69.8162 77.6981 71.2252 77.8402 72.6235C78.1639 74.0592 78.6063 75.4659 79.1627 76.8292C79.1627 76.8292 79.3517 73.9158 79.4697 72.835C79.5159 72.2254 79.6106 71.6205 79.7531 71.0259L83.8861 71.6367C83.6027 71.2843 83.3429 70.9789 83.1776 70.7204C82.7931 69.9932 82.4616 69.2394 82.1857 68.4649Z" fill="#172224"/>
<path d="M55.1205 53.099C52.5935 52.3941 43.312 51.4778 42.2729 52.5116C41.8242 52.9345 44.0442 53.6159 46.6184 53.3574C51.0348 52.9345 50.775 55.7069 52.0739 55.7069C53.3729 55.7069 52.8533 53.6863 53.302 53.7568C55.3415 53.7419 57.363 53.3763 59.2771 52.6761C57.9007 52.8947 56.513 53.0359 55.1205 53.099Z" fill="#172224"/>
<path d="M84.1939 84.324C82.7769 84.8879 83.0131 81.9745 82.5407 81.9745C80.7931 82.28 82.9422 87.7778 81.785 89.0231C80.6278 90.2683 73.0703 89.7279 73.0703 89.7279L73.3301 90.5737C74.9361 91.2316 76.0224 91.631 76.6365 91.913C77.2541 92.3039 77.9709 92.5115 78.703 92.5115C79.435 92.5115 80.1518 92.3039 80.7695 91.913C82.1865 91.0906 85.1858 90.4093 85.0914 86.9085C85.1748 84.7424 85.5319 82.5953 86.1541 80.5178C85.6582 81.8336 85.0205 84.0186 84.1939 84.324Z" fill="#172224"/>
<path d="M74.2286 77.0406C74.6301 74.4326 69.5052 69.992 67.3797 69.0287C65.2542 68.0654 62.3493 68.1359 60.9559 65.6219C59.5625 63.1079 55.1225 61.2048 52.9025 59.6072C51.8993 58.9893 50.7693 58.6038 49.5961 58.4794C48.1318 58.2209 46.8093 58.0095 46.3605 56.9992C45.5576 55.2136 39.9131 56.2004 35.0952 56.5998C30.2773 56.9992 31.2693 59.4192 28.2463 59.6072C25.2233 59.7951 23.6173 63.8128 23.6173 65.6219C23.6627 67.9741 23.093 70.2977 21.9642 72.365C21.0766 74.3153 20.9073 76.5141 21.4859 78.5761C22.0645 80.6382 23.3542 82.4318 25.1288 83.6427C26.6446 84.9273 28.5695 85.635 30.5608 85.6398C31.5637 85.9697 32.5294 86.4027 33.442 86.932C34.6848 89.3573 36.0647 91.7105 37.575 93.9806C38.589 95.0912 39.842 95.9597 41.2406 96.5211C42.6392 97.0825 44.1472 97.3224 45.652 97.2229C47.258 97.2229 46.8565 98.0217 48.8639 98.4211C51.1117 98.4895 53.3569 98.2202 55.5239 97.6223C56.4119 98.3401 57.4475 98.8551 58.5574 99.1312C59.6674 99.4073 60.8247 99.4376 61.9478 99.22C65.1833 98.2332 66.9782 100.019 71.3946 99.4314C73.1528 99.1419 74.7625 98.2737 75.9657 96.9659C77.169 95.658 77.8962 93.9863 78.031 92.2184C78.031 89.8689 80.0384 86.4151 76.6139 83.0083C75.7438 82.2935 75.0691 81.3719 74.6521 80.3287C74.2352 79.2856 74.0895 78.1546 74.2286 77.0406Z" fill="#D2FC1B"/>
<path d="M69.5986 99.7132C68.5036 99.6955 67.4126 99.5775 66.3394 99.3608C64.9172 98.973 63.4162 98.973 61.9939 99.3608C60.8577 99.5846 59.6861 99.5597 58.5605 99.2879C57.4349 99.0161 56.3822 98.5038 55.4756 97.7866C53.3164 98.3814 51.0782 98.6429 48.8392 98.562C48.1983 98.4511 47.5919 98.1937 47.0679 97.8101C46.6716 97.4843 46.1636 97.3242 45.6509 97.3637H45.4384C43.9495 97.4379 42.4627 97.1811 41.086 96.6121C39.7093 96.0432 38.4773 95.1763 37.4794 94.0744C35.9499 91.8119 34.5618 89.458 33.3228 87.0259C32.4437 86.5082 31.5089 86.0905 30.536 85.7806H29.733C27.9799 85.6906 26.3117 85.0019 25.0096 83.8305C23.1203 82.2564 19.0109 78.0037 21.8213 72.4119C23.016 70.3476 23.6356 68.0037 23.6162 65.6218C23.6162 63.5777 25.175 59.6775 28.1507 59.4896C28.6035 59.4616 29.046 59.3432 29.4517 59.1413C29.8575 58.9395 30.2182 58.6584 30.5124 58.3148C31.078 57.699 31.768 57.209 32.5373 56.877C33.3065 56.545 34.1376 56.3784 34.976 56.3882L37.7864 56.2237C41.9194 55.8008 45.7926 55.4014 46.5011 56.9521C46.9026 57.8449 48.0835 58.0564 49.4769 58.3148H49.595C50.8207 58.4332 52.0016 58.8356 53.043 59.4896C53.7043 59.9595 54.5545 60.4529 55.4047 60.9933C57.6097 62.0769 59.5517 63.6241 61.0965 65.5278C61.5997 66.2227 62.2367 66.8111 62.9706 67.2588C63.7044 67.7065 64.5204 68.0046 65.3711 68.1358C66.0755 68.3354 66.7692 68.5707 67.4494 68.8406C69.8111 69.8744 74.7943 74.2915 74.3692 76.9934C74.2331 78.0947 74.3781 79.2123 74.7908 80.243C75.2036 81.2737 75.8709 82.1844 76.7309 82.8907C77.6756 83.8369 78.3371 85.0257 78.6416 86.3244C78.946 87.6231 78.8814 88.9805 78.455 90.2447C78.3064 90.8851 78.2194 91.5381 78.1952 92.1948C78.0608 93.9964 77.3218 95.7008 76.0969 97.0344C74.872 98.368 73.2322 99.2535 71.4407 99.5488C70.8299 99.6351 70.2151 99.69 69.5986 99.7132ZM63.9777 98.7969C64.7715 98.8249 65.5615 98.9192 66.3394 99.0789C67.9817 99.4481 69.6763 99.5277 71.3462 99.3138C73.0727 99.0428 74.6563 98.1989 75.8397 96.9193C77.0231 95.6396 77.7367 93.9995 77.8645 92.2653C77.8989 91.5939 77.9857 90.9262 78.1243 90.2682C78.5367 89.0586 78.6027 87.7587 78.315 86.5139C78.0272 85.2691 77.3969 84.1285 76.4947 83.2197C75.6173 82.4805 74.9411 81.5335 74.5283 80.4659C74.1156 79.3983 73.9797 78.2445 74.133 77.1109C74.5345 74.55 69.5513 70.2268 67.3786 69.24C66.7077 68.9665 66.0217 68.7312 65.3239 68.5352C64.4285 68.4008 63.5696 68.0881 62.7986 67.6158C62.0276 67.1434 61.3603 66.5212 60.8367 65.7863C59.3193 63.9171 57.4088 62.4014 55.2394 61.3457C54.342 60.8053 53.4681 60.2884 52.8777 59.8185C51.8848 59.1805 50.765 58.7637 49.595 58.5968H49.4296C48.0362 58.3618 46.7137 58.1268 46.2413 57.0931C45.769 56.0593 41.5416 56.0828 37.7864 56.3882L35.0941 56.6467C34.3024 56.638 33.5172 56.7898 32.7864 57.0927C32.0555 57.3957 31.3943 57.8434 30.843 58.4088C30.5182 58.7816 30.1202 59.0844 29.6735 59.2985C29.2267 59.5126 28.7407 59.6336 28.2452 59.654C25.2222 59.8655 23.9469 63.9301 23.9469 65.5278C23.9587 67.9132 23.3484 70.2608 22.1756 72.3414C19.4596 77.7688 23.4745 81.9039 25.3167 83.4311C26.5606 84.5807 28.1781 85.2478 29.8747 85.3107H30.6777C31.6897 85.6469 32.6633 86.0879 33.5826 86.6265C34.8391 89.157 36.2427 91.6125 37.7864 93.9804C38.7622 95.0531 39.9656 95.8964 41.3095 96.4491C42.6535 97.0017 44.1042 97.25 45.5565 97.1758H45.769C46.3331 97.1345 46.8914 97.3112 47.3277 97.6692C47.8243 98.0454 48.4099 98.2881 49.0282 98.374C51.243 98.4375 53.4553 98.1762 55.5937 97.5987C56.474 98.2964 57.4946 98.7979 58.5865 99.0695C59.6785 99.3411 60.8163 99.3763 61.923 99.1729C62.5833 98.9389 63.277 98.8119 63.9777 98.7969Z" fill="#172224"/>
<path d="M51.4853 91.6312C50.6537 91.5404 49.8613 91.2315 49.1891 90.7362C48.5168 90.2408 47.9889 89.5767 47.6593 88.8118C46.6469 88.8784 45.6324 88.7165 44.6918 88.3381C43.7512 87.9597 42.9087 87.3747 42.2274 86.6267C41.2119 85.0995 40.031 80.6825 38.9446 78.7559C38.6848 78.333 37.2678 76.4064 37.6457 80.612C37.786 82.2889 38.2639 83.9206 39.051 85.41C39.8381 86.8994 40.9183 88.2161 42.2274 89.2817C46.6674 92.2891 49.3125 92.2891 50.2808 94.4976C50.8011 95.7766 51.1427 97.1205 51.2963 98.4918C52.72 98.3079 54.1315 98.0412 55.5238 97.693C54.8223 96.9755 54.3961 96.0359 54.3193 95.038C54.7014 93.1726 55.3039 91.3587 56.1142 89.6341C54.8578 90.8244 53.2174 91.5322 51.4853 91.6312Z" fill="#172224"/>
<path d="M45.3429 95.0377C43.6897 93.6985 41.2808 93.8394 40.0763 92.1948C39.2176 90.8044 38.6027 89.279 38.2578 87.6837C38.2578 87.6837 38.2578 92.3827 40.218 93.6985C42.1782 95.0142 45.6499 97.2462 45.6499 97.2462C45.6499 97.2462 47.0197 96.3299 45.3429 95.0377Z" fill="#172224"/>
<path d="M26.7802 75.8188C26.9455 74.785 28.5278 71.0023 27.6068 70.6264C26.1189 70.0155 24.2295 75.3254 25.741 78.2388C27.2525 81.1522 22.907 79.3431 23.8989 81.4106C24.9996 83.1374 26.5956 84.496 28.4806 85.3108C29.0162 85.4442 29.5608 85.5384 30.1102 85.5928H30.5589C30.8502 84.7749 30.9207 83.8952 30.7632 83.0418C30.6057 82.1883 30.2258 81.3909 29.6614 80.7293C27.7012 78.5207 26.6385 76.8761 26.7802 75.8188Z" fill="#172224"/>
<path d="M33.5833 71.4723C32.2135 71.7778 31.2216 69.1228 31.4578 66.7733C31.2758 64.206 30.6109 61.6955 29.4976 59.3723C29.4976 59.3723 30.4186 65.1051 27.9861 65.716C25.5535 66.3269 24.6797 70.415 24.6797 70.415C25.5037 69.1465 26.6425 68.1108 27.9861 67.4077C30.3478 66.0684 30.3478 67.7131 29.9699 69.7572C29.592 71.8012 31.9301 74.5737 31.9301 75.631C31.9301 76.6882 29.5684 77.722 29.5684 77.722C30.7389 78.338 31.8065 79.1305 32.7331 80.0715C33.7959 81.2698 33.3235 87.1201 33.3235 87.1201C33.9322 84.8093 34.3431 82.4513 34.5516 80.0715C34.5516 77.1346 33.4888 78.3329 33.1818 76.5473C32.8748 74.7616 32.2844 72.8585 33.9376 72.7176C35.5908 72.5766 36.5118 69.0993 36.5118 69.0993C36.5118 69.0993 34.9295 71.1669 33.5833 71.4723Z" fill="#172224"/>
<path d="M25.0584 64.4941C24.6429 64.8413 24.2006 65.1555 23.7358 65.4339C23.7243 65.496 23.7243 65.5598 23.7358 65.6219C23.7288 66.0127 23.6652 66.4004 23.5469 66.7731C24.048 66.5929 24.5371 66.381 25.0111 66.1388C26.1447 65.5514 27.113 62.6145 27.113 62.6145C26.4676 63.2824 25.7814 63.9102 25.0584 64.4941Z" fill="#172224"/>
<path d="M68.1369 92.9468C66.7907 90.5973 62.8703 92.195 62.8703 92.195C62.8703 92.195 65.8933 94.0041 65.8933 95.5078C65.8933 97.0115 61.9492 99.2435 61.9492 99.2435L68.6801 98.0453C70.5597 97.6939 72.42 97.2469 74.2537 96.706C75.9069 96.0952 77.7962 91.5841 77.7962 91.5841C75.8165 93.0598 73.7503 94.4171 71.6086 95.6488C70.4041 96.0952 69.5067 95.2024 68.1369 92.9468Z" fill="#172224"/>
<path d="M70.0946 81.0819C67.237 79.4372 67.0953 75.3725 64.521 74.3153C61.9468 73.258 55.0742 70.603 55.0742 70.603C57.6707 72.7393 60.4527 74.642 63.3874 76.2889C65.4893 77.0407 65.9617 80.1891 65.9617 80.1891L63.0804 79.7426C63.0804 79.7426 65.6546 82.891 67.6149 82.891C69.5751 82.891 78.3842 89.3991 78.3842 89.3991C75.9657 86.3066 73.1826 83.5142 70.0946 81.0819Z" fill="#172224"/>
<path d="M62.2544 85.8043C61.6915 84.7304 60.8754 83.8082 59.8759 83.1167C58.8764 82.4252 57.7234 81.9849 56.5155 81.8336C53.6578 81.8336 48.8163 81.5282 47.9189 79.4841C47.0214 77.44 53.6578 76.8761 54.3191 75.1845C54.9804 73.4928 49.5957 68.4649 48.4385 70.086C47.6591 71.2608 50.5168 73.3989 50.3751 74.4561C50.2334 75.5134 48.0134 75.9363 46.4783 77.44C46.057 77.8731 45.5349 78.1961 44.9581 78.3806C44.3814 78.565 43.7679 78.6051 43.1719 78.4973C44.6172 79.2632 45.9786 80.1766 47.234 81.2227C48.1314 82.28 47.541 83.0319 47.234 84.5356C46.9843 85.3151 46.9843 86.1525 47.234 86.9321C47.234 86.9321 47.234 83.3373 50.257 83.1963C53.28 83.0554 57.3421 82.6559 58.2631 84.0891C61.9002 89.5165 55.9014 92.6414 57.838 93.4872C60.6957 94.568 62.1836 89.2816 62.9393 88.7882C63.6951 88.2948 71.8193 92.195 70.7802 90.2214C69.5993 87.6839 62.7032 86.9321 62.2544 85.8043Z" fill="#172224"/>
<path d="M49.5946 58.4795C48.1303 58.221 46.8078 58.0096 46.3591 56.9993C45.8135 58.8944 44.64 60.5504 43.0291 61.6983C40.3131 63.6484 41.6829 67.4076 41.8246 68.4414C41.9663 69.4752 37.1012 73.1404 38.6599 74.7616C39.1795 75.3255 41.0216 73.7043 42.5803 71.8952C43.1925 71.0628 43.5828 70.0898 43.715 69.0668C43.8471 68.0438 43.7168 67.0042 43.3361 66.0449C42.8874 64.8466 44.3988 65.1521 45.6978 65.9039C46.9967 66.6558 55.6169 63.4369 55.6169 63.4369C55.6169 63.4369 48.7916 62.7321 46.5244 62.5911C44.2571 62.4501 48.8861 58.9494 49.5946 58.4795Z" fill="#172224"/>
<path d="M55.6183 65.9274C54.8651 66.0493 54.1794 66.4321 53.6824 67.0082C53.1855 67.5843 52.9092 68.3166 52.9023 69.0757C54.2944 68.9559 55.6622 68.6395 56.9645 68.1359C59.09 67.2431 61.9477 68.4414 62.2547 67.2431C60.1738 66.3025 57.9027 65.8522 55.6183 65.9274Z" fill="#172224"/>
<path d="M37.5031 56.3883C37.5031 56.3883 33.8897 58.9493 34.1731 59.7011C34.5928 60.887 35.098 62.0413 35.6846 63.1549C36.6057 64.7996 33.3229 67.7365 33.5591 68.6293C33.748 69.0992 36.5584 67.8774 37.5031 66.2798C37.8663 65.4113 37.9592 64.4544 37.7697 63.5329C37.5803 62.6114 37.1172 61.7676 36.4403 61.1108C35.2359 59.4662 36.7474 57.3516 37.5031 56.3883Z" fill="#172224"/>
</g>
<defs>
<linearGradient id="paint0_linear_6741_1730" x1="68.3718" y1="17.7623" x2="107.104" y2="17.7623" gradientUnits="userSpaceOnUse">
<stop stop-color="white"/>
<stop offset="0.04" stop-color="#F3F3F3"/>
<stop offset="0.4" stop-color="#8D8D8D"/>
<stop offset="0.69" stop-color="#414141"/>
<stop offset="0.89" stop-color="#121212"/>
<stop offset="1"/>
</linearGradient>
<linearGradient id="paint1_linear_6741_1730" x1="47.1172" y1="27.7947" x2="79.5906" y2="27.7947" gradientUnits="userSpaceOnUse">
<stop stop-color="white"/>
<stop offset="0.04" stop-color="#F3F3F3"/>
<stop offset="0.4" stop-color="#8D8D8D"/>
<stop offset="0.69" stop-color="#414141"/>
<stop offset="0.89" stop-color="#121212"/>
<stop offset="1"/>
</linearGradient>
<linearGradient id="paint2_linear_6741_1730" x1="85.3766" y1="36.6289" x2="110.694" y2="36.6289" gradientUnits="userSpaceOnUse">
<stop stop-color="white"/>
<stop offset="0.04" stop-color="#F3F3F3"/>
<stop offset="0.4" stop-color="#8D8D8D"/>
<stop offset="0.69" stop-color="#414141"/>
<stop offset="0.89" stop-color="#121212"/>
<stop offset="1"/>
</linearGradient>
<linearGradient id="paint3_linear_6741_1730" x1="62.089" y1="40.7874" x2="87.0521" y2="40.7874" gradientUnits="userSpaceOnUse">
<stop stop-color="white"/>
<stop offset="0.04" stop-color="#F3F3F3"/>
<stop offset="0.4" stop-color="#8D8D8D"/>
<stop offset="0.69" stop-color="#414141"/>
<stop offset="0.89" stop-color="#121212"/>
<stop offset="1"/>
</linearGradient>
<radialGradient id="paint4_radial_6741_1730" cx="0" cy="0" r="1" gradientUnits="userSpaceOnUse" gradientTransform="translate(56.3504 25.4453) scale(26.2385 26.1031)">
<stop stop-color="white"/>
<stop offset="1"/>
</radialGradient>
<radialGradient id="paint5_radial_6741_1730" cx="0" cy="0" r="1" gradientUnits="userSpaceOnUse" gradientTransform="translate(56.3513 22.8138) scale(19.366 19.266)">
<stop stop-color="white"/>
<stop offset="1"/>
</radialGradient>
<clipPath id="clip0_6741_1730">
<rect width="111" height="242" fill="white"/>
</clipPath>
</defs>
</svg>
